%TF.GenerationSoftware,KiCad,Pcbnew,10.0.1*%
%TF.CreationDate,2026-05-21T23:34:01+05:30*%
%TF.ProjectId,HSM_Project,48534d5f-5072-46f6-9a65-63742e6b6963,rev?*%
%TF.SameCoordinates,Original*%
%TF.FileFunction,Paste,Bot*%
%TF.FilePolarity,Positive*%
%FSLAX46Y46*%
G04 Gerber Fmt 4.6, Leading zero omitted, Abs format (unit mm)*
G04 Created by KiCad (PCBNEW 10.0.1) date 2026-05-21 23:34:01*
%MOMM*%
%LPD*%
G01*
G04 APERTURE LIST*
G04 Aperture macros list*
%AMRoundRect*
0 Rectangle with rounded corners*
0 $1 Rounding radius*
0 $2 $3 $4 $5 $6 $7 $8 $9 X,Y pos of 4 corners*
0 Add a 4 corners polygon primitive as box body*
4,1,4,$2,$3,$4,$5,$6,$7,$8,$9,$2,$3,0*
0 Add four circle primitives for the rounded corners*
1,1,$1+$1,$2,$3*
1,1,$1+$1,$4,$5*
1,1,$1+$1,$6,$7*
1,1,$1+$1,$8,$9*
0 Add four rect primitives between the rounded corners*
20,1,$1+$1,$2,$3,$4,$5,0*
20,1,$1+$1,$4,$5,$6,$7,0*
20,1,$1+$1,$6,$7,$8,$9,0*
20,1,$1+$1,$8,$9,$2,$3,0*%
G04 Aperture macros list end*
%ADD10RoundRect,0.237500X0.300000X0.237500X-0.300000X0.237500X-0.300000X-0.237500X0.300000X-0.237500X0*%
%ADD11RoundRect,0.237500X0.237500X-0.300000X0.237500X0.300000X-0.237500X0.300000X-0.237500X-0.300000X0*%
%ADD12RoundRect,0.237500X0.250000X0.237500X-0.250000X0.237500X-0.250000X-0.237500X0.250000X-0.237500X0*%
%ADD13RoundRect,0.150000X-0.150000X0.587500X-0.150000X-0.587500X0.150000X-0.587500X0.150000X0.587500X0*%
%ADD14RoundRect,0.237500X-0.008839X-0.344715X0.344715X0.008839X0.008839X0.344715X-0.344715X-0.008839X0*%
%ADD15RoundRect,0.237500X-0.237500X0.300000X-0.237500X-0.300000X0.237500X-0.300000X0.237500X0.300000X0*%
%ADD16RoundRect,0.237500X-0.237500X0.250000X-0.237500X-0.250000X0.237500X-0.250000X0.237500X0.250000X0*%
%ADD17RoundRect,0.237500X-0.250000X-0.237500X0.250000X-0.237500X0.250000X0.237500X-0.250000X0.237500X0*%
%ADD18RoundRect,0.150000X0.150000X-0.587500X0.150000X0.587500X-0.150000X0.587500X-0.150000X-0.587500X0*%
%ADD19RoundRect,0.250000X-1.450000X0.400000X-1.450000X-0.400000X1.450000X-0.400000X1.450000X0.400000X0*%
%ADD20RoundRect,0.250000X-1.500000X-0.650000X1.500000X-0.650000X1.500000X0.650000X-1.500000X0.650000X0*%
%ADD21RoundRect,0.237500X0.237500X-0.250000X0.237500X0.250000X-0.237500X0.250000X-0.237500X-0.250000X0*%
%ADD22RoundRect,0.250000X0.400000X1.075000X-0.400000X1.075000X-0.400000X-1.075000X0.400000X-1.075000X0*%
%ADD23RoundRect,0.250000X-0.412500X-1.100000X0.412500X-1.100000X0.412500X1.100000X-0.412500X1.100000X0*%
%ADD24RoundRect,0.250000X-0.400000X-1.075000X0.400000X-1.075000X0.400000X1.075000X-0.400000X1.075000X0*%
%ADD25RoundRect,0.237500X-0.300000X-0.237500X0.300000X-0.237500X0.300000X0.237500X-0.300000X0.237500X0*%
%ADD26R,4.600000X2.300000*%
%ADD27RoundRect,0.250000X0.412500X1.100000X-0.412500X1.100000X-0.412500X-1.100000X0.412500X-1.100000X0*%
%ADD28RoundRect,0.237500X0.344715X-0.008839X-0.008839X0.344715X-0.344715X0.008839X0.008839X-0.344715X0*%
G04 APERTURE END LIST*
D10*
%TO.C,C3*%
X183060000Y-51040000D03*
X181335000Y-51040000D03*
%TD*%
%TO.C,C22*%
X167262501Y-99530000D03*
X165537499Y-99530000D03*
%TD*%
D11*
%TO.C,C17*%
X188160000Y-124765001D03*
X188160000Y-123039999D03*
%TD*%
D10*
%TO.C,C11*%
X183070000Y-53110000D03*
X181345000Y-53110000D03*
%TD*%
D12*
%TO.C,R10*%
X188675000Y-74190000D03*
X186850000Y-74190000D03*
%TD*%
D13*
%TO.C,Q12*%
X114580000Y-71272500D03*
X116480000Y-71272500D03*
X115530000Y-73147500D03*
%TD*%
D14*
%TO.C,R11*%
X147864765Y-32515235D03*
X149155235Y-31224765D03*
%TD*%
D15*
%TO.C,C8*%
X150560000Y-124757500D03*
X150560000Y-126482500D03*
%TD*%
D16*
%TO.C,R38*%
X118800000Y-70082500D03*
X118800000Y-71907500D03*
%TD*%
D17*
%TO.C,R3*%
X172657500Y-123740000D03*
X174482500Y-123740000D03*
%TD*%
D18*
%TO.C,Q9*%
X177510000Y-44947500D03*
X175610000Y-44947500D03*
X176560000Y-43072500D03*
%TD*%
D17*
%TO.C,R34*%
X132312500Y-48480000D03*
X134137500Y-48480000D03*
%TD*%
D13*
%TO.C,Q2*%
X194110000Y-70902500D03*
X196010000Y-70902500D03*
X195060000Y-72777500D03*
%TD*%
D12*
%TO.C,R9*%
X187392500Y-70970000D03*
X185567500Y-70970000D03*
%TD*%
D19*
%TO.C,F3*%
X123620000Y-62494999D03*
X123620000Y-66945001D03*
%TD*%
D15*
%TO.C,C16*%
X188210000Y-127577500D03*
X188210000Y-129302500D03*
%TD*%
D20*
%TO.C,D2*%
X148290000Y-117050000D03*
X153290000Y-117050000D03*
%TD*%
D12*
%TO.C,R36*%
X181252500Y-64030000D03*
X179427500Y-64030000D03*
%TD*%
D17*
%TO.C,R31*%
X118227500Y-73760000D03*
X120052500Y-73760000D03*
%TD*%
D21*
%TO.C,R2*%
X186080000Y-124832500D03*
X186080000Y-123007500D03*
%TD*%
D17*
%TO.C,R37*%
X127707501Y-66090000D03*
X129532501Y-66090000D03*
%TD*%
%TO.C,R13*%
X174737500Y-69840000D03*
X176562500Y-69840000D03*
%TD*%
D10*
%TO.C,C21*%
X140872501Y-101070000D03*
X139147499Y-101070000D03*
%TD*%
D17*
%TO.C,R21*%
X127682500Y-68260000D03*
X129507500Y-68260000D03*
%TD*%
D21*
%TO.C,R24*%
X142090000Y-80015000D03*
X142090000Y-78190000D03*
%TD*%
D16*
%TO.C,R33*%
X186110000Y-127507500D03*
X186110000Y-129332500D03*
%TD*%
D17*
%TO.C,R32*%
X185567500Y-67210000D03*
X187392500Y-67210000D03*
%TD*%
%TO.C,R15*%
X132347500Y-50770000D03*
X134172500Y-50770000D03*
%TD*%
D21*
%TO.C,R23*%
X144610000Y-79972500D03*
X144610000Y-78147500D03*
%TD*%
%TO.C,R5*%
X147240000Y-79992500D03*
X147240000Y-78167500D03*
%TD*%
D17*
%TO.C,R14*%
X133337500Y-69860000D03*
X135162500Y-69860000D03*
%TD*%
D15*
%TO.C,C4*%
X124240000Y-83897500D03*
X124240000Y-85622500D03*
%TD*%
D12*
%TO.C,R17*%
X174732500Y-50360000D03*
X172907500Y-50360000D03*
%TD*%
D22*
%TO.C,R18*%
X181220000Y-47800000D03*
X178120000Y-47800000D03*
%TD*%
%TO.C,R29*%
X112190000Y-73470000D03*
X109090000Y-73470000D03*
%TD*%
D23*
%TO.C,C5*%
X126287500Y-83900000D03*
X129412500Y-83900000D03*
%TD*%
D11*
%TO.C,C9*%
X166250000Y-123715777D03*
X166250000Y-121990777D03*
%TD*%
D24*
%TO.C,R22*%
X124880000Y-56200000D03*
X127980000Y-56200000D03*
%TD*%
D10*
%TO.C,C12*%
X126762500Y-53510000D03*
X125037500Y-53510000D03*
%TD*%
D15*
%TO.C,C6*%
X131690000Y-78247500D03*
X131690000Y-79972500D03*
%TD*%
D25*
%TO.C,C1*%
X189157500Y-66320000D03*
X190882500Y-66320000D03*
%TD*%
D16*
%TO.C,R28*%
X120950000Y-70087500D03*
X120950000Y-71912500D03*
%TD*%
D24*
%TO.C,R16*%
X126164999Y-48390000D03*
X129264999Y-48390000D03*
%TD*%
D21*
%TO.C,R6*%
X148449181Y-126537500D03*
X148449181Y-124712500D03*
%TD*%
D26*
%TO.C,F2*%
X118790000Y-114739999D03*
X118790000Y-106340001D03*
%TD*%
D21*
%TO.C,R30*%
X149730000Y-80092500D03*
X149730000Y-78267500D03*
%TD*%
D18*
%TO.C,Q10*%
X180680000Y-61577500D03*
X178780000Y-61577500D03*
X179730000Y-59702500D03*
%TD*%
D27*
%TO.C,C7*%
X128772500Y-78680000D03*
X125647500Y-78680000D03*
%TD*%
D10*
%TO.C,C13*%
X112432500Y-69040000D03*
X110707500Y-69040000D03*
%TD*%
D18*
%TO.C,Q8*%
X131720000Y-45687500D03*
X129820000Y-45687500D03*
X130770000Y-43812500D03*
%TD*%
D21*
%TO.C,R7*%
X152530000Y-126537498D03*
X152530000Y-124712498D03*
%TD*%
D18*
%TO.C,Q11*%
X128542499Y-61025001D03*
X126642499Y-61025001D03*
X127592499Y-59150001D03*
%TD*%
D25*
%TO.C,C2*%
X126787500Y-51600000D03*
X128512500Y-51600000D03*
%TD*%
D12*
%TO.C,R19*%
X181202500Y-66060000D03*
X179377500Y-66060000D03*
%TD*%
%TO.C,R35*%
X174762500Y-48090000D03*
X172937500Y-48090000D03*
%TD*%
D24*
%TO.C,R8*%
X189160000Y-71710000D03*
X192260000Y-71710000D03*
%TD*%
D22*
%TO.C,R20*%
X183870000Y-56170000D03*
X180770000Y-56170000D03*
%TD*%
D28*
%TO.C,R12*%
X160345235Y-32535235D03*
X159054765Y-31244765D03*
%TD*%
M02*
