%TF.GenerationSoftware,KiCad,Pcbnew,10.0.1*%
%TF.CreationDate,2026-05-21T23:34:01+05:30*%
%TF.ProjectId,HSM_Project,48534d5f-5072-46f6-9a65-63742e6b6963,rev?*%
%TF.SameCoordinates,Original*%
%TF.FileFunction,Legend,Bot*%
%TF.FilePolarity,Positive*%
%FSLAX46Y46*%
G04 Gerber Fmt 4.6, Leading zero omitted, Abs format (unit mm)*
G04 Created by KiCad (PCBNEW 10.0.1) date 2026-05-21 23:34:01*
%MOMM*%
%LPD*%
G01*
G04 APERTURE LIST*
%ADD10C,0.150000*%
%ADD11C,0.120000*%
G04 APERTURE END LIST*
D10*
X176360000Y-105100000D02*
X191185000Y-105100000D01*
X191185000Y-116220000D01*
X176360000Y-116220000D01*
X176360000Y-105100000D01*
X190161792Y-106554748D02*
X190209411Y-106602368D01*
X190209411Y-106602368D02*
X190352268Y-106649987D01*
X190352268Y-106649987D02*
X190447506Y-106649987D01*
X190447506Y-106649987D02*
X190590363Y-106602368D01*
X190590363Y-106602368D02*
X190685601Y-106507129D01*
X190685601Y-106507129D02*
X190733220Y-106411891D01*
X190733220Y-106411891D02*
X190780839Y-106221415D01*
X190780839Y-106221415D02*
X190780839Y-106078558D01*
X190780839Y-106078558D02*
X190733220Y-105888082D01*
X190733220Y-105888082D02*
X190685601Y-105792844D01*
X190685601Y-105792844D02*
X190590363Y-105697606D01*
X190590363Y-105697606D02*
X190447506Y-105649987D01*
X190447506Y-105649987D02*
X190352268Y-105649987D01*
X190352268Y-105649987D02*
X190209411Y-105697606D01*
X190209411Y-105697606D02*
X190161792Y-105745225D01*
X189542744Y-105649987D02*
X189352268Y-105649987D01*
X189352268Y-105649987D02*
X189257030Y-105697606D01*
X189257030Y-105697606D02*
X189161792Y-105792844D01*
X189161792Y-105792844D02*
X189114173Y-105983320D01*
X189114173Y-105983320D02*
X189114173Y-106316653D01*
X189114173Y-106316653D02*
X189161792Y-106507129D01*
X189161792Y-106507129D02*
X189257030Y-106602368D01*
X189257030Y-106602368D02*
X189352268Y-106649987D01*
X189352268Y-106649987D02*
X189542744Y-106649987D01*
X189542744Y-106649987D02*
X189637982Y-106602368D01*
X189637982Y-106602368D02*
X189733220Y-106507129D01*
X189733220Y-106507129D02*
X189780839Y-106316653D01*
X189780839Y-106316653D02*
X189780839Y-105983320D01*
X189780839Y-105983320D02*
X189733220Y-105792844D01*
X189733220Y-105792844D02*
X189637982Y-105697606D01*
X189637982Y-105697606D02*
X189542744Y-105649987D01*
X188685601Y-106649987D02*
X188685601Y-105649987D01*
X188685601Y-105649987D02*
X188114173Y-106649987D01*
X188114173Y-106649987D02*
X188114173Y-105649987D01*
X187780839Y-105649987D02*
X187209411Y-105649987D01*
X187495125Y-106649987D02*
X187495125Y-105649987D01*
X186304649Y-106649987D02*
X186637982Y-106173796D01*
X186876077Y-106649987D02*
X186876077Y-105649987D01*
X186876077Y-105649987D02*
X186495125Y-105649987D01*
X186495125Y-105649987D02*
X186399887Y-105697606D01*
X186399887Y-105697606D02*
X186352268Y-105745225D01*
X186352268Y-105745225D02*
X186304649Y-105840463D01*
X186304649Y-105840463D02*
X186304649Y-105983320D01*
X186304649Y-105983320D02*
X186352268Y-106078558D01*
X186352268Y-106078558D02*
X186399887Y-106126177D01*
X186399887Y-106126177D02*
X186495125Y-106173796D01*
X186495125Y-106173796D02*
X186876077Y-106173796D01*
X185876077Y-106649987D02*
X185876077Y-105649987D01*
X185066554Y-106126177D02*
X184923697Y-106173796D01*
X184923697Y-106173796D02*
X184876078Y-106221415D01*
X184876078Y-106221415D02*
X184828459Y-106316653D01*
X184828459Y-106316653D02*
X184828459Y-106459510D01*
X184828459Y-106459510D02*
X184876078Y-106554748D01*
X184876078Y-106554748D02*
X184923697Y-106602368D01*
X184923697Y-106602368D02*
X185018935Y-106649987D01*
X185018935Y-106649987D02*
X185399887Y-106649987D01*
X185399887Y-106649987D02*
X185399887Y-105649987D01*
X185399887Y-105649987D02*
X185066554Y-105649987D01*
X185066554Y-105649987D02*
X184971316Y-105697606D01*
X184971316Y-105697606D02*
X184923697Y-105745225D01*
X184923697Y-105745225D02*
X184876078Y-105840463D01*
X184876078Y-105840463D02*
X184876078Y-105935701D01*
X184876078Y-105935701D02*
X184923697Y-106030939D01*
X184923697Y-106030939D02*
X184971316Y-106078558D01*
X184971316Y-106078558D02*
X185066554Y-106126177D01*
X185066554Y-106126177D02*
X185399887Y-106126177D01*
X184399887Y-105649987D02*
X184399887Y-106459510D01*
X184399887Y-106459510D02*
X184352268Y-106554748D01*
X184352268Y-106554748D02*
X184304649Y-106602368D01*
X184304649Y-106602368D02*
X184209411Y-106649987D01*
X184209411Y-106649987D02*
X184018935Y-106649987D01*
X184018935Y-106649987D02*
X183923697Y-106602368D01*
X183923697Y-106602368D02*
X183876078Y-106554748D01*
X183876078Y-106554748D02*
X183828459Y-106459510D01*
X183828459Y-106459510D02*
X183828459Y-105649987D01*
X183495125Y-105649987D02*
X182923697Y-105649987D01*
X183209411Y-106649987D02*
X183209411Y-105649987D01*
X182399887Y-105649987D02*
X182209411Y-105649987D01*
X182209411Y-105649987D02*
X182114173Y-105697606D01*
X182114173Y-105697606D02*
X182018935Y-105792844D01*
X182018935Y-105792844D02*
X181971316Y-105983320D01*
X181971316Y-105983320D02*
X181971316Y-106316653D01*
X181971316Y-106316653D02*
X182018935Y-106507129D01*
X182018935Y-106507129D02*
X182114173Y-106602368D01*
X182114173Y-106602368D02*
X182209411Y-106649987D01*
X182209411Y-106649987D02*
X182399887Y-106649987D01*
X182399887Y-106649987D02*
X182495125Y-106602368D01*
X182495125Y-106602368D02*
X182590363Y-106507129D01*
X182590363Y-106507129D02*
X182637982Y-106316653D01*
X182637982Y-106316653D02*
X182637982Y-105983320D01*
X182637982Y-105983320D02*
X182590363Y-105792844D01*
X182590363Y-105792844D02*
X182495125Y-105697606D01*
X182495125Y-105697606D02*
X182399887Y-105649987D01*
X180971316Y-106649987D02*
X181304649Y-106173796D01*
X181542744Y-106649987D02*
X181542744Y-105649987D01*
X181542744Y-105649987D02*
X181161792Y-105649987D01*
X181161792Y-105649987D02*
X181066554Y-105697606D01*
X181066554Y-105697606D02*
X181018935Y-105745225D01*
X181018935Y-105745225D02*
X180971316Y-105840463D01*
X180971316Y-105840463D02*
X180971316Y-105983320D01*
X180971316Y-105983320D02*
X181018935Y-106078558D01*
X181018935Y-106078558D02*
X181066554Y-106126177D01*
X181066554Y-106126177D02*
X181161792Y-106173796D01*
X181161792Y-106173796D02*
X181542744Y-106173796D01*
X180590363Y-106602368D02*
X180447506Y-106649987D01*
X180447506Y-106649987D02*
X180209411Y-106649987D01*
X180209411Y-106649987D02*
X180114173Y-106602368D01*
X180114173Y-106602368D02*
X180066554Y-106554748D01*
X180066554Y-106554748D02*
X180018935Y-106459510D01*
X180018935Y-106459510D02*
X180018935Y-106364272D01*
X180018935Y-106364272D02*
X180066554Y-106269034D01*
X180066554Y-106269034D02*
X180114173Y-106221415D01*
X180114173Y-106221415D02*
X180209411Y-106173796D01*
X180209411Y-106173796D02*
X180399887Y-106126177D01*
X180399887Y-106126177D02*
X180495125Y-106078558D01*
X180495125Y-106078558D02*
X180542744Y-106030939D01*
X180542744Y-106030939D02*
X180590363Y-105935701D01*
X180590363Y-105935701D02*
X180590363Y-105840463D01*
X180590363Y-105840463D02*
X180542744Y-105745225D01*
X180542744Y-105745225D02*
X180495125Y-105697606D01*
X180495125Y-105697606D02*
X180399887Y-105649987D01*
X180399887Y-105649987D02*
X180161792Y-105649987D01*
X180161792Y-105649987D02*
X180018935Y-105697606D01*
X179590363Y-106554748D02*
X179542744Y-106602368D01*
X179542744Y-106602368D02*
X179590363Y-106649987D01*
X179590363Y-106649987D02*
X179637982Y-106602368D01*
X179637982Y-106602368D02*
X179590363Y-106554748D01*
X179590363Y-106554748D02*
X179590363Y-106649987D01*
X179590363Y-106030939D02*
X179542744Y-106078558D01*
X179542744Y-106078558D02*
X179590363Y-106126177D01*
X179590363Y-106126177D02*
X179637982Y-106078558D01*
X179637982Y-106078558D02*
X179590363Y-106030939D01*
X179590363Y-106030939D02*
X179590363Y-106126177D01*
X190733220Y-108259931D02*
X190733220Y-107259931D01*
X190733220Y-107259931D02*
X190495125Y-107259931D01*
X190495125Y-107259931D02*
X190352268Y-107307550D01*
X190352268Y-107307550D02*
X190257030Y-107402788D01*
X190257030Y-107402788D02*
X190209411Y-107498026D01*
X190209411Y-107498026D02*
X190161792Y-107688502D01*
X190161792Y-107688502D02*
X190161792Y-107831359D01*
X190161792Y-107831359D02*
X190209411Y-108021835D01*
X190209411Y-108021835D02*
X190257030Y-108117073D01*
X190257030Y-108117073D02*
X190352268Y-108212312D01*
X190352268Y-108212312D02*
X190495125Y-108259931D01*
X190495125Y-108259931D02*
X190733220Y-108259931D01*
X189780839Y-107974216D02*
X189304649Y-107974216D01*
X189876077Y-108259931D02*
X189542744Y-107259931D01*
X189542744Y-107259931D02*
X189209411Y-108259931D01*
X188876077Y-108259931D02*
X188876077Y-107259931D01*
X188542744Y-107259931D02*
X188209411Y-108259931D01*
X188209411Y-108259931D02*
X187876078Y-107259931D01*
X187542744Y-108259931D02*
X187542744Y-107259931D01*
X187066554Y-108259931D02*
X187066554Y-107259931D01*
X186495126Y-108259931D02*
X186923697Y-107688502D01*
X186495126Y-107259931D02*
X187066554Y-107831359D01*
X185304649Y-108259931D02*
X185304649Y-107259931D01*
X185304649Y-107259931D02*
X184733221Y-108259931D01*
X184733221Y-108259931D02*
X184733221Y-107259931D01*
X184257030Y-107736121D02*
X183923697Y-107736121D01*
X183780840Y-108259931D02*
X184257030Y-108259931D01*
X184257030Y-108259931D02*
X184257030Y-107259931D01*
X184257030Y-107259931D02*
X183780840Y-107259931D01*
X183161792Y-107259931D02*
X182971316Y-107259931D01*
X182971316Y-107259931D02*
X182876078Y-107307550D01*
X182876078Y-107307550D02*
X182780840Y-107402788D01*
X182780840Y-107402788D02*
X182733221Y-107593264D01*
X182733221Y-107593264D02*
X182733221Y-107926597D01*
X182733221Y-107926597D02*
X182780840Y-108117073D01*
X182780840Y-108117073D02*
X182876078Y-108212312D01*
X182876078Y-108212312D02*
X182971316Y-108259931D01*
X182971316Y-108259931D02*
X183161792Y-108259931D01*
X183161792Y-108259931D02*
X183257030Y-108212312D01*
X183257030Y-108212312D02*
X183352268Y-108117073D01*
X183352268Y-108117073D02*
X183399887Y-107926597D01*
X183399887Y-107926597D02*
X183399887Y-107593264D01*
X183399887Y-107593264D02*
X183352268Y-107402788D01*
X183352268Y-107402788D02*
X183257030Y-107307550D01*
X183257030Y-107307550D02*
X183161792Y-107259931D01*
X181780840Y-107307550D02*
X181876078Y-107259931D01*
X181876078Y-107259931D02*
X182018935Y-107259931D01*
X182018935Y-107259931D02*
X182161792Y-107307550D01*
X182161792Y-107307550D02*
X182257030Y-107402788D01*
X182257030Y-107402788D02*
X182304649Y-107498026D01*
X182304649Y-107498026D02*
X182352268Y-107688502D01*
X182352268Y-107688502D02*
X182352268Y-107831359D01*
X182352268Y-107831359D02*
X182304649Y-108021835D01*
X182304649Y-108021835D02*
X182257030Y-108117073D01*
X182257030Y-108117073D02*
X182161792Y-108212312D01*
X182161792Y-108212312D02*
X182018935Y-108259931D01*
X182018935Y-108259931D02*
X181923697Y-108259931D01*
X181923697Y-108259931D02*
X181780840Y-108212312D01*
X181780840Y-108212312D02*
X181733221Y-108164692D01*
X181733221Y-108164692D02*
X181733221Y-107831359D01*
X181733221Y-107831359D02*
X181923697Y-107831359D01*
X181304649Y-108259931D02*
X181304649Y-107259931D01*
X190780839Y-109822256D02*
X190637982Y-109869875D01*
X190637982Y-109869875D02*
X190399887Y-109869875D01*
X190399887Y-109869875D02*
X190304649Y-109822256D01*
X190304649Y-109822256D02*
X190257030Y-109774636D01*
X190257030Y-109774636D02*
X190209411Y-109679398D01*
X190209411Y-109679398D02*
X190209411Y-109584160D01*
X190209411Y-109584160D02*
X190257030Y-109488922D01*
X190257030Y-109488922D02*
X190304649Y-109441303D01*
X190304649Y-109441303D02*
X190399887Y-109393684D01*
X190399887Y-109393684D02*
X190590363Y-109346065D01*
X190590363Y-109346065D02*
X190685601Y-109298446D01*
X190685601Y-109298446D02*
X190733220Y-109250827D01*
X190733220Y-109250827D02*
X190780839Y-109155589D01*
X190780839Y-109155589D02*
X190780839Y-109060351D01*
X190780839Y-109060351D02*
X190733220Y-108965113D01*
X190733220Y-108965113D02*
X190685601Y-108917494D01*
X190685601Y-108917494D02*
X190590363Y-108869875D01*
X190590363Y-108869875D02*
X190352268Y-108869875D01*
X190352268Y-108869875D02*
X190209411Y-108917494D01*
X189780839Y-108869875D02*
X189780839Y-109679398D01*
X189780839Y-109679398D02*
X189733220Y-109774636D01*
X189733220Y-109774636D02*
X189685601Y-109822256D01*
X189685601Y-109822256D02*
X189590363Y-109869875D01*
X189590363Y-109869875D02*
X189399887Y-109869875D01*
X189399887Y-109869875D02*
X189304649Y-109822256D01*
X189304649Y-109822256D02*
X189257030Y-109774636D01*
X189257030Y-109774636D02*
X189209411Y-109679398D01*
X189209411Y-109679398D02*
X189209411Y-108869875D01*
X188876077Y-108869875D02*
X188304649Y-108869875D01*
X188590363Y-109869875D02*
X188590363Y-108869875D01*
X187971315Y-109346065D02*
X187637982Y-109346065D01*
X187495125Y-109869875D02*
X187971315Y-109869875D01*
X187971315Y-109869875D02*
X187971315Y-108869875D01*
X187971315Y-108869875D02*
X187495125Y-108869875D01*
X186780839Y-108869875D02*
X186780839Y-109584160D01*
X186780839Y-109584160D02*
X186828458Y-109727017D01*
X186828458Y-109727017D02*
X186923696Y-109822256D01*
X186923696Y-109822256D02*
X187066553Y-109869875D01*
X187066553Y-109869875D02*
X187161791Y-109869875D01*
X185590362Y-109822256D02*
X185447505Y-109869875D01*
X185447505Y-109869875D02*
X185209410Y-109869875D01*
X185209410Y-109869875D02*
X185114172Y-109822256D01*
X185114172Y-109822256D02*
X185066553Y-109774636D01*
X185066553Y-109774636D02*
X185018934Y-109679398D01*
X185018934Y-109679398D02*
X185018934Y-109584160D01*
X185018934Y-109584160D02*
X185066553Y-109488922D01*
X185066553Y-109488922D02*
X185114172Y-109441303D01*
X185114172Y-109441303D02*
X185209410Y-109393684D01*
X185209410Y-109393684D02*
X185399886Y-109346065D01*
X185399886Y-109346065D02*
X185495124Y-109298446D01*
X185495124Y-109298446D02*
X185542743Y-109250827D01*
X185542743Y-109250827D02*
X185590362Y-109155589D01*
X185590362Y-109155589D02*
X185590362Y-109060351D01*
X185590362Y-109060351D02*
X185542743Y-108965113D01*
X185542743Y-108965113D02*
X185495124Y-108917494D01*
X185495124Y-108917494D02*
X185399886Y-108869875D01*
X185399886Y-108869875D02*
X185161791Y-108869875D01*
X185161791Y-108869875D02*
X185018934Y-108917494D01*
X184590362Y-109869875D02*
X184590362Y-108869875D01*
X184590362Y-109346065D02*
X184018934Y-109346065D01*
X184018934Y-109869875D02*
X184018934Y-108869875D01*
X183542743Y-109346065D02*
X183209410Y-109346065D01*
X183066553Y-109869875D02*
X183542743Y-109869875D01*
X183542743Y-109869875D02*
X183542743Y-108869875D01*
X183542743Y-108869875D02*
X183066553Y-108869875D01*
X182780838Y-108869875D02*
X182209410Y-108869875D01*
X182495124Y-109869875D02*
X182495124Y-108869875D01*
X182018933Y-108869875D02*
X181447505Y-108869875D01*
X181733219Y-109869875D02*
X181733219Y-108869875D01*
X180923695Y-109393684D02*
X180923695Y-109869875D01*
X181257028Y-108869875D02*
X180923695Y-109393684D01*
X180923695Y-109393684D02*
X180590362Y-108869875D01*
X190733220Y-111479819D02*
X190733220Y-110479819D01*
X190161792Y-111479819D02*
X190590363Y-110908390D01*
X190161792Y-110479819D02*
X190733220Y-111051247D01*
X189780839Y-111194104D02*
X189304649Y-111194104D01*
X189876077Y-111479819D02*
X189542744Y-110479819D01*
X189542744Y-110479819D02*
X189209411Y-111479819D01*
X188876077Y-111479819D02*
X188876077Y-110479819D01*
X188876077Y-110479819D02*
X188495125Y-110479819D01*
X188495125Y-110479819D02*
X188399887Y-110527438D01*
X188399887Y-110527438D02*
X188352268Y-110575057D01*
X188352268Y-110575057D02*
X188304649Y-110670295D01*
X188304649Y-110670295D02*
X188304649Y-110813152D01*
X188304649Y-110813152D02*
X188352268Y-110908390D01*
X188352268Y-110908390D02*
X188399887Y-110956009D01*
X188399887Y-110956009D02*
X188495125Y-111003628D01*
X188495125Y-111003628D02*
X188876077Y-111003628D01*
X187876077Y-111479819D02*
X187876077Y-110479819D01*
X186923697Y-111479819D02*
X187399887Y-111479819D01*
X187399887Y-111479819D02*
X187399887Y-110479819D01*
X186590363Y-111479819D02*
X186590363Y-110479819D01*
X186590363Y-110479819D02*
X186257030Y-111194104D01*
X186257030Y-111194104D02*
X185923697Y-110479819D01*
X185923697Y-110479819D02*
X185923697Y-111479819D01*
X185447506Y-110956009D02*
X185114173Y-110956009D01*
X184971316Y-111479819D02*
X185447506Y-111479819D01*
X185447506Y-111479819D02*
X185447506Y-110479819D01*
X185447506Y-110479819D02*
X184971316Y-110479819D01*
X184542744Y-110956009D02*
X184209411Y-110956009D01*
X184066554Y-111479819D02*
X184542744Y-111479819D01*
X184542744Y-111479819D02*
X184542744Y-110479819D01*
X184542744Y-110479819D02*
X184066554Y-110479819D01*
X183780839Y-110479819D02*
X183209411Y-110479819D01*
X183495125Y-111479819D02*
X183495125Y-110479819D01*
X182161791Y-111432200D02*
X182018934Y-111479819D01*
X182018934Y-111479819D02*
X181780839Y-111479819D01*
X181780839Y-111479819D02*
X181685601Y-111432200D01*
X181685601Y-111432200D02*
X181637982Y-111384580D01*
X181637982Y-111384580D02*
X181590363Y-111289342D01*
X181590363Y-111289342D02*
X181590363Y-111194104D01*
X181590363Y-111194104D02*
X181637982Y-111098866D01*
X181637982Y-111098866D02*
X181685601Y-111051247D01*
X181685601Y-111051247D02*
X181780839Y-111003628D01*
X181780839Y-111003628D02*
X181971315Y-110956009D01*
X181971315Y-110956009D02*
X182066553Y-110908390D01*
X182066553Y-110908390D02*
X182114172Y-110860771D01*
X182114172Y-110860771D02*
X182161791Y-110765533D01*
X182161791Y-110765533D02*
X182161791Y-110670295D01*
X182161791Y-110670295D02*
X182114172Y-110575057D01*
X182114172Y-110575057D02*
X182066553Y-110527438D01*
X182066553Y-110527438D02*
X181971315Y-110479819D01*
X181971315Y-110479819D02*
X181733220Y-110479819D01*
X181733220Y-110479819D02*
X181590363Y-110527438D01*
X181161791Y-111479819D02*
X181161791Y-110479819D01*
X180685601Y-111479819D02*
X180685601Y-110479819D01*
X180685601Y-110479819D02*
X180114173Y-111479819D01*
X180114173Y-111479819D02*
X180114173Y-110479819D01*
X179114173Y-110527438D02*
X179209411Y-110479819D01*
X179209411Y-110479819D02*
X179352268Y-110479819D01*
X179352268Y-110479819D02*
X179495125Y-110527438D01*
X179495125Y-110527438D02*
X179590363Y-110622676D01*
X179590363Y-110622676D02*
X179637982Y-110717914D01*
X179637982Y-110717914D02*
X179685601Y-110908390D01*
X179685601Y-110908390D02*
X179685601Y-111051247D01*
X179685601Y-111051247D02*
X179637982Y-111241723D01*
X179637982Y-111241723D02*
X179590363Y-111336961D01*
X179590363Y-111336961D02*
X179495125Y-111432200D01*
X179495125Y-111432200D02*
X179352268Y-111479819D01*
X179352268Y-111479819D02*
X179257030Y-111479819D01*
X179257030Y-111479819D02*
X179114173Y-111432200D01*
X179114173Y-111432200D02*
X179066554Y-111384580D01*
X179066554Y-111384580D02*
X179066554Y-111051247D01*
X179066554Y-111051247D02*
X179257030Y-111051247D01*
X178637982Y-111479819D02*
X178637982Y-110479819D01*
X178637982Y-110956009D02*
X178066554Y-110956009D01*
X178066554Y-111479819D02*
X178066554Y-110479819D01*
X190833220Y-114439875D02*
X190833220Y-113439875D01*
X190833220Y-113439875D02*
X190595125Y-113439875D01*
X190595125Y-113439875D02*
X190452268Y-113487494D01*
X190452268Y-113487494D02*
X190357030Y-113582732D01*
X190357030Y-113582732D02*
X190309411Y-113677970D01*
X190309411Y-113677970D02*
X190261792Y-113868446D01*
X190261792Y-113868446D02*
X190261792Y-114011303D01*
X190261792Y-114011303D02*
X190309411Y-114201779D01*
X190309411Y-114201779D02*
X190357030Y-114297017D01*
X190357030Y-114297017D02*
X190452268Y-114392256D01*
X190452268Y-114392256D02*
X190595125Y-114439875D01*
X190595125Y-114439875D02*
X190833220Y-114439875D01*
X189833220Y-113916065D02*
X189499887Y-113916065D01*
X189357030Y-114439875D02*
X189833220Y-114439875D01*
X189833220Y-114439875D02*
X189833220Y-113439875D01*
X189833220Y-113439875D02*
X189357030Y-113439875D01*
X188976077Y-114392256D02*
X188833220Y-114439875D01*
X188833220Y-114439875D02*
X188595125Y-114439875D01*
X188595125Y-114439875D02*
X188499887Y-114392256D01*
X188499887Y-114392256D02*
X188452268Y-114344636D01*
X188452268Y-114344636D02*
X188404649Y-114249398D01*
X188404649Y-114249398D02*
X188404649Y-114154160D01*
X188404649Y-114154160D02*
X188452268Y-114058922D01*
X188452268Y-114058922D02*
X188499887Y-114011303D01*
X188499887Y-114011303D02*
X188595125Y-113963684D01*
X188595125Y-113963684D02*
X188785601Y-113916065D01*
X188785601Y-113916065D02*
X188880839Y-113868446D01*
X188880839Y-113868446D02*
X188928458Y-113820827D01*
X188928458Y-113820827D02*
X188976077Y-113725589D01*
X188976077Y-113725589D02*
X188976077Y-113630351D01*
X188976077Y-113630351D02*
X188928458Y-113535113D01*
X188928458Y-113535113D02*
X188880839Y-113487494D01*
X188880839Y-113487494D02*
X188785601Y-113439875D01*
X188785601Y-113439875D02*
X188547506Y-113439875D01*
X188547506Y-113439875D02*
X188404649Y-113487494D01*
X187976077Y-114439875D02*
X187976077Y-113439875D01*
X186976078Y-113487494D02*
X187071316Y-113439875D01*
X187071316Y-113439875D02*
X187214173Y-113439875D01*
X187214173Y-113439875D02*
X187357030Y-113487494D01*
X187357030Y-113487494D02*
X187452268Y-113582732D01*
X187452268Y-113582732D02*
X187499887Y-113677970D01*
X187499887Y-113677970D02*
X187547506Y-113868446D01*
X187547506Y-113868446D02*
X187547506Y-114011303D01*
X187547506Y-114011303D02*
X187499887Y-114201779D01*
X187499887Y-114201779D02*
X187452268Y-114297017D01*
X187452268Y-114297017D02*
X187357030Y-114392256D01*
X187357030Y-114392256D02*
X187214173Y-114439875D01*
X187214173Y-114439875D02*
X187118935Y-114439875D01*
X187118935Y-114439875D02*
X186976078Y-114392256D01*
X186976078Y-114392256D02*
X186928459Y-114344636D01*
X186928459Y-114344636D02*
X186928459Y-114011303D01*
X186928459Y-114011303D02*
X187118935Y-114011303D01*
X186499887Y-114439875D02*
X186499887Y-113439875D01*
X186499887Y-113439875D02*
X185928459Y-114439875D01*
X185928459Y-114439875D02*
X185928459Y-113439875D01*
X185452268Y-113916065D02*
X185118935Y-113916065D01*
X184976078Y-114439875D02*
X185452268Y-114439875D01*
X185452268Y-114439875D02*
X185452268Y-113439875D01*
X185452268Y-113439875D02*
X184976078Y-113439875D01*
X184547506Y-114439875D02*
X184547506Y-113439875D01*
X184547506Y-113439875D02*
X184309411Y-113439875D01*
X184309411Y-113439875D02*
X184166554Y-113487494D01*
X184166554Y-113487494D02*
X184071316Y-113582732D01*
X184071316Y-113582732D02*
X184023697Y-113677970D01*
X184023697Y-113677970D02*
X183976078Y-113868446D01*
X183976078Y-113868446D02*
X183976078Y-114011303D01*
X183976078Y-114011303D02*
X184023697Y-114201779D01*
X184023697Y-114201779D02*
X184071316Y-114297017D01*
X184071316Y-114297017D02*
X184166554Y-114392256D01*
X184166554Y-114392256D02*
X184309411Y-114439875D01*
X184309411Y-114439875D02*
X184547506Y-114439875D01*
X190976077Y-115049819D02*
X190404649Y-115049819D01*
X190690363Y-116049819D02*
X190690363Y-115049819D01*
X190071315Y-116049819D02*
X190071315Y-115049819D01*
X189595125Y-116049819D02*
X189595125Y-115049819D01*
X189595125Y-115049819D02*
X189261792Y-115764104D01*
X189261792Y-115764104D02*
X188928459Y-115049819D01*
X188928459Y-115049819D02*
X188928459Y-116049819D01*
X188452268Y-115526009D02*
X188118935Y-115526009D01*
X187976078Y-116049819D02*
X188452268Y-116049819D01*
X188452268Y-116049819D02*
X188452268Y-115049819D01*
X188452268Y-115049819D02*
X187976078Y-115049819D01*
X187071316Y-116049819D02*
X187547506Y-116049819D01*
X187547506Y-116049819D02*
X187547506Y-115049819D01*
X186737982Y-116049819D02*
X186737982Y-115049819D01*
X186261792Y-116049819D02*
X186261792Y-115049819D01*
X186261792Y-115049819D02*
X185690364Y-116049819D01*
X185690364Y-116049819D02*
X185690364Y-115049819D01*
X185214173Y-115526009D02*
X184880840Y-115526009D01*
X184737983Y-116049819D02*
X185214173Y-116049819D01*
X185214173Y-116049819D02*
X185214173Y-115049819D01*
X185214173Y-115049819D02*
X184737983Y-115049819D01*
X184309411Y-115954580D02*
X184261792Y-116002200D01*
X184261792Y-116002200D02*
X184309411Y-116049819D01*
X184309411Y-116049819D02*
X184357030Y-116002200D01*
X184357030Y-116002200D02*
X184309411Y-115954580D01*
X184309411Y-115954580D02*
X184309411Y-116049819D01*
X184309411Y-115430771D02*
X184261792Y-115478390D01*
X184261792Y-115478390D02*
X184309411Y-115526009D01*
X184309411Y-115526009D02*
X184357030Y-115478390D01*
X184357030Y-115478390D02*
X184309411Y-115430771D01*
X184309411Y-115430771D02*
X184309411Y-115526009D01*
X183833221Y-116049819D02*
X183833221Y-115049819D01*
X183833221Y-115049819D02*
X183499888Y-115764104D01*
X183499888Y-115764104D02*
X183166555Y-115049819D01*
X183166555Y-115049819D02*
X183166555Y-116049819D01*
X182737983Y-115764104D02*
X182261793Y-115764104D01*
X182833221Y-116049819D02*
X182499888Y-115049819D01*
X182499888Y-115049819D02*
X182166555Y-116049819D01*
X181642745Y-115573628D02*
X181642745Y-116049819D01*
X181976078Y-115049819D02*
X181642745Y-115573628D01*
X181642745Y-115573628D02*
X181309412Y-115049819D01*
X180261792Y-115145057D02*
X180214173Y-115097438D01*
X180214173Y-115097438D02*
X180118935Y-115049819D01*
X180118935Y-115049819D02*
X179880840Y-115049819D01*
X179880840Y-115049819D02*
X179785602Y-115097438D01*
X179785602Y-115097438D02*
X179737983Y-115145057D01*
X179737983Y-115145057D02*
X179690364Y-115240295D01*
X179690364Y-115240295D02*
X179690364Y-115335533D01*
X179690364Y-115335533D02*
X179737983Y-115478390D01*
X179737983Y-115478390D02*
X180309411Y-116049819D01*
X180309411Y-116049819D02*
X179690364Y-116049819D01*
X179071316Y-115049819D02*
X178976078Y-115049819D01*
X178976078Y-115049819D02*
X178880840Y-115097438D01*
X178880840Y-115097438D02*
X178833221Y-115145057D01*
X178833221Y-115145057D02*
X178785602Y-115240295D01*
X178785602Y-115240295D02*
X178737983Y-115430771D01*
X178737983Y-115430771D02*
X178737983Y-115668866D01*
X178737983Y-115668866D02*
X178785602Y-115859342D01*
X178785602Y-115859342D02*
X178833221Y-115954580D01*
X178833221Y-115954580D02*
X178880840Y-116002200D01*
X178880840Y-116002200D02*
X178976078Y-116049819D01*
X178976078Y-116049819D02*
X179071316Y-116049819D01*
X179071316Y-116049819D02*
X179166554Y-116002200D01*
X179166554Y-116002200D02*
X179214173Y-115954580D01*
X179214173Y-115954580D02*
X179261792Y-115859342D01*
X179261792Y-115859342D02*
X179309411Y-115668866D01*
X179309411Y-115668866D02*
X179309411Y-115430771D01*
X179309411Y-115430771D02*
X179261792Y-115240295D01*
X179261792Y-115240295D02*
X179214173Y-115145057D01*
X179214173Y-115145057D02*
X179166554Y-115097438D01*
X179166554Y-115097438D02*
X179071316Y-115049819D01*
X178357030Y-115145057D02*
X178309411Y-115097438D01*
X178309411Y-115097438D02*
X178214173Y-115049819D01*
X178214173Y-115049819D02*
X177976078Y-115049819D01*
X177976078Y-115049819D02*
X177880840Y-115097438D01*
X177880840Y-115097438D02*
X177833221Y-115145057D01*
X177833221Y-115145057D02*
X177785602Y-115240295D01*
X177785602Y-115240295D02*
X177785602Y-115335533D01*
X177785602Y-115335533D02*
X177833221Y-115478390D01*
X177833221Y-115478390D02*
X178404649Y-116049819D01*
X178404649Y-116049819D02*
X177785602Y-116049819D01*
X176928459Y-115049819D02*
X177118935Y-115049819D01*
X177118935Y-115049819D02*
X177214173Y-115097438D01*
X177214173Y-115097438D02*
X177261792Y-115145057D01*
X177261792Y-115145057D02*
X177357030Y-115287914D01*
X177357030Y-115287914D02*
X177404649Y-115478390D01*
X177404649Y-115478390D02*
X177404649Y-115859342D01*
X177404649Y-115859342D02*
X177357030Y-115954580D01*
X177357030Y-115954580D02*
X177309411Y-116002200D01*
X177309411Y-116002200D02*
X177214173Y-116049819D01*
X177214173Y-116049819D02*
X177023697Y-116049819D01*
X177023697Y-116049819D02*
X176928459Y-116002200D01*
X176928459Y-116002200D02*
X176880840Y-115954580D01*
X176880840Y-115954580D02*
X176833221Y-115859342D01*
X176833221Y-115859342D02*
X176833221Y-115621247D01*
X176833221Y-115621247D02*
X176880840Y-115526009D01*
X176880840Y-115526009D02*
X176928459Y-115478390D01*
X176928459Y-115478390D02*
X177023697Y-115430771D01*
X177023697Y-115430771D02*
X177214173Y-115430771D01*
X177214173Y-115430771D02*
X177309411Y-115478390D01*
X177309411Y-115478390D02*
X177357030Y-115526009D01*
X177357030Y-115526009D02*
X177404649Y-115621247D01*
X185046666Y-51504819D02*
X185618094Y-51504819D01*
X185332380Y-51504819D02*
X185332380Y-50504819D01*
X185332380Y-50504819D02*
X185427618Y-50647676D01*
X185427618Y-50647676D02*
X185522856Y-50742914D01*
X185522856Y-50742914D02*
X185618094Y-50790533D01*
X184189523Y-50838152D02*
X184189523Y-51504819D01*
X184618094Y-50838152D02*
X184618094Y-51361961D01*
X184618094Y-51361961D02*
X184570475Y-51457200D01*
X184570475Y-51457200D02*
X184475237Y-51504819D01*
X184475237Y-51504819D02*
X184332380Y-51504819D01*
X184332380Y-51504819D02*
X184237142Y-51457200D01*
X184237142Y-51457200D02*
X184189523Y-51409580D01*
X167579047Y-101854819D02*
X168150475Y-101854819D01*
X167864761Y-101854819D02*
X167864761Y-100854819D01*
X167864761Y-100854819D02*
X167959999Y-100997676D01*
X167959999Y-100997676D02*
X168055237Y-101092914D01*
X168055237Y-101092914D02*
X168150475Y-101140533D01*
X166959999Y-100854819D02*
X166864761Y-100854819D01*
X166864761Y-100854819D02*
X166769523Y-100902438D01*
X166769523Y-100902438D02*
X166721904Y-100950057D01*
X166721904Y-100950057D02*
X166674285Y-101045295D01*
X166674285Y-101045295D02*
X166626666Y-101235771D01*
X166626666Y-101235771D02*
X166626666Y-101473866D01*
X166626666Y-101473866D02*
X166674285Y-101664342D01*
X166674285Y-101664342D02*
X166721904Y-101759580D01*
X166721904Y-101759580D02*
X166769523Y-101807200D01*
X166769523Y-101807200D02*
X166864761Y-101854819D01*
X166864761Y-101854819D02*
X166959999Y-101854819D01*
X166959999Y-101854819D02*
X167055237Y-101807200D01*
X167055237Y-101807200D02*
X167102856Y-101759580D01*
X167102856Y-101759580D02*
X167150475Y-101664342D01*
X167150475Y-101664342D02*
X167198094Y-101473866D01*
X167198094Y-101473866D02*
X167198094Y-101235771D01*
X167198094Y-101235771D02*
X167150475Y-101045295D01*
X167150475Y-101045295D02*
X167102856Y-100950057D01*
X167102856Y-100950057D02*
X167055237Y-100902438D01*
X167055237Y-100902438D02*
X166959999Y-100854819D01*
X166007618Y-100854819D02*
X165912380Y-100854819D01*
X165912380Y-100854819D02*
X165817142Y-100902438D01*
X165817142Y-100902438D02*
X165769523Y-100950057D01*
X165769523Y-100950057D02*
X165721904Y-101045295D01*
X165721904Y-101045295D02*
X165674285Y-101235771D01*
X165674285Y-101235771D02*
X165674285Y-101473866D01*
X165674285Y-101473866D02*
X165721904Y-101664342D01*
X165721904Y-101664342D02*
X165769523Y-101759580D01*
X165769523Y-101759580D02*
X165817142Y-101807200D01*
X165817142Y-101807200D02*
X165912380Y-101854819D01*
X165912380Y-101854819D02*
X166007618Y-101854819D01*
X166007618Y-101854819D02*
X166102856Y-101807200D01*
X166102856Y-101807200D02*
X166150475Y-101759580D01*
X166150475Y-101759580D02*
X166198094Y-101664342D01*
X166198094Y-101664342D02*
X166245713Y-101473866D01*
X166245713Y-101473866D02*
X166245713Y-101235771D01*
X166245713Y-101235771D02*
X166198094Y-101045295D01*
X166198094Y-101045295D02*
X166150475Y-100950057D01*
X166150475Y-100950057D02*
X166102856Y-100902438D01*
X166102856Y-100902438D02*
X166007618Y-100854819D01*
X165245713Y-101188152D02*
X165245713Y-101854819D01*
X165245713Y-101283390D02*
X165198094Y-101235771D01*
X165198094Y-101235771D02*
X165102856Y-101188152D01*
X165102856Y-101188152D02*
X164959999Y-101188152D01*
X164959999Y-101188152D02*
X164864761Y-101235771D01*
X164864761Y-101235771D02*
X164817142Y-101331009D01*
X164817142Y-101331009D02*
X164817142Y-101854819D01*
X190354819Y-122850952D02*
X190354819Y-122279524D01*
X190354819Y-122565238D02*
X189354819Y-122565238D01*
X189354819Y-122565238D02*
X189497676Y-122470000D01*
X189497676Y-122470000D02*
X189592914Y-122374762D01*
X189592914Y-122374762D02*
X189640533Y-122279524D01*
X189354819Y-123470000D02*
X189354819Y-123565238D01*
X189354819Y-123565238D02*
X189402438Y-123660476D01*
X189402438Y-123660476D02*
X189450057Y-123708095D01*
X189450057Y-123708095D02*
X189545295Y-123755714D01*
X189545295Y-123755714D02*
X189735771Y-123803333D01*
X189735771Y-123803333D02*
X189973866Y-123803333D01*
X189973866Y-123803333D02*
X190164342Y-123755714D01*
X190164342Y-123755714D02*
X190259580Y-123708095D01*
X190259580Y-123708095D02*
X190307200Y-123660476D01*
X190307200Y-123660476D02*
X190354819Y-123565238D01*
X190354819Y-123565238D02*
X190354819Y-123470000D01*
X190354819Y-123470000D02*
X190307200Y-123374762D01*
X190307200Y-123374762D02*
X190259580Y-123327143D01*
X190259580Y-123327143D02*
X190164342Y-123279524D01*
X190164342Y-123279524D02*
X189973866Y-123231905D01*
X189973866Y-123231905D02*
X189735771Y-123231905D01*
X189735771Y-123231905D02*
X189545295Y-123279524D01*
X189545295Y-123279524D02*
X189450057Y-123327143D01*
X189450057Y-123327143D02*
X189402438Y-123374762D01*
X189402438Y-123374762D02*
X189354819Y-123470000D01*
X189354819Y-124422381D02*
X189354819Y-124517619D01*
X189354819Y-124517619D02*
X189402438Y-124612857D01*
X189402438Y-124612857D02*
X189450057Y-124660476D01*
X189450057Y-124660476D02*
X189545295Y-124708095D01*
X189545295Y-124708095D02*
X189735771Y-124755714D01*
X189735771Y-124755714D02*
X189973866Y-124755714D01*
X189973866Y-124755714D02*
X190164342Y-124708095D01*
X190164342Y-124708095D02*
X190259580Y-124660476D01*
X190259580Y-124660476D02*
X190307200Y-124612857D01*
X190307200Y-124612857D02*
X190354819Y-124517619D01*
X190354819Y-124517619D02*
X190354819Y-124422381D01*
X190354819Y-124422381D02*
X190307200Y-124327143D01*
X190307200Y-124327143D02*
X190259580Y-124279524D01*
X190259580Y-124279524D02*
X190164342Y-124231905D01*
X190164342Y-124231905D02*
X189973866Y-124184286D01*
X189973866Y-124184286D02*
X189735771Y-124184286D01*
X189735771Y-124184286D02*
X189545295Y-124231905D01*
X189545295Y-124231905D02*
X189450057Y-124279524D01*
X189450057Y-124279524D02*
X189402438Y-124327143D01*
X189402438Y-124327143D02*
X189354819Y-124422381D01*
X189688152Y-125184286D02*
X190354819Y-125184286D01*
X189783390Y-125184286D02*
X189735771Y-125231905D01*
X189735771Y-125231905D02*
X189688152Y-125327143D01*
X189688152Y-125327143D02*
X189688152Y-125470000D01*
X189688152Y-125470000D02*
X189735771Y-125565238D01*
X189735771Y-125565238D02*
X189831009Y-125612857D01*
X189831009Y-125612857D02*
X190354819Y-125612857D01*
X185196666Y-53754819D02*
X185768094Y-53754819D01*
X185482380Y-53754819D02*
X185482380Y-52754819D01*
X185482380Y-52754819D02*
X185577618Y-52897676D01*
X185577618Y-52897676D02*
X185672856Y-52992914D01*
X185672856Y-52992914D02*
X185768094Y-53040533D01*
X184339523Y-53088152D02*
X184339523Y-53754819D01*
X184768094Y-53088152D02*
X184768094Y-53611961D01*
X184768094Y-53611961D02*
X184720475Y-53707200D01*
X184720475Y-53707200D02*
X184625237Y-53754819D01*
X184625237Y-53754819D02*
X184482380Y-53754819D01*
X184482380Y-53754819D02*
X184387142Y-53707200D01*
X184387142Y-53707200D02*
X184339523Y-53659580D01*
X188365238Y-76314819D02*
X188936666Y-76314819D01*
X188650952Y-76314819D02*
X188650952Y-75314819D01*
X188650952Y-75314819D02*
X188746190Y-75457676D01*
X188746190Y-75457676D02*
X188841428Y-75552914D01*
X188841428Y-75552914D02*
X188936666Y-75600533D01*
X187746190Y-75314819D02*
X187650952Y-75314819D01*
X187650952Y-75314819D02*
X187555714Y-75362438D01*
X187555714Y-75362438D02*
X187508095Y-75410057D01*
X187508095Y-75410057D02*
X187460476Y-75505295D01*
X187460476Y-75505295D02*
X187412857Y-75695771D01*
X187412857Y-75695771D02*
X187412857Y-75933866D01*
X187412857Y-75933866D02*
X187460476Y-76124342D01*
X187460476Y-76124342D02*
X187508095Y-76219580D01*
X187508095Y-76219580D02*
X187555714Y-76267200D01*
X187555714Y-76267200D02*
X187650952Y-76314819D01*
X187650952Y-76314819D02*
X187746190Y-76314819D01*
X187746190Y-76314819D02*
X187841428Y-76267200D01*
X187841428Y-76267200D02*
X187889047Y-76219580D01*
X187889047Y-76219580D02*
X187936666Y-76124342D01*
X187936666Y-76124342D02*
X187984285Y-75933866D01*
X187984285Y-75933866D02*
X187984285Y-75695771D01*
X187984285Y-75695771D02*
X187936666Y-75505295D01*
X187936666Y-75505295D02*
X187889047Y-75410057D01*
X187889047Y-75410057D02*
X187841428Y-75362438D01*
X187841428Y-75362438D02*
X187746190Y-75314819D01*
X186984285Y-76314819D02*
X186984285Y-75314819D01*
X186889047Y-75933866D02*
X186603333Y-76314819D01*
X186603333Y-75648152D02*
X186984285Y-76029104D01*
X116171428Y-69780057D02*
X116266666Y-69732438D01*
X116266666Y-69732438D02*
X116361904Y-69637200D01*
X116361904Y-69637200D02*
X116504761Y-69494342D01*
X116504761Y-69494342D02*
X116599999Y-69446723D01*
X116599999Y-69446723D02*
X116695237Y-69446723D01*
X116647618Y-69684819D02*
X116742856Y-69637200D01*
X116742856Y-69637200D02*
X116838094Y-69541961D01*
X116838094Y-69541961D02*
X116885713Y-69351485D01*
X116885713Y-69351485D02*
X116885713Y-69018152D01*
X116885713Y-69018152D02*
X116838094Y-68827676D01*
X116838094Y-68827676D02*
X116742856Y-68732438D01*
X116742856Y-68732438D02*
X116647618Y-68684819D01*
X116647618Y-68684819D02*
X116457142Y-68684819D01*
X116457142Y-68684819D02*
X116361904Y-68732438D01*
X116361904Y-68732438D02*
X116266666Y-68827676D01*
X116266666Y-68827676D02*
X116219047Y-69018152D01*
X116219047Y-69018152D02*
X116219047Y-69351485D01*
X116219047Y-69351485D02*
X116266666Y-69541961D01*
X116266666Y-69541961D02*
X116361904Y-69637200D01*
X116361904Y-69637200D02*
X116457142Y-69684819D01*
X116457142Y-69684819D02*
X116647618Y-69684819D01*
X115266666Y-69684819D02*
X115838094Y-69684819D01*
X115552380Y-69684819D02*
X115552380Y-68684819D01*
X115552380Y-68684819D02*
X115647618Y-68827676D01*
X115647618Y-68827676D02*
X115742856Y-68922914D01*
X115742856Y-68922914D02*
X115838094Y-68970533D01*
X114885713Y-68780057D02*
X114838094Y-68732438D01*
X114838094Y-68732438D02*
X114742856Y-68684819D01*
X114742856Y-68684819D02*
X114504761Y-68684819D01*
X114504761Y-68684819D02*
X114409523Y-68732438D01*
X114409523Y-68732438D02*
X114361904Y-68780057D01*
X114361904Y-68780057D02*
X114314285Y-68875295D01*
X114314285Y-68875295D02*
X114314285Y-68970533D01*
X114314285Y-68970533D02*
X114361904Y-69113390D01*
X114361904Y-69113390D02*
X114933332Y-69684819D01*
X114933332Y-69684819D02*
X114314285Y-69684819D01*
X150899291Y-30372502D02*
X151303352Y-30776563D01*
X151101321Y-30574533D02*
X151808428Y-29867426D01*
X151808428Y-29867426D02*
X151774756Y-30035785D01*
X151774756Y-30035785D02*
X151774756Y-30170472D01*
X151774756Y-30170472D02*
X151808428Y-30271487D01*
X151168665Y-29227663D02*
X151101321Y-29160319D01*
X151101321Y-29160319D02*
X151000306Y-29126647D01*
X151000306Y-29126647D02*
X150932963Y-29126647D01*
X150932963Y-29126647D02*
X150831947Y-29160319D01*
X150831947Y-29160319D02*
X150663589Y-29261334D01*
X150663589Y-29261334D02*
X150495230Y-29429693D01*
X150495230Y-29429693D02*
X150394215Y-29598052D01*
X150394215Y-29598052D02*
X150360543Y-29699067D01*
X150360543Y-29699067D02*
X150360543Y-29766411D01*
X150360543Y-29766411D02*
X150394215Y-29867426D01*
X150394215Y-29867426D02*
X150461558Y-29934769D01*
X150461558Y-29934769D02*
X150562573Y-29968441D01*
X150562573Y-29968441D02*
X150629917Y-29968441D01*
X150629917Y-29968441D02*
X150730932Y-29934769D01*
X150730932Y-29934769D02*
X150899291Y-29833754D01*
X150899291Y-29833754D02*
X151067650Y-29665395D01*
X151067650Y-29665395D02*
X151168665Y-29497037D01*
X151168665Y-29497037D02*
X151202337Y-29396021D01*
X151202337Y-29396021D02*
X151202337Y-29328678D01*
X151202337Y-29328678D02*
X151168665Y-29227663D01*
X149922810Y-29396021D02*
X150629917Y-28688914D01*
X150124841Y-29059304D02*
X149653436Y-29126647D01*
X150124841Y-28655243D02*
X150124841Y-29193991D01*
X151024819Y-128080952D02*
X151024819Y-127509524D01*
X151024819Y-127795238D02*
X150024819Y-127795238D01*
X150024819Y-127795238D02*
X150167676Y-127700000D01*
X150167676Y-127700000D02*
X150262914Y-127604762D01*
X150262914Y-127604762D02*
X150310533Y-127509524D01*
X150024819Y-128700000D02*
X150024819Y-128795238D01*
X150024819Y-128795238D02*
X150072438Y-128890476D01*
X150072438Y-128890476D02*
X150120057Y-128938095D01*
X150120057Y-128938095D02*
X150215295Y-128985714D01*
X150215295Y-128985714D02*
X150405771Y-129033333D01*
X150405771Y-129033333D02*
X150643866Y-129033333D01*
X150643866Y-129033333D02*
X150834342Y-128985714D01*
X150834342Y-128985714D02*
X150929580Y-128938095D01*
X150929580Y-128938095D02*
X150977200Y-128890476D01*
X150977200Y-128890476D02*
X151024819Y-128795238D01*
X151024819Y-128795238D02*
X151024819Y-128700000D01*
X151024819Y-128700000D02*
X150977200Y-128604762D01*
X150977200Y-128604762D02*
X150929580Y-128557143D01*
X150929580Y-128557143D02*
X150834342Y-128509524D01*
X150834342Y-128509524D02*
X150643866Y-128461905D01*
X150643866Y-128461905D02*
X150405771Y-128461905D01*
X150405771Y-128461905D02*
X150215295Y-128509524D01*
X150215295Y-128509524D02*
X150120057Y-128557143D01*
X150120057Y-128557143D02*
X150072438Y-128604762D01*
X150072438Y-128604762D02*
X150024819Y-128700000D01*
X150024819Y-129652381D02*
X150024819Y-129747619D01*
X150024819Y-129747619D02*
X150072438Y-129842857D01*
X150072438Y-129842857D02*
X150120057Y-129890476D01*
X150120057Y-129890476D02*
X150215295Y-129938095D01*
X150215295Y-129938095D02*
X150405771Y-129985714D01*
X150405771Y-129985714D02*
X150643866Y-129985714D01*
X150643866Y-129985714D02*
X150834342Y-129938095D01*
X150834342Y-129938095D02*
X150929580Y-129890476D01*
X150929580Y-129890476D02*
X150977200Y-129842857D01*
X150977200Y-129842857D02*
X151024819Y-129747619D01*
X151024819Y-129747619D02*
X151024819Y-129652381D01*
X151024819Y-129652381D02*
X150977200Y-129557143D01*
X150977200Y-129557143D02*
X150929580Y-129509524D01*
X150929580Y-129509524D02*
X150834342Y-129461905D01*
X150834342Y-129461905D02*
X150643866Y-129414286D01*
X150643866Y-129414286D02*
X150405771Y-129414286D01*
X150405771Y-129414286D02*
X150215295Y-129461905D01*
X150215295Y-129461905D02*
X150120057Y-129509524D01*
X150120057Y-129509524D02*
X150072438Y-129557143D01*
X150072438Y-129557143D02*
X150024819Y-129652381D01*
X150358152Y-130414286D02*
X151024819Y-130414286D01*
X150453390Y-130414286D02*
X150405771Y-130461905D01*
X150405771Y-130461905D02*
X150358152Y-130557143D01*
X150358152Y-130557143D02*
X150358152Y-130700000D01*
X150358152Y-130700000D02*
X150405771Y-130795238D01*
X150405771Y-130795238D02*
X150501009Y-130842857D01*
X150501009Y-130842857D02*
X151024819Y-130842857D01*
X119405238Y-68524819D02*
X119976666Y-68524819D01*
X119690952Y-68524819D02*
X119690952Y-67524819D01*
X119690952Y-67524819D02*
X119786190Y-67667676D01*
X119786190Y-67667676D02*
X119881428Y-67762914D01*
X119881428Y-67762914D02*
X119976666Y-67810533D01*
X118786190Y-67524819D02*
X118690952Y-67524819D01*
X118690952Y-67524819D02*
X118595714Y-67572438D01*
X118595714Y-67572438D02*
X118548095Y-67620057D01*
X118548095Y-67620057D02*
X118500476Y-67715295D01*
X118500476Y-67715295D02*
X118452857Y-67905771D01*
X118452857Y-67905771D02*
X118452857Y-68143866D01*
X118452857Y-68143866D02*
X118500476Y-68334342D01*
X118500476Y-68334342D02*
X118548095Y-68429580D01*
X118548095Y-68429580D02*
X118595714Y-68477200D01*
X118595714Y-68477200D02*
X118690952Y-68524819D01*
X118690952Y-68524819D02*
X118786190Y-68524819D01*
X118786190Y-68524819D02*
X118881428Y-68477200D01*
X118881428Y-68477200D02*
X118929047Y-68429580D01*
X118929047Y-68429580D02*
X118976666Y-68334342D01*
X118976666Y-68334342D02*
X119024285Y-68143866D01*
X119024285Y-68143866D02*
X119024285Y-67905771D01*
X119024285Y-67905771D02*
X118976666Y-67715295D01*
X118976666Y-67715295D02*
X118929047Y-67620057D01*
X118929047Y-67620057D02*
X118881428Y-67572438D01*
X118881428Y-67572438D02*
X118786190Y-67524819D01*
X118024285Y-68524819D02*
X118024285Y-67524819D01*
X117929047Y-68143866D02*
X117643333Y-68524819D01*
X117643333Y-67858152D02*
X118024285Y-68239104D01*
X172689047Y-122544819D02*
X173260475Y-122544819D01*
X172974761Y-122544819D02*
X172974761Y-121544819D01*
X172974761Y-121544819D02*
X173069999Y-121687676D01*
X173069999Y-121687676D02*
X173165237Y-121782914D01*
X173165237Y-121782914D02*
X173260475Y-121830533D01*
X172260475Y-122544819D02*
X172260475Y-121544819D01*
X172165237Y-122163866D02*
X171879523Y-122544819D01*
X171879523Y-121878152D02*
X172260475Y-122259104D01*
X175775238Y-41890057D02*
X175870476Y-41842438D01*
X175870476Y-41842438D02*
X175965714Y-41747200D01*
X175965714Y-41747200D02*
X176108571Y-41604342D01*
X176108571Y-41604342D02*
X176203809Y-41556723D01*
X176203809Y-41556723D02*
X176299047Y-41556723D01*
X176251428Y-41794819D02*
X176346666Y-41747200D01*
X176346666Y-41747200D02*
X176441904Y-41651961D01*
X176441904Y-41651961D02*
X176489523Y-41461485D01*
X176489523Y-41461485D02*
X176489523Y-41128152D01*
X176489523Y-41128152D02*
X176441904Y-40937676D01*
X176441904Y-40937676D02*
X176346666Y-40842438D01*
X176346666Y-40842438D02*
X176251428Y-40794819D01*
X176251428Y-40794819D02*
X176060952Y-40794819D01*
X176060952Y-40794819D02*
X175965714Y-40842438D01*
X175965714Y-40842438D02*
X175870476Y-40937676D01*
X175870476Y-40937676D02*
X175822857Y-41128152D01*
X175822857Y-41128152D02*
X175822857Y-41461485D01*
X175822857Y-41461485D02*
X175870476Y-41651961D01*
X175870476Y-41651961D02*
X175965714Y-41747200D01*
X175965714Y-41747200D02*
X176060952Y-41794819D01*
X176060952Y-41794819D02*
X176251428Y-41794819D01*
X175346666Y-41794819D02*
X175156190Y-41794819D01*
X175156190Y-41794819D02*
X175060952Y-41747200D01*
X175060952Y-41747200D02*
X175013333Y-41699580D01*
X175013333Y-41699580D02*
X174918095Y-41556723D01*
X174918095Y-41556723D02*
X174870476Y-41366247D01*
X174870476Y-41366247D02*
X174870476Y-40985295D01*
X174870476Y-40985295D02*
X174918095Y-40890057D01*
X174918095Y-40890057D02*
X174965714Y-40842438D01*
X174965714Y-40842438D02*
X175060952Y-40794819D01*
X175060952Y-40794819D02*
X175251428Y-40794819D01*
X175251428Y-40794819D02*
X175346666Y-40842438D01*
X175346666Y-40842438D02*
X175394285Y-40890057D01*
X175394285Y-40890057D02*
X175441904Y-40985295D01*
X175441904Y-40985295D02*
X175441904Y-41223390D01*
X175441904Y-41223390D02*
X175394285Y-41318628D01*
X175394285Y-41318628D02*
X175346666Y-41366247D01*
X175346666Y-41366247D02*
X175251428Y-41413866D01*
X175251428Y-41413866D02*
X175060952Y-41413866D01*
X175060952Y-41413866D02*
X174965714Y-41366247D01*
X174965714Y-41366247D02*
X174918095Y-41318628D01*
X174918095Y-41318628D02*
X174870476Y-41223390D01*
X134545238Y-47304819D02*
X135116666Y-47304819D01*
X134830952Y-47304819D02*
X134830952Y-46304819D01*
X134830952Y-46304819D02*
X134926190Y-46447676D01*
X134926190Y-46447676D02*
X135021428Y-46542914D01*
X135021428Y-46542914D02*
X135116666Y-46590533D01*
X133926190Y-46304819D02*
X133830952Y-46304819D01*
X133830952Y-46304819D02*
X133735714Y-46352438D01*
X133735714Y-46352438D02*
X133688095Y-46400057D01*
X133688095Y-46400057D02*
X133640476Y-46495295D01*
X133640476Y-46495295D02*
X133592857Y-46685771D01*
X133592857Y-46685771D02*
X133592857Y-46923866D01*
X133592857Y-46923866D02*
X133640476Y-47114342D01*
X133640476Y-47114342D02*
X133688095Y-47209580D01*
X133688095Y-47209580D02*
X133735714Y-47257200D01*
X133735714Y-47257200D02*
X133830952Y-47304819D01*
X133830952Y-47304819D02*
X133926190Y-47304819D01*
X133926190Y-47304819D02*
X134021428Y-47257200D01*
X134021428Y-47257200D02*
X134069047Y-47209580D01*
X134069047Y-47209580D02*
X134116666Y-47114342D01*
X134116666Y-47114342D02*
X134164285Y-46923866D01*
X134164285Y-46923866D02*
X134164285Y-46685771D01*
X134164285Y-46685771D02*
X134116666Y-46495295D01*
X134116666Y-46495295D02*
X134069047Y-46400057D01*
X134069047Y-46400057D02*
X134021428Y-46352438D01*
X134021428Y-46352438D02*
X133926190Y-46304819D01*
X133164285Y-47304819D02*
X133164285Y-46304819D01*
X133069047Y-46923866D02*
X132783333Y-47304819D01*
X132783333Y-46638152D02*
X133164285Y-47019104D01*
X195195238Y-69480057D02*
X195290476Y-69432438D01*
X195290476Y-69432438D02*
X195385714Y-69337200D01*
X195385714Y-69337200D02*
X195528571Y-69194342D01*
X195528571Y-69194342D02*
X195623809Y-69146723D01*
X195623809Y-69146723D02*
X195719047Y-69146723D01*
X195671428Y-69384819D02*
X195766666Y-69337200D01*
X195766666Y-69337200D02*
X195861904Y-69241961D01*
X195861904Y-69241961D02*
X195909523Y-69051485D01*
X195909523Y-69051485D02*
X195909523Y-68718152D01*
X195909523Y-68718152D02*
X195861904Y-68527676D01*
X195861904Y-68527676D02*
X195766666Y-68432438D01*
X195766666Y-68432438D02*
X195671428Y-68384819D01*
X195671428Y-68384819D02*
X195480952Y-68384819D01*
X195480952Y-68384819D02*
X195385714Y-68432438D01*
X195385714Y-68432438D02*
X195290476Y-68527676D01*
X195290476Y-68527676D02*
X195242857Y-68718152D01*
X195242857Y-68718152D02*
X195242857Y-69051485D01*
X195242857Y-69051485D02*
X195290476Y-69241961D01*
X195290476Y-69241961D02*
X195385714Y-69337200D01*
X195385714Y-69337200D02*
X195480952Y-69384819D01*
X195480952Y-69384819D02*
X195671428Y-69384819D01*
X194861904Y-68480057D02*
X194814285Y-68432438D01*
X194814285Y-68432438D02*
X194719047Y-68384819D01*
X194719047Y-68384819D02*
X194480952Y-68384819D01*
X194480952Y-68384819D02*
X194385714Y-68432438D01*
X194385714Y-68432438D02*
X194338095Y-68480057D01*
X194338095Y-68480057D02*
X194290476Y-68575295D01*
X194290476Y-68575295D02*
X194290476Y-68670533D01*
X194290476Y-68670533D02*
X194338095Y-68813390D01*
X194338095Y-68813390D02*
X194909523Y-69384819D01*
X194909523Y-69384819D02*
X194290476Y-69384819D01*
X186549047Y-69764819D02*
X187120475Y-69764819D01*
X186834761Y-69764819D02*
X186834761Y-68764819D01*
X186834761Y-68764819D02*
X186929999Y-68907676D01*
X186929999Y-68907676D02*
X187025237Y-69002914D01*
X187025237Y-69002914D02*
X187120475Y-69050533D01*
X186120475Y-69764819D02*
X186120475Y-68764819D01*
X186025237Y-69383866D02*
X185739523Y-69764819D01*
X185739523Y-69098152D02*
X186120475Y-69479104D01*
X120653333Y-62411009D02*
X120986666Y-62411009D01*
X120986666Y-62934819D02*
X120986666Y-61934819D01*
X120986666Y-61934819D02*
X120510476Y-61934819D01*
X120224761Y-61934819D02*
X119605714Y-61934819D01*
X119605714Y-61934819D02*
X119939047Y-62315771D01*
X119939047Y-62315771D02*
X119796190Y-62315771D01*
X119796190Y-62315771D02*
X119700952Y-62363390D01*
X119700952Y-62363390D02*
X119653333Y-62411009D01*
X119653333Y-62411009D02*
X119605714Y-62506247D01*
X119605714Y-62506247D02*
X119605714Y-62744342D01*
X119605714Y-62744342D02*
X119653333Y-62839580D01*
X119653333Y-62839580D02*
X119700952Y-62887200D01*
X119700952Y-62887200D02*
X119796190Y-62934819D01*
X119796190Y-62934819D02*
X120081904Y-62934819D01*
X120081904Y-62934819D02*
X120177142Y-62887200D01*
X120177142Y-62887200D02*
X120224761Y-62839580D01*
X190484819Y-127310952D02*
X190484819Y-126739524D01*
X190484819Y-127025238D02*
X189484819Y-127025238D01*
X189484819Y-127025238D02*
X189627676Y-126930000D01*
X189627676Y-126930000D02*
X189722914Y-126834762D01*
X189722914Y-126834762D02*
X189770533Y-126739524D01*
X189484819Y-127930000D02*
X189484819Y-128025238D01*
X189484819Y-128025238D02*
X189532438Y-128120476D01*
X189532438Y-128120476D02*
X189580057Y-128168095D01*
X189580057Y-128168095D02*
X189675295Y-128215714D01*
X189675295Y-128215714D02*
X189865771Y-128263333D01*
X189865771Y-128263333D02*
X190103866Y-128263333D01*
X190103866Y-128263333D02*
X190294342Y-128215714D01*
X190294342Y-128215714D02*
X190389580Y-128168095D01*
X190389580Y-128168095D02*
X190437200Y-128120476D01*
X190437200Y-128120476D02*
X190484819Y-128025238D01*
X190484819Y-128025238D02*
X190484819Y-127930000D01*
X190484819Y-127930000D02*
X190437200Y-127834762D01*
X190437200Y-127834762D02*
X190389580Y-127787143D01*
X190389580Y-127787143D02*
X190294342Y-127739524D01*
X190294342Y-127739524D02*
X190103866Y-127691905D01*
X190103866Y-127691905D02*
X189865771Y-127691905D01*
X189865771Y-127691905D02*
X189675295Y-127739524D01*
X189675295Y-127739524D02*
X189580057Y-127787143D01*
X189580057Y-127787143D02*
X189532438Y-127834762D01*
X189532438Y-127834762D02*
X189484819Y-127930000D01*
X189484819Y-128882381D02*
X189484819Y-128977619D01*
X189484819Y-128977619D02*
X189532438Y-129072857D01*
X189532438Y-129072857D02*
X189580057Y-129120476D01*
X189580057Y-129120476D02*
X189675295Y-129168095D01*
X189675295Y-129168095D02*
X189865771Y-129215714D01*
X189865771Y-129215714D02*
X190103866Y-129215714D01*
X190103866Y-129215714D02*
X190294342Y-129168095D01*
X190294342Y-129168095D02*
X190389580Y-129120476D01*
X190389580Y-129120476D02*
X190437200Y-129072857D01*
X190437200Y-129072857D02*
X190484819Y-128977619D01*
X190484819Y-128977619D02*
X190484819Y-128882381D01*
X190484819Y-128882381D02*
X190437200Y-128787143D01*
X190437200Y-128787143D02*
X190389580Y-128739524D01*
X190389580Y-128739524D02*
X190294342Y-128691905D01*
X190294342Y-128691905D02*
X190103866Y-128644286D01*
X190103866Y-128644286D02*
X189865771Y-128644286D01*
X189865771Y-128644286D02*
X189675295Y-128691905D01*
X189675295Y-128691905D02*
X189580057Y-128739524D01*
X189580057Y-128739524D02*
X189532438Y-128787143D01*
X189532438Y-128787143D02*
X189484819Y-128882381D01*
X189818152Y-129644286D02*
X190484819Y-129644286D01*
X189913390Y-129644286D02*
X189865771Y-129691905D01*
X189865771Y-129691905D02*
X189818152Y-129787143D01*
X189818152Y-129787143D02*
X189818152Y-129930000D01*
X189818152Y-129930000D02*
X189865771Y-130025238D01*
X189865771Y-130025238D02*
X189961009Y-130072857D01*
X189961009Y-130072857D02*
X190484819Y-130072857D01*
X152544285Y-114597200D02*
X152401428Y-114644819D01*
X152401428Y-114644819D02*
X152163333Y-114644819D01*
X152163333Y-114644819D02*
X152068095Y-114597200D01*
X152068095Y-114597200D02*
X152020476Y-114549580D01*
X152020476Y-114549580D02*
X151972857Y-114454342D01*
X151972857Y-114454342D02*
X151972857Y-114359104D01*
X151972857Y-114359104D02*
X152020476Y-114263866D01*
X152020476Y-114263866D02*
X152068095Y-114216247D01*
X152068095Y-114216247D02*
X152163333Y-114168628D01*
X152163333Y-114168628D02*
X152353809Y-114121009D01*
X152353809Y-114121009D02*
X152449047Y-114073390D01*
X152449047Y-114073390D02*
X152496666Y-114025771D01*
X152496666Y-114025771D02*
X152544285Y-113930533D01*
X152544285Y-113930533D02*
X152544285Y-113835295D01*
X152544285Y-113835295D02*
X152496666Y-113740057D01*
X152496666Y-113740057D02*
X152449047Y-113692438D01*
X152449047Y-113692438D02*
X152353809Y-113644819D01*
X152353809Y-113644819D02*
X152115714Y-113644819D01*
X152115714Y-113644819D02*
X151972857Y-113692438D01*
X151591904Y-114597200D02*
X151449047Y-114644819D01*
X151449047Y-114644819D02*
X151210952Y-114644819D01*
X151210952Y-114644819D02*
X151115714Y-114597200D01*
X151115714Y-114597200D02*
X151068095Y-114549580D01*
X151068095Y-114549580D02*
X151020476Y-114454342D01*
X151020476Y-114454342D02*
X151020476Y-114359104D01*
X151020476Y-114359104D02*
X151068095Y-114263866D01*
X151068095Y-114263866D02*
X151115714Y-114216247D01*
X151115714Y-114216247D02*
X151210952Y-114168628D01*
X151210952Y-114168628D02*
X151401428Y-114121009D01*
X151401428Y-114121009D02*
X151496666Y-114073390D01*
X151496666Y-114073390D02*
X151544285Y-114025771D01*
X151544285Y-114025771D02*
X151591904Y-113930533D01*
X151591904Y-113930533D02*
X151591904Y-113835295D01*
X151591904Y-113835295D02*
X151544285Y-113740057D01*
X151544285Y-113740057D02*
X151496666Y-113692438D01*
X151496666Y-113692438D02*
X151401428Y-113644819D01*
X151401428Y-113644819D02*
X151163333Y-113644819D01*
X151163333Y-113644819D02*
X151020476Y-113692438D01*
X150687142Y-113644819D02*
X150068095Y-113644819D01*
X150068095Y-113644819D02*
X150401428Y-114025771D01*
X150401428Y-114025771D02*
X150258571Y-114025771D01*
X150258571Y-114025771D02*
X150163333Y-114073390D01*
X150163333Y-114073390D02*
X150115714Y-114121009D01*
X150115714Y-114121009D02*
X150068095Y-114216247D01*
X150068095Y-114216247D02*
X150068095Y-114454342D01*
X150068095Y-114454342D02*
X150115714Y-114549580D01*
X150115714Y-114549580D02*
X150163333Y-114597200D01*
X150163333Y-114597200D02*
X150258571Y-114644819D01*
X150258571Y-114644819D02*
X150544285Y-114644819D01*
X150544285Y-114644819D02*
X150639523Y-114597200D01*
X150639523Y-114597200D02*
X150687142Y-114549580D01*
X149210952Y-113978152D02*
X149210952Y-114644819D01*
X149449047Y-113597200D02*
X149687142Y-114311485D01*
X149687142Y-114311485D02*
X149068095Y-114311485D01*
X184215238Y-64534819D02*
X184786666Y-64534819D01*
X184500952Y-64534819D02*
X184500952Y-63534819D01*
X184500952Y-63534819D02*
X184596190Y-63677676D01*
X184596190Y-63677676D02*
X184691428Y-63772914D01*
X184691428Y-63772914D02*
X184786666Y-63820533D01*
X183596190Y-63534819D02*
X183500952Y-63534819D01*
X183500952Y-63534819D02*
X183405714Y-63582438D01*
X183405714Y-63582438D02*
X183358095Y-63630057D01*
X183358095Y-63630057D02*
X183310476Y-63725295D01*
X183310476Y-63725295D02*
X183262857Y-63915771D01*
X183262857Y-63915771D02*
X183262857Y-64153866D01*
X183262857Y-64153866D02*
X183310476Y-64344342D01*
X183310476Y-64344342D02*
X183358095Y-64439580D01*
X183358095Y-64439580D02*
X183405714Y-64487200D01*
X183405714Y-64487200D02*
X183500952Y-64534819D01*
X183500952Y-64534819D02*
X183596190Y-64534819D01*
X183596190Y-64534819D02*
X183691428Y-64487200D01*
X183691428Y-64487200D02*
X183739047Y-64439580D01*
X183739047Y-64439580D02*
X183786666Y-64344342D01*
X183786666Y-64344342D02*
X183834285Y-64153866D01*
X183834285Y-64153866D02*
X183834285Y-63915771D01*
X183834285Y-63915771D02*
X183786666Y-63725295D01*
X183786666Y-63725295D02*
X183739047Y-63630057D01*
X183739047Y-63630057D02*
X183691428Y-63582438D01*
X183691428Y-63582438D02*
X183596190Y-63534819D01*
X182834285Y-64534819D02*
X182834285Y-63534819D01*
X182739047Y-64153866D02*
X182453333Y-64534819D01*
X182453333Y-63868152D02*
X182834285Y-64249104D01*
X119745238Y-75924819D02*
X120316666Y-75924819D01*
X120030952Y-75924819D02*
X120030952Y-74924819D01*
X120030952Y-74924819D02*
X120126190Y-75067676D01*
X120126190Y-75067676D02*
X120221428Y-75162914D01*
X120221428Y-75162914D02*
X120316666Y-75210533D01*
X119126190Y-74924819D02*
X119030952Y-74924819D01*
X119030952Y-74924819D02*
X118935714Y-74972438D01*
X118935714Y-74972438D02*
X118888095Y-75020057D01*
X118888095Y-75020057D02*
X118840476Y-75115295D01*
X118840476Y-75115295D02*
X118792857Y-75305771D01*
X118792857Y-75305771D02*
X118792857Y-75543866D01*
X118792857Y-75543866D02*
X118840476Y-75734342D01*
X118840476Y-75734342D02*
X118888095Y-75829580D01*
X118888095Y-75829580D02*
X118935714Y-75877200D01*
X118935714Y-75877200D02*
X119030952Y-75924819D01*
X119030952Y-75924819D02*
X119126190Y-75924819D01*
X119126190Y-75924819D02*
X119221428Y-75877200D01*
X119221428Y-75877200D02*
X119269047Y-75829580D01*
X119269047Y-75829580D02*
X119316666Y-75734342D01*
X119316666Y-75734342D02*
X119364285Y-75543866D01*
X119364285Y-75543866D02*
X119364285Y-75305771D01*
X119364285Y-75305771D02*
X119316666Y-75115295D01*
X119316666Y-75115295D02*
X119269047Y-75020057D01*
X119269047Y-75020057D02*
X119221428Y-74972438D01*
X119221428Y-74972438D02*
X119126190Y-74924819D01*
X118364285Y-75924819D02*
X118364285Y-74924819D01*
X118269047Y-75543866D02*
X117983333Y-75924819D01*
X117983333Y-75258152D02*
X118364285Y-75639104D01*
X184375238Y-123364819D02*
X184946666Y-123364819D01*
X184660952Y-123364819D02*
X184660952Y-122364819D01*
X184660952Y-122364819D02*
X184756190Y-122507676D01*
X184756190Y-122507676D02*
X184851428Y-122602914D01*
X184851428Y-122602914D02*
X184946666Y-122650533D01*
X183756190Y-122364819D02*
X183660952Y-122364819D01*
X183660952Y-122364819D02*
X183565714Y-122412438D01*
X183565714Y-122412438D02*
X183518095Y-122460057D01*
X183518095Y-122460057D02*
X183470476Y-122555295D01*
X183470476Y-122555295D02*
X183422857Y-122745771D01*
X183422857Y-122745771D02*
X183422857Y-122983866D01*
X183422857Y-122983866D02*
X183470476Y-123174342D01*
X183470476Y-123174342D02*
X183518095Y-123269580D01*
X183518095Y-123269580D02*
X183565714Y-123317200D01*
X183565714Y-123317200D02*
X183660952Y-123364819D01*
X183660952Y-123364819D02*
X183756190Y-123364819D01*
X183756190Y-123364819D02*
X183851428Y-123317200D01*
X183851428Y-123317200D02*
X183899047Y-123269580D01*
X183899047Y-123269580D02*
X183946666Y-123174342D01*
X183946666Y-123174342D02*
X183994285Y-122983866D01*
X183994285Y-122983866D02*
X183994285Y-122745771D01*
X183994285Y-122745771D02*
X183946666Y-122555295D01*
X183946666Y-122555295D02*
X183899047Y-122460057D01*
X183899047Y-122460057D02*
X183851428Y-122412438D01*
X183851428Y-122412438D02*
X183756190Y-122364819D01*
X182994285Y-123364819D02*
X182994285Y-122364819D01*
X182899047Y-122983866D02*
X182613333Y-123364819D01*
X182613333Y-122698152D02*
X182994285Y-123079104D01*
X129195238Y-64814819D02*
X129766666Y-64814819D01*
X129480952Y-64814819D02*
X129480952Y-63814819D01*
X129480952Y-63814819D02*
X129576190Y-63957676D01*
X129576190Y-63957676D02*
X129671428Y-64052914D01*
X129671428Y-64052914D02*
X129766666Y-64100533D01*
X128576190Y-63814819D02*
X128480952Y-63814819D01*
X128480952Y-63814819D02*
X128385714Y-63862438D01*
X128385714Y-63862438D02*
X128338095Y-63910057D01*
X128338095Y-63910057D02*
X128290476Y-64005295D01*
X128290476Y-64005295D02*
X128242857Y-64195771D01*
X128242857Y-64195771D02*
X128242857Y-64433866D01*
X128242857Y-64433866D02*
X128290476Y-64624342D01*
X128290476Y-64624342D02*
X128338095Y-64719580D01*
X128338095Y-64719580D02*
X128385714Y-64767200D01*
X128385714Y-64767200D02*
X128480952Y-64814819D01*
X128480952Y-64814819D02*
X128576190Y-64814819D01*
X128576190Y-64814819D02*
X128671428Y-64767200D01*
X128671428Y-64767200D02*
X128719047Y-64719580D01*
X128719047Y-64719580D02*
X128766666Y-64624342D01*
X128766666Y-64624342D02*
X128814285Y-64433866D01*
X128814285Y-64433866D02*
X128814285Y-64195771D01*
X128814285Y-64195771D02*
X128766666Y-64005295D01*
X128766666Y-64005295D02*
X128719047Y-63910057D01*
X128719047Y-63910057D02*
X128671428Y-63862438D01*
X128671428Y-63862438D02*
X128576190Y-63814819D01*
X127814285Y-64814819D02*
X127814285Y-63814819D01*
X127719047Y-64433866D02*
X127433333Y-64814819D01*
X127433333Y-64148152D02*
X127814285Y-64529104D01*
X179445238Y-70284819D02*
X180016666Y-70284819D01*
X179730952Y-70284819D02*
X179730952Y-69284819D01*
X179730952Y-69284819D02*
X179826190Y-69427676D01*
X179826190Y-69427676D02*
X179921428Y-69522914D01*
X179921428Y-69522914D02*
X180016666Y-69570533D01*
X178826190Y-69284819D02*
X178730952Y-69284819D01*
X178730952Y-69284819D02*
X178635714Y-69332438D01*
X178635714Y-69332438D02*
X178588095Y-69380057D01*
X178588095Y-69380057D02*
X178540476Y-69475295D01*
X178540476Y-69475295D02*
X178492857Y-69665771D01*
X178492857Y-69665771D02*
X178492857Y-69903866D01*
X178492857Y-69903866D02*
X178540476Y-70094342D01*
X178540476Y-70094342D02*
X178588095Y-70189580D01*
X178588095Y-70189580D02*
X178635714Y-70237200D01*
X178635714Y-70237200D02*
X178730952Y-70284819D01*
X178730952Y-70284819D02*
X178826190Y-70284819D01*
X178826190Y-70284819D02*
X178921428Y-70237200D01*
X178921428Y-70237200D02*
X178969047Y-70189580D01*
X178969047Y-70189580D02*
X179016666Y-70094342D01*
X179016666Y-70094342D02*
X179064285Y-69903866D01*
X179064285Y-69903866D02*
X179064285Y-69665771D01*
X179064285Y-69665771D02*
X179016666Y-69475295D01*
X179016666Y-69475295D02*
X178969047Y-69380057D01*
X178969047Y-69380057D02*
X178921428Y-69332438D01*
X178921428Y-69332438D02*
X178826190Y-69284819D01*
X178064285Y-70284819D02*
X178064285Y-69284819D01*
X177969047Y-69903866D02*
X177683333Y-70284819D01*
X177683333Y-69618152D02*
X178064285Y-69999104D01*
X191684819Y-93184286D02*
X191684819Y-93803333D01*
X191684819Y-93803333D02*
X192065771Y-93470000D01*
X192065771Y-93470000D02*
X192065771Y-93612857D01*
X192065771Y-93612857D02*
X192113390Y-93708095D01*
X192113390Y-93708095D02*
X192161009Y-93755714D01*
X192161009Y-93755714D02*
X192256247Y-93803333D01*
X192256247Y-93803333D02*
X192494342Y-93803333D01*
X192494342Y-93803333D02*
X192589580Y-93755714D01*
X192589580Y-93755714D02*
X192637200Y-93708095D01*
X192637200Y-93708095D02*
X192684819Y-93612857D01*
X192684819Y-93612857D02*
X192684819Y-93327143D01*
X192684819Y-93327143D02*
X192637200Y-93231905D01*
X192637200Y-93231905D02*
X192589580Y-93184286D01*
X191684819Y-94136667D02*
X191684819Y-94755714D01*
X191684819Y-94755714D02*
X192065771Y-94422381D01*
X192065771Y-94422381D02*
X192065771Y-94565238D01*
X192065771Y-94565238D02*
X192113390Y-94660476D01*
X192113390Y-94660476D02*
X192161009Y-94708095D01*
X192161009Y-94708095D02*
X192256247Y-94755714D01*
X192256247Y-94755714D02*
X192494342Y-94755714D01*
X192494342Y-94755714D02*
X192589580Y-94708095D01*
X192589580Y-94708095D02*
X192637200Y-94660476D01*
X192637200Y-94660476D02*
X192684819Y-94565238D01*
X192684819Y-94565238D02*
X192684819Y-94279524D01*
X192684819Y-94279524D02*
X192637200Y-94184286D01*
X192637200Y-94184286D02*
X192589580Y-94136667D01*
X191684819Y-95374762D02*
X191684819Y-95470000D01*
X191684819Y-95470000D02*
X191732438Y-95565238D01*
X191732438Y-95565238D02*
X191780057Y-95612857D01*
X191780057Y-95612857D02*
X191875295Y-95660476D01*
X191875295Y-95660476D02*
X192065771Y-95708095D01*
X192065771Y-95708095D02*
X192303866Y-95708095D01*
X192303866Y-95708095D02*
X192494342Y-95660476D01*
X192494342Y-95660476D02*
X192589580Y-95612857D01*
X192589580Y-95612857D02*
X192637200Y-95565238D01*
X192637200Y-95565238D02*
X192684819Y-95470000D01*
X192684819Y-95470000D02*
X192684819Y-95374762D01*
X192684819Y-95374762D02*
X192637200Y-95279524D01*
X192637200Y-95279524D02*
X192589580Y-95231905D01*
X192589580Y-95231905D02*
X192494342Y-95184286D01*
X192494342Y-95184286D02*
X192303866Y-95136667D01*
X192303866Y-95136667D02*
X192065771Y-95136667D01*
X192065771Y-95136667D02*
X191875295Y-95184286D01*
X191875295Y-95184286D02*
X191780057Y-95231905D01*
X191780057Y-95231905D02*
X191732438Y-95279524D01*
X191732438Y-95279524D02*
X191684819Y-95374762D01*
X141089047Y-103434819D02*
X141660475Y-103434819D01*
X141374761Y-103434819D02*
X141374761Y-102434819D01*
X141374761Y-102434819D02*
X141469999Y-102577676D01*
X141469999Y-102577676D02*
X141565237Y-102672914D01*
X141565237Y-102672914D02*
X141660475Y-102720533D01*
X140469999Y-102434819D02*
X140374761Y-102434819D01*
X140374761Y-102434819D02*
X140279523Y-102482438D01*
X140279523Y-102482438D02*
X140231904Y-102530057D01*
X140231904Y-102530057D02*
X140184285Y-102625295D01*
X140184285Y-102625295D02*
X140136666Y-102815771D01*
X140136666Y-102815771D02*
X140136666Y-103053866D01*
X140136666Y-103053866D02*
X140184285Y-103244342D01*
X140184285Y-103244342D02*
X140231904Y-103339580D01*
X140231904Y-103339580D02*
X140279523Y-103387200D01*
X140279523Y-103387200D02*
X140374761Y-103434819D01*
X140374761Y-103434819D02*
X140469999Y-103434819D01*
X140469999Y-103434819D02*
X140565237Y-103387200D01*
X140565237Y-103387200D02*
X140612856Y-103339580D01*
X140612856Y-103339580D02*
X140660475Y-103244342D01*
X140660475Y-103244342D02*
X140708094Y-103053866D01*
X140708094Y-103053866D02*
X140708094Y-102815771D01*
X140708094Y-102815771D02*
X140660475Y-102625295D01*
X140660475Y-102625295D02*
X140612856Y-102530057D01*
X140612856Y-102530057D02*
X140565237Y-102482438D01*
X140565237Y-102482438D02*
X140469999Y-102434819D01*
X139517618Y-102434819D02*
X139422380Y-102434819D01*
X139422380Y-102434819D02*
X139327142Y-102482438D01*
X139327142Y-102482438D02*
X139279523Y-102530057D01*
X139279523Y-102530057D02*
X139231904Y-102625295D01*
X139231904Y-102625295D02*
X139184285Y-102815771D01*
X139184285Y-102815771D02*
X139184285Y-103053866D01*
X139184285Y-103053866D02*
X139231904Y-103244342D01*
X139231904Y-103244342D02*
X139279523Y-103339580D01*
X139279523Y-103339580D02*
X139327142Y-103387200D01*
X139327142Y-103387200D02*
X139422380Y-103434819D01*
X139422380Y-103434819D02*
X139517618Y-103434819D01*
X139517618Y-103434819D02*
X139612856Y-103387200D01*
X139612856Y-103387200D02*
X139660475Y-103339580D01*
X139660475Y-103339580D02*
X139708094Y-103244342D01*
X139708094Y-103244342D02*
X139755713Y-103053866D01*
X139755713Y-103053866D02*
X139755713Y-102815771D01*
X139755713Y-102815771D02*
X139708094Y-102625295D01*
X139708094Y-102625295D02*
X139660475Y-102530057D01*
X139660475Y-102530057D02*
X139612856Y-102482438D01*
X139612856Y-102482438D02*
X139517618Y-102434819D01*
X138755713Y-102768152D02*
X138755713Y-103434819D01*
X138755713Y-102863390D02*
X138708094Y-102815771D01*
X138708094Y-102815771D02*
X138612856Y-102768152D01*
X138612856Y-102768152D02*
X138469999Y-102768152D01*
X138469999Y-102768152D02*
X138374761Y-102815771D01*
X138374761Y-102815771D02*
X138327142Y-102911009D01*
X138327142Y-102911009D02*
X138327142Y-103434819D01*
X128699047Y-70514819D02*
X129270475Y-70514819D01*
X128984761Y-70514819D02*
X128984761Y-69514819D01*
X128984761Y-69514819D02*
X129079999Y-69657676D01*
X129079999Y-69657676D02*
X129175237Y-69752914D01*
X129175237Y-69752914D02*
X129270475Y-69800533D01*
X128270475Y-70514819D02*
X128270475Y-69514819D01*
X128175237Y-70133866D02*
X127889523Y-70514819D01*
X127889523Y-69848152D02*
X128270475Y-70229104D01*
X140058152Y-78121428D02*
X140724819Y-78121428D01*
X139677200Y-77883333D02*
X140391485Y-77645238D01*
X140391485Y-77645238D02*
X140391485Y-78264285D01*
X140629580Y-78645238D02*
X140677200Y-78692857D01*
X140677200Y-78692857D02*
X140724819Y-78645238D01*
X140724819Y-78645238D02*
X140677200Y-78597619D01*
X140677200Y-78597619D02*
X140629580Y-78645238D01*
X140629580Y-78645238D02*
X140724819Y-78645238D01*
X139724819Y-79026190D02*
X139724819Y-79692856D01*
X139724819Y-79692856D02*
X140724819Y-79264285D01*
X140724819Y-80073809D02*
X139724819Y-80073809D01*
X140343866Y-80169047D02*
X140724819Y-80454761D01*
X140058152Y-80454761D02*
X140439104Y-80073809D01*
X184425238Y-127344819D02*
X184996666Y-127344819D01*
X184710952Y-127344819D02*
X184710952Y-126344819D01*
X184710952Y-126344819D02*
X184806190Y-126487676D01*
X184806190Y-126487676D02*
X184901428Y-126582914D01*
X184901428Y-126582914D02*
X184996666Y-126630533D01*
X183806190Y-126344819D02*
X183710952Y-126344819D01*
X183710952Y-126344819D02*
X183615714Y-126392438D01*
X183615714Y-126392438D02*
X183568095Y-126440057D01*
X183568095Y-126440057D02*
X183520476Y-126535295D01*
X183520476Y-126535295D02*
X183472857Y-126725771D01*
X183472857Y-126725771D02*
X183472857Y-126963866D01*
X183472857Y-126963866D02*
X183520476Y-127154342D01*
X183520476Y-127154342D02*
X183568095Y-127249580D01*
X183568095Y-127249580D02*
X183615714Y-127297200D01*
X183615714Y-127297200D02*
X183710952Y-127344819D01*
X183710952Y-127344819D02*
X183806190Y-127344819D01*
X183806190Y-127344819D02*
X183901428Y-127297200D01*
X183901428Y-127297200D02*
X183949047Y-127249580D01*
X183949047Y-127249580D02*
X183996666Y-127154342D01*
X183996666Y-127154342D02*
X184044285Y-126963866D01*
X184044285Y-126963866D02*
X184044285Y-126725771D01*
X184044285Y-126725771D02*
X183996666Y-126535295D01*
X183996666Y-126535295D02*
X183949047Y-126440057D01*
X183949047Y-126440057D02*
X183901428Y-126392438D01*
X183901428Y-126392438D02*
X183806190Y-126344819D01*
X183044285Y-127344819D02*
X183044285Y-126344819D01*
X182949047Y-126963866D02*
X182663333Y-127344819D01*
X182663333Y-126678152D02*
X183044285Y-127059104D01*
X187125238Y-65984819D02*
X187696666Y-65984819D01*
X187410952Y-65984819D02*
X187410952Y-64984819D01*
X187410952Y-64984819D02*
X187506190Y-65127676D01*
X187506190Y-65127676D02*
X187601428Y-65222914D01*
X187601428Y-65222914D02*
X187696666Y-65270533D01*
X186506190Y-64984819D02*
X186410952Y-64984819D01*
X186410952Y-64984819D02*
X186315714Y-65032438D01*
X186315714Y-65032438D02*
X186268095Y-65080057D01*
X186268095Y-65080057D02*
X186220476Y-65175295D01*
X186220476Y-65175295D02*
X186172857Y-65365771D01*
X186172857Y-65365771D02*
X186172857Y-65603866D01*
X186172857Y-65603866D02*
X186220476Y-65794342D01*
X186220476Y-65794342D02*
X186268095Y-65889580D01*
X186268095Y-65889580D02*
X186315714Y-65937200D01*
X186315714Y-65937200D02*
X186410952Y-65984819D01*
X186410952Y-65984819D02*
X186506190Y-65984819D01*
X186506190Y-65984819D02*
X186601428Y-65937200D01*
X186601428Y-65937200D02*
X186649047Y-65889580D01*
X186649047Y-65889580D02*
X186696666Y-65794342D01*
X186696666Y-65794342D02*
X186744285Y-65603866D01*
X186744285Y-65603866D02*
X186744285Y-65365771D01*
X186744285Y-65365771D02*
X186696666Y-65175295D01*
X186696666Y-65175295D02*
X186649047Y-65080057D01*
X186649047Y-65080057D02*
X186601428Y-65032438D01*
X186601428Y-65032438D02*
X186506190Y-64984819D01*
X185744285Y-65984819D02*
X185744285Y-64984819D01*
X185649047Y-65603866D02*
X185363333Y-65984819D01*
X185363333Y-65318152D02*
X185744285Y-65699104D01*
X135959047Y-51184819D02*
X136530475Y-51184819D01*
X136244761Y-51184819D02*
X136244761Y-50184819D01*
X136244761Y-50184819D02*
X136339999Y-50327676D01*
X136339999Y-50327676D02*
X136435237Y-50422914D01*
X136435237Y-50422914D02*
X136530475Y-50470533D01*
X135530475Y-51184819D02*
X135530475Y-50184819D01*
X135435237Y-50803866D02*
X135149523Y-51184819D01*
X135149523Y-50518152D02*
X135530475Y-50899104D01*
X144428152Y-81911428D02*
X145094819Y-81911428D01*
X144047200Y-81673333D02*
X144761485Y-81435238D01*
X144761485Y-81435238D02*
X144761485Y-82054285D01*
X144999580Y-82435238D02*
X145047200Y-82482857D01*
X145047200Y-82482857D02*
X145094819Y-82435238D01*
X145094819Y-82435238D02*
X145047200Y-82387619D01*
X145047200Y-82387619D02*
X144999580Y-82435238D01*
X144999580Y-82435238D02*
X145094819Y-82435238D01*
X144094819Y-82816190D02*
X144094819Y-83482856D01*
X144094819Y-83482856D02*
X145094819Y-83054285D01*
X145094819Y-83863809D02*
X144094819Y-83863809D01*
X144713866Y-83959047D02*
X145094819Y-84244761D01*
X144428152Y-84244761D02*
X144809104Y-83863809D01*
X146978152Y-81931428D02*
X147644819Y-81931428D01*
X146597200Y-81693333D02*
X147311485Y-81455238D01*
X147311485Y-81455238D02*
X147311485Y-82074285D01*
X147549580Y-82455238D02*
X147597200Y-82502857D01*
X147597200Y-82502857D02*
X147644819Y-82455238D01*
X147644819Y-82455238D02*
X147597200Y-82407619D01*
X147597200Y-82407619D02*
X147549580Y-82455238D01*
X147549580Y-82455238D02*
X147644819Y-82455238D01*
X146644819Y-82836190D02*
X146644819Y-83502856D01*
X146644819Y-83502856D02*
X147644819Y-83074285D01*
X147644819Y-83883809D02*
X146644819Y-83883809D01*
X147263866Y-83979047D02*
X147644819Y-84264761D01*
X146978152Y-84264761D02*
X147359104Y-83883809D01*
X138175238Y-70304819D02*
X138746666Y-70304819D01*
X138460952Y-70304819D02*
X138460952Y-69304819D01*
X138460952Y-69304819D02*
X138556190Y-69447676D01*
X138556190Y-69447676D02*
X138651428Y-69542914D01*
X138651428Y-69542914D02*
X138746666Y-69590533D01*
X137556190Y-69304819D02*
X137460952Y-69304819D01*
X137460952Y-69304819D02*
X137365714Y-69352438D01*
X137365714Y-69352438D02*
X137318095Y-69400057D01*
X137318095Y-69400057D02*
X137270476Y-69495295D01*
X137270476Y-69495295D02*
X137222857Y-69685771D01*
X137222857Y-69685771D02*
X137222857Y-69923866D01*
X137222857Y-69923866D02*
X137270476Y-70114342D01*
X137270476Y-70114342D02*
X137318095Y-70209580D01*
X137318095Y-70209580D02*
X137365714Y-70257200D01*
X137365714Y-70257200D02*
X137460952Y-70304819D01*
X137460952Y-70304819D02*
X137556190Y-70304819D01*
X137556190Y-70304819D02*
X137651428Y-70257200D01*
X137651428Y-70257200D02*
X137699047Y-70209580D01*
X137699047Y-70209580D02*
X137746666Y-70114342D01*
X137746666Y-70114342D02*
X137794285Y-69923866D01*
X137794285Y-69923866D02*
X137794285Y-69685771D01*
X137794285Y-69685771D02*
X137746666Y-69495295D01*
X137746666Y-69495295D02*
X137699047Y-69400057D01*
X137699047Y-69400057D02*
X137651428Y-69352438D01*
X137651428Y-69352438D02*
X137556190Y-69304819D01*
X136794285Y-70304819D02*
X136794285Y-69304819D01*
X136699047Y-69923866D02*
X136413333Y-70304819D01*
X136413333Y-69638152D02*
X136794285Y-70019104D01*
X122034819Y-83595714D02*
X122034819Y-83690952D01*
X122034819Y-83690952D02*
X122082438Y-83786190D01*
X122082438Y-83786190D02*
X122130057Y-83833809D01*
X122130057Y-83833809D02*
X122225295Y-83881428D01*
X122225295Y-83881428D02*
X122415771Y-83929047D01*
X122415771Y-83929047D02*
X122653866Y-83929047D01*
X122653866Y-83929047D02*
X122844342Y-83881428D01*
X122844342Y-83881428D02*
X122939580Y-83833809D01*
X122939580Y-83833809D02*
X122987200Y-83786190D01*
X122987200Y-83786190D02*
X123034819Y-83690952D01*
X123034819Y-83690952D02*
X123034819Y-83595714D01*
X123034819Y-83595714D02*
X122987200Y-83500476D01*
X122987200Y-83500476D02*
X122939580Y-83452857D01*
X122939580Y-83452857D02*
X122844342Y-83405238D01*
X122844342Y-83405238D02*
X122653866Y-83357619D01*
X122653866Y-83357619D02*
X122415771Y-83357619D01*
X122415771Y-83357619D02*
X122225295Y-83405238D01*
X122225295Y-83405238D02*
X122130057Y-83452857D01*
X122130057Y-83452857D02*
X122082438Y-83500476D01*
X122082438Y-83500476D02*
X122034819Y-83595714D01*
X122939580Y-84357619D02*
X122987200Y-84405238D01*
X122987200Y-84405238D02*
X123034819Y-84357619D01*
X123034819Y-84357619D02*
X122987200Y-84310000D01*
X122987200Y-84310000D02*
X122939580Y-84357619D01*
X122939580Y-84357619D02*
X123034819Y-84357619D01*
X123034819Y-85357618D02*
X123034819Y-84786190D01*
X123034819Y-85071904D02*
X122034819Y-85071904D01*
X122034819Y-85071904D02*
X122177676Y-84976666D01*
X122177676Y-84976666D02*
X122272914Y-84881428D01*
X122272914Y-84881428D02*
X122320533Y-84786190D01*
X122368152Y-86214761D02*
X123034819Y-86214761D01*
X122368152Y-85786190D02*
X122891961Y-85786190D01*
X122891961Y-85786190D02*
X122987200Y-85833809D01*
X122987200Y-85833809D02*
X123034819Y-85929047D01*
X123034819Y-85929047D02*
X123034819Y-86071904D01*
X123034819Y-86071904D02*
X122987200Y-86167142D01*
X122987200Y-86167142D02*
X122939580Y-86214761D01*
X171289047Y-50884819D02*
X171860475Y-50884819D01*
X171574761Y-50884819D02*
X171574761Y-49884819D01*
X171574761Y-49884819D02*
X171669999Y-50027676D01*
X171669999Y-50027676D02*
X171765237Y-50122914D01*
X171765237Y-50122914D02*
X171860475Y-50170533D01*
X170860475Y-50884819D02*
X170860475Y-49884819D01*
X170765237Y-50503866D02*
X170479523Y-50884819D01*
X170479523Y-50218152D02*
X170860475Y-50599104D01*
X180213808Y-49814819D02*
X179594761Y-49814819D01*
X179594761Y-49814819D02*
X179928094Y-50195771D01*
X179928094Y-50195771D02*
X179785237Y-50195771D01*
X179785237Y-50195771D02*
X179689999Y-50243390D01*
X179689999Y-50243390D02*
X179642380Y-50291009D01*
X179642380Y-50291009D02*
X179594761Y-50386247D01*
X179594761Y-50386247D02*
X179594761Y-50624342D01*
X179594761Y-50624342D02*
X179642380Y-50719580D01*
X179642380Y-50719580D02*
X179689999Y-50767200D01*
X179689999Y-50767200D02*
X179785237Y-50814819D01*
X179785237Y-50814819D02*
X180070951Y-50814819D01*
X180070951Y-50814819D02*
X180166189Y-50767200D01*
X180166189Y-50767200D02*
X180213808Y-50719580D01*
X178737618Y-49814819D02*
X178928094Y-49814819D01*
X178928094Y-49814819D02*
X179023332Y-49862438D01*
X179023332Y-49862438D02*
X179070951Y-49910057D01*
X179070951Y-49910057D02*
X179166189Y-50052914D01*
X179166189Y-50052914D02*
X179213808Y-50243390D01*
X179213808Y-50243390D02*
X179213808Y-50624342D01*
X179213808Y-50624342D02*
X179166189Y-50719580D01*
X179166189Y-50719580D02*
X179118570Y-50767200D01*
X179118570Y-50767200D02*
X179023332Y-50814819D01*
X179023332Y-50814819D02*
X178832856Y-50814819D01*
X178832856Y-50814819D02*
X178737618Y-50767200D01*
X178737618Y-50767200D02*
X178689999Y-50719580D01*
X178689999Y-50719580D02*
X178642380Y-50624342D01*
X178642380Y-50624342D02*
X178642380Y-50386247D01*
X178642380Y-50386247D02*
X178689999Y-50291009D01*
X178689999Y-50291009D02*
X178737618Y-50243390D01*
X178737618Y-50243390D02*
X178832856Y-50195771D01*
X178832856Y-50195771D02*
X179023332Y-50195771D01*
X179023332Y-50195771D02*
X179118570Y-50243390D01*
X179118570Y-50243390D02*
X179166189Y-50291009D01*
X179166189Y-50291009D02*
X179213808Y-50386247D01*
X178213808Y-50719580D02*
X178166189Y-50767200D01*
X178166189Y-50767200D02*
X178213808Y-50814819D01*
X178213808Y-50814819D02*
X178261427Y-50767200D01*
X178261427Y-50767200D02*
X178213808Y-50719580D01*
X178213808Y-50719580D02*
X178213808Y-50814819D01*
X177261428Y-49814819D02*
X177737618Y-49814819D01*
X177737618Y-49814819D02*
X177785237Y-50291009D01*
X177785237Y-50291009D02*
X177737618Y-50243390D01*
X177737618Y-50243390D02*
X177642380Y-50195771D01*
X177642380Y-50195771D02*
X177404285Y-50195771D01*
X177404285Y-50195771D02*
X177309047Y-50243390D01*
X177309047Y-50243390D02*
X177261428Y-50291009D01*
X177261428Y-50291009D02*
X177213809Y-50386247D01*
X177213809Y-50386247D02*
X177213809Y-50624342D01*
X177213809Y-50624342D02*
X177261428Y-50719580D01*
X177261428Y-50719580D02*
X177309047Y-50767200D01*
X177309047Y-50767200D02*
X177404285Y-50814819D01*
X177404285Y-50814819D02*
X177642380Y-50814819D01*
X177642380Y-50814819D02*
X177737618Y-50767200D01*
X177737618Y-50767200D02*
X177785237Y-50719580D01*
X112633808Y-70414819D02*
X112014761Y-70414819D01*
X112014761Y-70414819D02*
X112348094Y-70795771D01*
X112348094Y-70795771D02*
X112205237Y-70795771D01*
X112205237Y-70795771D02*
X112109999Y-70843390D01*
X112109999Y-70843390D02*
X112062380Y-70891009D01*
X112062380Y-70891009D02*
X112014761Y-70986247D01*
X112014761Y-70986247D02*
X112014761Y-71224342D01*
X112014761Y-71224342D02*
X112062380Y-71319580D01*
X112062380Y-71319580D02*
X112109999Y-71367200D01*
X112109999Y-71367200D02*
X112205237Y-71414819D01*
X112205237Y-71414819D02*
X112490951Y-71414819D01*
X112490951Y-71414819D02*
X112586189Y-71367200D01*
X112586189Y-71367200D02*
X112633808Y-71319580D01*
X111157618Y-70414819D02*
X111348094Y-70414819D01*
X111348094Y-70414819D02*
X111443332Y-70462438D01*
X111443332Y-70462438D02*
X111490951Y-70510057D01*
X111490951Y-70510057D02*
X111586189Y-70652914D01*
X111586189Y-70652914D02*
X111633808Y-70843390D01*
X111633808Y-70843390D02*
X111633808Y-71224342D01*
X111633808Y-71224342D02*
X111586189Y-71319580D01*
X111586189Y-71319580D02*
X111538570Y-71367200D01*
X111538570Y-71367200D02*
X111443332Y-71414819D01*
X111443332Y-71414819D02*
X111252856Y-71414819D01*
X111252856Y-71414819D02*
X111157618Y-71367200D01*
X111157618Y-71367200D02*
X111109999Y-71319580D01*
X111109999Y-71319580D02*
X111062380Y-71224342D01*
X111062380Y-71224342D02*
X111062380Y-70986247D01*
X111062380Y-70986247D02*
X111109999Y-70891009D01*
X111109999Y-70891009D02*
X111157618Y-70843390D01*
X111157618Y-70843390D02*
X111252856Y-70795771D01*
X111252856Y-70795771D02*
X111443332Y-70795771D01*
X111443332Y-70795771D02*
X111538570Y-70843390D01*
X111538570Y-70843390D02*
X111586189Y-70891009D01*
X111586189Y-70891009D02*
X111633808Y-70986247D01*
X110633808Y-71319580D02*
X110586189Y-71367200D01*
X110586189Y-71367200D02*
X110633808Y-71414819D01*
X110633808Y-71414819D02*
X110681427Y-71367200D01*
X110681427Y-71367200D02*
X110633808Y-71319580D01*
X110633808Y-71319580D02*
X110633808Y-71414819D01*
X109681428Y-70414819D02*
X110157618Y-70414819D01*
X110157618Y-70414819D02*
X110205237Y-70891009D01*
X110205237Y-70891009D02*
X110157618Y-70843390D01*
X110157618Y-70843390D02*
X110062380Y-70795771D01*
X110062380Y-70795771D02*
X109824285Y-70795771D01*
X109824285Y-70795771D02*
X109729047Y-70843390D01*
X109729047Y-70843390D02*
X109681428Y-70891009D01*
X109681428Y-70891009D02*
X109633809Y-70986247D01*
X109633809Y-70986247D02*
X109633809Y-71224342D01*
X109633809Y-71224342D02*
X109681428Y-71319580D01*
X109681428Y-71319580D02*
X109729047Y-71367200D01*
X109729047Y-71367200D02*
X109824285Y-71414819D01*
X109824285Y-71414819D02*
X110062380Y-71414819D01*
X110062380Y-71414819D02*
X110157618Y-71367200D01*
X110157618Y-71367200D02*
X110205237Y-71319580D01*
X128472857Y-86874819D02*
X129044285Y-86874819D01*
X128758571Y-86874819D02*
X128758571Y-85874819D01*
X128758571Y-85874819D02*
X128853809Y-86017676D01*
X128853809Y-86017676D02*
X128949047Y-86112914D01*
X128949047Y-86112914D02*
X129044285Y-86160533D01*
X127853809Y-85874819D02*
X127758571Y-85874819D01*
X127758571Y-85874819D02*
X127663333Y-85922438D01*
X127663333Y-85922438D02*
X127615714Y-85970057D01*
X127615714Y-85970057D02*
X127568095Y-86065295D01*
X127568095Y-86065295D02*
X127520476Y-86255771D01*
X127520476Y-86255771D02*
X127520476Y-86493866D01*
X127520476Y-86493866D02*
X127568095Y-86684342D01*
X127568095Y-86684342D02*
X127615714Y-86779580D01*
X127615714Y-86779580D02*
X127663333Y-86827200D01*
X127663333Y-86827200D02*
X127758571Y-86874819D01*
X127758571Y-86874819D02*
X127853809Y-86874819D01*
X127853809Y-86874819D02*
X127949047Y-86827200D01*
X127949047Y-86827200D02*
X127996666Y-86779580D01*
X127996666Y-86779580D02*
X128044285Y-86684342D01*
X128044285Y-86684342D02*
X128091904Y-86493866D01*
X128091904Y-86493866D02*
X128091904Y-86255771D01*
X128091904Y-86255771D02*
X128044285Y-86065295D01*
X128044285Y-86065295D02*
X127996666Y-85970057D01*
X127996666Y-85970057D02*
X127949047Y-85922438D01*
X127949047Y-85922438D02*
X127853809Y-85874819D01*
X126663333Y-86208152D02*
X126663333Y-86874819D01*
X127091904Y-86208152D02*
X127091904Y-86731961D01*
X127091904Y-86731961D02*
X127044285Y-86827200D01*
X127044285Y-86827200D02*
X126949047Y-86874819D01*
X126949047Y-86874819D02*
X126806190Y-86874819D01*
X126806190Y-86874819D02*
X126710952Y-86827200D01*
X126710952Y-86827200D02*
X126663333Y-86779580D01*
X166704819Y-117940952D02*
X166704819Y-117369524D01*
X166704819Y-117655238D02*
X165704819Y-117655238D01*
X165704819Y-117655238D02*
X165847676Y-117560000D01*
X165847676Y-117560000D02*
X165942914Y-117464762D01*
X165942914Y-117464762D02*
X165990533Y-117369524D01*
X165704819Y-118560000D02*
X165704819Y-118655238D01*
X165704819Y-118655238D02*
X165752438Y-118750476D01*
X165752438Y-118750476D02*
X165800057Y-118798095D01*
X165800057Y-118798095D02*
X165895295Y-118845714D01*
X165895295Y-118845714D02*
X166085771Y-118893333D01*
X166085771Y-118893333D02*
X166323866Y-118893333D01*
X166323866Y-118893333D02*
X166514342Y-118845714D01*
X166514342Y-118845714D02*
X166609580Y-118798095D01*
X166609580Y-118798095D02*
X166657200Y-118750476D01*
X166657200Y-118750476D02*
X166704819Y-118655238D01*
X166704819Y-118655238D02*
X166704819Y-118560000D01*
X166704819Y-118560000D02*
X166657200Y-118464762D01*
X166657200Y-118464762D02*
X166609580Y-118417143D01*
X166609580Y-118417143D02*
X166514342Y-118369524D01*
X166514342Y-118369524D02*
X166323866Y-118321905D01*
X166323866Y-118321905D02*
X166085771Y-118321905D01*
X166085771Y-118321905D02*
X165895295Y-118369524D01*
X165895295Y-118369524D02*
X165800057Y-118417143D01*
X165800057Y-118417143D02*
X165752438Y-118464762D01*
X165752438Y-118464762D02*
X165704819Y-118560000D01*
X165704819Y-119512381D02*
X165704819Y-119607619D01*
X165704819Y-119607619D02*
X165752438Y-119702857D01*
X165752438Y-119702857D02*
X165800057Y-119750476D01*
X165800057Y-119750476D02*
X165895295Y-119798095D01*
X165895295Y-119798095D02*
X166085771Y-119845714D01*
X166085771Y-119845714D02*
X166323866Y-119845714D01*
X166323866Y-119845714D02*
X166514342Y-119798095D01*
X166514342Y-119798095D02*
X166609580Y-119750476D01*
X166609580Y-119750476D02*
X166657200Y-119702857D01*
X166657200Y-119702857D02*
X166704819Y-119607619D01*
X166704819Y-119607619D02*
X166704819Y-119512381D01*
X166704819Y-119512381D02*
X166657200Y-119417143D01*
X166657200Y-119417143D02*
X166609580Y-119369524D01*
X166609580Y-119369524D02*
X166514342Y-119321905D01*
X166514342Y-119321905D02*
X166323866Y-119274286D01*
X166323866Y-119274286D02*
X166085771Y-119274286D01*
X166085771Y-119274286D02*
X165895295Y-119321905D01*
X165895295Y-119321905D02*
X165800057Y-119369524D01*
X165800057Y-119369524D02*
X165752438Y-119417143D01*
X165752438Y-119417143D02*
X165704819Y-119512381D01*
X166038152Y-120274286D02*
X166704819Y-120274286D01*
X166133390Y-120274286D02*
X166085771Y-120321905D01*
X166085771Y-120321905D02*
X166038152Y-120417143D01*
X166038152Y-120417143D02*
X166038152Y-120560000D01*
X166038152Y-120560000D02*
X166085771Y-120655238D01*
X166085771Y-120655238D02*
X166181009Y-120702857D01*
X166181009Y-120702857D02*
X166704819Y-120702857D01*
X123213808Y-55664819D02*
X122594761Y-55664819D01*
X122594761Y-55664819D02*
X122928094Y-56045771D01*
X122928094Y-56045771D02*
X122785237Y-56045771D01*
X122785237Y-56045771D02*
X122689999Y-56093390D01*
X122689999Y-56093390D02*
X122642380Y-56141009D01*
X122642380Y-56141009D02*
X122594761Y-56236247D01*
X122594761Y-56236247D02*
X122594761Y-56474342D01*
X122594761Y-56474342D02*
X122642380Y-56569580D01*
X122642380Y-56569580D02*
X122689999Y-56617200D01*
X122689999Y-56617200D02*
X122785237Y-56664819D01*
X122785237Y-56664819D02*
X123070951Y-56664819D01*
X123070951Y-56664819D02*
X123166189Y-56617200D01*
X123166189Y-56617200D02*
X123213808Y-56569580D01*
X121737618Y-55664819D02*
X121928094Y-55664819D01*
X121928094Y-55664819D02*
X122023332Y-55712438D01*
X122023332Y-55712438D02*
X122070951Y-55760057D01*
X122070951Y-55760057D02*
X122166189Y-55902914D01*
X122166189Y-55902914D02*
X122213808Y-56093390D01*
X122213808Y-56093390D02*
X122213808Y-56474342D01*
X122213808Y-56474342D02*
X122166189Y-56569580D01*
X122166189Y-56569580D02*
X122118570Y-56617200D01*
X122118570Y-56617200D02*
X122023332Y-56664819D01*
X122023332Y-56664819D02*
X121832856Y-56664819D01*
X121832856Y-56664819D02*
X121737618Y-56617200D01*
X121737618Y-56617200D02*
X121689999Y-56569580D01*
X121689999Y-56569580D02*
X121642380Y-56474342D01*
X121642380Y-56474342D02*
X121642380Y-56236247D01*
X121642380Y-56236247D02*
X121689999Y-56141009D01*
X121689999Y-56141009D02*
X121737618Y-56093390D01*
X121737618Y-56093390D02*
X121832856Y-56045771D01*
X121832856Y-56045771D02*
X122023332Y-56045771D01*
X122023332Y-56045771D02*
X122118570Y-56093390D01*
X122118570Y-56093390D02*
X122166189Y-56141009D01*
X122166189Y-56141009D02*
X122213808Y-56236247D01*
X121213808Y-56569580D02*
X121166189Y-56617200D01*
X121166189Y-56617200D02*
X121213808Y-56664819D01*
X121213808Y-56664819D02*
X121261427Y-56617200D01*
X121261427Y-56617200D02*
X121213808Y-56569580D01*
X121213808Y-56569580D02*
X121213808Y-56664819D01*
X120261428Y-55664819D02*
X120737618Y-55664819D01*
X120737618Y-55664819D02*
X120785237Y-56141009D01*
X120785237Y-56141009D02*
X120737618Y-56093390D01*
X120737618Y-56093390D02*
X120642380Y-56045771D01*
X120642380Y-56045771D02*
X120404285Y-56045771D01*
X120404285Y-56045771D02*
X120309047Y-56093390D01*
X120309047Y-56093390D02*
X120261428Y-56141009D01*
X120261428Y-56141009D02*
X120213809Y-56236247D01*
X120213809Y-56236247D02*
X120213809Y-56474342D01*
X120213809Y-56474342D02*
X120261428Y-56569580D01*
X120261428Y-56569580D02*
X120309047Y-56617200D01*
X120309047Y-56617200D02*
X120404285Y-56664819D01*
X120404285Y-56664819D02*
X120642380Y-56664819D01*
X120642380Y-56664819D02*
X120737618Y-56617200D01*
X120737618Y-56617200D02*
X120785237Y-56569580D01*
X122636666Y-53894819D02*
X123208094Y-53894819D01*
X122922380Y-53894819D02*
X122922380Y-52894819D01*
X122922380Y-52894819D02*
X123017618Y-53037676D01*
X123017618Y-53037676D02*
X123112856Y-53132914D01*
X123112856Y-53132914D02*
X123208094Y-53180533D01*
X121779523Y-53228152D02*
X121779523Y-53894819D01*
X122208094Y-53228152D02*
X122208094Y-53751961D01*
X122208094Y-53751961D02*
X122160475Y-53847200D01*
X122160475Y-53847200D02*
X122065237Y-53894819D01*
X122065237Y-53894819D02*
X121922380Y-53894819D01*
X121922380Y-53894819D02*
X121827142Y-53847200D01*
X121827142Y-53847200D02*
X121779523Y-53799580D01*
X132574285Y-76174819D02*
X132479047Y-76174819D01*
X132479047Y-76174819D02*
X132383809Y-76222438D01*
X132383809Y-76222438D02*
X132336190Y-76270057D01*
X132336190Y-76270057D02*
X132288571Y-76365295D01*
X132288571Y-76365295D02*
X132240952Y-76555771D01*
X132240952Y-76555771D02*
X132240952Y-76793866D01*
X132240952Y-76793866D02*
X132288571Y-76984342D01*
X132288571Y-76984342D02*
X132336190Y-77079580D01*
X132336190Y-77079580D02*
X132383809Y-77127200D01*
X132383809Y-77127200D02*
X132479047Y-77174819D01*
X132479047Y-77174819D02*
X132574285Y-77174819D01*
X132574285Y-77174819D02*
X132669523Y-77127200D01*
X132669523Y-77127200D02*
X132717142Y-77079580D01*
X132717142Y-77079580D02*
X132764761Y-76984342D01*
X132764761Y-76984342D02*
X132812380Y-76793866D01*
X132812380Y-76793866D02*
X132812380Y-76555771D01*
X132812380Y-76555771D02*
X132764761Y-76365295D01*
X132764761Y-76365295D02*
X132717142Y-76270057D01*
X132717142Y-76270057D02*
X132669523Y-76222438D01*
X132669523Y-76222438D02*
X132574285Y-76174819D01*
X131812380Y-77079580D02*
X131764761Y-77127200D01*
X131764761Y-77127200D02*
X131812380Y-77174819D01*
X131812380Y-77174819D02*
X131859999Y-77127200D01*
X131859999Y-77127200D02*
X131812380Y-77079580D01*
X131812380Y-77079580D02*
X131812380Y-77174819D01*
X130812381Y-77174819D02*
X131383809Y-77174819D01*
X131098095Y-77174819D02*
X131098095Y-76174819D01*
X131098095Y-76174819D02*
X131193333Y-76317676D01*
X131193333Y-76317676D02*
X131288571Y-76412914D01*
X131288571Y-76412914D02*
X131383809Y-76460533D01*
X129955238Y-76508152D02*
X129955238Y-77174819D01*
X130383809Y-76508152D02*
X130383809Y-77031961D01*
X130383809Y-77031961D02*
X130336190Y-77127200D01*
X130336190Y-77127200D02*
X130240952Y-77174819D01*
X130240952Y-77174819D02*
X130098095Y-77174819D01*
X130098095Y-77174819D02*
X130002857Y-77127200D01*
X130002857Y-77127200D02*
X129955238Y-77079580D01*
X190166666Y-65094819D02*
X190738094Y-65094819D01*
X190452380Y-65094819D02*
X190452380Y-64094819D01*
X190452380Y-64094819D02*
X190547618Y-64237676D01*
X190547618Y-64237676D02*
X190642856Y-64332914D01*
X190642856Y-64332914D02*
X190738094Y-64380533D01*
X189309523Y-64428152D02*
X189309523Y-65094819D01*
X189738094Y-64428152D02*
X189738094Y-64951961D01*
X189738094Y-64951961D02*
X189690475Y-65047200D01*
X189690475Y-65047200D02*
X189595237Y-65094819D01*
X189595237Y-65094819D02*
X189452380Y-65094819D01*
X189452380Y-65094819D02*
X189357142Y-65047200D01*
X189357142Y-65047200D02*
X189309523Y-64999580D01*
X123099047Y-71464819D02*
X123670475Y-71464819D01*
X123384761Y-71464819D02*
X123384761Y-70464819D01*
X123384761Y-70464819D02*
X123479999Y-70607676D01*
X123479999Y-70607676D02*
X123575237Y-70702914D01*
X123575237Y-70702914D02*
X123670475Y-70750533D01*
X122670475Y-71464819D02*
X122670475Y-70464819D01*
X122575237Y-71083866D02*
X122289523Y-71464819D01*
X122289523Y-70798152D02*
X122670475Y-71179104D01*
X140550475Y-118980057D02*
X140502856Y-118932438D01*
X140502856Y-118932438D02*
X140407618Y-118884819D01*
X140407618Y-118884819D02*
X140169523Y-118884819D01*
X140169523Y-118884819D02*
X140074285Y-118932438D01*
X140074285Y-118932438D02*
X140026666Y-118980057D01*
X140026666Y-118980057D02*
X139979047Y-119075295D01*
X139979047Y-119075295D02*
X139979047Y-119170533D01*
X139979047Y-119170533D02*
X140026666Y-119313390D01*
X140026666Y-119313390D02*
X140598094Y-119884819D01*
X140598094Y-119884819D02*
X139979047Y-119884819D01*
X139598094Y-118980057D02*
X139550475Y-118932438D01*
X139550475Y-118932438D02*
X139455237Y-118884819D01*
X139455237Y-118884819D02*
X139217142Y-118884819D01*
X139217142Y-118884819D02*
X139121904Y-118932438D01*
X139121904Y-118932438D02*
X139074285Y-118980057D01*
X139074285Y-118980057D02*
X139026666Y-119075295D01*
X139026666Y-119075295D02*
X139026666Y-119170533D01*
X139026666Y-119170533D02*
X139074285Y-119313390D01*
X139074285Y-119313390D02*
X139645713Y-119884819D01*
X139645713Y-119884819D02*
X139026666Y-119884819D01*
X138407618Y-118884819D02*
X138312380Y-118884819D01*
X138312380Y-118884819D02*
X138217142Y-118932438D01*
X138217142Y-118932438D02*
X138169523Y-118980057D01*
X138169523Y-118980057D02*
X138121904Y-119075295D01*
X138121904Y-119075295D02*
X138074285Y-119265771D01*
X138074285Y-119265771D02*
X138074285Y-119503866D01*
X138074285Y-119503866D02*
X138121904Y-119694342D01*
X138121904Y-119694342D02*
X138169523Y-119789580D01*
X138169523Y-119789580D02*
X138217142Y-119837200D01*
X138217142Y-119837200D02*
X138312380Y-119884819D01*
X138312380Y-119884819D02*
X138407618Y-119884819D01*
X138407618Y-119884819D02*
X138502856Y-119837200D01*
X138502856Y-119837200D02*
X138550475Y-119789580D01*
X138550475Y-119789580D02*
X138598094Y-119694342D01*
X138598094Y-119694342D02*
X138645713Y-119503866D01*
X138645713Y-119503866D02*
X138645713Y-119265771D01*
X138645713Y-119265771D02*
X138598094Y-119075295D01*
X138598094Y-119075295D02*
X138550475Y-118980057D01*
X138550475Y-118980057D02*
X138502856Y-118932438D01*
X138502856Y-118932438D02*
X138407618Y-118884819D01*
X137217142Y-119218152D02*
X137217142Y-119884819D01*
X137645713Y-119218152D02*
X137645713Y-119741961D01*
X137645713Y-119741961D02*
X137598094Y-119837200D01*
X137598094Y-119837200D02*
X137502856Y-119884819D01*
X137502856Y-119884819D02*
X137359999Y-119884819D01*
X137359999Y-119884819D02*
X137264761Y-119837200D01*
X137264761Y-119837200D02*
X137217142Y-119789580D01*
X123724819Y-46916191D02*
X123724819Y-47535238D01*
X123724819Y-47535238D02*
X124105771Y-47201905D01*
X124105771Y-47201905D02*
X124105771Y-47344762D01*
X124105771Y-47344762D02*
X124153390Y-47440000D01*
X124153390Y-47440000D02*
X124201009Y-47487619D01*
X124201009Y-47487619D02*
X124296247Y-47535238D01*
X124296247Y-47535238D02*
X124534342Y-47535238D01*
X124534342Y-47535238D02*
X124629580Y-47487619D01*
X124629580Y-47487619D02*
X124677200Y-47440000D01*
X124677200Y-47440000D02*
X124724819Y-47344762D01*
X124724819Y-47344762D02*
X124724819Y-47059048D01*
X124724819Y-47059048D02*
X124677200Y-46963810D01*
X124677200Y-46963810D02*
X124629580Y-46916191D01*
X123724819Y-48392381D02*
X123724819Y-48201905D01*
X123724819Y-48201905D02*
X123772438Y-48106667D01*
X123772438Y-48106667D02*
X123820057Y-48059048D01*
X123820057Y-48059048D02*
X123962914Y-47963810D01*
X123962914Y-47963810D02*
X124153390Y-47916191D01*
X124153390Y-47916191D02*
X124534342Y-47916191D01*
X124534342Y-47916191D02*
X124629580Y-47963810D01*
X124629580Y-47963810D02*
X124677200Y-48011429D01*
X124677200Y-48011429D02*
X124724819Y-48106667D01*
X124724819Y-48106667D02*
X124724819Y-48297143D01*
X124724819Y-48297143D02*
X124677200Y-48392381D01*
X124677200Y-48392381D02*
X124629580Y-48440000D01*
X124629580Y-48440000D02*
X124534342Y-48487619D01*
X124534342Y-48487619D02*
X124296247Y-48487619D01*
X124296247Y-48487619D02*
X124201009Y-48440000D01*
X124201009Y-48440000D02*
X124153390Y-48392381D01*
X124153390Y-48392381D02*
X124105771Y-48297143D01*
X124105771Y-48297143D02*
X124105771Y-48106667D01*
X124105771Y-48106667D02*
X124153390Y-48011429D01*
X124153390Y-48011429D02*
X124201009Y-47963810D01*
X124201009Y-47963810D02*
X124296247Y-47916191D01*
X124629580Y-48916191D02*
X124677200Y-48963810D01*
X124677200Y-48963810D02*
X124724819Y-48916191D01*
X124724819Y-48916191D02*
X124677200Y-48868572D01*
X124677200Y-48868572D02*
X124629580Y-48916191D01*
X124629580Y-48916191D02*
X124724819Y-48916191D01*
X123724819Y-49868571D02*
X123724819Y-49392381D01*
X123724819Y-49392381D02*
X124201009Y-49344762D01*
X124201009Y-49344762D02*
X124153390Y-49392381D01*
X124153390Y-49392381D02*
X124105771Y-49487619D01*
X124105771Y-49487619D02*
X124105771Y-49725714D01*
X124105771Y-49725714D02*
X124153390Y-49820952D01*
X124153390Y-49820952D02*
X124201009Y-49868571D01*
X124201009Y-49868571D02*
X124296247Y-49916190D01*
X124296247Y-49916190D02*
X124534342Y-49916190D01*
X124534342Y-49916190D02*
X124629580Y-49868571D01*
X124629580Y-49868571D02*
X124677200Y-49820952D01*
X124677200Y-49820952D02*
X124724819Y-49725714D01*
X124724819Y-49725714D02*
X124724819Y-49487619D01*
X124724819Y-49487619D02*
X124677200Y-49392381D01*
X124677200Y-49392381D02*
X124629580Y-49344762D01*
X148020057Y-127923333D02*
X147972438Y-127970952D01*
X147972438Y-127970952D02*
X147924819Y-128066190D01*
X147924819Y-128066190D02*
X147924819Y-128304285D01*
X147924819Y-128304285D02*
X147972438Y-128399523D01*
X147972438Y-128399523D02*
X148020057Y-128447142D01*
X148020057Y-128447142D02*
X148115295Y-128494761D01*
X148115295Y-128494761D02*
X148210533Y-128494761D01*
X148210533Y-128494761D02*
X148353390Y-128447142D01*
X148353390Y-128447142D02*
X148924819Y-127875714D01*
X148924819Y-127875714D02*
X148924819Y-128494761D01*
X147924819Y-129113809D02*
X147924819Y-129209047D01*
X147924819Y-129209047D02*
X147972438Y-129304285D01*
X147972438Y-129304285D02*
X148020057Y-129351904D01*
X148020057Y-129351904D02*
X148115295Y-129399523D01*
X148115295Y-129399523D02*
X148305771Y-129447142D01*
X148305771Y-129447142D02*
X148543866Y-129447142D01*
X148543866Y-129447142D02*
X148734342Y-129399523D01*
X148734342Y-129399523D02*
X148829580Y-129351904D01*
X148829580Y-129351904D02*
X148877200Y-129304285D01*
X148877200Y-129304285D02*
X148924819Y-129209047D01*
X148924819Y-129209047D02*
X148924819Y-129113809D01*
X148924819Y-129113809D02*
X148877200Y-129018571D01*
X148877200Y-129018571D02*
X148829580Y-128970952D01*
X148829580Y-128970952D02*
X148734342Y-128923333D01*
X148734342Y-128923333D02*
X148543866Y-128875714D01*
X148543866Y-128875714D02*
X148305771Y-128875714D01*
X148305771Y-128875714D02*
X148115295Y-128923333D01*
X148115295Y-128923333D02*
X148020057Y-128970952D01*
X148020057Y-128970952D02*
X147972438Y-129018571D01*
X147972438Y-129018571D02*
X147924819Y-129113809D01*
X148924819Y-129875714D02*
X147924819Y-129875714D01*
X148543866Y-129970952D02*
X148924819Y-130256666D01*
X148258152Y-130256666D02*
X148639104Y-129875714D01*
X124273333Y-110501009D02*
X124606666Y-110501009D01*
X124606666Y-111024819D02*
X124606666Y-110024819D01*
X124606666Y-110024819D02*
X124130476Y-110024819D01*
X123797142Y-110120057D02*
X123749523Y-110072438D01*
X123749523Y-110072438D02*
X123654285Y-110024819D01*
X123654285Y-110024819D02*
X123416190Y-110024819D01*
X123416190Y-110024819D02*
X123320952Y-110072438D01*
X123320952Y-110072438D02*
X123273333Y-110120057D01*
X123273333Y-110120057D02*
X123225714Y-110215295D01*
X123225714Y-110215295D02*
X123225714Y-110310533D01*
X123225714Y-110310533D02*
X123273333Y-110453390D01*
X123273333Y-110453390D02*
X123844761Y-111024819D01*
X123844761Y-111024819D02*
X123225714Y-111024819D01*
X149528152Y-81891428D02*
X150194819Y-81891428D01*
X149147200Y-81653333D02*
X149861485Y-81415238D01*
X149861485Y-81415238D02*
X149861485Y-82034285D01*
X150099580Y-82415238D02*
X150147200Y-82462857D01*
X150147200Y-82462857D02*
X150194819Y-82415238D01*
X150194819Y-82415238D02*
X150147200Y-82367619D01*
X150147200Y-82367619D02*
X150099580Y-82415238D01*
X150099580Y-82415238D02*
X150194819Y-82415238D01*
X149194819Y-82796190D02*
X149194819Y-83462856D01*
X149194819Y-83462856D02*
X150194819Y-83034285D01*
X150194819Y-83843809D02*
X149194819Y-83843809D01*
X149813866Y-83939047D02*
X150194819Y-84224761D01*
X149528152Y-84224761D02*
X149909104Y-83843809D01*
X183661428Y-61210057D02*
X183756666Y-61162438D01*
X183756666Y-61162438D02*
X183851904Y-61067200D01*
X183851904Y-61067200D02*
X183994761Y-60924342D01*
X183994761Y-60924342D02*
X184089999Y-60876723D01*
X184089999Y-60876723D02*
X184185237Y-60876723D01*
X184137618Y-61114819D02*
X184232856Y-61067200D01*
X184232856Y-61067200D02*
X184328094Y-60971961D01*
X184328094Y-60971961D02*
X184375713Y-60781485D01*
X184375713Y-60781485D02*
X184375713Y-60448152D01*
X184375713Y-60448152D02*
X184328094Y-60257676D01*
X184328094Y-60257676D02*
X184232856Y-60162438D01*
X184232856Y-60162438D02*
X184137618Y-60114819D01*
X184137618Y-60114819D02*
X183947142Y-60114819D01*
X183947142Y-60114819D02*
X183851904Y-60162438D01*
X183851904Y-60162438D02*
X183756666Y-60257676D01*
X183756666Y-60257676D02*
X183709047Y-60448152D01*
X183709047Y-60448152D02*
X183709047Y-60781485D01*
X183709047Y-60781485D02*
X183756666Y-60971961D01*
X183756666Y-60971961D02*
X183851904Y-61067200D01*
X183851904Y-61067200D02*
X183947142Y-61114819D01*
X183947142Y-61114819D02*
X184137618Y-61114819D01*
X182756666Y-61114819D02*
X183328094Y-61114819D01*
X183042380Y-61114819D02*
X183042380Y-60114819D01*
X183042380Y-60114819D02*
X183137618Y-60257676D01*
X183137618Y-60257676D02*
X183232856Y-60352914D01*
X183232856Y-60352914D02*
X183328094Y-60400533D01*
X182137618Y-60114819D02*
X182042380Y-60114819D01*
X182042380Y-60114819D02*
X181947142Y-60162438D01*
X181947142Y-60162438D02*
X181899523Y-60210057D01*
X181899523Y-60210057D02*
X181851904Y-60305295D01*
X181851904Y-60305295D02*
X181804285Y-60495771D01*
X181804285Y-60495771D02*
X181804285Y-60733866D01*
X181804285Y-60733866D02*
X181851904Y-60924342D01*
X181851904Y-60924342D02*
X181899523Y-61019580D01*
X181899523Y-61019580D02*
X181947142Y-61067200D01*
X181947142Y-61067200D02*
X182042380Y-61114819D01*
X182042380Y-61114819D02*
X182137618Y-61114819D01*
X182137618Y-61114819D02*
X182232856Y-61067200D01*
X182232856Y-61067200D02*
X182280475Y-61019580D01*
X182280475Y-61019580D02*
X182328094Y-60924342D01*
X182328094Y-60924342D02*
X182375713Y-60733866D01*
X182375713Y-60733866D02*
X182375713Y-60495771D01*
X182375713Y-60495771D02*
X182328094Y-60305295D01*
X182328094Y-60305295D02*
X182280475Y-60210057D01*
X182280475Y-60210057D02*
X182232856Y-60162438D01*
X182232856Y-60162438D02*
X182137618Y-60114819D01*
X124344819Y-78047143D02*
X124344819Y-77475715D01*
X124344819Y-77761429D02*
X123344819Y-77761429D01*
X123344819Y-77761429D02*
X123487676Y-77666191D01*
X123487676Y-77666191D02*
X123582914Y-77570953D01*
X123582914Y-77570953D02*
X123630533Y-77475715D01*
X123344819Y-78666191D02*
X123344819Y-78761429D01*
X123344819Y-78761429D02*
X123392438Y-78856667D01*
X123392438Y-78856667D02*
X123440057Y-78904286D01*
X123440057Y-78904286D02*
X123535295Y-78951905D01*
X123535295Y-78951905D02*
X123725771Y-78999524D01*
X123725771Y-78999524D02*
X123963866Y-78999524D01*
X123963866Y-78999524D02*
X124154342Y-78951905D01*
X124154342Y-78951905D02*
X124249580Y-78904286D01*
X124249580Y-78904286D02*
X124297200Y-78856667D01*
X124297200Y-78856667D02*
X124344819Y-78761429D01*
X124344819Y-78761429D02*
X124344819Y-78666191D01*
X124344819Y-78666191D02*
X124297200Y-78570953D01*
X124297200Y-78570953D02*
X124249580Y-78523334D01*
X124249580Y-78523334D02*
X124154342Y-78475715D01*
X124154342Y-78475715D02*
X123963866Y-78428096D01*
X123963866Y-78428096D02*
X123725771Y-78428096D01*
X123725771Y-78428096D02*
X123535295Y-78475715D01*
X123535295Y-78475715D02*
X123440057Y-78523334D01*
X123440057Y-78523334D02*
X123392438Y-78570953D01*
X123392438Y-78570953D02*
X123344819Y-78666191D01*
X123678152Y-79856667D02*
X124344819Y-79856667D01*
X123678152Y-79428096D02*
X124201961Y-79428096D01*
X124201961Y-79428096D02*
X124297200Y-79475715D01*
X124297200Y-79475715D02*
X124344819Y-79570953D01*
X124344819Y-79570953D02*
X124344819Y-79713810D01*
X124344819Y-79713810D02*
X124297200Y-79809048D01*
X124297200Y-79809048D02*
X124249580Y-79856667D01*
X111766666Y-67804819D02*
X112338094Y-67804819D01*
X112052380Y-67804819D02*
X112052380Y-66804819D01*
X112052380Y-66804819D02*
X112147618Y-66947676D01*
X112147618Y-66947676D02*
X112242856Y-67042914D01*
X112242856Y-67042914D02*
X112338094Y-67090533D01*
X110909523Y-67138152D02*
X110909523Y-67804819D01*
X111338094Y-67138152D02*
X111338094Y-67661961D01*
X111338094Y-67661961D02*
X111290475Y-67757200D01*
X111290475Y-67757200D02*
X111195237Y-67804819D01*
X111195237Y-67804819D02*
X111052380Y-67804819D01*
X111052380Y-67804819D02*
X110957142Y-67757200D01*
X110957142Y-67757200D02*
X110909523Y-67709580D01*
X130915238Y-42040057D02*
X131010476Y-41992438D01*
X131010476Y-41992438D02*
X131105714Y-41897200D01*
X131105714Y-41897200D02*
X131248571Y-41754342D01*
X131248571Y-41754342D02*
X131343809Y-41706723D01*
X131343809Y-41706723D02*
X131439047Y-41706723D01*
X131391428Y-41944819D02*
X131486666Y-41897200D01*
X131486666Y-41897200D02*
X131581904Y-41801961D01*
X131581904Y-41801961D02*
X131629523Y-41611485D01*
X131629523Y-41611485D02*
X131629523Y-41278152D01*
X131629523Y-41278152D02*
X131581904Y-41087676D01*
X131581904Y-41087676D02*
X131486666Y-40992438D01*
X131486666Y-40992438D02*
X131391428Y-40944819D01*
X131391428Y-40944819D02*
X131200952Y-40944819D01*
X131200952Y-40944819D02*
X131105714Y-40992438D01*
X131105714Y-40992438D02*
X131010476Y-41087676D01*
X131010476Y-41087676D02*
X130962857Y-41278152D01*
X130962857Y-41278152D02*
X130962857Y-41611485D01*
X130962857Y-41611485D02*
X131010476Y-41801961D01*
X131010476Y-41801961D02*
X131105714Y-41897200D01*
X131105714Y-41897200D02*
X131200952Y-41944819D01*
X131200952Y-41944819D02*
X131391428Y-41944819D01*
X130391428Y-41373390D02*
X130486666Y-41325771D01*
X130486666Y-41325771D02*
X130534285Y-41278152D01*
X130534285Y-41278152D02*
X130581904Y-41182914D01*
X130581904Y-41182914D02*
X130581904Y-41135295D01*
X130581904Y-41135295D02*
X130534285Y-41040057D01*
X130534285Y-41040057D02*
X130486666Y-40992438D01*
X130486666Y-40992438D02*
X130391428Y-40944819D01*
X130391428Y-40944819D02*
X130200952Y-40944819D01*
X130200952Y-40944819D02*
X130105714Y-40992438D01*
X130105714Y-40992438D02*
X130058095Y-41040057D01*
X130058095Y-41040057D02*
X130010476Y-41135295D01*
X130010476Y-41135295D02*
X130010476Y-41182914D01*
X130010476Y-41182914D02*
X130058095Y-41278152D01*
X130058095Y-41278152D02*
X130105714Y-41325771D01*
X130105714Y-41325771D02*
X130200952Y-41373390D01*
X130200952Y-41373390D02*
X130391428Y-41373390D01*
X130391428Y-41373390D02*
X130486666Y-41421009D01*
X130486666Y-41421009D02*
X130534285Y-41468628D01*
X130534285Y-41468628D02*
X130581904Y-41563866D01*
X130581904Y-41563866D02*
X130581904Y-41754342D01*
X130581904Y-41754342D02*
X130534285Y-41849580D01*
X130534285Y-41849580D02*
X130486666Y-41897200D01*
X130486666Y-41897200D02*
X130391428Y-41944819D01*
X130391428Y-41944819D02*
X130200952Y-41944819D01*
X130200952Y-41944819D02*
X130105714Y-41897200D01*
X130105714Y-41897200D02*
X130058095Y-41849580D01*
X130058095Y-41849580D02*
X130010476Y-41754342D01*
X130010476Y-41754342D02*
X130010476Y-41563866D01*
X130010476Y-41563866D02*
X130058095Y-41468628D01*
X130058095Y-41468628D02*
X130105714Y-41421009D01*
X130105714Y-41421009D02*
X130200952Y-41373390D01*
X152974819Y-128414761D02*
X152974819Y-127843333D01*
X152974819Y-128129047D02*
X151974819Y-128129047D01*
X151974819Y-128129047D02*
X152117676Y-128033809D01*
X152117676Y-128033809D02*
X152212914Y-127938571D01*
X152212914Y-127938571D02*
X152260533Y-127843333D01*
X151974819Y-129033809D02*
X151974819Y-129129047D01*
X151974819Y-129129047D02*
X152022438Y-129224285D01*
X152022438Y-129224285D02*
X152070057Y-129271904D01*
X152070057Y-129271904D02*
X152165295Y-129319523D01*
X152165295Y-129319523D02*
X152355771Y-129367142D01*
X152355771Y-129367142D02*
X152593866Y-129367142D01*
X152593866Y-129367142D02*
X152784342Y-129319523D01*
X152784342Y-129319523D02*
X152879580Y-129271904D01*
X152879580Y-129271904D02*
X152927200Y-129224285D01*
X152927200Y-129224285D02*
X152974819Y-129129047D01*
X152974819Y-129129047D02*
X152974819Y-129033809D01*
X152974819Y-129033809D02*
X152927200Y-128938571D01*
X152927200Y-128938571D02*
X152879580Y-128890952D01*
X152879580Y-128890952D02*
X152784342Y-128843333D01*
X152784342Y-128843333D02*
X152593866Y-128795714D01*
X152593866Y-128795714D02*
X152355771Y-128795714D01*
X152355771Y-128795714D02*
X152165295Y-128843333D01*
X152165295Y-128843333D02*
X152070057Y-128890952D01*
X152070057Y-128890952D02*
X152022438Y-128938571D01*
X152022438Y-128938571D02*
X151974819Y-129033809D01*
X152974819Y-129795714D02*
X151974819Y-129795714D01*
X152593866Y-129890952D02*
X152974819Y-130176666D01*
X152308152Y-130176666D02*
X152689104Y-129795714D01*
X124871428Y-60650057D02*
X124966666Y-60602438D01*
X124966666Y-60602438D02*
X125061904Y-60507200D01*
X125061904Y-60507200D02*
X125204761Y-60364342D01*
X125204761Y-60364342D02*
X125299999Y-60316723D01*
X125299999Y-60316723D02*
X125395237Y-60316723D01*
X125347618Y-60554819D02*
X125442856Y-60507200D01*
X125442856Y-60507200D02*
X125538094Y-60411961D01*
X125538094Y-60411961D02*
X125585713Y-60221485D01*
X125585713Y-60221485D02*
X125585713Y-59888152D01*
X125585713Y-59888152D02*
X125538094Y-59697676D01*
X125538094Y-59697676D02*
X125442856Y-59602438D01*
X125442856Y-59602438D02*
X125347618Y-59554819D01*
X125347618Y-59554819D02*
X125157142Y-59554819D01*
X125157142Y-59554819D02*
X125061904Y-59602438D01*
X125061904Y-59602438D02*
X124966666Y-59697676D01*
X124966666Y-59697676D02*
X124919047Y-59888152D01*
X124919047Y-59888152D02*
X124919047Y-60221485D01*
X124919047Y-60221485D02*
X124966666Y-60411961D01*
X124966666Y-60411961D02*
X125061904Y-60507200D01*
X125061904Y-60507200D02*
X125157142Y-60554819D01*
X125157142Y-60554819D02*
X125347618Y-60554819D01*
X123966666Y-60554819D02*
X124538094Y-60554819D01*
X124252380Y-60554819D02*
X124252380Y-59554819D01*
X124252380Y-59554819D02*
X124347618Y-59697676D01*
X124347618Y-59697676D02*
X124442856Y-59792914D01*
X124442856Y-59792914D02*
X124538094Y-59840533D01*
X123014285Y-60554819D02*
X123585713Y-60554819D01*
X123299999Y-60554819D02*
X123299999Y-59554819D01*
X123299999Y-59554819D02*
X123395237Y-59697676D01*
X123395237Y-59697676D02*
X123490475Y-59792914D01*
X123490475Y-59792914D02*
X123585713Y-59840533D01*
X124586666Y-52004819D02*
X125158094Y-52004819D01*
X124872380Y-52004819D02*
X124872380Y-51004819D01*
X124872380Y-51004819D02*
X124967618Y-51147676D01*
X124967618Y-51147676D02*
X125062856Y-51242914D01*
X125062856Y-51242914D02*
X125158094Y-51290533D01*
X123729523Y-51338152D02*
X123729523Y-52004819D01*
X124158094Y-51338152D02*
X124158094Y-51861961D01*
X124158094Y-51861961D02*
X124110475Y-51957200D01*
X124110475Y-51957200D02*
X124015237Y-52004819D01*
X124015237Y-52004819D02*
X123872380Y-52004819D01*
X123872380Y-52004819D02*
X123777142Y-51957200D01*
X123777142Y-51957200D02*
X123729523Y-51909580D01*
X183259047Y-66544819D02*
X183830475Y-66544819D01*
X183544761Y-66544819D02*
X183544761Y-65544819D01*
X183544761Y-65544819D02*
X183639999Y-65687676D01*
X183639999Y-65687676D02*
X183735237Y-65782914D01*
X183735237Y-65782914D02*
X183830475Y-65830533D01*
X182830475Y-66544819D02*
X182830475Y-65544819D01*
X182735237Y-66163866D02*
X182449523Y-66544819D01*
X182449523Y-65878152D02*
X182830475Y-66259104D01*
X174105238Y-46844819D02*
X174676666Y-46844819D01*
X174390952Y-46844819D02*
X174390952Y-45844819D01*
X174390952Y-45844819D02*
X174486190Y-45987676D01*
X174486190Y-45987676D02*
X174581428Y-46082914D01*
X174581428Y-46082914D02*
X174676666Y-46130533D01*
X173486190Y-45844819D02*
X173390952Y-45844819D01*
X173390952Y-45844819D02*
X173295714Y-45892438D01*
X173295714Y-45892438D02*
X173248095Y-45940057D01*
X173248095Y-45940057D02*
X173200476Y-46035295D01*
X173200476Y-46035295D02*
X173152857Y-46225771D01*
X173152857Y-46225771D02*
X173152857Y-46463866D01*
X173152857Y-46463866D02*
X173200476Y-46654342D01*
X173200476Y-46654342D02*
X173248095Y-46749580D01*
X173248095Y-46749580D02*
X173295714Y-46797200D01*
X173295714Y-46797200D02*
X173390952Y-46844819D01*
X173390952Y-46844819D02*
X173486190Y-46844819D01*
X173486190Y-46844819D02*
X173581428Y-46797200D01*
X173581428Y-46797200D02*
X173629047Y-46749580D01*
X173629047Y-46749580D02*
X173676666Y-46654342D01*
X173676666Y-46654342D02*
X173724285Y-46463866D01*
X173724285Y-46463866D02*
X173724285Y-46225771D01*
X173724285Y-46225771D02*
X173676666Y-46035295D01*
X173676666Y-46035295D02*
X173629047Y-45940057D01*
X173629047Y-45940057D02*
X173581428Y-45892438D01*
X173581428Y-45892438D02*
X173486190Y-45844819D01*
X172724285Y-46844819D02*
X172724285Y-45844819D01*
X172629047Y-46463866D02*
X172343333Y-46844819D01*
X172343333Y-46178152D02*
X172724285Y-46559104D01*
X192293808Y-68374819D02*
X191674761Y-68374819D01*
X191674761Y-68374819D02*
X192008094Y-68755771D01*
X192008094Y-68755771D02*
X191865237Y-68755771D01*
X191865237Y-68755771D02*
X191769999Y-68803390D01*
X191769999Y-68803390D02*
X191722380Y-68851009D01*
X191722380Y-68851009D02*
X191674761Y-68946247D01*
X191674761Y-68946247D02*
X191674761Y-69184342D01*
X191674761Y-69184342D02*
X191722380Y-69279580D01*
X191722380Y-69279580D02*
X191769999Y-69327200D01*
X191769999Y-69327200D02*
X191865237Y-69374819D01*
X191865237Y-69374819D02*
X192150951Y-69374819D01*
X192150951Y-69374819D02*
X192246189Y-69327200D01*
X192246189Y-69327200D02*
X192293808Y-69279580D01*
X190817618Y-68374819D02*
X191008094Y-68374819D01*
X191008094Y-68374819D02*
X191103332Y-68422438D01*
X191103332Y-68422438D02*
X191150951Y-68470057D01*
X191150951Y-68470057D02*
X191246189Y-68612914D01*
X191246189Y-68612914D02*
X191293808Y-68803390D01*
X191293808Y-68803390D02*
X191293808Y-69184342D01*
X191293808Y-69184342D02*
X191246189Y-69279580D01*
X191246189Y-69279580D02*
X191198570Y-69327200D01*
X191198570Y-69327200D02*
X191103332Y-69374819D01*
X191103332Y-69374819D02*
X190912856Y-69374819D01*
X190912856Y-69374819D02*
X190817618Y-69327200D01*
X190817618Y-69327200D02*
X190769999Y-69279580D01*
X190769999Y-69279580D02*
X190722380Y-69184342D01*
X190722380Y-69184342D02*
X190722380Y-68946247D01*
X190722380Y-68946247D02*
X190769999Y-68851009D01*
X190769999Y-68851009D02*
X190817618Y-68803390D01*
X190817618Y-68803390D02*
X190912856Y-68755771D01*
X190912856Y-68755771D02*
X191103332Y-68755771D01*
X191103332Y-68755771D02*
X191198570Y-68803390D01*
X191198570Y-68803390D02*
X191246189Y-68851009D01*
X191246189Y-68851009D02*
X191293808Y-68946247D01*
X190293808Y-69279580D02*
X190246189Y-69327200D01*
X190246189Y-69327200D02*
X190293808Y-69374819D01*
X190293808Y-69374819D02*
X190341427Y-69327200D01*
X190341427Y-69327200D02*
X190293808Y-69279580D01*
X190293808Y-69279580D02*
X190293808Y-69374819D01*
X189341428Y-68374819D02*
X189817618Y-68374819D01*
X189817618Y-68374819D02*
X189865237Y-68851009D01*
X189865237Y-68851009D02*
X189817618Y-68803390D01*
X189817618Y-68803390D02*
X189722380Y-68755771D01*
X189722380Y-68755771D02*
X189484285Y-68755771D01*
X189484285Y-68755771D02*
X189389047Y-68803390D01*
X189389047Y-68803390D02*
X189341428Y-68851009D01*
X189341428Y-68851009D02*
X189293809Y-68946247D01*
X189293809Y-68946247D02*
X189293809Y-69184342D01*
X189293809Y-69184342D02*
X189341428Y-69279580D01*
X189341428Y-69279580D02*
X189389047Y-69327200D01*
X189389047Y-69327200D02*
X189484285Y-69374819D01*
X189484285Y-69374819D02*
X189722380Y-69374819D01*
X189722380Y-69374819D02*
X189817618Y-69327200D01*
X189817618Y-69327200D02*
X189865237Y-69279580D01*
X188413808Y-55674819D02*
X187794761Y-55674819D01*
X187794761Y-55674819D02*
X188128094Y-56055771D01*
X188128094Y-56055771D02*
X187985237Y-56055771D01*
X187985237Y-56055771D02*
X187889999Y-56103390D01*
X187889999Y-56103390D02*
X187842380Y-56151009D01*
X187842380Y-56151009D02*
X187794761Y-56246247D01*
X187794761Y-56246247D02*
X187794761Y-56484342D01*
X187794761Y-56484342D02*
X187842380Y-56579580D01*
X187842380Y-56579580D02*
X187889999Y-56627200D01*
X187889999Y-56627200D02*
X187985237Y-56674819D01*
X187985237Y-56674819D02*
X188270951Y-56674819D01*
X188270951Y-56674819D02*
X188366189Y-56627200D01*
X188366189Y-56627200D02*
X188413808Y-56579580D01*
X186937618Y-55674819D02*
X187128094Y-55674819D01*
X187128094Y-55674819D02*
X187223332Y-55722438D01*
X187223332Y-55722438D02*
X187270951Y-55770057D01*
X187270951Y-55770057D02*
X187366189Y-55912914D01*
X187366189Y-55912914D02*
X187413808Y-56103390D01*
X187413808Y-56103390D02*
X187413808Y-56484342D01*
X187413808Y-56484342D02*
X187366189Y-56579580D01*
X187366189Y-56579580D02*
X187318570Y-56627200D01*
X187318570Y-56627200D02*
X187223332Y-56674819D01*
X187223332Y-56674819D02*
X187032856Y-56674819D01*
X187032856Y-56674819D02*
X186937618Y-56627200D01*
X186937618Y-56627200D02*
X186889999Y-56579580D01*
X186889999Y-56579580D02*
X186842380Y-56484342D01*
X186842380Y-56484342D02*
X186842380Y-56246247D01*
X186842380Y-56246247D02*
X186889999Y-56151009D01*
X186889999Y-56151009D02*
X186937618Y-56103390D01*
X186937618Y-56103390D02*
X187032856Y-56055771D01*
X187032856Y-56055771D02*
X187223332Y-56055771D01*
X187223332Y-56055771D02*
X187318570Y-56103390D01*
X187318570Y-56103390D02*
X187366189Y-56151009D01*
X187366189Y-56151009D02*
X187413808Y-56246247D01*
X186413808Y-56579580D02*
X186366189Y-56627200D01*
X186366189Y-56627200D02*
X186413808Y-56674819D01*
X186413808Y-56674819D02*
X186461427Y-56627200D01*
X186461427Y-56627200D02*
X186413808Y-56579580D01*
X186413808Y-56579580D02*
X186413808Y-56674819D01*
X185461428Y-55674819D02*
X185937618Y-55674819D01*
X185937618Y-55674819D02*
X185985237Y-56151009D01*
X185985237Y-56151009D02*
X185937618Y-56103390D01*
X185937618Y-56103390D02*
X185842380Y-56055771D01*
X185842380Y-56055771D02*
X185604285Y-56055771D01*
X185604285Y-56055771D02*
X185509047Y-56103390D01*
X185509047Y-56103390D02*
X185461428Y-56151009D01*
X185461428Y-56151009D02*
X185413809Y-56246247D01*
X185413809Y-56246247D02*
X185413809Y-56484342D01*
X185413809Y-56484342D02*
X185461428Y-56579580D01*
X185461428Y-56579580D02*
X185509047Y-56627200D01*
X185509047Y-56627200D02*
X185604285Y-56674819D01*
X185604285Y-56674819D02*
X185842380Y-56674819D01*
X185842380Y-56674819D02*
X185937618Y-56627200D01*
X185937618Y-56627200D02*
X185985237Y-56579580D01*
X158172502Y-29500708D02*
X158576563Y-29096647D01*
X158374533Y-29298678D02*
X157667426Y-28591571D01*
X157667426Y-28591571D02*
X157835785Y-28625243D01*
X157835785Y-28625243D02*
X157970472Y-28625243D01*
X157970472Y-28625243D02*
X158071487Y-28591571D01*
X157027663Y-29231334D02*
X156960319Y-29298678D01*
X156960319Y-29298678D02*
X156926647Y-29399693D01*
X156926647Y-29399693D02*
X156926647Y-29467036D01*
X156926647Y-29467036D02*
X156960319Y-29568052D01*
X156960319Y-29568052D02*
X157061334Y-29736410D01*
X157061334Y-29736410D02*
X157229693Y-29904769D01*
X157229693Y-29904769D02*
X157398052Y-30005784D01*
X157398052Y-30005784D02*
X157499067Y-30039456D01*
X157499067Y-30039456D02*
X157566411Y-30039456D01*
X157566411Y-30039456D02*
X157667426Y-30005784D01*
X157667426Y-30005784D02*
X157734769Y-29938441D01*
X157734769Y-29938441D02*
X157768441Y-29837426D01*
X157768441Y-29837426D02*
X157768441Y-29770082D01*
X157768441Y-29770082D02*
X157734769Y-29669067D01*
X157734769Y-29669067D02*
X157633754Y-29500708D01*
X157633754Y-29500708D02*
X157465395Y-29332349D01*
X157465395Y-29332349D02*
X157297037Y-29231334D01*
X157297037Y-29231334D02*
X157196021Y-29197662D01*
X157196021Y-29197662D02*
X157128678Y-29197662D01*
X157128678Y-29197662D02*
X157027663Y-29231334D01*
X157196021Y-30477189D02*
X156488914Y-29770082D01*
X156859304Y-30275158D02*
X156926647Y-30746563D01*
X156455243Y-30275158D02*
X156993991Y-30275158D01*
%TO.C,C3*%
D11*
X182343767Y-50530000D02*
X182051233Y-50530000D01*
X182343767Y-51550000D02*
X182051233Y-51550000D01*
%TO.C,C22*%
X166546267Y-99020000D02*
X166253733Y-99020000D01*
X166546267Y-100040000D02*
X166253733Y-100040000D01*
%TO.C,C17*%
X187650000Y-124048767D02*
X187650000Y-123756233D01*
X188670000Y-124048767D02*
X188670000Y-123756233D01*
%TO.C,C11*%
X182353767Y-52600000D02*
X182061233Y-52600000D01*
X182353767Y-53620000D02*
X182061233Y-53620000D01*
%TO.C,R10*%
X188017224Y-73667500D02*
X187507776Y-73667500D01*
X188017224Y-74712500D02*
X187507776Y-74712500D01*
%TO.C,Q12*%
X113970000Y-71450000D02*
X113970000Y-72970000D01*
X113970000Y-72970000D02*
X114970000Y-72970000D01*
X114020000Y-71450000D02*
X113970000Y-71450000D01*
X115920000Y-71450000D02*
X115140000Y-71450000D01*
X116090000Y-72970000D02*
X117090000Y-72970000D01*
X117090000Y-71450000D02*
X117040000Y-71450000D01*
X117090000Y-72970000D02*
X117090000Y-71450000D01*
X115480000Y-71150000D02*
X115150000Y-70910000D01*
X115480000Y-70670000D01*
X115480000Y-71150000D01*
G36*
X115480000Y-71150000D02*
G01*
X115150000Y-70910000D01*
X115480000Y-70670000D01*
X115480000Y-71150000D01*
G37*
%TO.C,R11*%
X147960420Y-31680654D02*
X148320654Y-31320420D01*
X148699346Y-32419580D02*
X149059580Y-32059346D01*
%TO.C,C8*%
X150050000Y-125473733D02*
X150050000Y-125766267D01*
X151070000Y-125473733D02*
X151070000Y-125766267D01*
%TO.C,R38*%
X118277500Y-70740276D02*
X118277500Y-71249724D01*
X119322500Y-70740276D02*
X119322500Y-71249724D01*
%TO.C,R3*%
X173315276Y-123217500D02*
X173824724Y-123217500D01*
X173315276Y-124262500D02*
X173824724Y-124262500D01*
%TO.C,Q9*%
X175000000Y-43250000D02*
X175000000Y-44770000D01*
X175000000Y-44770000D02*
X175050000Y-44770000D01*
X176000000Y-43250000D02*
X175000000Y-43250000D01*
X176170000Y-44770000D02*
X176950000Y-44770000D01*
X178070000Y-44770000D02*
X178120000Y-44770000D01*
X178120000Y-43250000D02*
X177120000Y-43250000D01*
X178120000Y-44770000D02*
X178120000Y-43250000D01*
X176940000Y-45310000D02*
X176610000Y-45550000D01*
X176610000Y-45070000D01*
X176940000Y-45310000D01*
G36*
X176940000Y-45310000D02*
G01*
X176610000Y-45550000D01*
X176610000Y-45070000D01*
X176940000Y-45310000D01*
G37*
%TO.C,R34*%
X132970276Y-47957500D02*
X133479724Y-47957500D01*
X132970276Y-49002500D02*
X133479724Y-49002500D01*
%TO.C,Q2*%
X193500000Y-71080000D02*
X193500000Y-72600000D01*
X193500000Y-72600000D02*
X194500000Y-72600000D01*
X193550000Y-71080000D02*
X193500000Y-71080000D01*
X195450000Y-71080000D02*
X194670000Y-71080000D01*
X195620000Y-72600000D02*
X196620000Y-72600000D01*
X196620000Y-71080000D02*
X196570000Y-71080000D01*
X196620000Y-72600000D02*
X196620000Y-71080000D01*
X195010000Y-70780000D02*
X194680000Y-70540000D01*
X195010000Y-70300000D01*
X195010000Y-70780000D01*
G36*
X195010000Y-70780000D02*
G01*
X194680000Y-70540000D01*
X195010000Y-70300000D01*
X195010000Y-70780000D01*
G37*
%TO.C,R9*%
X186734724Y-70447500D02*
X186225276Y-70447500D01*
X186734724Y-71492500D02*
X186225276Y-71492500D01*
%TO.C,F3*%
X121910000Y-63333748D02*
X121910000Y-66106252D01*
X125330000Y-63333748D02*
X125330000Y-66106252D01*
%TO.C,C16*%
X187700000Y-128293733D02*
X187700000Y-128586267D01*
X188720000Y-128293733D02*
X188720000Y-128586267D01*
%TO.C,D2*%
X146280000Y-115400000D02*
X153290000Y-115400000D01*
X146280000Y-118700000D02*
X146280000Y-115400000D01*
X146280000Y-118700000D02*
X153290000Y-118700000D01*
%TO.C,R36*%
X180594724Y-63507500D02*
X180085276Y-63507500D01*
X180594724Y-64552500D02*
X180085276Y-64552500D01*
%TO.C,R31*%
X118885276Y-73237500D02*
X119394724Y-73237500D01*
X118885276Y-74282500D02*
X119394724Y-74282500D01*
%TO.C,R2*%
X185557500Y-124174724D02*
X185557500Y-123665276D01*
X186602500Y-124174724D02*
X186602500Y-123665276D01*
%TO.C,R37*%
X128365277Y-65567500D02*
X128874725Y-65567500D01*
X128365277Y-66612500D02*
X128874725Y-66612500D01*
%TO.C,R13*%
X175395276Y-70362500D02*
X175904724Y-70362500D01*
X175395276Y-69317500D02*
X175904724Y-69317500D01*
%TO.C,R4*%
X188860000Y-88290000D02*
X188860000Y-88400000D01*
X188860000Y-100650000D02*
X188860000Y-100540000D01*
X186490000Y-88400000D02*
X191230000Y-88400000D01*
X191230000Y-100540000D01*
X186490000Y-100540000D01*
X186490000Y-88400000D01*
%TO.C,C21*%
X140156267Y-100560000D02*
X139863733Y-100560000D01*
X140156267Y-101580000D02*
X139863733Y-101580000D01*
%TO.C,R21*%
X128340276Y-67737500D02*
X128849724Y-67737500D01*
X128340276Y-68782500D02*
X128849724Y-68782500D01*
%TO.C,R24*%
X141567500Y-79357224D02*
X141567500Y-78847776D01*
X142612500Y-79357224D02*
X142612500Y-78847776D01*
%TO.C,R33*%
X185587500Y-128165276D02*
X185587500Y-128674724D01*
X186632500Y-128165276D02*
X186632500Y-128674724D01*
%TO.C,R32*%
X186225276Y-66687500D02*
X186734724Y-66687500D01*
X186225276Y-67732500D02*
X186734724Y-67732500D01*
%TO.C,R15*%
X133005276Y-50247500D02*
X133514724Y-50247500D01*
X133005276Y-51292500D02*
X133514724Y-51292500D01*
%TO.C,R23*%
X144087500Y-79314724D02*
X144087500Y-78805276D01*
X145132500Y-79314724D02*
X145132500Y-78805276D01*
%TO.C,R5*%
X146717500Y-79334724D02*
X146717500Y-78825276D01*
X147762500Y-79334724D02*
X147762500Y-78825276D01*
%TO.C,R14*%
X133995276Y-69337500D02*
X134504724Y-69337500D01*
X133995276Y-70382500D02*
X134504724Y-70382500D01*
%TO.C,C4*%
X123730000Y-84613733D02*
X123730000Y-84906267D01*
X124750000Y-84613733D02*
X124750000Y-84906267D01*
%TO.C,R17*%
X174074724Y-49837500D02*
X173565276Y-49837500D01*
X174074724Y-50882500D02*
X173565276Y-50882500D01*
%TO.C,R18*%
X180393737Y-46445000D02*
X178946263Y-46445000D01*
X180393737Y-49155000D02*
X178946263Y-49155000D01*
%TO.C,R29*%
X111363737Y-72115000D02*
X109916263Y-72115000D01*
X111363737Y-74825000D02*
X109916263Y-74825000D01*
%TO.C,C5*%
X127138748Y-82540000D02*
X128561252Y-82540000D01*
X127138748Y-85260000D02*
X128561252Y-85260000D01*
%TO.C,C9*%
X165740000Y-122999544D02*
X165740000Y-122707010D01*
X166760000Y-122999544D02*
X166760000Y-122707010D01*
%TO.C,R22*%
X125706263Y-54845000D02*
X127153737Y-54845000D01*
X125706263Y-57555000D02*
X127153737Y-57555000D01*
%TO.C,C12*%
X126046267Y-53000000D02*
X125753733Y-53000000D01*
X126046267Y-54020000D02*
X125753733Y-54020000D01*
%TO.C,C6*%
X131180000Y-78963733D02*
X131180000Y-79256267D01*
X132200000Y-78963733D02*
X132200000Y-79256267D01*
%TO.C,C1*%
X189873733Y-65810000D02*
X190166267Y-65810000D01*
X189873733Y-66830000D02*
X190166267Y-66830000D01*
%TO.C,R28*%
X120427500Y-70745276D02*
X120427500Y-71254724D01*
X121472500Y-70745276D02*
X121472500Y-71254724D01*
%TO.C,C10*%
X134440000Y-123228000D02*
X134440000Y-124032000D01*
X134480000Y-122997000D02*
X134480000Y-124263000D01*
X134520000Y-122829000D02*
X134520000Y-124431000D01*
X134560000Y-122691000D02*
X134560000Y-124569000D01*
X134600000Y-122572000D02*
X134600000Y-124688000D01*
X134640000Y-122465000D02*
X134640000Y-124795000D01*
X134680000Y-122369000D02*
X134680000Y-124891000D01*
X134720000Y-122280000D02*
X134720000Y-124980000D01*
X134760000Y-122198000D02*
X134760000Y-125062000D01*
X134800000Y-122121000D02*
X134800000Y-125139000D01*
X134840000Y-122049000D02*
X134840000Y-125211000D01*
X134880000Y-121981000D02*
X134880000Y-125279000D01*
X134920000Y-121916000D02*
X134920000Y-125344000D01*
X134960000Y-121855000D02*
X134960000Y-125405000D01*
X135000000Y-121796000D02*
X135000000Y-125464000D01*
X135040000Y-121740000D02*
X135040000Y-125520000D01*
X135080000Y-121687000D02*
X135080000Y-125573000D01*
X135120000Y-121635000D02*
X135120000Y-125625000D01*
X135160000Y-121586000D02*
X135160000Y-125674000D01*
X135200000Y-121539000D02*
X135200000Y-125721000D01*
X135240000Y-121493000D02*
X135240000Y-125767000D01*
X135280000Y-121449000D02*
X135280000Y-125811000D01*
X135320000Y-121407000D02*
X135320000Y-125853000D01*
X135360000Y-121366000D02*
X135360000Y-125894000D01*
X135400000Y-121326000D02*
X135400000Y-122590000D01*
X135400000Y-124670000D02*
X135400000Y-125934000D01*
X135440000Y-121288000D02*
X135440000Y-122590000D01*
X135440000Y-124670000D02*
X135440000Y-125972000D01*
X135480000Y-121251000D02*
X135480000Y-122590000D01*
X135480000Y-124670000D02*
X135480000Y-126009000D01*
X135520000Y-121215000D02*
X135520000Y-122590000D01*
X135520000Y-124670000D02*
X135520000Y-126045000D01*
X135560000Y-121180000D02*
X135560000Y-122590000D01*
X135560000Y-124670000D02*
X135560000Y-126080000D01*
X135600000Y-121147000D02*
X135600000Y-122590000D01*
X135600000Y-124670000D02*
X135600000Y-126113000D01*
X135640000Y-121114000D02*
X135640000Y-122590000D01*
X135640000Y-124670000D02*
X135640000Y-126146000D01*
X135680000Y-121083000D02*
X135680000Y-122590000D01*
X135680000Y-124670000D02*
X135680000Y-126177000D01*
X135720000Y-121053000D02*
X135720000Y-122590000D01*
X135720000Y-124670000D02*
X135720000Y-126207000D01*
X135760000Y-121023000D02*
X135760000Y-122590000D01*
X135760000Y-124670000D02*
X135760000Y-126237000D01*
X135800000Y-120994000D02*
X135800000Y-122590000D01*
X135800000Y-124670000D02*
X135800000Y-126266000D01*
X135840000Y-120967000D02*
X135840000Y-122590000D01*
X135840000Y-124670000D02*
X135840000Y-126293000D01*
X135880000Y-120940000D02*
X135880000Y-122590000D01*
X135880000Y-124670000D02*
X135880000Y-126320000D01*
X135920000Y-120914000D02*
X135920000Y-122590000D01*
X135920000Y-124670000D02*
X135920000Y-126346000D01*
X135960000Y-120889000D02*
X135960000Y-122590000D01*
X135960000Y-124670000D02*
X135960000Y-126371000D01*
X136000000Y-120865000D02*
X136000000Y-122590000D01*
X136000000Y-124670000D02*
X136000000Y-126395000D01*
X136040000Y-120841000D02*
X136040000Y-122590000D01*
X136040000Y-124670000D02*
X136040000Y-126419000D01*
X136080000Y-120818000D02*
X136080000Y-122590000D01*
X136080000Y-124670000D02*
X136080000Y-126442000D01*
X136120000Y-120796000D02*
X136120000Y-122590000D01*
X136120000Y-124670000D02*
X136120000Y-126464000D01*
X136160000Y-120775000D02*
X136160000Y-122590000D01*
X136160000Y-124670000D02*
X136160000Y-126485000D01*
X136200000Y-120754000D02*
X136200000Y-122590000D01*
X136200000Y-124670000D02*
X136200000Y-126506000D01*
X136240000Y-120734000D02*
X136240000Y-122590000D01*
X136240000Y-124670000D02*
X136240000Y-126526000D01*
X136280000Y-120715000D02*
X136280000Y-122590000D01*
X136280000Y-124670000D02*
X136280000Y-126545000D01*
X136320000Y-120696000D02*
X136320000Y-122590000D01*
X136320000Y-124670000D02*
X136320000Y-126564000D01*
X136360000Y-120678000D02*
X136360000Y-122590000D01*
X136360000Y-124670000D02*
X136360000Y-126582000D01*
X136400000Y-120661000D02*
X136400000Y-122590000D01*
X136400000Y-124670000D02*
X136400000Y-126599000D01*
X136440000Y-120644000D02*
X136440000Y-122590000D01*
X136440000Y-124670000D02*
X136440000Y-126616000D01*
X136480000Y-120628000D02*
X136480000Y-122590000D01*
X136480000Y-124670000D02*
X136480000Y-126632000D01*
X136520000Y-120613000D02*
X136520000Y-122590000D01*
X136520000Y-124670000D02*
X136520000Y-126647000D01*
X136560000Y-120598000D02*
X136560000Y-122590000D01*
X136560000Y-124670000D02*
X136560000Y-126662000D01*
X136600000Y-120583000D02*
X136600000Y-122590000D01*
X136600000Y-124670000D02*
X136600000Y-126677000D01*
X136640000Y-120570000D02*
X136640000Y-122590000D01*
X136640000Y-124670000D02*
X136640000Y-126690000D01*
X136680000Y-120557000D02*
X136680000Y-122590000D01*
X136680000Y-124670000D02*
X136680000Y-126703000D01*
X136720000Y-120544000D02*
X136720000Y-122590000D01*
X136720000Y-124670000D02*
X136720000Y-126716000D01*
X136760000Y-120532000D02*
X136760000Y-122590000D01*
X136760000Y-124670000D02*
X136760000Y-126728000D01*
X136800000Y-120521000D02*
X136800000Y-122590000D01*
X136800000Y-124670000D02*
X136800000Y-126739000D01*
X136840000Y-120510000D02*
X136840000Y-122590000D01*
X136840000Y-124670000D02*
X136840000Y-126750000D01*
X136880000Y-120499000D02*
X136880000Y-122590000D01*
X136880000Y-124670000D02*
X136880000Y-126761000D01*
X136920000Y-120490000D02*
X136920000Y-122590000D01*
X136920000Y-124670000D02*
X136920000Y-126770000D01*
X136960000Y-120480000D02*
X136960000Y-122590000D01*
X136960000Y-124670000D02*
X136960000Y-126780000D01*
X137000000Y-120471000D02*
X137000000Y-122590000D01*
X137000000Y-124670000D02*
X137000000Y-126789000D01*
X137040000Y-120463000D02*
X137040000Y-122590000D01*
X137040000Y-124670000D02*
X137040000Y-126797000D01*
X137080000Y-120456000D02*
X137080000Y-122590000D01*
X137080000Y-124670000D02*
X137080000Y-126804000D01*
X137120000Y-120448000D02*
X137120000Y-122590000D01*
X137120000Y-124670000D02*
X137120000Y-126812000D01*
X137160000Y-120442000D02*
X137160000Y-122590000D01*
X137160000Y-124670000D02*
X137160000Y-126818000D01*
X137200000Y-120435000D02*
X137200000Y-122590000D01*
X137200000Y-124670000D02*
X137200000Y-126825000D01*
X137240000Y-120430000D02*
X137240000Y-122590000D01*
X137240000Y-124670000D02*
X137240000Y-126830000D01*
X137280000Y-120425000D02*
X137280000Y-122590000D01*
X137280000Y-124670000D02*
X137280000Y-126835000D01*
X137320000Y-120420000D02*
X137320000Y-122590000D01*
X137320000Y-124670000D02*
X137320000Y-126840000D01*
X137360000Y-120416000D02*
X137360000Y-122590000D01*
X137360000Y-124670000D02*
X137360000Y-126844000D01*
X137400000Y-120412000D02*
X137400000Y-122590000D01*
X137400000Y-124670000D02*
X137400000Y-126848000D01*
X137440000Y-120409000D02*
X137440000Y-122590000D01*
X137440000Y-124670000D02*
X137440000Y-126851000D01*
X137480000Y-120406000D02*
X137480000Y-126854000D01*
X137520000Y-120404000D02*
X137520000Y-126856000D01*
X137560000Y-120402000D02*
X137560000Y-126858000D01*
X137600000Y-120401000D02*
X137600000Y-126859000D01*
X137640000Y-120400000D02*
X137640000Y-126860000D01*
X137680000Y-120400000D02*
X137680000Y-126860000D01*
X140865241Y-121476000D02*
X140865241Y-122106000D01*
X141180241Y-121791000D02*
X140550241Y-121791000D01*
X140950000Y-123630000D02*
G75*
G02*
X134410000Y-123630000I-3270000J0D01*
G01*
X134410000Y-123630000D02*
G75*
G02*
X140950000Y-123630000I3270000J0D01*
G01*
%TO.C,R16*%
X126991262Y-47035000D02*
X128438736Y-47035000D01*
X126991262Y-49745000D02*
X128438736Y-49745000D01*
%TO.C,R6*%
X147926681Y-125879724D02*
X147926681Y-125370276D01*
X148971681Y-125879724D02*
X148971681Y-125370276D01*
%TO.C,F2*%
X115325000Y-115400000D02*
X115325000Y-105680000D01*
X115940000Y-105680000D02*
X115325000Y-105680000D01*
X115940000Y-115400000D02*
X115325000Y-115400000D01*
X121640000Y-105680000D02*
X122255000Y-105680000D01*
X121640000Y-115400000D02*
X122255000Y-115400000D01*
X122255000Y-115400000D02*
X122255000Y-105680000D01*
%TO.C,R30*%
X149207500Y-79434724D02*
X149207500Y-78925276D01*
X150252500Y-79434724D02*
X150252500Y-78925276D01*
%TO.C,Q10*%
X178170000Y-59880000D02*
X178170000Y-61400000D01*
X178170000Y-61400000D02*
X178220000Y-61400000D01*
X179170000Y-59880000D02*
X178170000Y-59880000D01*
X179340000Y-61400000D02*
X180120000Y-61400000D01*
X181240000Y-61400000D02*
X181290000Y-61400000D01*
X181290000Y-59880000D02*
X180290000Y-59880000D01*
X181290000Y-61400000D02*
X181290000Y-59880000D01*
X180110000Y-61940000D02*
X179780000Y-62180000D01*
X179780000Y-61700000D01*
X180110000Y-61940000D01*
G36*
X180110000Y-61940000D02*
G01*
X179780000Y-62180000D01*
X179780000Y-61700000D01*
X180110000Y-61940000D01*
G37*
%TO.C,C7*%
X127921252Y-77320000D02*
X126498748Y-77320000D01*
X127921252Y-80040000D02*
X126498748Y-80040000D01*
%TO.C,C13*%
X111716267Y-68530000D02*
X111423733Y-68530000D01*
X111716267Y-69550000D02*
X111423733Y-69550000D01*
%TO.C,Q8*%
X129210000Y-43990000D02*
X129210000Y-45510000D01*
X129210000Y-45510000D02*
X129260000Y-45510000D01*
X130210000Y-43990000D02*
X129210000Y-43990000D01*
X130380000Y-45510000D02*
X131160000Y-45510000D01*
X132280000Y-45510000D02*
X132330000Y-45510000D01*
X132330000Y-43990000D02*
X131330000Y-43990000D01*
X132330000Y-45510000D02*
X132330000Y-43990000D01*
X131150000Y-46050000D02*
X130820000Y-46290000D01*
X130820000Y-45810000D01*
X131150000Y-46050000D01*
G36*
X131150000Y-46050000D02*
G01*
X130820000Y-46290000D01*
X130820000Y-45810000D01*
X131150000Y-46050000D01*
G37*
%TO.C,R7*%
X152007500Y-125879722D02*
X152007500Y-125370274D01*
X153052500Y-125879722D02*
X153052500Y-125370274D01*
%TO.C,Q11*%
X126032499Y-59327501D02*
X126032499Y-60847501D01*
X126032499Y-60847501D02*
X126082499Y-60847501D01*
X127032499Y-59327501D02*
X126032499Y-59327501D01*
X127202499Y-60847501D02*
X127982499Y-60847501D01*
X129102499Y-60847501D02*
X129152499Y-60847501D01*
X129152499Y-59327501D02*
X128152499Y-59327501D01*
X129152499Y-60847501D02*
X129152499Y-59327501D01*
X127972499Y-61387501D02*
X127642499Y-61627501D01*
X127642499Y-61147501D01*
X127972499Y-61387501D01*
G36*
X127972499Y-61387501D02*
G01*
X127642499Y-61627501D01*
X127642499Y-61147501D01*
X127972499Y-61387501D01*
G37*
%TO.C,C2*%
X127503733Y-51090000D02*
X127796267Y-51090000D01*
X127503733Y-52110000D02*
X127796267Y-52110000D01*
%TO.C,R19*%
X180544724Y-65537500D02*
X180035276Y-65537500D01*
X180544724Y-66582500D02*
X180035276Y-66582500D01*
%TO.C,R35*%
X174104724Y-47567500D02*
X173595276Y-47567500D01*
X174104724Y-48612500D02*
X173595276Y-48612500D01*
%TO.C,R8*%
X189986263Y-70355000D02*
X191433737Y-70355000D01*
X189986263Y-73065000D02*
X191433737Y-73065000D01*
%TO.C,R20*%
X183043737Y-54815000D02*
X181596263Y-54815000D01*
X183043737Y-57525000D02*
X181596263Y-57525000D01*
%TO.C,R12*%
X159510654Y-32439580D02*
X159150420Y-32079346D01*
X160249580Y-31700654D02*
X159889346Y-31340420D01*
%TD*%
M02*
