%TF.GenerationSoftware,KiCad,Pcbnew,10.0.1*%
%TF.CreationDate,2026-05-27T16:14:29+05:30*%
%TF.ProjectId,HSM_Project,48534d5f-5072-46f6-9a65-63742e6b6963,rev?*%
%TF.SameCoordinates,Original*%
%TF.FileFunction,Profile,NP*%
%FSLAX46Y46*%
G04 Gerber Fmt 4.6, Leading zero omitted, Abs format (unit mm)*
G04 Created by KiCad (PCBNEW 10.0.1) date 2026-05-27 16:14:29*
%MOMM*%
%LPD*%
G01*
G04 APERTURE LIST*
%TA.AperFunction,Profile*%
%ADD10C,0.050000*%
%TD*%
%ADD11C,0.050000*%
G04 APERTURE END LIST*
D10*
X102950000Y-80030000D02*
X102950000Y-92020000D01*
X102950000Y-92020000D02*
X113160000Y-92000000D01*
X113160000Y-131290000D02*
X113160000Y-92000000D01*
X113160000Y-131290000D02*
X143250000Y-131290000D01*
D11*
X139660000Y-33160000D02*
X139627169Y-33167336D01*
X139594357Y-33174688D01*
X139561561Y-33182057D01*
X139528784Y-33189442D01*
X139496022Y-33196844D01*
X139463280Y-33204262D01*
X139430553Y-33211697D01*
X139397846Y-33219149D01*
X139365154Y-33226617D01*
X139332481Y-33234101D01*
X139299824Y-33241603D01*
X139267186Y-33249120D01*
X139234563Y-33256655D01*
X139201960Y-33264205D01*
X139169372Y-33271773D01*
X139136804Y-33279356D01*
X139104250Y-33286957D01*
X139071716Y-33294573D01*
X139039198Y-33302207D01*
X139006698Y-33309856D01*
X138974214Y-33317523D01*
X138941749Y-33325205D01*
X138909299Y-33332905D01*
X138876869Y-33340620D01*
X138844454Y-33348352D01*
X138812058Y-33356100D01*
X138779677Y-33363866D01*
X138747315Y-33371647D01*
X138714969Y-33379445D01*
X138682642Y-33387259D01*
X138650330Y-33395090D01*
X138618037Y-33402936D01*
X138585759Y-33410800D01*
X138553501Y-33418680D01*
X138521257Y-33426576D01*
X138489033Y-33434489D01*
X138456824Y-33442418D01*
X138424634Y-33450363D01*
X138392459Y-33458325D01*
X138360303Y-33466303D01*
X138328162Y-33474298D01*
X138296041Y-33482308D01*
X138263934Y-33490336D01*
X138231847Y-33498379D01*
X138199774Y-33506439D01*
X138167721Y-33514515D01*
X138135682Y-33522608D01*
X138103663Y-33530716D01*
X138071659Y-33538842D01*
X138039674Y-33546983D01*
X138007703Y-33555141D01*
X137975752Y-33563315D01*
X137943815Y-33571506D01*
X137911898Y-33579712D01*
X137879996Y-33587935D01*
X137848112Y-33596174D01*
X137816244Y-33604430D01*
X137784394Y-33612701D01*
X137752560Y-33620990D01*
X137720744Y-33629294D01*
X137688943Y-33637614D01*
X137657161Y-33645951D01*
X137625394Y-33654304D01*
X137593646Y-33662673D01*
X137561913Y-33671059D01*
X137530199Y-33679460D01*
X137498499Y-33687878D01*
X137466818Y-33696312D01*
X137435152Y-33704763D01*
X137403506Y-33713229D01*
X137371873Y-33721712D01*
X137340260Y-33730211D01*
X137308661Y-33738726D01*
X137277082Y-33747257D01*
X137245517Y-33755805D01*
X137213971Y-33764368D01*
X137182439Y-33772948D01*
X137150927Y-33781544D01*
X137119429Y-33790156D01*
X137087950Y-33798784D01*
X137056485Y-33807429D01*
X137025040Y-33816089D01*
X136993609Y-33824766D01*
X136962197Y-33833458D01*
X136930799Y-33842167D01*
X136899420Y-33850892D01*
X136868056Y-33859634D01*
X136836711Y-33868390D01*
X136805380Y-33877164D01*
X136774068Y-33885953D01*
X136742770Y-33894759D01*
X136711492Y-33903580D01*
X136680227Y-33912418D01*
X136648982Y-33921272D01*
X136617751Y-33930142D01*
X136586539Y-33939027D01*
X136555340Y-33947930D01*
X136524162Y-33956847D01*
X136492997Y-33965782D01*
X136461851Y-33974731D01*
X136430719Y-33983698D01*
X136399607Y-33992680D01*
X136368508Y-34001678D01*
X136337429Y-34010692D01*
X136306363Y-34019723D01*
X136275317Y-34028769D01*
X136244284Y-34037831D01*
X136213271Y-34046909D01*
X136182271Y-34056004D01*
X136151291Y-34065114D01*
X136120324Y-34074241D01*
X136089377Y-34083383D01*
X136058443Y-34092541D01*
X136027529Y-34101715D01*
X135996628Y-34110906D01*
X135965747Y-34120111D01*
X135934879Y-34129334D01*
X135904030Y-34138572D01*
X135873195Y-34147826D01*
X135842379Y-34157096D01*
X135811577Y-34166382D01*
X135780794Y-34175684D01*
X135750024Y-34185002D01*
X135719274Y-34194335D01*
X135688537Y-34203685D01*
X135657820Y-34213050D01*
X135627116Y-34222432D01*
X135596431Y-34231829D01*
X135565759Y-34241243D01*
X135535107Y-34250672D01*
X135504468Y-34260118D01*
X135473849Y-34269578D01*
X135443243Y-34279056D01*
X135412656Y-34288548D01*
X135382082Y-34298057D01*
X135351528Y-34307581D01*
X135320986Y-34317122D01*
X135290465Y-34326678D01*
X135259956Y-34336251D01*
X135229467Y-34345838D01*
X135198990Y-34355443D01*
X135168533Y-34365062D01*
X135138090Y-34374698D01*
X135107665Y-34384349D01*
X135077254Y-34394017D01*
X135046862Y-34403699D01*
X135016483Y-34413399D01*
X134986123Y-34423113D01*
X134955776Y-34432844D01*
X134925449Y-34442590D01*
X134895135Y-34452353D01*
X134864840Y-34462130D01*
X134834557Y-34471924D01*
X134804295Y-34481734D01*
X134774045Y-34491559D01*
X134743814Y-34501400D01*
X134713597Y-34511258D01*
X134683398Y-34521130D01*
X134653213Y-34531019D01*
X134623046Y-34540923D01*
X134592893Y-34550843D01*
X134562759Y-34560778D01*
X134532638Y-34570731D01*
X134502536Y-34580697D01*
X134472446Y-34590681D01*
X134442376Y-34600679D01*
X134412319Y-34610694D01*
X134382281Y-34620724D01*
X134352256Y-34630771D01*
X134322250Y-34640832D01*
X134292257Y-34650910D01*
X134262283Y-34661003D01*
X134232322Y-34671112D01*
X134202380Y-34681236D01*
X134172451Y-34691377D01*
X134142541Y-34701533D01*
X134082765Y-34721892D01*
X134023053Y-34742314D01*
X133963405Y-34762799D01*
X133903820Y-34783346D01*
X133844299Y-34803957D01*
X133784841Y-34824629D01*
X133725446Y-34845365D01*
X133666115Y-34866163D01*
X133606847Y-34887023D01*
X133547642Y-34907947D01*
X133488501Y-34928932D01*
X133429422Y-34949980D01*
X133370406Y-34971091D01*
X133311454Y-34992264D01*
X133252564Y-35013499D01*
X133193737Y-35034797D01*
X133134973Y-35056157D01*
X133076271Y-35077579D01*
X133017632Y-35099064D01*
X132959055Y-35120610D01*
X132900541Y-35142219D01*
X132842090Y-35163891D01*
X132783701Y-35185624D01*
X132725374Y-35207420D01*
X132667109Y-35229277D01*
X132608907Y-35251197D01*
X132550766Y-35273178D01*
X132492688Y-35295222D01*
X132434672Y-35317328D01*
X132376718Y-35339495D01*
X132318825Y-35361725D01*
X132260994Y-35384017D01*
X132203225Y-35406370D01*
X132145518Y-35428785D01*
X132087873Y-35451262D01*
X132030289Y-35473801D01*
X131972766Y-35496402D01*
X131915305Y-35519065D01*
X131857905Y-35541789D01*
X131800567Y-35564575D01*
X131743290Y-35587422D01*
X131686074Y-35610332D01*
X131628919Y-35633302D01*
X131571826Y-35656335D01*
X131514793Y-35679429D01*
X131457822Y-35702585D01*
X131400911Y-35725802D01*
X131344061Y-35749081D01*
X131287272Y-35772421D01*
X131230544Y-35795823D01*
X131173876Y-35819286D01*
X131117269Y-35842811D01*
X131060723Y-35866397D01*
X131004237Y-35890045D01*
X130947812Y-35913753D01*
X130891447Y-35937524D01*
X130835142Y-35961355D01*
X130778897Y-35985248D01*
X130722713Y-36009202D01*
X130666589Y-36033218D01*
X130610525Y-36057294D01*
X130554521Y-36081432D01*
X130498577Y-36105631D01*
X130442693Y-36129892D01*
X130386869Y-36154213D01*
X130331105Y-36178596D01*
X130275401Y-36203040D01*
X130219756Y-36227544D01*
X130164171Y-36252110D01*
X130108645Y-36276738D01*
X130053179Y-36301426D01*
X129997773Y-36326175D01*
X129942425Y-36350985D01*
X129887138Y-36375856D01*
X129831909Y-36400788D01*
X129776740Y-36425782D01*
X129721630Y-36450836D01*
X129666579Y-36475951D01*
X129611588Y-36501127D01*
X129556655Y-36526364D01*
X129501782Y-36551661D01*
X129446967Y-36577020D01*
X129392211Y-36602440D01*
X129337514Y-36627920D01*
X129282876Y-36653461D01*
X129228296Y-36679063D01*
X129173775Y-36704726D01*
X129119313Y-36730450D01*
X129064910Y-36756234D01*
X129010564Y-36782079D01*
X128956278Y-36807985D01*
X128902049Y-36833951D01*
X128847880Y-36859979D01*
X128793768Y-36886067D01*
X128739714Y-36912215D01*
X128685719Y-36938425D01*
X128631782Y-36964695D01*
X128577903Y-36991025D01*
X128524082Y-37017416D01*
X128470319Y-37043868D01*
X128416614Y-37070381D01*
X128362967Y-37096954D01*
X128309378Y-37123588D01*
X128255846Y-37150282D01*
X128202372Y-37177037D01*
X128148956Y-37203852D01*
X128095598Y-37230728D01*
X128042297Y-37257664D01*
X127989053Y-37284661D01*
X127935867Y-37311719D01*
X127882739Y-37338837D01*
X127829668Y-37366015D01*
X127776654Y-37393254D01*
X127723697Y-37420553D01*
X127670798Y-37447913D01*
X127617956Y-37475334D01*
X127565171Y-37502814D01*
X127512443Y-37530355D01*
X127459772Y-37557957D01*
X127407158Y-37585619D01*
X127354601Y-37613341D01*
X127302100Y-37641124D01*
X127249657Y-37668967D01*
X127197271Y-37696871D01*
X127144941Y-37724835D01*
X127092668Y-37752859D01*
X127040451Y-37780944D01*
X126988291Y-37809089D01*
X126936188Y-37837294D01*
X126884141Y-37865560D01*
X126832151Y-37893886D01*
X126780217Y-37922272D01*
X126728339Y-37950719D01*
X126676518Y-37979226D01*
X126624753Y-38007793D01*
X126573044Y-38036421D01*
X126521391Y-38065108D01*
X126469795Y-38093857D01*
X126418254Y-38122665D01*
X126366770Y-38151534D01*
X126315341Y-38180463D01*
X126263969Y-38209452D01*
X126212652Y-38238501D01*
X126161391Y-38267611D01*
X126110186Y-38296781D01*
X126059037Y-38326012D01*
X126007944Y-38355302D01*
X125956906Y-38384653D01*
X125905924Y-38414064D01*
X125854997Y-38443535D01*
X125804126Y-38473067D01*
X125753311Y-38502658D01*
X125702550Y-38532310D01*
X125651846Y-38562023D01*
X125601196Y-38591795D01*
X125550603Y-38621628D01*
X125500064Y-38651521D01*
X125449580Y-38681474D01*
X125399152Y-38711487D01*
X125348779Y-38741561D01*
X125298461Y-38771694D01*
X125248198Y-38801888D01*
X125197990Y-38832143D01*
X125147837Y-38862457D01*
X125097739Y-38892832D01*
X125047696Y-38923267D01*
X124997708Y-38953762D01*
X124947774Y-38984317D01*
X124897896Y-39014933D01*
X124848072Y-39045608D01*
X124798303Y-39076344D01*
X124748588Y-39107140D01*
X124698928Y-39137997D01*
X124649323Y-39168913D01*
X124599772Y-39199890D01*
X124550276Y-39230927D01*
X124500834Y-39262025D01*
X124451447Y-39293182D01*
X124402114Y-39324400D01*
X124352835Y-39355678D01*
X124303610Y-39387016D01*
X124254440Y-39418415D01*
X124205324Y-39449873D01*
X124156263Y-39481392D01*
X124107255Y-39512972D01*
X124058302Y-39544611D01*
X124009402Y-39576311D01*
X123960557Y-39608071D01*
X123911765Y-39639891D01*
X123863028Y-39671771D01*
X123814344Y-39703712D01*
X123765715Y-39735713D01*
X123717139Y-39767775D01*
X123668617Y-39799896D01*
X123620149Y-39832078D01*
X123571734Y-39864320D01*
X123523374Y-39896623D01*
X123475067Y-39928986D01*
X123426813Y-39961409D01*
X123378613Y-39993892D01*
X123330467Y-40026436D01*
X123282374Y-40059040D01*
X123234335Y-40091705D01*
X123186349Y-40124429D01*
X123138417Y-40157214D01*
X123090538Y-40190060D01*
X123042712Y-40222966D01*
X122994940Y-40255932D01*
X122947221Y-40288958D01*
X122899555Y-40322045D01*
X122851942Y-40355193D01*
X122804383Y-40388400D01*
X122756877Y-40421669D01*
X122709423Y-40454997D01*
X122662023Y-40488386D01*
X122614676Y-40521836D01*
X122567382Y-40555345D01*
X122520141Y-40588916D01*
X122472953Y-40622546D01*
X122425818Y-40656238D01*
X122378736Y-40689989D01*
X122331707Y-40723802D01*
X122284730Y-40757674D01*
X122237806Y-40791607D01*
X122190936Y-40825601D01*
X122144117Y-40859655D01*
X122097352Y-40893770D01*
X122050639Y-40927945D01*
X122003979Y-40962181D01*
X121957371Y-40996477D01*
X121910816Y-41030834D01*
X121864314Y-41065252D01*
X121817864Y-41099730D01*
X121771466Y-41134269D01*
X121725122Y-41168868D01*
X121678829Y-41203528D01*
X121632589Y-41238249D01*
X121586401Y-41273030D01*
X121540266Y-41307872D01*
X121494183Y-41342775D01*
X121448152Y-41377738D01*
X121402174Y-41412762D01*
X121356248Y-41447847D01*
X121310374Y-41482992D01*
X121264552Y-41518198D01*
X121218782Y-41553465D01*
X121173065Y-41588793D01*
X121127400Y-41624181D01*
X121081786Y-41659631D01*
X121036225Y-41695141D01*
X120990716Y-41730712D01*
X120945259Y-41766343D01*
X120899854Y-41802036D01*
X120854500Y-41837789D01*
X120809199Y-41873603D01*
X120763950Y-41909479D01*
X120718752Y-41945415D01*
X120673607Y-41981412D01*
X120628513Y-42017470D01*
X120583471Y-42053588D01*
X120538481Y-42089768D01*
X120493542Y-42126009D01*
X120448655Y-42162311D01*
X120403820Y-42198673D01*
X120359037Y-42235097D01*
X120314306Y-42271582D01*
X120269626Y-42308128D01*
X120224997Y-42344735D01*
X120180421Y-42381403D01*
X120135895Y-42418132D01*
X120091422Y-42454922D01*
X120047000Y-42491773D01*
X120002629Y-42528686D01*
X119958310Y-42565660D01*
X119914043Y-42602694D01*
X119869827Y-42639790D01*
X119825662Y-42676948D01*
X119781549Y-42714166D01*
X119737487Y-42751446D01*
X119693477Y-42788787D01*
X119649517Y-42826189D01*
X119605610Y-42863652D01*
X119561753Y-42901177D01*
X119517948Y-42938764D01*
X119474194Y-42976411D01*
X119430492Y-43014120D01*
X119386840Y-43051890D01*
X119343240Y-43089722D01*
X119299691Y-43127615D01*
X119256194Y-43165570D01*
X119212747Y-43203586D01*
X119169352Y-43241663D01*
X119126007Y-43279802D01*
X119082714Y-43318003D01*
X119039472Y-43356265D01*
X118996281Y-43394588D01*
X118953141Y-43432974D01*
X118910052Y-43471420D01*
X118867015Y-43509929D01*
X118824028Y-43548499D01*
X118781092Y-43587130D01*
X118738207Y-43625824D01*
X118695374Y-43664579D01*
X118652591Y-43703395D01*
X118609859Y-43742274D01*
X118567178Y-43781214D01*
X118524548Y-43820216D01*
X118481969Y-43859280D01*
X118439441Y-43898405D01*
X118396964Y-43937593D01*
X118354537Y-43976842D01*
X118312162Y-44016153D01*
X118269837Y-44055526D01*
X118227563Y-44094961D01*
X118185340Y-44134458D01*
X118143168Y-44174017D01*
X118101046Y-44213637D01*
X118058976Y-44253320D01*
X118016956Y-44293065D01*
X117974986Y-44332872D01*
X117933068Y-44372741D01*
X117891200Y-44412672D01*
X117849383Y-44452665D01*
X117807617Y-44492720D01*
X117765902Y-44532837D01*
X117724237Y-44573017D01*
X117682623Y-44613258D01*
X117641059Y-44653562D01*
X117599547Y-44693929D01*
X117558085Y-44734357D01*
X117516673Y-44774848D01*
X117475312Y-44815401D01*
X117434002Y-44856016D01*
X117392743Y-44896693D01*
X117351534Y-44937433D01*
X117310375Y-44978236D01*
X117269268Y-45019101D01*
X117228211Y-45060028D01*
X117187204Y-45101017D01*
X117146248Y-45142070D01*
X117105343Y-45183184D01*
X117064488Y-45224361D01*
X117023684Y-45265601D01*
X116982930Y-45306903D01*
X116942227Y-45348268D01*
X116901575Y-45389696D01*
X116860973Y-45431186D01*
X116820422Y-45472739D01*
X116779921Y-45514354D01*
X116739470Y-45556032D01*
X116699071Y-45597773D01*
X116658721Y-45639577D01*
X116618423Y-45681443D01*
X116578174Y-45723373D01*
X116537977Y-45765365D01*
X116497829Y-45807420D01*
X116457733Y-45849538D01*
X116417687Y-45891718D01*
X116377691Y-45933962D01*
X116337746Y-45976268D01*
X116297851Y-46018638D01*
X116258007Y-46061070D01*
X116218213Y-46103566D01*
X116178470Y-46146125D01*
X116138777Y-46188746D01*
X116099135Y-46231431D01*
X116059544Y-46274179D01*
X116020003Y-46316990D01*
X115980512Y-46359864D01*
X115941072Y-46402801D01*
X115901682Y-46445801D01*
X115862343Y-46488865D01*
X115823054Y-46531992D01*
X115783816Y-46575182D01*
X115744629Y-46618436D01*
X115705491Y-46661753D01*
X115666405Y-46705133D01*
X115627369Y-46748577D01*
X115588383Y-46792084D01*
X115549448Y-46835654D01*
X115510564Y-46879288D01*
X115471729Y-46922985D01*
X115432946Y-46966746D01*
X115394213Y-47010571D01*
X115355531Y-47054458D01*
X115316899Y-47098410D01*
X115278317Y-47142425D01*
X115239787Y-47186504D01*
X115201306Y-47230646D01*
X115162877Y-47274852D01*
X115124498Y-47319122D01*
X115086169Y-47363455D01*
X115047891Y-47407852D01*
X115009664Y-47452313D01*
X114971487Y-47496838D01*
X114933361Y-47541426D01*
X114895285Y-47586078D01*
X114857261Y-47630795D01*
X114819286Y-47675575D01*
X114781363Y-47720418D01*
X114743490Y-47765326D01*
X114705667Y-47810298D01*
X114667895Y-47855334D01*
X114630174Y-47900434D01*
X114592504Y-47945598D01*
X114554884Y-47990826D01*
X114517315Y-48036117D01*
X114479797Y-48081474D01*
X114442329Y-48126894D01*
X114404912Y-48172378D01*
X114367546Y-48217927D01*
X114330231Y-48263539D01*
X114292966Y-48309216D01*
X114255752Y-48354957D01*
X114218589Y-48400763D01*
X114181477Y-48446632D01*
X114144415Y-48492566D01*
X114107405Y-48538565D01*
X114070445Y-48584627D01*
X114033536Y-48630754D01*
X113996678Y-48676946D01*
X113959870Y-48723202D01*
X113923114Y-48769522D01*
X113886408Y-48815907D01*
X113849754Y-48862356D01*
X113813150Y-48908870D01*
X113776597Y-48955449D01*
X113740095Y-49002092D01*
X113703645Y-49048799D01*
X113667245Y-49095571D01*
X113630896Y-49142408D01*
X113594598Y-49189309D01*
X113558351Y-49236276D01*
X113522156Y-49283306D01*
X113486011Y-49330402D01*
X113449917Y-49377562D01*
X113413875Y-49424787D01*
X113377883Y-49472077D01*
X113341943Y-49519432D01*
X113306054Y-49566851D01*
X113270216Y-49614336D01*
X113234429Y-49661885D01*
X113198694Y-49709499D01*
X113163010Y-49757178D01*
X113127377Y-49804922D01*
X113091795Y-49852731D01*
X113056264Y-49900605D01*
X113020785Y-49948544D01*
X112985357Y-49996548D01*
X112949981Y-50044617D01*
X112914656Y-50092751D01*
X112879382Y-50140950D01*
X112844160Y-50189214D01*
X112808989Y-50237544D01*
X112773869Y-50285938D01*
X112738802Y-50334398D01*
X112703785Y-50382923D01*
X112668820Y-50431513D01*
X112633907Y-50480168D01*
X112599045Y-50528889D01*
X112564235Y-50577675D01*
X112529476Y-50626526D01*
X112494769Y-50675442D01*
X112460114Y-50724424D01*
X112425511Y-50773471D01*
X112390959Y-50822584D01*
X112356459Y-50871762D01*
X112322010Y-50921005D01*
X112287614Y-50970314D01*
X112253269Y-51019688D01*
X112218976Y-51069127D01*
X112184735Y-51118632D01*
X112150546Y-51168203D01*
X112116409Y-51217839D01*
X112082324Y-51267541D01*
X112048291Y-51317308D01*
X112014310Y-51367140D01*
X111980381Y-51417039D01*
X111946504Y-51467002D01*
X111912679Y-51517032D01*
X111878906Y-51567127D01*
X111845185Y-51617287D01*
X111811517Y-51667514D01*
X111777900Y-51717806D01*
X111744336Y-51768163D01*
X111710825Y-51818587D01*
X111677365Y-51869076D01*
X111643958Y-51919631D01*
X111610603Y-51970251D01*
X111577301Y-52020938D01*
X111544051Y-52071690D01*
X111510854Y-52122508D01*
X111477709Y-52173391D01*
X111444616Y-52224341D01*
X111411577Y-52275356D01*
X111378589Y-52326437D01*
X111345655Y-52377584D01*
X111312773Y-52428797D01*
X111279944Y-52480076D01*
X111247167Y-52531420D01*
X111214443Y-52582831D01*
X111181773Y-52634307D01*
X111149154Y-52685849D01*
X111116589Y-52737458D01*
X111084077Y-52789132D01*
X111051618Y-52840872D01*
X111019211Y-52892678D01*
X110986858Y-52944550D01*
X110954558Y-52996488D01*
X110922311Y-53048492D01*
X110890117Y-53100562D01*
X110857976Y-53152698D01*
X110825888Y-53204900D01*
X110793854Y-53257168D01*
X110761873Y-53309502D01*
X110729945Y-53361902D01*
X110698070Y-53414368D01*
X110666249Y-53466900D01*
X110634482Y-53519499D01*
X110602768Y-53572163D01*
X110571107Y-53624893D01*
X110539500Y-53677690D01*
X110507947Y-53730552D01*
X110476447Y-53783481D01*
X110445001Y-53836475D01*
X110413609Y-53889536D01*
X110382270Y-53942663D01*
X110350985Y-53995856D01*
X110319755Y-54049115D01*
X110288578Y-54102440D01*
X110257455Y-54155831D01*
X110226385Y-54209288D01*
X110195371Y-54262811D01*
X110164410Y-54316401D01*
X110133503Y-54370056D01*
X110102650Y-54423778D01*
X110071852Y-54477566D01*
X110041108Y-54531420D01*
X110010418Y-54585340D01*
X109979782Y-54639326D01*
X109949201Y-54693378D01*
X109918674Y-54747496D01*
X109888202Y-54801681D01*
X109857785Y-54855931D01*
X109827422Y-54910248D01*
X109797113Y-54964630D01*
X109766859Y-55019079D01*
X109736660Y-55073594D01*
X109706516Y-55128174D01*
X109676427Y-55182821D01*
X109646392Y-55237534D01*
X109616413Y-55292313D01*
X109586488Y-55347158D01*
X109556618Y-55402069D01*
X109526804Y-55457046D01*
X109497044Y-55512089D01*
X109467340Y-55567198D01*
X109437691Y-55622373D01*
X109408097Y-55677614D01*
X109378559Y-55732921D01*
X109349076Y-55788294D01*
X109319648Y-55843733D01*
X109290276Y-55899238D01*
X109260960Y-55954808D01*
X109231699Y-56010445D01*
X109202494Y-56066147D01*
X109173344Y-56121916D01*
X109144250Y-56177750D01*
X109115212Y-56233650D01*
X109086230Y-56289616D01*
X109057304Y-56345648D01*
X109028434Y-56401745D01*
X108999619Y-56457908D01*
X108970861Y-56514137D01*
X108942159Y-56570432D01*
X108913514Y-56626793D01*
X108884924Y-56683219D01*
X108856391Y-56739711D01*
X108827914Y-56796268D01*
X108799494Y-56852891D01*
X108771130Y-56909580D01*
X108742823Y-56966334D01*
X108714572Y-57023154D01*
X108686378Y-57080040D01*
X108658241Y-57136990D01*
X108630160Y-57194007D01*
X108602137Y-57251089D01*
X108574170Y-57308236D01*
X108546260Y-57365448D01*
X108518408Y-57422726D01*
X108490612Y-57480070D01*
X108462874Y-57537478D01*
X108435192Y-57594952D01*
X108407568Y-57652491D01*
X108380002Y-57710095D01*
X108352493Y-57767765D01*
X108325041Y-57825499D01*
X108297647Y-57883299D01*
X108270310Y-57941164D01*
X108243031Y-57999094D01*
X108215810Y-58057088D01*
X108188647Y-58115148D01*
X108161542Y-58173273D01*
X108134494Y-58231462D01*
X108107504Y-58289716D01*
X108080573Y-58348036D01*
X108053700Y-58406419D01*
X108026884Y-58464868D01*
X108000127Y-58523381D01*
X107973429Y-58581959D01*
X107946789Y-58640601D01*
X107920207Y-58699308D01*
X107893684Y-58758079D01*
X107867219Y-58816915D01*
X107840813Y-58875815D01*
X107814466Y-58934779D01*
X107788178Y-58993808D01*
X107761949Y-59052900D01*
X107735778Y-59112057D01*
X107709667Y-59171278D01*
X107683614Y-59230564D01*
X107657621Y-59289913D01*
X107631687Y-59349325D01*
X107605812Y-59408802D01*
X107579997Y-59468343D01*
X107554241Y-59527947D01*
X107528545Y-59587615D01*
X107502909Y-59647347D01*
X107477332Y-59707142D01*
X107451814Y-59767001D01*
X107426357Y-59826923D01*
X107400960Y-59886908D01*
X107375622Y-59946957D01*
X107350345Y-60007069D01*
X107325128Y-60067244D01*
X107299970Y-60127482D01*
X107274874Y-60187783D01*
X107249837Y-60248147D01*
X107224861Y-60308574D01*
X107199946Y-60369063D01*
X107175091Y-60429616D01*
X107150297Y-60490231D01*
X107125564Y-60550908D01*
X107100891Y-60611648D01*
X107076279Y-60672450D01*
X107051729Y-60733314D01*
X107027239Y-60794241D01*
X107002811Y-60855230D01*
X106978443Y-60916280D01*
X106954138Y-60977393D01*
X106929893Y-61038567D01*
X106905710Y-61099803D01*
X106881589Y-61161101D01*
X106857529Y-61222460D01*
X106833531Y-61283881D01*
X106809595Y-61345363D01*
X106785720Y-61406907D01*
X106761908Y-61468511D01*
X106738158Y-61530176D01*
X106714470Y-61591903D01*
X106690844Y-61653690D01*
X106667280Y-61715538D01*
X106643779Y-61777446D01*
X106620341Y-61839415D01*
X106596965Y-61901445D01*
X106573651Y-61963534D01*
X106550401Y-62025684D01*
X106527213Y-62087894D01*
X106504088Y-62150163D01*
X106481026Y-62212493D01*
X106458028Y-62274882D01*
X106435092Y-62337330D01*
X106412220Y-62399838D01*
X106389411Y-62462406D01*
X106366666Y-62525032D01*
X106343984Y-62587717D01*
X106321366Y-62650462D01*
X106298812Y-62713265D01*
X106276321Y-62776126D01*
X106253894Y-62839046D01*
X106231532Y-62902025D01*
X106209233Y-62965061D01*
X106186999Y-63028156D01*
X106164829Y-63091308D01*
X106142724Y-63154518D01*
X106120683Y-63217786D01*
X106098706Y-63281111D01*
X106076794Y-63344494D01*
X106054947Y-63407933D01*
X106033165Y-63471430D01*
X106011448Y-63534983D01*
X105989796Y-63598593D01*
X105968209Y-63662259D01*
X105946688Y-63725982D01*
X105925231Y-63789761D01*
X105903841Y-63853595D01*
X105882515Y-63917486D01*
X105861256Y-63981432D01*
X105840062Y-64045433D01*
X105818934Y-64109489D01*
X105797872Y-64173601D01*
X105776876Y-64237767D01*
X105755946Y-64301988D01*
X105735083Y-64366264D01*
X105714286Y-64430594D01*
X105693555Y-64494977D01*
X105672891Y-64559415D01*
X105652294Y-64623906D01*
X105631763Y-64688451D01*
X105611299Y-64753049D01*
X105590902Y-64817700D01*
X105570573Y-64882403D01*
X105550310Y-64947160D01*
X105530115Y-65011968D01*
X105509988Y-65076829D01*
X105489927Y-65141742D01*
X105469935Y-65206706D01*
X105450010Y-65271722D01*
X105430153Y-65336788D01*
X105410364Y-65401906D01*
X105390643Y-65467075D01*
X105370990Y-65532294D01*
X105351406Y-65597563D01*
X105331889Y-65662882D01*
X105312442Y-65728251D01*
X105293063Y-65793669D01*
X105273752Y-65859137D01*
X105254511Y-65924653D01*
X105235338Y-65990218D01*
X105216235Y-66055832D01*
X105197201Y-66121493D01*
X105178236Y-66187203D01*
X105159340Y-66252959D01*
X105140514Y-66318763D01*
X105121758Y-66384614D01*
X105103071Y-66450512D01*
X105084454Y-66516456D01*
X105065907Y-66582446D01*
X105047430Y-66648481D01*
X105029024Y-66714563D01*
X105010688Y-66780689D01*
X104992422Y-66846860D01*
X104974227Y-66913075D01*
X104956102Y-66979334D01*
X104938048Y-67045638D01*
X104920066Y-67111984D01*
X104902154Y-67178374D01*
X104884313Y-67244806D01*
X104866544Y-67311281D01*
X104848846Y-67377798D01*
X104831220Y-67444357D01*
X104813665Y-67510957D01*
X104796182Y-67577597D01*
X104778771Y-67644279D01*
X104761432Y-67711000D01*
X104744165Y-67777761D01*
X104726971Y-67844562D01*
X104709849Y-67911402D01*
X104692799Y-67978280D01*
X104675822Y-68045196D01*
X104658918Y-68112150D01*
X104642087Y-68179142D01*
X104625329Y-68246170D01*
X104608644Y-68313235D01*
X104592032Y-68380335D01*
X104575493Y-68447472D01*
X104559029Y-68514643D01*
X104542638Y-68581849D01*
X104526320Y-68649090D01*
X104510077Y-68716364D01*
X104493908Y-68783671D01*
X104477813Y-68851011D01*
X104461792Y-68918384D01*
X104445846Y-68985788D01*
X104429974Y-69053223D01*
X104414178Y-69120690D01*
X104398456Y-69188186D01*
X104382809Y-69255712D01*
X104367237Y-69323268D01*
X104351741Y-69390852D01*
X104336320Y-69458464D01*
X104320974Y-69526104D01*
X104305705Y-69593770D01*
X104290511Y-69661463D01*
X104275393Y-69729182D01*
X104260351Y-69796927D01*
X104245386Y-69864695D01*
X104230497Y-69932488D01*
X104215684Y-70000304D01*
X104200948Y-70068144D01*
X104186289Y-70136005D01*
X104171707Y-70203887D01*
X104157203Y-70271791D01*
X104142775Y-70339715D01*
X104128425Y-70407658D01*
X104114152Y-70475620D01*
X104099957Y-70543601D01*
X104085840Y-70611599D01*
X104071801Y-70679613D01*
X104057841Y-70747644D01*
X104043958Y-70815689D01*
X104030154Y-70883750D01*
X104016429Y-70951824D01*
X104002782Y-71019911D01*
X103989214Y-71088011D01*
X103975725Y-71156121D01*
X103962316Y-71224243D01*
X103948986Y-71292374D01*
X103935735Y-71360514D01*
X103922564Y-71428663D01*
X103909473Y-71496819D01*
X103896462Y-71564981D01*
X103883531Y-71633148D01*
X103870680Y-71701321D01*
X103857910Y-71769497D01*
X103845220Y-71837675D01*
X103832611Y-71905856D01*
X103820083Y-71974038D01*
X103807636Y-72042219D01*
X103795271Y-72110400D01*
X103782986Y-72178578D01*
X103770784Y-72246753D01*
X103758663Y-72314924D01*
X103746624Y-72383090D01*
X103734667Y-72451250D01*
X103722793Y-72519402D01*
X103711000Y-72587546D01*
X103699291Y-72655680D01*
X103687664Y-72723804D01*
X103676120Y-72791916D01*
X103664659Y-72860014D01*
X103653281Y-72928099D01*
X103641987Y-72996167D01*
X103630776Y-73064219D01*
X103619649Y-73132253D01*
X103608606Y-73200268D01*
X103597647Y-73268261D01*
X103586772Y-73336233D01*
X103575982Y-73404182D01*
X103565277Y-73472105D01*
X103554656Y-73540003D01*
X103544120Y-73607873D01*
X103533669Y-73675713D01*
X103523304Y-73743523D01*
X103513024Y-73811301D01*
X103502830Y-73879045D01*
X103492722Y-73946754D01*
X103482700Y-74014426D01*
X103472764Y-74082060D01*
X103462914Y-74149653D01*
X103453152Y-74217204D01*
X103443475Y-74284712D01*
X103433886Y-74352174D01*
X103424384Y-74419588D01*
X103414970Y-74486954D01*
X103405643Y-74554268D01*
X103396404Y-74621530D01*
X103387252Y-74688736D01*
X103378189Y-74755886D01*
X103369214Y-74822976D01*
X103360328Y-74890005D01*
X103351530Y-74956971D01*
X103342821Y-75023872D01*
X103334201Y-75090705D01*
X103325671Y-75157467D01*
X103317230Y-75224158D01*
X103308879Y-75290773D01*
X103300617Y-75357311D01*
X103292446Y-75423770D01*
X103284365Y-75490146D01*
X103276374Y-75556438D01*
X103268474Y-75622641D01*
X103260665Y-75688755D01*
X103252947Y-75754775D01*
X103245321Y-75820699D01*
X103237786Y-75886524D01*
X103230343Y-75952247D01*
X103222991Y-76017865D01*
X103215732Y-76083375D01*
X103208565Y-76148772D01*
X103201491Y-76214055D01*
X103194509Y-76279219D01*
X103187621Y-76344262D01*
X103180826Y-76409179D01*
X103174124Y-76473966D01*
X103167516Y-76538620D01*
X103161001Y-76603137D01*
X103154581Y-76667513D01*
X103148255Y-76731743D01*
X103142024Y-76795824D01*
X103135887Y-76859751D01*
X103129846Y-76923518D01*
X103123899Y-76987123D01*
X103118048Y-77050559D01*
X103112293Y-77113822D01*
X103106634Y-77176907D01*
X103101071Y-77239808D01*
X103095604Y-77302519D01*
X103090234Y-77365036D01*
X103084960Y-77427351D01*
X103079784Y-77489460D01*
X103074705Y-77551356D01*
X103069724Y-77613031D01*
X103064840Y-77674480D01*
X103060055Y-77735696D01*
X103055367Y-77796670D01*
X103050778Y-77857396D01*
X103046289Y-77917866D01*
X103041898Y-77978071D01*
X103037606Y-78038002D01*
X103033414Y-78097651D01*
X103029321Y-78157009D01*
X103025329Y-78216066D01*
X103021437Y-78274811D01*
X103017645Y-78333234D01*
X103013954Y-78391324D01*
X103010364Y-78449069D01*
X103006876Y-78506457D01*
X103003488Y-78563474D01*
X103000203Y-78620108D01*
X102997020Y-78676343D01*
X102993939Y-78732165D01*
X102990960Y-78787558D01*
X102988085Y-78842503D01*
X102985312Y-78896984D01*
X102982643Y-78950981D01*
X102980077Y-79004473D01*
X102977615Y-79057438D01*
X102975258Y-79109853D01*
X102973004Y-79161691D01*
X102970855Y-79212926D01*
X102968811Y-79263528D01*
X102966871Y-79313463D01*
X102965037Y-79362698D01*
X102963309Y-79411193D01*
X102961686Y-79458905D01*
X102960169Y-79505786D01*
X102958757Y-79551785D01*
X102957452Y-79596841D01*
X102956253Y-79640888D01*
X102955161Y-79683847D01*
X102954175Y-79725629D01*
X102953295Y-79766130D01*
X102952521Y-79805224D01*
X102951852Y-79842759D01*
X102951289Y-79878544D01*
X102950831Y-79912334D01*
X102950476Y-79943799D01*
X102950222Y-79972465D01*
X102950066Y-79997587D01*
X102949999Y-80017792D01*
X102950000Y-80030000D01*
X139660000Y-33160000D02*
X139677526Y-33121246D01*
X139695047Y-33082549D01*
X139712556Y-33043930D01*
X139730061Y-33005367D01*
X139747553Y-32966881D01*
X139765041Y-32928452D01*
X139782516Y-32890099D01*
X139799988Y-32851804D01*
X139817446Y-32813585D01*
X139834900Y-32775422D01*
X139852342Y-32737336D01*
X139869780Y-32699307D01*
X139887204Y-32661353D01*
X139904625Y-32623456D01*
X139922033Y-32585635D01*
X139939437Y-32547870D01*
X139956828Y-32510182D01*
X139974215Y-32472549D01*
X139991589Y-32434992D01*
X140008960Y-32397491D01*
X140026317Y-32360065D01*
X140043671Y-32322696D01*
X140061011Y-32285401D01*
X140078348Y-32248163D01*
X140095672Y-32210999D01*
X140112992Y-32173892D01*
X140130299Y-32136859D01*
X140147602Y-32099882D01*
X140164892Y-32062980D01*
X140182178Y-32026133D01*
X140199451Y-31989361D01*
X140216721Y-31952644D01*
X140233977Y-31916001D01*
X140251230Y-31879414D01*
X140268469Y-31842901D01*
X140285705Y-31806444D01*
X140302928Y-31770060D01*
X140320147Y-31733731D01*
X140337352Y-31697477D01*
X140354555Y-31661277D01*
X140371744Y-31625151D01*
X140388929Y-31589079D01*
X140406101Y-31553082D01*
X140423269Y-31517139D01*
X140440425Y-31481269D01*
X140457576Y-31445454D01*
X140474715Y-31409712D01*
X140491850Y-31374025D01*
X140508972Y-31338410D01*
X140526089Y-31302850D01*
X140543194Y-31267363D01*
X140560295Y-31231930D01*
X140577384Y-31196570D01*
X140594468Y-31161264D01*
X140611539Y-31126031D01*
X140628606Y-31090851D01*
X140645661Y-31055744D01*
X140662711Y-31020691D01*
X140679749Y-30985710D01*
X140696783Y-30950782D01*
X140713804Y-30915927D01*
X140730821Y-30881125D01*
X140747824Y-30846396D01*
X140764825Y-30811719D01*
X140781812Y-30777115D01*
X140798795Y-30742564D01*
X140815765Y-30708084D01*
X140832732Y-30673658D01*
X140849685Y-30639303D01*
X140866635Y-30605002D01*
X140883571Y-30570771D01*
X140900504Y-30536594D01*
X140917424Y-30502487D01*
X140934340Y-30468434D01*
X140951243Y-30434451D01*
X140968142Y-30400522D01*
X140985028Y-30366663D01*
X141001910Y-30332856D01*
X141018779Y-30299121D01*
X141035645Y-30265437D01*
X141052497Y-30231825D01*
X141069346Y-30198264D01*
X141086182Y-30164774D01*
X141103013Y-30131337D01*
X141119832Y-30097969D01*
X141136647Y-30064654D01*
X141153449Y-30031408D01*
X141170247Y-29998215D01*
X141187033Y-29965091D01*
X141203814Y-29932019D01*
X141220582Y-29899017D01*
X141237347Y-29866067D01*
X141254098Y-29833186D01*
X141270846Y-29800357D01*
X141287581Y-29767598D01*
X141304312Y-29734890D01*
X141321030Y-29702251D01*
X141337744Y-29669663D01*
X141354445Y-29637145D01*
X141371142Y-29604677D01*
X141387826Y-29572279D01*
X141404507Y-29539932D01*
X141421174Y-29507654D01*
X141437838Y-29475426D01*
X141454489Y-29443268D01*
X141471135Y-29411160D01*
X141487769Y-29379121D01*
X141504399Y-29347132D01*
X141521016Y-29315212D01*
X141537630Y-29283342D01*
X141554230Y-29251541D01*
X141570826Y-29219790D01*
X141587410Y-29188107D01*
X141603989Y-29156474D01*
X141620556Y-29124910D01*
X141637119Y-29093395D01*
X141653669Y-29061948D01*
X141670215Y-29030552D01*
X141686748Y-28999223D01*
X141703277Y-28967944D01*
X141719793Y-28936732D01*
X141736306Y-28905571D01*
X141752805Y-28874476D01*
X141769301Y-28843432D01*
X141785784Y-28812454D01*
X141802263Y-28781526D01*
X141818729Y-28750665D01*
X141835191Y-28719854D01*
X141851640Y-28689109D01*
X141868085Y-28658414D01*
X141884518Y-28627785D01*
X141900946Y-28597206D01*
X141917362Y-28566693D01*
X141933774Y-28536230D01*
X141950172Y-28505832D01*
X141966567Y-28475484D01*
X141982949Y-28445202D01*
X141999328Y-28414969D01*
X142015693Y-28384802D01*
X142032054Y-28354684D01*
X142048403Y-28324631D01*
X142064748Y-28294627D01*
X142081080Y-28264689D01*
X142097407Y-28234800D01*
X142113723Y-28204976D01*
X142130034Y-28175201D01*
X142146332Y-28145491D01*
X142162626Y-28115829D01*
X142178908Y-28086233D01*
X142195186Y-28056685D01*
X142211450Y-28027202D01*
X142227711Y-27997767D01*
X142243959Y-27968397D01*
X142260204Y-27939075D01*
X142276435Y-27909817D01*
X142292663Y-27880608D01*
X142308877Y-27851463D01*
X142325088Y-27822367D01*
X142341286Y-27793334D01*
X142357480Y-27764349D01*
X142373661Y-27735429D01*
X142389838Y-27706556D01*
X142406003Y-27677747D01*
X142422163Y-27648986D01*
X142438311Y-27620289D01*
X142454455Y-27591639D01*
X142470586Y-27563053D01*
X142486713Y-27534514D01*
X142502827Y-27506039D01*
X142518938Y-27477611D01*
X142535035Y-27449246D01*
X142551129Y-27420928D01*
X142567210Y-27392674D01*
X142583287Y-27364467D01*
X142599351Y-27336323D01*
X142615411Y-27308225D01*
X142631459Y-27280191D01*
X142647503Y-27252204D01*
X142663533Y-27224279D01*
X142679560Y-27196401D01*
X142695575Y-27168585D01*
X142711585Y-27140816D01*
X142727582Y-27113110D01*
X142743576Y-27085450D01*
X142759557Y-27057852D01*
X142775534Y-27030301D01*
X142791498Y-27002812D01*
X142807458Y-26975369D01*
X142823406Y-26947988D01*
X142839349Y-26920653D01*
X142855280Y-26893380D01*
X142871207Y-26866154D01*
X142887121Y-26838988D01*
X142903032Y-26811869D01*
X142918929Y-26784811D01*
X142934823Y-26757799D01*
X142950704Y-26730849D01*
X142966581Y-26703944D01*
X142982445Y-26677100D01*
X142998305Y-26650302D01*
X143014153Y-26623565D01*
X143029997Y-26596874D01*
X143045828Y-26570243D01*
X143061655Y-26543658D01*
X143077469Y-26517134D01*
X143093280Y-26490654D01*
X143109078Y-26464236D01*
X143124872Y-26437862D01*
X143140653Y-26411549D01*
X143156430Y-26385282D01*
X143172195Y-26359074D01*
X143187956Y-26332911D01*
X143203704Y-26306809D01*
X143219448Y-26280751D01*
X143235179Y-26254753D01*
X143250907Y-26228800D01*
X143266622Y-26202907D01*
X143282333Y-26177059D01*
X143298031Y-26151270D01*
X143313725Y-26125526D01*
X143329407Y-26099841D01*
X143345085Y-26074201D01*
X143360750Y-26048620D01*
X143376411Y-26023083D01*
X143392060Y-25997605D01*
X143407705Y-25972172D01*
X143423337Y-25946798D01*
X143438965Y-25921468D01*
X143454581Y-25896197D01*
X143470192Y-25870970D01*
X143485791Y-25845801D01*
X143501387Y-25820677D01*
X143516969Y-25795611D01*
X143532548Y-25770589D01*
X143548114Y-25745625D01*
X143563676Y-25720705D01*
X143579225Y-25695843D01*
X143594771Y-25671025D01*
X143610304Y-25646265D01*
X143625833Y-25621549D01*
X143641349Y-25596890D01*
X143656862Y-25572275D01*
X143672362Y-25547718D01*
X143687858Y-25523204D01*
X143703342Y-25498748D01*
X143718821Y-25474334D01*
X143734288Y-25449979D01*
X143749752Y-25425666D01*
X143765202Y-25401411D01*
X143780649Y-25377199D01*
X143796083Y-25353044D01*
X143811514Y-25328932D01*
X143826931Y-25304877D01*
X143842345Y-25280864D01*
X143857746Y-25256909D01*
X143873144Y-25232996D01*
X143888529Y-25209140D01*
X143903910Y-25185327D01*
X143919278Y-25161570D01*
X143934643Y-25137856D01*
X143949995Y-25114198D01*
X143965343Y-25090583D01*
X143980678Y-25067023D01*
X143996010Y-25043507D01*
X144011329Y-25020046D01*
X144026645Y-24996627D01*
X144041948Y-24973264D01*
X144057247Y-24949944D01*
X144072533Y-24926679D01*
X144087816Y-24903457D01*
X144103086Y-24880290D01*
X144118352Y-24857164D01*
X144133606Y-24834095D01*
X144148856Y-24811067D01*
X144164093Y-24788094D01*
X144179327Y-24765164D01*
X144194548Y-24742288D01*
X144209765Y-24719454D01*
X144224970Y-24696675D01*
X144240170Y-24673938D01*
X144255359Y-24651255D01*
X144270543Y-24628614D01*
X144285716Y-24606028D01*
X144300884Y-24583483D01*
X144316040Y-24560993D01*
X144331192Y-24538543D01*
X144346331Y-24516149D01*
X144361467Y-24493795D01*
X144376590Y-24471496D01*
X144391709Y-24449237D01*
X144406816Y-24427033D01*
X144421920Y-24404870D01*
X144437010Y-24382761D01*
X144452097Y-24360692D01*
X144467172Y-24338678D01*
X144482242Y-24316704D01*
X144497300Y-24294784D01*
X144512355Y-24272904D01*
X144527397Y-24251078D01*
X144542435Y-24229293D01*
X144557461Y-24207561D01*
X144572483Y-24185869D01*
X144587492Y-24164231D01*
X144602498Y-24142633D01*
X144617492Y-24121088D01*
X144632481Y-24099583D01*
X144647458Y-24078131D01*
X144662432Y-24056720D01*
X144677393Y-24035361D01*
X144692350Y-24014042D01*
X144707295Y-23992776D01*
X144722236Y-23971550D01*
X144737165Y-23950377D01*
X144752090Y-23929243D01*
X144767002Y-23908162D01*
X144781911Y-23887120D01*
X144796807Y-23866131D01*
X144811700Y-23845181D01*
X144826580Y-23824283D01*
X144841457Y-23803425D01*
X144856321Y-23782619D01*
X144871182Y-23761852D01*
X144886030Y-23741137D01*
X144900874Y-23720462D01*
X144915706Y-23699838D01*
X144930535Y-23679253D01*
X144945351Y-23658720D01*
X144960163Y-23638226D01*
X144974963Y-23617784D01*
X144989759Y-23597380D01*
X145004543Y-23577028D01*
X145019323Y-23556714D01*
X145034091Y-23536452D01*
X145048855Y-23516229D01*
X145063607Y-23496056D01*
X145078355Y-23475923D01*
X145093091Y-23455840D01*
X145107823Y-23435796D01*
X145122543Y-23415802D01*
X145137259Y-23395847D01*
X145151963Y-23375942D01*
X145166663Y-23356077D01*
X145181351Y-23336261D01*
X145196035Y-23316484D01*
X145210707Y-23296757D01*
X145225375Y-23277068D01*
X145240031Y-23257429D01*
X145254684Y-23237829D01*
X145269324Y-23218278D01*
X145283960Y-23198766D01*
X145298584Y-23179303D01*
X145313205Y-23159879D01*
X145327813Y-23140504D01*
X145342418Y-23121167D01*
X145357010Y-23101879D01*
X145371599Y-23082630D01*
X145386175Y-23063429D01*
X145400748Y-23044267D01*
X145415309Y-23025153D01*
X145429866Y-23006078D01*
X145444411Y-22987051D01*
X145458952Y-22968062D01*
X145473481Y-22949121D01*
X145488006Y-22930219D01*
X145502520Y-22911365D01*
X145517029Y-22892548D01*
X145531527Y-22873780D01*
X145546020Y-22855050D01*
X145560502Y-22836368D01*
X145574980Y-22817723D01*
X145589446Y-22799126D01*
X145603908Y-22780567D01*
X145618358Y-22762055D01*
X145632805Y-22743581D01*
X145647239Y-22725155D01*
X145661670Y-22706766D01*
X145676088Y-22688424D01*
X145690503Y-22670120D01*
X145704906Y-22651863D01*
X145719306Y-22633643D01*
X145733693Y-22615471D01*
X145748077Y-22597335D01*
X145762448Y-22579247D01*
X145776816Y-22561196D01*
X145791172Y-22543191D01*
X145805524Y-22525224D01*
X145819865Y-22507303D01*
X145834201Y-22489419D01*
X145848526Y-22471582D01*
X145862847Y-22453781D01*
X145877156Y-22436027D01*
X145891462Y-22418310D01*
X145905755Y-22400639D01*
X145920045Y-22383004D01*
X145934323Y-22365416D01*
X145948597Y-22347864D01*
X145962859Y-22330359D01*
X145977118Y-22312889D01*
X145991365Y-22295466D01*
X146005608Y-22278079D01*
X146019839Y-22260738D01*
X146034067Y-22243433D01*
X146048283Y-22226173D01*
X146062495Y-22208950D01*
X146076695Y-22191772D01*
X146090892Y-22174631D01*
X146105077Y-22157534D01*
X146119258Y-22140474D01*
X146133427Y-22123459D01*
X146147593Y-22106480D01*
X146161747Y-22089546D01*
X146175897Y-22072647D01*
X146190036Y-22055794D01*
X146204171Y-22038976D01*
X146218294Y-22022203D01*
X146232413Y-22005466D01*
X146246521Y-21988773D01*
X146260625Y-21972116D01*
X146274717Y-21955504D01*
X146288806Y-21938927D01*
X146302883Y-21922394D01*
X146316956Y-21905897D01*
X146331018Y-21889444D01*
X146345076Y-21873026D01*
X146359123Y-21856652D01*
X146373165Y-21840314D01*
X146387196Y-21824020D01*
X146401224Y-21807760D01*
X146415240Y-21791545D01*
X146429252Y-21775364D01*
X146443252Y-21759228D01*
X146457249Y-21743126D01*
X146471235Y-21727068D01*
X146485216Y-21711044D01*
X146499186Y-21695064D01*
X146513153Y-21679119D01*
X146527108Y-21663217D01*
X146541059Y-21647350D01*
X146554999Y-21631526D01*
X146568935Y-21615737D01*
X146582860Y-21599991D01*
X146596781Y-21584279D01*
X146610690Y-21568610D01*
X146624596Y-21552975D01*
X146638490Y-21537384D01*
X146652381Y-21521826D01*
X146666260Y-21506312D01*
X146680136Y-21490831D01*
X146694000Y-21475393D01*
X146707860Y-21459989D01*
X146721710Y-21444628D01*
X146735555Y-21429301D01*
X146749389Y-21414016D01*
X146763220Y-21398765D01*
X146777039Y-21383556D01*
X146790854Y-21368381D01*
X146804658Y-21353248D01*
X146818459Y-21338149D01*
X146832248Y-21323092D01*
X146846033Y-21308068D01*
X146859807Y-21293086D01*
X146873578Y-21278138D01*
X146887337Y-21263232D01*
X146901093Y-21248358D01*
X146914837Y-21233527D01*
X146928578Y-21218729D01*
X146942307Y-21203972D01*
X146956033Y-21189249D01*
X146969748Y-21174567D01*
X146983459Y-21159918D01*
X146997159Y-21145311D01*
X147010855Y-21130736D01*
X147024540Y-21116203D01*
X147038221Y-21101703D01*
X147051891Y-21087243D01*
X147065558Y-21072817D01*
X147079213Y-21058431D01*
X147092865Y-21044079D01*
X147106505Y-21029767D01*
X147120142Y-21015488D01*
X147133768Y-21001249D01*
X147147391Y-20987043D01*
X147161002Y-20972878D01*
X147174609Y-20958745D01*
X147188206Y-20944652D01*
X147201799Y-20930592D01*
X147215381Y-20916572D01*
X147228959Y-20902585D01*
X147242526Y-20888638D01*
X147256090Y-20874723D01*
X147269642Y-20860848D01*
X147283191Y-20847005D01*
X147296729Y-20833202D01*
X147310264Y-20819432D01*
X147323787Y-20805701D01*
X147337307Y-20792002D01*
X147350816Y-20778343D01*
X147364322Y-20764715D01*
X147377816Y-20751128D01*
X147391307Y-20737572D01*
X147404787Y-20724055D01*
X147418263Y-20710571D01*
X147431729Y-20697125D01*
X147445191Y-20683712D01*
X147458642Y-20670337D01*
X147472089Y-20656995D01*
X147485526Y-20643691D01*
X147498959Y-20630418D01*
X147512381Y-20617185D01*
X147525800Y-20603983D01*
X147539208Y-20590820D01*
X147552612Y-20577689D01*
X147566005Y-20564595D01*
X147579395Y-20551534D01*
X147592775Y-20538511D01*
X147606150Y-20525519D01*
X147619515Y-20512565D01*
X147632877Y-20499643D01*
X147646227Y-20486759D01*
X147659574Y-20473906D01*
X147672911Y-20461091D01*
X147686244Y-20448308D01*
X147699566Y-20435562D01*
X147712885Y-20422847D01*
X147726193Y-20410170D01*
X147739497Y-20397524D01*
X147752791Y-20384916D01*
X147766082Y-20372339D01*
X147779362Y-20359799D01*
X147792638Y-20347290D01*
X147805903Y-20334818D01*
X147819166Y-20322378D01*
X147832417Y-20309974D01*
X147845665Y-20297601D01*
X147858903Y-20285266D01*
X147872137Y-20272961D01*
X147885361Y-20260693D01*
X147898581Y-20248456D01*
X147911790Y-20236255D01*
X147924996Y-20224085D01*
X147938192Y-20211952D01*
X147951384Y-20199849D01*
X147964566Y-20187783D01*
X147977744Y-20175747D01*
X147990912Y-20163748D01*
X148004076Y-20151779D01*
X148017230Y-20139847D01*
X148030380Y-20127944D01*
X148043520Y-20116078D01*
X148056657Y-20104243D01*
X148069783Y-20092443D01*
X148082906Y-20080673D01*
X148096019Y-20068940D01*
X148109128Y-20057236D01*
X148122226Y-20045568D01*
X148135321Y-20033931D01*
X148148407Y-20022329D01*
X148161488Y-20010757D01*
X148174559Y-19999220D01*
X148187627Y-19987714D01*
X148200685Y-19976243D01*
X148213739Y-19964801D01*
X148226783Y-19953395D01*
X148239823Y-19942019D01*
X148252854Y-19930678D01*
X148265881Y-19919367D01*
X148278898Y-19908091D01*
X148291911Y-19896844D01*
X148304914Y-19885633D01*
X148317914Y-19874450D01*
X148330904Y-19863303D01*
X148343890Y-19852186D01*
X148356866Y-19841103D01*
X148369839Y-19830049D01*
X148382802Y-19819030D01*
X148395761Y-19808040D01*
X148408711Y-19797085D01*
X148421657Y-19786160D01*
X148434593Y-19775268D01*
X148447525Y-19764406D01*
X148460448Y-19753578D01*
X148473367Y-19742779D01*
X148486276Y-19732015D01*
X148499182Y-19721279D01*
X148512078Y-19710577D01*
X148524971Y-19699905D01*
X148537854Y-19689266D01*
X148550733Y-19678656D01*
X148563602Y-19668081D01*
X148576468Y-19657534D01*
X148589325Y-19647020D01*
X148602178Y-19636536D01*
X148615021Y-19626085D01*
X148627861Y-19615662D01*
X148640691Y-19605274D01*
X148653517Y-19594914D01*
X148666334Y-19584587D01*
X148679148Y-19574289D01*
X148691952Y-19564024D01*
X148704752Y-19553787D01*
X148717543Y-19543584D01*
X148730330Y-19533409D01*
X148743108Y-19523268D01*
X148755883Y-19513154D01*
X148768648Y-19503074D01*
X148781409Y-19493022D01*
X148794161Y-19483002D01*
X148806910Y-19473011D01*
X148819649Y-19463053D01*
X148832385Y-19453122D01*
X148845111Y-19443225D01*
X148857834Y-19433355D01*
X148870547Y-19423518D01*
X148883257Y-19413709D01*
X148895958Y-19403932D01*
X148908655Y-19394184D01*
X148921343Y-19384467D01*
X148934027Y-19374779D01*
X148946703Y-19365122D01*
X148959374Y-19355494D01*
X148972037Y-19345897D01*
X148984696Y-19336329D01*
X148997346Y-19326792D01*
X149009992Y-19317283D01*
X149022629Y-19307806D01*
X149035263Y-19298356D01*
X149047888Y-19288938D01*
X149060509Y-19279548D01*
X149073121Y-19270190D01*
X149085730Y-19260858D01*
X149098330Y-19251559D01*
X149110926Y-19242287D01*
X149123513Y-19233046D01*
X149136097Y-19223833D01*
X149148672Y-19214651D01*
X149161243Y-19205496D01*
X149173805Y-19196372D01*
X149186364Y-19187276D01*
X149198914Y-19178211D01*
X149211461Y-19169173D01*
X149223999Y-19160166D01*
X149236533Y-19151186D01*
X149249059Y-19142237D01*
X149261581Y-19133315D01*
X149274094Y-19124424D01*
X149286604Y-19115560D01*
X149299105Y-19106726D01*
X149311602Y-19097920D01*
X149324091Y-19089144D01*
X149336576Y-19080395D01*
X149349053Y-19071676D01*
X149361527Y-19062984D01*
X149373991Y-19054323D01*
X149386452Y-19045688D01*
X149398905Y-19037084D01*
X149411354Y-19028506D01*
X149423795Y-19019959D01*
X149436232Y-19011438D01*
X149448661Y-19002947D01*
X149461086Y-18994483D01*
X149473503Y-18986048D01*
X149485916Y-18977641D01*
X149498321Y-18969263D01*
X149510722Y-18960911D01*
X149523116Y-18952590D01*
X149535505Y-18944294D01*
X149547886Y-18936029D01*
X149560264Y-18927789D01*
X149572634Y-18919580D01*
X149585000Y-18911396D01*
X149597357Y-18903242D01*
X149609712Y-18895114D01*
X149622058Y-18887016D01*
X149634400Y-18878944D01*
X149646735Y-18870901D01*
X149659066Y-18862884D01*
X149671389Y-18854896D01*
X149683708Y-18846934D01*
X149696020Y-18839001D01*
X149708327Y-18831095D01*
X149720627Y-18823217D01*
X149732923Y-18815365D01*
X149745212Y-18807542D01*
X149757497Y-18799745D01*
X149769774Y-18791977D01*
X149782047Y-18784235D01*
X149794313Y-18776521D01*
X149806575Y-18768833D01*
X149818829Y-18761173D01*
X149831079Y-18753540D01*
X149843322Y-18745935D01*
X149855562Y-18738355D01*
X149867793Y-18730804D01*
X149880022Y-18723278D01*
X149892242Y-18715781D01*
X149904459Y-18708309D01*
X149916668Y-18700865D01*
X149928874Y-18693447D01*
X149941072Y-18686057D01*
X149953267Y-18678693D01*
X149965454Y-18671356D01*
X149977637Y-18664045D01*
X149989813Y-18656761D01*
X150001986Y-18649504D01*
X150014151Y-18642273D01*
X150026312Y-18635068D01*
X150038466Y-18627891D01*
X150050617Y-18620739D01*
X150062760Y-18613615D01*
X150074900Y-18606516D01*
X150087032Y-18599444D01*
X150099161Y-18592398D01*
X150111283Y-18585378D01*
X150123401Y-18578384D01*
X150135511Y-18571418D01*
X150147619Y-18564476D01*
X150159719Y-18557562D01*
X150171815Y-18550672D01*
X150183904Y-18543810D01*
X150195990Y-18536973D01*
X150208069Y-18530162D01*
X150220144Y-18523377D01*
X150232212Y-18516618D01*
X150244277Y-18509885D01*
X150256334Y-18503178D01*
X150268389Y-18496496D01*
X150280436Y-18489841D01*
X150292479Y-18483210D01*
X150304516Y-18476606D01*
X150316549Y-18470027D01*
X150328575Y-18463475D01*
X150340598Y-18456947D01*
X150352614Y-18450446D01*
X150364626Y-18443969D01*
X150376632Y-18437518D01*
X150388634Y-18431093D01*
X150400629Y-18424693D01*
X150412621Y-18418318D01*
X150424607Y-18411969D01*
X150436588Y-18405645D01*
X150448563Y-18399347D01*
X150460535Y-18393073D01*
X150472500Y-18386825D01*
X150484461Y-18380602D01*
X150496416Y-18374405D01*
X150508367Y-18368232D01*
X150520312Y-18362084D01*
X150532253Y-18355961D01*
X150544188Y-18349864D01*
X150556119Y-18343791D01*
X150568044Y-18337744D01*
X150579966Y-18331721D01*
X150591881Y-18325724D01*
X150603792Y-18319751D01*
X150615698Y-18313803D01*
X150627599Y-18307879D01*
X150639495Y-18301981D01*
X150651387Y-18296107D01*
X150663273Y-18290258D01*
X150675155Y-18284434D01*
X150687031Y-18278634D01*
X150698904Y-18272859D01*
X150710770Y-18267109D01*
X150722633Y-18261382D01*
X150734490Y-18255681D01*
X150746343Y-18250004D01*
X150758191Y-18244351D01*
X150770035Y-18238723D01*
X150781873Y-18233119D01*
X150793707Y-18227540D01*
X150805536Y-18221985D01*
X150817361Y-18216454D01*
X150829180Y-18210947D01*
X150840996Y-18205465D01*
X150852806Y-18200007D01*
X150864612Y-18194573D01*
X150876413Y-18189163D01*
X150888210Y-18183777D01*
X150900001Y-18178416D01*
X150911789Y-18173078D01*
X150923571Y-18167764D01*
X150935350Y-18162475D01*
X150947123Y-18157209D01*
X150958893Y-18151967D01*
X150970657Y-18146750D01*
X150982418Y-18141555D01*
X150994173Y-18136386D01*
X151005924Y-18131239D01*
X151017670Y-18126117D01*
X151029413Y-18121018D01*
X151041150Y-18115943D01*
X151052884Y-18110892D01*
X151064613Y-18105864D01*
X151076338Y-18100860D01*
X151088057Y-18095880D01*
X151099774Y-18090923D01*
X151111484Y-18085990D01*
X151123192Y-18081080D01*
X151134894Y-18076194D01*
X151146593Y-18071331D01*
X151158287Y-18066491D01*
X151169977Y-18061675D01*
X151181662Y-18056883D01*
X151193343Y-18052114D01*
X151205020Y-18047368D01*
X151216693Y-18042645D01*
X151228361Y-18037946D01*
X151240026Y-18033270D01*
X151251686Y-18028617D01*
X151263342Y-18023988D01*
X151274993Y-18019381D01*
X151286641Y-18014798D01*
X151298284Y-18010238D01*
X151309924Y-18005701D01*
X151321559Y-18001187D01*
X151333190Y-17996696D01*
X151344817Y-17992228D01*
X151356440Y-17987783D01*
X151368058Y-17983361D01*
X151379673Y-17978962D01*
X151391284Y-17974586D01*
X151402891Y-17970232D01*
X151414493Y-17965902D01*
X151426092Y-17961594D01*
X151437687Y-17957310D01*
X151449278Y-17953047D01*
X151460864Y-17948808D01*
X151472448Y-17944592D01*
X151484026Y-17940398D01*
X151495602Y-17936227D01*
X151507173Y-17932078D01*
X151518740Y-17927952D01*
X151530303Y-17923849D01*
X151541863Y-17919768D01*
X151553419Y-17915710D01*
X151564971Y-17911674D01*
X151576519Y-17907661D01*
X151588063Y-17903671D01*
X151599604Y-17899703D01*
X151611140Y-17895757D01*
X151622673Y-17891833D01*
X151634203Y-17887932D01*
X151645728Y-17884054D01*
X151657250Y-17880198D01*
X151668768Y-17876364D01*
X151680283Y-17872552D01*
X151691794Y-17868763D01*
X151703301Y-17864996D01*
X151714805Y-17861251D01*
X151726305Y-17857528D01*
X151737801Y-17853828D01*
X151749294Y-17850149D01*
X151760783Y-17846493D01*
X151772268Y-17842859D01*
X151783751Y-17839247D01*
X151795229Y-17835657D01*
X151806704Y-17832089D01*
X151818176Y-17828543D01*
X151829644Y-17825019D01*
X151841108Y-17821517D01*
X151852569Y-17818038D01*
X151864027Y-17814580D01*
X151875481Y-17811143D01*
X151886932Y-17807729D01*
X151898380Y-17804337D01*
X151909824Y-17800967D01*
X151921264Y-17797618D01*
X151932702Y-17794291D01*
X151944136Y-17790986D01*
X151955566Y-17787703D01*
X151966994Y-17784441D01*
X151978418Y-17781202D01*
X151989839Y-17777983D01*
X152001256Y-17774787D01*
X152012671Y-17771612D01*
X152024081Y-17768459D01*
X152035490Y-17765328D01*
X152046894Y-17762218D01*
X152058296Y-17759130D01*
X152069694Y-17756063D01*
X152081089Y-17753018D01*
X152092481Y-17749995D01*
X152103870Y-17746992D01*
X152115256Y-17744012D01*
X152126639Y-17741053D01*
X152138018Y-17738115D01*
X152149395Y-17735199D01*
X152160768Y-17732304D01*
X152172139Y-17729431D01*
X152183506Y-17726579D01*
X152194871Y-17723748D01*
X152206232Y-17720939D01*
X152217590Y-17718151D01*
X152228946Y-17715384D01*
X152240299Y-17712639D01*
X152251648Y-17709915D01*
X152262995Y-17707212D01*
X152274338Y-17704530D01*
X152285680Y-17701870D01*
X152297018Y-17699231D01*
X152308353Y-17696613D01*
X152319685Y-17694016D01*
X152331015Y-17691440D01*
X152342342Y-17688886D01*
X152353666Y-17686352D01*
X152364987Y-17683840D01*
X152376306Y-17681349D01*
X152387621Y-17678879D01*
X152398935Y-17676430D01*
X152410245Y-17674002D01*
X152421553Y-17671595D01*
X152432857Y-17669209D01*
X152444160Y-17666844D01*
X152455459Y-17664500D01*
X152466757Y-17662176D01*
X152478051Y-17659874D01*
X152489343Y-17657593D01*
X152500632Y-17655333D01*
X152511919Y-17653093D01*
X152523203Y-17650875D01*
X152534485Y-17648677D01*
X152545764Y-17646501D01*
X152557041Y-17644345D01*
X152568314Y-17642210D01*
X152579586Y-17640095D01*
X152590855Y-17638002D01*
X152602122Y-17635929D01*
X152613386Y-17633877D01*
X152624649Y-17631846D01*
X152635908Y-17629835D01*
X152647165Y-17627846D01*
X152658420Y-17625877D01*
X152669673Y-17623928D01*
X152680922Y-17622001D01*
X152692171Y-17620094D01*
X152703416Y-17618208D01*
X152714660Y-17616342D01*
X152725900Y-17614497D01*
X152737139Y-17612673D01*
X152748375Y-17610869D01*
X152759610Y-17609086D01*
X152770841Y-17607323D01*
X152782072Y-17605581D01*
X152793299Y-17603860D01*
X152804526Y-17602159D01*
X152815748Y-17600479D01*
X152826970Y-17598819D01*
X152838189Y-17597180D01*
X152860621Y-17593963D01*
X152883045Y-17590828D01*
X152905461Y-17587775D01*
X152927869Y-17584803D01*
X152950270Y-17581913D01*
X152972662Y-17579105D01*
X152995047Y-17576379D01*
X153017425Y-17573733D01*
X153039795Y-17571170D01*
X153062158Y-17568687D01*
X153084514Y-17566286D01*
X153106863Y-17563965D01*
X153129206Y-17561726D01*
X153151541Y-17559568D01*
X153173870Y-17557491D01*
X153196193Y-17555495D01*
X153218510Y-17553579D01*
X153240820Y-17551745D01*
X153263125Y-17549991D01*
X153285423Y-17548317D01*
X153307716Y-17546724D01*
X153330003Y-17545212D01*
X153352285Y-17543781D01*
X153374562Y-17542429D01*
X153396833Y-17541158D01*
X153419099Y-17539968D01*
X153441360Y-17538858D01*
X153463617Y-17537828D01*
X153485869Y-17536878D01*
X153508116Y-17536009D01*
X153530359Y-17535220D01*
X153552597Y-17534511D01*
X153574831Y-17533882D01*
X153597062Y-17533333D01*
X153619288Y-17532864D01*
X153641511Y-17532475D01*
X153663730Y-17532167D01*
X153685945Y-17531938D01*
X153708158Y-17531789D01*
X153730367Y-17531720D01*
X153752573Y-17531732D01*
X153774775Y-17531823D01*
X153796976Y-17531994D01*
X153819173Y-17532245D01*
X153841368Y-17532576D01*
X153863560Y-17532987D01*
X153885750Y-17533477D01*
X153907938Y-17534048D01*
X153930124Y-17534699D01*
X153952308Y-17535429D01*
X153974490Y-17536240D01*
X153996670Y-17537130D01*
X154018849Y-17538100D01*
X154041026Y-17539151D01*
X154063203Y-17540281D01*
X154085378Y-17541491D01*
X154107552Y-17542782D01*
X154129725Y-17544152D01*
X154151897Y-17545603D01*
X154174069Y-17547133D01*
X154196241Y-17548744D01*
X154218412Y-17550434D01*
X154240582Y-17552205D01*
X154262753Y-17554057D01*
X154284924Y-17555988D01*
X154307094Y-17558000D01*
X154329265Y-17560091D01*
X154351437Y-17562264D01*
X154373609Y-17564516D01*
X154395782Y-17566849D01*
X154417955Y-17569263D01*
X154440130Y-17571757D01*
X154462305Y-17574332D01*
X154484482Y-17576987D01*
X154506660Y-17579723D01*
X154528839Y-17582540D01*
X154551020Y-17585437D01*
X154573202Y-17588416D01*
X154595387Y-17591475D01*
X154617573Y-17594615D01*
X154639761Y-17597837D01*
X154661952Y-17601139D01*
X154684145Y-17604523D01*
X154706340Y-17607987D01*
X154728538Y-17611534D01*
X154750738Y-17615161D01*
X154772942Y-17618870D01*
X154795148Y-17622661D01*
X154817357Y-17626533D01*
X154839569Y-17630487D01*
X154861785Y-17634523D01*
X154884004Y-17638640D01*
X154906227Y-17642840D01*
X154928453Y-17647121D01*
X154950683Y-17651485D01*
X154972917Y-17655931D01*
X154995155Y-17660460D01*
X155017397Y-17665071D01*
X155039644Y-17669764D01*
X155061894Y-17674540D01*
X155084150Y-17679399D01*
X155106409Y-17684340D01*
X155128674Y-17689365D01*
X155150943Y-17694472D01*
X155173218Y-17699663D01*
X155195497Y-17704937D01*
X155217782Y-17710295D01*
X155240072Y-17715736D01*
X155262367Y-17721260D01*
X155284668Y-17726869D01*
X155306975Y-17732561D01*
X155329287Y-17738337D01*
X155351606Y-17744198D01*
X155373930Y-17750142D01*
X155396260Y-17756171D01*
X155418597Y-17762285D01*
X155440940Y-17768483D01*
X155463289Y-17774766D01*
X155485645Y-17781133D01*
X155508008Y-17787586D01*
X155530378Y-17794124D01*
X155552754Y-17800748D01*
X155575137Y-17807456D01*
X155597528Y-17814251D01*
X155619925Y-17821131D01*
X155642331Y-17828097D01*
X155664743Y-17835149D01*
X155687163Y-17842287D01*
X155709591Y-17849512D01*
X155732026Y-17856823D01*
X155754470Y-17864221D01*
X155776921Y-17871706D01*
X155799380Y-17879277D01*
X155821848Y-17886936D01*
X155844324Y-17894682D01*
X155866808Y-17902516D01*
X155889301Y-17910437D01*
X155911802Y-17918446D01*
X155934312Y-17926543D01*
X155956831Y-17934728D01*
X155979359Y-17943001D01*
X156001895Y-17951363D01*
X156024441Y-17959814D01*
X156046996Y-17968353D01*
X156069561Y-17976982D01*
X156092134Y-17985699D01*
X156114718Y-17994506D01*
X156137310Y-18003403D01*
X156159913Y-18012389D01*
X156182525Y-18021466D01*
X156205148Y-18030632D01*
X156227780Y-18039889D01*
X156250422Y-18049236D01*
X156273074Y-18058674D01*
X156295737Y-18068203D01*
X156318410Y-18077823D01*
X156341094Y-18087534D01*
X156363788Y-18097337D01*
X156386492Y-18107231D01*
X156409208Y-18117217D01*
X156431934Y-18127296D01*
X156454671Y-18137466D01*
X156477419Y-18147730D01*
X156500178Y-18158086D01*
X156522948Y-18168535D01*
X156545730Y-18179077D01*
X156568523Y-18189712D01*
X156591327Y-18200441D01*
X156614143Y-18211264D01*
X156636970Y-18222180D01*
X156659809Y-18233191D01*
X156682660Y-18244296D01*
X156705522Y-18255496D01*
X156728397Y-18266791D01*
X156751283Y-18278181D01*
X156774182Y-18289667D01*
X156797093Y-18301248D01*
X156820016Y-18312924D01*
X156842951Y-18324697D01*
X156865899Y-18336566D01*
X156888859Y-18348531D01*
X156911832Y-18360593D01*
X156934817Y-18372752D01*
X156957815Y-18385008D01*
X156980826Y-18397362D01*
X157003849Y-18409813D01*
X157026886Y-18422363D01*
X157049936Y-18435010D01*
X157072998Y-18447755D01*
X157096074Y-18460600D01*
X157119163Y-18473543D01*
X157142265Y-18486585D01*
X157165381Y-18499727D01*
X157188510Y-18512968D01*
X157211652Y-18526309D01*
X157234808Y-18539750D01*
X157257978Y-18553292D01*
X157281161Y-18566934D01*
X157304359Y-18580677D01*
X157327569Y-18594521D01*
X157350794Y-18608467D01*
X157374033Y-18622514D01*
X157397286Y-18636663D01*
X157420552Y-18650914D01*
X157443833Y-18665268D01*
X157467128Y-18679724D01*
X157490438Y-18694283D01*
X157513761Y-18708946D01*
X157537099Y-18723712D01*
X157560452Y-18738581D01*
X157583818Y-18753555D01*
X157607200Y-18768633D01*
X157630596Y-18783816D01*
X157654006Y-18799103D01*
X157677432Y-18814495D01*
X157700872Y-18829993D01*
X157724326Y-18845596D01*
X157747796Y-18861306D01*
X157771281Y-18877121D01*
X157794780Y-18893043D01*
X157818295Y-18909072D01*
X157841824Y-18925208D01*
X157865369Y-18941451D01*
X157888928Y-18957801D01*
X157912503Y-18974260D01*
X157936094Y-18990826D01*
X157959699Y-19007501D01*
X157983320Y-19024285D01*
X158006956Y-19041178D01*
X158030607Y-19058180D01*
X158054274Y-19075292D01*
X158077957Y-19092513D01*
X158101655Y-19109845D01*
X158125368Y-19127287D01*
X158149097Y-19144840D01*
X158172842Y-19162503D01*
X158196603Y-19180279D01*
X158220379Y-19198165D01*
X158244171Y-19216164D01*
X158267978Y-19234275D01*
X158291802Y-19252498D01*
X158315641Y-19270834D01*
X158339496Y-19289283D01*
X158363367Y-19307846D01*
X158387254Y-19326522D01*
X158411158Y-19345312D01*
X158435077Y-19364217D01*
X158459012Y-19383236D01*
X158482963Y-19402370D01*
X158506930Y-19421619D01*
X158530913Y-19440984D01*
X158554912Y-19460464D01*
X158578928Y-19480060D01*
X158602960Y-19499773D01*
X158627008Y-19519603D01*
X158651072Y-19539549D01*
X158675152Y-19559613D01*
X158699249Y-19579795D01*
X158723362Y-19600094D01*
X158747491Y-19620512D01*
X158771636Y-19641048D01*
X158795798Y-19661703D01*
X158819976Y-19682477D01*
X158844171Y-19703370D01*
X158868381Y-19724384D01*
X158892609Y-19745517D01*
X158916852Y-19766771D01*
X158941112Y-19788145D01*
X158965389Y-19809641D01*
X158989682Y-19831258D01*
X159013991Y-19852996D01*
X159038316Y-19874857D01*
X159062659Y-19896839D01*
X159087017Y-19918944D01*
X159111392Y-19941173D01*
X159135784Y-19963524D01*
X159160192Y-19985999D01*
X159184616Y-20008597D01*
X159209057Y-20031320D01*
X159233514Y-20054167D01*
X159257988Y-20077139D01*
X159282478Y-20100236D01*
X159306985Y-20123459D01*
X159331508Y-20146807D01*
X159356047Y-20170281D01*
X159380603Y-20193882D01*
X159405176Y-20217609D01*
X159429764Y-20241464D01*
X159454369Y-20265445D01*
X159478991Y-20289554D01*
X159503629Y-20313791D01*
X159528283Y-20338157D01*
X159552954Y-20362650D01*
X159577641Y-20387273D01*
X159602344Y-20412025D01*
X159627064Y-20436907D01*
X159651800Y-20461918D01*
X159676552Y-20487059D01*
X159701321Y-20512331D01*
X159726106Y-20537734D01*
X159750907Y-20563268D01*
X159775724Y-20588933D01*
X159800557Y-20614730D01*
X159825407Y-20640658D01*
X159850272Y-20666720D01*
X159875154Y-20692914D01*
X159900052Y-20719240D01*
X159924965Y-20745701D01*
X159949895Y-20772294D01*
X159974841Y-20799022D01*
X159999803Y-20825884D01*
X160024780Y-20852880D01*
X160049774Y-20880012D01*
X160074783Y-20907278D01*
X160099808Y-20934680D01*
X160124849Y-20962218D01*
X160149906Y-20989892D01*
X160174978Y-21017702D01*
X160200066Y-21045649D01*
X160225170Y-21073733D01*
X160250289Y-21101955D01*
X160275423Y-21130314D01*
X160300573Y-21158811D01*
X160325739Y-21187446D01*
X160350920Y-21216220D01*
X160376116Y-21245132D01*
X160401327Y-21274184D01*
X160426554Y-21303375D01*
X160451796Y-21332706D01*
X160477053Y-21362178D01*
X160502325Y-21391789D01*
X160527612Y-21421541D01*
X160552914Y-21451435D01*
X160578231Y-21481469D01*
X160603562Y-21511645D01*
X160628909Y-21541963D01*
X160654270Y-21572423D01*
X160679645Y-21603026D01*
X160705036Y-21633771D01*
X160730440Y-21664660D01*
X160755859Y-21695691D01*
X160781293Y-21726867D01*
X160806741Y-21758186D01*
X160832203Y-21789650D01*
X160857679Y-21821258D01*
X160883169Y-21853010D01*
X160908673Y-21884908D01*
X160934191Y-21916951D01*
X160959722Y-21949140D01*
X160985268Y-21981475D01*
X161010827Y-22013955D01*
X161036400Y-22046583D01*
X161061986Y-22079357D01*
X161087585Y-22112278D01*
X161113198Y-22145346D01*
X161138824Y-22178562D01*
X161164463Y-22211925D01*
X161190115Y-22245437D01*
X161215780Y-22279097D01*
X161241458Y-22312905D01*
X161267148Y-22346863D01*
X161292852Y-22380969D01*
X161318567Y-22415225D01*
X161344295Y-22449630D01*
X161370035Y-22484186D01*
X161395788Y-22518891D01*
X161421552Y-22553747D01*
X161447329Y-22588753D01*
X161473117Y-22623910D01*
X161498917Y-22659218D01*
X161524729Y-22694678D01*
X161550552Y-22730289D01*
X161576387Y-22766052D01*
X161602232Y-22801966D01*
X161628089Y-22838034D01*
X161653957Y-22874253D01*
X161679836Y-22910625D01*
X161705725Y-22947150D01*
X161731625Y-22983828D01*
X161757536Y-23020660D01*
X161783457Y-23057645D01*
X161809387Y-23094783D01*
X161835328Y-23132076D01*
X161861279Y-23169523D01*
X161887240Y-23207124D01*
X161913210Y-23244879D01*
X161939190Y-23282789D01*
X161965179Y-23320854D01*
X161991177Y-23359075D01*
X162017184Y-23397450D01*
X162043200Y-23435981D01*
X162069224Y-23474667D01*
X162095258Y-23513509D01*
X162121299Y-23552507D01*
X162147348Y-23591661D01*
X162173406Y-23630971D01*
X162199471Y-23670437D01*
X162225544Y-23710060D01*
X162251624Y-23749840D01*
X162277712Y-23789776D01*
X162303807Y-23829869D01*
X162329908Y-23870119D01*
X162356016Y-23910527D01*
X162382131Y-23951091D01*
X162408252Y-23991813D01*
X162434379Y-24032692D01*
X162460513Y-24073729D01*
X162486651Y-24114924D01*
X162512796Y-24156276D01*
X162538945Y-24197786D01*
X162565100Y-24239453D01*
X162591259Y-24281279D01*
X162617423Y-24323263D01*
X162643592Y-24365404D01*
X162669764Y-24407704D01*
X162695941Y-24450162D01*
X162722121Y-24492778D01*
X162748305Y-24535552D01*
X162774492Y-24578485D01*
X162800682Y-24621576D01*
X162826874Y-24664824D01*
X162853069Y-24708232D01*
X162879267Y-24751797D01*
X162905466Y-24795520D01*
X162931667Y-24839402D01*
X162957870Y-24883442D01*
X162984073Y-24927640D01*
X163010278Y-24971996D01*
X163036483Y-25016509D01*
X163062688Y-25061181D01*
X163088894Y-25106011D01*
X163115099Y-25150998D01*
X163141303Y-25196143D01*
X163167507Y-25241446D01*
X163193710Y-25286906D01*
X163219911Y-25332523D01*
X163246110Y-25378297D01*
X163272307Y-25424228D01*
X163298502Y-25470317D01*
X163324694Y-25516561D01*
X163350883Y-25562963D01*
X163377068Y-25609520D01*
X163403250Y-25656234D01*
X163429428Y-25703103D01*
X163455601Y-25750128D01*
X163481769Y-25797308D01*
X163507932Y-25844644D01*
X163534089Y-25892134D01*
X163560240Y-25939779D01*
X163586385Y-25987578D01*
X163612523Y-26035531D01*
X163638654Y-26083637D01*
X163664778Y-26131897D01*
X163690893Y-26180310D01*
X163717000Y-26228875D01*
X163743099Y-26277592D01*
X163769188Y-26326461D01*
X163795267Y-26375481D01*
X163821336Y-26424652D01*
X163847395Y-26473973D01*
X163873442Y-26523444D01*
X163899478Y-26573064D01*
X163925502Y-26622834D01*
X163951514Y-26672751D01*
X163977512Y-26722816D01*
X164003498Y-26773028D01*
X164029469Y-26823387D01*
X164055425Y-26873891D01*
X164081367Y-26924541D01*
X164107293Y-26975335D01*
X164133202Y-27026273D01*
X164159096Y-27077354D01*
X164184971Y-27128578D01*
X164210829Y-27179943D01*
X164236669Y-27231448D01*
X164262490Y-27283094D01*
X164288291Y-27334878D01*
X164314071Y-27386801D01*
X164339831Y-27438861D01*
X164365569Y-27491057D01*
X164391286Y-27543388D01*
X164416979Y-27595854D01*
X164442649Y-27648452D01*
X164468294Y-27701183D01*
X164493915Y-27754045D01*
X164519509Y-27807036D01*
X164545078Y-27860156D01*
X164570619Y-27913403D01*
X164596132Y-27966776D01*
X164621617Y-28020274D01*
X164647072Y-28073895D01*
X164672497Y-28127638D01*
X164697891Y-28181501D01*
X164723252Y-28235483D01*
X164748581Y-28289583D01*
X164773876Y-28343798D01*
X164799136Y-28398127D01*
X164824361Y-28452568D01*
X164849549Y-28507120D01*
X164874699Y-28561781D01*
X164899811Y-28616548D01*
X164924884Y-28671420D01*
X164949916Y-28726395D01*
X164974906Y-28781471D01*
X164999853Y-28836644D01*
X165024757Y-28891915D01*
X165049616Y-28947279D01*
X165074428Y-29002734D01*
X165099193Y-29058278D01*
X165123910Y-29113909D01*
X165148577Y-29169624D01*
X165173193Y-29225420D01*
X165197756Y-29281294D01*
X165222265Y-29337243D01*
X165246720Y-29393264D01*
X165271117Y-29449354D01*
X165295457Y-29505511D01*
X165319737Y-29561729D01*
X165343956Y-29618006D01*
X165368112Y-29674339D01*
X165392203Y-29730723D01*
X165416229Y-29787154D01*
X165440187Y-29843630D01*
X165464075Y-29900144D01*
X165487891Y-29956693D01*
X165511635Y-30013272D01*
X165535302Y-30069878D01*
X165558893Y-30126503D01*
X165582404Y-30183145D01*
X165605833Y-30239797D01*
X165629179Y-30296453D01*
X165652438Y-30353109D01*
X165675609Y-30409757D01*
X165698688Y-30466393D01*
X165721674Y-30523008D01*
X165744564Y-30579597D01*
X165767355Y-30636152D01*
X165790043Y-30692666D01*
X165812627Y-30749132D01*
X165835102Y-30805540D01*
X165857466Y-30861883D01*
X165879716Y-30918151D01*
X165901847Y-30974335D01*
X165923856Y-31030425D01*
X165945739Y-31086412D01*
X165967493Y-31142283D01*
X165989112Y-31198028D01*
X166010593Y-31253634D01*
X166031931Y-31309088D01*
X166053121Y-31364378D01*
X166074158Y-31419489D01*
X166095036Y-31474404D01*
X166115750Y-31529110D01*
X166136293Y-31583587D01*
X166156660Y-31637818D01*
X166176842Y-31691784D01*
X166196834Y-31745462D01*
X166216626Y-31798832D01*
X166236212Y-31851868D01*
X166255581Y-31904544D01*
X166274724Y-31956833D01*
X166293630Y-32008704D01*
X166312289Y-32060123D01*
X166330688Y-32111054D01*
X166348813Y-32161456D01*
X166366650Y-32211287D01*
X166384182Y-32260496D01*
X166401391Y-32309029D01*
X166418257Y-32356826D01*
X166434756Y-32403815D01*
X166450863Y-32449917D01*
X166466547Y-32495042D01*
X166481774Y-32539081D01*
X166496501Y-32581906D01*
X166510678Y-32623363D01*
X166524244Y-32663260D01*
X166537120Y-32701351D01*
X166549199Y-32737308D01*
X166560332Y-32770663D01*
X166570282Y-32800663D01*
X166575621Y-32816838D01*
X166578822Y-32826527D01*
X166579664Y-32829047D01*
X166580000Y-32830000D01*
D10*
X143250000Y-131290000D02*
X193910000Y-131290000D01*
X193910000Y-91930000D02*
X193910000Y-131290000D01*
X193910000Y-91930000D02*
X203540000Y-91950577D01*
D11*
X203270000Y-80080000D02*
X203270000Y-80080000D01*
X203540000Y-80040000D02*
X203539990Y-80004034D01*
X203539960Y-79968086D01*
X203539910Y-79932152D01*
X203539840Y-79896236D01*
X203539750Y-79860333D01*
X203539640Y-79824448D01*
X203539511Y-79788576D01*
X203539361Y-79752722D01*
X203539191Y-79716882D01*
X203539002Y-79681059D01*
X203538792Y-79645250D01*
X203538563Y-79609459D01*
X203538313Y-79573681D01*
X203538044Y-79537921D01*
X203537755Y-79502174D01*
X203537446Y-79466445D01*
X203537117Y-79430730D01*
X203536769Y-79395032D01*
X203536400Y-79359347D01*
X203536012Y-79323681D01*
X203535604Y-79288027D01*
X203535176Y-79252392D01*
X203534728Y-79216770D01*
X203534261Y-79181165D01*
X203533773Y-79145574D01*
X203533266Y-79110000D01*
X203532739Y-79074440D01*
X203532193Y-79038897D01*
X203531626Y-79003368D01*
X203531040Y-78967857D01*
X203530434Y-78932358D01*
X203529808Y-78896878D01*
X203529163Y-78861410D01*
X203528498Y-78825960D01*
X203527813Y-78790524D01*
X203527109Y-78755105D01*
X203526384Y-78719699D01*
X203525641Y-78684311D01*
X203524877Y-78648936D01*
X203524094Y-78613579D01*
X203523291Y-78578235D01*
X203522468Y-78542908D01*
X203521626Y-78507595D01*
X203520764Y-78472299D01*
X203519883Y-78437017D01*
X203518982Y-78401752D01*
X203518061Y-78366500D01*
X203517121Y-78331265D01*
X203516161Y-78296044D01*
X203515182Y-78260840D01*
X203514183Y-78225650D01*
X203513164Y-78190476D01*
X203512126Y-78155316D01*
X203511068Y-78120174D01*
X203509991Y-78085044D01*
X203508895Y-78049932D01*
X203507778Y-78014833D01*
X203506642Y-77979752D01*
X203505487Y-77944683D01*
X203504312Y-77909632D01*
X203503118Y-77874594D01*
X203501904Y-77839574D01*
X203500671Y-77804566D01*
X203499418Y-77769576D01*
X203498146Y-77734599D01*
X203496854Y-77699639D01*
X203495543Y-77664692D01*
X203494213Y-77629763D01*
X203492863Y-77594846D01*
X203491494Y-77559947D01*
X203490105Y-77525061D01*
X203488697Y-77490192D01*
X203487269Y-77455336D01*
X203485822Y-77420498D01*
X203484356Y-77385672D01*
X203482870Y-77350864D01*
X203481365Y-77316068D01*
X203479840Y-77281290D01*
X203478296Y-77246525D01*
X203476733Y-77211777D01*
X203475151Y-77177042D01*
X203473549Y-77142324D01*
X203471928Y-77107619D01*
X203470287Y-77072932D01*
X203468628Y-77038257D01*
X203466949Y-77003599D01*
X203465250Y-76968954D01*
X203463533Y-76934327D01*
X203461796Y-76899712D01*
X203460039Y-76865115D01*
X203458264Y-76830530D01*
X203456469Y-76795962D01*
X203454655Y-76761407D01*
X203452822Y-76726870D01*
X203450970Y-76692345D01*
X203449098Y-76657838D01*
X203447207Y-76623342D01*
X203445298Y-76588865D01*
X203443368Y-76554400D01*
X203441420Y-76519952D01*
X203439452Y-76485517D01*
X203437466Y-76451099D01*
X203435460Y-76416693D01*
X203433435Y-76382305D01*
X203431390Y-76347929D01*
X203429327Y-76313571D01*
X203427244Y-76279225D01*
X203425143Y-76244896D01*
X203423022Y-76210580D01*
X203420882Y-76176281D01*
X203418723Y-76141995D01*
X203416545Y-76107725D01*
X203414348Y-76073468D01*
X203412132Y-76039229D01*
X203409896Y-76005002D01*
X203407642Y-75970792D01*
X203405368Y-75936594D01*
X203403076Y-75902414D01*
X203400764Y-75868245D01*
X203398434Y-75834095D01*
X203396084Y-75799956D01*
X203393716Y-75765835D01*
X203391328Y-75731726D01*
X203388921Y-75697634D01*
X203386496Y-75663554D01*
X203384051Y-75629492D01*
X203381587Y-75595442D01*
X203379105Y-75561409D01*
X203376603Y-75527388D01*
X203374082Y-75493385D01*
X203371543Y-75459394D01*
X203368984Y-75425420D01*
X203366407Y-75391457D01*
X203363811Y-75357513D01*
X203361195Y-75323580D01*
X203358561Y-75289665D01*
X203355908Y-75255761D01*
X203353236Y-75221875D01*
X203350545Y-75188001D01*
X203347835Y-75154144D01*
X203345106Y-75120299D01*
X203342359Y-75086472D01*
X203339592Y-75052656D01*
X203336807Y-75018858D01*
X203334003Y-74985071D01*
X203331180Y-74951302D01*
X203328338Y-74917544D01*
X203325477Y-74883804D01*
X203322597Y-74850076D01*
X203319699Y-74816365D01*
X203316782Y-74782666D01*
X203313846Y-74748984D01*
X203310891Y-74715314D01*
X203307917Y-74681661D01*
X203304925Y-74648020D01*
X203301914Y-74614396D01*
X203298884Y-74580784D01*
X203295835Y-74547189D01*
X203292767Y-74513606D01*
X203289681Y-74480040D01*
X203286576Y-74446486D01*
X203283453Y-74412949D01*
X203280310Y-74379423D01*
X203277149Y-74345915D01*
X203273969Y-74312419D01*
X203270770Y-74278940D01*
X203267553Y-74245472D01*
X203264317Y-74212022D01*
X203261062Y-74178583D01*
X203257789Y-74145161D01*
X203254497Y-74111751D01*
X203251186Y-74078358D01*
X203247856Y-74044977D01*
X203244509Y-74011613D01*
X203241142Y-73978261D01*
X203237756Y-73944925D01*
X203234352Y-73911601D01*
X203230930Y-73878295D01*
X203227488Y-73845000D01*
X203224029Y-73811722D01*
X203220550Y-73778455D01*
X203217053Y-73745206D01*
X203213537Y-73711968D01*
X203210003Y-73678747D01*
X203206450Y-73645538D01*
X203202878Y-73612345D01*
X203199288Y-73579165D01*
X203195680Y-73546001D01*
X203192052Y-73512849D01*
X203188407Y-73479714D01*
X203184743Y-73446590D01*
X203181060Y-73413483D01*
X203177358Y-73380388D01*
X203173639Y-73347309D01*
X203169900Y-73314242D01*
X203166143Y-73281193D01*
X203162368Y-73248154D01*
X203158574Y-73215133D01*
X203154761Y-73182123D01*
X203150931Y-73149130D01*
X203147081Y-73116148D01*
X203143213Y-73083183D01*
X203139327Y-73050229D01*
X203135422Y-73017293D01*
X203131499Y-72984368D01*
X203127557Y-72951460D01*
X203123597Y-72918563D01*
X203119619Y-72885683D01*
X203115622Y-72852814D01*
X203111606Y-72819963D01*
X203107572Y-72787122D01*
X203103520Y-72754298D01*
X203099449Y-72721486D01*
X203095360Y-72688691D01*
X203091253Y-72655906D01*
X203087127Y-72623139D01*
X203082983Y-72590383D01*
X203078820Y-72557644D01*
X203074639Y-72524916D01*
X203070440Y-72492205D01*
X203066222Y-72459505D01*
X203061986Y-72426822D01*
X203057732Y-72394150D01*
X203053459Y-72361495D01*
X203049168Y-72328851D01*
X203044859Y-72296224D01*
X203040531Y-72263608D01*
X203036185Y-72231009D01*
X203031821Y-72198421D01*
X203027438Y-72165850D01*
X203023037Y-72133289D01*
X203018618Y-72100746D01*
X203014180Y-72068214D01*
X203009725Y-72035699D01*
X203005250Y-72003194D01*
X203000758Y-71970707D01*
X202996248Y-71938230D01*
X202991719Y-71905770D01*
X202987172Y-71873321D01*
X202982607Y-71840889D01*
X202978023Y-71808468D01*
X202973421Y-71776064D01*
X202968801Y-71743670D01*
X202964163Y-71711294D01*
X202959506Y-71678928D01*
X202954832Y-71646580D01*
X202950139Y-71614242D01*
X202945428Y-71581921D01*
X202940699Y-71549610D01*
X202935952Y-71517317D01*
X202931186Y-71485034D01*
X202926402Y-71452768D01*
X202921600Y-71420513D01*
X202916780Y-71388275D01*
X202911942Y-71356047D01*
X202907086Y-71323837D01*
X202902211Y-71291636D01*
X202897318Y-71259453D01*
X202892407Y-71227281D01*
X202887479Y-71195125D01*
X202877566Y-71130852D01*
X202867582Y-71066633D01*
X202857525Y-71002470D01*
X202847395Y-70938361D01*
X202837194Y-70874307D01*
X202826920Y-70810307D01*
X202816574Y-70746363D01*
X202806155Y-70682472D01*
X202795665Y-70618636D01*
X202785102Y-70554855D01*
X202774468Y-70491128D01*
X202763761Y-70427455D01*
X202752983Y-70363837D01*
X202742132Y-70300273D01*
X202731210Y-70236763D01*
X202720216Y-70173307D01*
X202709150Y-70109905D01*
X202698012Y-70046557D01*
X202686803Y-69983263D01*
X202675522Y-69920023D01*
X202664169Y-69856837D01*
X202652745Y-69793705D01*
X202641250Y-69730626D01*
X202629682Y-69667601D01*
X202618044Y-69604629D01*
X202606334Y-69541711D01*
X202594552Y-69478847D01*
X202582699Y-69416036D01*
X202570775Y-69353278D01*
X202558780Y-69290574D01*
X202546713Y-69227923D01*
X202534576Y-69165325D01*
X202522367Y-69102781D01*
X202510087Y-69040289D01*
X202497736Y-68977851D01*
X202485314Y-68915465D01*
X202472821Y-68853133D01*
X202460257Y-68790853D01*
X202447622Y-68728626D01*
X202434916Y-68666452D01*
X202422140Y-68604331D01*
X202409292Y-68542263D01*
X202396374Y-68480247D01*
X202383386Y-68418283D01*
X202370326Y-68356373D01*
X202357196Y-68294514D01*
X202343995Y-68232708D01*
X202330724Y-68170955D01*
X202317382Y-68109254D01*
X202303970Y-68047605D01*
X202290487Y-67986008D01*
X202276933Y-67924463D01*
X202263310Y-67862971D01*
X202249616Y-67801531D01*
X202235851Y-67740142D01*
X202222017Y-67678806D01*
X202208112Y-67617521D01*
X202194137Y-67556288D01*
X202180091Y-67495107D01*
X202165976Y-67433978D01*
X202151790Y-67372900D01*
X202137535Y-67311875D01*
X202123209Y-67250900D01*
X202108813Y-67189977D01*
X202094347Y-67129106D01*
X202079812Y-67068286D01*
X202065206Y-67007518D01*
X202050530Y-66946800D01*
X202035785Y-66886135D01*
X202020970Y-66825520D01*
X202006085Y-66764956D01*
X201991130Y-66704444D01*
X201976105Y-66643983D01*
X201961011Y-66583572D01*
X201945847Y-66523213D01*
X201930613Y-66462905D01*
X201915310Y-66402647D01*
X201899937Y-66342440D01*
X201884495Y-66282284D01*
X201868983Y-66222179D01*
X201853402Y-66162124D01*
X201837751Y-66102121D01*
X201822031Y-66042167D01*
X201806241Y-65982264D01*
X201790382Y-65922412D01*
X201774453Y-65862610D01*
X201758456Y-65802858D01*
X201742389Y-65743157D01*
X201726252Y-65683506D01*
X201710047Y-65623905D01*
X201693772Y-65564355D01*
X201677428Y-65504854D01*
X201661015Y-65445404D01*
X201644532Y-65386004D01*
X201627981Y-65326653D01*
X201611361Y-65267353D01*
X201594671Y-65208102D01*
X201577913Y-65148902D01*
X201561085Y-65089751D01*
X201544189Y-65030649D01*
X201527223Y-64971598D01*
X201510189Y-64912596D01*
X201493085Y-64853644D01*
X201475913Y-64794741D01*
X201458672Y-64735888D01*
X201441362Y-64677084D01*
X201423984Y-64618330D01*
X201406536Y-64559625D01*
X201389020Y-64500969D01*
X201371435Y-64442363D01*
X201353782Y-64383806D01*
X201336059Y-64325298D01*
X201318268Y-64266839D01*
X201300409Y-64208429D01*
X201282481Y-64150069D01*
X201264484Y-64091757D01*
X201246418Y-64033494D01*
X201228284Y-63975280D01*
X201210082Y-63917115D01*
X201191811Y-63858999D01*
X201173472Y-63800932D01*
X201155064Y-63742913D01*
X201136587Y-63684943D01*
X201118043Y-63627021D01*
X201099429Y-63569148D01*
X201080748Y-63511324D01*
X201061998Y-63453548D01*
X201043180Y-63395821D01*
X201024293Y-63338142D01*
X201005338Y-63280511D01*
X200986315Y-63222929D01*
X200967224Y-63165395D01*
X200948064Y-63107909D01*
X200928837Y-63050471D01*
X200909540Y-62993082D01*
X200890176Y-62935740D01*
X200870744Y-62878447D01*
X200851243Y-62821202D01*
X200831675Y-62764004D01*
X200812038Y-62706855D01*
X200792333Y-62649753D01*
X200772560Y-62592699D01*
X200752719Y-62535693D01*
X200732810Y-62478735D01*
X200712833Y-62421824D01*
X200692788Y-62364961D01*
X200672675Y-62308146D01*
X200652494Y-62251379D01*
X200632245Y-62194658D01*
X200611928Y-62137986D01*
X200591543Y-62081360D01*
X200571090Y-62024783D01*
X200550570Y-61968252D01*
X200529981Y-61911769D01*
X200509325Y-61855333D01*
X200488601Y-61798945D01*
X200467808Y-61742603D01*
X200446949Y-61686309D01*
X200426021Y-61630062D01*
X200405025Y-61573862D01*
X200383962Y-61517709D01*
X200362831Y-61461603D01*
X200341632Y-61405544D01*
X200320366Y-61349532D01*
X200299031Y-61293566D01*
X200277629Y-61237648D01*
X200256160Y-61181776D01*
X200234622Y-61125951D01*
X200213017Y-61070173D01*
X200191345Y-61014442D01*
X200169604Y-60958757D01*
X200147796Y-60903119D01*
X200125921Y-60847527D01*
X200103978Y-60791982D01*
X200081967Y-60736483D01*
X200059888Y-60681031D01*
X200037742Y-60625625D01*
X200015529Y-60570266D01*
X199993248Y-60514952D01*
X199970899Y-60459686D01*
X199948483Y-60404465D01*
X199925999Y-60349291D01*
X199903448Y-60294162D01*
X199880829Y-60239080D01*
X199858143Y-60184044D01*
X199835389Y-60129055D01*
X199812568Y-60074111D01*
X199789679Y-60019213D01*
X199766723Y-59964361D01*
X199743699Y-59909555D01*
X199720608Y-59854795D01*
X199697449Y-59800080D01*
X199674224Y-59745412D01*
X199650930Y-59690789D01*
X199627569Y-59636212D01*
X199604141Y-59581681D01*
X199580646Y-59527196D01*
X199557083Y-59472756D01*
X199533452Y-59418361D01*
X199509754Y-59364012D01*
X199485989Y-59309709D01*
X199462157Y-59255451D01*
X199438257Y-59201239D01*
X199414290Y-59147072D01*
X199390255Y-59092951D01*
X199366153Y-59038874D01*
X199341984Y-58984844D01*
X199317747Y-58930858D01*
X199293444Y-58876918D01*
X199269072Y-58823023D01*
X199244634Y-58769173D01*
X199220128Y-58715368D01*
X199195555Y-58661608D01*
X199170914Y-58607894D01*
X199146207Y-58554224D01*
X199121432Y-58500600D01*
X199096589Y-58447020D01*
X199071680Y-58393486D01*
X199046703Y-58339996D01*
X199021659Y-58286551D01*
X198996547Y-58233151D01*
X198971368Y-58179796D01*
X198946122Y-58126486D01*
X198920809Y-58073220D01*
X198895429Y-58020000D01*
X198869981Y-57966823D01*
X198844466Y-57913692D01*
X198818884Y-57860605D01*
X198793234Y-57807563D01*
X198767517Y-57754566D01*
X198741733Y-57701612D01*
X198715882Y-57648704D01*
X198689963Y-57595840D01*
X198663978Y-57543020D01*
X198637925Y-57490245D01*
X198611804Y-57437514D01*
X198585617Y-57384828D01*
X198559362Y-57332186D01*
X198533040Y-57279588D01*
X198506651Y-57227035D01*
X198480194Y-57174525D01*
X198453670Y-57122060D01*
X198427079Y-57069640D01*
X198400421Y-57017263D01*
X198373696Y-56964930D01*
X198346903Y-56912642D01*
X198320043Y-56860398D01*
X198293116Y-56808198D01*
X198266121Y-56756041D01*
X198239059Y-56703929D01*
X198211930Y-56651861D01*
X198184734Y-56599837D01*
X198157471Y-56547856D01*
X198130140Y-56495920D01*
X198102742Y-56444027D01*
X198075277Y-56392178D01*
X198047744Y-56340374D01*
X198020144Y-56288612D01*
X197992477Y-56236895D01*
X197964743Y-56185221D01*
X197936941Y-56133591D01*
X197909072Y-56082005D01*
X197881136Y-56030463D01*
X197853133Y-55978964D01*
X197825062Y-55927508D01*
X197796924Y-55876097D01*
X197768718Y-55824729D01*
X197740446Y-55773404D01*
X197712106Y-55722123D01*
X197683699Y-55670885D01*
X197655224Y-55619691D01*
X197626682Y-55568541D01*
X197598073Y-55517433D01*
X197569396Y-55466369D01*
X197540653Y-55415349D01*
X197511841Y-55364372D01*
X197482963Y-55313438D01*
X197454017Y-55262548D01*
X197425004Y-55211701D01*
X197395923Y-55160897D01*
X197366775Y-55110136D01*
X197337560Y-55059419D01*
X197308277Y-55008745D01*
X197278927Y-54958114D01*
X197249509Y-54907526D01*
X197220024Y-54856981D01*
X197190472Y-54806480D01*
X197160853Y-54756021D01*
X197131165Y-54705606D01*
X197101411Y-54655233D01*
X197071589Y-54604904D01*
X197041700Y-54554618D01*
X197011743Y-54504375D01*
X196981718Y-54454175D01*
X196951627Y-54404017D01*
X196921467Y-54353903D01*
X196891241Y-54303832D01*
X196860947Y-54253803D01*
X196830585Y-54203818D01*
X196800156Y-54153875D01*
X196769659Y-54103975D01*
X196739095Y-54054118D01*
X196708463Y-54004304D01*
X196677764Y-53954533D01*
X196646997Y-53904804D01*
X196616163Y-53855118D01*
X196585261Y-53805475D01*
X196554292Y-53755875D01*
X196523255Y-53706318D01*
X196492150Y-53656803D01*
X196460978Y-53607331D01*
X196429738Y-53557901D01*
X196398431Y-53508515D01*
X196367056Y-53459170D01*
X196335613Y-53409869D01*
X196304103Y-53360610D01*
X196272525Y-53311394D01*
X196240879Y-53262220D01*
X196209166Y-53213089D01*
X196177385Y-53164001D01*
X196145537Y-53114955D01*
X196113620Y-53065951D01*
X196081636Y-53016990D01*
X196049584Y-52968072D01*
X196017465Y-52919196D01*
X195985278Y-52870363D01*
X195953023Y-52821572D01*
X195920700Y-52772823D01*
X195888309Y-52724117D01*
X195855851Y-52675454D01*
X195823325Y-52626833D01*
X195790731Y-52578254D01*
X195758069Y-52529718D01*
X195725340Y-52481224D01*
X195692542Y-52432772D01*
X195659677Y-52384363D01*
X195626744Y-52335996D01*
X195593743Y-52287672D01*
X195560674Y-52239390D01*
X195527537Y-52191150D01*
X195494332Y-52142953D01*
X195461060Y-52094798D01*
X195427719Y-52046685D01*
X195394310Y-51998614D01*
X195360834Y-51950586D01*
X195327289Y-51902600D01*
X195293677Y-51854657D01*
X195259996Y-51806755D01*
X195226248Y-51758896D01*
X195192431Y-51711079D01*
X195158547Y-51663305D01*
X195124594Y-51615572D01*
X195090573Y-51567882D01*
X195056485Y-51520234D01*
X195022328Y-51472629D01*
X194988103Y-51425065D01*
X194953810Y-51377544D01*
X194919448Y-51330065D01*
X194885019Y-51282628D01*
X194850522Y-51235234D01*
X194815956Y-51187881D01*
X194781322Y-51140571D01*
X194746620Y-51093303D01*
X194711850Y-51046077D01*
X194677011Y-50998893D01*
X194642104Y-50951752D01*
X194607129Y-50904653D01*
X194572086Y-50857595D01*
X194536975Y-50810580D01*
X194501795Y-50763608D01*
X194466547Y-50716677D01*
X194431230Y-50669788D01*
X194395846Y-50622942D01*
X194360392Y-50576138D01*
X194324871Y-50529376D01*
X194289281Y-50482656D01*
X194253623Y-50435978D01*
X194217896Y-50389342D01*
X194182101Y-50342749D01*
X194146238Y-50296198D01*
X194110306Y-50249688D01*
X194074305Y-50203221D01*
X194038237Y-50156797D01*
X194002099Y-50110414D01*
X193965893Y-50064073D01*
X193929619Y-50017775D01*
X193893276Y-49971519D01*
X193856865Y-49925305D01*
X193820385Y-49879133D01*
X193783836Y-49833003D01*
X193747219Y-49786915D01*
X193710534Y-49740870D01*
X193673779Y-49694867D01*
X193636956Y-49648906D01*
X193600065Y-49602987D01*
X193563104Y-49557110D01*
X193526075Y-49511276D01*
X193488978Y-49465483D01*
X193451812Y-49419733D01*
X193414577Y-49374025D01*
X193377273Y-49328360D01*
X193339900Y-49282736D01*
X193302459Y-49237155D01*
X193264949Y-49191616D01*
X193227370Y-49146119D01*
X193189723Y-49100665D01*
X193152006Y-49055252D01*
X193114221Y-49009882D01*
X193076367Y-48964555D01*
X193038444Y-48919269D01*
X193000452Y-48874026D01*
X192962392Y-48828825D01*
X192924262Y-48783666D01*
X192886064Y-48738550D01*
X192847797Y-48693476D01*
X192809460Y-48648444D01*
X192771055Y-48603455D01*
X192732581Y-48558508D01*
X192694038Y-48513603D01*
X192655425Y-48468741D01*
X192616744Y-48423921D01*
X192577994Y-48379143D01*
X192539175Y-48334408D01*
X192500287Y-48289715D01*
X192461329Y-48245065D01*
X192422303Y-48200457D01*
X192383207Y-48155891D01*
X192344043Y-48111368D01*
X192304809Y-48066888D01*
X192265506Y-48022450D01*
X192226135Y-47978054D01*
X192186694Y-47933701D01*
X192147183Y-47889390D01*
X192107604Y-47845122D01*
X192067955Y-47800897D01*
X192028238Y-47756714D01*
X191988451Y-47712574D01*
X191948594Y-47668476D01*
X191908669Y-47624421D01*
X191868674Y-47580408D01*
X191828610Y-47536439D01*
X191788477Y-47492511D01*
X191748274Y-47448627D01*
X191708003Y-47404785D01*
X191667662Y-47360986D01*
X191627251Y-47317230D01*
X191586771Y-47273516D01*
X191546222Y-47229845D01*
X191505604Y-47186217D01*
X191464916Y-47142632D01*
X191424159Y-47099090D01*
X191383332Y-47055590D01*
X191342436Y-47012133D01*
X191301471Y-46968720D01*
X191260436Y-46925349D01*
X191219332Y-46882021D01*
X191178158Y-46838736D01*
X191136915Y-46795494D01*
X191095602Y-46752295D01*
X191054220Y-46709139D01*
X191012769Y-46666026D01*
X190971248Y-46622956D01*
X190929657Y-46579929D01*
X190887997Y-46536945D01*
X190846268Y-46494004D01*
X190804469Y-46451107D01*
X190762600Y-46408253D01*
X190720662Y-46365442D01*
X190678654Y-46322674D01*
X190636577Y-46279949D01*
X190594430Y-46237268D01*
X190552214Y-46194630D01*
X190509928Y-46152035D01*
X190467573Y-46109484D01*
X190425147Y-46066976D01*
X190382653Y-46024511D01*
X190340088Y-45982090D01*
X190297454Y-45939713D01*
X190254751Y-45897378D01*
X190211977Y-45855088D01*
X190169135Y-45812841D01*
X190126222Y-45770637D01*
X190083240Y-45728477D01*
X190040188Y-45686361D01*
X189997067Y-45644289D01*
X189953875Y-45602260D01*
X189910615Y-45560275D01*
X189867284Y-45518333D01*
X189823884Y-45476436D01*
X189780414Y-45434582D01*
X189736874Y-45392772D01*
X189693265Y-45351006D01*
X189649586Y-45309284D01*
X189605838Y-45267606D01*
X189562019Y-45225972D01*
X189518131Y-45184382D01*
X189474173Y-45142836D01*
X189430146Y-45101334D01*
X189386049Y-45059876D01*
X189341882Y-45018463D01*
X189297645Y-44977093D01*
X189253339Y-44935768D01*
X189208963Y-44894487D01*
X189164517Y-44853251D01*
X189120002Y-44812058D01*
X189075416Y-44770910D01*
X189030762Y-44729807D01*
X188986037Y-44688748D01*
X188941243Y-44647734D01*
X188896378Y-44606764D01*
X188851445Y-44565838D01*
X188806441Y-44524958D01*
X188761368Y-44484121D01*
X188716225Y-44443330D01*
X188671013Y-44402583D01*
X188625730Y-44361882D01*
X188580378Y-44321225D01*
X188534957Y-44280612D01*
X188489465Y-44240045D01*
X188443904Y-44199523D01*
X188398273Y-44159045D01*
X188352573Y-44118613D01*
X188306803Y-44078226D01*
X188260963Y-44037884D01*
X188215054Y-43997587D01*
X188169075Y-43957335D01*
X188123026Y-43917129D01*
X188076908Y-43876968D01*
X188030720Y-43836852D01*
X187984462Y-43796781D01*
X187938135Y-43756756D01*
X187891738Y-43716777D01*
X187845272Y-43676843D01*
X187798736Y-43636955D01*
X187752130Y-43597112D01*
X187705455Y-43557315D01*
X187658711Y-43517563D01*
X187611897Y-43477858D01*
X187565013Y-43438198D01*
X187518060Y-43398584D01*
X187471037Y-43359017D01*
X187423945Y-43319495D01*
X187376783Y-43280019D01*
X187329552Y-43240589D01*
X187282252Y-43201205D01*
X187234882Y-43161868D01*
X187187442Y-43122577D01*
X187139934Y-43083332D01*
X187092356Y-43044133D01*
X187044708Y-43004981D01*
X186996991Y-42965876D01*
X186949205Y-42926817D01*
X186901350Y-42887804D01*
X186853425Y-42848838D01*
X186805431Y-42809919D01*
X186757368Y-42771046D01*
X186709236Y-42732221D01*
X186661034Y-42693442D01*
X186612763Y-42654710D01*
X186564424Y-42616025D01*
X186516015Y-42577387D01*
X186467536Y-42538797D01*
X186418989Y-42500253D01*
X186370373Y-42461757D01*
X186321688Y-42423308D01*
X186272934Y-42384906D01*
X186224110Y-42346552D01*
X186175218Y-42308245D01*
X186126257Y-42269985D01*
X186077227Y-42231774D01*
X186028129Y-42193610D01*
X185978961Y-42155493D01*
X185929725Y-42117425D01*
X185880419Y-42079404D01*
X185831046Y-42041431D01*
X185781603Y-42003506D01*
X185732092Y-41965630D01*
X185682512Y-41927801D01*
X185632864Y-41890021D01*
X185583147Y-41852288D01*
X185533361Y-41814605D01*
X185483507Y-41776969D01*
X185433585Y-41739382D01*
X185383594Y-41701844D01*
X185333535Y-41664354D01*
X185283408Y-41626913D01*
X185233212Y-41589520D01*
X185182948Y-41552177D01*
X185132616Y-41514882D01*
X185082216Y-41477636D01*
X185031748Y-41440440D01*
X184981212Y-41403292D01*
X184930607Y-41366194D01*
X184879935Y-41329145D01*
X184829195Y-41292145D01*
X184778387Y-41255195D01*
X184727511Y-41218294D01*
X184676568Y-41181442D01*
X184625556Y-41144641D01*
X184574478Y-41107889D01*
X184523331Y-41071187D01*
X184472117Y-41034535D01*
X184420836Y-40997932D01*
X184369487Y-40961380D01*
X184318070Y-40924878D01*
X184266587Y-40888426D01*
X184215036Y-40852025D01*
X184163418Y-40815674D01*
X184111733Y-40779373D01*
X184059981Y-40743123D01*
X184008162Y-40706923D01*
X183956276Y-40670775D01*
X183904323Y-40634677D01*
X183852303Y-40598630D01*
X183800217Y-40562633D01*
X183748064Y-40526688D01*
X183695844Y-40490794D01*
X183643558Y-40454952D01*
X183591205Y-40419160D01*
X183538786Y-40383421D01*
X183486301Y-40347732D01*
X183433749Y-40312095D01*
X183381132Y-40276510D01*
X183328448Y-40240977D01*
X183275699Y-40205495D01*
X183222883Y-40170066D01*
X183170002Y-40134688D01*
X183117055Y-40099363D01*
X183064042Y-40064090D01*
X183010964Y-40028870D01*
X182957820Y-39993701D01*
X182904611Y-39958586D01*
X182851337Y-39923523D01*
X182797998Y-39888512D01*
X182744593Y-39853555D01*
X182691124Y-39818651D01*
X182637589Y-39783799D01*
X182583990Y-39749001D01*
X182530326Y-39714256D01*
X182476597Y-39679564D01*
X182422804Y-39644926D01*
X182368947Y-39610341D01*
X182315025Y-39575810D01*
X182261039Y-39541333D01*
X182206989Y-39506909D01*
X182152876Y-39472540D01*
X182098698Y-39438225D01*
X182044456Y-39403964D01*
X181990151Y-39369757D01*
X181935783Y-39335604D01*
X181881351Y-39301506D01*
X181826855Y-39267463D01*
X181772297Y-39233475D01*
X181717675Y-39199541D01*
X181662991Y-39165662D01*
X181608244Y-39131839D01*
X181553434Y-39098070D01*
X181498562Y-39064357D01*
X181443628Y-39030700D01*
X181388631Y-38997098D01*
X181333572Y-38963551D01*
X181278451Y-38930061D01*
X181223269Y-38896626D01*
X181168024Y-38863247D01*
X181112718Y-38829925D01*
X181057351Y-38796659D01*
X181001923Y-38763449D01*
X180946433Y-38730296D01*
X180890883Y-38697199D01*
X180835272Y-38664159D01*
X180779600Y-38631176D01*
X180723867Y-38598250D01*
X180668075Y-38565381D01*
X180612222Y-38532570D01*
X180556309Y-38499816D01*
X180500337Y-38467119D01*
X180444305Y-38434480D01*
X180388213Y-38401899D01*
X180332063Y-38369376D01*
X180275853Y-38336911D01*
X180219584Y-38304504D01*
X180163256Y-38272155D01*
X180106870Y-38239865D01*
X180050426Y-38207634D01*
X179993923Y-38175461D01*
X179937363Y-38143347D01*
X179880744Y-38111293D01*
X179824069Y-38079297D01*
X179767335Y-38047361D01*
X179710545Y-38015484D01*
X179653697Y-37983667D01*
X179596793Y-37951910D01*
X179539833Y-37920212D01*
X179482816Y-37888575D01*
X179425743Y-37856998D01*
X179368614Y-37825481D01*
X179311429Y-37794024D01*
X179254189Y-37762629D01*
X179196894Y-37731294D01*
X179139544Y-37700020D01*
X179082139Y-37668807D01*
X179024679Y-37637656D01*
X178967166Y-37606565D01*
X178909598Y-37575537D01*
X178851977Y-37544570D01*
X178794302Y-37513665D01*
X178736574Y-37482823D01*
X178678793Y-37452042D01*
X178620959Y-37421324D01*
X178563073Y-37390668D01*
X178505135Y-37360076D01*
X178447145Y-37329546D01*
X178389103Y-37299079D01*
X178331010Y-37268675D01*
X178272866Y-37238335D01*
X178214672Y-37208058D01*
X178156426Y-37177846D01*
X178098131Y-37147697D01*
X178039786Y-37117612D01*
X177981391Y-37087591D01*
X177922947Y-37057635D01*
X177864454Y-37027744D01*
X177805913Y-36997918D01*
X177747324Y-36968156D01*
X177688686Y-36938460D01*
X177630001Y-36908829D01*
X177571269Y-36879264D01*
X177512489Y-36849764D01*
X177453664Y-36820331D01*
X177394792Y-36790963D01*
X177335874Y-36761662D01*
X177276911Y-36732428D01*
X177217902Y-36703260D01*
X177158849Y-36674159D01*
X177099752Y-36645125D01*
X177040611Y-36616159D01*
X176981426Y-36587260D01*
X176922198Y-36558429D01*
X176862927Y-36529666D01*
X176803614Y-36500971D01*
X176744259Y-36472345D01*
X176684862Y-36443787D01*
X176625424Y-36415298D01*
X176565946Y-36386877D01*
X176506427Y-36358527D01*
X176446869Y-36330245D01*
X176387271Y-36302033D01*
X176327634Y-36273892D01*
X176267959Y-36245820D01*
X176208246Y-36217818D01*
X176148496Y-36189888D01*
X176088709Y-36162028D01*
X176028885Y-36134239D01*
X175969025Y-36106521D01*
X175909129Y-36078875D01*
X175849199Y-36051301D01*
X175789234Y-36023798D01*
X175729235Y-35996368D01*
X175669203Y-35969010D01*
X175609138Y-35941725D01*
X175549041Y-35914513D01*
X175488912Y-35887374D01*
X175428752Y-35860309D01*
X175368561Y-35833318D01*
X175308341Y-35806400D01*
X175248091Y-35779557D01*
X175187812Y-35752788D01*
X175127505Y-35726094D01*
X175067170Y-35699475D01*
X175006808Y-35672931D01*
X174946420Y-35646463D01*
X174886007Y-35620071D01*
X174825569Y-35593755D01*
X174765106Y-35567515D01*
X174704619Y-35541353D01*
X174644110Y-35515267D01*
X174583579Y-35489258D01*
X174523026Y-35463327D01*
X174462452Y-35437474D01*
X174401858Y-35411699D01*
X174341245Y-35386002D01*
X174280613Y-35360385D01*
X174219964Y-35334846D01*
X174159298Y-35309387D01*
X174098615Y-35284007D01*
X174037917Y-35258708D01*
X173977205Y-35233489D01*
X173916479Y-35208350D01*
X173855740Y-35183293D01*
X173794990Y-35158317D01*
X173734228Y-35133422D01*
X173673456Y-35108610D01*
X173612674Y-35083880D01*
X173551885Y-35059232D01*
X173491088Y-35034668D01*
X173430284Y-35010187D01*
X173369475Y-34985789D01*
X173308662Y-34961476D01*
X173247845Y-34937248D01*
X173187026Y-34913104D01*
X173126205Y-34889045D01*
X173065384Y-34865072D01*
X173004564Y-34841185D01*
X172943746Y-34817385D01*
X172882930Y-34793671D01*
X172822119Y-34770044D01*
X172761313Y-34746505D01*
X172700514Y-34723054D01*
X172639722Y-34699691D01*
X172578939Y-34676417D01*
X172518166Y-34653232D01*
X172457405Y-34630137D01*
X172396657Y-34607132D01*
X172335922Y-34584218D01*
X172275203Y-34561394D01*
X172214501Y-34538662D01*
X172153817Y-34516022D01*
X172093152Y-34493474D01*
X172032508Y-34471019D01*
X171971888Y-34448657D01*
X171911291Y-34426389D01*
X171850719Y-34404215D01*
X171790175Y-34382136D01*
X171729660Y-34360152D01*
X171669175Y-34338264D01*
X171608722Y-34316473D01*
X171548303Y-34294778D01*
X171487919Y-34273181D01*
X171427573Y-34251681D01*
X171367266Y-34230280D01*
X171307000Y-34208978D01*
X171246776Y-34187775D01*
X171186598Y-34166673D01*
X171126466Y-34145672D01*
X171066383Y-34124771D01*
X171006351Y-34103973D01*
X170946372Y-34083278D01*
X170886448Y-34062685D01*
X170826582Y-34042197D01*
X170766775Y-34021813D01*
X170707030Y-34001534D01*
X170647349Y-33981361D01*
X170587736Y-33961295D01*
X170528191Y-33941335D01*
X170468718Y-33921484D01*
X170409320Y-33901742D01*
X170349999Y-33882108D01*
X170290757Y-33862586D01*
X170231598Y-33843174D01*
X170172525Y-33823873D01*
X170113540Y-33804686D01*
X170054647Y-33785611D01*
X169995848Y-33766651D01*
X169937147Y-33747806D01*
X169878547Y-33729077D01*
X169820052Y-33710465D01*
X169761665Y-33691970D01*
X169703389Y-33673594D01*
X169645228Y-33655338D01*
X169587187Y-33637202D01*
X169529268Y-33619188D01*
X169471477Y-33601297D01*
X169413816Y-33583529D01*
X169356291Y-33565886D01*
X169298906Y-33548369D01*
X169241664Y-33530979D01*
X169184572Y-33513717D01*
X169127634Y-33496584D01*
X169070854Y-33479582D01*
X169014238Y-33462712D01*
X168957792Y-33445976D01*
X168901520Y-33429373D01*
X168845429Y-33412907D01*
X168789524Y-33396578D01*
X168733813Y-33380388D01*
X168678300Y-33364338D01*
X168622992Y-33348430D01*
X168567898Y-33332665D01*
X168513023Y-33317046D01*
X168458375Y-33301574D01*
X168403962Y-33286250D01*
X168349793Y-33271078D01*
X168295875Y-33256057D01*
X168242217Y-33241192D01*
X168188829Y-33226483D01*
X168135720Y-33211933D01*
X168082900Y-33197544D01*
X168030381Y-33183318D01*
X167978173Y-33169259D01*
X167926287Y-33155368D01*
X167874738Y-33141649D01*
X167823536Y-33128104D01*
X167772697Y-33114736D01*
X167722234Y-33101549D01*
X167672164Y-33088546D01*
X167622503Y-33075730D01*
X167573267Y-33063105D01*
X167524477Y-33050675D01*
X167476152Y-33038445D01*
X167428314Y-33026419D01*
X167380985Y-33014602D01*
X167334190Y-33002998D01*
X167287957Y-32991615D01*
X167242315Y-32980457D01*
X167197295Y-32969532D01*
X167152933Y-32958846D01*
X167109267Y-32948408D01*
X167066341Y-32938227D01*
X167024202Y-32928311D01*
X166982902Y-32918673D01*
X166942504Y-32909324D01*
X166903077Y-32900278D01*
X166864699Y-32891552D01*
X166827466Y-32883164D01*
X166791489Y-32875136D01*
X166756903Y-32867496D01*
X166723877Y-32860276D01*
X166692627Y-32853519D01*
X166663441Y-32847283D01*
X166636728Y-32841646D01*
X166613120Y-32836733D01*
X166593745Y-32832763D01*
X166580000Y-32830000D01*
D10*
X203540000Y-91950577D02*
X203540000Y-80040000D01*
M02*
