%TF.GenerationSoftware,KiCad,Pcbnew,10.0.1*%
%TF.CreationDate,2026-05-02T16:28:35+05:30*%
%TF.ProjectId,HSM_Project,48534d5f-5072-46f6-9a65-63742e6b6963,rev?*%
%TF.SameCoordinates,Original*%
%TF.FileFunction,Legend,Bot*%
%TF.FilePolarity,Positive*%
%FSLAX46Y46*%
G04 Gerber Fmt 4.6, Leading zero omitted, Abs format (unit mm)*
G04 Created by KiCad (PCBNEW 10.0.1) date 2026-05-02 16:28:35*
%MOMM*%
%LPD*%
G01*
G04 APERTURE LIST*
%ADD10C,0.100000*%
%ADD11C,0.150000*%
%ADD12C,0.120000*%
G04 APERTURE END LIST*
D10*
X117225000Y-104610000D02*
X132605000Y-104610000D01*
X132605000Y-116320000D01*
X117225000Y-116320000D01*
X117225000Y-104610000D01*
X131504687Y-106177348D02*
X131552306Y-106224968D01*
X131552306Y-106224968D02*
X131695163Y-106272587D01*
X131695163Y-106272587D02*
X131790401Y-106272587D01*
X131790401Y-106272587D02*
X131933258Y-106224968D01*
X131933258Y-106224968D02*
X132028496Y-106129729D01*
X132028496Y-106129729D02*
X132076115Y-106034491D01*
X132076115Y-106034491D02*
X132123734Y-105844015D01*
X132123734Y-105844015D02*
X132123734Y-105701158D01*
X132123734Y-105701158D02*
X132076115Y-105510682D01*
X132076115Y-105510682D02*
X132028496Y-105415444D01*
X132028496Y-105415444D02*
X131933258Y-105320206D01*
X131933258Y-105320206D02*
X131790401Y-105272587D01*
X131790401Y-105272587D02*
X131695163Y-105272587D01*
X131695163Y-105272587D02*
X131552306Y-105320206D01*
X131552306Y-105320206D02*
X131504687Y-105367825D01*
X130885639Y-105272587D02*
X130695163Y-105272587D01*
X130695163Y-105272587D02*
X130599925Y-105320206D01*
X130599925Y-105320206D02*
X130504687Y-105415444D01*
X130504687Y-105415444D02*
X130457068Y-105605920D01*
X130457068Y-105605920D02*
X130457068Y-105939253D01*
X130457068Y-105939253D02*
X130504687Y-106129729D01*
X130504687Y-106129729D02*
X130599925Y-106224968D01*
X130599925Y-106224968D02*
X130695163Y-106272587D01*
X130695163Y-106272587D02*
X130885639Y-106272587D01*
X130885639Y-106272587D02*
X130980877Y-106224968D01*
X130980877Y-106224968D02*
X131076115Y-106129729D01*
X131076115Y-106129729D02*
X131123734Y-105939253D01*
X131123734Y-105939253D02*
X131123734Y-105605920D01*
X131123734Y-105605920D02*
X131076115Y-105415444D01*
X131076115Y-105415444D02*
X130980877Y-105320206D01*
X130980877Y-105320206D02*
X130885639Y-105272587D01*
X130028496Y-106272587D02*
X130028496Y-105272587D01*
X130028496Y-105272587D02*
X129457068Y-106272587D01*
X129457068Y-106272587D02*
X129457068Y-105272587D01*
X129123734Y-105272587D02*
X128552306Y-105272587D01*
X128838020Y-106272587D02*
X128838020Y-105272587D01*
X127647544Y-106272587D02*
X127980877Y-105796396D01*
X128218972Y-106272587D02*
X128218972Y-105272587D01*
X128218972Y-105272587D02*
X127838020Y-105272587D01*
X127838020Y-105272587D02*
X127742782Y-105320206D01*
X127742782Y-105320206D02*
X127695163Y-105367825D01*
X127695163Y-105367825D02*
X127647544Y-105463063D01*
X127647544Y-105463063D02*
X127647544Y-105605920D01*
X127647544Y-105605920D02*
X127695163Y-105701158D01*
X127695163Y-105701158D02*
X127742782Y-105748777D01*
X127742782Y-105748777D02*
X127838020Y-105796396D01*
X127838020Y-105796396D02*
X128218972Y-105796396D01*
X127218972Y-106272587D02*
X127218972Y-105272587D01*
X126409449Y-105748777D02*
X126266592Y-105796396D01*
X126266592Y-105796396D02*
X126218973Y-105844015D01*
X126218973Y-105844015D02*
X126171354Y-105939253D01*
X126171354Y-105939253D02*
X126171354Y-106082110D01*
X126171354Y-106082110D02*
X126218973Y-106177348D01*
X126218973Y-106177348D02*
X126266592Y-106224968D01*
X126266592Y-106224968D02*
X126361830Y-106272587D01*
X126361830Y-106272587D02*
X126742782Y-106272587D01*
X126742782Y-106272587D02*
X126742782Y-105272587D01*
X126742782Y-105272587D02*
X126409449Y-105272587D01*
X126409449Y-105272587D02*
X126314211Y-105320206D01*
X126314211Y-105320206D02*
X126266592Y-105367825D01*
X126266592Y-105367825D02*
X126218973Y-105463063D01*
X126218973Y-105463063D02*
X126218973Y-105558301D01*
X126218973Y-105558301D02*
X126266592Y-105653539D01*
X126266592Y-105653539D02*
X126314211Y-105701158D01*
X126314211Y-105701158D02*
X126409449Y-105748777D01*
X126409449Y-105748777D02*
X126742782Y-105748777D01*
X125742782Y-105272587D02*
X125742782Y-106082110D01*
X125742782Y-106082110D02*
X125695163Y-106177348D01*
X125695163Y-106177348D02*
X125647544Y-106224968D01*
X125647544Y-106224968D02*
X125552306Y-106272587D01*
X125552306Y-106272587D02*
X125361830Y-106272587D01*
X125361830Y-106272587D02*
X125266592Y-106224968D01*
X125266592Y-106224968D02*
X125218973Y-106177348D01*
X125218973Y-106177348D02*
X125171354Y-106082110D01*
X125171354Y-106082110D02*
X125171354Y-105272587D01*
X124838020Y-105272587D02*
X124266592Y-105272587D01*
X124552306Y-106272587D02*
X124552306Y-105272587D01*
X123742782Y-105272587D02*
X123552306Y-105272587D01*
X123552306Y-105272587D02*
X123457068Y-105320206D01*
X123457068Y-105320206D02*
X123361830Y-105415444D01*
X123361830Y-105415444D02*
X123314211Y-105605920D01*
X123314211Y-105605920D02*
X123314211Y-105939253D01*
X123314211Y-105939253D02*
X123361830Y-106129729D01*
X123361830Y-106129729D02*
X123457068Y-106224968D01*
X123457068Y-106224968D02*
X123552306Y-106272587D01*
X123552306Y-106272587D02*
X123742782Y-106272587D01*
X123742782Y-106272587D02*
X123838020Y-106224968D01*
X123838020Y-106224968D02*
X123933258Y-106129729D01*
X123933258Y-106129729D02*
X123980877Y-105939253D01*
X123980877Y-105939253D02*
X123980877Y-105605920D01*
X123980877Y-105605920D02*
X123933258Y-105415444D01*
X123933258Y-105415444D02*
X123838020Y-105320206D01*
X123838020Y-105320206D02*
X123742782Y-105272587D01*
X122314211Y-106272587D02*
X122647544Y-105796396D01*
X122885639Y-106272587D02*
X122885639Y-105272587D01*
X122885639Y-105272587D02*
X122504687Y-105272587D01*
X122504687Y-105272587D02*
X122409449Y-105320206D01*
X122409449Y-105320206D02*
X122361830Y-105367825D01*
X122361830Y-105367825D02*
X122314211Y-105463063D01*
X122314211Y-105463063D02*
X122314211Y-105605920D01*
X122314211Y-105605920D02*
X122361830Y-105701158D01*
X122361830Y-105701158D02*
X122409449Y-105748777D01*
X122409449Y-105748777D02*
X122504687Y-105796396D01*
X122504687Y-105796396D02*
X122885639Y-105796396D01*
X121933258Y-106224968D02*
X121790401Y-106272587D01*
X121790401Y-106272587D02*
X121552306Y-106272587D01*
X121552306Y-106272587D02*
X121457068Y-106224968D01*
X121457068Y-106224968D02*
X121409449Y-106177348D01*
X121409449Y-106177348D02*
X121361830Y-106082110D01*
X121361830Y-106082110D02*
X121361830Y-105986872D01*
X121361830Y-105986872D02*
X121409449Y-105891634D01*
X121409449Y-105891634D02*
X121457068Y-105844015D01*
X121457068Y-105844015D02*
X121552306Y-105796396D01*
X121552306Y-105796396D02*
X121742782Y-105748777D01*
X121742782Y-105748777D02*
X121838020Y-105701158D01*
X121838020Y-105701158D02*
X121885639Y-105653539D01*
X121885639Y-105653539D02*
X121933258Y-105558301D01*
X121933258Y-105558301D02*
X121933258Y-105463063D01*
X121933258Y-105463063D02*
X121885639Y-105367825D01*
X121885639Y-105367825D02*
X121838020Y-105320206D01*
X121838020Y-105320206D02*
X121742782Y-105272587D01*
X121742782Y-105272587D02*
X121504687Y-105272587D01*
X121504687Y-105272587D02*
X121361830Y-105320206D01*
X120933258Y-106177348D02*
X120885639Y-106224968D01*
X120885639Y-106224968D02*
X120933258Y-106272587D01*
X120933258Y-106272587D02*
X120980877Y-106224968D01*
X120980877Y-106224968D02*
X120933258Y-106177348D01*
X120933258Y-106177348D02*
X120933258Y-106272587D01*
X120933258Y-105653539D02*
X120885639Y-105701158D01*
X120885639Y-105701158D02*
X120933258Y-105748777D01*
X120933258Y-105748777D02*
X120980877Y-105701158D01*
X120980877Y-105701158D02*
X120933258Y-105653539D01*
X120933258Y-105653539D02*
X120933258Y-105748777D01*
X132076115Y-107882531D02*
X132076115Y-106882531D01*
X132076115Y-106882531D02*
X131838020Y-106882531D01*
X131838020Y-106882531D02*
X131695163Y-106930150D01*
X131695163Y-106930150D02*
X131599925Y-107025388D01*
X131599925Y-107025388D02*
X131552306Y-107120626D01*
X131552306Y-107120626D02*
X131504687Y-107311102D01*
X131504687Y-107311102D02*
X131504687Y-107453959D01*
X131504687Y-107453959D02*
X131552306Y-107644435D01*
X131552306Y-107644435D02*
X131599925Y-107739673D01*
X131599925Y-107739673D02*
X131695163Y-107834912D01*
X131695163Y-107834912D02*
X131838020Y-107882531D01*
X131838020Y-107882531D02*
X132076115Y-107882531D01*
X131123734Y-107596816D02*
X130647544Y-107596816D01*
X131218972Y-107882531D02*
X130885639Y-106882531D01*
X130885639Y-106882531D02*
X130552306Y-107882531D01*
X130218972Y-107882531D02*
X130218972Y-106882531D01*
X129885639Y-106882531D02*
X129552306Y-107882531D01*
X129552306Y-107882531D02*
X129218973Y-106882531D01*
X128885639Y-107882531D02*
X128885639Y-106882531D01*
X128409449Y-107882531D02*
X128409449Y-106882531D01*
X127838021Y-107882531D02*
X128266592Y-107311102D01*
X127838021Y-106882531D02*
X128409449Y-107453959D01*
X126647544Y-107882531D02*
X126647544Y-106882531D01*
X126647544Y-106882531D02*
X126076116Y-107882531D01*
X126076116Y-107882531D02*
X126076116Y-106882531D01*
X125599925Y-107358721D02*
X125266592Y-107358721D01*
X125123735Y-107882531D02*
X125599925Y-107882531D01*
X125599925Y-107882531D02*
X125599925Y-106882531D01*
X125599925Y-106882531D02*
X125123735Y-106882531D01*
X124504687Y-106882531D02*
X124314211Y-106882531D01*
X124314211Y-106882531D02*
X124218973Y-106930150D01*
X124218973Y-106930150D02*
X124123735Y-107025388D01*
X124123735Y-107025388D02*
X124076116Y-107215864D01*
X124076116Y-107215864D02*
X124076116Y-107549197D01*
X124076116Y-107549197D02*
X124123735Y-107739673D01*
X124123735Y-107739673D02*
X124218973Y-107834912D01*
X124218973Y-107834912D02*
X124314211Y-107882531D01*
X124314211Y-107882531D02*
X124504687Y-107882531D01*
X124504687Y-107882531D02*
X124599925Y-107834912D01*
X124599925Y-107834912D02*
X124695163Y-107739673D01*
X124695163Y-107739673D02*
X124742782Y-107549197D01*
X124742782Y-107549197D02*
X124742782Y-107215864D01*
X124742782Y-107215864D02*
X124695163Y-107025388D01*
X124695163Y-107025388D02*
X124599925Y-106930150D01*
X124599925Y-106930150D02*
X124504687Y-106882531D01*
X123123735Y-106930150D02*
X123218973Y-106882531D01*
X123218973Y-106882531D02*
X123361830Y-106882531D01*
X123361830Y-106882531D02*
X123504687Y-106930150D01*
X123504687Y-106930150D02*
X123599925Y-107025388D01*
X123599925Y-107025388D02*
X123647544Y-107120626D01*
X123647544Y-107120626D02*
X123695163Y-107311102D01*
X123695163Y-107311102D02*
X123695163Y-107453959D01*
X123695163Y-107453959D02*
X123647544Y-107644435D01*
X123647544Y-107644435D02*
X123599925Y-107739673D01*
X123599925Y-107739673D02*
X123504687Y-107834912D01*
X123504687Y-107834912D02*
X123361830Y-107882531D01*
X123361830Y-107882531D02*
X123266592Y-107882531D01*
X123266592Y-107882531D02*
X123123735Y-107834912D01*
X123123735Y-107834912D02*
X123076116Y-107787292D01*
X123076116Y-107787292D02*
X123076116Y-107453959D01*
X123076116Y-107453959D02*
X123266592Y-107453959D01*
X122647544Y-107882531D02*
X122647544Y-106882531D01*
X132123734Y-109444856D02*
X131980877Y-109492475D01*
X131980877Y-109492475D02*
X131742782Y-109492475D01*
X131742782Y-109492475D02*
X131647544Y-109444856D01*
X131647544Y-109444856D02*
X131599925Y-109397236D01*
X131599925Y-109397236D02*
X131552306Y-109301998D01*
X131552306Y-109301998D02*
X131552306Y-109206760D01*
X131552306Y-109206760D02*
X131599925Y-109111522D01*
X131599925Y-109111522D02*
X131647544Y-109063903D01*
X131647544Y-109063903D02*
X131742782Y-109016284D01*
X131742782Y-109016284D02*
X131933258Y-108968665D01*
X131933258Y-108968665D02*
X132028496Y-108921046D01*
X132028496Y-108921046D02*
X132076115Y-108873427D01*
X132076115Y-108873427D02*
X132123734Y-108778189D01*
X132123734Y-108778189D02*
X132123734Y-108682951D01*
X132123734Y-108682951D02*
X132076115Y-108587713D01*
X132076115Y-108587713D02*
X132028496Y-108540094D01*
X132028496Y-108540094D02*
X131933258Y-108492475D01*
X131933258Y-108492475D02*
X131695163Y-108492475D01*
X131695163Y-108492475D02*
X131552306Y-108540094D01*
X131123734Y-108492475D02*
X131123734Y-109301998D01*
X131123734Y-109301998D02*
X131076115Y-109397236D01*
X131076115Y-109397236D02*
X131028496Y-109444856D01*
X131028496Y-109444856D02*
X130933258Y-109492475D01*
X130933258Y-109492475D02*
X130742782Y-109492475D01*
X130742782Y-109492475D02*
X130647544Y-109444856D01*
X130647544Y-109444856D02*
X130599925Y-109397236D01*
X130599925Y-109397236D02*
X130552306Y-109301998D01*
X130552306Y-109301998D02*
X130552306Y-108492475D01*
X130218972Y-108492475D02*
X129647544Y-108492475D01*
X129933258Y-109492475D02*
X129933258Y-108492475D01*
X129314210Y-108968665D02*
X128980877Y-108968665D01*
X128838020Y-109492475D02*
X129314210Y-109492475D01*
X129314210Y-109492475D02*
X129314210Y-108492475D01*
X129314210Y-108492475D02*
X128838020Y-108492475D01*
X128123734Y-108492475D02*
X128123734Y-109206760D01*
X128123734Y-109206760D02*
X128171353Y-109349617D01*
X128171353Y-109349617D02*
X128266591Y-109444856D01*
X128266591Y-109444856D02*
X128409448Y-109492475D01*
X128409448Y-109492475D02*
X128504686Y-109492475D01*
X126933257Y-109444856D02*
X126790400Y-109492475D01*
X126790400Y-109492475D02*
X126552305Y-109492475D01*
X126552305Y-109492475D02*
X126457067Y-109444856D01*
X126457067Y-109444856D02*
X126409448Y-109397236D01*
X126409448Y-109397236D02*
X126361829Y-109301998D01*
X126361829Y-109301998D02*
X126361829Y-109206760D01*
X126361829Y-109206760D02*
X126409448Y-109111522D01*
X126409448Y-109111522D02*
X126457067Y-109063903D01*
X126457067Y-109063903D02*
X126552305Y-109016284D01*
X126552305Y-109016284D02*
X126742781Y-108968665D01*
X126742781Y-108968665D02*
X126838019Y-108921046D01*
X126838019Y-108921046D02*
X126885638Y-108873427D01*
X126885638Y-108873427D02*
X126933257Y-108778189D01*
X126933257Y-108778189D02*
X126933257Y-108682951D01*
X126933257Y-108682951D02*
X126885638Y-108587713D01*
X126885638Y-108587713D02*
X126838019Y-108540094D01*
X126838019Y-108540094D02*
X126742781Y-108492475D01*
X126742781Y-108492475D02*
X126504686Y-108492475D01*
X126504686Y-108492475D02*
X126361829Y-108540094D01*
X125933257Y-109492475D02*
X125933257Y-108492475D01*
X125933257Y-108968665D02*
X125361829Y-108968665D01*
X125361829Y-109492475D02*
X125361829Y-108492475D01*
X124885638Y-108968665D02*
X124552305Y-108968665D01*
X124409448Y-109492475D02*
X124885638Y-109492475D01*
X124885638Y-109492475D02*
X124885638Y-108492475D01*
X124885638Y-108492475D02*
X124409448Y-108492475D01*
X124123733Y-108492475D02*
X123552305Y-108492475D01*
X123838019Y-109492475D02*
X123838019Y-108492475D01*
X123361828Y-108492475D02*
X122790400Y-108492475D01*
X123076114Y-109492475D02*
X123076114Y-108492475D01*
X122266590Y-109016284D02*
X122266590Y-109492475D01*
X122599923Y-108492475D02*
X122266590Y-109016284D01*
X122266590Y-109016284D02*
X121933257Y-108492475D01*
X132076115Y-111102419D02*
X132076115Y-110102419D01*
X131504687Y-111102419D02*
X131933258Y-110530990D01*
X131504687Y-110102419D02*
X132076115Y-110673847D01*
X131123734Y-110816704D02*
X130647544Y-110816704D01*
X131218972Y-111102419D02*
X130885639Y-110102419D01*
X130885639Y-110102419D02*
X130552306Y-111102419D01*
X130218972Y-111102419D02*
X130218972Y-110102419D01*
X130218972Y-110102419D02*
X129838020Y-110102419D01*
X129838020Y-110102419D02*
X129742782Y-110150038D01*
X129742782Y-110150038D02*
X129695163Y-110197657D01*
X129695163Y-110197657D02*
X129647544Y-110292895D01*
X129647544Y-110292895D02*
X129647544Y-110435752D01*
X129647544Y-110435752D02*
X129695163Y-110530990D01*
X129695163Y-110530990D02*
X129742782Y-110578609D01*
X129742782Y-110578609D02*
X129838020Y-110626228D01*
X129838020Y-110626228D02*
X130218972Y-110626228D01*
X129218972Y-111102419D02*
X129218972Y-110102419D01*
X128266592Y-111102419D02*
X128742782Y-111102419D01*
X128742782Y-111102419D02*
X128742782Y-110102419D01*
X127933258Y-111102419D02*
X127933258Y-110102419D01*
X127933258Y-110102419D02*
X127599925Y-110816704D01*
X127599925Y-110816704D02*
X127266592Y-110102419D01*
X127266592Y-110102419D02*
X127266592Y-111102419D01*
X126790401Y-110578609D02*
X126457068Y-110578609D01*
X126314211Y-111102419D02*
X126790401Y-111102419D01*
X126790401Y-111102419D02*
X126790401Y-110102419D01*
X126790401Y-110102419D02*
X126314211Y-110102419D01*
X125885639Y-110578609D02*
X125552306Y-110578609D01*
X125409449Y-111102419D02*
X125885639Y-111102419D01*
X125885639Y-111102419D02*
X125885639Y-110102419D01*
X125885639Y-110102419D02*
X125409449Y-110102419D01*
X125123734Y-110102419D02*
X124552306Y-110102419D01*
X124838020Y-111102419D02*
X124838020Y-110102419D01*
X123504686Y-111054800D02*
X123361829Y-111102419D01*
X123361829Y-111102419D02*
X123123734Y-111102419D01*
X123123734Y-111102419D02*
X123028496Y-111054800D01*
X123028496Y-111054800D02*
X122980877Y-111007180D01*
X122980877Y-111007180D02*
X122933258Y-110911942D01*
X122933258Y-110911942D02*
X122933258Y-110816704D01*
X122933258Y-110816704D02*
X122980877Y-110721466D01*
X122980877Y-110721466D02*
X123028496Y-110673847D01*
X123028496Y-110673847D02*
X123123734Y-110626228D01*
X123123734Y-110626228D02*
X123314210Y-110578609D01*
X123314210Y-110578609D02*
X123409448Y-110530990D01*
X123409448Y-110530990D02*
X123457067Y-110483371D01*
X123457067Y-110483371D02*
X123504686Y-110388133D01*
X123504686Y-110388133D02*
X123504686Y-110292895D01*
X123504686Y-110292895D02*
X123457067Y-110197657D01*
X123457067Y-110197657D02*
X123409448Y-110150038D01*
X123409448Y-110150038D02*
X123314210Y-110102419D01*
X123314210Y-110102419D02*
X123076115Y-110102419D01*
X123076115Y-110102419D02*
X122933258Y-110150038D01*
X122504686Y-111102419D02*
X122504686Y-110102419D01*
X122028496Y-111102419D02*
X122028496Y-110102419D01*
X122028496Y-110102419D02*
X121457068Y-111102419D01*
X121457068Y-111102419D02*
X121457068Y-110102419D01*
X120457068Y-110150038D02*
X120552306Y-110102419D01*
X120552306Y-110102419D02*
X120695163Y-110102419D01*
X120695163Y-110102419D02*
X120838020Y-110150038D01*
X120838020Y-110150038D02*
X120933258Y-110245276D01*
X120933258Y-110245276D02*
X120980877Y-110340514D01*
X120980877Y-110340514D02*
X121028496Y-110530990D01*
X121028496Y-110530990D02*
X121028496Y-110673847D01*
X121028496Y-110673847D02*
X120980877Y-110864323D01*
X120980877Y-110864323D02*
X120933258Y-110959561D01*
X120933258Y-110959561D02*
X120838020Y-111054800D01*
X120838020Y-111054800D02*
X120695163Y-111102419D01*
X120695163Y-111102419D02*
X120599925Y-111102419D01*
X120599925Y-111102419D02*
X120457068Y-111054800D01*
X120457068Y-111054800D02*
X120409449Y-111007180D01*
X120409449Y-111007180D02*
X120409449Y-110673847D01*
X120409449Y-110673847D02*
X120599925Y-110673847D01*
X119980877Y-111102419D02*
X119980877Y-110102419D01*
X119980877Y-110578609D02*
X119409449Y-110578609D01*
X119409449Y-111102419D02*
X119409449Y-110102419D01*
X132176115Y-114062475D02*
X132176115Y-113062475D01*
X132176115Y-113062475D02*
X131938020Y-113062475D01*
X131938020Y-113062475D02*
X131795163Y-113110094D01*
X131795163Y-113110094D02*
X131699925Y-113205332D01*
X131699925Y-113205332D02*
X131652306Y-113300570D01*
X131652306Y-113300570D02*
X131604687Y-113491046D01*
X131604687Y-113491046D02*
X131604687Y-113633903D01*
X131604687Y-113633903D02*
X131652306Y-113824379D01*
X131652306Y-113824379D02*
X131699925Y-113919617D01*
X131699925Y-113919617D02*
X131795163Y-114014856D01*
X131795163Y-114014856D02*
X131938020Y-114062475D01*
X131938020Y-114062475D02*
X132176115Y-114062475D01*
X131176115Y-113538665D02*
X130842782Y-113538665D01*
X130699925Y-114062475D02*
X131176115Y-114062475D01*
X131176115Y-114062475D02*
X131176115Y-113062475D01*
X131176115Y-113062475D02*
X130699925Y-113062475D01*
X130318972Y-114014856D02*
X130176115Y-114062475D01*
X130176115Y-114062475D02*
X129938020Y-114062475D01*
X129938020Y-114062475D02*
X129842782Y-114014856D01*
X129842782Y-114014856D02*
X129795163Y-113967236D01*
X129795163Y-113967236D02*
X129747544Y-113871998D01*
X129747544Y-113871998D02*
X129747544Y-113776760D01*
X129747544Y-113776760D02*
X129795163Y-113681522D01*
X129795163Y-113681522D02*
X129842782Y-113633903D01*
X129842782Y-113633903D02*
X129938020Y-113586284D01*
X129938020Y-113586284D02*
X130128496Y-113538665D01*
X130128496Y-113538665D02*
X130223734Y-113491046D01*
X130223734Y-113491046D02*
X130271353Y-113443427D01*
X130271353Y-113443427D02*
X130318972Y-113348189D01*
X130318972Y-113348189D02*
X130318972Y-113252951D01*
X130318972Y-113252951D02*
X130271353Y-113157713D01*
X130271353Y-113157713D02*
X130223734Y-113110094D01*
X130223734Y-113110094D02*
X130128496Y-113062475D01*
X130128496Y-113062475D02*
X129890401Y-113062475D01*
X129890401Y-113062475D02*
X129747544Y-113110094D01*
X129318972Y-114062475D02*
X129318972Y-113062475D01*
X128318973Y-113110094D02*
X128414211Y-113062475D01*
X128414211Y-113062475D02*
X128557068Y-113062475D01*
X128557068Y-113062475D02*
X128699925Y-113110094D01*
X128699925Y-113110094D02*
X128795163Y-113205332D01*
X128795163Y-113205332D02*
X128842782Y-113300570D01*
X128842782Y-113300570D02*
X128890401Y-113491046D01*
X128890401Y-113491046D02*
X128890401Y-113633903D01*
X128890401Y-113633903D02*
X128842782Y-113824379D01*
X128842782Y-113824379D02*
X128795163Y-113919617D01*
X128795163Y-113919617D02*
X128699925Y-114014856D01*
X128699925Y-114014856D02*
X128557068Y-114062475D01*
X128557068Y-114062475D02*
X128461830Y-114062475D01*
X128461830Y-114062475D02*
X128318973Y-114014856D01*
X128318973Y-114014856D02*
X128271354Y-113967236D01*
X128271354Y-113967236D02*
X128271354Y-113633903D01*
X128271354Y-113633903D02*
X128461830Y-113633903D01*
X127842782Y-114062475D02*
X127842782Y-113062475D01*
X127842782Y-113062475D02*
X127271354Y-114062475D01*
X127271354Y-114062475D02*
X127271354Y-113062475D01*
X126795163Y-113538665D02*
X126461830Y-113538665D01*
X126318973Y-114062475D02*
X126795163Y-114062475D01*
X126795163Y-114062475D02*
X126795163Y-113062475D01*
X126795163Y-113062475D02*
X126318973Y-113062475D01*
X125890401Y-114062475D02*
X125890401Y-113062475D01*
X125890401Y-113062475D02*
X125652306Y-113062475D01*
X125652306Y-113062475D02*
X125509449Y-113110094D01*
X125509449Y-113110094D02*
X125414211Y-113205332D01*
X125414211Y-113205332D02*
X125366592Y-113300570D01*
X125366592Y-113300570D02*
X125318973Y-113491046D01*
X125318973Y-113491046D02*
X125318973Y-113633903D01*
X125318973Y-113633903D02*
X125366592Y-113824379D01*
X125366592Y-113824379D02*
X125414211Y-113919617D01*
X125414211Y-113919617D02*
X125509449Y-114014856D01*
X125509449Y-114014856D02*
X125652306Y-114062475D01*
X125652306Y-114062475D02*
X125890401Y-114062475D01*
X132318972Y-114672419D02*
X131747544Y-114672419D01*
X132033258Y-115672419D02*
X132033258Y-114672419D01*
X131414210Y-115672419D02*
X131414210Y-114672419D01*
X130938020Y-115672419D02*
X130938020Y-114672419D01*
X130938020Y-114672419D02*
X130604687Y-115386704D01*
X130604687Y-115386704D02*
X130271354Y-114672419D01*
X130271354Y-114672419D02*
X130271354Y-115672419D01*
X129795163Y-115148609D02*
X129461830Y-115148609D01*
X129318973Y-115672419D02*
X129795163Y-115672419D01*
X129795163Y-115672419D02*
X129795163Y-114672419D01*
X129795163Y-114672419D02*
X129318973Y-114672419D01*
X128414211Y-115672419D02*
X128890401Y-115672419D01*
X128890401Y-115672419D02*
X128890401Y-114672419D01*
X128080877Y-115672419D02*
X128080877Y-114672419D01*
X127604687Y-115672419D02*
X127604687Y-114672419D01*
X127604687Y-114672419D02*
X127033259Y-115672419D01*
X127033259Y-115672419D02*
X127033259Y-114672419D01*
X126557068Y-115148609D02*
X126223735Y-115148609D01*
X126080878Y-115672419D02*
X126557068Y-115672419D01*
X126557068Y-115672419D02*
X126557068Y-114672419D01*
X126557068Y-114672419D02*
X126080878Y-114672419D01*
X125652306Y-115577180D02*
X125604687Y-115624800D01*
X125604687Y-115624800D02*
X125652306Y-115672419D01*
X125652306Y-115672419D02*
X125699925Y-115624800D01*
X125699925Y-115624800D02*
X125652306Y-115577180D01*
X125652306Y-115577180D02*
X125652306Y-115672419D01*
X125652306Y-115053371D02*
X125604687Y-115100990D01*
X125604687Y-115100990D02*
X125652306Y-115148609D01*
X125652306Y-115148609D02*
X125699925Y-115100990D01*
X125699925Y-115100990D02*
X125652306Y-115053371D01*
X125652306Y-115053371D02*
X125652306Y-115148609D01*
X125176116Y-115672419D02*
X125176116Y-114672419D01*
X125176116Y-114672419D02*
X124842783Y-115386704D01*
X124842783Y-115386704D02*
X124509450Y-114672419D01*
X124509450Y-114672419D02*
X124509450Y-115672419D01*
X124080878Y-115386704D02*
X123604688Y-115386704D01*
X124176116Y-115672419D02*
X123842783Y-114672419D01*
X123842783Y-114672419D02*
X123509450Y-115672419D01*
X122985640Y-115196228D02*
X122985640Y-115672419D01*
X123318973Y-114672419D02*
X122985640Y-115196228D01*
X122985640Y-115196228D02*
X122652307Y-114672419D01*
X121604687Y-114767657D02*
X121557068Y-114720038D01*
X121557068Y-114720038D02*
X121461830Y-114672419D01*
X121461830Y-114672419D02*
X121223735Y-114672419D01*
X121223735Y-114672419D02*
X121128497Y-114720038D01*
X121128497Y-114720038D02*
X121080878Y-114767657D01*
X121080878Y-114767657D02*
X121033259Y-114862895D01*
X121033259Y-114862895D02*
X121033259Y-114958133D01*
X121033259Y-114958133D02*
X121080878Y-115100990D01*
X121080878Y-115100990D02*
X121652306Y-115672419D01*
X121652306Y-115672419D02*
X121033259Y-115672419D01*
X120414211Y-114672419D02*
X120318973Y-114672419D01*
X120318973Y-114672419D02*
X120223735Y-114720038D01*
X120223735Y-114720038D02*
X120176116Y-114767657D01*
X120176116Y-114767657D02*
X120128497Y-114862895D01*
X120128497Y-114862895D02*
X120080878Y-115053371D01*
X120080878Y-115053371D02*
X120080878Y-115291466D01*
X120080878Y-115291466D02*
X120128497Y-115481942D01*
X120128497Y-115481942D02*
X120176116Y-115577180D01*
X120176116Y-115577180D02*
X120223735Y-115624800D01*
X120223735Y-115624800D02*
X120318973Y-115672419D01*
X120318973Y-115672419D02*
X120414211Y-115672419D01*
X120414211Y-115672419D02*
X120509449Y-115624800D01*
X120509449Y-115624800D02*
X120557068Y-115577180D01*
X120557068Y-115577180D02*
X120604687Y-115481942D01*
X120604687Y-115481942D02*
X120652306Y-115291466D01*
X120652306Y-115291466D02*
X120652306Y-115053371D01*
X120652306Y-115053371D02*
X120604687Y-114862895D01*
X120604687Y-114862895D02*
X120557068Y-114767657D01*
X120557068Y-114767657D02*
X120509449Y-114720038D01*
X120509449Y-114720038D02*
X120414211Y-114672419D01*
X119699925Y-114767657D02*
X119652306Y-114720038D01*
X119652306Y-114720038D02*
X119557068Y-114672419D01*
X119557068Y-114672419D02*
X119318973Y-114672419D01*
X119318973Y-114672419D02*
X119223735Y-114720038D01*
X119223735Y-114720038D02*
X119176116Y-114767657D01*
X119176116Y-114767657D02*
X119128497Y-114862895D01*
X119128497Y-114862895D02*
X119128497Y-114958133D01*
X119128497Y-114958133D02*
X119176116Y-115100990D01*
X119176116Y-115100990D02*
X119747544Y-115672419D01*
X119747544Y-115672419D02*
X119128497Y-115672419D01*
X118271354Y-114672419D02*
X118461830Y-114672419D01*
X118461830Y-114672419D02*
X118557068Y-114720038D01*
X118557068Y-114720038D02*
X118604687Y-114767657D01*
X118604687Y-114767657D02*
X118699925Y-114910514D01*
X118699925Y-114910514D02*
X118747544Y-115100990D01*
X118747544Y-115100990D02*
X118747544Y-115481942D01*
X118747544Y-115481942D02*
X118699925Y-115577180D01*
X118699925Y-115577180D02*
X118652306Y-115624800D01*
X118652306Y-115624800D02*
X118557068Y-115672419D01*
X118557068Y-115672419D02*
X118366592Y-115672419D01*
X118366592Y-115672419D02*
X118271354Y-115624800D01*
X118271354Y-115624800D02*
X118223735Y-115577180D01*
X118223735Y-115577180D02*
X118176116Y-115481942D01*
X118176116Y-115481942D02*
X118176116Y-115243847D01*
X118176116Y-115243847D02*
X118223735Y-115148609D01*
X118223735Y-115148609D02*
X118271354Y-115100990D01*
X118271354Y-115100990D02*
X118366592Y-115053371D01*
X118366592Y-115053371D02*
X118557068Y-115053371D01*
X118557068Y-115053371D02*
X118652306Y-115100990D01*
X118652306Y-115100990D02*
X118699925Y-115148609D01*
X118699925Y-115148609D02*
X118747544Y-115243847D01*
D11*
X183036666Y-50619580D02*
X183084285Y-50667200D01*
X183084285Y-50667200D02*
X183227142Y-50714819D01*
X183227142Y-50714819D02*
X183322380Y-50714819D01*
X183322380Y-50714819D02*
X183465237Y-50667200D01*
X183465237Y-50667200D02*
X183560475Y-50571961D01*
X183560475Y-50571961D02*
X183608094Y-50476723D01*
X183608094Y-50476723D02*
X183655713Y-50286247D01*
X183655713Y-50286247D02*
X183655713Y-50143390D01*
X183655713Y-50143390D02*
X183608094Y-49952914D01*
X183608094Y-49952914D02*
X183560475Y-49857676D01*
X183560475Y-49857676D02*
X183465237Y-49762438D01*
X183465237Y-49762438D02*
X183322380Y-49714819D01*
X183322380Y-49714819D02*
X183227142Y-49714819D01*
X183227142Y-49714819D02*
X183084285Y-49762438D01*
X183084285Y-49762438D02*
X183036666Y-49810057D01*
X182703332Y-49714819D02*
X182084285Y-49714819D01*
X182084285Y-49714819D02*
X182417618Y-50095771D01*
X182417618Y-50095771D02*
X182274761Y-50095771D01*
X182274761Y-50095771D02*
X182179523Y-50143390D01*
X182179523Y-50143390D02*
X182131904Y-50191009D01*
X182131904Y-50191009D02*
X182084285Y-50286247D01*
X182084285Y-50286247D02*
X182084285Y-50524342D01*
X182084285Y-50524342D02*
X182131904Y-50619580D01*
X182131904Y-50619580D02*
X182179523Y-50667200D01*
X182179523Y-50667200D02*
X182274761Y-50714819D01*
X182274761Y-50714819D02*
X182560475Y-50714819D01*
X182560475Y-50714819D02*
X182655713Y-50667200D01*
X182655713Y-50667200D02*
X182703332Y-50619580D01*
X170149580Y-100697142D02*
X170197200Y-100649523D01*
X170197200Y-100649523D02*
X170244819Y-100506666D01*
X170244819Y-100506666D02*
X170244819Y-100411428D01*
X170244819Y-100411428D02*
X170197200Y-100268571D01*
X170197200Y-100268571D02*
X170101961Y-100173333D01*
X170101961Y-100173333D02*
X170006723Y-100125714D01*
X170006723Y-100125714D02*
X169816247Y-100078095D01*
X169816247Y-100078095D02*
X169673390Y-100078095D01*
X169673390Y-100078095D02*
X169482914Y-100125714D01*
X169482914Y-100125714D02*
X169387676Y-100173333D01*
X169387676Y-100173333D02*
X169292438Y-100268571D01*
X169292438Y-100268571D02*
X169244819Y-100411428D01*
X169244819Y-100411428D02*
X169244819Y-100506666D01*
X169244819Y-100506666D02*
X169292438Y-100649523D01*
X169292438Y-100649523D02*
X169340057Y-100697142D01*
X169340057Y-101078095D02*
X169292438Y-101125714D01*
X169292438Y-101125714D02*
X169244819Y-101220952D01*
X169244819Y-101220952D02*
X169244819Y-101459047D01*
X169244819Y-101459047D02*
X169292438Y-101554285D01*
X169292438Y-101554285D02*
X169340057Y-101601904D01*
X169340057Y-101601904D02*
X169435295Y-101649523D01*
X169435295Y-101649523D02*
X169530533Y-101649523D01*
X169530533Y-101649523D02*
X169673390Y-101601904D01*
X169673390Y-101601904D02*
X170244819Y-101030476D01*
X170244819Y-101030476D02*
X170244819Y-101649523D01*
X169340057Y-102030476D02*
X169292438Y-102078095D01*
X169292438Y-102078095D02*
X169244819Y-102173333D01*
X169244819Y-102173333D02*
X169244819Y-102411428D01*
X169244819Y-102411428D02*
X169292438Y-102506666D01*
X169292438Y-102506666D02*
X169340057Y-102554285D01*
X169340057Y-102554285D02*
X169435295Y-102601904D01*
X169435295Y-102601904D02*
X169530533Y-102601904D01*
X169530533Y-102601904D02*
X169673390Y-102554285D01*
X169673390Y-102554285D02*
X170244819Y-101982857D01*
X170244819Y-101982857D02*
X170244819Y-102601904D01*
X188439580Y-126594641D02*
X188487200Y-126547022D01*
X188487200Y-126547022D02*
X188534819Y-126404165D01*
X188534819Y-126404165D02*
X188534819Y-126308927D01*
X188534819Y-126308927D02*
X188487200Y-126166070D01*
X188487200Y-126166070D02*
X188391961Y-126070832D01*
X188391961Y-126070832D02*
X188296723Y-126023213D01*
X188296723Y-126023213D02*
X188106247Y-125975594D01*
X188106247Y-125975594D02*
X187963390Y-125975594D01*
X187963390Y-125975594D02*
X187772914Y-126023213D01*
X187772914Y-126023213D02*
X187677676Y-126070832D01*
X187677676Y-126070832D02*
X187582438Y-126166070D01*
X187582438Y-126166070D02*
X187534819Y-126308927D01*
X187534819Y-126308927D02*
X187534819Y-126404165D01*
X187534819Y-126404165D02*
X187582438Y-126547022D01*
X187582438Y-126547022D02*
X187630057Y-126594641D01*
X188534819Y-127547022D02*
X188534819Y-126975594D01*
X188534819Y-127261308D02*
X187534819Y-127261308D01*
X187534819Y-127261308D02*
X187677676Y-127166070D01*
X187677676Y-127166070D02*
X187772914Y-127070832D01*
X187772914Y-127070832D02*
X187820533Y-126975594D01*
X187534819Y-127880356D02*
X187534819Y-128547022D01*
X187534819Y-128547022D02*
X188534819Y-128118451D01*
X155234819Y-98697142D02*
X154758628Y-98363809D01*
X155234819Y-98125714D02*
X154234819Y-98125714D01*
X154234819Y-98125714D02*
X154234819Y-98506666D01*
X154234819Y-98506666D02*
X154282438Y-98601904D01*
X154282438Y-98601904D02*
X154330057Y-98649523D01*
X154330057Y-98649523D02*
X154425295Y-98697142D01*
X154425295Y-98697142D02*
X154568152Y-98697142D01*
X154568152Y-98697142D02*
X154663390Y-98649523D01*
X154663390Y-98649523D02*
X154711009Y-98601904D01*
X154711009Y-98601904D02*
X154758628Y-98506666D01*
X154758628Y-98506666D02*
X154758628Y-98125714D01*
X154330057Y-99078095D02*
X154282438Y-99125714D01*
X154282438Y-99125714D02*
X154234819Y-99220952D01*
X154234819Y-99220952D02*
X154234819Y-99459047D01*
X154234819Y-99459047D02*
X154282438Y-99554285D01*
X154282438Y-99554285D02*
X154330057Y-99601904D01*
X154330057Y-99601904D02*
X154425295Y-99649523D01*
X154425295Y-99649523D02*
X154520533Y-99649523D01*
X154520533Y-99649523D02*
X154663390Y-99601904D01*
X154663390Y-99601904D02*
X155234819Y-99030476D01*
X155234819Y-99030476D02*
X155234819Y-99649523D01*
X154234819Y-100554285D02*
X154234819Y-100078095D01*
X154234819Y-100078095D02*
X154711009Y-100030476D01*
X154711009Y-100030476D02*
X154663390Y-100078095D01*
X154663390Y-100078095D02*
X154615771Y-100173333D01*
X154615771Y-100173333D02*
X154615771Y-100411428D01*
X154615771Y-100411428D02*
X154663390Y-100506666D01*
X154663390Y-100506666D02*
X154711009Y-100554285D01*
X154711009Y-100554285D02*
X154806247Y-100601904D01*
X154806247Y-100601904D02*
X155044342Y-100601904D01*
X155044342Y-100601904D02*
X155139580Y-100554285D01*
X155139580Y-100554285D02*
X155187200Y-100506666D01*
X155187200Y-100506666D02*
X155234819Y-100411428D01*
X155234819Y-100411428D02*
X155234819Y-100173333D01*
X155234819Y-100173333D02*
X155187200Y-100078095D01*
X155187200Y-100078095D02*
X155139580Y-100030476D01*
X184182857Y-53139580D02*
X184230476Y-53187200D01*
X184230476Y-53187200D02*
X184373333Y-53234819D01*
X184373333Y-53234819D02*
X184468571Y-53234819D01*
X184468571Y-53234819D02*
X184611428Y-53187200D01*
X184611428Y-53187200D02*
X184706666Y-53091961D01*
X184706666Y-53091961D02*
X184754285Y-52996723D01*
X184754285Y-52996723D02*
X184801904Y-52806247D01*
X184801904Y-52806247D02*
X184801904Y-52663390D01*
X184801904Y-52663390D02*
X184754285Y-52472914D01*
X184754285Y-52472914D02*
X184706666Y-52377676D01*
X184706666Y-52377676D02*
X184611428Y-52282438D01*
X184611428Y-52282438D02*
X184468571Y-52234819D01*
X184468571Y-52234819D02*
X184373333Y-52234819D01*
X184373333Y-52234819D02*
X184230476Y-52282438D01*
X184230476Y-52282438D02*
X184182857Y-52330057D01*
X183230476Y-53234819D02*
X183801904Y-53234819D01*
X183516190Y-53234819D02*
X183516190Y-52234819D01*
X183516190Y-52234819D02*
X183611428Y-52377676D01*
X183611428Y-52377676D02*
X183706666Y-52472914D01*
X183706666Y-52472914D02*
X183801904Y-52520533D01*
X182278095Y-53234819D02*
X182849523Y-53234819D01*
X182563809Y-53234819D02*
X182563809Y-52234819D01*
X182563809Y-52234819D02*
X182659047Y-52377676D01*
X182659047Y-52377676D02*
X182754285Y-52472914D01*
X182754285Y-52472914D02*
X182849523Y-52520533D01*
X185974819Y-75917142D02*
X185498628Y-75583809D01*
X185974819Y-75345714D02*
X184974819Y-75345714D01*
X184974819Y-75345714D02*
X184974819Y-75726666D01*
X184974819Y-75726666D02*
X185022438Y-75821904D01*
X185022438Y-75821904D02*
X185070057Y-75869523D01*
X185070057Y-75869523D02*
X185165295Y-75917142D01*
X185165295Y-75917142D02*
X185308152Y-75917142D01*
X185308152Y-75917142D02*
X185403390Y-75869523D01*
X185403390Y-75869523D02*
X185451009Y-75821904D01*
X185451009Y-75821904D02*
X185498628Y-75726666D01*
X185498628Y-75726666D02*
X185498628Y-75345714D01*
X185974819Y-76869523D02*
X185974819Y-76298095D01*
X185974819Y-76583809D02*
X184974819Y-76583809D01*
X184974819Y-76583809D02*
X185117676Y-76488571D01*
X185117676Y-76488571D02*
X185212914Y-76393333D01*
X185212914Y-76393333D02*
X185260533Y-76298095D01*
X184974819Y-77488571D02*
X184974819Y-77583809D01*
X184974819Y-77583809D02*
X185022438Y-77679047D01*
X185022438Y-77679047D02*
X185070057Y-77726666D01*
X185070057Y-77726666D02*
X185165295Y-77774285D01*
X185165295Y-77774285D02*
X185355771Y-77821904D01*
X185355771Y-77821904D02*
X185593866Y-77821904D01*
X185593866Y-77821904D02*
X185784342Y-77774285D01*
X185784342Y-77774285D02*
X185879580Y-77726666D01*
X185879580Y-77726666D02*
X185927200Y-77679047D01*
X185927200Y-77679047D02*
X185974819Y-77583809D01*
X185974819Y-77583809D02*
X185974819Y-77488571D01*
X185974819Y-77488571D02*
X185927200Y-77393333D01*
X185927200Y-77393333D02*
X185879580Y-77345714D01*
X185879580Y-77345714D02*
X185784342Y-77298095D01*
X185784342Y-77298095D02*
X185593866Y-77250476D01*
X185593866Y-77250476D02*
X185355771Y-77250476D01*
X185355771Y-77250476D02*
X185165295Y-77298095D01*
X185165295Y-77298095D02*
X185070057Y-77345714D01*
X185070057Y-77345714D02*
X185022438Y-77393333D01*
X185022438Y-77393333D02*
X184974819Y-77488571D01*
X116201428Y-70010057D02*
X116296666Y-69962438D01*
X116296666Y-69962438D02*
X116391904Y-69867200D01*
X116391904Y-69867200D02*
X116534761Y-69724342D01*
X116534761Y-69724342D02*
X116629999Y-69676723D01*
X116629999Y-69676723D02*
X116725237Y-69676723D01*
X116677618Y-69914819D02*
X116772856Y-69867200D01*
X116772856Y-69867200D02*
X116868094Y-69771961D01*
X116868094Y-69771961D02*
X116915713Y-69581485D01*
X116915713Y-69581485D02*
X116915713Y-69248152D01*
X116915713Y-69248152D02*
X116868094Y-69057676D01*
X116868094Y-69057676D02*
X116772856Y-68962438D01*
X116772856Y-68962438D02*
X116677618Y-68914819D01*
X116677618Y-68914819D02*
X116487142Y-68914819D01*
X116487142Y-68914819D02*
X116391904Y-68962438D01*
X116391904Y-68962438D02*
X116296666Y-69057676D01*
X116296666Y-69057676D02*
X116249047Y-69248152D01*
X116249047Y-69248152D02*
X116249047Y-69581485D01*
X116249047Y-69581485D02*
X116296666Y-69771961D01*
X116296666Y-69771961D02*
X116391904Y-69867200D01*
X116391904Y-69867200D02*
X116487142Y-69914819D01*
X116487142Y-69914819D02*
X116677618Y-69914819D01*
X115296666Y-69914819D02*
X115868094Y-69914819D01*
X115582380Y-69914819D02*
X115582380Y-68914819D01*
X115582380Y-68914819D02*
X115677618Y-69057676D01*
X115677618Y-69057676D02*
X115772856Y-69152914D01*
X115772856Y-69152914D02*
X115868094Y-69200533D01*
X114915713Y-69010057D02*
X114868094Y-68962438D01*
X114868094Y-68962438D02*
X114772856Y-68914819D01*
X114772856Y-68914819D02*
X114534761Y-68914819D01*
X114534761Y-68914819D02*
X114439523Y-68962438D01*
X114439523Y-68962438D02*
X114391904Y-69010057D01*
X114391904Y-69010057D02*
X114344285Y-69105295D01*
X114344285Y-69105295D02*
X114344285Y-69200533D01*
X114344285Y-69200533D02*
X114391904Y-69343390D01*
X114391904Y-69343390D02*
X114963332Y-69914819D01*
X114963332Y-69914819D02*
X114344285Y-69914819D01*
X145192857Y-33884819D02*
X145526190Y-33408628D01*
X145764285Y-33884819D02*
X145764285Y-32884819D01*
X145764285Y-32884819D02*
X145383333Y-32884819D01*
X145383333Y-32884819D02*
X145288095Y-32932438D01*
X145288095Y-32932438D02*
X145240476Y-32980057D01*
X145240476Y-32980057D02*
X145192857Y-33075295D01*
X145192857Y-33075295D02*
X145192857Y-33218152D01*
X145192857Y-33218152D02*
X145240476Y-33313390D01*
X145240476Y-33313390D02*
X145288095Y-33361009D01*
X145288095Y-33361009D02*
X145383333Y-33408628D01*
X145383333Y-33408628D02*
X145764285Y-33408628D01*
X144240476Y-33884819D02*
X144811904Y-33884819D01*
X144526190Y-33884819D02*
X144526190Y-32884819D01*
X144526190Y-32884819D02*
X144621428Y-33027676D01*
X144621428Y-33027676D02*
X144716666Y-33122914D01*
X144716666Y-33122914D02*
X144811904Y-33170533D01*
X143288095Y-33884819D02*
X143859523Y-33884819D01*
X143573809Y-33884819D02*
X143573809Y-32884819D01*
X143573809Y-32884819D02*
X143669047Y-33027676D01*
X143669047Y-33027676D02*
X143764285Y-33122914D01*
X143764285Y-33122914D02*
X143859523Y-33170533D01*
X151999580Y-128203333D02*
X152047200Y-128155714D01*
X152047200Y-128155714D02*
X152094819Y-128012857D01*
X152094819Y-128012857D02*
X152094819Y-127917619D01*
X152094819Y-127917619D02*
X152047200Y-127774762D01*
X152047200Y-127774762D02*
X151951961Y-127679524D01*
X151951961Y-127679524D02*
X151856723Y-127631905D01*
X151856723Y-127631905D02*
X151666247Y-127584286D01*
X151666247Y-127584286D02*
X151523390Y-127584286D01*
X151523390Y-127584286D02*
X151332914Y-127631905D01*
X151332914Y-127631905D02*
X151237676Y-127679524D01*
X151237676Y-127679524D02*
X151142438Y-127774762D01*
X151142438Y-127774762D02*
X151094819Y-127917619D01*
X151094819Y-127917619D02*
X151094819Y-128012857D01*
X151094819Y-128012857D02*
X151142438Y-128155714D01*
X151142438Y-128155714D02*
X151190057Y-128203333D01*
X151523390Y-128774762D02*
X151475771Y-128679524D01*
X151475771Y-128679524D02*
X151428152Y-128631905D01*
X151428152Y-128631905D02*
X151332914Y-128584286D01*
X151332914Y-128584286D02*
X151285295Y-128584286D01*
X151285295Y-128584286D02*
X151190057Y-128631905D01*
X151190057Y-128631905D02*
X151142438Y-128679524D01*
X151142438Y-128679524D02*
X151094819Y-128774762D01*
X151094819Y-128774762D02*
X151094819Y-128965238D01*
X151094819Y-128965238D02*
X151142438Y-129060476D01*
X151142438Y-129060476D02*
X151190057Y-129108095D01*
X151190057Y-129108095D02*
X151285295Y-129155714D01*
X151285295Y-129155714D02*
X151332914Y-129155714D01*
X151332914Y-129155714D02*
X151428152Y-129108095D01*
X151428152Y-129108095D02*
X151475771Y-129060476D01*
X151475771Y-129060476D02*
X151523390Y-128965238D01*
X151523390Y-128965238D02*
X151523390Y-128774762D01*
X151523390Y-128774762D02*
X151571009Y-128679524D01*
X151571009Y-128679524D02*
X151618628Y-128631905D01*
X151618628Y-128631905D02*
X151713866Y-128584286D01*
X151713866Y-128584286D02*
X151904342Y-128584286D01*
X151904342Y-128584286D02*
X151999580Y-128631905D01*
X151999580Y-128631905D02*
X152047200Y-128679524D01*
X152047200Y-128679524D02*
X152094819Y-128774762D01*
X152094819Y-128774762D02*
X152094819Y-128965238D01*
X152094819Y-128965238D02*
X152047200Y-129060476D01*
X152047200Y-129060476D02*
X151999580Y-129108095D01*
X151999580Y-129108095D02*
X151904342Y-129155714D01*
X151904342Y-129155714D02*
X151713866Y-129155714D01*
X151713866Y-129155714D02*
X151618628Y-129108095D01*
X151618628Y-129108095D02*
X151571009Y-129060476D01*
X151571009Y-129060476D02*
X151523390Y-128965238D01*
X119344819Y-66837142D02*
X118868628Y-66503809D01*
X119344819Y-66265714D02*
X118344819Y-66265714D01*
X118344819Y-66265714D02*
X118344819Y-66646666D01*
X118344819Y-66646666D02*
X118392438Y-66741904D01*
X118392438Y-66741904D02*
X118440057Y-66789523D01*
X118440057Y-66789523D02*
X118535295Y-66837142D01*
X118535295Y-66837142D02*
X118678152Y-66837142D01*
X118678152Y-66837142D02*
X118773390Y-66789523D01*
X118773390Y-66789523D02*
X118821009Y-66741904D01*
X118821009Y-66741904D02*
X118868628Y-66646666D01*
X118868628Y-66646666D02*
X118868628Y-66265714D01*
X118344819Y-67170476D02*
X118344819Y-67789523D01*
X118344819Y-67789523D02*
X118725771Y-67456190D01*
X118725771Y-67456190D02*
X118725771Y-67599047D01*
X118725771Y-67599047D02*
X118773390Y-67694285D01*
X118773390Y-67694285D02*
X118821009Y-67741904D01*
X118821009Y-67741904D02*
X118916247Y-67789523D01*
X118916247Y-67789523D02*
X119154342Y-67789523D01*
X119154342Y-67789523D02*
X119249580Y-67741904D01*
X119249580Y-67741904D02*
X119297200Y-67694285D01*
X119297200Y-67694285D02*
X119344819Y-67599047D01*
X119344819Y-67599047D02*
X119344819Y-67313333D01*
X119344819Y-67313333D02*
X119297200Y-67218095D01*
X119297200Y-67218095D02*
X119249580Y-67170476D01*
X118773390Y-68360952D02*
X118725771Y-68265714D01*
X118725771Y-68265714D02*
X118678152Y-68218095D01*
X118678152Y-68218095D02*
X118582914Y-68170476D01*
X118582914Y-68170476D02*
X118535295Y-68170476D01*
X118535295Y-68170476D02*
X118440057Y-68218095D01*
X118440057Y-68218095D02*
X118392438Y-68265714D01*
X118392438Y-68265714D02*
X118344819Y-68360952D01*
X118344819Y-68360952D02*
X118344819Y-68551428D01*
X118344819Y-68551428D02*
X118392438Y-68646666D01*
X118392438Y-68646666D02*
X118440057Y-68694285D01*
X118440057Y-68694285D02*
X118535295Y-68741904D01*
X118535295Y-68741904D02*
X118582914Y-68741904D01*
X118582914Y-68741904D02*
X118678152Y-68694285D01*
X118678152Y-68694285D02*
X118725771Y-68646666D01*
X118725771Y-68646666D02*
X118773390Y-68551428D01*
X118773390Y-68551428D02*
X118773390Y-68360952D01*
X118773390Y-68360952D02*
X118821009Y-68265714D01*
X118821009Y-68265714D02*
X118868628Y-68218095D01*
X118868628Y-68218095D02*
X118963866Y-68170476D01*
X118963866Y-68170476D02*
X119154342Y-68170476D01*
X119154342Y-68170476D02*
X119249580Y-68218095D01*
X119249580Y-68218095D02*
X119297200Y-68265714D01*
X119297200Y-68265714D02*
X119344819Y-68360952D01*
X119344819Y-68360952D02*
X119344819Y-68551428D01*
X119344819Y-68551428D02*
X119297200Y-68646666D01*
X119297200Y-68646666D02*
X119249580Y-68694285D01*
X119249580Y-68694285D02*
X119154342Y-68741904D01*
X119154342Y-68741904D02*
X118963866Y-68741904D01*
X118963866Y-68741904D02*
X118868628Y-68694285D01*
X118868628Y-68694285D02*
X118821009Y-68646666D01*
X118821009Y-68646666D02*
X118773390Y-68551428D01*
X174586666Y-123654819D02*
X174919999Y-123178628D01*
X175158094Y-123654819D02*
X175158094Y-122654819D01*
X175158094Y-122654819D02*
X174777142Y-122654819D01*
X174777142Y-122654819D02*
X174681904Y-122702438D01*
X174681904Y-122702438D02*
X174634285Y-122750057D01*
X174634285Y-122750057D02*
X174586666Y-122845295D01*
X174586666Y-122845295D02*
X174586666Y-122988152D01*
X174586666Y-122988152D02*
X174634285Y-123083390D01*
X174634285Y-123083390D02*
X174681904Y-123131009D01*
X174681904Y-123131009D02*
X174777142Y-123178628D01*
X174777142Y-123178628D02*
X175158094Y-123178628D01*
X174253332Y-122654819D02*
X173634285Y-122654819D01*
X173634285Y-122654819D02*
X173967618Y-123035771D01*
X173967618Y-123035771D02*
X173824761Y-123035771D01*
X173824761Y-123035771D02*
X173729523Y-123083390D01*
X173729523Y-123083390D02*
X173681904Y-123131009D01*
X173681904Y-123131009D02*
X173634285Y-123226247D01*
X173634285Y-123226247D02*
X173634285Y-123464342D01*
X173634285Y-123464342D02*
X173681904Y-123559580D01*
X173681904Y-123559580D02*
X173729523Y-123607200D01*
X173729523Y-123607200D02*
X173824761Y-123654819D01*
X173824761Y-123654819D02*
X174110475Y-123654819D01*
X174110475Y-123654819D02*
X174205713Y-123607200D01*
X174205713Y-123607200D02*
X174253332Y-123559580D01*
X179700057Y-44454761D02*
X179652438Y-44359523D01*
X179652438Y-44359523D02*
X179557200Y-44264285D01*
X179557200Y-44264285D02*
X179414342Y-44121428D01*
X179414342Y-44121428D02*
X179366723Y-44026190D01*
X179366723Y-44026190D02*
X179366723Y-43930952D01*
X179604819Y-43978571D02*
X179557200Y-43883333D01*
X179557200Y-43883333D02*
X179461961Y-43788095D01*
X179461961Y-43788095D02*
X179271485Y-43740476D01*
X179271485Y-43740476D02*
X178938152Y-43740476D01*
X178938152Y-43740476D02*
X178747676Y-43788095D01*
X178747676Y-43788095D02*
X178652438Y-43883333D01*
X178652438Y-43883333D02*
X178604819Y-43978571D01*
X178604819Y-43978571D02*
X178604819Y-44169047D01*
X178604819Y-44169047D02*
X178652438Y-44264285D01*
X178652438Y-44264285D02*
X178747676Y-44359523D01*
X178747676Y-44359523D02*
X178938152Y-44407142D01*
X178938152Y-44407142D02*
X179271485Y-44407142D01*
X179271485Y-44407142D02*
X179461961Y-44359523D01*
X179461961Y-44359523D02*
X179557200Y-44264285D01*
X179557200Y-44264285D02*
X179604819Y-44169047D01*
X179604819Y-44169047D02*
X179604819Y-43978571D01*
X179604819Y-44883333D02*
X179604819Y-45073809D01*
X179604819Y-45073809D02*
X179557200Y-45169047D01*
X179557200Y-45169047D02*
X179509580Y-45216666D01*
X179509580Y-45216666D02*
X179366723Y-45311904D01*
X179366723Y-45311904D02*
X179176247Y-45359523D01*
X179176247Y-45359523D02*
X178795295Y-45359523D01*
X178795295Y-45359523D02*
X178700057Y-45311904D01*
X178700057Y-45311904D02*
X178652438Y-45264285D01*
X178652438Y-45264285D02*
X178604819Y-45169047D01*
X178604819Y-45169047D02*
X178604819Y-44978571D01*
X178604819Y-44978571D02*
X178652438Y-44883333D01*
X178652438Y-44883333D02*
X178700057Y-44835714D01*
X178700057Y-44835714D02*
X178795295Y-44788095D01*
X178795295Y-44788095D02*
X179033390Y-44788095D01*
X179033390Y-44788095D02*
X179128628Y-44835714D01*
X179128628Y-44835714D02*
X179176247Y-44883333D01*
X179176247Y-44883333D02*
X179223866Y-44978571D01*
X179223866Y-44978571D02*
X179223866Y-45169047D01*
X179223866Y-45169047D02*
X179176247Y-45264285D01*
X179176247Y-45264285D02*
X179128628Y-45311904D01*
X179128628Y-45311904D02*
X179033390Y-45359523D01*
X134402857Y-47464819D02*
X134736190Y-46988628D01*
X134974285Y-47464819D02*
X134974285Y-46464819D01*
X134974285Y-46464819D02*
X134593333Y-46464819D01*
X134593333Y-46464819D02*
X134498095Y-46512438D01*
X134498095Y-46512438D02*
X134450476Y-46560057D01*
X134450476Y-46560057D02*
X134402857Y-46655295D01*
X134402857Y-46655295D02*
X134402857Y-46798152D01*
X134402857Y-46798152D02*
X134450476Y-46893390D01*
X134450476Y-46893390D02*
X134498095Y-46941009D01*
X134498095Y-46941009D02*
X134593333Y-46988628D01*
X134593333Y-46988628D02*
X134974285Y-46988628D01*
X134069523Y-46464819D02*
X133450476Y-46464819D01*
X133450476Y-46464819D02*
X133783809Y-46845771D01*
X133783809Y-46845771D02*
X133640952Y-46845771D01*
X133640952Y-46845771D02*
X133545714Y-46893390D01*
X133545714Y-46893390D02*
X133498095Y-46941009D01*
X133498095Y-46941009D02*
X133450476Y-47036247D01*
X133450476Y-47036247D02*
X133450476Y-47274342D01*
X133450476Y-47274342D02*
X133498095Y-47369580D01*
X133498095Y-47369580D02*
X133545714Y-47417200D01*
X133545714Y-47417200D02*
X133640952Y-47464819D01*
X133640952Y-47464819D02*
X133926666Y-47464819D01*
X133926666Y-47464819D02*
X134021904Y-47417200D01*
X134021904Y-47417200D02*
X134069523Y-47369580D01*
X132593333Y-46798152D02*
X132593333Y-47464819D01*
X132831428Y-46417200D02*
X133069523Y-47131485D01*
X133069523Y-47131485D02*
X132450476Y-47131485D01*
X196985238Y-74080057D02*
X197080476Y-74032438D01*
X197080476Y-74032438D02*
X197175714Y-73937200D01*
X197175714Y-73937200D02*
X197318571Y-73794342D01*
X197318571Y-73794342D02*
X197413809Y-73746723D01*
X197413809Y-73746723D02*
X197509047Y-73746723D01*
X197461428Y-73984819D02*
X197556666Y-73937200D01*
X197556666Y-73937200D02*
X197651904Y-73841961D01*
X197651904Y-73841961D02*
X197699523Y-73651485D01*
X197699523Y-73651485D02*
X197699523Y-73318152D01*
X197699523Y-73318152D02*
X197651904Y-73127676D01*
X197651904Y-73127676D02*
X197556666Y-73032438D01*
X197556666Y-73032438D02*
X197461428Y-72984819D01*
X197461428Y-72984819D02*
X197270952Y-72984819D01*
X197270952Y-72984819D02*
X197175714Y-73032438D01*
X197175714Y-73032438D02*
X197080476Y-73127676D01*
X197080476Y-73127676D02*
X197032857Y-73318152D01*
X197032857Y-73318152D02*
X197032857Y-73651485D01*
X197032857Y-73651485D02*
X197080476Y-73841961D01*
X197080476Y-73841961D02*
X197175714Y-73937200D01*
X197175714Y-73937200D02*
X197270952Y-73984819D01*
X197270952Y-73984819D02*
X197461428Y-73984819D01*
X196651904Y-73080057D02*
X196604285Y-73032438D01*
X196604285Y-73032438D02*
X196509047Y-72984819D01*
X196509047Y-72984819D02*
X196270952Y-72984819D01*
X196270952Y-72984819D02*
X196175714Y-73032438D01*
X196175714Y-73032438D02*
X196128095Y-73080057D01*
X196128095Y-73080057D02*
X196080476Y-73175295D01*
X196080476Y-73175295D02*
X196080476Y-73270533D01*
X196080476Y-73270533D02*
X196128095Y-73413390D01*
X196128095Y-73413390D02*
X196699523Y-73984819D01*
X196699523Y-73984819D02*
X196080476Y-73984819D01*
X185804819Y-73553333D02*
X185328628Y-73220000D01*
X185804819Y-72981905D02*
X184804819Y-72981905D01*
X184804819Y-72981905D02*
X184804819Y-73362857D01*
X184804819Y-73362857D02*
X184852438Y-73458095D01*
X184852438Y-73458095D02*
X184900057Y-73505714D01*
X184900057Y-73505714D02*
X184995295Y-73553333D01*
X184995295Y-73553333D02*
X185138152Y-73553333D01*
X185138152Y-73553333D02*
X185233390Y-73505714D01*
X185233390Y-73505714D02*
X185281009Y-73458095D01*
X185281009Y-73458095D02*
X185328628Y-73362857D01*
X185328628Y-73362857D02*
X185328628Y-72981905D01*
X185804819Y-74029524D02*
X185804819Y-74220000D01*
X185804819Y-74220000D02*
X185757200Y-74315238D01*
X185757200Y-74315238D02*
X185709580Y-74362857D01*
X185709580Y-74362857D02*
X185566723Y-74458095D01*
X185566723Y-74458095D02*
X185376247Y-74505714D01*
X185376247Y-74505714D02*
X184995295Y-74505714D01*
X184995295Y-74505714D02*
X184900057Y-74458095D01*
X184900057Y-74458095D02*
X184852438Y-74410476D01*
X184852438Y-74410476D02*
X184804819Y-74315238D01*
X184804819Y-74315238D02*
X184804819Y-74124762D01*
X184804819Y-74124762D02*
X184852438Y-74029524D01*
X184852438Y-74029524D02*
X184900057Y-73981905D01*
X184900057Y-73981905D02*
X184995295Y-73934286D01*
X184995295Y-73934286D02*
X185233390Y-73934286D01*
X185233390Y-73934286D02*
X185328628Y-73981905D01*
X185328628Y-73981905D02*
X185376247Y-74029524D01*
X185376247Y-74029524D02*
X185423866Y-74124762D01*
X185423866Y-74124762D02*
X185423866Y-74315238D01*
X185423866Y-74315238D02*
X185376247Y-74410476D01*
X185376247Y-74410476D02*
X185328628Y-74458095D01*
X185328628Y-74458095D02*
X185233390Y-74505714D01*
X181169580Y-128787142D02*
X181217200Y-128739523D01*
X181217200Y-128739523D02*
X181264819Y-128596666D01*
X181264819Y-128596666D02*
X181264819Y-128501428D01*
X181264819Y-128501428D02*
X181217200Y-128358571D01*
X181217200Y-128358571D02*
X181121961Y-128263333D01*
X181121961Y-128263333D02*
X181026723Y-128215714D01*
X181026723Y-128215714D02*
X180836247Y-128168095D01*
X180836247Y-128168095D02*
X180693390Y-128168095D01*
X180693390Y-128168095D02*
X180502914Y-128215714D01*
X180502914Y-128215714D02*
X180407676Y-128263333D01*
X180407676Y-128263333D02*
X180312438Y-128358571D01*
X180312438Y-128358571D02*
X180264819Y-128501428D01*
X180264819Y-128501428D02*
X180264819Y-128596666D01*
X180264819Y-128596666D02*
X180312438Y-128739523D01*
X180312438Y-128739523D02*
X180360057Y-128787142D01*
X181264819Y-129739523D02*
X181264819Y-129168095D01*
X181264819Y-129453809D02*
X180264819Y-129453809D01*
X180264819Y-129453809D02*
X180407676Y-129358571D01*
X180407676Y-129358571D02*
X180502914Y-129263333D01*
X180502914Y-129263333D02*
X180550533Y-129168095D01*
X180264819Y-130596666D02*
X180264819Y-130406190D01*
X180264819Y-130406190D02*
X180312438Y-130310952D01*
X180312438Y-130310952D02*
X180360057Y-130263333D01*
X180360057Y-130263333D02*
X180502914Y-130168095D01*
X180502914Y-130168095D02*
X180693390Y-130120476D01*
X180693390Y-130120476D02*
X181074342Y-130120476D01*
X181074342Y-130120476D02*
X181169580Y-130168095D01*
X181169580Y-130168095D02*
X181217200Y-130215714D01*
X181217200Y-130215714D02*
X181264819Y-130310952D01*
X181264819Y-130310952D02*
X181264819Y-130501428D01*
X181264819Y-130501428D02*
X181217200Y-130596666D01*
X181217200Y-130596666D02*
X181169580Y-130644285D01*
X181169580Y-130644285D02*
X181074342Y-130691904D01*
X181074342Y-130691904D02*
X180836247Y-130691904D01*
X180836247Y-130691904D02*
X180741009Y-130644285D01*
X180741009Y-130644285D02*
X180693390Y-130596666D01*
X180693390Y-130596666D02*
X180645771Y-130501428D01*
X180645771Y-130501428D02*
X180645771Y-130310952D01*
X180645771Y-130310952D02*
X180693390Y-130215714D01*
X180693390Y-130215714D02*
X180741009Y-130168095D01*
X180741009Y-130168095D02*
X180836247Y-130120476D01*
X143668094Y-119604819D02*
X143668094Y-118604819D01*
X143668094Y-118604819D02*
X143429999Y-118604819D01*
X143429999Y-118604819D02*
X143287142Y-118652438D01*
X143287142Y-118652438D02*
X143191904Y-118747676D01*
X143191904Y-118747676D02*
X143144285Y-118842914D01*
X143144285Y-118842914D02*
X143096666Y-119033390D01*
X143096666Y-119033390D02*
X143096666Y-119176247D01*
X143096666Y-119176247D02*
X143144285Y-119366723D01*
X143144285Y-119366723D02*
X143191904Y-119461961D01*
X143191904Y-119461961D02*
X143287142Y-119557200D01*
X143287142Y-119557200D02*
X143429999Y-119604819D01*
X143429999Y-119604819D02*
X143668094Y-119604819D01*
X142715713Y-118700057D02*
X142668094Y-118652438D01*
X142668094Y-118652438D02*
X142572856Y-118604819D01*
X142572856Y-118604819D02*
X142334761Y-118604819D01*
X142334761Y-118604819D02*
X142239523Y-118652438D01*
X142239523Y-118652438D02*
X142191904Y-118700057D01*
X142191904Y-118700057D02*
X142144285Y-118795295D01*
X142144285Y-118795295D02*
X142144285Y-118890533D01*
X142144285Y-118890533D02*
X142191904Y-119033390D01*
X142191904Y-119033390D02*
X142763332Y-119604819D01*
X142763332Y-119604819D02*
X142144285Y-119604819D01*
X179447857Y-63974819D02*
X179781190Y-63498628D01*
X180019285Y-63974819D02*
X180019285Y-62974819D01*
X180019285Y-62974819D02*
X179638333Y-62974819D01*
X179638333Y-62974819D02*
X179543095Y-63022438D01*
X179543095Y-63022438D02*
X179495476Y-63070057D01*
X179495476Y-63070057D02*
X179447857Y-63165295D01*
X179447857Y-63165295D02*
X179447857Y-63308152D01*
X179447857Y-63308152D02*
X179495476Y-63403390D01*
X179495476Y-63403390D02*
X179543095Y-63451009D01*
X179543095Y-63451009D02*
X179638333Y-63498628D01*
X179638333Y-63498628D02*
X180019285Y-63498628D01*
X179114523Y-62974819D02*
X178495476Y-62974819D01*
X178495476Y-62974819D02*
X178828809Y-63355771D01*
X178828809Y-63355771D02*
X178685952Y-63355771D01*
X178685952Y-63355771D02*
X178590714Y-63403390D01*
X178590714Y-63403390D02*
X178543095Y-63451009D01*
X178543095Y-63451009D02*
X178495476Y-63546247D01*
X178495476Y-63546247D02*
X178495476Y-63784342D01*
X178495476Y-63784342D02*
X178543095Y-63879580D01*
X178543095Y-63879580D02*
X178590714Y-63927200D01*
X178590714Y-63927200D02*
X178685952Y-63974819D01*
X178685952Y-63974819D02*
X178971666Y-63974819D01*
X178971666Y-63974819D02*
X179066904Y-63927200D01*
X179066904Y-63927200D02*
X179114523Y-63879580D01*
X177638333Y-62974819D02*
X177828809Y-62974819D01*
X177828809Y-62974819D02*
X177924047Y-63022438D01*
X177924047Y-63022438D02*
X177971666Y-63070057D01*
X177971666Y-63070057D02*
X178066904Y-63212914D01*
X178066904Y-63212914D02*
X178114523Y-63403390D01*
X178114523Y-63403390D02*
X178114523Y-63784342D01*
X178114523Y-63784342D02*
X178066904Y-63879580D01*
X178066904Y-63879580D02*
X178019285Y-63927200D01*
X178019285Y-63927200D02*
X177924047Y-63974819D01*
X177924047Y-63974819D02*
X177733571Y-63974819D01*
X177733571Y-63974819D02*
X177638333Y-63927200D01*
X177638333Y-63927200D02*
X177590714Y-63879580D01*
X177590714Y-63879580D02*
X177543095Y-63784342D01*
X177543095Y-63784342D02*
X177543095Y-63546247D01*
X177543095Y-63546247D02*
X177590714Y-63451009D01*
X177590714Y-63451009D02*
X177638333Y-63403390D01*
X177638333Y-63403390D02*
X177733571Y-63355771D01*
X177733571Y-63355771D02*
X177924047Y-63355771D01*
X177924047Y-63355771D02*
X178019285Y-63403390D01*
X178019285Y-63403390D02*
X178066904Y-63451009D01*
X178066904Y-63451009D02*
X178114523Y-63546247D01*
X119652857Y-77524819D02*
X119986190Y-77048628D01*
X120224285Y-77524819D02*
X120224285Y-76524819D01*
X120224285Y-76524819D02*
X119843333Y-76524819D01*
X119843333Y-76524819D02*
X119748095Y-76572438D01*
X119748095Y-76572438D02*
X119700476Y-76620057D01*
X119700476Y-76620057D02*
X119652857Y-76715295D01*
X119652857Y-76715295D02*
X119652857Y-76858152D01*
X119652857Y-76858152D02*
X119700476Y-76953390D01*
X119700476Y-76953390D02*
X119748095Y-77001009D01*
X119748095Y-77001009D02*
X119843333Y-77048628D01*
X119843333Y-77048628D02*
X120224285Y-77048628D01*
X119319523Y-76524819D02*
X118700476Y-76524819D01*
X118700476Y-76524819D02*
X119033809Y-76905771D01*
X119033809Y-76905771D02*
X118890952Y-76905771D01*
X118890952Y-76905771D02*
X118795714Y-76953390D01*
X118795714Y-76953390D02*
X118748095Y-77001009D01*
X118748095Y-77001009D02*
X118700476Y-77096247D01*
X118700476Y-77096247D02*
X118700476Y-77334342D01*
X118700476Y-77334342D02*
X118748095Y-77429580D01*
X118748095Y-77429580D02*
X118795714Y-77477200D01*
X118795714Y-77477200D02*
X118890952Y-77524819D01*
X118890952Y-77524819D02*
X119176666Y-77524819D01*
X119176666Y-77524819D02*
X119271904Y-77477200D01*
X119271904Y-77477200D02*
X119319523Y-77429580D01*
X117748095Y-77524819D02*
X118319523Y-77524819D01*
X118033809Y-77524819D02*
X118033809Y-76524819D01*
X118033809Y-76524819D02*
X118129047Y-76667676D01*
X118129047Y-76667676D02*
X118224285Y-76762914D01*
X118224285Y-76762914D02*
X118319523Y-76810533D01*
X186524819Y-126658333D02*
X186048628Y-126325000D01*
X186524819Y-126086905D02*
X185524819Y-126086905D01*
X185524819Y-126086905D02*
X185524819Y-126467857D01*
X185524819Y-126467857D02*
X185572438Y-126563095D01*
X185572438Y-126563095D02*
X185620057Y-126610714D01*
X185620057Y-126610714D02*
X185715295Y-126658333D01*
X185715295Y-126658333D02*
X185858152Y-126658333D01*
X185858152Y-126658333D02*
X185953390Y-126610714D01*
X185953390Y-126610714D02*
X186001009Y-126563095D01*
X186001009Y-126563095D02*
X186048628Y-126467857D01*
X186048628Y-126467857D02*
X186048628Y-126086905D01*
X185620057Y-127039286D02*
X185572438Y-127086905D01*
X185572438Y-127086905D02*
X185524819Y-127182143D01*
X185524819Y-127182143D02*
X185524819Y-127420238D01*
X185524819Y-127420238D02*
X185572438Y-127515476D01*
X185572438Y-127515476D02*
X185620057Y-127563095D01*
X185620057Y-127563095D02*
X185715295Y-127610714D01*
X185715295Y-127610714D02*
X185810533Y-127610714D01*
X185810533Y-127610714D02*
X185953390Y-127563095D01*
X185953390Y-127563095D02*
X186524819Y-126991667D01*
X186524819Y-126991667D02*
X186524819Y-127610714D01*
X126142857Y-66544819D02*
X126476190Y-66068628D01*
X126714285Y-66544819D02*
X126714285Y-65544819D01*
X126714285Y-65544819D02*
X126333333Y-65544819D01*
X126333333Y-65544819D02*
X126238095Y-65592438D01*
X126238095Y-65592438D02*
X126190476Y-65640057D01*
X126190476Y-65640057D02*
X126142857Y-65735295D01*
X126142857Y-65735295D02*
X126142857Y-65878152D01*
X126142857Y-65878152D02*
X126190476Y-65973390D01*
X126190476Y-65973390D02*
X126238095Y-66021009D01*
X126238095Y-66021009D02*
X126333333Y-66068628D01*
X126333333Y-66068628D02*
X126714285Y-66068628D01*
X125809523Y-65544819D02*
X125190476Y-65544819D01*
X125190476Y-65544819D02*
X125523809Y-65925771D01*
X125523809Y-65925771D02*
X125380952Y-65925771D01*
X125380952Y-65925771D02*
X125285714Y-65973390D01*
X125285714Y-65973390D02*
X125238095Y-66021009D01*
X125238095Y-66021009D02*
X125190476Y-66116247D01*
X125190476Y-66116247D02*
X125190476Y-66354342D01*
X125190476Y-66354342D02*
X125238095Y-66449580D01*
X125238095Y-66449580D02*
X125285714Y-66497200D01*
X125285714Y-66497200D02*
X125380952Y-66544819D01*
X125380952Y-66544819D02*
X125666666Y-66544819D01*
X125666666Y-66544819D02*
X125761904Y-66497200D01*
X125761904Y-66497200D02*
X125809523Y-66449580D01*
X124857142Y-65544819D02*
X124190476Y-65544819D01*
X124190476Y-65544819D02*
X124619047Y-66544819D01*
X175672857Y-68834819D02*
X176006190Y-68358628D01*
X176244285Y-68834819D02*
X176244285Y-67834819D01*
X176244285Y-67834819D02*
X175863333Y-67834819D01*
X175863333Y-67834819D02*
X175768095Y-67882438D01*
X175768095Y-67882438D02*
X175720476Y-67930057D01*
X175720476Y-67930057D02*
X175672857Y-68025295D01*
X175672857Y-68025295D02*
X175672857Y-68168152D01*
X175672857Y-68168152D02*
X175720476Y-68263390D01*
X175720476Y-68263390D02*
X175768095Y-68311009D01*
X175768095Y-68311009D02*
X175863333Y-68358628D01*
X175863333Y-68358628D02*
X176244285Y-68358628D01*
X174720476Y-68834819D02*
X175291904Y-68834819D01*
X175006190Y-68834819D02*
X175006190Y-67834819D01*
X175006190Y-67834819D02*
X175101428Y-67977676D01*
X175101428Y-67977676D02*
X175196666Y-68072914D01*
X175196666Y-68072914D02*
X175291904Y-68120533D01*
X174387142Y-67834819D02*
X173768095Y-67834819D01*
X173768095Y-67834819D02*
X174101428Y-68215771D01*
X174101428Y-68215771D02*
X173958571Y-68215771D01*
X173958571Y-68215771D02*
X173863333Y-68263390D01*
X173863333Y-68263390D02*
X173815714Y-68311009D01*
X173815714Y-68311009D02*
X173768095Y-68406247D01*
X173768095Y-68406247D02*
X173768095Y-68644342D01*
X173768095Y-68644342D02*
X173815714Y-68739580D01*
X173815714Y-68739580D02*
X173863333Y-68787200D01*
X173863333Y-68787200D02*
X173958571Y-68834819D01*
X173958571Y-68834819D02*
X174244285Y-68834819D01*
X174244285Y-68834819D02*
X174339523Y-68787200D01*
X174339523Y-68787200D02*
X174387142Y-68739580D01*
X170924819Y-119870056D02*
X170448628Y-119536723D01*
X170924819Y-119298628D02*
X169924819Y-119298628D01*
X169924819Y-119298628D02*
X169924819Y-119679580D01*
X169924819Y-119679580D02*
X169972438Y-119774818D01*
X169972438Y-119774818D02*
X170020057Y-119822437D01*
X170020057Y-119822437D02*
X170115295Y-119870056D01*
X170115295Y-119870056D02*
X170258152Y-119870056D01*
X170258152Y-119870056D02*
X170353390Y-119822437D01*
X170353390Y-119822437D02*
X170401009Y-119774818D01*
X170401009Y-119774818D02*
X170448628Y-119679580D01*
X170448628Y-119679580D02*
X170448628Y-119298628D01*
X170258152Y-120727199D02*
X170924819Y-120727199D01*
X169877200Y-120489104D02*
X170591485Y-120251009D01*
X170591485Y-120251009D02*
X170591485Y-120870056D01*
X138519580Y-102787142D02*
X138567200Y-102739523D01*
X138567200Y-102739523D02*
X138614819Y-102596666D01*
X138614819Y-102596666D02*
X138614819Y-102501428D01*
X138614819Y-102501428D02*
X138567200Y-102358571D01*
X138567200Y-102358571D02*
X138471961Y-102263333D01*
X138471961Y-102263333D02*
X138376723Y-102215714D01*
X138376723Y-102215714D02*
X138186247Y-102168095D01*
X138186247Y-102168095D02*
X138043390Y-102168095D01*
X138043390Y-102168095D02*
X137852914Y-102215714D01*
X137852914Y-102215714D02*
X137757676Y-102263333D01*
X137757676Y-102263333D02*
X137662438Y-102358571D01*
X137662438Y-102358571D02*
X137614819Y-102501428D01*
X137614819Y-102501428D02*
X137614819Y-102596666D01*
X137614819Y-102596666D02*
X137662438Y-102739523D01*
X137662438Y-102739523D02*
X137710057Y-102787142D01*
X137710057Y-103168095D02*
X137662438Y-103215714D01*
X137662438Y-103215714D02*
X137614819Y-103310952D01*
X137614819Y-103310952D02*
X137614819Y-103549047D01*
X137614819Y-103549047D02*
X137662438Y-103644285D01*
X137662438Y-103644285D02*
X137710057Y-103691904D01*
X137710057Y-103691904D02*
X137805295Y-103739523D01*
X137805295Y-103739523D02*
X137900533Y-103739523D01*
X137900533Y-103739523D02*
X138043390Y-103691904D01*
X138043390Y-103691904D02*
X138614819Y-103120476D01*
X138614819Y-103120476D02*
X138614819Y-103739523D01*
X138614819Y-104691904D02*
X138614819Y-104120476D01*
X138614819Y-104406190D02*
X137614819Y-104406190D01*
X137614819Y-104406190D02*
X137757676Y-104310952D01*
X137757676Y-104310952D02*
X137852914Y-104215714D01*
X137852914Y-104215714D02*
X137900533Y-104120476D01*
X129237857Y-70144819D02*
X129571190Y-69668628D01*
X129809285Y-70144819D02*
X129809285Y-69144819D01*
X129809285Y-69144819D02*
X129428333Y-69144819D01*
X129428333Y-69144819D02*
X129333095Y-69192438D01*
X129333095Y-69192438D02*
X129285476Y-69240057D01*
X129285476Y-69240057D02*
X129237857Y-69335295D01*
X129237857Y-69335295D02*
X129237857Y-69478152D01*
X129237857Y-69478152D02*
X129285476Y-69573390D01*
X129285476Y-69573390D02*
X129333095Y-69621009D01*
X129333095Y-69621009D02*
X129428333Y-69668628D01*
X129428333Y-69668628D02*
X129809285Y-69668628D01*
X128856904Y-69240057D02*
X128809285Y-69192438D01*
X128809285Y-69192438D02*
X128714047Y-69144819D01*
X128714047Y-69144819D02*
X128475952Y-69144819D01*
X128475952Y-69144819D02*
X128380714Y-69192438D01*
X128380714Y-69192438D02*
X128333095Y-69240057D01*
X128333095Y-69240057D02*
X128285476Y-69335295D01*
X128285476Y-69335295D02*
X128285476Y-69430533D01*
X128285476Y-69430533D02*
X128333095Y-69573390D01*
X128333095Y-69573390D02*
X128904523Y-70144819D01*
X128904523Y-70144819D02*
X128285476Y-70144819D01*
X127333095Y-70144819D02*
X127904523Y-70144819D01*
X127618809Y-70144819D02*
X127618809Y-69144819D01*
X127618809Y-69144819D02*
X127714047Y-69287676D01*
X127714047Y-69287676D02*
X127809285Y-69382914D01*
X127809285Y-69382914D02*
X127904523Y-69430533D01*
X142574819Y-80347142D02*
X142098628Y-80013809D01*
X142574819Y-79775714D02*
X141574819Y-79775714D01*
X141574819Y-79775714D02*
X141574819Y-80156666D01*
X141574819Y-80156666D02*
X141622438Y-80251904D01*
X141622438Y-80251904D02*
X141670057Y-80299523D01*
X141670057Y-80299523D02*
X141765295Y-80347142D01*
X141765295Y-80347142D02*
X141908152Y-80347142D01*
X141908152Y-80347142D02*
X142003390Y-80299523D01*
X142003390Y-80299523D02*
X142051009Y-80251904D01*
X142051009Y-80251904D02*
X142098628Y-80156666D01*
X142098628Y-80156666D02*
X142098628Y-79775714D01*
X141670057Y-80728095D02*
X141622438Y-80775714D01*
X141622438Y-80775714D02*
X141574819Y-80870952D01*
X141574819Y-80870952D02*
X141574819Y-81109047D01*
X141574819Y-81109047D02*
X141622438Y-81204285D01*
X141622438Y-81204285D02*
X141670057Y-81251904D01*
X141670057Y-81251904D02*
X141765295Y-81299523D01*
X141765295Y-81299523D02*
X141860533Y-81299523D01*
X141860533Y-81299523D02*
X142003390Y-81251904D01*
X142003390Y-81251904D02*
X142574819Y-80680476D01*
X142574819Y-80680476D02*
X142574819Y-81299523D01*
X141908152Y-82156666D02*
X142574819Y-82156666D01*
X141527200Y-81918571D02*
X142241485Y-81680476D01*
X142241485Y-81680476D02*
X142241485Y-82299523D01*
X183474819Y-122007296D02*
X182998628Y-121673963D01*
X183474819Y-121435868D02*
X182474819Y-121435868D01*
X182474819Y-121435868D02*
X182474819Y-121816820D01*
X182474819Y-121816820D02*
X182522438Y-121912058D01*
X182522438Y-121912058D02*
X182570057Y-121959677D01*
X182570057Y-121959677D02*
X182665295Y-122007296D01*
X182665295Y-122007296D02*
X182808152Y-122007296D01*
X182808152Y-122007296D02*
X182903390Y-121959677D01*
X182903390Y-121959677D02*
X182951009Y-121912058D01*
X182951009Y-121912058D02*
X182998628Y-121816820D01*
X182998628Y-121816820D02*
X182998628Y-121435868D01*
X182474819Y-122340630D02*
X182474819Y-122959677D01*
X182474819Y-122959677D02*
X182855771Y-122626344D01*
X182855771Y-122626344D02*
X182855771Y-122769201D01*
X182855771Y-122769201D02*
X182903390Y-122864439D01*
X182903390Y-122864439D02*
X182951009Y-122912058D01*
X182951009Y-122912058D02*
X183046247Y-122959677D01*
X183046247Y-122959677D02*
X183284342Y-122959677D01*
X183284342Y-122959677D02*
X183379580Y-122912058D01*
X183379580Y-122912058D02*
X183427200Y-122864439D01*
X183427200Y-122864439D02*
X183474819Y-122769201D01*
X183474819Y-122769201D02*
X183474819Y-122483487D01*
X183474819Y-122483487D02*
X183427200Y-122388249D01*
X183427200Y-122388249D02*
X183379580Y-122340630D01*
X182474819Y-123293011D02*
X182474819Y-123912058D01*
X182474819Y-123912058D02*
X182855771Y-123578725D01*
X182855771Y-123578725D02*
X182855771Y-123721582D01*
X182855771Y-123721582D02*
X182903390Y-123816820D01*
X182903390Y-123816820D02*
X182951009Y-123864439D01*
X182951009Y-123864439D02*
X183046247Y-123912058D01*
X183046247Y-123912058D02*
X183284342Y-123912058D01*
X183284342Y-123912058D02*
X183379580Y-123864439D01*
X183379580Y-123864439D02*
X183427200Y-123816820D01*
X183427200Y-123816820D02*
X183474819Y-123721582D01*
X183474819Y-123721582D02*
X183474819Y-123435868D01*
X183474819Y-123435868D02*
X183427200Y-123340630D01*
X183427200Y-123340630D02*
X183379580Y-123293011D01*
X149954819Y-100497142D02*
X149478628Y-100163809D01*
X149954819Y-99925714D02*
X148954819Y-99925714D01*
X148954819Y-99925714D02*
X148954819Y-100306666D01*
X148954819Y-100306666D02*
X149002438Y-100401904D01*
X149002438Y-100401904D02*
X149050057Y-100449523D01*
X149050057Y-100449523D02*
X149145295Y-100497142D01*
X149145295Y-100497142D02*
X149288152Y-100497142D01*
X149288152Y-100497142D02*
X149383390Y-100449523D01*
X149383390Y-100449523D02*
X149431009Y-100401904D01*
X149431009Y-100401904D02*
X149478628Y-100306666D01*
X149478628Y-100306666D02*
X149478628Y-99925714D01*
X149050057Y-100878095D02*
X149002438Y-100925714D01*
X149002438Y-100925714D02*
X148954819Y-101020952D01*
X148954819Y-101020952D02*
X148954819Y-101259047D01*
X148954819Y-101259047D02*
X149002438Y-101354285D01*
X149002438Y-101354285D02*
X149050057Y-101401904D01*
X149050057Y-101401904D02*
X149145295Y-101449523D01*
X149145295Y-101449523D02*
X149240533Y-101449523D01*
X149240533Y-101449523D02*
X149383390Y-101401904D01*
X149383390Y-101401904D02*
X149954819Y-100830476D01*
X149954819Y-100830476D02*
X149954819Y-101449523D01*
X148954819Y-102306666D02*
X148954819Y-102116190D01*
X148954819Y-102116190D02*
X149002438Y-102020952D01*
X149002438Y-102020952D02*
X149050057Y-101973333D01*
X149050057Y-101973333D02*
X149192914Y-101878095D01*
X149192914Y-101878095D02*
X149383390Y-101830476D01*
X149383390Y-101830476D02*
X149764342Y-101830476D01*
X149764342Y-101830476D02*
X149859580Y-101878095D01*
X149859580Y-101878095D02*
X149907200Y-101925714D01*
X149907200Y-101925714D02*
X149954819Y-102020952D01*
X149954819Y-102020952D02*
X149954819Y-102211428D01*
X149954819Y-102211428D02*
X149907200Y-102306666D01*
X149907200Y-102306666D02*
X149859580Y-102354285D01*
X149859580Y-102354285D02*
X149764342Y-102401904D01*
X149764342Y-102401904D02*
X149526247Y-102401904D01*
X149526247Y-102401904D02*
X149431009Y-102354285D01*
X149431009Y-102354285D02*
X149383390Y-102306666D01*
X149383390Y-102306666D02*
X149335771Y-102211428D01*
X149335771Y-102211428D02*
X149335771Y-102020952D01*
X149335771Y-102020952D02*
X149383390Y-101925714D01*
X149383390Y-101925714D02*
X149431009Y-101878095D01*
X149431009Y-101878095D02*
X149526247Y-101830476D01*
X188172857Y-70024819D02*
X188506190Y-69548628D01*
X188744285Y-70024819D02*
X188744285Y-69024819D01*
X188744285Y-69024819D02*
X188363333Y-69024819D01*
X188363333Y-69024819D02*
X188268095Y-69072438D01*
X188268095Y-69072438D02*
X188220476Y-69120057D01*
X188220476Y-69120057D02*
X188172857Y-69215295D01*
X188172857Y-69215295D02*
X188172857Y-69358152D01*
X188172857Y-69358152D02*
X188220476Y-69453390D01*
X188220476Y-69453390D02*
X188268095Y-69501009D01*
X188268095Y-69501009D02*
X188363333Y-69548628D01*
X188363333Y-69548628D02*
X188744285Y-69548628D01*
X187839523Y-69024819D02*
X187220476Y-69024819D01*
X187220476Y-69024819D02*
X187553809Y-69405771D01*
X187553809Y-69405771D02*
X187410952Y-69405771D01*
X187410952Y-69405771D02*
X187315714Y-69453390D01*
X187315714Y-69453390D02*
X187268095Y-69501009D01*
X187268095Y-69501009D02*
X187220476Y-69596247D01*
X187220476Y-69596247D02*
X187220476Y-69834342D01*
X187220476Y-69834342D02*
X187268095Y-69929580D01*
X187268095Y-69929580D02*
X187315714Y-69977200D01*
X187315714Y-69977200D02*
X187410952Y-70024819D01*
X187410952Y-70024819D02*
X187696666Y-70024819D01*
X187696666Y-70024819D02*
X187791904Y-69977200D01*
X187791904Y-69977200D02*
X187839523Y-69929580D01*
X186839523Y-69120057D02*
X186791904Y-69072438D01*
X186791904Y-69072438D02*
X186696666Y-69024819D01*
X186696666Y-69024819D02*
X186458571Y-69024819D01*
X186458571Y-69024819D02*
X186363333Y-69072438D01*
X186363333Y-69072438D02*
X186315714Y-69120057D01*
X186315714Y-69120057D02*
X186268095Y-69215295D01*
X186268095Y-69215295D02*
X186268095Y-69310533D01*
X186268095Y-69310533D02*
X186315714Y-69453390D01*
X186315714Y-69453390D02*
X186887142Y-70024819D01*
X186887142Y-70024819D02*
X186268095Y-70024819D01*
X136234819Y-50127142D02*
X135758628Y-49793809D01*
X136234819Y-49555714D02*
X135234819Y-49555714D01*
X135234819Y-49555714D02*
X135234819Y-49936666D01*
X135234819Y-49936666D02*
X135282438Y-50031904D01*
X135282438Y-50031904D02*
X135330057Y-50079523D01*
X135330057Y-50079523D02*
X135425295Y-50127142D01*
X135425295Y-50127142D02*
X135568152Y-50127142D01*
X135568152Y-50127142D02*
X135663390Y-50079523D01*
X135663390Y-50079523D02*
X135711009Y-50031904D01*
X135711009Y-50031904D02*
X135758628Y-49936666D01*
X135758628Y-49936666D02*
X135758628Y-49555714D01*
X136234819Y-51079523D02*
X136234819Y-50508095D01*
X136234819Y-50793809D02*
X135234819Y-50793809D01*
X135234819Y-50793809D02*
X135377676Y-50698571D01*
X135377676Y-50698571D02*
X135472914Y-50603333D01*
X135472914Y-50603333D02*
X135520533Y-50508095D01*
X135234819Y-51984285D02*
X135234819Y-51508095D01*
X135234819Y-51508095D02*
X135711009Y-51460476D01*
X135711009Y-51460476D02*
X135663390Y-51508095D01*
X135663390Y-51508095D02*
X135615771Y-51603333D01*
X135615771Y-51603333D02*
X135615771Y-51841428D01*
X135615771Y-51841428D02*
X135663390Y-51936666D01*
X135663390Y-51936666D02*
X135711009Y-51984285D01*
X135711009Y-51984285D02*
X135806247Y-52031904D01*
X135806247Y-52031904D02*
X136044342Y-52031904D01*
X136044342Y-52031904D02*
X136139580Y-51984285D01*
X136139580Y-51984285D02*
X136187200Y-51936666D01*
X136187200Y-51936666D02*
X136234819Y-51841428D01*
X136234819Y-51841428D02*
X136234819Y-51603333D01*
X136234819Y-51603333D02*
X136187200Y-51508095D01*
X136187200Y-51508095D02*
X136139580Y-51460476D01*
X145004819Y-80257142D02*
X144528628Y-79923809D01*
X145004819Y-79685714D02*
X144004819Y-79685714D01*
X144004819Y-79685714D02*
X144004819Y-80066666D01*
X144004819Y-80066666D02*
X144052438Y-80161904D01*
X144052438Y-80161904D02*
X144100057Y-80209523D01*
X144100057Y-80209523D02*
X144195295Y-80257142D01*
X144195295Y-80257142D02*
X144338152Y-80257142D01*
X144338152Y-80257142D02*
X144433390Y-80209523D01*
X144433390Y-80209523D02*
X144481009Y-80161904D01*
X144481009Y-80161904D02*
X144528628Y-80066666D01*
X144528628Y-80066666D02*
X144528628Y-79685714D01*
X144100057Y-80638095D02*
X144052438Y-80685714D01*
X144052438Y-80685714D02*
X144004819Y-80780952D01*
X144004819Y-80780952D02*
X144004819Y-81019047D01*
X144004819Y-81019047D02*
X144052438Y-81114285D01*
X144052438Y-81114285D02*
X144100057Y-81161904D01*
X144100057Y-81161904D02*
X144195295Y-81209523D01*
X144195295Y-81209523D02*
X144290533Y-81209523D01*
X144290533Y-81209523D02*
X144433390Y-81161904D01*
X144433390Y-81161904D02*
X145004819Y-80590476D01*
X145004819Y-80590476D02*
X145004819Y-81209523D01*
X144004819Y-81542857D02*
X144004819Y-82161904D01*
X144004819Y-82161904D02*
X144385771Y-81828571D01*
X144385771Y-81828571D02*
X144385771Y-81971428D01*
X144385771Y-81971428D02*
X144433390Y-82066666D01*
X144433390Y-82066666D02*
X144481009Y-82114285D01*
X144481009Y-82114285D02*
X144576247Y-82161904D01*
X144576247Y-82161904D02*
X144814342Y-82161904D01*
X144814342Y-82161904D02*
X144909580Y-82114285D01*
X144909580Y-82114285D02*
X144957200Y-82066666D01*
X144957200Y-82066666D02*
X145004819Y-81971428D01*
X145004819Y-81971428D02*
X145004819Y-81685714D01*
X145004819Y-81685714D02*
X144957200Y-81590476D01*
X144957200Y-81590476D02*
X144909580Y-81542857D01*
X147714819Y-80193333D02*
X147238628Y-79860000D01*
X147714819Y-79621905D02*
X146714819Y-79621905D01*
X146714819Y-79621905D02*
X146714819Y-80002857D01*
X146714819Y-80002857D02*
X146762438Y-80098095D01*
X146762438Y-80098095D02*
X146810057Y-80145714D01*
X146810057Y-80145714D02*
X146905295Y-80193333D01*
X146905295Y-80193333D02*
X147048152Y-80193333D01*
X147048152Y-80193333D02*
X147143390Y-80145714D01*
X147143390Y-80145714D02*
X147191009Y-80098095D01*
X147191009Y-80098095D02*
X147238628Y-80002857D01*
X147238628Y-80002857D02*
X147238628Y-79621905D01*
X146714819Y-81098095D02*
X146714819Y-80621905D01*
X146714819Y-80621905D02*
X147191009Y-80574286D01*
X147191009Y-80574286D02*
X147143390Y-80621905D01*
X147143390Y-80621905D02*
X147095771Y-80717143D01*
X147095771Y-80717143D02*
X147095771Y-80955238D01*
X147095771Y-80955238D02*
X147143390Y-81050476D01*
X147143390Y-81050476D02*
X147191009Y-81098095D01*
X147191009Y-81098095D02*
X147286247Y-81145714D01*
X147286247Y-81145714D02*
X147524342Y-81145714D01*
X147524342Y-81145714D02*
X147619580Y-81098095D01*
X147619580Y-81098095D02*
X147667200Y-81050476D01*
X147667200Y-81050476D02*
X147714819Y-80955238D01*
X147714819Y-80955238D02*
X147714819Y-80717143D01*
X147714819Y-80717143D02*
X147667200Y-80621905D01*
X147667200Y-80621905D02*
X147619580Y-80574286D01*
X136594819Y-67937142D02*
X136118628Y-67603809D01*
X136594819Y-67365714D02*
X135594819Y-67365714D01*
X135594819Y-67365714D02*
X135594819Y-67746666D01*
X135594819Y-67746666D02*
X135642438Y-67841904D01*
X135642438Y-67841904D02*
X135690057Y-67889523D01*
X135690057Y-67889523D02*
X135785295Y-67937142D01*
X135785295Y-67937142D02*
X135928152Y-67937142D01*
X135928152Y-67937142D02*
X136023390Y-67889523D01*
X136023390Y-67889523D02*
X136071009Y-67841904D01*
X136071009Y-67841904D02*
X136118628Y-67746666D01*
X136118628Y-67746666D02*
X136118628Y-67365714D01*
X136594819Y-68889523D02*
X136594819Y-68318095D01*
X136594819Y-68603809D02*
X135594819Y-68603809D01*
X135594819Y-68603809D02*
X135737676Y-68508571D01*
X135737676Y-68508571D02*
X135832914Y-68413333D01*
X135832914Y-68413333D02*
X135880533Y-68318095D01*
X135928152Y-69746666D02*
X136594819Y-69746666D01*
X135547200Y-69508571D02*
X136261485Y-69270476D01*
X136261485Y-69270476D02*
X136261485Y-69889523D01*
X123209579Y-84293333D02*
X123257199Y-84245714D01*
X123257199Y-84245714D02*
X123304818Y-84102857D01*
X123304818Y-84102857D02*
X123304818Y-84007619D01*
X123304818Y-84007619D02*
X123257199Y-83864762D01*
X123257199Y-83864762D02*
X123161960Y-83769524D01*
X123161960Y-83769524D02*
X123066722Y-83721905D01*
X123066722Y-83721905D02*
X122876246Y-83674286D01*
X122876246Y-83674286D02*
X122733389Y-83674286D01*
X122733389Y-83674286D02*
X122542913Y-83721905D01*
X122542913Y-83721905D02*
X122447675Y-83769524D01*
X122447675Y-83769524D02*
X122352437Y-83864762D01*
X122352437Y-83864762D02*
X122304818Y-84007619D01*
X122304818Y-84007619D02*
X122304818Y-84102857D01*
X122304818Y-84102857D02*
X122352437Y-84245714D01*
X122352437Y-84245714D02*
X122400056Y-84293333D01*
X122638151Y-85150476D02*
X123304818Y-85150476D01*
X122257199Y-84912381D02*
X122971484Y-84674286D01*
X122971484Y-84674286D02*
X122971484Y-85293333D01*
X177592857Y-50804819D02*
X177926190Y-50328628D01*
X178164285Y-50804819D02*
X178164285Y-49804819D01*
X178164285Y-49804819D02*
X177783333Y-49804819D01*
X177783333Y-49804819D02*
X177688095Y-49852438D01*
X177688095Y-49852438D02*
X177640476Y-49900057D01*
X177640476Y-49900057D02*
X177592857Y-49995295D01*
X177592857Y-49995295D02*
X177592857Y-50138152D01*
X177592857Y-50138152D02*
X177640476Y-50233390D01*
X177640476Y-50233390D02*
X177688095Y-50281009D01*
X177688095Y-50281009D02*
X177783333Y-50328628D01*
X177783333Y-50328628D02*
X178164285Y-50328628D01*
X176640476Y-50804819D02*
X177211904Y-50804819D01*
X176926190Y-50804819D02*
X176926190Y-49804819D01*
X176926190Y-49804819D02*
X177021428Y-49947676D01*
X177021428Y-49947676D02*
X177116666Y-50042914D01*
X177116666Y-50042914D02*
X177211904Y-50090533D01*
X176307142Y-49804819D02*
X175640476Y-49804819D01*
X175640476Y-49804819D02*
X176069047Y-50804819D01*
X180652857Y-46857400D02*
X180986190Y-46381209D01*
X181224285Y-46857400D02*
X181224285Y-45857400D01*
X181224285Y-45857400D02*
X180843333Y-45857400D01*
X180843333Y-45857400D02*
X180748095Y-45905019D01*
X180748095Y-45905019D02*
X180700476Y-45952638D01*
X180700476Y-45952638D02*
X180652857Y-46047876D01*
X180652857Y-46047876D02*
X180652857Y-46190733D01*
X180652857Y-46190733D02*
X180700476Y-46285971D01*
X180700476Y-46285971D02*
X180748095Y-46333590D01*
X180748095Y-46333590D02*
X180843333Y-46381209D01*
X180843333Y-46381209D02*
X181224285Y-46381209D01*
X179700476Y-46857400D02*
X180271904Y-46857400D01*
X179986190Y-46857400D02*
X179986190Y-45857400D01*
X179986190Y-45857400D02*
X180081428Y-46000257D01*
X180081428Y-46000257D02*
X180176666Y-46095495D01*
X180176666Y-46095495D02*
X180271904Y-46143114D01*
X179129047Y-46285971D02*
X179224285Y-46238352D01*
X179224285Y-46238352D02*
X179271904Y-46190733D01*
X179271904Y-46190733D02*
X179319523Y-46095495D01*
X179319523Y-46095495D02*
X179319523Y-46047876D01*
X179319523Y-46047876D02*
X179271904Y-45952638D01*
X179271904Y-45952638D02*
X179224285Y-45905019D01*
X179224285Y-45905019D02*
X179129047Y-45857400D01*
X179129047Y-45857400D02*
X178938571Y-45857400D01*
X178938571Y-45857400D02*
X178843333Y-45905019D01*
X178843333Y-45905019D02*
X178795714Y-45952638D01*
X178795714Y-45952638D02*
X178748095Y-46047876D01*
X178748095Y-46047876D02*
X178748095Y-46095495D01*
X178748095Y-46095495D02*
X178795714Y-46190733D01*
X178795714Y-46190733D02*
X178843333Y-46238352D01*
X178843333Y-46238352D02*
X178938571Y-46285971D01*
X178938571Y-46285971D02*
X179129047Y-46285971D01*
X179129047Y-46285971D02*
X179224285Y-46333590D01*
X179224285Y-46333590D02*
X179271904Y-46381209D01*
X179271904Y-46381209D02*
X179319523Y-46476447D01*
X179319523Y-46476447D02*
X179319523Y-46666923D01*
X179319523Y-46666923D02*
X179271904Y-46762161D01*
X179271904Y-46762161D02*
X179224285Y-46809781D01*
X179224285Y-46809781D02*
X179129047Y-46857400D01*
X179129047Y-46857400D02*
X178938571Y-46857400D01*
X178938571Y-46857400D02*
X178843333Y-46809781D01*
X178843333Y-46809781D02*
X178795714Y-46762161D01*
X178795714Y-46762161D02*
X178748095Y-46666923D01*
X178748095Y-46666923D02*
X178748095Y-46476447D01*
X178748095Y-46476447D02*
X178795714Y-46381209D01*
X178795714Y-46381209D02*
X178843333Y-46333590D01*
X178843333Y-46333590D02*
X178938571Y-46285971D01*
X113584819Y-73117142D02*
X113108628Y-72783809D01*
X113584819Y-72545714D02*
X112584819Y-72545714D01*
X112584819Y-72545714D02*
X112584819Y-72926666D01*
X112584819Y-72926666D02*
X112632438Y-73021904D01*
X112632438Y-73021904D02*
X112680057Y-73069523D01*
X112680057Y-73069523D02*
X112775295Y-73117142D01*
X112775295Y-73117142D02*
X112918152Y-73117142D01*
X112918152Y-73117142D02*
X113013390Y-73069523D01*
X113013390Y-73069523D02*
X113061009Y-73021904D01*
X113061009Y-73021904D02*
X113108628Y-72926666D01*
X113108628Y-72926666D02*
X113108628Y-72545714D01*
X112680057Y-73498095D02*
X112632438Y-73545714D01*
X112632438Y-73545714D02*
X112584819Y-73640952D01*
X112584819Y-73640952D02*
X112584819Y-73879047D01*
X112584819Y-73879047D02*
X112632438Y-73974285D01*
X112632438Y-73974285D02*
X112680057Y-74021904D01*
X112680057Y-74021904D02*
X112775295Y-74069523D01*
X112775295Y-74069523D02*
X112870533Y-74069523D01*
X112870533Y-74069523D02*
X113013390Y-74021904D01*
X113013390Y-74021904D02*
X113584819Y-73450476D01*
X113584819Y-73450476D02*
X113584819Y-74069523D01*
X113584819Y-74545714D02*
X113584819Y-74736190D01*
X113584819Y-74736190D02*
X113537200Y-74831428D01*
X113537200Y-74831428D02*
X113489580Y-74879047D01*
X113489580Y-74879047D02*
X113346723Y-74974285D01*
X113346723Y-74974285D02*
X113156247Y-75021904D01*
X113156247Y-75021904D02*
X112775295Y-75021904D01*
X112775295Y-75021904D02*
X112680057Y-74974285D01*
X112680057Y-74974285D02*
X112632438Y-74926666D01*
X112632438Y-74926666D02*
X112584819Y-74831428D01*
X112584819Y-74831428D02*
X112584819Y-74640952D01*
X112584819Y-74640952D02*
X112632438Y-74545714D01*
X112632438Y-74545714D02*
X112680057Y-74498095D01*
X112680057Y-74498095D02*
X112775295Y-74450476D01*
X112775295Y-74450476D02*
X113013390Y-74450476D01*
X113013390Y-74450476D02*
X113108628Y-74498095D01*
X113108628Y-74498095D02*
X113156247Y-74545714D01*
X113156247Y-74545714D02*
X113203866Y-74640952D01*
X113203866Y-74640952D02*
X113203866Y-74831428D01*
X113203866Y-74831428D02*
X113156247Y-74926666D01*
X113156247Y-74926666D02*
X113108628Y-74974285D01*
X113108628Y-74974285D02*
X113013390Y-75021904D01*
X128089580Y-84353333D02*
X128137200Y-84305714D01*
X128137200Y-84305714D02*
X128184819Y-84162857D01*
X128184819Y-84162857D02*
X128184819Y-84067619D01*
X128184819Y-84067619D02*
X128137200Y-83924762D01*
X128137200Y-83924762D02*
X128041961Y-83829524D01*
X128041961Y-83829524D02*
X127946723Y-83781905D01*
X127946723Y-83781905D02*
X127756247Y-83734286D01*
X127756247Y-83734286D02*
X127613390Y-83734286D01*
X127613390Y-83734286D02*
X127422914Y-83781905D01*
X127422914Y-83781905D02*
X127327676Y-83829524D01*
X127327676Y-83829524D02*
X127232438Y-83924762D01*
X127232438Y-83924762D02*
X127184819Y-84067619D01*
X127184819Y-84067619D02*
X127184819Y-84162857D01*
X127184819Y-84162857D02*
X127232438Y-84305714D01*
X127232438Y-84305714D02*
X127280057Y-84353333D01*
X127184819Y-85258095D02*
X127184819Y-84781905D01*
X127184819Y-84781905D02*
X127661009Y-84734286D01*
X127661009Y-84734286D02*
X127613390Y-84781905D01*
X127613390Y-84781905D02*
X127565771Y-84877143D01*
X127565771Y-84877143D02*
X127565771Y-85115238D01*
X127565771Y-85115238D02*
X127613390Y-85210476D01*
X127613390Y-85210476D02*
X127661009Y-85258095D01*
X127661009Y-85258095D02*
X127756247Y-85305714D01*
X127756247Y-85305714D02*
X127994342Y-85305714D01*
X127994342Y-85305714D02*
X128089580Y-85258095D01*
X128089580Y-85258095D02*
X128137200Y-85210476D01*
X128137200Y-85210476D02*
X128184819Y-85115238D01*
X128184819Y-85115238D02*
X128184819Y-84877143D01*
X128184819Y-84877143D02*
X128137200Y-84781905D01*
X128137200Y-84781905D02*
X128089580Y-84734286D01*
X166629580Y-119933333D02*
X166677200Y-119885714D01*
X166677200Y-119885714D02*
X166724819Y-119742857D01*
X166724819Y-119742857D02*
X166724819Y-119647619D01*
X166724819Y-119647619D02*
X166677200Y-119504762D01*
X166677200Y-119504762D02*
X166581961Y-119409524D01*
X166581961Y-119409524D02*
X166486723Y-119361905D01*
X166486723Y-119361905D02*
X166296247Y-119314286D01*
X166296247Y-119314286D02*
X166153390Y-119314286D01*
X166153390Y-119314286D02*
X165962914Y-119361905D01*
X165962914Y-119361905D02*
X165867676Y-119409524D01*
X165867676Y-119409524D02*
X165772438Y-119504762D01*
X165772438Y-119504762D02*
X165724819Y-119647619D01*
X165724819Y-119647619D02*
X165724819Y-119742857D01*
X165724819Y-119742857D02*
X165772438Y-119885714D01*
X165772438Y-119885714D02*
X165820057Y-119933333D01*
X166724819Y-120409524D02*
X166724819Y-120600000D01*
X166724819Y-120600000D02*
X166677200Y-120695238D01*
X166677200Y-120695238D02*
X166629580Y-120742857D01*
X166629580Y-120742857D02*
X166486723Y-120838095D01*
X166486723Y-120838095D02*
X166296247Y-120885714D01*
X166296247Y-120885714D02*
X165915295Y-120885714D01*
X165915295Y-120885714D02*
X165820057Y-120838095D01*
X165820057Y-120838095D02*
X165772438Y-120790476D01*
X165772438Y-120790476D02*
X165724819Y-120695238D01*
X165724819Y-120695238D02*
X165724819Y-120504762D01*
X165724819Y-120504762D02*
X165772438Y-120409524D01*
X165772438Y-120409524D02*
X165820057Y-120361905D01*
X165820057Y-120361905D02*
X165915295Y-120314286D01*
X165915295Y-120314286D02*
X166153390Y-120314286D01*
X166153390Y-120314286D02*
X166248628Y-120361905D01*
X166248628Y-120361905D02*
X166296247Y-120409524D01*
X166296247Y-120409524D02*
X166343866Y-120504762D01*
X166343866Y-120504762D02*
X166343866Y-120695238D01*
X166343866Y-120695238D02*
X166296247Y-120790476D01*
X166296247Y-120790476D02*
X166248628Y-120838095D01*
X166248628Y-120838095D02*
X166153390Y-120885714D01*
X124732857Y-56204819D02*
X125066190Y-55728628D01*
X125304285Y-56204819D02*
X125304285Y-55204819D01*
X125304285Y-55204819D02*
X124923333Y-55204819D01*
X124923333Y-55204819D02*
X124828095Y-55252438D01*
X124828095Y-55252438D02*
X124780476Y-55300057D01*
X124780476Y-55300057D02*
X124732857Y-55395295D01*
X124732857Y-55395295D02*
X124732857Y-55538152D01*
X124732857Y-55538152D02*
X124780476Y-55633390D01*
X124780476Y-55633390D02*
X124828095Y-55681009D01*
X124828095Y-55681009D02*
X124923333Y-55728628D01*
X124923333Y-55728628D02*
X125304285Y-55728628D01*
X124351904Y-55300057D02*
X124304285Y-55252438D01*
X124304285Y-55252438D02*
X124209047Y-55204819D01*
X124209047Y-55204819D02*
X123970952Y-55204819D01*
X123970952Y-55204819D02*
X123875714Y-55252438D01*
X123875714Y-55252438D02*
X123828095Y-55300057D01*
X123828095Y-55300057D02*
X123780476Y-55395295D01*
X123780476Y-55395295D02*
X123780476Y-55490533D01*
X123780476Y-55490533D02*
X123828095Y-55633390D01*
X123828095Y-55633390D02*
X124399523Y-56204819D01*
X124399523Y-56204819D02*
X123780476Y-56204819D01*
X123399523Y-55300057D02*
X123351904Y-55252438D01*
X123351904Y-55252438D02*
X123256666Y-55204819D01*
X123256666Y-55204819D02*
X123018571Y-55204819D01*
X123018571Y-55204819D02*
X122923333Y-55252438D01*
X122923333Y-55252438D02*
X122875714Y-55300057D01*
X122875714Y-55300057D02*
X122828095Y-55395295D01*
X122828095Y-55395295D02*
X122828095Y-55490533D01*
X122828095Y-55490533D02*
X122875714Y-55633390D01*
X122875714Y-55633390D02*
X123447142Y-56204819D01*
X123447142Y-56204819D02*
X122828095Y-56204819D01*
X126547857Y-52799580D02*
X126595476Y-52847200D01*
X126595476Y-52847200D02*
X126738333Y-52894819D01*
X126738333Y-52894819D02*
X126833571Y-52894819D01*
X126833571Y-52894819D02*
X126976428Y-52847200D01*
X126976428Y-52847200D02*
X127071666Y-52751961D01*
X127071666Y-52751961D02*
X127119285Y-52656723D01*
X127119285Y-52656723D02*
X127166904Y-52466247D01*
X127166904Y-52466247D02*
X127166904Y-52323390D01*
X127166904Y-52323390D02*
X127119285Y-52132914D01*
X127119285Y-52132914D02*
X127071666Y-52037676D01*
X127071666Y-52037676D02*
X126976428Y-51942438D01*
X126976428Y-51942438D02*
X126833571Y-51894819D01*
X126833571Y-51894819D02*
X126738333Y-51894819D01*
X126738333Y-51894819D02*
X126595476Y-51942438D01*
X126595476Y-51942438D02*
X126547857Y-51990057D01*
X125595476Y-52894819D02*
X126166904Y-52894819D01*
X125881190Y-52894819D02*
X125881190Y-51894819D01*
X125881190Y-51894819D02*
X125976428Y-52037676D01*
X125976428Y-52037676D02*
X126071666Y-52132914D01*
X126071666Y-52132914D02*
X126166904Y-52180533D01*
X125214523Y-51990057D02*
X125166904Y-51942438D01*
X125166904Y-51942438D02*
X125071666Y-51894819D01*
X125071666Y-51894819D02*
X124833571Y-51894819D01*
X124833571Y-51894819D02*
X124738333Y-51942438D01*
X124738333Y-51942438D02*
X124690714Y-51990057D01*
X124690714Y-51990057D02*
X124643095Y-52085295D01*
X124643095Y-52085295D02*
X124643095Y-52180533D01*
X124643095Y-52180533D02*
X124690714Y-52323390D01*
X124690714Y-52323390D02*
X125262142Y-52894819D01*
X125262142Y-52894819D02*
X124643095Y-52894819D01*
X126629580Y-76190833D02*
X126677200Y-76143214D01*
X126677200Y-76143214D02*
X126724819Y-76000357D01*
X126724819Y-76000357D02*
X126724819Y-75905119D01*
X126724819Y-75905119D02*
X126677200Y-75762262D01*
X126677200Y-75762262D02*
X126581961Y-75667024D01*
X126581961Y-75667024D02*
X126486723Y-75619405D01*
X126486723Y-75619405D02*
X126296247Y-75571786D01*
X126296247Y-75571786D02*
X126153390Y-75571786D01*
X126153390Y-75571786D02*
X125962914Y-75619405D01*
X125962914Y-75619405D02*
X125867676Y-75667024D01*
X125867676Y-75667024D02*
X125772438Y-75762262D01*
X125772438Y-75762262D02*
X125724819Y-75905119D01*
X125724819Y-75905119D02*
X125724819Y-76000357D01*
X125724819Y-76000357D02*
X125772438Y-76143214D01*
X125772438Y-76143214D02*
X125820057Y-76190833D01*
X125724819Y-77047976D02*
X125724819Y-76857500D01*
X125724819Y-76857500D02*
X125772438Y-76762262D01*
X125772438Y-76762262D02*
X125820057Y-76714643D01*
X125820057Y-76714643D02*
X125962914Y-76619405D01*
X125962914Y-76619405D02*
X126153390Y-76571786D01*
X126153390Y-76571786D02*
X126534342Y-76571786D01*
X126534342Y-76571786D02*
X126629580Y-76619405D01*
X126629580Y-76619405D02*
X126677200Y-76667024D01*
X126677200Y-76667024D02*
X126724819Y-76762262D01*
X126724819Y-76762262D02*
X126724819Y-76952738D01*
X126724819Y-76952738D02*
X126677200Y-77047976D01*
X126677200Y-77047976D02*
X126629580Y-77095595D01*
X126629580Y-77095595D02*
X126534342Y-77143214D01*
X126534342Y-77143214D02*
X126296247Y-77143214D01*
X126296247Y-77143214D02*
X126201009Y-77095595D01*
X126201009Y-77095595D02*
X126153390Y-77047976D01*
X126153390Y-77047976D02*
X126105771Y-76952738D01*
X126105771Y-76952738D02*
X126105771Y-76762262D01*
X126105771Y-76762262D02*
X126153390Y-76667024D01*
X126153390Y-76667024D02*
X126201009Y-76619405D01*
X126201009Y-76619405D02*
X126296247Y-76571786D01*
X191586666Y-70349580D02*
X191634285Y-70397200D01*
X191634285Y-70397200D02*
X191777142Y-70444819D01*
X191777142Y-70444819D02*
X191872380Y-70444819D01*
X191872380Y-70444819D02*
X192015237Y-70397200D01*
X192015237Y-70397200D02*
X192110475Y-70301961D01*
X192110475Y-70301961D02*
X192158094Y-70206723D01*
X192158094Y-70206723D02*
X192205713Y-70016247D01*
X192205713Y-70016247D02*
X192205713Y-69873390D01*
X192205713Y-69873390D02*
X192158094Y-69682914D01*
X192158094Y-69682914D02*
X192110475Y-69587676D01*
X192110475Y-69587676D02*
X192015237Y-69492438D01*
X192015237Y-69492438D02*
X191872380Y-69444819D01*
X191872380Y-69444819D02*
X191777142Y-69444819D01*
X191777142Y-69444819D02*
X191634285Y-69492438D01*
X191634285Y-69492438D02*
X191586666Y-69540057D01*
X190634285Y-70444819D02*
X191205713Y-70444819D01*
X190919999Y-70444819D02*
X190919999Y-69444819D01*
X190919999Y-69444819D02*
X191015237Y-69587676D01*
X191015237Y-69587676D02*
X191110475Y-69682914D01*
X191110475Y-69682914D02*
X191205713Y-69730533D01*
X121564819Y-67027142D02*
X121088628Y-66693809D01*
X121564819Y-66455714D02*
X120564819Y-66455714D01*
X120564819Y-66455714D02*
X120564819Y-66836666D01*
X120564819Y-66836666D02*
X120612438Y-66931904D01*
X120612438Y-66931904D02*
X120660057Y-66979523D01*
X120660057Y-66979523D02*
X120755295Y-67027142D01*
X120755295Y-67027142D02*
X120898152Y-67027142D01*
X120898152Y-67027142D02*
X120993390Y-66979523D01*
X120993390Y-66979523D02*
X121041009Y-66931904D01*
X121041009Y-66931904D02*
X121088628Y-66836666D01*
X121088628Y-66836666D02*
X121088628Y-66455714D01*
X120660057Y-67408095D02*
X120612438Y-67455714D01*
X120612438Y-67455714D02*
X120564819Y-67550952D01*
X120564819Y-67550952D02*
X120564819Y-67789047D01*
X120564819Y-67789047D02*
X120612438Y-67884285D01*
X120612438Y-67884285D02*
X120660057Y-67931904D01*
X120660057Y-67931904D02*
X120755295Y-67979523D01*
X120755295Y-67979523D02*
X120850533Y-67979523D01*
X120850533Y-67979523D02*
X120993390Y-67931904D01*
X120993390Y-67931904D02*
X121564819Y-67360476D01*
X121564819Y-67360476D02*
X121564819Y-67979523D01*
X120993390Y-68550952D02*
X120945771Y-68455714D01*
X120945771Y-68455714D02*
X120898152Y-68408095D01*
X120898152Y-68408095D02*
X120802914Y-68360476D01*
X120802914Y-68360476D02*
X120755295Y-68360476D01*
X120755295Y-68360476D02*
X120660057Y-68408095D01*
X120660057Y-68408095D02*
X120612438Y-68455714D01*
X120612438Y-68455714D02*
X120564819Y-68550952D01*
X120564819Y-68550952D02*
X120564819Y-68741428D01*
X120564819Y-68741428D02*
X120612438Y-68836666D01*
X120612438Y-68836666D02*
X120660057Y-68884285D01*
X120660057Y-68884285D02*
X120755295Y-68931904D01*
X120755295Y-68931904D02*
X120802914Y-68931904D01*
X120802914Y-68931904D02*
X120898152Y-68884285D01*
X120898152Y-68884285D02*
X120945771Y-68836666D01*
X120945771Y-68836666D02*
X120993390Y-68741428D01*
X120993390Y-68741428D02*
X120993390Y-68550952D01*
X120993390Y-68550952D02*
X121041009Y-68455714D01*
X121041009Y-68455714D02*
X121088628Y-68408095D01*
X121088628Y-68408095D02*
X121183866Y-68360476D01*
X121183866Y-68360476D02*
X121374342Y-68360476D01*
X121374342Y-68360476D02*
X121469580Y-68408095D01*
X121469580Y-68408095D02*
X121517200Y-68455714D01*
X121517200Y-68455714D02*
X121564819Y-68550952D01*
X121564819Y-68550952D02*
X121564819Y-68741428D01*
X121564819Y-68741428D02*
X121517200Y-68836666D01*
X121517200Y-68836666D02*
X121469580Y-68884285D01*
X121469580Y-68884285D02*
X121374342Y-68931904D01*
X121374342Y-68931904D02*
X121183866Y-68931904D01*
X121183866Y-68931904D02*
X121088628Y-68884285D01*
X121088628Y-68884285D02*
X121041009Y-68836666D01*
X121041009Y-68836666D02*
X120993390Y-68741428D01*
X148462857Y-117569580D02*
X148510476Y-117617200D01*
X148510476Y-117617200D02*
X148653333Y-117664819D01*
X148653333Y-117664819D02*
X148748571Y-117664819D01*
X148748571Y-117664819D02*
X148891428Y-117617200D01*
X148891428Y-117617200D02*
X148986666Y-117521961D01*
X148986666Y-117521961D02*
X149034285Y-117426723D01*
X149034285Y-117426723D02*
X149081904Y-117236247D01*
X149081904Y-117236247D02*
X149081904Y-117093390D01*
X149081904Y-117093390D02*
X149034285Y-116902914D01*
X149034285Y-116902914D02*
X148986666Y-116807676D01*
X148986666Y-116807676D02*
X148891428Y-116712438D01*
X148891428Y-116712438D02*
X148748571Y-116664819D01*
X148748571Y-116664819D02*
X148653333Y-116664819D01*
X148653333Y-116664819D02*
X148510476Y-116712438D01*
X148510476Y-116712438D02*
X148462857Y-116760057D01*
X147510476Y-117664819D02*
X148081904Y-117664819D01*
X147796190Y-117664819D02*
X147796190Y-116664819D01*
X147796190Y-116664819D02*
X147891428Y-116807676D01*
X147891428Y-116807676D02*
X147986666Y-116902914D01*
X147986666Y-116902914D02*
X148081904Y-116950533D01*
X146891428Y-116664819D02*
X146796190Y-116664819D01*
X146796190Y-116664819D02*
X146700952Y-116712438D01*
X146700952Y-116712438D02*
X146653333Y-116760057D01*
X146653333Y-116760057D02*
X146605714Y-116855295D01*
X146605714Y-116855295D02*
X146558095Y-117045771D01*
X146558095Y-117045771D02*
X146558095Y-117283866D01*
X146558095Y-117283866D02*
X146605714Y-117474342D01*
X146605714Y-117474342D02*
X146653333Y-117569580D01*
X146653333Y-117569580D02*
X146700952Y-117617200D01*
X146700952Y-117617200D02*
X146796190Y-117664819D01*
X146796190Y-117664819D02*
X146891428Y-117664819D01*
X146891428Y-117664819D02*
X146986666Y-117617200D01*
X146986666Y-117617200D02*
X147034285Y-117569580D01*
X147034285Y-117569580D02*
X147081904Y-117474342D01*
X147081904Y-117474342D02*
X147129523Y-117283866D01*
X147129523Y-117283866D02*
X147129523Y-117045771D01*
X147129523Y-117045771D02*
X147081904Y-116855295D01*
X147081904Y-116855295D02*
X147034285Y-116760057D01*
X147034285Y-116760057D02*
X146986666Y-116712438D01*
X146986666Y-116712438D02*
X146891428Y-116664819D01*
X125262857Y-48854819D02*
X125596190Y-48378628D01*
X125834285Y-48854819D02*
X125834285Y-47854819D01*
X125834285Y-47854819D02*
X125453333Y-47854819D01*
X125453333Y-47854819D02*
X125358095Y-47902438D01*
X125358095Y-47902438D02*
X125310476Y-47950057D01*
X125310476Y-47950057D02*
X125262857Y-48045295D01*
X125262857Y-48045295D02*
X125262857Y-48188152D01*
X125262857Y-48188152D02*
X125310476Y-48283390D01*
X125310476Y-48283390D02*
X125358095Y-48331009D01*
X125358095Y-48331009D02*
X125453333Y-48378628D01*
X125453333Y-48378628D02*
X125834285Y-48378628D01*
X124310476Y-48854819D02*
X124881904Y-48854819D01*
X124596190Y-48854819D02*
X124596190Y-47854819D01*
X124596190Y-47854819D02*
X124691428Y-47997676D01*
X124691428Y-47997676D02*
X124786666Y-48092914D01*
X124786666Y-48092914D02*
X124881904Y-48140533D01*
X123453333Y-47854819D02*
X123643809Y-47854819D01*
X123643809Y-47854819D02*
X123739047Y-47902438D01*
X123739047Y-47902438D02*
X123786666Y-47950057D01*
X123786666Y-47950057D02*
X123881904Y-48092914D01*
X123881904Y-48092914D02*
X123929523Y-48283390D01*
X123929523Y-48283390D02*
X123929523Y-48664342D01*
X123929523Y-48664342D02*
X123881904Y-48759580D01*
X123881904Y-48759580D02*
X123834285Y-48807200D01*
X123834285Y-48807200D02*
X123739047Y-48854819D01*
X123739047Y-48854819D02*
X123548571Y-48854819D01*
X123548571Y-48854819D02*
X123453333Y-48807200D01*
X123453333Y-48807200D02*
X123405714Y-48759580D01*
X123405714Y-48759580D02*
X123358095Y-48664342D01*
X123358095Y-48664342D02*
X123358095Y-48426247D01*
X123358095Y-48426247D02*
X123405714Y-48331009D01*
X123405714Y-48331009D02*
X123453333Y-48283390D01*
X123453333Y-48283390D02*
X123548571Y-48235771D01*
X123548571Y-48235771D02*
X123739047Y-48235771D01*
X123739047Y-48235771D02*
X123834285Y-48283390D01*
X123834285Y-48283390D02*
X123881904Y-48331009D01*
X123881904Y-48331009D02*
X123929523Y-48426247D01*
X138143333Y-116291008D02*
X138476666Y-116291008D01*
X138476666Y-116814818D02*
X138476666Y-115814818D01*
X138476666Y-115814818D02*
X138000476Y-115814818D01*
X137095714Y-116814818D02*
X137667142Y-116814818D01*
X137381428Y-116814818D02*
X137381428Y-115814818D01*
X137381428Y-115814818D02*
X137476666Y-115957675D01*
X137476666Y-115957675D02*
X137571904Y-116052913D01*
X137571904Y-116052913D02*
X137667142Y-116100532D01*
X150224819Y-128373333D02*
X149748628Y-128040000D01*
X150224819Y-127801905D02*
X149224819Y-127801905D01*
X149224819Y-127801905D02*
X149224819Y-128182857D01*
X149224819Y-128182857D02*
X149272438Y-128278095D01*
X149272438Y-128278095D02*
X149320057Y-128325714D01*
X149320057Y-128325714D02*
X149415295Y-128373333D01*
X149415295Y-128373333D02*
X149558152Y-128373333D01*
X149558152Y-128373333D02*
X149653390Y-128325714D01*
X149653390Y-128325714D02*
X149701009Y-128278095D01*
X149701009Y-128278095D02*
X149748628Y-128182857D01*
X149748628Y-128182857D02*
X149748628Y-127801905D01*
X149224819Y-129230476D02*
X149224819Y-129040000D01*
X149224819Y-129040000D02*
X149272438Y-128944762D01*
X149272438Y-128944762D02*
X149320057Y-128897143D01*
X149320057Y-128897143D02*
X149462914Y-128801905D01*
X149462914Y-128801905D02*
X149653390Y-128754286D01*
X149653390Y-128754286D02*
X150034342Y-128754286D01*
X150034342Y-128754286D02*
X150129580Y-128801905D01*
X150129580Y-128801905D02*
X150177200Y-128849524D01*
X150177200Y-128849524D02*
X150224819Y-128944762D01*
X150224819Y-128944762D02*
X150224819Y-129135238D01*
X150224819Y-129135238D02*
X150177200Y-129230476D01*
X150177200Y-129230476D02*
X150129580Y-129278095D01*
X150129580Y-129278095D02*
X150034342Y-129325714D01*
X150034342Y-129325714D02*
X149796247Y-129325714D01*
X149796247Y-129325714D02*
X149701009Y-129278095D01*
X149701009Y-129278095D02*
X149653390Y-129230476D01*
X149653390Y-129230476D02*
X149605771Y-129135238D01*
X149605771Y-129135238D02*
X149605771Y-128944762D01*
X149605771Y-128944762D02*
X149653390Y-128849524D01*
X149653390Y-128849524D02*
X149701009Y-128801905D01*
X149701009Y-128801905D02*
X149796247Y-128754286D01*
X150184819Y-80227142D02*
X149708628Y-79893809D01*
X150184819Y-79655714D02*
X149184819Y-79655714D01*
X149184819Y-79655714D02*
X149184819Y-80036666D01*
X149184819Y-80036666D02*
X149232438Y-80131904D01*
X149232438Y-80131904D02*
X149280057Y-80179523D01*
X149280057Y-80179523D02*
X149375295Y-80227142D01*
X149375295Y-80227142D02*
X149518152Y-80227142D01*
X149518152Y-80227142D02*
X149613390Y-80179523D01*
X149613390Y-80179523D02*
X149661009Y-80131904D01*
X149661009Y-80131904D02*
X149708628Y-80036666D01*
X149708628Y-80036666D02*
X149708628Y-79655714D01*
X149184819Y-80560476D02*
X149184819Y-81179523D01*
X149184819Y-81179523D02*
X149565771Y-80846190D01*
X149565771Y-80846190D02*
X149565771Y-80989047D01*
X149565771Y-80989047D02*
X149613390Y-81084285D01*
X149613390Y-81084285D02*
X149661009Y-81131904D01*
X149661009Y-81131904D02*
X149756247Y-81179523D01*
X149756247Y-81179523D02*
X149994342Y-81179523D01*
X149994342Y-81179523D02*
X150089580Y-81131904D01*
X150089580Y-81131904D02*
X150137200Y-81084285D01*
X150137200Y-81084285D02*
X150184819Y-80989047D01*
X150184819Y-80989047D02*
X150184819Y-80703333D01*
X150184819Y-80703333D02*
X150137200Y-80608095D01*
X150137200Y-80608095D02*
X150089580Y-80560476D01*
X149184819Y-81798571D02*
X149184819Y-81893809D01*
X149184819Y-81893809D02*
X149232438Y-81989047D01*
X149232438Y-81989047D02*
X149280057Y-82036666D01*
X149280057Y-82036666D02*
X149375295Y-82084285D01*
X149375295Y-82084285D02*
X149565771Y-82131904D01*
X149565771Y-82131904D02*
X149803866Y-82131904D01*
X149803866Y-82131904D02*
X149994342Y-82084285D01*
X149994342Y-82084285D02*
X150089580Y-82036666D01*
X150089580Y-82036666D02*
X150137200Y-81989047D01*
X150137200Y-81989047D02*
X150184819Y-81893809D01*
X150184819Y-81893809D02*
X150184819Y-81798571D01*
X150184819Y-81798571D02*
X150137200Y-81703333D01*
X150137200Y-81703333D02*
X150089580Y-81655714D01*
X150089580Y-81655714D02*
X149994342Y-81608095D01*
X149994342Y-81608095D02*
X149803866Y-81560476D01*
X149803866Y-81560476D02*
X149565771Y-81560476D01*
X149565771Y-81560476D02*
X149375295Y-81608095D01*
X149375295Y-81608095D02*
X149280057Y-81655714D01*
X149280057Y-81655714D02*
X149232438Y-81703333D01*
X149232438Y-81703333D02*
X149184819Y-81798571D01*
X182940057Y-60328571D02*
X182892438Y-60233333D01*
X182892438Y-60233333D02*
X182797200Y-60138095D01*
X182797200Y-60138095D02*
X182654342Y-59995238D01*
X182654342Y-59995238D02*
X182606723Y-59900000D01*
X182606723Y-59900000D02*
X182606723Y-59804762D01*
X182844819Y-59852381D02*
X182797200Y-59757143D01*
X182797200Y-59757143D02*
X182701961Y-59661905D01*
X182701961Y-59661905D02*
X182511485Y-59614286D01*
X182511485Y-59614286D02*
X182178152Y-59614286D01*
X182178152Y-59614286D02*
X181987676Y-59661905D01*
X181987676Y-59661905D02*
X181892438Y-59757143D01*
X181892438Y-59757143D02*
X181844819Y-59852381D01*
X181844819Y-59852381D02*
X181844819Y-60042857D01*
X181844819Y-60042857D02*
X181892438Y-60138095D01*
X181892438Y-60138095D02*
X181987676Y-60233333D01*
X181987676Y-60233333D02*
X182178152Y-60280952D01*
X182178152Y-60280952D02*
X182511485Y-60280952D01*
X182511485Y-60280952D02*
X182701961Y-60233333D01*
X182701961Y-60233333D02*
X182797200Y-60138095D01*
X182797200Y-60138095D02*
X182844819Y-60042857D01*
X182844819Y-60042857D02*
X182844819Y-59852381D01*
X182844819Y-61233333D02*
X182844819Y-60661905D01*
X182844819Y-60947619D02*
X181844819Y-60947619D01*
X181844819Y-60947619D02*
X181987676Y-60852381D01*
X181987676Y-60852381D02*
X182082914Y-60757143D01*
X182082914Y-60757143D02*
X182130533Y-60661905D01*
X181844819Y-61852381D02*
X181844819Y-61947619D01*
X181844819Y-61947619D02*
X181892438Y-62042857D01*
X181892438Y-62042857D02*
X181940057Y-62090476D01*
X181940057Y-62090476D02*
X182035295Y-62138095D01*
X182035295Y-62138095D02*
X182225771Y-62185714D01*
X182225771Y-62185714D02*
X182463866Y-62185714D01*
X182463866Y-62185714D02*
X182654342Y-62138095D01*
X182654342Y-62138095D02*
X182749580Y-62090476D01*
X182749580Y-62090476D02*
X182797200Y-62042857D01*
X182797200Y-62042857D02*
X182844819Y-61947619D01*
X182844819Y-61947619D02*
X182844819Y-61852381D01*
X182844819Y-61852381D02*
X182797200Y-61757143D01*
X182797200Y-61757143D02*
X182749580Y-61709524D01*
X182749580Y-61709524D02*
X182654342Y-61661905D01*
X182654342Y-61661905D02*
X182463866Y-61614286D01*
X182463866Y-61614286D02*
X182225771Y-61614286D01*
X182225771Y-61614286D02*
X182035295Y-61661905D01*
X182035295Y-61661905D02*
X181940057Y-61709524D01*
X181940057Y-61709524D02*
X181892438Y-61757143D01*
X181892438Y-61757143D02*
X181844819Y-61852381D01*
X124649580Y-76200833D02*
X124697200Y-76153214D01*
X124697200Y-76153214D02*
X124744819Y-76010357D01*
X124744819Y-76010357D02*
X124744819Y-75915119D01*
X124744819Y-75915119D02*
X124697200Y-75772262D01*
X124697200Y-75772262D02*
X124601961Y-75677024D01*
X124601961Y-75677024D02*
X124506723Y-75629405D01*
X124506723Y-75629405D02*
X124316247Y-75581786D01*
X124316247Y-75581786D02*
X124173390Y-75581786D01*
X124173390Y-75581786D02*
X123982914Y-75629405D01*
X123982914Y-75629405D02*
X123887676Y-75677024D01*
X123887676Y-75677024D02*
X123792438Y-75772262D01*
X123792438Y-75772262D02*
X123744819Y-75915119D01*
X123744819Y-75915119D02*
X123744819Y-76010357D01*
X123744819Y-76010357D02*
X123792438Y-76153214D01*
X123792438Y-76153214D02*
X123840057Y-76200833D01*
X123744819Y-76534167D02*
X123744819Y-77200833D01*
X123744819Y-77200833D02*
X124744819Y-76772262D01*
X111682857Y-70019580D02*
X111730476Y-70067200D01*
X111730476Y-70067200D02*
X111873333Y-70114819D01*
X111873333Y-70114819D02*
X111968571Y-70114819D01*
X111968571Y-70114819D02*
X112111428Y-70067200D01*
X112111428Y-70067200D02*
X112206666Y-69971961D01*
X112206666Y-69971961D02*
X112254285Y-69876723D01*
X112254285Y-69876723D02*
X112301904Y-69686247D01*
X112301904Y-69686247D02*
X112301904Y-69543390D01*
X112301904Y-69543390D02*
X112254285Y-69352914D01*
X112254285Y-69352914D02*
X112206666Y-69257676D01*
X112206666Y-69257676D02*
X112111428Y-69162438D01*
X112111428Y-69162438D02*
X111968571Y-69114819D01*
X111968571Y-69114819D02*
X111873333Y-69114819D01*
X111873333Y-69114819D02*
X111730476Y-69162438D01*
X111730476Y-69162438D02*
X111682857Y-69210057D01*
X110730476Y-70114819D02*
X111301904Y-70114819D01*
X111016190Y-70114819D02*
X111016190Y-69114819D01*
X111016190Y-69114819D02*
X111111428Y-69257676D01*
X111111428Y-69257676D02*
X111206666Y-69352914D01*
X111206666Y-69352914D02*
X111301904Y-69400533D01*
X110397142Y-69114819D02*
X109778095Y-69114819D01*
X109778095Y-69114819D02*
X110111428Y-69495771D01*
X110111428Y-69495771D02*
X109968571Y-69495771D01*
X109968571Y-69495771D02*
X109873333Y-69543390D01*
X109873333Y-69543390D02*
X109825714Y-69591009D01*
X109825714Y-69591009D02*
X109778095Y-69686247D01*
X109778095Y-69686247D02*
X109778095Y-69924342D01*
X109778095Y-69924342D02*
X109825714Y-70019580D01*
X109825714Y-70019580D02*
X109873333Y-70067200D01*
X109873333Y-70067200D02*
X109968571Y-70114819D01*
X109968571Y-70114819D02*
X110254285Y-70114819D01*
X110254285Y-70114819D02*
X110349523Y-70067200D01*
X110349523Y-70067200D02*
X110397142Y-70019580D01*
X133490057Y-44834761D02*
X133442438Y-44739523D01*
X133442438Y-44739523D02*
X133347200Y-44644285D01*
X133347200Y-44644285D02*
X133204342Y-44501428D01*
X133204342Y-44501428D02*
X133156723Y-44406190D01*
X133156723Y-44406190D02*
X133156723Y-44310952D01*
X133394819Y-44358571D02*
X133347200Y-44263333D01*
X133347200Y-44263333D02*
X133251961Y-44168095D01*
X133251961Y-44168095D02*
X133061485Y-44120476D01*
X133061485Y-44120476D02*
X132728152Y-44120476D01*
X132728152Y-44120476D02*
X132537676Y-44168095D01*
X132537676Y-44168095D02*
X132442438Y-44263333D01*
X132442438Y-44263333D02*
X132394819Y-44358571D01*
X132394819Y-44358571D02*
X132394819Y-44549047D01*
X132394819Y-44549047D02*
X132442438Y-44644285D01*
X132442438Y-44644285D02*
X132537676Y-44739523D01*
X132537676Y-44739523D02*
X132728152Y-44787142D01*
X132728152Y-44787142D02*
X133061485Y-44787142D01*
X133061485Y-44787142D02*
X133251961Y-44739523D01*
X133251961Y-44739523D02*
X133347200Y-44644285D01*
X133347200Y-44644285D02*
X133394819Y-44549047D01*
X133394819Y-44549047D02*
X133394819Y-44358571D01*
X132823390Y-45358571D02*
X132775771Y-45263333D01*
X132775771Y-45263333D02*
X132728152Y-45215714D01*
X132728152Y-45215714D02*
X132632914Y-45168095D01*
X132632914Y-45168095D02*
X132585295Y-45168095D01*
X132585295Y-45168095D02*
X132490057Y-45215714D01*
X132490057Y-45215714D02*
X132442438Y-45263333D01*
X132442438Y-45263333D02*
X132394819Y-45358571D01*
X132394819Y-45358571D02*
X132394819Y-45549047D01*
X132394819Y-45549047D02*
X132442438Y-45644285D01*
X132442438Y-45644285D02*
X132490057Y-45691904D01*
X132490057Y-45691904D02*
X132585295Y-45739523D01*
X132585295Y-45739523D02*
X132632914Y-45739523D01*
X132632914Y-45739523D02*
X132728152Y-45691904D01*
X132728152Y-45691904D02*
X132775771Y-45644285D01*
X132775771Y-45644285D02*
X132823390Y-45549047D01*
X132823390Y-45549047D02*
X132823390Y-45358571D01*
X132823390Y-45358571D02*
X132871009Y-45263333D01*
X132871009Y-45263333D02*
X132918628Y-45215714D01*
X132918628Y-45215714D02*
X133013866Y-45168095D01*
X133013866Y-45168095D02*
X133204342Y-45168095D01*
X133204342Y-45168095D02*
X133299580Y-45215714D01*
X133299580Y-45215714D02*
X133347200Y-45263333D01*
X133347200Y-45263333D02*
X133394819Y-45358571D01*
X133394819Y-45358571D02*
X133394819Y-45549047D01*
X133394819Y-45549047D02*
X133347200Y-45644285D01*
X133347200Y-45644285D02*
X133299580Y-45691904D01*
X133299580Y-45691904D02*
X133204342Y-45739523D01*
X133204342Y-45739523D02*
X133013866Y-45739523D01*
X133013866Y-45739523D02*
X132918628Y-45691904D01*
X132918628Y-45691904D02*
X132871009Y-45644285D01*
X132871009Y-45644285D02*
X132823390Y-45549047D01*
X154164819Y-128343333D02*
X153688628Y-128010000D01*
X154164819Y-127771905D02*
X153164819Y-127771905D01*
X153164819Y-127771905D02*
X153164819Y-128152857D01*
X153164819Y-128152857D02*
X153212438Y-128248095D01*
X153212438Y-128248095D02*
X153260057Y-128295714D01*
X153260057Y-128295714D02*
X153355295Y-128343333D01*
X153355295Y-128343333D02*
X153498152Y-128343333D01*
X153498152Y-128343333D02*
X153593390Y-128295714D01*
X153593390Y-128295714D02*
X153641009Y-128248095D01*
X153641009Y-128248095D02*
X153688628Y-128152857D01*
X153688628Y-128152857D02*
X153688628Y-127771905D01*
X153164819Y-128676667D02*
X153164819Y-129343333D01*
X153164819Y-129343333D02*
X154164819Y-128914762D01*
X124871428Y-60570057D02*
X124966666Y-60522438D01*
X124966666Y-60522438D02*
X125061904Y-60427200D01*
X125061904Y-60427200D02*
X125204761Y-60284342D01*
X125204761Y-60284342D02*
X125299999Y-60236723D01*
X125299999Y-60236723D02*
X125395237Y-60236723D01*
X125347618Y-60474819D02*
X125442856Y-60427200D01*
X125442856Y-60427200D02*
X125538094Y-60331961D01*
X125538094Y-60331961D02*
X125585713Y-60141485D01*
X125585713Y-60141485D02*
X125585713Y-59808152D01*
X125585713Y-59808152D02*
X125538094Y-59617676D01*
X125538094Y-59617676D02*
X125442856Y-59522438D01*
X125442856Y-59522438D02*
X125347618Y-59474819D01*
X125347618Y-59474819D02*
X125157142Y-59474819D01*
X125157142Y-59474819D02*
X125061904Y-59522438D01*
X125061904Y-59522438D02*
X124966666Y-59617676D01*
X124966666Y-59617676D02*
X124919047Y-59808152D01*
X124919047Y-59808152D02*
X124919047Y-60141485D01*
X124919047Y-60141485D02*
X124966666Y-60331961D01*
X124966666Y-60331961D02*
X125061904Y-60427200D01*
X125061904Y-60427200D02*
X125157142Y-60474819D01*
X125157142Y-60474819D02*
X125347618Y-60474819D01*
X123966666Y-60474819D02*
X124538094Y-60474819D01*
X124252380Y-60474819D02*
X124252380Y-59474819D01*
X124252380Y-59474819D02*
X124347618Y-59617676D01*
X124347618Y-59617676D02*
X124442856Y-59712914D01*
X124442856Y-59712914D02*
X124538094Y-59760533D01*
X123014285Y-60474819D02*
X123585713Y-60474819D01*
X123299999Y-60474819D02*
X123299999Y-59474819D01*
X123299999Y-59474819D02*
X123395237Y-59617676D01*
X123395237Y-59617676D02*
X123490475Y-59712914D01*
X123490475Y-59712914D02*
X123585713Y-59760533D01*
X125206666Y-51069580D02*
X125254285Y-51117200D01*
X125254285Y-51117200D02*
X125397142Y-51164819D01*
X125397142Y-51164819D02*
X125492380Y-51164819D01*
X125492380Y-51164819D02*
X125635237Y-51117200D01*
X125635237Y-51117200D02*
X125730475Y-51021961D01*
X125730475Y-51021961D02*
X125778094Y-50926723D01*
X125778094Y-50926723D02*
X125825713Y-50736247D01*
X125825713Y-50736247D02*
X125825713Y-50593390D01*
X125825713Y-50593390D02*
X125778094Y-50402914D01*
X125778094Y-50402914D02*
X125730475Y-50307676D01*
X125730475Y-50307676D02*
X125635237Y-50212438D01*
X125635237Y-50212438D02*
X125492380Y-50164819D01*
X125492380Y-50164819D02*
X125397142Y-50164819D01*
X125397142Y-50164819D02*
X125254285Y-50212438D01*
X125254285Y-50212438D02*
X125206666Y-50260057D01*
X124825713Y-50260057D02*
X124778094Y-50212438D01*
X124778094Y-50212438D02*
X124682856Y-50164819D01*
X124682856Y-50164819D02*
X124444761Y-50164819D01*
X124444761Y-50164819D02*
X124349523Y-50212438D01*
X124349523Y-50212438D02*
X124301904Y-50260057D01*
X124301904Y-50260057D02*
X124254285Y-50355295D01*
X124254285Y-50355295D02*
X124254285Y-50450533D01*
X124254285Y-50450533D02*
X124301904Y-50593390D01*
X124301904Y-50593390D02*
X124873332Y-51164819D01*
X124873332Y-51164819D02*
X124254285Y-51164819D01*
X179432857Y-69614819D02*
X179766190Y-69138628D01*
X180004285Y-69614819D02*
X180004285Y-68614819D01*
X180004285Y-68614819D02*
X179623333Y-68614819D01*
X179623333Y-68614819D02*
X179528095Y-68662438D01*
X179528095Y-68662438D02*
X179480476Y-68710057D01*
X179480476Y-68710057D02*
X179432857Y-68805295D01*
X179432857Y-68805295D02*
X179432857Y-68948152D01*
X179432857Y-68948152D02*
X179480476Y-69043390D01*
X179480476Y-69043390D02*
X179528095Y-69091009D01*
X179528095Y-69091009D02*
X179623333Y-69138628D01*
X179623333Y-69138628D02*
X180004285Y-69138628D01*
X178480476Y-69614819D02*
X179051904Y-69614819D01*
X178766190Y-69614819D02*
X178766190Y-68614819D01*
X178766190Y-68614819D02*
X178861428Y-68757676D01*
X178861428Y-68757676D02*
X178956666Y-68852914D01*
X178956666Y-68852914D02*
X179051904Y-68900533D01*
X178004285Y-69614819D02*
X177813809Y-69614819D01*
X177813809Y-69614819D02*
X177718571Y-69567200D01*
X177718571Y-69567200D02*
X177670952Y-69519580D01*
X177670952Y-69519580D02*
X177575714Y-69376723D01*
X177575714Y-69376723D02*
X177528095Y-69186247D01*
X177528095Y-69186247D02*
X177528095Y-68805295D01*
X177528095Y-68805295D02*
X177575714Y-68710057D01*
X177575714Y-68710057D02*
X177623333Y-68662438D01*
X177623333Y-68662438D02*
X177718571Y-68614819D01*
X177718571Y-68614819D02*
X177909047Y-68614819D01*
X177909047Y-68614819D02*
X178004285Y-68662438D01*
X178004285Y-68662438D02*
X178051904Y-68710057D01*
X178051904Y-68710057D02*
X178099523Y-68805295D01*
X178099523Y-68805295D02*
X178099523Y-69043390D01*
X178099523Y-69043390D02*
X178051904Y-69138628D01*
X178051904Y-69138628D02*
X178004285Y-69186247D01*
X178004285Y-69186247D02*
X177909047Y-69233866D01*
X177909047Y-69233866D02*
X177718571Y-69233866D01*
X177718571Y-69233866D02*
X177623333Y-69186247D01*
X177623333Y-69186247D02*
X177575714Y-69138628D01*
X177575714Y-69138628D02*
X177528095Y-69043390D01*
X174492857Y-47114819D02*
X174826190Y-46638628D01*
X175064285Y-47114819D02*
X175064285Y-46114819D01*
X175064285Y-46114819D02*
X174683333Y-46114819D01*
X174683333Y-46114819D02*
X174588095Y-46162438D01*
X174588095Y-46162438D02*
X174540476Y-46210057D01*
X174540476Y-46210057D02*
X174492857Y-46305295D01*
X174492857Y-46305295D02*
X174492857Y-46448152D01*
X174492857Y-46448152D02*
X174540476Y-46543390D01*
X174540476Y-46543390D02*
X174588095Y-46591009D01*
X174588095Y-46591009D02*
X174683333Y-46638628D01*
X174683333Y-46638628D02*
X175064285Y-46638628D01*
X174159523Y-46114819D02*
X173540476Y-46114819D01*
X173540476Y-46114819D02*
X173873809Y-46495771D01*
X173873809Y-46495771D02*
X173730952Y-46495771D01*
X173730952Y-46495771D02*
X173635714Y-46543390D01*
X173635714Y-46543390D02*
X173588095Y-46591009D01*
X173588095Y-46591009D02*
X173540476Y-46686247D01*
X173540476Y-46686247D02*
X173540476Y-46924342D01*
X173540476Y-46924342D02*
X173588095Y-47019580D01*
X173588095Y-47019580D02*
X173635714Y-47067200D01*
X173635714Y-47067200D02*
X173730952Y-47114819D01*
X173730952Y-47114819D02*
X174016666Y-47114819D01*
X174016666Y-47114819D02*
X174111904Y-47067200D01*
X174111904Y-47067200D02*
X174159523Y-47019580D01*
X172635714Y-46114819D02*
X173111904Y-46114819D01*
X173111904Y-46114819D02*
X173159523Y-46591009D01*
X173159523Y-46591009D02*
X173111904Y-46543390D01*
X173111904Y-46543390D02*
X173016666Y-46495771D01*
X173016666Y-46495771D02*
X172778571Y-46495771D01*
X172778571Y-46495771D02*
X172683333Y-46543390D01*
X172683333Y-46543390D02*
X172635714Y-46591009D01*
X172635714Y-46591009D02*
X172588095Y-46686247D01*
X172588095Y-46686247D02*
X172588095Y-46924342D01*
X172588095Y-46924342D02*
X172635714Y-47019580D01*
X172635714Y-47019580D02*
X172683333Y-47067200D01*
X172683333Y-47067200D02*
X172778571Y-47114819D01*
X172778571Y-47114819D02*
X173016666Y-47114819D01*
X173016666Y-47114819D02*
X173111904Y-47067200D01*
X173111904Y-47067200D02*
X173159523Y-47019580D01*
X191546666Y-74524819D02*
X191879999Y-74048628D01*
X192118094Y-74524819D02*
X192118094Y-73524819D01*
X192118094Y-73524819D02*
X191737142Y-73524819D01*
X191737142Y-73524819D02*
X191641904Y-73572438D01*
X191641904Y-73572438D02*
X191594285Y-73620057D01*
X191594285Y-73620057D02*
X191546666Y-73715295D01*
X191546666Y-73715295D02*
X191546666Y-73858152D01*
X191546666Y-73858152D02*
X191594285Y-73953390D01*
X191594285Y-73953390D02*
X191641904Y-74001009D01*
X191641904Y-74001009D02*
X191737142Y-74048628D01*
X191737142Y-74048628D02*
X192118094Y-74048628D01*
X190975237Y-73953390D02*
X191070475Y-73905771D01*
X191070475Y-73905771D02*
X191118094Y-73858152D01*
X191118094Y-73858152D02*
X191165713Y-73762914D01*
X191165713Y-73762914D02*
X191165713Y-73715295D01*
X191165713Y-73715295D02*
X191118094Y-73620057D01*
X191118094Y-73620057D02*
X191070475Y-73572438D01*
X191070475Y-73572438D02*
X190975237Y-73524819D01*
X190975237Y-73524819D02*
X190784761Y-73524819D01*
X190784761Y-73524819D02*
X190689523Y-73572438D01*
X190689523Y-73572438D02*
X190641904Y-73620057D01*
X190641904Y-73620057D02*
X190594285Y-73715295D01*
X190594285Y-73715295D02*
X190594285Y-73762914D01*
X190594285Y-73762914D02*
X190641904Y-73858152D01*
X190641904Y-73858152D02*
X190689523Y-73905771D01*
X190689523Y-73905771D02*
X190784761Y-73953390D01*
X190784761Y-73953390D02*
X190975237Y-73953390D01*
X190975237Y-73953390D02*
X191070475Y-74001009D01*
X191070475Y-74001009D02*
X191118094Y-74048628D01*
X191118094Y-74048628D02*
X191165713Y-74143866D01*
X191165713Y-74143866D02*
X191165713Y-74334342D01*
X191165713Y-74334342D02*
X191118094Y-74429580D01*
X191118094Y-74429580D02*
X191070475Y-74477200D01*
X191070475Y-74477200D02*
X190975237Y-74524819D01*
X190975237Y-74524819D02*
X190784761Y-74524819D01*
X190784761Y-74524819D02*
X190689523Y-74477200D01*
X190689523Y-74477200D02*
X190641904Y-74429580D01*
X190641904Y-74429580D02*
X190594285Y-74334342D01*
X190594285Y-74334342D02*
X190594285Y-74143866D01*
X190594285Y-74143866D02*
X190641904Y-74048628D01*
X190641904Y-74048628D02*
X190689523Y-74001009D01*
X190689523Y-74001009D02*
X190784761Y-73953390D01*
X184292857Y-55244819D02*
X184626190Y-54768628D01*
X184864285Y-55244819D02*
X184864285Y-54244819D01*
X184864285Y-54244819D02*
X184483333Y-54244819D01*
X184483333Y-54244819D02*
X184388095Y-54292438D01*
X184388095Y-54292438D02*
X184340476Y-54340057D01*
X184340476Y-54340057D02*
X184292857Y-54435295D01*
X184292857Y-54435295D02*
X184292857Y-54578152D01*
X184292857Y-54578152D02*
X184340476Y-54673390D01*
X184340476Y-54673390D02*
X184388095Y-54721009D01*
X184388095Y-54721009D02*
X184483333Y-54768628D01*
X184483333Y-54768628D02*
X184864285Y-54768628D01*
X183911904Y-54340057D02*
X183864285Y-54292438D01*
X183864285Y-54292438D02*
X183769047Y-54244819D01*
X183769047Y-54244819D02*
X183530952Y-54244819D01*
X183530952Y-54244819D02*
X183435714Y-54292438D01*
X183435714Y-54292438D02*
X183388095Y-54340057D01*
X183388095Y-54340057D02*
X183340476Y-54435295D01*
X183340476Y-54435295D02*
X183340476Y-54530533D01*
X183340476Y-54530533D02*
X183388095Y-54673390D01*
X183388095Y-54673390D02*
X183959523Y-55244819D01*
X183959523Y-55244819D02*
X183340476Y-55244819D01*
X182721428Y-54244819D02*
X182626190Y-54244819D01*
X182626190Y-54244819D02*
X182530952Y-54292438D01*
X182530952Y-54292438D02*
X182483333Y-54340057D01*
X182483333Y-54340057D02*
X182435714Y-54435295D01*
X182435714Y-54435295D02*
X182388095Y-54625771D01*
X182388095Y-54625771D02*
X182388095Y-54863866D01*
X182388095Y-54863866D02*
X182435714Y-55054342D01*
X182435714Y-55054342D02*
X182483333Y-55149580D01*
X182483333Y-55149580D02*
X182530952Y-55197200D01*
X182530952Y-55197200D02*
X182626190Y-55244819D01*
X182626190Y-55244819D02*
X182721428Y-55244819D01*
X182721428Y-55244819D02*
X182816666Y-55197200D01*
X182816666Y-55197200D02*
X182864285Y-55149580D01*
X182864285Y-55149580D02*
X182911904Y-55054342D01*
X182911904Y-55054342D02*
X182959523Y-54863866D01*
X182959523Y-54863866D02*
X182959523Y-54625771D01*
X182959523Y-54625771D02*
X182911904Y-54435295D01*
X182911904Y-54435295D02*
X182864285Y-54340057D01*
X182864285Y-54340057D02*
X182816666Y-54292438D01*
X182816666Y-54292438D02*
X182721428Y-54244819D01*
X168186174Y-36467036D02*
X168085159Y-35894617D01*
X168590235Y-36062975D02*
X167883128Y-35355869D01*
X167883128Y-35355869D02*
X167613754Y-35625243D01*
X167613754Y-35625243D02*
X167580082Y-35726258D01*
X167580082Y-35726258D02*
X167580082Y-35793601D01*
X167580082Y-35793601D02*
X167613754Y-35894617D01*
X167613754Y-35894617D02*
X167714769Y-35995632D01*
X167714769Y-35995632D02*
X167815785Y-36029304D01*
X167815785Y-36029304D02*
X167883128Y-36029304D01*
X167883128Y-36029304D02*
X167984143Y-35995632D01*
X167984143Y-35995632D02*
X168253517Y-35726258D01*
X167512739Y-37140471D02*
X167916800Y-36736410D01*
X167714769Y-36938441D02*
X167007663Y-36231334D01*
X167007663Y-36231334D02*
X167176021Y-36265006D01*
X167176021Y-36265006D02*
X167310708Y-36265006D01*
X167310708Y-36265006D02*
X167411724Y-36231334D01*
X166603601Y-36770082D02*
X166536258Y-36770082D01*
X166536258Y-36770082D02*
X166435243Y-36803754D01*
X166435243Y-36803754D02*
X166266884Y-36972113D01*
X166266884Y-36972113D02*
X166233212Y-37073128D01*
X166233212Y-37073128D02*
X166233212Y-37140472D01*
X166233212Y-37140472D02*
X166266884Y-37241487D01*
X166266884Y-37241487D02*
X166334227Y-37308830D01*
X166334227Y-37308830D02*
X166468914Y-37376174D01*
X166468914Y-37376174D02*
X167277036Y-37376174D01*
X167277036Y-37376174D02*
X166839304Y-37813907D01*
%TO.C,C3*%
D12*
X180141267Y-49740000D02*
X179848733Y-49740000D01*
X180141267Y-50760000D02*
X179848733Y-50760000D01*
%TO.C,C22*%
X167850000Y-101486267D02*
X167850000Y-101193733D01*
X168870000Y-101486267D02*
X168870000Y-101193733D01*
%TO.C,C17*%
X187650000Y-124048767D02*
X187650000Y-123756233D01*
X188670000Y-124048767D02*
X188670000Y-123756233D01*
%TO.C,R25*%
X152827500Y-99594724D02*
X152827500Y-99085276D01*
X153872500Y-99594724D02*
X153872500Y-99085276D01*
%TO.C,C11*%
X180346267Y-52260000D02*
X180053733Y-52260000D01*
X180346267Y-53280000D02*
X180053733Y-53280000D01*
%TO.C,R10*%
X188309724Y-75497500D02*
X187800276Y-75497500D01*
X188309724Y-76542500D02*
X187800276Y-76542500D01*
%TO.C,Q12*%
X113970000Y-71450000D02*
X113970000Y-72970000D01*
X113970000Y-72970000D02*
X114970000Y-72970000D01*
X114020000Y-71450000D02*
X113970000Y-71450000D01*
X115920000Y-71450000D02*
X115140000Y-71450000D01*
X116090000Y-72970000D02*
X117090000Y-72970000D01*
X117090000Y-71450000D02*
X117040000Y-71450000D01*
X117090000Y-72970000D02*
X117090000Y-71450000D01*
X115480000Y-71150000D02*
X115150000Y-70910000D01*
X115480000Y-70670000D01*
X115480000Y-71150000D01*
G36*
X115480000Y-71150000D02*
G01*
X115150000Y-70910000D01*
X115480000Y-70670000D01*
X115480000Y-71150000D01*
G37*
%TO.C,R11*%
X141240420Y-34850654D02*
X141600654Y-34490420D01*
X141979346Y-35589580D02*
X142339580Y-35229346D01*
%TO.C,C8*%
X151210000Y-125428733D02*
X151210000Y-125721267D01*
X152230000Y-125428733D02*
X152230000Y-125721267D01*
%TO.C,R38*%
X118277500Y-70740276D02*
X118277500Y-71249724D01*
X119322500Y-70740276D02*
X119322500Y-71249724D01*
%TO.C,R3*%
X174325276Y-124087500D02*
X174834724Y-124087500D01*
X174325276Y-125132500D02*
X174834724Y-125132500D01*
%TO.C,Q9*%
X175190000Y-43790000D02*
X175190000Y-45310000D01*
X175190000Y-45310000D02*
X175240000Y-45310000D01*
X176190000Y-43790000D02*
X175190000Y-43790000D01*
X176360000Y-45310000D02*
X177140000Y-45310000D01*
X178260000Y-45310000D02*
X178310000Y-45310000D01*
X178310000Y-43790000D02*
X177310000Y-43790000D01*
X178310000Y-45310000D02*
X178310000Y-43790000D01*
X177130000Y-45850000D02*
X176800000Y-46090000D01*
X176800000Y-45610000D01*
X177130000Y-45850000D01*
G36*
X177130000Y-45850000D02*
G01*
X176800000Y-46090000D01*
X176800000Y-45610000D01*
X177130000Y-45850000D01*
G37*
%TO.C,R34*%
X132970276Y-47957500D02*
X133479724Y-47957500D01*
X132970276Y-49002500D02*
X133479724Y-49002500D01*
%TO.C,Q2*%
X193500000Y-71080000D02*
X193500000Y-72600000D01*
X193500000Y-72600000D02*
X194500000Y-72600000D01*
X193550000Y-71080000D02*
X193500000Y-71080000D01*
X195450000Y-71080000D02*
X194670000Y-71080000D01*
X195620000Y-72600000D02*
X196620000Y-72600000D01*
X196620000Y-71080000D02*
X196570000Y-71080000D01*
X196620000Y-72600000D02*
X196620000Y-71080000D01*
X195010000Y-70780000D02*
X194680000Y-70540000D01*
X195010000Y-70300000D01*
X195010000Y-70780000D01*
G36*
X195010000Y-70780000D02*
G01*
X194680000Y-70540000D01*
X195010000Y-70300000D01*
X195010000Y-70780000D01*
G37*
%TO.C,R9*%
X187934721Y-73247500D02*
X187425273Y-73247500D01*
X187934721Y-74292500D02*
X187425273Y-74292500D01*
%TO.C,C16*%
X180330000Y-125981233D02*
X180330000Y-126273767D01*
X181350000Y-125981233D02*
X181350000Y-126273767D01*
%TO.C,D2*%
X151050000Y-120000000D02*
X144040000Y-120000000D01*
X151050000Y-120000000D02*
X151050000Y-123300000D01*
X151050000Y-123300000D02*
X144040000Y-123300000D01*
%TO.C,R36*%
X179059724Y-64427500D02*
X178550276Y-64427500D01*
X179059724Y-65472500D02*
X178550276Y-65472500D01*
%TO.C,R31*%
X118755276Y-75117500D02*
X119264724Y-75117500D01*
X118755276Y-76162500D02*
X119264724Y-76162500D01*
%TO.C,R2*%
X185557500Y-124174724D02*
X185557500Y-123665276D01*
X186602500Y-124174724D02*
X186602500Y-123665276D01*
%TO.C,R37*%
X128365277Y-65567500D02*
X128874725Y-65567500D01*
X128365277Y-66612500D02*
X128874725Y-66612500D01*
%TO.C,R13*%
X174775276Y-66427500D02*
X175284724Y-66427500D01*
X174775276Y-67472500D02*
X175284724Y-67472500D01*
%TO.C,R4*%
X170017500Y-122515276D02*
X170017500Y-123024724D01*
X171062500Y-122515276D02*
X171062500Y-123024724D01*
%TO.C,C21*%
X137610000Y-100486267D02*
X137610000Y-100193733D01*
X138630000Y-100486267D02*
X138630000Y-100193733D01*
%TO.C,R21*%
X128340276Y-67737500D02*
X128849724Y-67737500D01*
X128340276Y-68782500D02*
X128849724Y-68782500D01*
%TO.C,R24*%
X141517500Y-77849724D02*
X141517500Y-77340276D01*
X142562500Y-77849724D02*
X142562500Y-77340276D01*
%TO.C,R33*%
X182507500Y-125845430D02*
X182507500Y-126354878D01*
X183552500Y-125845430D02*
X183552500Y-126354878D01*
%TO.C,R26*%
X150407500Y-100885276D02*
X150407500Y-101394724D01*
X151452500Y-100885276D02*
X151452500Y-101394724D01*
%TO.C,R32*%
X187425276Y-70577500D02*
X187934724Y-70577500D01*
X187425276Y-71622500D02*
X187934724Y-71622500D01*
%TO.C,R15*%
X133005276Y-50247500D02*
X133514724Y-50247500D01*
X133005276Y-51292500D02*
X133514724Y-51292500D01*
%TO.C,R23*%
X144027500Y-77849724D02*
X144027500Y-77340276D01*
X145072500Y-77849724D02*
X145072500Y-77340276D01*
%TO.C,R5*%
X146677500Y-77869724D02*
X146677500Y-77360276D01*
X147722500Y-77869724D02*
X147722500Y-77360276D01*
%TO.C,R14*%
X133614724Y-67547500D02*
X133105276Y-67547500D01*
X133614724Y-68592500D02*
X133105276Y-68592500D01*
%TO.C,C4*%
X123769999Y-83713733D02*
X123769999Y-84006267D01*
X124789999Y-83713733D02*
X124789999Y-84006267D01*
%TO.C,R17*%
X174074724Y-49837500D02*
X173565276Y-49837500D01*
X174074724Y-50882500D02*
X173565276Y-50882500D01*
%TO.C,R18*%
X180264724Y-47310081D02*
X179755276Y-47310081D01*
X180264724Y-48355081D02*
X179755276Y-48355081D01*
%TO.C,R29*%
X110894724Y-72947500D02*
X110385276Y-72947500D01*
X110894724Y-73992500D02*
X110385276Y-73992500D01*
%TO.C,C5*%
X125680000Y-83723733D02*
X125680000Y-84016267D01*
X126700000Y-83723733D02*
X126700000Y-84016267D01*
%TO.C,C9*%
X165740000Y-122999544D02*
X165740000Y-122707010D01*
X166760000Y-122999544D02*
X166760000Y-122707010D01*
%TO.C,R22*%
X127260276Y-55297500D02*
X127769724Y-55297500D01*
X127260276Y-56342500D02*
X127769724Y-56342500D01*
%TO.C,C12*%
X126051267Y-53360000D02*
X125758733Y-53360000D01*
X126051267Y-54380000D02*
X125758733Y-54380000D01*
%TO.C,C6*%
X125760000Y-79111233D02*
X125760000Y-79403767D01*
X126780000Y-79111233D02*
X126780000Y-79403767D01*
%TO.C,C1*%
X191273733Y-68050000D02*
X191566267Y-68050000D01*
X191273733Y-69070000D02*
X191566267Y-69070000D01*
%TO.C,R28*%
X120427500Y-70745276D02*
X120427500Y-71254724D01*
X121472500Y-70745276D02*
X121472500Y-71254724D01*
%TO.C,C10*%
X147966267Y-118130000D02*
X147673733Y-118130000D01*
X147966267Y-119150000D02*
X147673733Y-119150000D01*
%TO.C,R16*%
X127460275Y-47867500D02*
X127969723Y-47867500D01*
X127460275Y-48912500D02*
X127969723Y-48912500D01*
%TO.C,F1*%
X137207936Y-113620000D02*
X138412064Y-113620000D01*
X137207936Y-115440000D02*
X138412064Y-115440000D01*
%TO.C,R6*%
X149086681Y-125834724D02*
X149086681Y-125325276D01*
X150131681Y-125834724D02*
X150131681Y-125325276D01*
%TO.C,R30*%
X149207500Y-77869724D02*
X149207500Y-77360276D01*
X150252500Y-77869724D02*
X150252500Y-77360276D01*
%TO.C,Q10*%
X178170000Y-59880000D02*
X178170000Y-61400000D01*
X178170000Y-61400000D02*
X178220000Y-61400000D01*
X179170000Y-59880000D02*
X178170000Y-59880000D01*
X179340000Y-61400000D02*
X180120000Y-61400000D01*
X181240000Y-61400000D02*
X181290000Y-61400000D01*
X181290000Y-59880000D02*
X180290000Y-59880000D01*
X181290000Y-61400000D02*
X181290000Y-59880000D01*
X180110000Y-61940000D02*
X179780000Y-62180000D01*
X179780000Y-61700000D01*
X180110000Y-61940000D01*
G36*
X180110000Y-61940000D02*
G01*
X179780000Y-62180000D01*
X179780000Y-61700000D01*
X180110000Y-61940000D01*
G37*
%TO.C,C7*%
X123640000Y-79101233D02*
X123640000Y-79393767D01*
X124660000Y-79101233D02*
X124660000Y-79393767D01*
%TO.C,C13*%
X110871267Y-70700000D02*
X110578733Y-70700000D01*
X110871267Y-71720000D02*
X110578733Y-71720000D01*
%TO.C,Q8*%
X128980000Y-44170000D02*
X128980000Y-45690000D01*
X128980000Y-45690000D02*
X129030000Y-45690000D01*
X129980000Y-44170000D02*
X128980000Y-44170000D01*
X130150000Y-45690000D02*
X130930000Y-45690000D01*
X132050000Y-45690000D02*
X132100000Y-45690000D01*
X132100000Y-44170000D02*
X131100000Y-44170000D01*
X132100000Y-45690000D02*
X132100000Y-44170000D01*
X130920000Y-46230000D02*
X130590000Y-46470000D01*
X130590000Y-45990000D01*
X130920000Y-46230000D01*
G36*
X130920000Y-46230000D02*
G01*
X130590000Y-46470000D01*
X130590000Y-45990000D01*
X130920000Y-46230000D01*
G37*
%TO.C,R7*%
X153167500Y-125834722D02*
X153167500Y-125325274D01*
X154212500Y-125834722D02*
X154212500Y-125325274D01*
%TO.C,Q11*%
X126032499Y-59327501D02*
X126032499Y-60847501D01*
X126032499Y-60847501D02*
X126082499Y-60847501D01*
X127032499Y-59327501D02*
X126032499Y-59327501D01*
X127202499Y-60847501D02*
X127982499Y-60847501D01*
X129102499Y-60847501D02*
X129152499Y-60847501D01*
X129152499Y-59327501D02*
X128152499Y-59327501D01*
X129152499Y-60847501D02*
X129152499Y-59327501D01*
X127972499Y-61387501D02*
X127642499Y-61627501D01*
X127642499Y-61147501D01*
X127972499Y-61387501D01*
G36*
X127972499Y-61387501D02*
G01*
X127642499Y-61627501D01*
X127642499Y-61147501D01*
X127972499Y-61387501D01*
G37*
%TO.C,C2*%
X127533732Y-50280000D02*
X127826266Y-50280000D01*
X127533732Y-51300000D02*
X127826266Y-51300000D01*
%TO.C,R19*%
X179044724Y-66917500D02*
X178535276Y-66917500D01*
X179044724Y-67962500D02*
X178535276Y-67962500D01*
%TO.C,R35*%
X174104724Y-47567500D02*
X173595276Y-47567500D01*
X174104724Y-48612500D02*
X173595276Y-48612500D01*
%TO.C,R8*%
X191125276Y-72117500D02*
X191634724Y-72117500D01*
X191125276Y-73162500D02*
X191634724Y-73162500D01*
%TO.C,R20*%
X180389724Y-54197500D02*
X179880276Y-54197500D01*
X180389724Y-55242500D02*
X179880276Y-55242500D01*
%TO.C,R12*%
X165617291Y-35636217D02*
X165257057Y-35275983D01*
X166356217Y-34897291D02*
X165995983Y-34537057D01*
%TD*%
M02*
