M48
; DRILL file KiCad 10.0.1 date 2026-05-02T16:30:36
; FORMAT={-:-/ absolute / metric / decimal}
; #@! TF.CreationDate,2026-05-02T16:30:36+05:30
; #@! TF.GenerationSoftware,Kicad,Pcbnew,10.0.1
; #@! TF.FileFunction,Plated,1,2,PTH
FMAT,2
METRIC
; #@! TA.AperFunction,Plated,PTH,ViaDrill
T1C0.400
; #@! TA.AperFunction,Plated,PTH,ComponentDrill
T2C0.900
; #@! TA.AperFunction,Plated,PTH,ComponentDrill
T3C1.000
; #@! TA.AperFunction,Plated,PTH,ComponentDrill
T4C1.016
; #@! TA.AperFunction,Plated,PTH,ComponentDrill
T5C1.040
; #@! TA.AperFunction,Plated,PTH,ComponentDrill
T6C1.500
; #@! TA.AperFunction,Plated,PTH,ComponentDrill
T7C4.500
%
G90
G05
T1
X106.12Y-90.99
X108.21Y-73.77
X109.8Y-73.45
X111.465Y-73.47
X114.12Y-130.25
X114.14Y-103.38
X114.21Y-117.6
X114.24Y-61.71
X114.28Y-91.81
X116.26Y-77.05
X118.185Y-75.64
X120.2Y-81.14
X121.2Y-51.13
X122.87Y-77.09
X123.04Y-79.88
X123.99Y-93.44
X124.34Y-67.82
X126.27Y-78.395
X126.88Y-63.35
X130.13Y-63.34
X130.16Y-76.91
X130.19Y-79.57
X130.21Y-84.73
X130.52Y-49.77
X131.3Y-92.04
X131.94Y-97.15
X131.95Y-82.23
X134.18Y-61.71
X134.59Y-45.7
X134.74Y-76.98
X134.74Y-79.55
X134.92Y-84.78
X138.12Y-99.477
X138.38Y-76.91
X138.45Y-95.49
X138.56Y-84.68
X139.89Y-112.01
X140.21Y-36.72
X141.04Y-65.0
X141.05Y-84.63
X141.39Y-82.08
X141.74Y-119.1
X142.1Y-78.507
X142.87Y-60.89
X143.52Y-84.51
X144.19Y-91.65
X144.56Y-76.75
X144.63Y-129.27
X144.84Y-108.54
X144.97Y-31.02
X145.05Y-82.44
X145.79Y-59.7
X146.56Y-104.17
X147.18Y-78.42
X147.2Y-76.78
X148.573Y-51.301
X149.2Y-41.5
X149.73Y-76.74
X151.5Y-97.24
X152.18Y-61.8
X152.33Y-71.9
X152.46Y-83.49
X152.88Y-77.05
X152.94Y-86.51
X153.35Y-98.427
X153.35Y-100.252
X154.14Y-86.52
X154.33Y-76.97
X154.54Y-96.64
X155.16Y-82.17
X155.35Y-86.55
X155.67Y-77.01
X155.879Y-96.97
X157.01Y-43.2
X157.99Y-105.11
X158.37Y-82.17
X159.88Y-85.15
X159.94Y-65.28
X159.95Y-78.89
X160.2Y-129.44
X160.9Y-62.75
X161.6Y-108.2
X162.39Y-78.88
X162.56Y-30.98
X162.58Y-66.2
X162.64Y-91.959
X164.35Y-59.1
X164.65Y-112.15
X166.25Y-123.716
X166.34Y-95.5
X166.56Y-115.3
X166.77Y-60.69
X166.78Y-36.86
X167.0Y-67.26
X167.29Y-77.46
X168.33Y-85.59
X168.35Y-100.44
X170.11Y-84.34
X170.14Y-79.83
X170.466Y-71.036
X170.47Y-111.9
X170.54Y-123.682
X171.08Y-76.29
X171.191Y-70.311
X171.43Y-47.28
X171.75Y-107.93
X171.96Y-96.76
X172.5Y-71.6
X172.64Y-87.0
X172.64Y-84.43
X172.67Y-68.72
X172.68Y-79.8
X173.34Y-77.15
X174.1Y-44.64
X174.675Y-48.09
X174.675Y-50.33
X174.86Y-92.07
X175.77Y-84.23
X175.78Y-79.75
X176.51Y-61.57
X176.91Y-93.97
X177.03Y-47.84
X177.38Y-77.82
X177.47Y-130.37
X177.97Y-122.69
X179.09Y-50.3
X179.55Y-85.96
X179.59Y-77.1
X180.84Y-125.265
X180.96Y-54.72
X181.17Y-77.1
X181.29Y-85.93
X181.78Y-68.58
X182.83Y-128.64
X183.28Y-48.59
X184.92Y-71.75
X185.12Y-80.71
X187.29Y-88.98
X190.12Y-77.15
X190.555Y-72.64
X190.645Y-68.56
X190.78Y-74.27
X191.37Y-124.54
X191.86Y-61.03
X192.61Y-118.32
X192.68Y-103.21
X193.0Y-130.35
X197.48Y-73.79
X200.78Y-90.75
X200.85Y-80.25
T2
X119.28Y-123.41
X119.28Y-125.41
X119.28Y-127.41
X119.36Y-94.8
X119.36Y-96.8
X119.36Y-98.8
X173.26Y-128.05
X175.8Y-128.05
T3
X107.05Y-89.14
X107.09Y-83.49
X109.59Y-89.14
X109.63Y-83.49
X109.96Y-78.24
X112.13Y-89.14
X112.17Y-83.49
X112.5Y-78.24
X114.67Y-89.14
X114.71Y-83.49
X117.21Y-89.14
X117.25Y-83.49
X119.75Y-89.14
X119.79Y-83.49
X132.51Y-55.52
X132.51Y-58.06
X136.584Y-42.076
X137.65Y-54.1
X137.65Y-56.64
X137.65Y-59.18
X137.65Y-61.72
X137.65Y-64.26
X137.65Y-66.8
X138.03Y-48.66
X138.38Y-40.28
X139.826Y-46.864
X141.622Y-45.068
X142.19Y-113.53
X142.19Y-116.07
X142.19Y-126.23
X142.19Y-128.77
X142.53Y-95.34
X142.53Y-97.88
X142.53Y-100.42
X142.53Y-102.96
X142.53Y-105.5
X142.53Y-108.04
X143.418Y-43.272
X144.75Y-48.54
X144.78Y-52.09
X144.78Y-69.87
X145.214Y-41.476
X146.92Y-93.31
X146.93Y-108.55
X147.01Y-39.68
X147.29Y-48.54
X147.32Y-52.09
X147.32Y-69.87
X149.46Y-93.31
X149.47Y-108.55
X149.83Y-48.54
X149.86Y-52.09
X149.86Y-69.87
X152.0Y-93.31
X152.01Y-108.55
X152.37Y-48.54
X152.4Y-52.09
X152.4Y-69.87
X154.54Y-93.31
X154.55Y-108.55
X154.91Y-48.54
X154.94Y-52.09
X154.94Y-69.87
X157.08Y-93.31
X157.09Y-108.55
X157.45Y-48.54
X157.48Y-52.09
X157.48Y-69.87
X159.62Y-93.31
X159.63Y-108.55
X159.99Y-48.54
X160.02Y-52.09
X160.02Y-69.87
X160.106Y-39.626
X161.902Y-41.422
X162.51Y-113.53
X162.51Y-116.07
X162.51Y-126.23
X162.51Y-128.77
X162.53Y-48.54
X162.56Y-52.09
X162.56Y-69.87
X163.698Y-43.218
X163.84Y-95.36
X163.84Y-97.9
X163.84Y-100.44
X163.84Y-102.98
X163.84Y-105.52
X163.84Y-108.06
X165.494Y-45.014
X167.29Y-46.81
X168.7Y-40.4
X169.086Y-48.606
X169.97Y-53.73
X169.97Y-56.27
X169.97Y-58.81
X169.97Y-61.35
X169.97Y-63.89
X169.97Y-66.43
X170.496Y-42.196
X175.34Y-55.2
X175.34Y-57.74
X186.44Y-83.49
X188.98Y-83.49
X191.52Y-83.49
X193.82Y-78.0
X194.06Y-83.49
X196.36Y-78.0
X196.6Y-83.49
X199.14Y-83.49
T4
X124.34Y-74.1
X124.34Y-89.34
X126.88Y-74.1
X126.88Y-89.34
X129.42Y-74.1
X129.42Y-89.34
X131.96Y-74.1
X131.96Y-89.34
X134.5Y-74.1
X134.5Y-89.34
X137.04Y-74.1
X137.04Y-89.34
X139.58Y-74.1
X139.58Y-89.34
X142.12Y-74.1
X142.12Y-89.34
X144.66Y-74.1
X144.66Y-89.34
X147.2Y-74.1
X147.2Y-89.34
X149.74Y-74.1
X149.74Y-89.34
X152.28Y-74.1
X152.28Y-89.34
X154.82Y-74.1
X154.82Y-89.34
X157.36Y-74.1
X157.36Y-89.34
X159.9Y-74.1
X159.9Y-89.34
X162.44Y-74.1
X162.44Y-89.34
X164.98Y-74.1
X164.98Y-89.34
X167.52Y-74.1
X167.52Y-89.34
X170.06Y-74.1
X170.06Y-89.34
X172.6Y-74.1
X172.6Y-89.34
X175.14Y-74.1
X175.14Y-89.34
X177.68Y-74.1
X177.68Y-89.34
X180.22Y-74.1
X180.22Y-89.34
X182.76Y-74.1
X182.76Y-89.34
T5
X117.23Y-78.92
X119.77Y-78.92
X133.11Y-63.09
X133.11Y-65.63
X142.852Y-37.398
X144.648Y-35.602
X162.852Y-35.602
X164.648Y-37.398
X174.71Y-62.61
X174.71Y-65.15
X186.49Y-78.9
X189.03Y-78.9
T6
X119.28Y-121.31
X119.28Y-129.51
X119.36Y-92.7
X119.36Y-100.9
T7
X126.84Y-126.55
X134.04Y-126.55
M30
