%TF.GenerationSoftware,KiCad,Pcbnew,10.0.1*%
%TF.CreationDate,2026-05-02T16:28:35+05:30*%
%TF.ProjectId,HSM_Project,48534d5f-5072-46f6-9a65-63742e6b6963,rev?*%
%TF.SameCoordinates,Original*%
%TF.FileFunction,Soldermask,Top*%
%TF.FilePolarity,Negative*%
%FSLAX46Y46*%
G04 Gerber Fmt 4.6, Leading zero omitted, Abs format (unit mm)*
G04 Created by KiCad (PCBNEW 10.0.1) date 2026-05-02 16:28:35*
%MOMM*%
%LPD*%
G01*
G04 APERTURE LIST*
G04 Aperture macros list*
%AMRoundRect*
0 Rectangle with rounded corners*
0 $1 Rounding radius*
0 $2 $3 $4 $5 $6 $7 $8 $9 X,Y pos of 4 corners*
0 Add a 4 corners polygon primitive as box body*
4,1,4,$2,$3,$4,$5,$6,$7,$8,$9,$2,$3,0*
0 Add four circle primitives for the rounded corners*
1,1,$1+$1,$2,$3*
1,1,$1+$1,$4,$5*
1,1,$1+$1,$6,$7*
1,1,$1+$1,$8,$9*
0 Add four rect primitives between the rounded corners*
20,1,$1+$1,$2,$3,$4,$5,0*
20,1,$1+$1,$4,$5,$6,$7,0*
20,1,$1+$1,$6,$7,$8,$9,0*
20,1,$1+$1,$8,$9,$2,$3,0*%
%AMRotRect*
0 Rectangle, with rotation*
0 The origin of the aperture is its center*
0 $1 length*
0 $2 width*
0 $3 Rotation angle, in degrees counterclockwise*
0 Add horizontal line*
21,1,$1,$2,0,0,$3*%
G04 Aperture macros list end*
%ADD10C,1.000000*%
%ADD11RoundRect,0.102000X0.000000X-1.103087X1.103087X0.000000X0.000000X1.103087X-1.103087X0.000000X0*%
%ADD12C,1.764000*%
%ADD13RoundRect,0.102000X-0.780000X-0.780000X0.780000X-0.780000X0.780000X0.780000X-0.780000X0.780000X0*%
%ADD14C,2.100000*%
%ADD15R,1.800000X1.800000*%
%ADD16C,1.800000*%
%ADD17R,2.500000X1.500000*%
%ADD18R,1.700000X1.700000*%
%ADD19C,1.700000*%
%ADD20RoundRect,0.102000X1.103087X0.000000X0.000000X1.103087X-1.103087X0.000000X0.000000X-1.103087X0*%
%ADD21RoundRect,0.102000X0.780000X-0.780000X0.780000X0.780000X-0.780000X0.780000X-0.780000X-0.780000X0*%
%ADD22O,3.500000X2.200000*%
%ADD23O,2.500000X1.500000*%
%ADD24RotRect,1.700000X1.700000X225.000000*%
%ADD25RotRect,1.700000X1.700000X135.000000*%
%ADD26C,1.728000*%
%ADD27RoundRect,0.102000X0.780000X0.780000X-0.780000X0.780000X-0.780000X-0.780000X0.780000X-0.780000X0*%
%ADD28RoundRect,0.090000X-0.660000X-0.360000X0.660000X-0.360000X0.660000X0.360000X-0.660000X0.360000X0*%
%ADD29RoundRect,1.500000X1.500000X1.500000X-1.500000X1.500000X-1.500000X-1.500000X1.500000X-1.500000X0*%
%ADD30C,6.000000*%
G04 APERTURE END LIST*
%TO.C,D1*%
D10*
X137083949Y-42076052D02*
G75*
G02*
X136083947Y-42076052I-500001J0D01*
G01*
X136083947Y-42076052D02*
G75*
G02*
X137083949Y-42076052I500001J0D01*
G01*
X138879999Y-40280000D02*
G75*
G02*
X137880001Y-40280000I-499999J0D01*
G01*
X137880001Y-40280000D02*
G75*
G02*
X138879999Y-40280000I499999J0D01*
G01*
%TO.C,D7*%
X175840000Y-55200000D02*
G75*
G02*
X174840000Y-55200000I-500000J0D01*
G01*
X174840000Y-55200000D02*
G75*
G02*
X175840000Y-55200000I500000J0D01*
G01*
X175840000Y-57740000D02*
G75*
G02*
X174840000Y-57740000I-500000J0D01*
G01*
X174840000Y-57740000D02*
G75*
G02*
X175840000Y-57740000I500000J0D01*
G01*
%TO.C,D6*%
X169199999Y-40400000D02*
G75*
G02*
X168200001Y-40400000I-499999J0D01*
G01*
X168200001Y-40400000D02*
G75*
G02*
X169199999Y-40400000I499999J0D01*
G01*
X170996053Y-42196052D02*
G75*
G02*
X169996051Y-42196052I-500001J0D01*
G01*
X169996051Y-42196052D02*
G75*
G02*
X170996053Y-42196052I500001J0D01*
G01*
%TO.C,D9*%
X110460000Y-78240000D02*
G75*
G02*
X109460000Y-78240000I-500000J0D01*
G01*
X109460000Y-78240000D02*
G75*
G02*
X110460000Y-78240000I500000J0D01*
G01*
X113000000Y-78240000D02*
G75*
G02*
X112000000Y-78240000I-500000J0D01*
G01*
X112000000Y-78240000D02*
G75*
G02*
X113000000Y-78240000I500000J0D01*
G01*
%TO.C,D4*%
X194320000Y-78000000D02*
G75*
G02*
X193320000Y-78000000I-500000J0D01*
G01*
X193320000Y-78000000D02*
G75*
G02*
X194320000Y-78000000I500000J0D01*
G01*
X196860000Y-78000000D02*
G75*
G02*
X195860000Y-78000000I-500000J0D01*
G01*
X195860000Y-78000000D02*
G75*
G02*
X196860000Y-78000000I500000J0D01*
G01*
%TO.C,D8*%
X133010000Y-55520000D02*
G75*
G02*
X132010000Y-55520000I-500000J0D01*
G01*
X132010000Y-55520000D02*
G75*
G02*
X133010000Y-55520000I500000J0D01*
G01*
X133010000Y-58060000D02*
G75*
G02*
X132010000Y-58060000I-500000J0D01*
G01*
X132010000Y-58060000D02*
G75*
G02*
X133010000Y-58060000I500000J0D01*
G01*
%TD*%
D11*
%TO.C,Q4*%
X142851974Y-37398026D03*
D12*
X144648026Y-35601974D03*
%TD*%
D13*
%TO.C,Q13*%
X117230000Y-78920000D03*
D12*
X119770000Y-78920000D03*
%TD*%
D14*
%TO.C,H8*%
X175100000Y-119460000D03*
%TD*%
D15*
%TO.C,D3*%
X173260000Y-128050000D03*
D16*
X175800000Y-128050000D03*
%TD*%
D17*
%TO.C,SW3*%
X191370000Y-124540000D03*
X182870000Y-124540000D03*
%TD*%
D18*
%TO.C,J8*%
X186440000Y-83490000D03*
D19*
X188980000Y-83490000D03*
X191520000Y-83490000D03*
X194060000Y-83490000D03*
X196600000Y-83490000D03*
X199140000Y-83490000D03*
%TD*%
D20*
%TO.C,Q5*%
X164648026Y-37398026D03*
D12*
X162851974Y-35601974D03*
%TD*%
D14*
%TO.C,H5*%
X132000000Y-101590000D03*
%TD*%
D18*
%TO.C,J7*%
X163840000Y-95360000D03*
D19*
X163840000Y-97900000D03*
X163840000Y-100440000D03*
X163840000Y-102980000D03*
X163840000Y-105520000D03*
X163840000Y-108060000D03*
%TD*%
D14*
%TO.C,H6*%
X132000000Y-119500000D03*
%TD*%
D19*
%TO.C,J3*%
X146920000Y-93310000D03*
X149460000Y-93310000D03*
X152000000Y-93310000D03*
X154540000Y-93310000D03*
X157080000Y-93310000D03*
X159620000Y-93310000D03*
X159630000Y-108550000D03*
X157090000Y-108550000D03*
X154550000Y-108550000D03*
X152010000Y-108550000D03*
X149470000Y-108550000D03*
X146930000Y-108550000D03*
%TD*%
D21*
%TO.C,Q7*%
X133110000Y-65630000D03*
D12*
X133110000Y-63090000D03*
%TD*%
D18*
%TO.C,J6*%
X142530000Y-95340000D03*
D19*
X142530000Y-97880000D03*
X142530000Y-100420000D03*
X142530000Y-102960000D03*
X142530000Y-105500000D03*
X142530000Y-108040000D03*
%TD*%
D21*
%TO.C,Q6*%
X174710000Y-65150000D03*
D12*
X174710000Y-62610000D03*
%TD*%
D18*
%TO.C,J13*%
X119790000Y-83490000D03*
D19*
X117250000Y-83490000D03*
X114710000Y-83490000D03*
X112170000Y-83490000D03*
X109630000Y-83490000D03*
X107090000Y-83490000D03*
%TD*%
D14*
%TO.C,H3*%
X181100000Y-101600000D03*
%TD*%
D22*
%TO.C,SW2*%
X119280000Y-121310000D03*
X119280000Y-129510000D03*
D17*
X119280000Y-123410000D03*
D23*
X119280000Y-125410000D03*
X119280000Y-127410000D03*
%TD*%
D24*
%TO.C,J10*%
X169086051Y-48606051D03*
D19*
X167290000Y-46810000D03*
X165493949Y-45013949D03*
X163697897Y-43217897D03*
X161901846Y-41421846D03*
X160105795Y-39625795D03*
%TD*%
D25*
%TO.C,J9*%
X138029744Y-48660256D03*
D19*
X139825795Y-46864205D03*
X141621846Y-45068154D03*
X143417898Y-43272102D03*
X145213949Y-41476051D03*
X147010000Y-39680000D03*
%TD*%
D14*
%TO.C,H7*%
X175100000Y-101580000D03*
%TD*%
%TO.C,H2*%
X126000000Y-119510000D03*
%TD*%
D26*
%TO.C,J4*%
X129420000Y-74100000D03*
X159900000Y-89340000D03*
X126880000Y-74100000D03*
X126880000Y-89340000D03*
X129420000Y-89340000D03*
X131960000Y-89340000D03*
X134500000Y-89340000D03*
X137040000Y-89340000D03*
X139580000Y-89340000D03*
X142120000Y-89340000D03*
X144660000Y-89340000D03*
X147200000Y-89340000D03*
X149740000Y-89340000D03*
X152280000Y-89340000D03*
X154820000Y-89340000D03*
X157360000Y-89340000D03*
X157360000Y-74100000D03*
X154820000Y-74100000D03*
X152280000Y-74100000D03*
X149740000Y-74100000D03*
X147200000Y-74100000D03*
X144660000Y-74100000D03*
X142120000Y-74100000D03*
X139580000Y-74100000D03*
X137040000Y-74100000D03*
X134500000Y-74100000D03*
X131960000Y-74100000D03*
X162440000Y-89340000D03*
X164980000Y-89340000D03*
X167520000Y-89340000D03*
X170060000Y-89340000D03*
X172600000Y-89340000D03*
X175140000Y-89340000D03*
X177680000Y-89340000D03*
X180220000Y-89340000D03*
X182760000Y-89340000D03*
X182760000Y-74100000D03*
X180220000Y-74100000D03*
X177680000Y-74100000D03*
X175140000Y-74100000D03*
X172600000Y-74100000D03*
X170060000Y-74100000D03*
X167520000Y-74100000D03*
X164980000Y-74100000D03*
X162440000Y-74100000D03*
X124340000Y-89340000D03*
X159900000Y-74100000D03*
X124340000Y-74100000D03*
%TD*%
D18*
%TO.C,J11*%
X169970000Y-66430000D03*
D19*
X169970000Y-63890000D03*
X169970000Y-61350000D03*
X169970000Y-58810000D03*
X169970000Y-56270000D03*
X169970000Y-53730000D03*
%TD*%
D18*
%TO.C,J16*%
X119750000Y-89140000D03*
D19*
X117210000Y-89140000D03*
X114670000Y-89140000D03*
X112130000Y-89140000D03*
X109590000Y-89140000D03*
X107050000Y-89140000D03*
%TD*%
%TO.C,J14*%
X144780000Y-52090000D03*
X147320000Y-52090000D03*
X149860000Y-52090000D03*
X152400000Y-52090000D03*
X154940000Y-52090000D03*
X157480000Y-52090000D03*
X160020000Y-52090000D03*
X162560000Y-52090000D03*
X162560000Y-69870000D03*
X160020000Y-69870000D03*
X157480000Y-69870000D03*
X154940000Y-69870000D03*
X152400000Y-69870000D03*
X149860000Y-69870000D03*
X147320000Y-69870000D03*
X144780000Y-69870000D03*
%TD*%
D22*
%TO.C,SW1*%
X119360000Y-92700000D03*
X119360000Y-100900000D03*
D17*
X119360000Y-94800000D03*
D23*
X119360000Y-96800000D03*
X119360000Y-98800000D03*
%TD*%
D14*
%TO.C,H1*%
X126000000Y-101590000D03*
%TD*%
%TO.C,H9*%
X153820000Y-37380000D03*
%TD*%
D27*
%TO.C,Q3*%
X189030000Y-78900000D03*
D12*
X186490000Y-78900000D03*
%TD*%
D18*
%TO.C,J12*%
X137650000Y-54100000D03*
D19*
X137650000Y-56640000D03*
X137650000Y-59180000D03*
X137650000Y-61720000D03*
X137650000Y-64260000D03*
X137650000Y-66800000D03*
%TD*%
D28*
%TO.C,D5*%
X165460000Y-125820000D03*
X165460000Y-129120000D03*
X170360000Y-129120000D03*
X170360000Y-125820000D03*
%TD*%
D29*
%TO.C,J1*%
X134040000Y-126550000D03*
D30*
X126840000Y-126550000D03*
%TD*%
D18*
%TO.C,J5*%
X144750000Y-48540000D03*
D19*
X147290000Y-48540000D03*
X149830000Y-48540000D03*
X152370000Y-48540000D03*
X154910000Y-48540000D03*
X157450000Y-48540000D03*
X159990000Y-48540000D03*
X162530000Y-48540000D03*
%TD*%
D14*
%TO.C,H10*%
X153820000Y-22380000D03*
%TD*%
D17*
%TO.C,SW4*%
X182830000Y-128640000D03*
X191330000Y-128640000D03*
%TD*%
D14*
%TO.C,H4*%
X181100000Y-119490000D03*
%TD*%
D19*
%TO.C,J2*%
X142190000Y-128770000D03*
X142190000Y-126230000D03*
X142190000Y-116070000D03*
X142190000Y-113530000D03*
X162510000Y-113530000D03*
X162510000Y-116070000D03*
X162510000Y-126230000D03*
X162510000Y-128770000D03*
%TD*%
M02*
