M48
; DRILL file KiCad 10.0.1 date 2026-05-27T15:21:26
; FORMAT={-:-/ absolute / metric / decimal}
; #@! TF.CreationDate,2026-05-27T15:21:26+05:30
; #@! TF.GenerationSoftware,Kicad,Pcbnew,10.0.1
; #@! TF.FileFunction,MixedPlating,1,2
FMAT,2
METRIC
; #@! TA.AperFunction,Plated,PTH,ViaDrill
T1C0.400
; #@! TA.AperFunction,Plated,PTH,ComponentDrill
T2C0.750
; #@! TA.AperFunction,Plated,PTH,ComponentDrill
T3C0.800
; #@! TA.AperFunction,Plated,PTH,ComponentDrill
T4C0.900
; #@! TA.AperFunction,Plated,PTH,ComponentDrill
T5C1.000
; #@! TA.AperFunction,Plated,PTH,ComponentDrill
T6C1.016
; #@! TA.AperFunction,Plated,PTH,ComponentDrill
T7C1.200
; #@! TA.AperFunction,Plated,PTH,ComponentDrill
T8C1.500
; #@! TA.AperFunction,Plated,PTH,ComponentDrill
T9C1.800
; #@! TA.AperFunction,NonPlated,NPTH,ComponentDrill
T10C2.100
%
G90
G05
T1
X103.919Y-91.118
X108.66Y-60.36
X109.31Y-72.36
X112.19Y-72.37
X112.66Y-80.73
X114.12Y-130.25
X114.14Y-103.38
X114.21Y-117.6
X114.28Y-91.81
X116.33Y-47.41
X120.43Y-81.34
X121.33Y-75.61
X124.38Y-70.76
X126.287Y-83.9
X128.99Y-59.37
X131.06Y-83.78
X131.655Y-43.825
X131.66Y-78.36
X131.95Y-82.23
X132.0Y-84.61
X132.52Y-48.68
X133.64Y-77.02
X133.67Y-79.79
X133.91Y-85.74
X135.55Y-77.02
X135.6Y-79.77
X136.36Y-85.71
X137.63Y-79.81
X137.67Y-77.11
X138.56Y-85.74
X140.99Y-83.58
X140.99Y-85.74
X141.04Y-65.0
X141.29Y-110.76
X142.09Y-80.015
X142.69Y-39.89
X142.76Y-83.53
X142.76Y-85.71
X142.87Y-60.89
X143.82Y-27.39
X144.61Y-78.147
X144.63Y-129.27
X145.142Y-86.343
X145.53Y-54.81
X145.79Y-59.7
X147.24Y-78.167
X147.24Y-79.992
X147.49Y-86.39
X148.62Y-54.42
X148.62Y-56.67
X149.6Y-86.41
X149.71Y-78.26
X149.8Y-64.18
X150.05Y-39.25
X152.19Y-40.58
X152.25Y-72.18
X152.43Y-77.0
X152.73Y-84.61
X154.47Y-76.98
X155.57Y-82.43
X156.66Y-77.01
X158.16Y-87.11
X158.358Y-82.47
X159.55Y-36.88
X159.65Y-43.218
X159.95Y-78.89
X160.2Y-129.44
X160.25Y-65.28
X160.555Y-98.855
X160.9Y-62.75
X161.01Y-87.14
X161.52Y-44.14
X161.88Y-106.36
X162.11Y-46.01
X162.11Y-123.716
X162.39Y-78.88
X162.58Y-66.2
X163.16Y-27.43
X164.35Y-59.1
X164.74Y-111.11
X164.78Y-47.75
X166.25Y-123.716
X166.26Y-60.12
X166.93Y-70.01
X167.0Y-67.26
X167.29Y-77.46
X167.755Y-109.945
X167.84Y-36.42
X169.67Y-98.88
X170.14Y-79.83
X170.466Y-70.79
X170.54Y-123.682
X171.08Y-76.29
X171.75Y-113.93
X171.84Y-46.31
X171.975Y-70.555
X172.22Y-71.88
X172.47Y-68.62
X172.56Y-47.84
X172.68Y-79.8
X172.8Y-91.37
X173.48Y-77.63
X173.73Y-83.17
X174.85Y-85.41
X175.78Y-79.75
X176.24Y-41.27
X176.96Y-38.86
X176.98Y-85.96
X177.38Y-77.82
X177.4Y-66.3
X177.93Y-59.31
X178.91Y-122.69
X179.18Y-77.01
X179.55Y-85.96
X180.36Y-112.39
X180.48Y-83.2
X180.59Y-124.54
X180.62Y-49.18
X180.79Y-77.07
X181.48Y-46.28
X181.61Y-52.83
X181.74Y-130.39
X181.78Y-68.58
X182.49Y-85.98
X182.61Y-80.86
X183.2Y-128.64
X183.44Y-41.78
X183.597Y-62.97
X183.73Y-68.62
X184.42Y-92.48
X185.87Y-87.06
X186.46Y-73.83
X187.56Y-72.4
X189.16Y-61.46
X189.16Y-65.34
X189.16Y-71.71
X190.55Y-58.72
X190.78Y-74.27
X191.84Y-124.59
X192.61Y-118.32
X192.68Y-103.21
X192.87Y-91.64
X193.0Y-130.35
X193.87Y-76.09
X197.89Y-59.05
X199.07Y-73.37
T2
X128.45Y-94.92
X130.45Y-94.92
X132.45Y-94.92
X134.45Y-94.92
X136.45Y-94.92
X138.45Y-94.92
X168.66Y-94.99
X170.66Y-94.99
X172.66Y-94.99
X174.66Y-94.99
X176.66Y-94.99
X178.66Y-94.99
T3
X128.01Y-69.71
X130.55Y-69.71
X133.09Y-69.71
X136.43Y-123.63
X138.93Y-123.63
X149.98Y-25.31
X149.98Y-27.85
X149.98Y-30.39
X151.27Y-43.66
X153.81Y-43.66
X156.35Y-43.66
X157.09Y-25.38
X157.09Y-27.92
X157.09Y-30.46
X175.54Y-69.635
X178.08Y-69.635
X180.62Y-69.635
X194.81Y-88.385
X197.35Y-88.385
X199.89Y-88.385
T4
X119.28Y-123.41
X119.28Y-125.41
X119.28Y-127.41
X119.36Y-94.97
X119.36Y-96.97
X119.36Y-98.97
X176.37Y-128.09
X178.91Y-128.09
T5
X105.22Y-83.65
X105.31Y-88.73
X106.82Y-77.94
X107.76Y-83.65
X107.85Y-88.73
X109.36Y-77.94
X110.3Y-83.65
X110.39Y-88.73
X112.84Y-83.65
X112.93Y-88.73
X115.38Y-83.65
X115.47Y-88.73
X115.98Y-78.34
X117.92Y-83.65
X118.01Y-88.73
X118.52Y-78.34
X132.33Y-52.75
X132.33Y-55.29
X132.59Y-61.92
X132.59Y-64.46
X136.504Y-42.336
X137.65Y-54.1
X137.65Y-56.64
X137.65Y-59.18
X137.65Y-61.72
X137.65Y-64.26
X137.65Y-66.8
X138.03Y-48.66
X138.3Y-40.54
X139.826Y-46.864
X141.622Y-45.068
X142.34Y-36.88
X143.08Y-113.65
X143.08Y-116.19
X143.08Y-126.35
X143.08Y-128.89
X143.418Y-43.272
X144.12Y-93.522
X144.12Y-108.762
X144.136Y-35.084
X144.75Y-48.54
X144.78Y-52.09
X144.78Y-69.87
X145.214Y-41.476
X146.66Y-93.522
X146.66Y-108.762
X147.01Y-39.68
X147.29Y-48.54
X147.32Y-52.09
X147.32Y-69.87
X149.2Y-93.522
X149.2Y-108.762
X149.83Y-48.54
X149.86Y-52.09
X149.86Y-69.87
X151.74Y-93.522
X151.74Y-108.762
X152.37Y-48.54
X152.4Y-52.09
X152.4Y-69.87
X154.28Y-93.522
X154.28Y-108.762
X154.91Y-48.54
X154.94Y-52.09
X154.94Y-69.87
X156.82Y-93.522
X156.82Y-108.762
X157.45Y-48.54
X157.48Y-52.09
X157.48Y-69.87
X159.36Y-93.522
X159.36Y-108.762
X159.99Y-48.54
X160.02Y-52.09
X160.02Y-69.87
X160.106Y-39.626
X161.874Y-34.074
X161.9Y-93.522
X161.9Y-108.762
X161.902Y-41.422
X162.53Y-48.54
X162.56Y-52.09
X162.56Y-69.87
X163.4Y-113.65
X163.4Y-116.19
X163.4Y-126.35
X163.4Y-128.89
X163.67Y-35.87
X163.698Y-43.218
X165.494Y-45.014
X167.29Y-46.81
X168.7Y-40.4
X169.086Y-48.606
X169.97Y-53.73
X169.97Y-56.27
X169.97Y-58.81
X169.97Y-61.35
X169.97Y-63.89
X169.97Y-66.43
X170.496Y-42.196
X175.12Y-61.84
X175.12Y-64.38
X175.3Y-52.672
X175.3Y-55.212
X188.03Y-78.47
X188.5Y-83.6
X190.57Y-78.47
X191.04Y-83.6
X193.58Y-83.6
X196.12Y-83.6
X197.19Y-78.23
X198.66Y-83.6
X199.73Y-78.23
X201.2Y-83.6
T6
X124.34Y-74.1
X124.34Y-89.34
X126.88Y-74.1
X126.88Y-89.34
X129.42Y-74.1
X129.42Y-89.34
X131.96Y-74.1
X131.96Y-89.34
X134.5Y-74.1
X134.5Y-89.34
X137.04Y-74.1
X137.04Y-89.34
X139.58Y-74.1
X139.58Y-89.34
X142.12Y-74.1
X142.12Y-89.34
X144.66Y-74.1
X144.66Y-89.34
X147.2Y-74.1
X147.2Y-89.34
X149.74Y-74.1
X149.74Y-89.34
X152.28Y-74.1
X152.28Y-89.34
X154.82Y-74.1
X154.82Y-89.34
X157.36Y-74.1
X157.36Y-89.34
X159.9Y-74.1
X159.9Y-89.34
X162.44Y-74.1
X162.44Y-89.34
X164.98Y-74.1
X164.98Y-89.34
X167.52Y-74.1
X167.52Y-89.34
X170.06Y-74.1
X170.06Y-89.34
X172.6Y-74.1
X172.6Y-89.34
X175.14Y-74.1
X175.14Y-89.34
X177.68Y-74.1
X177.68Y-89.34
X180.22Y-74.1
X180.22Y-89.34
X182.76Y-74.1
X182.76Y-89.34
T7
X188.86Y-86.85
X188.86Y-102.09
T8
X119.28Y-121.31
X119.28Y-129.51
X119.36Y-92.87
X119.36Y-101.07
T9
X126.72Y-126.58
X131.72Y-126.58
T10
X127.175Y-101.585
X127.175Y-119.505
X133.175Y-101.585
X133.175Y-119.495
X153.75Y-20.56
X153.75Y-35.56
X173.47Y-101.62
X173.47Y-119.5
X179.47Y-101.64
X179.47Y-119.53
M30
