M48
; DRILL file KiCad 10.0.1 date 2026-05-21T23:34:04
; FORMAT={-:-/ absolute / metric / decimal}
; #@! TF.CreationDate,2026-05-21T23:34:04+05:30
; #@! TF.GenerationSoftware,Kicad,Pcbnew,10.0.1
; #@! TF.FileFunction,Plated,1,2,PTH
FMAT,2
METRIC
; #@! TA.AperFunction,Plated,PTH,ViaDrill
T1C0.400
; #@! TA.AperFunction,Plated,PTH,ComponentDrill
T2C0.750
; #@! TA.AperFunction,Plated,PTH,ComponentDrill
T3C0.800
; #@! TA.AperFunction,Plated,PTH,ComponentDrill
T4C0.900
; #@! TA.AperFunction,Plated,PTH,ComponentDrill
T5C1.000
; #@! TA.AperFunction,Plated,PTH,ComponentDrill
T6C1.016
; #@! TA.AperFunction,Plated,PTH,ComponentDrill
T7C1.040
; #@! TA.AperFunction,Plated,PTH,ComponentDrill
T8C1.200
; #@! TA.AperFunction,Plated,PTH,ComponentDrill
T9C1.500
; #@! TA.AperFunction,Plated,PTH,ComponentDrill
T10C1.800
%
G90
G05
T1
X106.12Y-90.99
X109.09Y-73.47
X112.19Y-73.47
X114.12Y-130.25
X114.14Y-103.38
X114.21Y-117.6
X114.24Y-61.71
X114.28Y-91.81
X116.26Y-77.05
X118.227Y-73.76
X120.12Y-81.31
X121.2Y-51.13
X125.19Y-70.92
X126.97Y-62.85
X127.45Y-70.2
X129.89Y-62.73
X130.69Y-49.57
X131.06Y-83.78
X131.66Y-78.36
X131.95Y-82.23
X133.12Y-44.34
X133.64Y-77.02
X133.67Y-79.79
X133.91Y-85.74
X134.18Y-61.71
X135.55Y-77.02
X135.6Y-79.77
X136.36Y-85.71
X137.63Y-79.81
X137.67Y-77.11
X138.56Y-85.74
X140.21Y-36.72
X140.99Y-83.58
X140.99Y-85.74
X141.04Y-65.0
X141.29Y-110.76
X142.09Y-80.015
X142.76Y-83.53
X142.76Y-85.71
X142.87Y-60.89
X144.61Y-78.147
X144.63Y-129.27
X144.97Y-31.02
X145.13Y-86.41
X145.79Y-59.7
X147.24Y-78.167
X147.24Y-79.992
X147.49Y-86.39
X148.573Y-51.301
X149.2Y-41.5
X149.6Y-86.41
X149.71Y-78.26
X152.18Y-61.8
X152.25Y-72.18
X152.43Y-77.0
X152.46Y-83.49
X154.23Y-33.75
X154.47Y-76.98
X155.57Y-82.43
X156.66Y-77.01
X157.01Y-43.2
X158.16Y-87.11
X158.358Y-82.47
X159.94Y-65.28
X159.95Y-78.89
X160.2Y-129.44
X160.555Y-98.855
X160.9Y-62.75
X161.01Y-87.14
X161.88Y-106.36
X162.11Y-123.716
X162.39Y-78.88
X162.51Y-30.99
X162.58Y-66.2
X164.35Y-59.1
X164.74Y-111.11
X166.25Y-123.716
X166.26Y-60.12
X166.56Y-37.06
X166.93Y-70.01
X167.0Y-67.26
X167.29Y-77.46
X167.755Y-109.945
X168.51Y-85.41
X169.67Y-98.88
X170.11Y-84.45
X170.14Y-79.83
X170.466Y-70.79
X170.54Y-123.682
X171.08Y-76.29
X171.43Y-47.28
X171.75Y-113.93
X171.975Y-70.475
X172.535Y-71.775
X172.64Y-84.43
X172.64Y-86.35
X172.67Y-68.72
X172.68Y-79.8
X172.8Y-91.37
X173.34Y-77.15
X174.1Y-44.64
X174.675Y-48.09
X174.675Y-50.33
X175.77Y-84.45
X175.78Y-79.75
X176.02Y-47.87
X176.51Y-61.57
X176.54Y-67.62
X177.38Y-77.82
X178.91Y-122.69
X179.05Y-52.2
X179.55Y-85.96
X179.59Y-77.1
X180.36Y-112.39
X180.59Y-124.54
X181.17Y-77.1
X181.29Y-85.93
X181.74Y-130.39
X181.78Y-68.58
X183.2Y-128.64
X183.28Y-48.59
X183.73Y-68.62
X184.42Y-92.48
X185.12Y-80.85
X185.87Y-87.06
X187.56Y-72.4
X189.16Y-62.1
X189.16Y-66.41
X189.16Y-71.99
X190.12Y-77.15
X190.78Y-74.27
X191.84Y-124.59
X191.86Y-61.03
X192.61Y-118.32
X192.68Y-103.21
X193.0Y-130.35
X198.27Y-74.39
X200.78Y-90.75
X200.85Y-80.25
T2
X128.45Y-94.92
X130.45Y-94.92
X132.45Y-94.92
X134.45Y-94.92
X136.45Y-94.92
X138.45Y-94.92
X168.66Y-94.99
X170.66Y-94.99
X172.66Y-94.99
X174.66Y-94.99
X176.66Y-94.99
X178.66Y-94.99
T3
X136.43Y-123.63
X138.93Y-123.63
T4
X119.28Y-123.41
X119.28Y-125.41
X119.28Y-127.41
X119.36Y-94.97
X119.36Y-96.97
X119.36Y-98.97
X176.37Y-128.09
X178.91Y-128.09
T5
X107.05Y-89.14
X107.09Y-83.49
X109.59Y-89.14
X109.63Y-83.49
X109.96Y-78.24
X112.13Y-89.14
X112.17Y-83.49
X112.5Y-78.24
X114.67Y-89.14
X114.71Y-83.49
X117.21Y-89.14
X117.25Y-83.49
X119.75Y-89.14
X119.79Y-83.49
X132.51Y-55.52
X132.51Y-58.06
X136.584Y-42.076
X137.65Y-54.1
X137.65Y-56.64
X137.65Y-59.18
X137.65Y-61.72
X137.65Y-64.26
X137.65Y-66.8
X138.03Y-48.66
X138.38Y-40.28
X139.826Y-46.864
X141.622Y-45.068
X143.08Y-113.65
X143.08Y-116.19
X143.08Y-126.35
X143.08Y-128.89
X143.418Y-43.272
X144.12Y-93.522
X144.12Y-108.762
X144.75Y-48.54
X144.78Y-52.09
X144.78Y-69.87
X145.214Y-41.476
X146.66Y-93.522
X146.66Y-108.762
X147.01Y-39.68
X147.29Y-48.54
X147.32Y-52.09
X147.32Y-69.87
X149.2Y-93.522
X149.2Y-108.762
X149.83Y-48.54
X149.86Y-52.09
X149.86Y-69.87
X151.74Y-93.522
X151.74Y-108.762
X152.37Y-48.54
X152.4Y-52.09
X152.4Y-69.87
X154.28Y-93.522
X154.28Y-108.762
X154.91Y-48.54
X154.94Y-52.09
X154.94Y-69.87
X156.82Y-93.522
X156.82Y-108.762
X157.45Y-48.54
X157.48Y-52.09
X157.48Y-69.87
X159.36Y-93.522
X159.36Y-108.762
X159.99Y-48.54
X160.02Y-52.09
X160.02Y-69.87
X160.106Y-39.626
X161.9Y-93.522
X161.9Y-108.762
X161.902Y-41.422
X162.53Y-48.54
X162.56Y-52.09
X162.56Y-69.87
X163.4Y-113.65
X163.4Y-116.19
X163.4Y-126.35
X163.4Y-128.89
X163.698Y-43.218
X165.494Y-45.014
X167.29Y-46.81
X168.7Y-40.4
X169.086Y-48.606
X169.97Y-53.73
X169.97Y-56.27
X169.97Y-58.81
X169.97Y-61.35
X169.97Y-63.89
X169.97Y-66.43
X170.496Y-42.196
X175.34Y-55.2
X175.34Y-57.74
X186.44Y-83.49
X188.98Y-83.49
X191.52Y-83.49
X193.82Y-78.0
X194.06Y-83.49
X196.36Y-78.0
X196.6Y-83.49
X199.14Y-83.49
T6
X124.34Y-74.1
X124.34Y-89.34
X126.88Y-74.1
X126.88Y-89.34
X129.42Y-74.1
X129.42Y-89.34
X131.96Y-74.1
X131.96Y-89.34
X134.5Y-74.1
X134.5Y-89.34
X137.04Y-74.1
X137.04Y-89.34
X139.58Y-74.1
X139.58Y-89.34
X142.12Y-74.1
X142.12Y-89.34
X144.66Y-74.1
X144.66Y-89.34
X147.2Y-74.1
X147.2Y-89.34
X149.74Y-74.1
X149.74Y-89.34
X152.28Y-74.1
X152.28Y-89.34
X154.82Y-74.1
X154.82Y-89.34
X157.36Y-74.1
X157.36Y-89.34
X159.9Y-74.1
X159.9Y-89.34
X162.44Y-74.1
X162.44Y-89.34
X164.98Y-74.1
X164.98Y-89.34
X167.52Y-74.1
X167.52Y-89.34
X170.06Y-74.1
X170.06Y-89.34
X172.6Y-74.1
X172.6Y-89.34
X175.14Y-74.1
X175.14Y-89.34
X177.68Y-74.1
X177.68Y-89.34
X180.22Y-74.1
X180.22Y-89.34
X182.76Y-74.1
X182.76Y-89.34
T7
X117.23Y-78.92
X119.77Y-78.92
X133.11Y-63.29
X133.11Y-65.83
X142.852Y-37.398
X144.648Y-35.602
X162.852Y-35.602
X164.648Y-37.398
X174.7Y-62.97
X174.7Y-65.51
X186.49Y-78.9
X189.03Y-78.9
T8
X188.86Y-86.85
X188.86Y-102.09
T9
X119.28Y-121.31
X119.28Y-129.51
X119.36Y-92.87
X119.36Y-101.07
T10
X126.72Y-126.58
X131.72Y-126.58
M30
