%TF.GenerationSoftware,KiCad,Pcbnew,10.0.1*%
%TF.CreationDate,2026-05-27T16:14:29+05:30*%
%TF.ProjectId,HSM_Project,48534d5f-5072-46f6-9a65-63742e6b6963,rev?*%
%TF.SameCoordinates,Original*%
%TF.FileFunction,Legend,Bot*%
%TF.FilePolarity,Positive*%
%FSLAX46Y46*%
G04 Gerber Fmt 4.6, Leading zero omitted, Abs format (unit mm)*
G04 Created by KiCad (PCBNEW 10.0.1) date 2026-05-27 16:14:29*
%MOMM*%
%LPD*%
G01*
G04 APERTURE LIST*
%ADD10C,0.150000*%
%ADD11C,0.120000*%
G04 APERTURE END LIST*
D10*
X176360000Y-105100000D02*
X191185000Y-105100000D01*
X191185000Y-116220000D01*
X176360000Y-116220000D01*
X176360000Y-105100000D01*
X190161792Y-106554748D02*
X190209411Y-106602368D01*
X190209411Y-106602368D02*
X190352268Y-106649987D01*
X190352268Y-106649987D02*
X190447506Y-106649987D01*
X190447506Y-106649987D02*
X190590363Y-106602368D01*
X190590363Y-106602368D02*
X190685601Y-106507129D01*
X190685601Y-106507129D02*
X190733220Y-106411891D01*
X190733220Y-106411891D02*
X190780839Y-106221415D01*
X190780839Y-106221415D02*
X190780839Y-106078558D01*
X190780839Y-106078558D02*
X190733220Y-105888082D01*
X190733220Y-105888082D02*
X190685601Y-105792844D01*
X190685601Y-105792844D02*
X190590363Y-105697606D01*
X190590363Y-105697606D02*
X190447506Y-105649987D01*
X190447506Y-105649987D02*
X190352268Y-105649987D01*
X190352268Y-105649987D02*
X190209411Y-105697606D01*
X190209411Y-105697606D02*
X190161792Y-105745225D01*
X189542744Y-105649987D02*
X189352268Y-105649987D01*
X189352268Y-105649987D02*
X189257030Y-105697606D01*
X189257030Y-105697606D02*
X189161792Y-105792844D01*
X189161792Y-105792844D02*
X189114173Y-105983320D01*
X189114173Y-105983320D02*
X189114173Y-106316653D01*
X189114173Y-106316653D02*
X189161792Y-106507129D01*
X189161792Y-106507129D02*
X189257030Y-106602368D01*
X189257030Y-106602368D02*
X189352268Y-106649987D01*
X189352268Y-106649987D02*
X189542744Y-106649987D01*
X189542744Y-106649987D02*
X189637982Y-106602368D01*
X189637982Y-106602368D02*
X189733220Y-106507129D01*
X189733220Y-106507129D02*
X189780839Y-106316653D01*
X189780839Y-106316653D02*
X189780839Y-105983320D01*
X189780839Y-105983320D02*
X189733220Y-105792844D01*
X189733220Y-105792844D02*
X189637982Y-105697606D01*
X189637982Y-105697606D02*
X189542744Y-105649987D01*
X188685601Y-106649987D02*
X188685601Y-105649987D01*
X188685601Y-105649987D02*
X188114173Y-106649987D01*
X188114173Y-106649987D02*
X188114173Y-105649987D01*
X187780839Y-105649987D02*
X187209411Y-105649987D01*
X187495125Y-106649987D02*
X187495125Y-105649987D01*
X186304649Y-106649987D02*
X186637982Y-106173796D01*
X186876077Y-106649987D02*
X186876077Y-105649987D01*
X186876077Y-105649987D02*
X186495125Y-105649987D01*
X186495125Y-105649987D02*
X186399887Y-105697606D01*
X186399887Y-105697606D02*
X186352268Y-105745225D01*
X186352268Y-105745225D02*
X186304649Y-105840463D01*
X186304649Y-105840463D02*
X186304649Y-105983320D01*
X186304649Y-105983320D02*
X186352268Y-106078558D01*
X186352268Y-106078558D02*
X186399887Y-106126177D01*
X186399887Y-106126177D02*
X186495125Y-106173796D01*
X186495125Y-106173796D02*
X186876077Y-106173796D01*
X185876077Y-106649987D02*
X185876077Y-105649987D01*
X185066554Y-106126177D02*
X184923697Y-106173796D01*
X184923697Y-106173796D02*
X184876078Y-106221415D01*
X184876078Y-106221415D02*
X184828459Y-106316653D01*
X184828459Y-106316653D02*
X184828459Y-106459510D01*
X184828459Y-106459510D02*
X184876078Y-106554748D01*
X184876078Y-106554748D02*
X184923697Y-106602368D01*
X184923697Y-106602368D02*
X185018935Y-106649987D01*
X185018935Y-106649987D02*
X185399887Y-106649987D01*
X185399887Y-106649987D02*
X185399887Y-105649987D01*
X185399887Y-105649987D02*
X185066554Y-105649987D01*
X185066554Y-105649987D02*
X184971316Y-105697606D01*
X184971316Y-105697606D02*
X184923697Y-105745225D01*
X184923697Y-105745225D02*
X184876078Y-105840463D01*
X184876078Y-105840463D02*
X184876078Y-105935701D01*
X184876078Y-105935701D02*
X184923697Y-106030939D01*
X184923697Y-106030939D02*
X184971316Y-106078558D01*
X184971316Y-106078558D02*
X185066554Y-106126177D01*
X185066554Y-106126177D02*
X185399887Y-106126177D01*
X184399887Y-105649987D02*
X184399887Y-106459510D01*
X184399887Y-106459510D02*
X184352268Y-106554748D01*
X184352268Y-106554748D02*
X184304649Y-106602368D01*
X184304649Y-106602368D02*
X184209411Y-106649987D01*
X184209411Y-106649987D02*
X184018935Y-106649987D01*
X184018935Y-106649987D02*
X183923697Y-106602368D01*
X183923697Y-106602368D02*
X183876078Y-106554748D01*
X183876078Y-106554748D02*
X183828459Y-106459510D01*
X183828459Y-106459510D02*
X183828459Y-105649987D01*
X183495125Y-105649987D02*
X182923697Y-105649987D01*
X183209411Y-106649987D02*
X183209411Y-105649987D01*
X182399887Y-105649987D02*
X182209411Y-105649987D01*
X182209411Y-105649987D02*
X182114173Y-105697606D01*
X182114173Y-105697606D02*
X182018935Y-105792844D01*
X182018935Y-105792844D02*
X181971316Y-105983320D01*
X181971316Y-105983320D02*
X181971316Y-106316653D01*
X181971316Y-106316653D02*
X182018935Y-106507129D01*
X182018935Y-106507129D02*
X182114173Y-106602368D01*
X182114173Y-106602368D02*
X182209411Y-106649987D01*
X182209411Y-106649987D02*
X182399887Y-106649987D01*
X182399887Y-106649987D02*
X182495125Y-106602368D01*
X182495125Y-106602368D02*
X182590363Y-106507129D01*
X182590363Y-106507129D02*
X182637982Y-106316653D01*
X182637982Y-106316653D02*
X182637982Y-105983320D01*
X182637982Y-105983320D02*
X182590363Y-105792844D01*
X182590363Y-105792844D02*
X182495125Y-105697606D01*
X182495125Y-105697606D02*
X182399887Y-105649987D01*
X180971316Y-106649987D02*
X181304649Y-106173796D01*
X181542744Y-106649987D02*
X181542744Y-105649987D01*
X181542744Y-105649987D02*
X181161792Y-105649987D01*
X181161792Y-105649987D02*
X181066554Y-105697606D01*
X181066554Y-105697606D02*
X181018935Y-105745225D01*
X181018935Y-105745225D02*
X180971316Y-105840463D01*
X180971316Y-105840463D02*
X180971316Y-105983320D01*
X180971316Y-105983320D02*
X181018935Y-106078558D01*
X181018935Y-106078558D02*
X181066554Y-106126177D01*
X181066554Y-106126177D02*
X181161792Y-106173796D01*
X181161792Y-106173796D02*
X181542744Y-106173796D01*
X180590363Y-106602368D02*
X180447506Y-106649987D01*
X180447506Y-106649987D02*
X180209411Y-106649987D01*
X180209411Y-106649987D02*
X180114173Y-106602368D01*
X180114173Y-106602368D02*
X180066554Y-106554748D01*
X180066554Y-106554748D02*
X180018935Y-106459510D01*
X180018935Y-106459510D02*
X180018935Y-106364272D01*
X180018935Y-106364272D02*
X180066554Y-106269034D01*
X180066554Y-106269034D02*
X180114173Y-106221415D01*
X180114173Y-106221415D02*
X180209411Y-106173796D01*
X180209411Y-106173796D02*
X180399887Y-106126177D01*
X180399887Y-106126177D02*
X180495125Y-106078558D01*
X180495125Y-106078558D02*
X180542744Y-106030939D01*
X180542744Y-106030939D02*
X180590363Y-105935701D01*
X180590363Y-105935701D02*
X180590363Y-105840463D01*
X180590363Y-105840463D02*
X180542744Y-105745225D01*
X180542744Y-105745225D02*
X180495125Y-105697606D01*
X180495125Y-105697606D02*
X180399887Y-105649987D01*
X180399887Y-105649987D02*
X180161792Y-105649987D01*
X180161792Y-105649987D02*
X180018935Y-105697606D01*
X179590363Y-106554748D02*
X179542744Y-106602368D01*
X179542744Y-106602368D02*
X179590363Y-106649987D01*
X179590363Y-106649987D02*
X179637982Y-106602368D01*
X179637982Y-106602368D02*
X179590363Y-106554748D01*
X179590363Y-106554748D02*
X179590363Y-106649987D01*
X179590363Y-106030939D02*
X179542744Y-106078558D01*
X179542744Y-106078558D02*
X179590363Y-106126177D01*
X179590363Y-106126177D02*
X179637982Y-106078558D01*
X179637982Y-106078558D02*
X179590363Y-106030939D01*
X179590363Y-106030939D02*
X179590363Y-106126177D01*
X190733220Y-108259931D02*
X190733220Y-107259931D01*
X190733220Y-107259931D02*
X190495125Y-107259931D01*
X190495125Y-107259931D02*
X190352268Y-107307550D01*
X190352268Y-107307550D02*
X190257030Y-107402788D01*
X190257030Y-107402788D02*
X190209411Y-107498026D01*
X190209411Y-107498026D02*
X190161792Y-107688502D01*
X190161792Y-107688502D02*
X190161792Y-107831359D01*
X190161792Y-107831359D02*
X190209411Y-108021835D01*
X190209411Y-108021835D02*
X190257030Y-108117073D01*
X190257030Y-108117073D02*
X190352268Y-108212312D01*
X190352268Y-108212312D02*
X190495125Y-108259931D01*
X190495125Y-108259931D02*
X190733220Y-108259931D01*
X189780839Y-107974216D02*
X189304649Y-107974216D01*
X189876077Y-108259931D02*
X189542744Y-107259931D01*
X189542744Y-107259931D02*
X189209411Y-108259931D01*
X188876077Y-108259931D02*
X188876077Y-107259931D01*
X188542744Y-107259931D02*
X188209411Y-108259931D01*
X188209411Y-108259931D02*
X187876078Y-107259931D01*
X187542744Y-108259931D02*
X187542744Y-107259931D01*
X187066554Y-108259931D02*
X187066554Y-107259931D01*
X186495126Y-108259931D02*
X186923697Y-107688502D01*
X186495126Y-107259931D02*
X187066554Y-107831359D01*
X185304649Y-108259931D02*
X185304649Y-107259931D01*
X185304649Y-107259931D02*
X184733221Y-108259931D01*
X184733221Y-108259931D02*
X184733221Y-107259931D01*
X184257030Y-107736121D02*
X183923697Y-107736121D01*
X183780840Y-108259931D02*
X184257030Y-108259931D01*
X184257030Y-108259931D02*
X184257030Y-107259931D01*
X184257030Y-107259931D02*
X183780840Y-107259931D01*
X183161792Y-107259931D02*
X182971316Y-107259931D01*
X182971316Y-107259931D02*
X182876078Y-107307550D01*
X182876078Y-107307550D02*
X182780840Y-107402788D01*
X182780840Y-107402788D02*
X182733221Y-107593264D01*
X182733221Y-107593264D02*
X182733221Y-107926597D01*
X182733221Y-107926597D02*
X182780840Y-108117073D01*
X182780840Y-108117073D02*
X182876078Y-108212312D01*
X182876078Y-108212312D02*
X182971316Y-108259931D01*
X182971316Y-108259931D02*
X183161792Y-108259931D01*
X183161792Y-108259931D02*
X183257030Y-108212312D01*
X183257030Y-108212312D02*
X183352268Y-108117073D01*
X183352268Y-108117073D02*
X183399887Y-107926597D01*
X183399887Y-107926597D02*
X183399887Y-107593264D01*
X183399887Y-107593264D02*
X183352268Y-107402788D01*
X183352268Y-107402788D02*
X183257030Y-107307550D01*
X183257030Y-107307550D02*
X183161792Y-107259931D01*
X181780840Y-107307550D02*
X181876078Y-107259931D01*
X181876078Y-107259931D02*
X182018935Y-107259931D01*
X182018935Y-107259931D02*
X182161792Y-107307550D01*
X182161792Y-107307550D02*
X182257030Y-107402788D01*
X182257030Y-107402788D02*
X182304649Y-107498026D01*
X182304649Y-107498026D02*
X182352268Y-107688502D01*
X182352268Y-107688502D02*
X182352268Y-107831359D01*
X182352268Y-107831359D02*
X182304649Y-108021835D01*
X182304649Y-108021835D02*
X182257030Y-108117073D01*
X182257030Y-108117073D02*
X182161792Y-108212312D01*
X182161792Y-108212312D02*
X182018935Y-108259931D01*
X182018935Y-108259931D02*
X181923697Y-108259931D01*
X181923697Y-108259931D02*
X181780840Y-108212312D01*
X181780840Y-108212312D02*
X181733221Y-108164692D01*
X181733221Y-108164692D02*
X181733221Y-107831359D01*
X181733221Y-107831359D02*
X181923697Y-107831359D01*
X181304649Y-108259931D02*
X181304649Y-107259931D01*
X190780839Y-109822256D02*
X190637982Y-109869875D01*
X190637982Y-109869875D02*
X190399887Y-109869875D01*
X190399887Y-109869875D02*
X190304649Y-109822256D01*
X190304649Y-109822256D02*
X190257030Y-109774636D01*
X190257030Y-109774636D02*
X190209411Y-109679398D01*
X190209411Y-109679398D02*
X190209411Y-109584160D01*
X190209411Y-109584160D02*
X190257030Y-109488922D01*
X190257030Y-109488922D02*
X190304649Y-109441303D01*
X190304649Y-109441303D02*
X190399887Y-109393684D01*
X190399887Y-109393684D02*
X190590363Y-109346065D01*
X190590363Y-109346065D02*
X190685601Y-109298446D01*
X190685601Y-109298446D02*
X190733220Y-109250827D01*
X190733220Y-109250827D02*
X190780839Y-109155589D01*
X190780839Y-109155589D02*
X190780839Y-109060351D01*
X190780839Y-109060351D02*
X190733220Y-108965113D01*
X190733220Y-108965113D02*
X190685601Y-108917494D01*
X190685601Y-108917494D02*
X190590363Y-108869875D01*
X190590363Y-108869875D02*
X190352268Y-108869875D01*
X190352268Y-108869875D02*
X190209411Y-108917494D01*
X189780839Y-108869875D02*
X189780839Y-109679398D01*
X189780839Y-109679398D02*
X189733220Y-109774636D01*
X189733220Y-109774636D02*
X189685601Y-109822256D01*
X189685601Y-109822256D02*
X189590363Y-109869875D01*
X189590363Y-109869875D02*
X189399887Y-109869875D01*
X189399887Y-109869875D02*
X189304649Y-109822256D01*
X189304649Y-109822256D02*
X189257030Y-109774636D01*
X189257030Y-109774636D02*
X189209411Y-109679398D01*
X189209411Y-109679398D02*
X189209411Y-108869875D01*
X188876077Y-108869875D02*
X188304649Y-108869875D01*
X188590363Y-109869875D02*
X188590363Y-108869875D01*
X187971315Y-109346065D02*
X187637982Y-109346065D01*
X187495125Y-109869875D02*
X187971315Y-109869875D01*
X187971315Y-109869875D02*
X187971315Y-108869875D01*
X187971315Y-108869875D02*
X187495125Y-108869875D01*
X186780839Y-108869875D02*
X186780839Y-109584160D01*
X186780839Y-109584160D02*
X186828458Y-109727017D01*
X186828458Y-109727017D02*
X186923696Y-109822256D01*
X186923696Y-109822256D02*
X187066553Y-109869875D01*
X187066553Y-109869875D02*
X187161791Y-109869875D01*
X185590362Y-109822256D02*
X185447505Y-109869875D01*
X185447505Y-109869875D02*
X185209410Y-109869875D01*
X185209410Y-109869875D02*
X185114172Y-109822256D01*
X185114172Y-109822256D02*
X185066553Y-109774636D01*
X185066553Y-109774636D02*
X185018934Y-109679398D01*
X185018934Y-109679398D02*
X185018934Y-109584160D01*
X185018934Y-109584160D02*
X185066553Y-109488922D01*
X185066553Y-109488922D02*
X185114172Y-109441303D01*
X185114172Y-109441303D02*
X185209410Y-109393684D01*
X185209410Y-109393684D02*
X185399886Y-109346065D01*
X185399886Y-109346065D02*
X185495124Y-109298446D01*
X185495124Y-109298446D02*
X185542743Y-109250827D01*
X185542743Y-109250827D02*
X185590362Y-109155589D01*
X185590362Y-109155589D02*
X185590362Y-109060351D01*
X185590362Y-109060351D02*
X185542743Y-108965113D01*
X185542743Y-108965113D02*
X185495124Y-108917494D01*
X185495124Y-108917494D02*
X185399886Y-108869875D01*
X185399886Y-108869875D02*
X185161791Y-108869875D01*
X185161791Y-108869875D02*
X185018934Y-108917494D01*
X184590362Y-109869875D02*
X184590362Y-108869875D01*
X184590362Y-109346065D02*
X184018934Y-109346065D01*
X184018934Y-109869875D02*
X184018934Y-108869875D01*
X183542743Y-109346065D02*
X183209410Y-109346065D01*
X183066553Y-109869875D02*
X183542743Y-109869875D01*
X183542743Y-109869875D02*
X183542743Y-108869875D01*
X183542743Y-108869875D02*
X183066553Y-108869875D01*
X182780838Y-108869875D02*
X182209410Y-108869875D01*
X182495124Y-109869875D02*
X182495124Y-108869875D01*
X182018933Y-108869875D02*
X181447505Y-108869875D01*
X181733219Y-109869875D02*
X181733219Y-108869875D01*
X180923695Y-109393684D02*
X180923695Y-109869875D01*
X181257028Y-108869875D02*
X180923695Y-109393684D01*
X180923695Y-109393684D02*
X180590362Y-108869875D01*
X190733220Y-111479819D02*
X190733220Y-110479819D01*
X190161792Y-111479819D02*
X190590363Y-110908390D01*
X190161792Y-110479819D02*
X190733220Y-111051247D01*
X189780839Y-111194104D02*
X189304649Y-111194104D01*
X189876077Y-111479819D02*
X189542744Y-110479819D01*
X189542744Y-110479819D02*
X189209411Y-111479819D01*
X188876077Y-111479819D02*
X188876077Y-110479819D01*
X188876077Y-110479819D02*
X188495125Y-110479819D01*
X188495125Y-110479819D02*
X188399887Y-110527438D01*
X188399887Y-110527438D02*
X188352268Y-110575057D01*
X188352268Y-110575057D02*
X188304649Y-110670295D01*
X188304649Y-110670295D02*
X188304649Y-110813152D01*
X188304649Y-110813152D02*
X188352268Y-110908390D01*
X188352268Y-110908390D02*
X188399887Y-110956009D01*
X188399887Y-110956009D02*
X188495125Y-111003628D01*
X188495125Y-111003628D02*
X188876077Y-111003628D01*
X187876077Y-111479819D02*
X187876077Y-110479819D01*
X186923697Y-111479819D02*
X187399887Y-111479819D01*
X187399887Y-111479819D02*
X187399887Y-110479819D01*
X186590363Y-111479819D02*
X186590363Y-110479819D01*
X186590363Y-110479819D02*
X186257030Y-111194104D01*
X186257030Y-111194104D02*
X185923697Y-110479819D01*
X185923697Y-110479819D02*
X185923697Y-111479819D01*
X185447506Y-110956009D02*
X185114173Y-110956009D01*
X184971316Y-111479819D02*
X185447506Y-111479819D01*
X185447506Y-111479819D02*
X185447506Y-110479819D01*
X185447506Y-110479819D02*
X184971316Y-110479819D01*
X184542744Y-110956009D02*
X184209411Y-110956009D01*
X184066554Y-111479819D02*
X184542744Y-111479819D01*
X184542744Y-111479819D02*
X184542744Y-110479819D01*
X184542744Y-110479819D02*
X184066554Y-110479819D01*
X183780839Y-110479819D02*
X183209411Y-110479819D01*
X183495125Y-111479819D02*
X183495125Y-110479819D01*
X182161791Y-111432200D02*
X182018934Y-111479819D01*
X182018934Y-111479819D02*
X181780839Y-111479819D01*
X181780839Y-111479819D02*
X181685601Y-111432200D01*
X181685601Y-111432200D02*
X181637982Y-111384580D01*
X181637982Y-111384580D02*
X181590363Y-111289342D01*
X181590363Y-111289342D02*
X181590363Y-111194104D01*
X181590363Y-111194104D02*
X181637982Y-111098866D01*
X181637982Y-111098866D02*
X181685601Y-111051247D01*
X181685601Y-111051247D02*
X181780839Y-111003628D01*
X181780839Y-111003628D02*
X181971315Y-110956009D01*
X181971315Y-110956009D02*
X182066553Y-110908390D01*
X182066553Y-110908390D02*
X182114172Y-110860771D01*
X182114172Y-110860771D02*
X182161791Y-110765533D01*
X182161791Y-110765533D02*
X182161791Y-110670295D01*
X182161791Y-110670295D02*
X182114172Y-110575057D01*
X182114172Y-110575057D02*
X182066553Y-110527438D01*
X182066553Y-110527438D02*
X181971315Y-110479819D01*
X181971315Y-110479819D02*
X181733220Y-110479819D01*
X181733220Y-110479819D02*
X181590363Y-110527438D01*
X181161791Y-111479819D02*
X181161791Y-110479819D01*
X180685601Y-111479819D02*
X180685601Y-110479819D01*
X180685601Y-110479819D02*
X180114173Y-111479819D01*
X180114173Y-111479819D02*
X180114173Y-110479819D01*
X179114173Y-110527438D02*
X179209411Y-110479819D01*
X179209411Y-110479819D02*
X179352268Y-110479819D01*
X179352268Y-110479819D02*
X179495125Y-110527438D01*
X179495125Y-110527438D02*
X179590363Y-110622676D01*
X179590363Y-110622676D02*
X179637982Y-110717914D01*
X179637982Y-110717914D02*
X179685601Y-110908390D01*
X179685601Y-110908390D02*
X179685601Y-111051247D01*
X179685601Y-111051247D02*
X179637982Y-111241723D01*
X179637982Y-111241723D02*
X179590363Y-111336961D01*
X179590363Y-111336961D02*
X179495125Y-111432200D01*
X179495125Y-111432200D02*
X179352268Y-111479819D01*
X179352268Y-111479819D02*
X179257030Y-111479819D01*
X179257030Y-111479819D02*
X179114173Y-111432200D01*
X179114173Y-111432200D02*
X179066554Y-111384580D01*
X179066554Y-111384580D02*
X179066554Y-111051247D01*
X179066554Y-111051247D02*
X179257030Y-111051247D01*
X178637982Y-111479819D02*
X178637982Y-110479819D01*
X178637982Y-110956009D02*
X178066554Y-110956009D01*
X178066554Y-111479819D02*
X178066554Y-110479819D01*
X190833220Y-114439875D02*
X190833220Y-113439875D01*
X190833220Y-113439875D02*
X190595125Y-113439875D01*
X190595125Y-113439875D02*
X190452268Y-113487494D01*
X190452268Y-113487494D02*
X190357030Y-113582732D01*
X190357030Y-113582732D02*
X190309411Y-113677970D01*
X190309411Y-113677970D02*
X190261792Y-113868446D01*
X190261792Y-113868446D02*
X190261792Y-114011303D01*
X190261792Y-114011303D02*
X190309411Y-114201779D01*
X190309411Y-114201779D02*
X190357030Y-114297017D01*
X190357030Y-114297017D02*
X190452268Y-114392256D01*
X190452268Y-114392256D02*
X190595125Y-114439875D01*
X190595125Y-114439875D02*
X190833220Y-114439875D01*
X189833220Y-113916065D02*
X189499887Y-113916065D01*
X189357030Y-114439875D02*
X189833220Y-114439875D01*
X189833220Y-114439875D02*
X189833220Y-113439875D01*
X189833220Y-113439875D02*
X189357030Y-113439875D01*
X188976077Y-114392256D02*
X188833220Y-114439875D01*
X188833220Y-114439875D02*
X188595125Y-114439875D01*
X188595125Y-114439875D02*
X188499887Y-114392256D01*
X188499887Y-114392256D02*
X188452268Y-114344636D01*
X188452268Y-114344636D02*
X188404649Y-114249398D01*
X188404649Y-114249398D02*
X188404649Y-114154160D01*
X188404649Y-114154160D02*
X188452268Y-114058922D01*
X188452268Y-114058922D02*
X188499887Y-114011303D01*
X188499887Y-114011303D02*
X188595125Y-113963684D01*
X188595125Y-113963684D02*
X188785601Y-113916065D01*
X188785601Y-113916065D02*
X188880839Y-113868446D01*
X188880839Y-113868446D02*
X188928458Y-113820827D01*
X188928458Y-113820827D02*
X188976077Y-113725589D01*
X188976077Y-113725589D02*
X188976077Y-113630351D01*
X188976077Y-113630351D02*
X188928458Y-113535113D01*
X188928458Y-113535113D02*
X188880839Y-113487494D01*
X188880839Y-113487494D02*
X188785601Y-113439875D01*
X188785601Y-113439875D02*
X188547506Y-113439875D01*
X188547506Y-113439875D02*
X188404649Y-113487494D01*
X187976077Y-114439875D02*
X187976077Y-113439875D01*
X186976078Y-113487494D02*
X187071316Y-113439875D01*
X187071316Y-113439875D02*
X187214173Y-113439875D01*
X187214173Y-113439875D02*
X187357030Y-113487494D01*
X187357030Y-113487494D02*
X187452268Y-113582732D01*
X187452268Y-113582732D02*
X187499887Y-113677970D01*
X187499887Y-113677970D02*
X187547506Y-113868446D01*
X187547506Y-113868446D02*
X187547506Y-114011303D01*
X187547506Y-114011303D02*
X187499887Y-114201779D01*
X187499887Y-114201779D02*
X187452268Y-114297017D01*
X187452268Y-114297017D02*
X187357030Y-114392256D01*
X187357030Y-114392256D02*
X187214173Y-114439875D01*
X187214173Y-114439875D02*
X187118935Y-114439875D01*
X187118935Y-114439875D02*
X186976078Y-114392256D01*
X186976078Y-114392256D02*
X186928459Y-114344636D01*
X186928459Y-114344636D02*
X186928459Y-114011303D01*
X186928459Y-114011303D02*
X187118935Y-114011303D01*
X186499887Y-114439875D02*
X186499887Y-113439875D01*
X186499887Y-113439875D02*
X185928459Y-114439875D01*
X185928459Y-114439875D02*
X185928459Y-113439875D01*
X185452268Y-113916065D02*
X185118935Y-113916065D01*
X184976078Y-114439875D02*
X185452268Y-114439875D01*
X185452268Y-114439875D02*
X185452268Y-113439875D01*
X185452268Y-113439875D02*
X184976078Y-113439875D01*
X184547506Y-114439875D02*
X184547506Y-113439875D01*
X184547506Y-113439875D02*
X184309411Y-113439875D01*
X184309411Y-113439875D02*
X184166554Y-113487494D01*
X184166554Y-113487494D02*
X184071316Y-113582732D01*
X184071316Y-113582732D02*
X184023697Y-113677970D01*
X184023697Y-113677970D02*
X183976078Y-113868446D01*
X183976078Y-113868446D02*
X183976078Y-114011303D01*
X183976078Y-114011303D02*
X184023697Y-114201779D01*
X184023697Y-114201779D02*
X184071316Y-114297017D01*
X184071316Y-114297017D02*
X184166554Y-114392256D01*
X184166554Y-114392256D02*
X184309411Y-114439875D01*
X184309411Y-114439875D02*
X184547506Y-114439875D01*
X190976077Y-115049819D02*
X190404649Y-115049819D01*
X190690363Y-116049819D02*
X190690363Y-115049819D01*
X190071315Y-116049819D02*
X190071315Y-115049819D01*
X189595125Y-116049819D02*
X189595125Y-115049819D01*
X189595125Y-115049819D02*
X189261792Y-115764104D01*
X189261792Y-115764104D02*
X188928459Y-115049819D01*
X188928459Y-115049819D02*
X188928459Y-116049819D01*
X188452268Y-115526009D02*
X188118935Y-115526009D01*
X187976078Y-116049819D02*
X188452268Y-116049819D01*
X188452268Y-116049819D02*
X188452268Y-115049819D01*
X188452268Y-115049819D02*
X187976078Y-115049819D01*
X187071316Y-116049819D02*
X187547506Y-116049819D01*
X187547506Y-116049819D02*
X187547506Y-115049819D01*
X186737982Y-116049819D02*
X186737982Y-115049819D01*
X186261792Y-116049819D02*
X186261792Y-115049819D01*
X186261792Y-115049819D02*
X185690364Y-116049819D01*
X185690364Y-116049819D02*
X185690364Y-115049819D01*
X185214173Y-115526009D02*
X184880840Y-115526009D01*
X184737983Y-116049819D02*
X185214173Y-116049819D01*
X185214173Y-116049819D02*
X185214173Y-115049819D01*
X185214173Y-115049819D02*
X184737983Y-115049819D01*
X184309411Y-115954580D02*
X184261792Y-116002200D01*
X184261792Y-116002200D02*
X184309411Y-116049819D01*
X184309411Y-116049819D02*
X184357030Y-116002200D01*
X184357030Y-116002200D02*
X184309411Y-115954580D01*
X184309411Y-115954580D02*
X184309411Y-116049819D01*
X184309411Y-115430771D02*
X184261792Y-115478390D01*
X184261792Y-115478390D02*
X184309411Y-115526009D01*
X184309411Y-115526009D02*
X184357030Y-115478390D01*
X184357030Y-115478390D02*
X184309411Y-115430771D01*
X184309411Y-115430771D02*
X184309411Y-115526009D01*
X183833221Y-116049819D02*
X183833221Y-115049819D01*
X183833221Y-115049819D02*
X183499888Y-115764104D01*
X183499888Y-115764104D02*
X183166555Y-115049819D01*
X183166555Y-115049819D02*
X183166555Y-116049819D01*
X182737983Y-115764104D02*
X182261793Y-115764104D01*
X182833221Y-116049819D02*
X182499888Y-115049819D01*
X182499888Y-115049819D02*
X182166555Y-116049819D01*
X181642745Y-115573628D02*
X181642745Y-116049819D01*
X181976078Y-115049819D02*
X181642745Y-115573628D01*
X181642745Y-115573628D02*
X181309412Y-115049819D01*
X180261792Y-115145057D02*
X180214173Y-115097438D01*
X180214173Y-115097438D02*
X180118935Y-115049819D01*
X180118935Y-115049819D02*
X179880840Y-115049819D01*
X179880840Y-115049819D02*
X179785602Y-115097438D01*
X179785602Y-115097438D02*
X179737983Y-115145057D01*
X179737983Y-115145057D02*
X179690364Y-115240295D01*
X179690364Y-115240295D02*
X179690364Y-115335533D01*
X179690364Y-115335533D02*
X179737983Y-115478390D01*
X179737983Y-115478390D02*
X180309411Y-116049819D01*
X180309411Y-116049819D02*
X179690364Y-116049819D01*
X179071316Y-115049819D02*
X178976078Y-115049819D01*
X178976078Y-115049819D02*
X178880840Y-115097438D01*
X178880840Y-115097438D02*
X178833221Y-115145057D01*
X178833221Y-115145057D02*
X178785602Y-115240295D01*
X178785602Y-115240295D02*
X178737983Y-115430771D01*
X178737983Y-115430771D02*
X178737983Y-115668866D01*
X178737983Y-115668866D02*
X178785602Y-115859342D01*
X178785602Y-115859342D02*
X178833221Y-115954580D01*
X178833221Y-115954580D02*
X178880840Y-116002200D01*
X178880840Y-116002200D02*
X178976078Y-116049819D01*
X178976078Y-116049819D02*
X179071316Y-116049819D01*
X179071316Y-116049819D02*
X179166554Y-116002200D01*
X179166554Y-116002200D02*
X179214173Y-115954580D01*
X179214173Y-115954580D02*
X179261792Y-115859342D01*
X179261792Y-115859342D02*
X179309411Y-115668866D01*
X179309411Y-115668866D02*
X179309411Y-115430771D01*
X179309411Y-115430771D02*
X179261792Y-115240295D01*
X179261792Y-115240295D02*
X179214173Y-115145057D01*
X179214173Y-115145057D02*
X179166554Y-115097438D01*
X179166554Y-115097438D02*
X179071316Y-115049819D01*
X178357030Y-115145057D02*
X178309411Y-115097438D01*
X178309411Y-115097438D02*
X178214173Y-115049819D01*
X178214173Y-115049819D02*
X177976078Y-115049819D01*
X177976078Y-115049819D02*
X177880840Y-115097438D01*
X177880840Y-115097438D02*
X177833221Y-115145057D01*
X177833221Y-115145057D02*
X177785602Y-115240295D01*
X177785602Y-115240295D02*
X177785602Y-115335533D01*
X177785602Y-115335533D02*
X177833221Y-115478390D01*
X177833221Y-115478390D02*
X178404649Y-116049819D01*
X178404649Y-116049819D02*
X177785602Y-116049819D01*
X176928459Y-115049819D02*
X177118935Y-115049819D01*
X177118935Y-115049819D02*
X177214173Y-115097438D01*
X177214173Y-115097438D02*
X177261792Y-115145057D01*
X177261792Y-115145057D02*
X177357030Y-115287914D01*
X177357030Y-115287914D02*
X177404649Y-115478390D01*
X177404649Y-115478390D02*
X177404649Y-115859342D01*
X177404649Y-115859342D02*
X177357030Y-115954580D01*
X177357030Y-115954580D02*
X177309411Y-116002200D01*
X177309411Y-116002200D02*
X177214173Y-116049819D01*
X177214173Y-116049819D02*
X177023697Y-116049819D01*
X177023697Y-116049819D02*
X176928459Y-116002200D01*
X176928459Y-116002200D02*
X176880840Y-115954580D01*
X176880840Y-115954580D02*
X176833221Y-115859342D01*
X176833221Y-115859342D02*
X176833221Y-115621247D01*
X176833221Y-115621247D02*
X176880840Y-115526009D01*
X176880840Y-115526009D02*
X176928459Y-115478390D01*
X176928459Y-115478390D02*
X177023697Y-115430771D01*
X177023697Y-115430771D02*
X177214173Y-115430771D01*
X177214173Y-115430771D02*
X177309411Y-115478390D01*
X177309411Y-115478390D02*
X177357030Y-115526009D01*
X177357030Y-115526009D02*
X177404649Y-115621247D01*
X188159166Y-51264819D02*
X188730594Y-51264819D01*
X188444880Y-51264819D02*
X188444880Y-50264819D01*
X188444880Y-50264819D02*
X188540118Y-50407676D01*
X188540118Y-50407676D02*
X188635356Y-50502914D01*
X188635356Y-50502914D02*
X188730594Y-50550533D01*
X187302023Y-50598152D02*
X187302023Y-51264819D01*
X187730594Y-50598152D02*
X187730594Y-51121961D01*
X187730594Y-51121961D02*
X187682975Y-51217200D01*
X187682975Y-51217200D02*
X187587737Y-51264819D01*
X187587737Y-51264819D02*
X187444880Y-51264819D01*
X187444880Y-51264819D02*
X187349642Y-51217200D01*
X187349642Y-51217200D02*
X187302023Y-51169580D01*
X167579047Y-101854819D02*
X168150475Y-101854819D01*
X167864761Y-101854819D02*
X167864761Y-100854819D01*
X167864761Y-100854819D02*
X167959999Y-100997676D01*
X167959999Y-100997676D02*
X168055237Y-101092914D01*
X168055237Y-101092914D02*
X168150475Y-101140533D01*
X166959999Y-100854819D02*
X166864761Y-100854819D01*
X166864761Y-100854819D02*
X166769523Y-100902438D01*
X166769523Y-100902438D02*
X166721904Y-100950057D01*
X166721904Y-100950057D02*
X166674285Y-101045295D01*
X166674285Y-101045295D02*
X166626666Y-101235771D01*
X166626666Y-101235771D02*
X166626666Y-101473866D01*
X166626666Y-101473866D02*
X166674285Y-101664342D01*
X166674285Y-101664342D02*
X166721904Y-101759580D01*
X166721904Y-101759580D02*
X166769523Y-101807200D01*
X166769523Y-101807200D02*
X166864761Y-101854819D01*
X166864761Y-101854819D02*
X166959999Y-101854819D01*
X166959999Y-101854819D02*
X167055237Y-101807200D01*
X167055237Y-101807200D02*
X167102856Y-101759580D01*
X167102856Y-101759580D02*
X167150475Y-101664342D01*
X167150475Y-101664342D02*
X167198094Y-101473866D01*
X167198094Y-101473866D02*
X167198094Y-101235771D01*
X167198094Y-101235771D02*
X167150475Y-101045295D01*
X167150475Y-101045295D02*
X167102856Y-100950057D01*
X167102856Y-100950057D02*
X167055237Y-100902438D01*
X167055237Y-100902438D02*
X166959999Y-100854819D01*
X166007618Y-100854819D02*
X165912380Y-100854819D01*
X165912380Y-100854819D02*
X165817142Y-100902438D01*
X165817142Y-100902438D02*
X165769523Y-100950057D01*
X165769523Y-100950057D02*
X165721904Y-101045295D01*
X165721904Y-101045295D02*
X165674285Y-101235771D01*
X165674285Y-101235771D02*
X165674285Y-101473866D01*
X165674285Y-101473866D02*
X165721904Y-101664342D01*
X165721904Y-101664342D02*
X165769523Y-101759580D01*
X165769523Y-101759580D02*
X165817142Y-101807200D01*
X165817142Y-101807200D02*
X165912380Y-101854819D01*
X165912380Y-101854819D02*
X166007618Y-101854819D01*
X166007618Y-101854819D02*
X166102856Y-101807200D01*
X166102856Y-101807200D02*
X166150475Y-101759580D01*
X166150475Y-101759580D02*
X166198094Y-101664342D01*
X166198094Y-101664342D02*
X166245713Y-101473866D01*
X166245713Y-101473866D02*
X166245713Y-101235771D01*
X166245713Y-101235771D02*
X166198094Y-101045295D01*
X166198094Y-101045295D02*
X166150475Y-100950057D01*
X166150475Y-100950057D02*
X166102856Y-100902438D01*
X166102856Y-100902438D02*
X166007618Y-100854819D01*
X165245713Y-101188152D02*
X165245713Y-101854819D01*
X165245713Y-101283390D02*
X165198094Y-101235771D01*
X165198094Y-101235771D02*
X165102856Y-101188152D01*
X165102856Y-101188152D02*
X164959999Y-101188152D01*
X164959999Y-101188152D02*
X164864761Y-101235771D01*
X164864761Y-101235771D02*
X164817142Y-101331009D01*
X164817142Y-101331009D02*
X164817142Y-101854819D01*
X190354819Y-122850952D02*
X190354819Y-122279524D01*
X190354819Y-122565238D02*
X189354819Y-122565238D01*
X189354819Y-122565238D02*
X189497676Y-122470000D01*
X189497676Y-122470000D02*
X189592914Y-122374762D01*
X189592914Y-122374762D02*
X189640533Y-122279524D01*
X189354819Y-123470000D02*
X189354819Y-123565238D01*
X189354819Y-123565238D02*
X189402438Y-123660476D01*
X189402438Y-123660476D02*
X189450057Y-123708095D01*
X189450057Y-123708095D02*
X189545295Y-123755714D01*
X189545295Y-123755714D02*
X189735771Y-123803333D01*
X189735771Y-123803333D02*
X189973866Y-123803333D01*
X189973866Y-123803333D02*
X190164342Y-123755714D01*
X190164342Y-123755714D02*
X190259580Y-123708095D01*
X190259580Y-123708095D02*
X190307200Y-123660476D01*
X190307200Y-123660476D02*
X190354819Y-123565238D01*
X190354819Y-123565238D02*
X190354819Y-123470000D01*
X190354819Y-123470000D02*
X190307200Y-123374762D01*
X190307200Y-123374762D02*
X190259580Y-123327143D01*
X190259580Y-123327143D02*
X190164342Y-123279524D01*
X190164342Y-123279524D02*
X189973866Y-123231905D01*
X189973866Y-123231905D02*
X189735771Y-123231905D01*
X189735771Y-123231905D02*
X189545295Y-123279524D01*
X189545295Y-123279524D02*
X189450057Y-123327143D01*
X189450057Y-123327143D02*
X189402438Y-123374762D01*
X189402438Y-123374762D02*
X189354819Y-123470000D01*
X189354819Y-124422381D02*
X189354819Y-124517619D01*
X189354819Y-124517619D02*
X189402438Y-124612857D01*
X189402438Y-124612857D02*
X189450057Y-124660476D01*
X189450057Y-124660476D02*
X189545295Y-124708095D01*
X189545295Y-124708095D02*
X189735771Y-124755714D01*
X189735771Y-124755714D02*
X189973866Y-124755714D01*
X189973866Y-124755714D02*
X190164342Y-124708095D01*
X190164342Y-124708095D02*
X190259580Y-124660476D01*
X190259580Y-124660476D02*
X190307200Y-124612857D01*
X190307200Y-124612857D02*
X190354819Y-124517619D01*
X190354819Y-124517619D02*
X190354819Y-124422381D01*
X190354819Y-124422381D02*
X190307200Y-124327143D01*
X190307200Y-124327143D02*
X190259580Y-124279524D01*
X190259580Y-124279524D02*
X190164342Y-124231905D01*
X190164342Y-124231905D02*
X189973866Y-124184286D01*
X189973866Y-124184286D02*
X189735771Y-124184286D01*
X189735771Y-124184286D02*
X189545295Y-124231905D01*
X189545295Y-124231905D02*
X189450057Y-124279524D01*
X189450057Y-124279524D02*
X189402438Y-124327143D01*
X189402438Y-124327143D02*
X189354819Y-124422381D01*
X189688152Y-125184286D02*
X190354819Y-125184286D01*
X189783390Y-125184286D02*
X189735771Y-125231905D01*
X189735771Y-125231905D02*
X189688152Y-125327143D01*
X189688152Y-125327143D02*
X189688152Y-125470000D01*
X189688152Y-125470000D02*
X189735771Y-125565238D01*
X189735771Y-125565238D02*
X189831009Y-125612857D01*
X189831009Y-125612857D02*
X190354819Y-125612857D01*
X188211666Y-53474819D02*
X188783094Y-53474819D01*
X188497380Y-53474819D02*
X188497380Y-52474819D01*
X188497380Y-52474819D02*
X188592618Y-52617676D01*
X188592618Y-52617676D02*
X188687856Y-52712914D01*
X188687856Y-52712914D02*
X188783094Y-52760533D01*
X187354523Y-52808152D02*
X187354523Y-53474819D01*
X187783094Y-52808152D02*
X187783094Y-53331961D01*
X187783094Y-53331961D02*
X187735475Y-53427200D01*
X187735475Y-53427200D02*
X187640237Y-53474819D01*
X187640237Y-53474819D02*
X187497380Y-53474819D01*
X187497380Y-53474819D02*
X187402142Y-53427200D01*
X187402142Y-53427200D02*
X187354523Y-53379580D01*
X116091428Y-68740057D02*
X116186666Y-68692438D01*
X116186666Y-68692438D02*
X116281904Y-68597200D01*
X116281904Y-68597200D02*
X116424761Y-68454342D01*
X116424761Y-68454342D02*
X116519999Y-68406723D01*
X116519999Y-68406723D02*
X116615237Y-68406723D01*
X116567618Y-68644819D02*
X116662856Y-68597200D01*
X116662856Y-68597200D02*
X116758094Y-68501961D01*
X116758094Y-68501961D02*
X116805713Y-68311485D01*
X116805713Y-68311485D02*
X116805713Y-67978152D01*
X116805713Y-67978152D02*
X116758094Y-67787676D01*
X116758094Y-67787676D02*
X116662856Y-67692438D01*
X116662856Y-67692438D02*
X116567618Y-67644819D01*
X116567618Y-67644819D02*
X116377142Y-67644819D01*
X116377142Y-67644819D02*
X116281904Y-67692438D01*
X116281904Y-67692438D02*
X116186666Y-67787676D01*
X116186666Y-67787676D02*
X116139047Y-67978152D01*
X116139047Y-67978152D02*
X116139047Y-68311485D01*
X116139047Y-68311485D02*
X116186666Y-68501961D01*
X116186666Y-68501961D02*
X116281904Y-68597200D01*
X116281904Y-68597200D02*
X116377142Y-68644819D01*
X116377142Y-68644819D02*
X116567618Y-68644819D01*
X115186666Y-68644819D02*
X115758094Y-68644819D01*
X115472380Y-68644819D02*
X115472380Y-67644819D01*
X115472380Y-67644819D02*
X115567618Y-67787676D01*
X115567618Y-67787676D02*
X115662856Y-67882914D01*
X115662856Y-67882914D02*
X115758094Y-67930533D01*
X114805713Y-67740057D02*
X114758094Y-67692438D01*
X114758094Y-67692438D02*
X114662856Y-67644819D01*
X114662856Y-67644819D02*
X114424761Y-67644819D01*
X114424761Y-67644819D02*
X114329523Y-67692438D01*
X114329523Y-67692438D02*
X114281904Y-67740057D01*
X114281904Y-67740057D02*
X114234285Y-67835295D01*
X114234285Y-67835295D02*
X114234285Y-67930533D01*
X114234285Y-67930533D02*
X114281904Y-68073390D01*
X114281904Y-68073390D02*
X114853332Y-68644819D01*
X114853332Y-68644819D02*
X114234285Y-68644819D01*
X151024819Y-128080952D02*
X151024819Y-127509524D01*
X151024819Y-127795238D02*
X150024819Y-127795238D01*
X150024819Y-127795238D02*
X150167676Y-127700000D01*
X150167676Y-127700000D02*
X150262914Y-127604762D01*
X150262914Y-127604762D02*
X150310533Y-127509524D01*
X150024819Y-128700000D02*
X150024819Y-128795238D01*
X150024819Y-128795238D02*
X150072438Y-128890476D01*
X150072438Y-128890476D02*
X150120057Y-128938095D01*
X150120057Y-128938095D02*
X150215295Y-128985714D01*
X150215295Y-128985714D02*
X150405771Y-129033333D01*
X150405771Y-129033333D02*
X150643866Y-129033333D01*
X150643866Y-129033333D02*
X150834342Y-128985714D01*
X150834342Y-128985714D02*
X150929580Y-128938095D01*
X150929580Y-128938095D02*
X150977200Y-128890476D01*
X150977200Y-128890476D02*
X151024819Y-128795238D01*
X151024819Y-128795238D02*
X151024819Y-128700000D01*
X151024819Y-128700000D02*
X150977200Y-128604762D01*
X150977200Y-128604762D02*
X150929580Y-128557143D01*
X150929580Y-128557143D02*
X150834342Y-128509524D01*
X150834342Y-128509524D02*
X150643866Y-128461905D01*
X150643866Y-128461905D02*
X150405771Y-128461905D01*
X150405771Y-128461905D02*
X150215295Y-128509524D01*
X150215295Y-128509524D02*
X150120057Y-128557143D01*
X150120057Y-128557143D02*
X150072438Y-128604762D01*
X150072438Y-128604762D02*
X150024819Y-128700000D01*
X150024819Y-129652381D02*
X150024819Y-129747619D01*
X150024819Y-129747619D02*
X150072438Y-129842857D01*
X150072438Y-129842857D02*
X150120057Y-129890476D01*
X150120057Y-129890476D02*
X150215295Y-129938095D01*
X150215295Y-129938095D02*
X150405771Y-129985714D01*
X150405771Y-129985714D02*
X150643866Y-129985714D01*
X150643866Y-129985714D02*
X150834342Y-129938095D01*
X150834342Y-129938095D02*
X150929580Y-129890476D01*
X150929580Y-129890476D02*
X150977200Y-129842857D01*
X150977200Y-129842857D02*
X151024819Y-129747619D01*
X151024819Y-129747619D02*
X151024819Y-129652381D01*
X151024819Y-129652381D02*
X150977200Y-129557143D01*
X150977200Y-129557143D02*
X150929580Y-129509524D01*
X150929580Y-129509524D02*
X150834342Y-129461905D01*
X150834342Y-129461905D02*
X150643866Y-129414286D01*
X150643866Y-129414286D02*
X150405771Y-129414286D01*
X150405771Y-129414286D02*
X150215295Y-129461905D01*
X150215295Y-129461905D02*
X150120057Y-129509524D01*
X150120057Y-129509524D02*
X150072438Y-129557143D01*
X150072438Y-129557143D02*
X150024819Y-129652381D01*
X150358152Y-130414286D02*
X151024819Y-130414286D01*
X150453390Y-130414286D02*
X150405771Y-130461905D01*
X150405771Y-130461905D02*
X150358152Y-130557143D01*
X150358152Y-130557143D02*
X150358152Y-130700000D01*
X150358152Y-130700000D02*
X150405771Y-130795238D01*
X150405771Y-130795238D02*
X150501009Y-130842857D01*
X150501009Y-130842857D02*
X151024819Y-130842857D01*
X119405238Y-68524819D02*
X119976666Y-68524819D01*
X119690952Y-68524819D02*
X119690952Y-67524819D01*
X119690952Y-67524819D02*
X119786190Y-67667676D01*
X119786190Y-67667676D02*
X119881428Y-67762914D01*
X119881428Y-67762914D02*
X119976666Y-67810533D01*
X118786190Y-67524819D02*
X118690952Y-67524819D01*
X118690952Y-67524819D02*
X118595714Y-67572438D01*
X118595714Y-67572438D02*
X118548095Y-67620057D01*
X118548095Y-67620057D02*
X118500476Y-67715295D01*
X118500476Y-67715295D02*
X118452857Y-67905771D01*
X118452857Y-67905771D02*
X118452857Y-68143866D01*
X118452857Y-68143866D02*
X118500476Y-68334342D01*
X118500476Y-68334342D02*
X118548095Y-68429580D01*
X118548095Y-68429580D02*
X118595714Y-68477200D01*
X118595714Y-68477200D02*
X118690952Y-68524819D01*
X118690952Y-68524819D02*
X118786190Y-68524819D01*
X118786190Y-68524819D02*
X118881428Y-68477200D01*
X118881428Y-68477200D02*
X118929047Y-68429580D01*
X118929047Y-68429580D02*
X118976666Y-68334342D01*
X118976666Y-68334342D02*
X119024285Y-68143866D01*
X119024285Y-68143866D02*
X119024285Y-67905771D01*
X119024285Y-67905771D02*
X118976666Y-67715295D01*
X118976666Y-67715295D02*
X118929047Y-67620057D01*
X118929047Y-67620057D02*
X118881428Y-67572438D01*
X118881428Y-67572438D02*
X118786190Y-67524819D01*
X118024285Y-68524819D02*
X118024285Y-67524819D01*
X117929047Y-68143866D02*
X117643333Y-68524819D01*
X117643333Y-67858152D02*
X118024285Y-68239104D01*
X172689047Y-122544819D02*
X173260475Y-122544819D01*
X172974761Y-122544819D02*
X172974761Y-121544819D01*
X172974761Y-121544819D02*
X173069999Y-121687676D01*
X173069999Y-121687676D02*
X173165237Y-121782914D01*
X173165237Y-121782914D02*
X173260475Y-121830533D01*
X172260475Y-122544819D02*
X172260475Y-121544819D01*
X172165237Y-122163866D02*
X171879523Y-122544819D01*
X171879523Y-121878152D02*
X172260475Y-122259104D01*
X178635238Y-39770057D02*
X178730476Y-39722438D01*
X178730476Y-39722438D02*
X178825714Y-39627200D01*
X178825714Y-39627200D02*
X178968571Y-39484342D01*
X178968571Y-39484342D02*
X179063809Y-39436723D01*
X179063809Y-39436723D02*
X179159047Y-39436723D01*
X179111428Y-39674819D02*
X179206666Y-39627200D01*
X179206666Y-39627200D02*
X179301904Y-39531961D01*
X179301904Y-39531961D02*
X179349523Y-39341485D01*
X179349523Y-39341485D02*
X179349523Y-39008152D01*
X179349523Y-39008152D02*
X179301904Y-38817676D01*
X179301904Y-38817676D02*
X179206666Y-38722438D01*
X179206666Y-38722438D02*
X179111428Y-38674819D01*
X179111428Y-38674819D02*
X178920952Y-38674819D01*
X178920952Y-38674819D02*
X178825714Y-38722438D01*
X178825714Y-38722438D02*
X178730476Y-38817676D01*
X178730476Y-38817676D02*
X178682857Y-39008152D01*
X178682857Y-39008152D02*
X178682857Y-39341485D01*
X178682857Y-39341485D02*
X178730476Y-39531961D01*
X178730476Y-39531961D02*
X178825714Y-39627200D01*
X178825714Y-39627200D02*
X178920952Y-39674819D01*
X178920952Y-39674819D02*
X179111428Y-39674819D01*
X178206666Y-39674819D02*
X178016190Y-39674819D01*
X178016190Y-39674819D02*
X177920952Y-39627200D01*
X177920952Y-39627200D02*
X177873333Y-39579580D01*
X177873333Y-39579580D02*
X177778095Y-39436723D01*
X177778095Y-39436723D02*
X177730476Y-39246247D01*
X177730476Y-39246247D02*
X177730476Y-38865295D01*
X177730476Y-38865295D02*
X177778095Y-38770057D01*
X177778095Y-38770057D02*
X177825714Y-38722438D01*
X177825714Y-38722438D02*
X177920952Y-38674819D01*
X177920952Y-38674819D02*
X178111428Y-38674819D01*
X178111428Y-38674819D02*
X178206666Y-38722438D01*
X178206666Y-38722438D02*
X178254285Y-38770057D01*
X178254285Y-38770057D02*
X178301904Y-38865295D01*
X178301904Y-38865295D02*
X178301904Y-39103390D01*
X178301904Y-39103390D02*
X178254285Y-39198628D01*
X178254285Y-39198628D02*
X178206666Y-39246247D01*
X178206666Y-39246247D02*
X178111428Y-39293866D01*
X178111428Y-39293866D02*
X177920952Y-39293866D01*
X177920952Y-39293866D02*
X177825714Y-39246247D01*
X177825714Y-39246247D02*
X177778095Y-39198628D01*
X177778095Y-39198628D02*
X177730476Y-39103390D01*
X132635238Y-46044819D02*
X133206666Y-46044819D01*
X132920952Y-46044819D02*
X132920952Y-45044819D01*
X132920952Y-45044819D02*
X133016190Y-45187676D01*
X133016190Y-45187676D02*
X133111428Y-45282914D01*
X133111428Y-45282914D02*
X133206666Y-45330533D01*
X132016190Y-45044819D02*
X131920952Y-45044819D01*
X131920952Y-45044819D02*
X131825714Y-45092438D01*
X131825714Y-45092438D02*
X131778095Y-45140057D01*
X131778095Y-45140057D02*
X131730476Y-45235295D01*
X131730476Y-45235295D02*
X131682857Y-45425771D01*
X131682857Y-45425771D02*
X131682857Y-45663866D01*
X131682857Y-45663866D02*
X131730476Y-45854342D01*
X131730476Y-45854342D02*
X131778095Y-45949580D01*
X131778095Y-45949580D02*
X131825714Y-45997200D01*
X131825714Y-45997200D02*
X131920952Y-46044819D01*
X131920952Y-46044819D02*
X132016190Y-46044819D01*
X132016190Y-46044819D02*
X132111428Y-45997200D01*
X132111428Y-45997200D02*
X132159047Y-45949580D01*
X132159047Y-45949580D02*
X132206666Y-45854342D01*
X132206666Y-45854342D02*
X132254285Y-45663866D01*
X132254285Y-45663866D02*
X132254285Y-45425771D01*
X132254285Y-45425771D02*
X132206666Y-45235295D01*
X132206666Y-45235295D02*
X132159047Y-45140057D01*
X132159047Y-45140057D02*
X132111428Y-45092438D01*
X132111428Y-45092438D02*
X132016190Y-45044819D01*
X131254285Y-46044819D02*
X131254285Y-45044819D01*
X131159047Y-45663866D02*
X130873333Y-46044819D01*
X130873333Y-45378152D02*
X131254285Y-45759104D01*
X195195238Y-69480057D02*
X195290476Y-69432438D01*
X195290476Y-69432438D02*
X195385714Y-69337200D01*
X195385714Y-69337200D02*
X195528571Y-69194342D01*
X195528571Y-69194342D02*
X195623809Y-69146723D01*
X195623809Y-69146723D02*
X195719047Y-69146723D01*
X195671428Y-69384819D02*
X195766666Y-69337200D01*
X195766666Y-69337200D02*
X195861904Y-69241961D01*
X195861904Y-69241961D02*
X195909523Y-69051485D01*
X195909523Y-69051485D02*
X195909523Y-68718152D01*
X195909523Y-68718152D02*
X195861904Y-68527676D01*
X195861904Y-68527676D02*
X195766666Y-68432438D01*
X195766666Y-68432438D02*
X195671428Y-68384819D01*
X195671428Y-68384819D02*
X195480952Y-68384819D01*
X195480952Y-68384819D02*
X195385714Y-68432438D01*
X195385714Y-68432438D02*
X195290476Y-68527676D01*
X195290476Y-68527676D02*
X195242857Y-68718152D01*
X195242857Y-68718152D02*
X195242857Y-69051485D01*
X195242857Y-69051485D02*
X195290476Y-69241961D01*
X195290476Y-69241961D02*
X195385714Y-69337200D01*
X195385714Y-69337200D02*
X195480952Y-69384819D01*
X195480952Y-69384819D02*
X195671428Y-69384819D01*
X194861904Y-68480057D02*
X194814285Y-68432438D01*
X194814285Y-68432438D02*
X194719047Y-68384819D01*
X194719047Y-68384819D02*
X194480952Y-68384819D01*
X194480952Y-68384819D02*
X194385714Y-68432438D01*
X194385714Y-68432438D02*
X194338095Y-68480057D01*
X194338095Y-68480057D02*
X194290476Y-68575295D01*
X194290476Y-68575295D02*
X194290476Y-68670533D01*
X194290476Y-68670533D02*
X194338095Y-68813390D01*
X194338095Y-68813390D02*
X194909523Y-69384819D01*
X194909523Y-69384819D02*
X194290476Y-69384819D01*
X186549047Y-69764819D02*
X187120475Y-69764819D01*
X186834761Y-69764819D02*
X186834761Y-68764819D01*
X186834761Y-68764819D02*
X186929999Y-68907676D01*
X186929999Y-68907676D02*
X187025237Y-69002914D01*
X187025237Y-69002914D02*
X187120475Y-69050533D01*
X186120475Y-69764819D02*
X186120475Y-68764819D01*
X186025237Y-69383866D02*
X185739523Y-69764819D01*
X185739523Y-69098152D02*
X186120475Y-69479104D01*
X116743333Y-63531009D02*
X117076666Y-63531009D01*
X117076666Y-64054819D02*
X117076666Y-63054819D01*
X117076666Y-63054819D02*
X116600476Y-63054819D01*
X116314761Y-63054819D02*
X115695714Y-63054819D01*
X115695714Y-63054819D02*
X116029047Y-63435771D01*
X116029047Y-63435771D02*
X115886190Y-63435771D01*
X115886190Y-63435771D02*
X115790952Y-63483390D01*
X115790952Y-63483390D02*
X115743333Y-63531009D01*
X115743333Y-63531009D02*
X115695714Y-63626247D01*
X115695714Y-63626247D02*
X115695714Y-63864342D01*
X115695714Y-63864342D02*
X115743333Y-63959580D01*
X115743333Y-63959580D02*
X115790952Y-64007200D01*
X115790952Y-64007200D02*
X115886190Y-64054819D01*
X115886190Y-64054819D02*
X116171904Y-64054819D01*
X116171904Y-64054819D02*
X116267142Y-64007200D01*
X116267142Y-64007200D02*
X116314761Y-63959580D01*
X190484819Y-127310952D02*
X190484819Y-126739524D01*
X190484819Y-127025238D02*
X189484819Y-127025238D01*
X189484819Y-127025238D02*
X189627676Y-126930000D01*
X189627676Y-126930000D02*
X189722914Y-126834762D01*
X189722914Y-126834762D02*
X189770533Y-126739524D01*
X189484819Y-127930000D02*
X189484819Y-128025238D01*
X189484819Y-128025238D02*
X189532438Y-128120476D01*
X189532438Y-128120476D02*
X189580057Y-128168095D01*
X189580057Y-128168095D02*
X189675295Y-128215714D01*
X189675295Y-128215714D02*
X189865771Y-128263333D01*
X189865771Y-128263333D02*
X190103866Y-128263333D01*
X190103866Y-128263333D02*
X190294342Y-128215714D01*
X190294342Y-128215714D02*
X190389580Y-128168095D01*
X190389580Y-128168095D02*
X190437200Y-128120476D01*
X190437200Y-128120476D02*
X190484819Y-128025238D01*
X190484819Y-128025238D02*
X190484819Y-127930000D01*
X190484819Y-127930000D02*
X190437200Y-127834762D01*
X190437200Y-127834762D02*
X190389580Y-127787143D01*
X190389580Y-127787143D02*
X190294342Y-127739524D01*
X190294342Y-127739524D02*
X190103866Y-127691905D01*
X190103866Y-127691905D02*
X189865771Y-127691905D01*
X189865771Y-127691905D02*
X189675295Y-127739524D01*
X189675295Y-127739524D02*
X189580057Y-127787143D01*
X189580057Y-127787143D02*
X189532438Y-127834762D01*
X189532438Y-127834762D02*
X189484819Y-127930000D01*
X189484819Y-128882381D02*
X189484819Y-128977619D01*
X189484819Y-128977619D02*
X189532438Y-129072857D01*
X189532438Y-129072857D02*
X189580057Y-129120476D01*
X189580057Y-129120476D02*
X189675295Y-129168095D01*
X189675295Y-129168095D02*
X189865771Y-129215714D01*
X189865771Y-129215714D02*
X190103866Y-129215714D01*
X190103866Y-129215714D02*
X190294342Y-129168095D01*
X190294342Y-129168095D02*
X190389580Y-129120476D01*
X190389580Y-129120476D02*
X190437200Y-129072857D01*
X190437200Y-129072857D02*
X190484819Y-128977619D01*
X190484819Y-128977619D02*
X190484819Y-128882381D01*
X190484819Y-128882381D02*
X190437200Y-128787143D01*
X190437200Y-128787143D02*
X190389580Y-128739524D01*
X190389580Y-128739524D02*
X190294342Y-128691905D01*
X190294342Y-128691905D02*
X190103866Y-128644286D01*
X190103866Y-128644286D02*
X189865771Y-128644286D01*
X189865771Y-128644286D02*
X189675295Y-128691905D01*
X189675295Y-128691905D02*
X189580057Y-128739524D01*
X189580057Y-128739524D02*
X189532438Y-128787143D01*
X189532438Y-128787143D02*
X189484819Y-128882381D01*
X189818152Y-129644286D02*
X190484819Y-129644286D01*
X189913390Y-129644286D02*
X189865771Y-129691905D01*
X189865771Y-129691905D02*
X189818152Y-129787143D01*
X189818152Y-129787143D02*
X189818152Y-129930000D01*
X189818152Y-129930000D02*
X189865771Y-130025238D01*
X189865771Y-130025238D02*
X189961009Y-130072857D01*
X189961009Y-130072857D02*
X190484819Y-130072857D01*
X152544285Y-114597200D02*
X152401428Y-114644819D01*
X152401428Y-114644819D02*
X152163333Y-114644819D01*
X152163333Y-114644819D02*
X152068095Y-114597200D01*
X152068095Y-114597200D02*
X152020476Y-114549580D01*
X152020476Y-114549580D02*
X151972857Y-114454342D01*
X151972857Y-114454342D02*
X151972857Y-114359104D01*
X151972857Y-114359104D02*
X152020476Y-114263866D01*
X152020476Y-114263866D02*
X152068095Y-114216247D01*
X152068095Y-114216247D02*
X152163333Y-114168628D01*
X152163333Y-114168628D02*
X152353809Y-114121009D01*
X152353809Y-114121009D02*
X152449047Y-114073390D01*
X152449047Y-114073390D02*
X152496666Y-114025771D01*
X152496666Y-114025771D02*
X152544285Y-113930533D01*
X152544285Y-113930533D02*
X152544285Y-113835295D01*
X152544285Y-113835295D02*
X152496666Y-113740057D01*
X152496666Y-113740057D02*
X152449047Y-113692438D01*
X152449047Y-113692438D02*
X152353809Y-113644819D01*
X152353809Y-113644819D02*
X152115714Y-113644819D01*
X152115714Y-113644819D02*
X151972857Y-113692438D01*
X151591904Y-114597200D02*
X151449047Y-114644819D01*
X151449047Y-114644819D02*
X151210952Y-114644819D01*
X151210952Y-114644819D02*
X151115714Y-114597200D01*
X151115714Y-114597200D02*
X151068095Y-114549580D01*
X151068095Y-114549580D02*
X151020476Y-114454342D01*
X151020476Y-114454342D02*
X151020476Y-114359104D01*
X151020476Y-114359104D02*
X151068095Y-114263866D01*
X151068095Y-114263866D02*
X151115714Y-114216247D01*
X151115714Y-114216247D02*
X151210952Y-114168628D01*
X151210952Y-114168628D02*
X151401428Y-114121009D01*
X151401428Y-114121009D02*
X151496666Y-114073390D01*
X151496666Y-114073390D02*
X151544285Y-114025771D01*
X151544285Y-114025771D02*
X151591904Y-113930533D01*
X151591904Y-113930533D02*
X151591904Y-113835295D01*
X151591904Y-113835295D02*
X151544285Y-113740057D01*
X151544285Y-113740057D02*
X151496666Y-113692438D01*
X151496666Y-113692438D02*
X151401428Y-113644819D01*
X151401428Y-113644819D02*
X151163333Y-113644819D01*
X151163333Y-113644819D02*
X151020476Y-113692438D01*
X150687142Y-113644819D02*
X150068095Y-113644819D01*
X150068095Y-113644819D02*
X150401428Y-114025771D01*
X150401428Y-114025771D02*
X150258571Y-114025771D01*
X150258571Y-114025771D02*
X150163333Y-114073390D01*
X150163333Y-114073390D02*
X150115714Y-114121009D01*
X150115714Y-114121009D02*
X150068095Y-114216247D01*
X150068095Y-114216247D02*
X150068095Y-114454342D01*
X150068095Y-114454342D02*
X150115714Y-114549580D01*
X150115714Y-114549580D02*
X150163333Y-114597200D01*
X150163333Y-114597200D02*
X150258571Y-114644819D01*
X150258571Y-114644819D02*
X150544285Y-114644819D01*
X150544285Y-114644819D02*
X150639523Y-114597200D01*
X150639523Y-114597200D02*
X150687142Y-114549580D01*
X149210952Y-113978152D02*
X149210952Y-114644819D01*
X149449047Y-113597200D02*
X149687142Y-114311485D01*
X149687142Y-114311485D02*
X149068095Y-114311485D01*
X188385238Y-63474819D02*
X188956666Y-63474819D01*
X188670952Y-63474819D02*
X188670952Y-62474819D01*
X188670952Y-62474819D02*
X188766190Y-62617676D01*
X188766190Y-62617676D02*
X188861428Y-62712914D01*
X188861428Y-62712914D02*
X188956666Y-62760533D01*
X187766190Y-62474819D02*
X187670952Y-62474819D01*
X187670952Y-62474819D02*
X187575714Y-62522438D01*
X187575714Y-62522438D02*
X187528095Y-62570057D01*
X187528095Y-62570057D02*
X187480476Y-62665295D01*
X187480476Y-62665295D02*
X187432857Y-62855771D01*
X187432857Y-62855771D02*
X187432857Y-63093866D01*
X187432857Y-63093866D02*
X187480476Y-63284342D01*
X187480476Y-63284342D02*
X187528095Y-63379580D01*
X187528095Y-63379580D02*
X187575714Y-63427200D01*
X187575714Y-63427200D02*
X187670952Y-63474819D01*
X187670952Y-63474819D02*
X187766190Y-63474819D01*
X187766190Y-63474819D02*
X187861428Y-63427200D01*
X187861428Y-63427200D02*
X187909047Y-63379580D01*
X187909047Y-63379580D02*
X187956666Y-63284342D01*
X187956666Y-63284342D02*
X188004285Y-63093866D01*
X188004285Y-63093866D02*
X188004285Y-62855771D01*
X188004285Y-62855771D02*
X187956666Y-62665295D01*
X187956666Y-62665295D02*
X187909047Y-62570057D01*
X187909047Y-62570057D02*
X187861428Y-62522438D01*
X187861428Y-62522438D02*
X187766190Y-62474819D01*
X187004285Y-63474819D02*
X187004285Y-62474819D01*
X186909047Y-63093866D02*
X186623333Y-63474819D01*
X186623333Y-62808152D02*
X187004285Y-63189104D01*
X184375238Y-123364819D02*
X184946666Y-123364819D01*
X184660952Y-123364819D02*
X184660952Y-122364819D01*
X184660952Y-122364819D02*
X184756190Y-122507676D01*
X184756190Y-122507676D02*
X184851428Y-122602914D01*
X184851428Y-122602914D02*
X184946666Y-122650533D01*
X183756190Y-122364819D02*
X183660952Y-122364819D01*
X183660952Y-122364819D02*
X183565714Y-122412438D01*
X183565714Y-122412438D02*
X183518095Y-122460057D01*
X183518095Y-122460057D02*
X183470476Y-122555295D01*
X183470476Y-122555295D02*
X183422857Y-122745771D01*
X183422857Y-122745771D02*
X183422857Y-122983866D01*
X183422857Y-122983866D02*
X183470476Y-123174342D01*
X183470476Y-123174342D02*
X183518095Y-123269580D01*
X183518095Y-123269580D02*
X183565714Y-123317200D01*
X183565714Y-123317200D02*
X183660952Y-123364819D01*
X183660952Y-123364819D02*
X183756190Y-123364819D01*
X183756190Y-123364819D02*
X183851428Y-123317200D01*
X183851428Y-123317200D02*
X183899047Y-123269580D01*
X183899047Y-123269580D02*
X183946666Y-123174342D01*
X183946666Y-123174342D02*
X183994285Y-122983866D01*
X183994285Y-122983866D02*
X183994285Y-122745771D01*
X183994285Y-122745771D02*
X183946666Y-122555295D01*
X183946666Y-122555295D02*
X183899047Y-122460057D01*
X183899047Y-122460057D02*
X183851428Y-122412438D01*
X183851428Y-122412438D02*
X183756190Y-122364819D01*
X182994285Y-123364819D02*
X182994285Y-122364819D01*
X182899047Y-122983866D02*
X182613333Y-123364819D01*
X182613333Y-122698152D02*
X182994285Y-123079104D01*
X121565238Y-63714819D02*
X122136666Y-63714819D01*
X121850952Y-63714819D02*
X121850952Y-62714819D01*
X121850952Y-62714819D02*
X121946190Y-62857676D01*
X121946190Y-62857676D02*
X122041428Y-62952914D01*
X122041428Y-62952914D02*
X122136666Y-63000533D01*
X120946190Y-62714819D02*
X120850952Y-62714819D01*
X120850952Y-62714819D02*
X120755714Y-62762438D01*
X120755714Y-62762438D02*
X120708095Y-62810057D01*
X120708095Y-62810057D02*
X120660476Y-62905295D01*
X120660476Y-62905295D02*
X120612857Y-63095771D01*
X120612857Y-63095771D02*
X120612857Y-63333866D01*
X120612857Y-63333866D02*
X120660476Y-63524342D01*
X120660476Y-63524342D02*
X120708095Y-63619580D01*
X120708095Y-63619580D02*
X120755714Y-63667200D01*
X120755714Y-63667200D02*
X120850952Y-63714819D01*
X120850952Y-63714819D02*
X120946190Y-63714819D01*
X120946190Y-63714819D02*
X121041428Y-63667200D01*
X121041428Y-63667200D02*
X121089047Y-63619580D01*
X121089047Y-63619580D02*
X121136666Y-63524342D01*
X121136666Y-63524342D02*
X121184285Y-63333866D01*
X121184285Y-63333866D02*
X121184285Y-63095771D01*
X121184285Y-63095771D02*
X121136666Y-62905295D01*
X121136666Y-62905295D02*
X121089047Y-62810057D01*
X121089047Y-62810057D02*
X121041428Y-62762438D01*
X121041428Y-62762438D02*
X120946190Y-62714819D01*
X120184285Y-63714819D02*
X120184285Y-62714819D01*
X120089047Y-63333866D02*
X119803333Y-63714819D01*
X119803333Y-63048152D02*
X120184285Y-63429104D01*
X191684819Y-93184286D02*
X191684819Y-93803333D01*
X191684819Y-93803333D02*
X192065771Y-93470000D01*
X192065771Y-93470000D02*
X192065771Y-93612857D01*
X192065771Y-93612857D02*
X192113390Y-93708095D01*
X192113390Y-93708095D02*
X192161009Y-93755714D01*
X192161009Y-93755714D02*
X192256247Y-93803333D01*
X192256247Y-93803333D02*
X192494342Y-93803333D01*
X192494342Y-93803333D02*
X192589580Y-93755714D01*
X192589580Y-93755714D02*
X192637200Y-93708095D01*
X192637200Y-93708095D02*
X192684819Y-93612857D01*
X192684819Y-93612857D02*
X192684819Y-93327143D01*
X192684819Y-93327143D02*
X192637200Y-93231905D01*
X192637200Y-93231905D02*
X192589580Y-93184286D01*
X191684819Y-94136667D02*
X191684819Y-94755714D01*
X191684819Y-94755714D02*
X192065771Y-94422381D01*
X192065771Y-94422381D02*
X192065771Y-94565238D01*
X192065771Y-94565238D02*
X192113390Y-94660476D01*
X192113390Y-94660476D02*
X192161009Y-94708095D01*
X192161009Y-94708095D02*
X192256247Y-94755714D01*
X192256247Y-94755714D02*
X192494342Y-94755714D01*
X192494342Y-94755714D02*
X192589580Y-94708095D01*
X192589580Y-94708095D02*
X192637200Y-94660476D01*
X192637200Y-94660476D02*
X192684819Y-94565238D01*
X192684819Y-94565238D02*
X192684819Y-94279524D01*
X192684819Y-94279524D02*
X192637200Y-94184286D01*
X192637200Y-94184286D02*
X192589580Y-94136667D01*
X191684819Y-95374762D02*
X191684819Y-95470000D01*
X191684819Y-95470000D02*
X191732438Y-95565238D01*
X191732438Y-95565238D02*
X191780057Y-95612857D01*
X191780057Y-95612857D02*
X191875295Y-95660476D01*
X191875295Y-95660476D02*
X192065771Y-95708095D01*
X192065771Y-95708095D02*
X192303866Y-95708095D01*
X192303866Y-95708095D02*
X192494342Y-95660476D01*
X192494342Y-95660476D02*
X192589580Y-95612857D01*
X192589580Y-95612857D02*
X192637200Y-95565238D01*
X192637200Y-95565238D02*
X192684819Y-95470000D01*
X192684819Y-95470000D02*
X192684819Y-95374762D01*
X192684819Y-95374762D02*
X192637200Y-95279524D01*
X192637200Y-95279524D02*
X192589580Y-95231905D01*
X192589580Y-95231905D02*
X192494342Y-95184286D01*
X192494342Y-95184286D02*
X192303866Y-95136667D01*
X192303866Y-95136667D02*
X192065771Y-95136667D01*
X192065771Y-95136667D02*
X191875295Y-95184286D01*
X191875295Y-95184286D02*
X191780057Y-95231905D01*
X191780057Y-95231905D02*
X191732438Y-95279524D01*
X191732438Y-95279524D02*
X191684819Y-95374762D01*
X141089047Y-103434819D02*
X141660475Y-103434819D01*
X141374761Y-103434819D02*
X141374761Y-102434819D01*
X141374761Y-102434819D02*
X141469999Y-102577676D01*
X141469999Y-102577676D02*
X141565237Y-102672914D01*
X141565237Y-102672914D02*
X141660475Y-102720533D01*
X140469999Y-102434819D02*
X140374761Y-102434819D01*
X140374761Y-102434819D02*
X140279523Y-102482438D01*
X140279523Y-102482438D02*
X140231904Y-102530057D01*
X140231904Y-102530057D02*
X140184285Y-102625295D01*
X140184285Y-102625295D02*
X140136666Y-102815771D01*
X140136666Y-102815771D02*
X140136666Y-103053866D01*
X140136666Y-103053866D02*
X140184285Y-103244342D01*
X140184285Y-103244342D02*
X140231904Y-103339580D01*
X140231904Y-103339580D02*
X140279523Y-103387200D01*
X140279523Y-103387200D02*
X140374761Y-103434819D01*
X140374761Y-103434819D02*
X140469999Y-103434819D01*
X140469999Y-103434819D02*
X140565237Y-103387200D01*
X140565237Y-103387200D02*
X140612856Y-103339580D01*
X140612856Y-103339580D02*
X140660475Y-103244342D01*
X140660475Y-103244342D02*
X140708094Y-103053866D01*
X140708094Y-103053866D02*
X140708094Y-102815771D01*
X140708094Y-102815771D02*
X140660475Y-102625295D01*
X140660475Y-102625295D02*
X140612856Y-102530057D01*
X140612856Y-102530057D02*
X140565237Y-102482438D01*
X140565237Y-102482438D02*
X140469999Y-102434819D01*
X139517618Y-102434819D02*
X139422380Y-102434819D01*
X139422380Y-102434819D02*
X139327142Y-102482438D01*
X139327142Y-102482438D02*
X139279523Y-102530057D01*
X139279523Y-102530057D02*
X139231904Y-102625295D01*
X139231904Y-102625295D02*
X139184285Y-102815771D01*
X139184285Y-102815771D02*
X139184285Y-103053866D01*
X139184285Y-103053866D02*
X139231904Y-103244342D01*
X139231904Y-103244342D02*
X139279523Y-103339580D01*
X139279523Y-103339580D02*
X139327142Y-103387200D01*
X139327142Y-103387200D02*
X139422380Y-103434819D01*
X139422380Y-103434819D02*
X139517618Y-103434819D01*
X139517618Y-103434819D02*
X139612856Y-103387200D01*
X139612856Y-103387200D02*
X139660475Y-103339580D01*
X139660475Y-103339580D02*
X139708094Y-103244342D01*
X139708094Y-103244342D02*
X139755713Y-103053866D01*
X139755713Y-103053866D02*
X139755713Y-102815771D01*
X139755713Y-102815771D02*
X139708094Y-102625295D01*
X139708094Y-102625295D02*
X139660475Y-102530057D01*
X139660475Y-102530057D02*
X139612856Y-102482438D01*
X139612856Y-102482438D02*
X139517618Y-102434819D01*
X138755713Y-102768152D02*
X138755713Y-103434819D01*
X138755713Y-102863390D02*
X138708094Y-102815771D01*
X138708094Y-102815771D02*
X138612856Y-102768152D01*
X138612856Y-102768152D02*
X138469999Y-102768152D01*
X138469999Y-102768152D02*
X138374761Y-102815771D01*
X138374761Y-102815771D02*
X138327142Y-102911009D01*
X138327142Y-102911009D02*
X138327142Y-103434819D01*
X121399047Y-65164819D02*
X121970475Y-65164819D01*
X121684761Y-65164819D02*
X121684761Y-64164819D01*
X121684761Y-64164819D02*
X121779999Y-64307676D01*
X121779999Y-64307676D02*
X121875237Y-64402914D01*
X121875237Y-64402914D02*
X121970475Y-64450533D01*
X120970475Y-65164819D02*
X120970475Y-64164819D01*
X120875237Y-64783866D02*
X120589523Y-65164819D01*
X120589523Y-64498152D02*
X120970475Y-64879104D01*
X140058152Y-78121428D02*
X140724819Y-78121428D01*
X139677200Y-77883333D02*
X140391485Y-77645238D01*
X140391485Y-77645238D02*
X140391485Y-78264285D01*
X140629580Y-78645238D02*
X140677200Y-78692857D01*
X140677200Y-78692857D02*
X140724819Y-78645238D01*
X140724819Y-78645238D02*
X140677200Y-78597619D01*
X140677200Y-78597619D02*
X140629580Y-78645238D01*
X140629580Y-78645238D02*
X140724819Y-78645238D01*
X139724819Y-79026190D02*
X139724819Y-79692856D01*
X139724819Y-79692856D02*
X140724819Y-79264285D01*
X140724819Y-80073809D02*
X139724819Y-80073809D01*
X140343866Y-80169047D02*
X140724819Y-80454761D01*
X140058152Y-80454761D02*
X140439104Y-80073809D01*
X184425238Y-127344819D02*
X184996666Y-127344819D01*
X184710952Y-127344819D02*
X184710952Y-126344819D01*
X184710952Y-126344819D02*
X184806190Y-126487676D01*
X184806190Y-126487676D02*
X184901428Y-126582914D01*
X184901428Y-126582914D02*
X184996666Y-126630533D01*
X183806190Y-126344819D02*
X183710952Y-126344819D01*
X183710952Y-126344819D02*
X183615714Y-126392438D01*
X183615714Y-126392438D02*
X183568095Y-126440057D01*
X183568095Y-126440057D02*
X183520476Y-126535295D01*
X183520476Y-126535295D02*
X183472857Y-126725771D01*
X183472857Y-126725771D02*
X183472857Y-126963866D01*
X183472857Y-126963866D02*
X183520476Y-127154342D01*
X183520476Y-127154342D02*
X183568095Y-127249580D01*
X183568095Y-127249580D02*
X183615714Y-127297200D01*
X183615714Y-127297200D02*
X183710952Y-127344819D01*
X183710952Y-127344819D02*
X183806190Y-127344819D01*
X183806190Y-127344819D02*
X183901428Y-127297200D01*
X183901428Y-127297200D02*
X183949047Y-127249580D01*
X183949047Y-127249580D02*
X183996666Y-127154342D01*
X183996666Y-127154342D02*
X184044285Y-126963866D01*
X184044285Y-126963866D02*
X184044285Y-126725771D01*
X184044285Y-126725771D02*
X183996666Y-126535295D01*
X183996666Y-126535295D02*
X183949047Y-126440057D01*
X183949047Y-126440057D02*
X183901428Y-126392438D01*
X183901428Y-126392438D02*
X183806190Y-126344819D01*
X183044285Y-127344819D02*
X183044285Y-126344819D01*
X182949047Y-126963866D02*
X182663333Y-127344819D01*
X182663333Y-126678152D02*
X183044285Y-127059104D01*
X183845238Y-67624819D02*
X184416666Y-67624819D01*
X184130952Y-67624819D02*
X184130952Y-66624819D01*
X184130952Y-66624819D02*
X184226190Y-66767676D01*
X184226190Y-66767676D02*
X184321428Y-66862914D01*
X184321428Y-66862914D02*
X184416666Y-66910533D01*
X183226190Y-66624819D02*
X183130952Y-66624819D01*
X183130952Y-66624819D02*
X183035714Y-66672438D01*
X183035714Y-66672438D02*
X182988095Y-66720057D01*
X182988095Y-66720057D02*
X182940476Y-66815295D01*
X182940476Y-66815295D02*
X182892857Y-67005771D01*
X182892857Y-67005771D02*
X182892857Y-67243866D01*
X182892857Y-67243866D02*
X182940476Y-67434342D01*
X182940476Y-67434342D02*
X182988095Y-67529580D01*
X182988095Y-67529580D02*
X183035714Y-67577200D01*
X183035714Y-67577200D02*
X183130952Y-67624819D01*
X183130952Y-67624819D02*
X183226190Y-67624819D01*
X183226190Y-67624819D02*
X183321428Y-67577200D01*
X183321428Y-67577200D02*
X183369047Y-67529580D01*
X183369047Y-67529580D02*
X183416666Y-67434342D01*
X183416666Y-67434342D02*
X183464285Y-67243866D01*
X183464285Y-67243866D02*
X183464285Y-67005771D01*
X183464285Y-67005771D02*
X183416666Y-66815295D01*
X183416666Y-66815295D02*
X183369047Y-66720057D01*
X183369047Y-66720057D02*
X183321428Y-66672438D01*
X183321428Y-66672438D02*
X183226190Y-66624819D01*
X182464285Y-67624819D02*
X182464285Y-66624819D01*
X182369047Y-67243866D02*
X182083333Y-67624819D01*
X182083333Y-66958152D02*
X182464285Y-67339104D01*
X131679047Y-47784819D02*
X132250475Y-47784819D01*
X131964761Y-47784819D02*
X131964761Y-46784819D01*
X131964761Y-46784819D02*
X132059999Y-46927676D01*
X132059999Y-46927676D02*
X132155237Y-47022914D01*
X132155237Y-47022914D02*
X132250475Y-47070533D01*
X131250475Y-47784819D02*
X131250475Y-46784819D01*
X131155237Y-47403866D02*
X130869523Y-47784819D01*
X130869523Y-47118152D02*
X131250475Y-47499104D01*
X144428152Y-81911428D02*
X145094819Y-81911428D01*
X144047200Y-81673333D02*
X144761485Y-81435238D01*
X144761485Y-81435238D02*
X144761485Y-82054285D01*
X144999580Y-82435238D02*
X145047200Y-82482857D01*
X145047200Y-82482857D02*
X145094819Y-82435238D01*
X145094819Y-82435238D02*
X145047200Y-82387619D01*
X145047200Y-82387619D02*
X144999580Y-82435238D01*
X144999580Y-82435238D02*
X145094819Y-82435238D01*
X144094819Y-82816190D02*
X144094819Y-83482856D01*
X144094819Y-83482856D02*
X145094819Y-83054285D01*
X145094819Y-83863809D02*
X144094819Y-83863809D01*
X144713866Y-83959047D02*
X145094819Y-84244761D01*
X144428152Y-84244761D02*
X144809104Y-83863809D01*
X146978152Y-81931428D02*
X147644819Y-81931428D01*
X146597200Y-81693333D02*
X147311485Y-81455238D01*
X147311485Y-81455238D02*
X147311485Y-82074285D01*
X147549580Y-82455238D02*
X147597200Y-82502857D01*
X147597200Y-82502857D02*
X147644819Y-82455238D01*
X147644819Y-82455238D02*
X147597200Y-82407619D01*
X147597200Y-82407619D02*
X147549580Y-82455238D01*
X147549580Y-82455238D02*
X147644819Y-82455238D01*
X146644819Y-82836190D02*
X146644819Y-83502856D01*
X146644819Y-83502856D02*
X147644819Y-83074285D01*
X147644819Y-83883809D02*
X146644819Y-83883809D01*
X147263866Y-83979047D02*
X147644819Y-84264761D01*
X146978152Y-84264761D02*
X147359104Y-83883809D01*
X122054819Y-83355714D02*
X122054819Y-83450952D01*
X122054819Y-83450952D02*
X122102438Y-83546190D01*
X122102438Y-83546190D02*
X122150057Y-83593809D01*
X122150057Y-83593809D02*
X122245295Y-83641428D01*
X122245295Y-83641428D02*
X122435771Y-83689047D01*
X122435771Y-83689047D02*
X122673866Y-83689047D01*
X122673866Y-83689047D02*
X122864342Y-83641428D01*
X122864342Y-83641428D02*
X122959580Y-83593809D01*
X122959580Y-83593809D02*
X123007200Y-83546190D01*
X123007200Y-83546190D02*
X123054819Y-83450952D01*
X123054819Y-83450952D02*
X123054819Y-83355714D01*
X123054819Y-83355714D02*
X123007200Y-83260476D01*
X123007200Y-83260476D02*
X122959580Y-83212857D01*
X122959580Y-83212857D02*
X122864342Y-83165238D01*
X122864342Y-83165238D02*
X122673866Y-83117619D01*
X122673866Y-83117619D02*
X122435771Y-83117619D01*
X122435771Y-83117619D02*
X122245295Y-83165238D01*
X122245295Y-83165238D02*
X122150057Y-83212857D01*
X122150057Y-83212857D02*
X122102438Y-83260476D01*
X122102438Y-83260476D02*
X122054819Y-83355714D01*
X122959580Y-84117619D02*
X123007200Y-84165238D01*
X123007200Y-84165238D02*
X123054819Y-84117619D01*
X123054819Y-84117619D02*
X123007200Y-84070000D01*
X123007200Y-84070000D02*
X122959580Y-84117619D01*
X122959580Y-84117619D02*
X123054819Y-84117619D01*
X123054819Y-85117618D02*
X123054819Y-84546190D01*
X123054819Y-84831904D02*
X122054819Y-84831904D01*
X122054819Y-84831904D02*
X122197676Y-84736666D01*
X122197676Y-84736666D02*
X122292914Y-84641428D01*
X122292914Y-84641428D02*
X122340533Y-84546190D01*
X122388152Y-85974761D02*
X123054819Y-85974761D01*
X122388152Y-85546190D02*
X122911961Y-85546190D01*
X122911961Y-85546190D02*
X123007200Y-85593809D01*
X123007200Y-85593809D02*
X123054819Y-85689047D01*
X123054819Y-85689047D02*
X123054819Y-85831904D01*
X123054819Y-85831904D02*
X123007200Y-85927142D01*
X123007200Y-85927142D02*
X122959580Y-85974761D01*
X175569047Y-48284819D02*
X176140475Y-48284819D01*
X175854761Y-48284819D02*
X175854761Y-47284819D01*
X175854761Y-47284819D02*
X175949999Y-47427676D01*
X175949999Y-47427676D02*
X176045237Y-47522914D01*
X176045237Y-47522914D02*
X176140475Y-47570533D01*
X175140475Y-48284819D02*
X175140475Y-47284819D01*
X175045237Y-47903866D02*
X174759523Y-48284819D01*
X174759523Y-47618152D02*
X175140475Y-47999104D01*
X185113808Y-43304819D02*
X184494761Y-43304819D01*
X184494761Y-43304819D02*
X184828094Y-43685771D01*
X184828094Y-43685771D02*
X184685237Y-43685771D01*
X184685237Y-43685771D02*
X184589999Y-43733390D01*
X184589999Y-43733390D02*
X184542380Y-43781009D01*
X184542380Y-43781009D02*
X184494761Y-43876247D01*
X184494761Y-43876247D02*
X184494761Y-44114342D01*
X184494761Y-44114342D02*
X184542380Y-44209580D01*
X184542380Y-44209580D02*
X184589999Y-44257200D01*
X184589999Y-44257200D02*
X184685237Y-44304819D01*
X184685237Y-44304819D02*
X184970951Y-44304819D01*
X184970951Y-44304819D02*
X185066189Y-44257200D01*
X185066189Y-44257200D02*
X185113808Y-44209580D01*
X183637618Y-43304819D02*
X183828094Y-43304819D01*
X183828094Y-43304819D02*
X183923332Y-43352438D01*
X183923332Y-43352438D02*
X183970951Y-43400057D01*
X183970951Y-43400057D02*
X184066189Y-43542914D01*
X184066189Y-43542914D02*
X184113808Y-43733390D01*
X184113808Y-43733390D02*
X184113808Y-44114342D01*
X184113808Y-44114342D02*
X184066189Y-44209580D01*
X184066189Y-44209580D02*
X184018570Y-44257200D01*
X184018570Y-44257200D02*
X183923332Y-44304819D01*
X183923332Y-44304819D02*
X183732856Y-44304819D01*
X183732856Y-44304819D02*
X183637618Y-44257200D01*
X183637618Y-44257200D02*
X183589999Y-44209580D01*
X183589999Y-44209580D02*
X183542380Y-44114342D01*
X183542380Y-44114342D02*
X183542380Y-43876247D01*
X183542380Y-43876247D02*
X183589999Y-43781009D01*
X183589999Y-43781009D02*
X183637618Y-43733390D01*
X183637618Y-43733390D02*
X183732856Y-43685771D01*
X183732856Y-43685771D02*
X183923332Y-43685771D01*
X183923332Y-43685771D02*
X184018570Y-43733390D01*
X184018570Y-43733390D02*
X184066189Y-43781009D01*
X184066189Y-43781009D02*
X184113808Y-43876247D01*
X183113808Y-44209580D02*
X183066189Y-44257200D01*
X183066189Y-44257200D02*
X183113808Y-44304819D01*
X183113808Y-44304819D02*
X183161427Y-44257200D01*
X183161427Y-44257200D02*
X183113808Y-44209580D01*
X183113808Y-44209580D02*
X183113808Y-44304819D01*
X182161428Y-43304819D02*
X182637618Y-43304819D01*
X182637618Y-43304819D02*
X182685237Y-43781009D01*
X182685237Y-43781009D02*
X182637618Y-43733390D01*
X182637618Y-43733390D02*
X182542380Y-43685771D01*
X182542380Y-43685771D02*
X182304285Y-43685771D01*
X182304285Y-43685771D02*
X182209047Y-43733390D01*
X182209047Y-43733390D02*
X182161428Y-43781009D01*
X182161428Y-43781009D02*
X182113809Y-43876247D01*
X182113809Y-43876247D02*
X182113809Y-44114342D01*
X182113809Y-44114342D02*
X182161428Y-44209580D01*
X182161428Y-44209580D02*
X182209047Y-44257200D01*
X182209047Y-44257200D02*
X182304285Y-44304819D01*
X182304285Y-44304819D02*
X182542380Y-44304819D01*
X182542380Y-44304819D02*
X182637618Y-44257200D01*
X182637618Y-44257200D02*
X182685237Y-44209580D01*
X107863808Y-69184819D02*
X107244761Y-69184819D01*
X107244761Y-69184819D02*
X107578094Y-69565771D01*
X107578094Y-69565771D02*
X107435237Y-69565771D01*
X107435237Y-69565771D02*
X107339999Y-69613390D01*
X107339999Y-69613390D02*
X107292380Y-69661009D01*
X107292380Y-69661009D02*
X107244761Y-69756247D01*
X107244761Y-69756247D02*
X107244761Y-69994342D01*
X107244761Y-69994342D02*
X107292380Y-70089580D01*
X107292380Y-70089580D02*
X107339999Y-70137200D01*
X107339999Y-70137200D02*
X107435237Y-70184819D01*
X107435237Y-70184819D02*
X107720951Y-70184819D01*
X107720951Y-70184819D02*
X107816189Y-70137200D01*
X107816189Y-70137200D02*
X107863808Y-70089580D01*
X106387618Y-69184819D02*
X106578094Y-69184819D01*
X106578094Y-69184819D02*
X106673332Y-69232438D01*
X106673332Y-69232438D02*
X106720951Y-69280057D01*
X106720951Y-69280057D02*
X106816189Y-69422914D01*
X106816189Y-69422914D02*
X106863808Y-69613390D01*
X106863808Y-69613390D02*
X106863808Y-69994342D01*
X106863808Y-69994342D02*
X106816189Y-70089580D01*
X106816189Y-70089580D02*
X106768570Y-70137200D01*
X106768570Y-70137200D02*
X106673332Y-70184819D01*
X106673332Y-70184819D02*
X106482856Y-70184819D01*
X106482856Y-70184819D02*
X106387618Y-70137200D01*
X106387618Y-70137200D02*
X106339999Y-70089580D01*
X106339999Y-70089580D02*
X106292380Y-69994342D01*
X106292380Y-69994342D02*
X106292380Y-69756247D01*
X106292380Y-69756247D02*
X106339999Y-69661009D01*
X106339999Y-69661009D02*
X106387618Y-69613390D01*
X106387618Y-69613390D02*
X106482856Y-69565771D01*
X106482856Y-69565771D02*
X106673332Y-69565771D01*
X106673332Y-69565771D02*
X106768570Y-69613390D01*
X106768570Y-69613390D02*
X106816189Y-69661009D01*
X106816189Y-69661009D02*
X106863808Y-69756247D01*
X105863808Y-70089580D02*
X105816189Y-70137200D01*
X105816189Y-70137200D02*
X105863808Y-70184819D01*
X105863808Y-70184819D02*
X105911427Y-70137200D01*
X105911427Y-70137200D02*
X105863808Y-70089580D01*
X105863808Y-70089580D02*
X105863808Y-70184819D01*
X104911428Y-69184819D02*
X105387618Y-69184819D01*
X105387618Y-69184819D02*
X105435237Y-69661009D01*
X105435237Y-69661009D02*
X105387618Y-69613390D01*
X105387618Y-69613390D02*
X105292380Y-69565771D01*
X105292380Y-69565771D02*
X105054285Y-69565771D01*
X105054285Y-69565771D02*
X104959047Y-69613390D01*
X104959047Y-69613390D02*
X104911428Y-69661009D01*
X104911428Y-69661009D02*
X104863809Y-69756247D01*
X104863809Y-69756247D02*
X104863809Y-69994342D01*
X104863809Y-69994342D02*
X104911428Y-70089580D01*
X104911428Y-70089580D02*
X104959047Y-70137200D01*
X104959047Y-70137200D02*
X105054285Y-70184819D01*
X105054285Y-70184819D02*
X105292380Y-70184819D01*
X105292380Y-70184819D02*
X105387618Y-70137200D01*
X105387618Y-70137200D02*
X105435237Y-70089580D01*
X128472857Y-86874819D02*
X129044285Y-86874819D01*
X128758571Y-86874819D02*
X128758571Y-85874819D01*
X128758571Y-85874819D02*
X128853809Y-86017676D01*
X128853809Y-86017676D02*
X128949047Y-86112914D01*
X128949047Y-86112914D02*
X129044285Y-86160533D01*
X127853809Y-85874819D02*
X127758571Y-85874819D01*
X127758571Y-85874819D02*
X127663333Y-85922438D01*
X127663333Y-85922438D02*
X127615714Y-85970057D01*
X127615714Y-85970057D02*
X127568095Y-86065295D01*
X127568095Y-86065295D02*
X127520476Y-86255771D01*
X127520476Y-86255771D02*
X127520476Y-86493866D01*
X127520476Y-86493866D02*
X127568095Y-86684342D01*
X127568095Y-86684342D02*
X127615714Y-86779580D01*
X127615714Y-86779580D02*
X127663333Y-86827200D01*
X127663333Y-86827200D02*
X127758571Y-86874819D01*
X127758571Y-86874819D02*
X127853809Y-86874819D01*
X127853809Y-86874819D02*
X127949047Y-86827200D01*
X127949047Y-86827200D02*
X127996666Y-86779580D01*
X127996666Y-86779580D02*
X128044285Y-86684342D01*
X128044285Y-86684342D02*
X128091904Y-86493866D01*
X128091904Y-86493866D02*
X128091904Y-86255771D01*
X128091904Y-86255771D02*
X128044285Y-86065295D01*
X128044285Y-86065295D02*
X127996666Y-85970057D01*
X127996666Y-85970057D02*
X127949047Y-85922438D01*
X127949047Y-85922438D02*
X127853809Y-85874819D01*
X126663333Y-86208152D02*
X126663333Y-86874819D01*
X127091904Y-86208152D02*
X127091904Y-86731961D01*
X127091904Y-86731961D02*
X127044285Y-86827200D01*
X127044285Y-86827200D02*
X126949047Y-86874819D01*
X126949047Y-86874819D02*
X126806190Y-86874819D01*
X126806190Y-86874819D02*
X126710952Y-86827200D01*
X126710952Y-86827200D02*
X126663333Y-86779580D01*
X166704819Y-117940952D02*
X166704819Y-117369524D01*
X166704819Y-117655238D02*
X165704819Y-117655238D01*
X165704819Y-117655238D02*
X165847676Y-117560000D01*
X165847676Y-117560000D02*
X165942914Y-117464762D01*
X165942914Y-117464762D02*
X165990533Y-117369524D01*
X165704819Y-118560000D02*
X165704819Y-118655238D01*
X165704819Y-118655238D02*
X165752438Y-118750476D01*
X165752438Y-118750476D02*
X165800057Y-118798095D01*
X165800057Y-118798095D02*
X165895295Y-118845714D01*
X165895295Y-118845714D02*
X166085771Y-118893333D01*
X166085771Y-118893333D02*
X166323866Y-118893333D01*
X166323866Y-118893333D02*
X166514342Y-118845714D01*
X166514342Y-118845714D02*
X166609580Y-118798095D01*
X166609580Y-118798095D02*
X166657200Y-118750476D01*
X166657200Y-118750476D02*
X166704819Y-118655238D01*
X166704819Y-118655238D02*
X166704819Y-118560000D01*
X166704819Y-118560000D02*
X166657200Y-118464762D01*
X166657200Y-118464762D02*
X166609580Y-118417143D01*
X166609580Y-118417143D02*
X166514342Y-118369524D01*
X166514342Y-118369524D02*
X166323866Y-118321905D01*
X166323866Y-118321905D02*
X166085771Y-118321905D01*
X166085771Y-118321905D02*
X165895295Y-118369524D01*
X165895295Y-118369524D02*
X165800057Y-118417143D01*
X165800057Y-118417143D02*
X165752438Y-118464762D01*
X165752438Y-118464762D02*
X165704819Y-118560000D01*
X165704819Y-119512381D02*
X165704819Y-119607619D01*
X165704819Y-119607619D02*
X165752438Y-119702857D01*
X165752438Y-119702857D02*
X165800057Y-119750476D01*
X165800057Y-119750476D02*
X165895295Y-119798095D01*
X165895295Y-119798095D02*
X166085771Y-119845714D01*
X166085771Y-119845714D02*
X166323866Y-119845714D01*
X166323866Y-119845714D02*
X166514342Y-119798095D01*
X166514342Y-119798095D02*
X166609580Y-119750476D01*
X166609580Y-119750476D02*
X166657200Y-119702857D01*
X166657200Y-119702857D02*
X166704819Y-119607619D01*
X166704819Y-119607619D02*
X166704819Y-119512381D01*
X166704819Y-119512381D02*
X166657200Y-119417143D01*
X166657200Y-119417143D02*
X166609580Y-119369524D01*
X166609580Y-119369524D02*
X166514342Y-119321905D01*
X166514342Y-119321905D02*
X166323866Y-119274286D01*
X166323866Y-119274286D02*
X166085771Y-119274286D01*
X166085771Y-119274286D02*
X165895295Y-119321905D01*
X165895295Y-119321905D02*
X165800057Y-119369524D01*
X165800057Y-119369524D02*
X165752438Y-119417143D01*
X165752438Y-119417143D02*
X165704819Y-119512381D01*
X166038152Y-120274286D02*
X166704819Y-120274286D01*
X166133390Y-120274286D02*
X166085771Y-120321905D01*
X166085771Y-120321905D02*
X166038152Y-120417143D01*
X166038152Y-120417143D02*
X166038152Y-120560000D01*
X166038152Y-120560000D02*
X166085771Y-120655238D01*
X166085771Y-120655238D02*
X166181009Y-120702857D01*
X166181009Y-120702857D02*
X166704819Y-120702857D01*
X119483808Y-55444819D02*
X118864761Y-55444819D01*
X118864761Y-55444819D02*
X119198094Y-55825771D01*
X119198094Y-55825771D02*
X119055237Y-55825771D01*
X119055237Y-55825771D02*
X118959999Y-55873390D01*
X118959999Y-55873390D02*
X118912380Y-55921009D01*
X118912380Y-55921009D02*
X118864761Y-56016247D01*
X118864761Y-56016247D02*
X118864761Y-56254342D01*
X118864761Y-56254342D02*
X118912380Y-56349580D01*
X118912380Y-56349580D02*
X118959999Y-56397200D01*
X118959999Y-56397200D02*
X119055237Y-56444819D01*
X119055237Y-56444819D02*
X119340951Y-56444819D01*
X119340951Y-56444819D02*
X119436189Y-56397200D01*
X119436189Y-56397200D02*
X119483808Y-56349580D01*
X118007618Y-55444819D02*
X118198094Y-55444819D01*
X118198094Y-55444819D02*
X118293332Y-55492438D01*
X118293332Y-55492438D02*
X118340951Y-55540057D01*
X118340951Y-55540057D02*
X118436189Y-55682914D01*
X118436189Y-55682914D02*
X118483808Y-55873390D01*
X118483808Y-55873390D02*
X118483808Y-56254342D01*
X118483808Y-56254342D02*
X118436189Y-56349580D01*
X118436189Y-56349580D02*
X118388570Y-56397200D01*
X118388570Y-56397200D02*
X118293332Y-56444819D01*
X118293332Y-56444819D02*
X118102856Y-56444819D01*
X118102856Y-56444819D02*
X118007618Y-56397200D01*
X118007618Y-56397200D02*
X117959999Y-56349580D01*
X117959999Y-56349580D02*
X117912380Y-56254342D01*
X117912380Y-56254342D02*
X117912380Y-56016247D01*
X117912380Y-56016247D02*
X117959999Y-55921009D01*
X117959999Y-55921009D02*
X118007618Y-55873390D01*
X118007618Y-55873390D02*
X118102856Y-55825771D01*
X118102856Y-55825771D02*
X118293332Y-55825771D01*
X118293332Y-55825771D02*
X118388570Y-55873390D01*
X118388570Y-55873390D02*
X118436189Y-55921009D01*
X118436189Y-55921009D02*
X118483808Y-56016247D01*
X117483808Y-56349580D02*
X117436189Y-56397200D01*
X117436189Y-56397200D02*
X117483808Y-56444819D01*
X117483808Y-56444819D02*
X117531427Y-56397200D01*
X117531427Y-56397200D02*
X117483808Y-56349580D01*
X117483808Y-56349580D02*
X117483808Y-56444819D01*
X116531428Y-55444819D02*
X117007618Y-55444819D01*
X117007618Y-55444819D02*
X117055237Y-55921009D01*
X117055237Y-55921009D02*
X117007618Y-55873390D01*
X117007618Y-55873390D02*
X116912380Y-55825771D01*
X116912380Y-55825771D02*
X116674285Y-55825771D01*
X116674285Y-55825771D02*
X116579047Y-55873390D01*
X116579047Y-55873390D02*
X116531428Y-55921009D01*
X116531428Y-55921009D02*
X116483809Y-56016247D01*
X116483809Y-56016247D02*
X116483809Y-56254342D01*
X116483809Y-56254342D02*
X116531428Y-56349580D01*
X116531428Y-56349580D02*
X116579047Y-56397200D01*
X116579047Y-56397200D02*
X116674285Y-56444819D01*
X116674285Y-56444819D02*
X116912380Y-56444819D01*
X116912380Y-56444819D02*
X117007618Y-56397200D01*
X117007618Y-56397200D02*
X117055237Y-56349580D01*
X125596666Y-53554819D02*
X126168094Y-53554819D01*
X125882380Y-53554819D02*
X125882380Y-52554819D01*
X125882380Y-52554819D02*
X125977618Y-52697676D01*
X125977618Y-52697676D02*
X126072856Y-52792914D01*
X126072856Y-52792914D02*
X126168094Y-52840533D01*
X124739523Y-52888152D02*
X124739523Y-53554819D01*
X125168094Y-52888152D02*
X125168094Y-53411961D01*
X125168094Y-53411961D02*
X125120475Y-53507200D01*
X125120475Y-53507200D02*
X125025237Y-53554819D01*
X125025237Y-53554819D02*
X124882380Y-53554819D01*
X124882380Y-53554819D02*
X124787142Y-53507200D01*
X124787142Y-53507200D02*
X124739523Y-53459580D01*
X132574285Y-76174819D02*
X132479047Y-76174819D01*
X132479047Y-76174819D02*
X132383809Y-76222438D01*
X132383809Y-76222438D02*
X132336190Y-76270057D01*
X132336190Y-76270057D02*
X132288571Y-76365295D01*
X132288571Y-76365295D02*
X132240952Y-76555771D01*
X132240952Y-76555771D02*
X132240952Y-76793866D01*
X132240952Y-76793866D02*
X132288571Y-76984342D01*
X132288571Y-76984342D02*
X132336190Y-77079580D01*
X132336190Y-77079580D02*
X132383809Y-77127200D01*
X132383809Y-77127200D02*
X132479047Y-77174819D01*
X132479047Y-77174819D02*
X132574285Y-77174819D01*
X132574285Y-77174819D02*
X132669523Y-77127200D01*
X132669523Y-77127200D02*
X132717142Y-77079580D01*
X132717142Y-77079580D02*
X132764761Y-76984342D01*
X132764761Y-76984342D02*
X132812380Y-76793866D01*
X132812380Y-76793866D02*
X132812380Y-76555771D01*
X132812380Y-76555771D02*
X132764761Y-76365295D01*
X132764761Y-76365295D02*
X132717142Y-76270057D01*
X132717142Y-76270057D02*
X132669523Y-76222438D01*
X132669523Y-76222438D02*
X132574285Y-76174819D01*
X131812380Y-77079580D02*
X131764761Y-77127200D01*
X131764761Y-77127200D02*
X131812380Y-77174819D01*
X131812380Y-77174819D02*
X131859999Y-77127200D01*
X131859999Y-77127200D02*
X131812380Y-77079580D01*
X131812380Y-77079580D02*
X131812380Y-77174819D01*
X130812381Y-77174819D02*
X131383809Y-77174819D01*
X131098095Y-77174819D02*
X131098095Y-76174819D01*
X131098095Y-76174819D02*
X131193333Y-76317676D01*
X131193333Y-76317676D02*
X131288571Y-76412914D01*
X131288571Y-76412914D02*
X131383809Y-76460533D01*
X129955238Y-76508152D02*
X129955238Y-77174819D01*
X130383809Y-76508152D02*
X130383809Y-77031961D01*
X130383809Y-77031961D02*
X130336190Y-77127200D01*
X130336190Y-77127200D02*
X130240952Y-77174819D01*
X130240952Y-77174819D02*
X130098095Y-77174819D01*
X130098095Y-77174819D02*
X130002857Y-77127200D01*
X130002857Y-77127200D02*
X129955238Y-77079580D01*
X192486666Y-65514819D02*
X193058094Y-65514819D01*
X192772380Y-65514819D02*
X192772380Y-64514819D01*
X192772380Y-64514819D02*
X192867618Y-64657676D01*
X192867618Y-64657676D02*
X192962856Y-64752914D01*
X192962856Y-64752914D02*
X193058094Y-64800533D01*
X191629523Y-64848152D02*
X191629523Y-65514819D01*
X192058094Y-64848152D02*
X192058094Y-65371961D01*
X192058094Y-65371961D02*
X192010475Y-65467200D01*
X192010475Y-65467200D02*
X191915237Y-65514819D01*
X191915237Y-65514819D02*
X191772380Y-65514819D01*
X191772380Y-65514819D02*
X191677142Y-65467200D01*
X191677142Y-65467200D02*
X191629523Y-65419580D01*
X123099047Y-71464819D02*
X123670475Y-71464819D01*
X123384761Y-71464819D02*
X123384761Y-70464819D01*
X123384761Y-70464819D02*
X123479999Y-70607676D01*
X123479999Y-70607676D02*
X123575237Y-70702914D01*
X123575237Y-70702914D02*
X123670475Y-70750533D01*
X122670475Y-71464819D02*
X122670475Y-70464819D01*
X122575237Y-71083866D02*
X122289523Y-71464819D01*
X122289523Y-70798152D02*
X122670475Y-71179104D01*
X140550475Y-118980057D02*
X140502856Y-118932438D01*
X140502856Y-118932438D02*
X140407618Y-118884819D01*
X140407618Y-118884819D02*
X140169523Y-118884819D01*
X140169523Y-118884819D02*
X140074285Y-118932438D01*
X140074285Y-118932438D02*
X140026666Y-118980057D01*
X140026666Y-118980057D02*
X139979047Y-119075295D01*
X139979047Y-119075295D02*
X139979047Y-119170533D01*
X139979047Y-119170533D02*
X140026666Y-119313390D01*
X140026666Y-119313390D02*
X140598094Y-119884819D01*
X140598094Y-119884819D02*
X139979047Y-119884819D01*
X139598094Y-118980057D02*
X139550475Y-118932438D01*
X139550475Y-118932438D02*
X139455237Y-118884819D01*
X139455237Y-118884819D02*
X139217142Y-118884819D01*
X139217142Y-118884819D02*
X139121904Y-118932438D01*
X139121904Y-118932438D02*
X139074285Y-118980057D01*
X139074285Y-118980057D02*
X139026666Y-119075295D01*
X139026666Y-119075295D02*
X139026666Y-119170533D01*
X139026666Y-119170533D02*
X139074285Y-119313390D01*
X139074285Y-119313390D02*
X139645713Y-119884819D01*
X139645713Y-119884819D02*
X139026666Y-119884819D01*
X138407618Y-118884819D02*
X138312380Y-118884819D01*
X138312380Y-118884819D02*
X138217142Y-118932438D01*
X138217142Y-118932438D02*
X138169523Y-118980057D01*
X138169523Y-118980057D02*
X138121904Y-119075295D01*
X138121904Y-119075295D02*
X138074285Y-119265771D01*
X138074285Y-119265771D02*
X138074285Y-119503866D01*
X138074285Y-119503866D02*
X138121904Y-119694342D01*
X138121904Y-119694342D02*
X138169523Y-119789580D01*
X138169523Y-119789580D02*
X138217142Y-119837200D01*
X138217142Y-119837200D02*
X138312380Y-119884819D01*
X138312380Y-119884819D02*
X138407618Y-119884819D01*
X138407618Y-119884819D02*
X138502856Y-119837200D01*
X138502856Y-119837200D02*
X138550475Y-119789580D01*
X138550475Y-119789580D02*
X138598094Y-119694342D01*
X138598094Y-119694342D02*
X138645713Y-119503866D01*
X138645713Y-119503866D02*
X138645713Y-119265771D01*
X138645713Y-119265771D02*
X138598094Y-119075295D01*
X138598094Y-119075295D02*
X138550475Y-118980057D01*
X138550475Y-118980057D02*
X138502856Y-118932438D01*
X138502856Y-118932438D02*
X138407618Y-118884819D01*
X137217142Y-119218152D02*
X137217142Y-119884819D01*
X137645713Y-119218152D02*
X137645713Y-119741961D01*
X137645713Y-119741961D02*
X137598094Y-119837200D01*
X137598094Y-119837200D02*
X137502856Y-119884819D01*
X137502856Y-119884819D02*
X137359999Y-119884819D01*
X137359999Y-119884819D02*
X137264761Y-119837200D01*
X137264761Y-119837200D02*
X137217142Y-119789580D01*
X125343808Y-47939818D02*
X124724761Y-47939818D01*
X124724761Y-47939818D02*
X125058094Y-48320770D01*
X125058094Y-48320770D02*
X124915237Y-48320770D01*
X124915237Y-48320770D02*
X124819999Y-48368389D01*
X124819999Y-48368389D02*
X124772380Y-48416008D01*
X124772380Y-48416008D02*
X124724761Y-48511246D01*
X124724761Y-48511246D02*
X124724761Y-48749341D01*
X124724761Y-48749341D02*
X124772380Y-48844579D01*
X124772380Y-48844579D02*
X124819999Y-48892199D01*
X124819999Y-48892199D02*
X124915237Y-48939818D01*
X124915237Y-48939818D02*
X125200951Y-48939818D01*
X125200951Y-48939818D02*
X125296189Y-48892199D01*
X125296189Y-48892199D02*
X125343808Y-48844579D01*
X123867618Y-47939818D02*
X124058094Y-47939818D01*
X124058094Y-47939818D02*
X124153332Y-47987437D01*
X124153332Y-47987437D02*
X124200951Y-48035056D01*
X124200951Y-48035056D02*
X124296189Y-48177913D01*
X124296189Y-48177913D02*
X124343808Y-48368389D01*
X124343808Y-48368389D02*
X124343808Y-48749341D01*
X124343808Y-48749341D02*
X124296189Y-48844579D01*
X124296189Y-48844579D02*
X124248570Y-48892199D01*
X124248570Y-48892199D02*
X124153332Y-48939818D01*
X124153332Y-48939818D02*
X123962856Y-48939818D01*
X123962856Y-48939818D02*
X123867618Y-48892199D01*
X123867618Y-48892199D02*
X123819999Y-48844579D01*
X123819999Y-48844579D02*
X123772380Y-48749341D01*
X123772380Y-48749341D02*
X123772380Y-48511246D01*
X123772380Y-48511246D02*
X123819999Y-48416008D01*
X123819999Y-48416008D02*
X123867618Y-48368389D01*
X123867618Y-48368389D02*
X123962856Y-48320770D01*
X123962856Y-48320770D02*
X124153332Y-48320770D01*
X124153332Y-48320770D02*
X124248570Y-48368389D01*
X124248570Y-48368389D02*
X124296189Y-48416008D01*
X124296189Y-48416008D02*
X124343808Y-48511246D01*
X123343808Y-48844579D02*
X123296189Y-48892199D01*
X123296189Y-48892199D02*
X123343808Y-48939818D01*
X123343808Y-48939818D02*
X123391427Y-48892199D01*
X123391427Y-48892199D02*
X123343808Y-48844579D01*
X123343808Y-48844579D02*
X123343808Y-48939818D01*
X122391428Y-47939818D02*
X122867618Y-47939818D01*
X122867618Y-47939818D02*
X122915237Y-48416008D01*
X122915237Y-48416008D02*
X122867618Y-48368389D01*
X122867618Y-48368389D02*
X122772380Y-48320770D01*
X122772380Y-48320770D02*
X122534285Y-48320770D01*
X122534285Y-48320770D02*
X122439047Y-48368389D01*
X122439047Y-48368389D02*
X122391428Y-48416008D01*
X122391428Y-48416008D02*
X122343809Y-48511246D01*
X122343809Y-48511246D02*
X122343809Y-48749341D01*
X122343809Y-48749341D02*
X122391428Y-48844579D01*
X122391428Y-48844579D02*
X122439047Y-48892199D01*
X122439047Y-48892199D02*
X122534285Y-48939818D01*
X122534285Y-48939818D02*
X122772380Y-48939818D01*
X122772380Y-48939818D02*
X122867618Y-48892199D01*
X122867618Y-48892199D02*
X122915237Y-48844579D01*
X148020057Y-127923333D02*
X147972438Y-127970952D01*
X147972438Y-127970952D02*
X147924819Y-128066190D01*
X147924819Y-128066190D02*
X147924819Y-128304285D01*
X147924819Y-128304285D02*
X147972438Y-128399523D01*
X147972438Y-128399523D02*
X148020057Y-128447142D01*
X148020057Y-128447142D02*
X148115295Y-128494761D01*
X148115295Y-128494761D02*
X148210533Y-128494761D01*
X148210533Y-128494761D02*
X148353390Y-128447142D01*
X148353390Y-128447142D02*
X148924819Y-127875714D01*
X148924819Y-127875714D02*
X148924819Y-128494761D01*
X147924819Y-129113809D02*
X147924819Y-129209047D01*
X147924819Y-129209047D02*
X147972438Y-129304285D01*
X147972438Y-129304285D02*
X148020057Y-129351904D01*
X148020057Y-129351904D02*
X148115295Y-129399523D01*
X148115295Y-129399523D02*
X148305771Y-129447142D01*
X148305771Y-129447142D02*
X148543866Y-129447142D01*
X148543866Y-129447142D02*
X148734342Y-129399523D01*
X148734342Y-129399523D02*
X148829580Y-129351904D01*
X148829580Y-129351904D02*
X148877200Y-129304285D01*
X148877200Y-129304285D02*
X148924819Y-129209047D01*
X148924819Y-129209047D02*
X148924819Y-129113809D01*
X148924819Y-129113809D02*
X148877200Y-129018571D01*
X148877200Y-129018571D02*
X148829580Y-128970952D01*
X148829580Y-128970952D02*
X148734342Y-128923333D01*
X148734342Y-128923333D02*
X148543866Y-128875714D01*
X148543866Y-128875714D02*
X148305771Y-128875714D01*
X148305771Y-128875714D02*
X148115295Y-128923333D01*
X148115295Y-128923333D02*
X148020057Y-128970952D01*
X148020057Y-128970952D02*
X147972438Y-129018571D01*
X147972438Y-129018571D02*
X147924819Y-129113809D01*
X148924819Y-129875714D02*
X147924819Y-129875714D01*
X148543866Y-129970952D02*
X148924819Y-130256666D01*
X148258152Y-130256666D02*
X148639104Y-129875714D01*
X124273333Y-110501009D02*
X124606666Y-110501009D01*
X124606666Y-111024819D02*
X124606666Y-110024819D01*
X124606666Y-110024819D02*
X124130476Y-110024819D01*
X123797142Y-110120057D02*
X123749523Y-110072438D01*
X123749523Y-110072438D02*
X123654285Y-110024819D01*
X123654285Y-110024819D02*
X123416190Y-110024819D01*
X123416190Y-110024819D02*
X123320952Y-110072438D01*
X123320952Y-110072438D02*
X123273333Y-110120057D01*
X123273333Y-110120057D02*
X123225714Y-110215295D01*
X123225714Y-110215295D02*
X123225714Y-110310533D01*
X123225714Y-110310533D02*
X123273333Y-110453390D01*
X123273333Y-110453390D02*
X123844761Y-111024819D01*
X123844761Y-111024819D02*
X123225714Y-111024819D01*
X149528152Y-81891428D02*
X150194819Y-81891428D01*
X149147200Y-81653333D02*
X149861485Y-81415238D01*
X149861485Y-81415238D02*
X149861485Y-82034285D01*
X150099580Y-82415238D02*
X150147200Y-82462857D01*
X150147200Y-82462857D02*
X150194819Y-82415238D01*
X150194819Y-82415238D02*
X150147200Y-82367619D01*
X150147200Y-82367619D02*
X150099580Y-82415238D01*
X150099580Y-82415238D02*
X150194819Y-82415238D01*
X149194819Y-82796190D02*
X149194819Y-83462856D01*
X149194819Y-83462856D02*
X150194819Y-83034285D01*
X150194819Y-83843809D02*
X149194819Y-83843809D01*
X149813866Y-83939047D02*
X150194819Y-84224761D01*
X149528152Y-84224761D02*
X149909104Y-83843809D01*
X188461428Y-60430057D02*
X188556666Y-60382438D01*
X188556666Y-60382438D02*
X188651904Y-60287200D01*
X188651904Y-60287200D02*
X188794761Y-60144342D01*
X188794761Y-60144342D02*
X188889999Y-60096723D01*
X188889999Y-60096723D02*
X188985237Y-60096723D01*
X188937618Y-60334819D02*
X189032856Y-60287200D01*
X189032856Y-60287200D02*
X189128094Y-60191961D01*
X189128094Y-60191961D02*
X189175713Y-60001485D01*
X189175713Y-60001485D02*
X189175713Y-59668152D01*
X189175713Y-59668152D02*
X189128094Y-59477676D01*
X189128094Y-59477676D02*
X189032856Y-59382438D01*
X189032856Y-59382438D02*
X188937618Y-59334819D01*
X188937618Y-59334819D02*
X188747142Y-59334819D01*
X188747142Y-59334819D02*
X188651904Y-59382438D01*
X188651904Y-59382438D02*
X188556666Y-59477676D01*
X188556666Y-59477676D02*
X188509047Y-59668152D01*
X188509047Y-59668152D02*
X188509047Y-60001485D01*
X188509047Y-60001485D02*
X188556666Y-60191961D01*
X188556666Y-60191961D02*
X188651904Y-60287200D01*
X188651904Y-60287200D02*
X188747142Y-60334819D01*
X188747142Y-60334819D02*
X188937618Y-60334819D01*
X187556666Y-60334819D02*
X188128094Y-60334819D01*
X187842380Y-60334819D02*
X187842380Y-59334819D01*
X187842380Y-59334819D02*
X187937618Y-59477676D01*
X187937618Y-59477676D02*
X188032856Y-59572914D01*
X188032856Y-59572914D02*
X188128094Y-59620533D01*
X186937618Y-59334819D02*
X186842380Y-59334819D01*
X186842380Y-59334819D02*
X186747142Y-59382438D01*
X186747142Y-59382438D02*
X186699523Y-59430057D01*
X186699523Y-59430057D02*
X186651904Y-59525295D01*
X186651904Y-59525295D02*
X186604285Y-59715771D01*
X186604285Y-59715771D02*
X186604285Y-59953866D01*
X186604285Y-59953866D02*
X186651904Y-60144342D01*
X186651904Y-60144342D02*
X186699523Y-60239580D01*
X186699523Y-60239580D02*
X186747142Y-60287200D01*
X186747142Y-60287200D02*
X186842380Y-60334819D01*
X186842380Y-60334819D02*
X186937618Y-60334819D01*
X186937618Y-60334819D02*
X187032856Y-60287200D01*
X187032856Y-60287200D02*
X187080475Y-60239580D01*
X187080475Y-60239580D02*
X187128094Y-60144342D01*
X187128094Y-60144342D02*
X187175713Y-59953866D01*
X187175713Y-59953866D02*
X187175713Y-59715771D01*
X187175713Y-59715771D02*
X187128094Y-59525295D01*
X187128094Y-59525295D02*
X187080475Y-59430057D01*
X187080475Y-59430057D02*
X187032856Y-59382438D01*
X187032856Y-59382438D02*
X186937618Y-59334819D01*
X124344819Y-78047143D02*
X124344819Y-77475715D01*
X124344819Y-77761429D02*
X123344819Y-77761429D01*
X123344819Y-77761429D02*
X123487676Y-77666191D01*
X123487676Y-77666191D02*
X123582914Y-77570953D01*
X123582914Y-77570953D02*
X123630533Y-77475715D01*
X123344819Y-78666191D02*
X123344819Y-78761429D01*
X123344819Y-78761429D02*
X123392438Y-78856667D01*
X123392438Y-78856667D02*
X123440057Y-78904286D01*
X123440057Y-78904286D02*
X123535295Y-78951905D01*
X123535295Y-78951905D02*
X123725771Y-78999524D01*
X123725771Y-78999524D02*
X123963866Y-78999524D01*
X123963866Y-78999524D02*
X124154342Y-78951905D01*
X124154342Y-78951905D02*
X124249580Y-78904286D01*
X124249580Y-78904286D02*
X124297200Y-78856667D01*
X124297200Y-78856667D02*
X124344819Y-78761429D01*
X124344819Y-78761429D02*
X124344819Y-78666191D01*
X124344819Y-78666191D02*
X124297200Y-78570953D01*
X124297200Y-78570953D02*
X124249580Y-78523334D01*
X124249580Y-78523334D02*
X124154342Y-78475715D01*
X124154342Y-78475715D02*
X123963866Y-78428096D01*
X123963866Y-78428096D02*
X123725771Y-78428096D01*
X123725771Y-78428096D02*
X123535295Y-78475715D01*
X123535295Y-78475715D02*
X123440057Y-78523334D01*
X123440057Y-78523334D02*
X123392438Y-78570953D01*
X123392438Y-78570953D02*
X123344819Y-78666191D01*
X123678152Y-79856667D02*
X124344819Y-79856667D01*
X123678152Y-79428096D02*
X124201961Y-79428096D01*
X124201961Y-79428096D02*
X124297200Y-79475715D01*
X124297200Y-79475715D02*
X124344819Y-79570953D01*
X124344819Y-79570953D02*
X124344819Y-79713810D01*
X124344819Y-79713810D02*
X124297200Y-79809048D01*
X124297200Y-79809048D02*
X124249580Y-79856667D01*
X111556666Y-65624819D02*
X112128094Y-65624819D01*
X111842380Y-65624819D02*
X111842380Y-64624819D01*
X111842380Y-64624819D02*
X111937618Y-64767676D01*
X111937618Y-64767676D02*
X112032856Y-64862914D01*
X112032856Y-64862914D02*
X112128094Y-64910533D01*
X110699523Y-64958152D02*
X110699523Y-65624819D01*
X111128094Y-64958152D02*
X111128094Y-65481961D01*
X111128094Y-65481961D02*
X111080475Y-65577200D01*
X111080475Y-65577200D02*
X110985237Y-65624819D01*
X110985237Y-65624819D02*
X110842380Y-65624819D01*
X110842380Y-65624819D02*
X110747142Y-65577200D01*
X110747142Y-65577200D02*
X110699523Y-65529580D01*
X129025238Y-39540057D02*
X129120476Y-39492438D01*
X129120476Y-39492438D02*
X129215714Y-39397200D01*
X129215714Y-39397200D02*
X129358571Y-39254342D01*
X129358571Y-39254342D02*
X129453809Y-39206723D01*
X129453809Y-39206723D02*
X129549047Y-39206723D01*
X129501428Y-39444819D02*
X129596666Y-39397200D01*
X129596666Y-39397200D02*
X129691904Y-39301961D01*
X129691904Y-39301961D02*
X129739523Y-39111485D01*
X129739523Y-39111485D02*
X129739523Y-38778152D01*
X129739523Y-38778152D02*
X129691904Y-38587676D01*
X129691904Y-38587676D02*
X129596666Y-38492438D01*
X129596666Y-38492438D02*
X129501428Y-38444819D01*
X129501428Y-38444819D02*
X129310952Y-38444819D01*
X129310952Y-38444819D02*
X129215714Y-38492438D01*
X129215714Y-38492438D02*
X129120476Y-38587676D01*
X129120476Y-38587676D02*
X129072857Y-38778152D01*
X129072857Y-38778152D02*
X129072857Y-39111485D01*
X129072857Y-39111485D02*
X129120476Y-39301961D01*
X129120476Y-39301961D02*
X129215714Y-39397200D01*
X129215714Y-39397200D02*
X129310952Y-39444819D01*
X129310952Y-39444819D02*
X129501428Y-39444819D01*
X128501428Y-38873390D02*
X128596666Y-38825771D01*
X128596666Y-38825771D02*
X128644285Y-38778152D01*
X128644285Y-38778152D02*
X128691904Y-38682914D01*
X128691904Y-38682914D02*
X128691904Y-38635295D01*
X128691904Y-38635295D02*
X128644285Y-38540057D01*
X128644285Y-38540057D02*
X128596666Y-38492438D01*
X128596666Y-38492438D02*
X128501428Y-38444819D01*
X128501428Y-38444819D02*
X128310952Y-38444819D01*
X128310952Y-38444819D02*
X128215714Y-38492438D01*
X128215714Y-38492438D02*
X128168095Y-38540057D01*
X128168095Y-38540057D02*
X128120476Y-38635295D01*
X128120476Y-38635295D02*
X128120476Y-38682914D01*
X128120476Y-38682914D02*
X128168095Y-38778152D01*
X128168095Y-38778152D02*
X128215714Y-38825771D01*
X128215714Y-38825771D02*
X128310952Y-38873390D01*
X128310952Y-38873390D02*
X128501428Y-38873390D01*
X128501428Y-38873390D02*
X128596666Y-38921009D01*
X128596666Y-38921009D02*
X128644285Y-38968628D01*
X128644285Y-38968628D02*
X128691904Y-39063866D01*
X128691904Y-39063866D02*
X128691904Y-39254342D01*
X128691904Y-39254342D02*
X128644285Y-39349580D01*
X128644285Y-39349580D02*
X128596666Y-39397200D01*
X128596666Y-39397200D02*
X128501428Y-39444819D01*
X128501428Y-39444819D02*
X128310952Y-39444819D01*
X128310952Y-39444819D02*
X128215714Y-39397200D01*
X128215714Y-39397200D02*
X128168095Y-39349580D01*
X128168095Y-39349580D02*
X128120476Y-39254342D01*
X128120476Y-39254342D02*
X128120476Y-39063866D01*
X128120476Y-39063866D02*
X128168095Y-38968628D01*
X128168095Y-38968628D02*
X128215714Y-38921009D01*
X128215714Y-38921009D02*
X128310952Y-38873390D01*
X152974819Y-128414761D02*
X152974819Y-127843333D01*
X152974819Y-128129047D02*
X151974819Y-128129047D01*
X151974819Y-128129047D02*
X152117676Y-128033809D01*
X152117676Y-128033809D02*
X152212914Y-127938571D01*
X152212914Y-127938571D02*
X152260533Y-127843333D01*
X151974819Y-129033809D02*
X151974819Y-129129047D01*
X151974819Y-129129047D02*
X152022438Y-129224285D01*
X152022438Y-129224285D02*
X152070057Y-129271904D01*
X152070057Y-129271904D02*
X152165295Y-129319523D01*
X152165295Y-129319523D02*
X152355771Y-129367142D01*
X152355771Y-129367142D02*
X152593866Y-129367142D01*
X152593866Y-129367142D02*
X152784342Y-129319523D01*
X152784342Y-129319523D02*
X152879580Y-129271904D01*
X152879580Y-129271904D02*
X152927200Y-129224285D01*
X152927200Y-129224285D02*
X152974819Y-129129047D01*
X152974819Y-129129047D02*
X152974819Y-129033809D01*
X152974819Y-129033809D02*
X152927200Y-128938571D01*
X152927200Y-128938571D02*
X152879580Y-128890952D01*
X152879580Y-128890952D02*
X152784342Y-128843333D01*
X152784342Y-128843333D02*
X152593866Y-128795714D01*
X152593866Y-128795714D02*
X152355771Y-128795714D01*
X152355771Y-128795714D02*
X152165295Y-128843333D01*
X152165295Y-128843333D02*
X152070057Y-128890952D01*
X152070057Y-128890952D02*
X152022438Y-128938571D01*
X152022438Y-128938571D02*
X151974819Y-129033809D01*
X152974819Y-129795714D02*
X151974819Y-129795714D01*
X152593866Y-129890952D02*
X152974819Y-130176666D01*
X152308152Y-130176666D02*
X152689104Y-129795714D01*
X120408929Y-60552556D02*
X120504167Y-60504937D01*
X120504167Y-60504937D02*
X120599405Y-60409699D01*
X120599405Y-60409699D02*
X120742262Y-60266841D01*
X120742262Y-60266841D02*
X120837500Y-60219222D01*
X120837500Y-60219222D02*
X120932738Y-60219222D01*
X120885119Y-60457318D02*
X120980357Y-60409699D01*
X120980357Y-60409699D02*
X121075595Y-60314460D01*
X121075595Y-60314460D02*
X121123214Y-60123984D01*
X121123214Y-60123984D02*
X121123214Y-59790651D01*
X121123214Y-59790651D02*
X121075595Y-59600175D01*
X121075595Y-59600175D02*
X120980357Y-59504937D01*
X120980357Y-59504937D02*
X120885119Y-59457318D01*
X120885119Y-59457318D02*
X120694643Y-59457318D01*
X120694643Y-59457318D02*
X120599405Y-59504937D01*
X120599405Y-59504937D02*
X120504167Y-59600175D01*
X120504167Y-59600175D02*
X120456548Y-59790651D01*
X120456548Y-59790651D02*
X120456548Y-60123984D01*
X120456548Y-60123984D02*
X120504167Y-60314460D01*
X120504167Y-60314460D02*
X120599405Y-60409699D01*
X120599405Y-60409699D02*
X120694643Y-60457318D01*
X120694643Y-60457318D02*
X120885119Y-60457318D01*
X119504167Y-60457318D02*
X120075595Y-60457318D01*
X119789881Y-60457318D02*
X119789881Y-59457318D01*
X119789881Y-59457318D02*
X119885119Y-59600175D01*
X119885119Y-59600175D02*
X119980357Y-59695413D01*
X119980357Y-59695413D02*
X120075595Y-59743032D01*
X118551786Y-60457318D02*
X119123214Y-60457318D01*
X118837500Y-60457318D02*
X118837500Y-59457318D01*
X118837500Y-59457318D02*
X118932738Y-59600175D01*
X118932738Y-59600175D02*
X119027976Y-59695413D01*
X119027976Y-59695413D02*
X119123214Y-59743032D01*
X118954166Y-51284819D02*
X119525594Y-51284819D01*
X119239880Y-51284819D02*
X119239880Y-50284819D01*
X119239880Y-50284819D02*
X119335118Y-50427676D01*
X119335118Y-50427676D02*
X119430356Y-50522914D01*
X119430356Y-50522914D02*
X119525594Y-50570533D01*
X118097023Y-50618152D02*
X118097023Y-51284819D01*
X118525594Y-50618152D02*
X118525594Y-51141961D01*
X118525594Y-51141961D02*
X118477975Y-51237200D01*
X118477975Y-51237200D02*
X118382737Y-51284819D01*
X118382737Y-51284819D02*
X118239880Y-51284819D01*
X118239880Y-51284819D02*
X118144642Y-51237200D01*
X118144642Y-51237200D02*
X118097023Y-51189580D01*
X187479047Y-65314819D02*
X188050475Y-65314819D01*
X187764761Y-65314819D02*
X187764761Y-64314819D01*
X187764761Y-64314819D02*
X187859999Y-64457676D01*
X187859999Y-64457676D02*
X187955237Y-64552914D01*
X187955237Y-64552914D02*
X188050475Y-64600533D01*
X187050475Y-65314819D02*
X187050475Y-64314819D01*
X186955237Y-64933866D02*
X186669523Y-65314819D01*
X186669523Y-64648152D02*
X187050475Y-65029104D01*
X175635238Y-46294819D02*
X176206666Y-46294819D01*
X175920952Y-46294819D02*
X175920952Y-45294819D01*
X175920952Y-45294819D02*
X176016190Y-45437676D01*
X176016190Y-45437676D02*
X176111428Y-45532914D01*
X176111428Y-45532914D02*
X176206666Y-45580533D01*
X175016190Y-45294819D02*
X174920952Y-45294819D01*
X174920952Y-45294819D02*
X174825714Y-45342438D01*
X174825714Y-45342438D02*
X174778095Y-45390057D01*
X174778095Y-45390057D02*
X174730476Y-45485295D01*
X174730476Y-45485295D02*
X174682857Y-45675771D01*
X174682857Y-45675771D02*
X174682857Y-45913866D01*
X174682857Y-45913866D02*
X174730476Y-46104342D01*
X174730476Y-46104342D02*
X174778095Y-46199580D01*
X174778095Y-46199580D02*
X174825714Y-46247200D01*
X174825714Y-46247200D02*
X174920952Y-46294819D01*
X174920952Y-46294819D02*
X175016190Y-46294819D01*
X175016190Y-46294819D02*
X175111428Y-46247200D01*
X175111428Y-46247200D02*
X175159047Y-46199580D01*
X175159047Y-46199580D02*
X175206666Y-46104342D01*
X175206666Y-46104342D02*
X175254285Y-45913866D01*
X175254285Y-45913866D02*
X175254285Y-45675771D01*
X175254285Y-45675771D02*
X175206666Y-45485295D01*
X175206666Y-45485295D02*
X175159047Y-45390057D01*
X175159047Y-45390057D02*
X175111428Y-45342438D01*
X175111428Y-45342438D02*
X175016190Y-45294819D01*
X174254285Y-46294819D02*
X174254285Y-45294819D01*
X174159047Y-45913866D02*
X173873333Y-46294819D01*
X173873333Y-45628152D02*
X174254285Y-46009104D01*
X192293808Y-68374819D02*
X191674761Y-68374819D01*
X191674761Y-68374819D02*
X192008094Y-68755771D01*
X192008094Y-68755771D02*
X191865237Y-68755771D01*
X191865237Y-68755771D02*
X191769999Y-68803390D01*
X191769999Y-68803390D02*
X191722380Y-68851009D01*
X191722380Y-68851009D02*
X191674761Y-68946247D01*
X191674761Y-68946247D02*
X191674761Y-69184342D01*
X191674761Y-69184342D02*
X191722380Y-69279580D01*
X191722380Y-69279580D02*
X191769999Y-69327200D01*
X191769999Y-69327200D02*
X191865237Y-69374819D01*
X191865237Y-69374819D02*
X192150951Y-69374819D01*
X192150951Y-69374819D02*
X192246189Y-69327200D01*
X192246189Y-69327200D02*
X192293808Y-69279580D01*
X190817618Y-68374819D02*
X191008094Y-68374819D01*
X191008094Y-68374819D02*
X191103332Y-68422438D01*
X191103332Y-68422438D02*
X191150951Y-68470057D01*
X191150951Y-68470057D02*
X191246189Y-68612914D01*
X191246189Y-68612914D02*
X191293808Y-68803390D01*
X191293808Y-68803390D02*
X191293808Y-69184342D01*
X191293808Y-69184342D02*
X191246189Y-69279580D01*
X191246189Y-69279580D02*
X191198570Y-69327200D01*
X191198570Y-69327200D02*
X191103332Y-69374819D01*
X191103332Y-69374819D02*
X190912856Y-69374819D01*
X190912856Y-69374819D02*
X190817618Y-69327200D01*
X190817618Y-69327200D02*
X190769999Y-69279580D01*
X190769999Y-69279580D02*
X190722380Y-69184342D01*
X190722380Y-69184342D02*
X190722380Y-68946247D01*
X190722380Y-68946247D02*
X190769999Y-68851009D01*
X190769999Y-68851009D02*
X190817618Y-68803390D01*
X190817618Y-68803390D02*
X190912856Y-68755771D01*
X190912856Y-68755771D02*
X191103332Y-68755771D01*
X191103332Y-68755771D02*
X191198570Y-68803390D01*
X191198570Y-68803390D02*
X191246189Y-68851009D01*
X191246189Y-68851009D02*
X191293808Y-68946247D01*
X190293808Y-69279580D02*
X190246189Y-69327200D01*
X190246189Y-69327200D02*
X190293808Y-69374819D01*
X190293808Y-69374819D02*
X190341427Y-69327200D01*
X190341427Y-69327200D02*
X190293808Y-69279580D01*
X190293808Y-69279580D02*
X190293808Y-69374819D01*
X189341428Y-68374819D02*
X189817618Y-68374819D01*
X189817618Y-68374819D02*
X189865237Y-68851009D01*
X189865237Y-68851009D02*
X189817618Y-68803390D01*
X189817618Y-68803390D02*
X189722380Y-68755771D01*
X189722380Y-68755771D02*
X189484285Y-68755771D01*
X189484285Y-68755771D02*
X189389047Y-68803390D01*
X189389047Y-68803390D02*
X189341428Y-68851009D01*
X189341428Y-68851009D02*
X189293809Y-68946247D01*
X189293809Y-68946247D02*
X189293809Y-69184342D01*
X189293809Y-69184342D02*
X189341428Y-69279580D01*
X189341428Y-69279580D02*
X189389047Y-69327200D01*
X189389047Y-69327200D02*
X189484285Y-69374819D01*
X189484285Y-69374819D02*
X189722380Y-69374819D01*
X189722380Y-69374819D02*
X189817618Y-69327200D01*
X189817618Y-69327200D02*
X189865237Y-69279580D01*
X190543808Y-55414819D02*
X189924761Y-55414819D01*
X189924761Y-55414819D02*
X190258094Y-55795771D01*
X190258094Y-55795771D02*
X190115237Y-55795771D01*
X190115237Y-55795771D02*
X190019999Y-55843390D01*
X190019999Y-55843390D02*
X189972380Y-55891009D01*
X189972380Y-55891009D02*
X189924761Y-55986247D01*
X189924761Y-55986247D02*
X189924761Y-56224342D01*
X189924761Y-56224342D02*
X189972380Y-56319580D01*
X189972380Y-56319580D02*
X190019999Y-56367200D01*
X190019999Y-56367200D02*
X190115237Y-56414819D01*
X190115237Y-56414819D02*
X190400951Y-56414819D01*
X190400951Y-56414819D02*
X190496189Y-56367200D01*
X190496189Y-56367200D02*
X190543808Y-56319580D01*
X189067618Y-55414819D02*
X189258094Y-55414819D01*
X189258094Y-55414819D02*
X189353332Y-55462438D01*
X189353332Y-55462438D02*
X189400951Y-55510057D01*
X189400951Y-55510057D02*
X189496189Y-55652914D01*
X189496189Y-55652914D02*
X189543808Y-55843390D01*
X189543808Y-55843390D02*
X189543808Y-56224342D01*
X189543808Y-56224342D02*
X189496189Y-56319580D01*
X189496189Y-56319580D02*
X189448570Y-56367200D01*
X189448570Y-56367200D02*
X189353332Y-56414819D01*
X189353332Y-56414819D02*
X189162856Y-56414819D01*
X189162856Y-56414819D02*
X189067618Y-56367200D01*
X189067618Y-56367200D02*
X189019999Y-56319580D01*
X189019999Y-56319580D02*
X188972380Y-56224342D01*
X188972380Y-56224342D02*
X188972380Y-55986247D01*
X188972380Y-55986247D02*
X189019999Y-55891009D01*
X189019999Y-55891009D02*
X189067618Y-55843390D01*
X189067618Y-55843390D02*
X189162856Y-55795771D01*
X189162856Y-55795771D02*
X189353332Y-55795771D01*
X189353332Y-55795771D02*
X189448570Y-55843390D01*
X189448570Y-55843390D02*
X189496189Y-55891009D01*
X189496189Y-55891009D02*
X189543808Y-55986247D01*
X188543808Y-56319580D02*
X188496189Y-56367200D01*
X188496189Y-56367200D02*
X188543808Y-56414819D01*
X188543808Y-56414819D02*
X188591427Y-56367200D01*
X188591427Y-56367200D02*
X188543808Y-56319580D01*
X188543808Y-56319580D02*
X188543808Y-56414819D01*
X187591428Y-55414819D02*
X188067618Y-55414819D01*
X188067618Y-55414819D02*
X188115237Y-55891009D01*
X188115237Y-55891009D02*
X188067618Y-55843390D01*
X188067618Y-55843390D02*
X187972380Y-55795771D01*
X187972380Y-55795771D02*
X187734285Y-55795771D01*
X187734285Y-55795771D02*
X187639047Y-55843390D01*
X187639047Y-55843390D02*
X187591428Y-55891009D01*
X187591428Y-55891009D02*
X187543809Y-55986247D01*
X187543809Y-55986247D02*
X187543809Y-56224342D01*
X187543809Y-56224342D02*
X187591428Y-56319580D01*
X187591428Y-56319580D02*
X187639047Y-56367200D01*
X187639047Y-56367200D02*
X187734285Y-56414819D01*
X187734285Y-56414819D02*
X187972380Y-56414819D01*
X187972380Y-56414819D02*
X188067618Y-56367200D01*
X188067618Y-56367200D02*
X188115237Y-56319580D01*
%TO.C,C3*%
D11*
X185456267Y-50290000D02*
X185163733Y-50290000D01*
X185456267Y-51310000D02*
X185163733Y-51310000D01*
%TO.C,C22*%
X166546267Y-99020000D02*
X166253733Y-99020000D01*
X166546267Y-100040000D02*
X166253733Y-100040000D01*
%TO.C,C17*%
X187650000Y-124048767D02*
X187650000Y-123756233D01*
X188670000Y-124048767D02*
X188670000Y-123756233D01*
%TO.C,C11*%
X185368767Y-52320000D02*
X185076233Y-52320000D01*
X185368767Y-53340000D02*
X185076233Y-53340000D01*
%TO.C,Q12*%
X113890000Y-70410000D02*
X113890000Y-71930000D01*
X113890000Y-71930000D02*
X114890000Y-71930000D01*
X113940000Y-70410000D02*
X113890000Y-70410000D01*
X115840000Y-70410000D02*
X115060000Y-70410000D01*
X116010000Y-71930000D02*
X117010000Y-71930000D01*
X117010000Y-70410000D02*
X116960000Y-70410000D01*
X117010000Y-71930000D02*
X117010000Y-70410000D01*
X115400000Y-70110000D02*
X115070000Y-69870000D01*
X115400000Y-69630000D01*
X115400000Y-70110000D01*
G36*
X115400000Y-70110000D02*
G01*
X115070000Y-69870000D01*
X115400000Y-69630000D01*
X115400000Y-70110000D01*
G37*
%TO.C,C8*%
X150050000Y-125473733D02*
X150050000Y-125766267D01*
X151070000Y-125473733D02*
X151070000Y-125766267D01*
%TO.C,R38*%
X118277500Y-70740276D02*
X118277500Y-71249724D01*
X119322500Y-70740276D02*
X119322500Y-71249724D01*
%TO.C,R3*%
X173315276Y-123217500D02*
X173824724Y-123217500D01*
X173315276Y-124262500D02*
X173824724Y-124262500D01*
%TO.C,Q9*%
X177000000Y-41220000D02*
X177000000Y-42740000D01*
X177000000Y-42740000D02*
X177050000Y-42740000D01*
X178000000Y-41220000D02*
X177000000Y-41220000D01*
X178170000Y-42740000D02*
X178950000Y-42740000D01*
X180070000Y-42740000D02*
X180120000Y-42740000D01*
X180120000Y-41220000D02*
X179120000Y-41220000D01*
X180120000Y-42740000D02*
X180120000Y-41220000D01*
X178940000Y-43280000D02*
X178610000Y-43520000D01*
X178610000Y-43040000D01*
X178940000Y-43280000D01*
G36*
X178940000Y-43280000D02*
G01*
X178610000Y-43520000D01*
X178610000Y-43040000D01*
X178940000Y-43280000D01*
G37*
%TO.C,R34*%
X128725276Y-44977500D02*
X129234724Y-44977500D01*
X128725276Y-46022500D02*
X129234724Y-46022500D01*
%TO.C,Q2*%
X193500000Y-71080000D02*
X193500000Y-72600000D01*
X193500000Y-72600000D02*
X194500000Y-72600000D01*
X193550000Y-71080000D02*
X193500000Y-71080000D01*
X195450000Y-71080000D02*
X194670000Y-71080000D01*
X195620000Y-72600000D02*
X196620000Y-72600000D01*
X196620000Y-71080000D02*
X196570000Y-71080000D01*
X196620000Y-72600000D02*
X196620000Y-71080000D01*
X195010000Y-70780000D02*
X194680000Y-70540000D01*
X195010000Y-70300000D01*
X195010000Y-70780000D01*
G36*
X195010000Y-70780000D02*
G01*
X194680000Y-70540000D01*
X195010000Y-70300000D01*
X195010000Y-70780000D01*
G37*
%TO.C,R9*%
X186734724Y-70447500D02*
X186225276Y-70447500D01*
X186734724Y-71492500D02*
X186225276Y-71492500D01*
%TO.C,F3*%
X117710000Y-63218748D02*
X117710000Y-63741252D01*
X119130000Y-63218748D02*
X119130000Y-63741252D01*
%TO.C,C16*%
X187700000Y-128293733D02*
X187700000Y-128586267D01*
X188720000Y-128293733D02*
X188720000Y-128586267D01*
%TO.C,D2*%
X146280000Y-115400000D02*
X153290000Y-115400000D01*
X146280000Y-118700000D02*
X146280000Y-115400000D01*
X146280000Y-118700000D02*
X153290000Y-118700000D01*
%TO.C,R36*%
X184764724Y-62447500D02*
X184255276Y-62447500D01*
X184764724Y-63492500D02*
X184255276Y-63492500D01*
%TO.C,R2*%
X185557500Y-124174724D02*
X185557500Y-123665276D01*
X186602500Y-124174724D02*
X186602500Y-123665276D01*
%TO.C,R37*%
X123775276Y-62817500D02*
X124284724Y-62817500D01*
X123775276Y-63862500D02*
X124284724Y-63862500D01*
%TO.C,R4*%
X188860000Y-88290000D02*
X188860000Y-88400000D01*
X188860000Y-100650000D02*
X188860000Y-100540000D01*
X186490000Y-88400000D02*
X191230000Y-88400000D01*
X191230000Y-100540000D01*
X186490000Y-100540000D01*
X186490000Y-88400000D01*
%TO.C,C21*%
X140156267Y-100560000D02*
X139863733Y-100560000D01*
X140156267Y-101580000D02*
X139863733Y-101580000D01*
%TO.C,R21*%
X123765276Y-64277500D02*
X124274724Y-64277500D01*
X123765276Y-65322500D02*
X124274724Y-65322500D01*
%TO.C,R24*%
X141567500Y-79357224D02*
X141567500Y-78847776D01*
X142612500Y-79357224D02*
X142612500Y-78847776D01*
%TO.C,R33*%
X185587500Y-128165276D02*
X185587500Y-128674724D01*
X186632500Y-128165276D02*
X186632500Y-128674724D01*
%TO.C,R32*%
X186225276Y-66687500D02*
X186734724Y-66687500D01*
X186225276Y-67732500D02*
X186734724Y-67732500D01*
%TO.C,R15*%
X128725276Y-46847500D02*
X129234724Y-46847500D01*
X128725276Y-47892500D02*
X129234724Y-47892500D01*
%TO.C,R23*%
X144087500Y-79314724D02*
X144087500Y-78805276D01*
X145132500Y-79314724D02*
X145132500Y-78805276D01*
%TO.C,R5*%
X146717500Y-79334724D02*
X146717500Y-78825276D01*
X147762500Y-79334724D02*
X147762500Y-78825276D01*
%TO.C,C4*%
X123750000Y-84373733D02*
X123750000Y-84666267D01*
X124770000Y-84373733D02*
X124770000Y-84666267D01*
%TO.C,R17*%
X178354724Y-47237500D02*
X177845276Y-47237500D01*
X178354724Y-48282500D02*
X177845276Y-48282500D01*
%TO.C,R18*%
X185293737Y-44885000D02*
X183846263Y-44885000D01*
X185293737Y-47595000D02*
X183846263Y-47595000D01*
%TO.C,R29*%
X111423737Y-68385000D02*
X109976263Y-68385000D01*
X111423737Y-71095000D02*
X109976263Y-71095000D01*
%TO.C,C5*%
X127138748Y-82540000D02*
X128561252Y-82540000D01*
X127138748Y-85260000D02*
X128561252Y-85260000D01*
%TO.C,C9*%
X165740000Y-122999544D02*
X165740000Y-122707010D01*
X166760000Y-122999544D02*
X166760000Y-122707010D01*
%TO.C,R22*%
X121976263Y-54625000D02*
X123423737Y-54625000D01*
X121976263Y-57335000D02*
X123423737Y-57335000D01*
%TO.C,C12*%
X121853733Y-52520000D02*
X122146267Y-52520000D01*
X121853733Y-53540000D02*
X122146267Y-53540000D01*
%TO.C,C6*%
X131180000Y-78963733D02*
X131180000Y-79256267D01*
X132200000Y-78963733D02*
X132200000Y-79256267D01*
%TO.C,C1*%
X192193733Y-66230000D02*
X192486267Y-66230000D01*
X192193733Y-67250000D02*
X192486267Y-67250000D01*
%TO.C,R28*%
X120427500Y-70745276D02*
X120427500Y-71254724D01*
X121472500Y-70745276D02*
X121472500Y-71254724D01*
%TO.C,C10*%
X134440000Y-123228000D02*
X134440000Y-124032000D01*
X134480000Y-122997000D02*
X134480000Y-124263000D01*
X134520000Y-122829000D02*
X134520000Y-124431000D01*
X134560000Y-122691000D02*
X134560000Y-124569000D01*
X134600000Y-122572000D02*
X134600000Y-124688000D01*
X134640000Y-122465000D02*
X134640000Y-124795000D01*
X134680000Y-122369000D02*
X134680000Y-124891000D01*
X134720000Y-122280000D02*
X134720000Y-124980000D01*
X134760000Y-122198000D02*
X134760000Y-125062000D01*
X134800000Y-122121000D02*
X134800000Y-125139000D01*
X134840000Y-122049000D02*
X134840000Y-125211000D01*
X134880000Y-121981000D02*
X134880000Y-125279000D01*
X134920000Y-121916000D02*
X134920000Y-125344000D01*
X134960000Y-121855000D02*
X134960000Y-125405000D01*
X135000000Y-121796000D02*
X135000000Y-125464000D01*
X135040000Y-121740000D02*
X135040000Y-125520000D01*
X135080000Y-121687000D02*
X135080000Y-125573000D01*
X135120000Y-121635000D02*
X135120000Y-125625000D01*
X135160000Y-121586000D02*
X135160000Y-125674000D01*
X135200000Y-121539000D02*
X135200000Y-125721000D01*
X135240000Y-121493000D02*
X135240000Y-125767000D01*
X135280000Y-121449000D02*
X135280000Y-125811000D01*
X135320000Y-121407000D02*
X135320000Y-125853000D01*
X135360000Y-121366000D02*
X135360000Y-125894000D01*
X135400000Y-121326000D02*
X135400000Y-122590000D01*
X135400000Y-124670000D02*
X135400000Y-125934000D01*
X135440000Y-121288000D02*
X135440000Y-122590000D01*
X135440000Y-124670000D02*
X135440000Y-125972000D01*
X135480000Y-121251000D02*
X135480000Y-122590000D01*
X135480000Y-124670000D02*
X135480000Y-126009000D01*
X135520000Y-121215000D02*
X135520000Y-122590000D01*
X135520000Y-124670000D02*
X135520000Y-126045000D01*
X135560000Y-121180000D02*
X135560000Y-122590000D01*
X135560000Y-124670000D02*
X135560000Y-126080000D01*
X135600000Y-121147000D02*
X135600000Y-122590000D01*
X135600000Y-124670000D02*
X135600000Y-126113000D01*
X135640000Y-121114000D02*
X135640000Y-122590000D01*
X135640000Y-124670000D02*
X135640000Y-126146000D01*
X135680000Y-121083000D02*
X135680000Y-122590000D01*
X135680000Y-124670000D02*
X135680000Y-126177000D01*
X135720000Y-121053000D02*
X135720000Y-122590000D01*
X135720000Y-124670000D02*
X135720000Y-126207000D01*
X135760000Y-121023000D02*
X135760000Y-122590000D01*
X135760000Y-124670000D02*
X135760000Y-126237000D01*
X135800000Y-120994000D02*
X135800000Y-122590000D01*
X135800000Y-124670000D02*
X135800000Y-126266000D01*
X135840000Y-120967000D02*
X135840000Y-122590000D01*
X135840000Y-124670000D02*
X135840000Y-126293000D01*
X135880000Y-120940000D02*
X135880000Y-122590000D01*
X135880000Y-124670000D02*
X135880000Y-126320000D01*
X135920000Y-120914000D02*
X135920000Y-122590000D01*
X135920000Y-124670000D02*
X135920000Y-126346000D01*
X135960000Y-120889000D02*
X135960000Y-122590000D01*
X135960000Y-124670000D02*
X135960000Y-126371000D01*
X136000000Y-120865000D02*
X136000000Y-122590000D01*
X136000000Y-124670000D02*
X136000000Y-126395000D01*
X136040000Y-120841000D02*
X136040000Y-122590000D01*
X136040000Y-124670000D02*
X136040000Y-126419000D01*
X136080000Y-120818000D02*
X136080000Y-122590000D01*
X136080000Y-124670000D02*
X136080000Y-126442000D01*
X136120000Y-120796000D02*
X136120000Y-122590000D01*
X136120000Y-124670000D02*
X136120000Y-126464000D01*
X136160000Y-120775000D02*
X136160000Y-122590000D01*
X136160000Y-124670000D02*
X136160000Y-126485000D01*
X136200000Y-120754000D02*
X136200000Y-122590000D01*
X136200000Y-124670000D02*
X136200000Y-126506000D01*
X136240000Y-120734000D02*
X136240000Y-122590000D01*
X136240000Y-124670000D02*
X136240000Y-126526000D01*
X136280000Y-120715000D02*
X136280000Y-122590000D01*
X136280000Y-124670000D02*
X136280000Y-126545000D01*
X136320000Y-120696000D02*
X136320000Y-122590000D01*
X136320000Y-124670000D02*
X136320000Y-126564000D01*
X136360000Y-120678000D02*
X136360000Y-122590000D01*
X136360000Y-124670000D02*
X136360000Y-126582000D01*
X136400000Y-120661000D02*
X136400000Y-122590000D01*
X136400000Y-124670000D02*
X136400000Y-126599000D01*
X136440000Y-120644000D02*
X136440000Y-122590000D01*
X136440000Y-124670000D02*
X136440000Y-126616000D01*
X136480000Y-120628000D02*
X136480000Y-122590000D01*
X136480000Y-124670000D02*
X136480000Y-126632000D01*
X136520000Y-120613000D02*
X136520000Y-122590000D01*
X136520000Y-124670000D02*
X136520000Y-126647000D01*
X136560000Y-120598000D02*
X136560000Y-122590000D01*
X136560000Y-124670000D02*
X136560000Y-126662000D01*
X136600000Y-120583000D02*
X136600000Y-122590000D01*
X136600000Y-124670000D02*
X136600000Y-126677000D01*
X136640000Y-120570000D02*
X136640000Y-122590000D01*
X136640000Y-124670000D02*
X136640000Y-126690000D01*
X136680000Y-120557000D02*
X136680000Y-122590000D01*
X136680000Y-124670000D02*
X136680000Y-126703000D01*
X136720000Y-120544000D02*
X136720000Y-122590000D01*
X136720000Y-124670000D02*
X136720000Y-126716000D01*
X136760000Y-120532000D02*
X136760000Y-122590000D01*
X136760000Y-124670000D02*
X136760000Y-126728000D01*
X136800000Y-120521000D02*
X136800000Y-122590000D01*
X136800000Y-124670000D02*
X136800000Y-126739000D01*
X136840000Y-120510000D02*
X136840000Y-122590000D01*
X136840000Y-124670000D02*
X136840000Y-126750000D01*
X136880000Y-120499000D02*
X136880000Y-122590000D01*
X136880000Y-124670000D02*
X136880000Y-126761000D01*
X136920000Y-120490000D02*
X136920000Y-122590000D01*
X136920000Y-124670000D02*
X136920000Y-126770000D01*
X136960000Y-120480000D02*
X136960000Y-122590000D01*
X136960000Y-124670000D02*
X136960000Y-126780000D01*
X137000000Y-120471000D02*
X137000000Y-122590000D01*
X137000000Y-124670000D02*
X137000000Y-126789000D01*
X137040000Y-120463000D02*
X137040000Y-122590000D01*
X137040000Y-124670000D02*
X137040000Y-126797000D01*
X137080000Y-120456000D02*
X137080000Y-122590000D01*
X137080000Y-124670000D02*
X137080000Y-126804000D01*
X137120000Y-120448000D02*
X137120000Y-122590000D01*
X137120000Y-124670000D02*
X137120000Y-126812000D01*
X137160000Y-120442000D02*
X137160000Y-122590000D01*
X137160000Y-124670000D02*
X137160000Y-126818000D01*
X137200000Y-120435000D02*
X137200000Y-122590000D01*
X137200000Y-124670000D02*
X137200000Y-126825000D01*
X137240000Y-120430000D02*
X137240000Y-122590000D01*
X137240000Y-124670000D02*
X137240000Y-126830000D01*
X137280000Y-120425000D02*
X137280000Y-122590000D01*
X137280000Y-124670000D02*
X137280000Y-126835000D01*
X137320000Y-120420000D02*
X137320000Y-122590000D01*
X137320000Y-124670000D02*
X137320000Y-126840000D01*
X137360000Y-120416000D02*
X137360000Y-122590000D01*
X137360000Y-124670000D02*
X137360000Y-126844000D01*
X137400000Y-120412000D02*
X137400000Y-122590000D01*
X137400000Y-124670000D02*
X137400000Y-126848000D01*
X137440000Y-120409000D02*
X137440000Y-122590000D01*
X137440000Y-124670000D02*
X137440000Y-126851000D01*
X137480000Y-120406000D02*
X137480000Y-126854000D01*
X137520000Y-120404000D02*
X137520000Y-126856000D01*
X137560000Y-120402000D02*
X137560000Y-126858000D01*
X137600000Y-120401000D02*
X137600000Y-126859000D01*
X137640000Y-120400000D02*
X137640000Y-126860000D01*
X137680000Y-120400000D02*
X137680000Y-126860000D01*
X140865241Y-121476000D02*
X140865241Y-122106000D01*
X141180241Y-121791000D02*
X140550241Y-121791000D01*
X140950000Y-123630000D02*
G75*
G02*
X134410000Y-123630000I-3270000J0D01*
G01*
X134410000Y-123630000D02*
G75*
G02*
X140950000Y-123630000I3270000J0D01*
G01*
%TO.C,R16*%
X122415000Y-45763737D02*
X122415000Y-44316263D01*
X125125000Y-45763737D02*
X125125000Y-44316263D01*
%TO.C,R6*%
X147926681Y-125879724D02*
X147926681Y-125370276D01*
X148971681Y-125879724D02*
X148971681Y-125370276D01*
%TO.C,F2*%
X115325000Y-115400000D02*
X115325000Y-105680000D01*
X115940000Y-105680000D02*
X115325000Y-105680000D01*
X115940000Y-115400000D02*
X115325000Y-115400000D01*
X121640000Y-105680000D02*
X122255000Y-105680000D01*
X121640000Y-115400000D02*
X122255000Y-115400000D01*
X122255000Y-115400000D02*
X122255000Y-105680000D01*
%TO.C,R30*%
X149207500Y-79434724D02*
X149207500Y-78925276D01*
X150252500Y-79434724D02*
X150252500Y-78925276D01*
%TO.C,Q10*%
X182970000Y-59100000D02*
X182970000Y-60620000D01*
X182970000Y-60620000D02*
X183020000Y-60620000D01*
X183970000Y-59100000D02*
X182970000Y-59100000D01*
X184140000Y-60620000D02*
X184920000Y-60620000D01*
X186040000Y-60620000D02*
X186090000Y-60620000D01*
X186090000Y-59100000D02*
X185090000Y-59100000D01*
X186090000Y-60620000D02*
X186090000Y-59100000D01*
X184910000Y-61160000D02*
X184580000Y-61400000D01*
X184580000Y-60920000D01*
X184910000Y-61160000D01*
G36*
X184910000Y-61160000D02*
G01*
X184580000Y-61400000D01*
X184580000Y-60920000D01*
X184910000Y-61160000D01*
G37*
%TO.C,C7*%
X127921252Y-77320000D02*
X126498748Y-77320000D01*
X127921252Y-80040000D02*
X126498748Y-80040000D01*
%TO.C,C13*%
X111506267Y-66350000D02*
X111213733Y-66350000D01*
X111506267Y-67370000D02*
X111213733Y-67370000D01*
%TO.C,Q8*%
X127320000Y-41490000D02*
X127320000Y-43010000D01*
X127320000Y-43010000D02*
X127370000Y-43010000D01*
X128320000Y-41490000D02*
X127320000Y-41490000D01*
X128490000Y-43010000D02*
X129270000Y-43010000D01*
X130390000Y-43010000D02*
X130440000Y-43010000D01*
X130440000Y-41490000D02*
X129440000Y-41490000D01*
X130440000Y-43010000D02*
X130440000Y-41490000D01*
X129260000Y-43550000D02*
X128930000Y-43790000D01*
X128930000Y-43310000D01*
X129260000Y-43550000D01*
G36*
X129260000Y-43550000D02*
G01*
X128930000Y-43790000D01*
X128930000Y-43310000D01*
X129260000Y-43550000D01*
G37*
%TO.C,R7*%
X152007500Y-125879722D02*
X152007500Y-125370274D01*
X153052500Y-125879722D02*
X153052500Y-125370274D01*
%TO.C,Q11*%
X121570000Y-59230000D02*
X121570000Y-60750000D01*
X121570000Y-60750000D02*
X121620000Y-60750000D01*
X122570000Y-59230000D02*
X121570000Y-59230000D01*
X122740000Y-60750000D02*
X123520000Y-60750000D01*
X124640000Y-60750000D02*
X124690000Y-60750000D01*
X124690000Y-59230000D02*
X123690000Y-59230000D01*
X124690000Y-60750000D02*
X124690000Y-59230000D01*
X123510000Y-61290000D02*
X123180000Y-61530000D01*
X123180000Y-61050000D01*
X123510000Y-61290000D01*
G36*
X123510000Y-61290000D02*
G01*
X123180000Y-61530000D01*
X123180000Y-61050000D01*
X123510000Y-61290000D01*
G37*
%TO.C,C2*%
X121871233Y-50370000D02*
X122163767Y-50370000D01*
X121871233Y-51390000D02*
X122163767Y-51390000D01*
%TO.C,R19*%
X184764724Y-64307500D02*
X184255276Y-64307500D01*
X184764724Y-65352500D02*
X184255276Y-65352500D01*
%TO.C,R35*%
X178404724Y-45287500D02*
X177895276Y-45287500D01*
X178404724Y-46332500D02*
X177895276Y-46332500D01*
%TO.C,R8*%
X189986263Y-70355000D02*
X191433737Y-70355000D01*
X189986263Y-73065000D02*
X191433737Y-73065000D01*
%TO.C,R20*%
X185173737Y-54555000D02*
X183726263Y-54555000D01*
X185173737Y-57265000D02*
X183726263Y-57265000D01*
%TD*%
M02*
