%TF.GenerationSoftware,KiCad,Pcbnew,10.0.1*%
%TF.CreationDate,2026-05-02T16:28:35+05:30*%
%TF.ProjectId,HSM_Project,48534d5f-5072-46f6-9a65-63742e6b6963,rev?*%
%TF.SameCoordinates,Original*%
%TF.FileFunction,Paste,Bot*%
%TF.FilePolarity,Positive*%
%FSLAX46Y46*%
G04 Gerber Fmt 4.6, Leading zero omitted, Abs format (unit mm)*
G04 Created by KiCad (PCBNEW 10.0.1) date 2026-05-02 16:28:35*
%MOMM*%
%LPD*%
G01*
G04 APERTURE LIST*
G04 Aperture macros list*
%AMRoundRect*
0 Rectangle with rounded corners*
0 $1 Rounding radius*
0 $2 $3 $4 $5 $6 $7 $8 $9 X,Y pos of 4 corners*
0 Add a 4 corners polygon primitive as box body*
4,1,4,$2,$3,$4,$5,$6,$7,$8,$9,$2,$3,0*
0 Add four circle primitives for the rounded corners*
1,1,$1+$1,$2,$3*
1,1,$1+$1,$4,$5*
1,1,$1+$1,$6,$7*
1,1,$1+$1,$8,$9*
0 Add four rect primitives between the rounded corners*
20,1,$1+$1,$2,$3,$4,$5,0*
20,1,$1+$1,$4,$5,$6,$7,0*
20,1,$1+$1,$6,$7,$8,$9,0*
20,1,$1+$1,$8,$9,$2,$3,0*%
G04 Aperture macros list end*
%ADD10RoundRect,0.237500X0.300000X0.237500X-0.300000X0.237500X-0.300000X-0.237500X0.300000X-0.237500X0*%
%ADD11RoundRect,0.237500X0.237500X-0.300000X0.237500X0.300000X-0.237500X0.300000X-0.237500X-0.300000X0*%
%ADD12RoundRect,0.237500X0.237500X-0.250000X0.237500X0.250000X-0.237500X0.250000X-0.237500X-0.250000X0*%
%ADD13RoundRect,0.237500X0.250000X0.237500X-0.250000X0.237500X-0.250000X-0.237500X0.250000X-0.237500X0*%
%ADD14RoundRect,0.150000X-0.150000X0.587500X-0.150000X-0.587500X0.150000X-0.587500X0.150000X0.587500X0*%
%ADD15RoundRect,0.237500X-0.008839X-0.344715X0.344715X0.008839X0.008839X0.344715X-0.344715X-0.008839X0*%
%ADD16RoundRect,0.237500X-0.237500X0.300000X-0.237500X-0.300000X0.237500X-0.300000X0.237500X0.300000X0*%
%ADD17RoundRect,0.237500X-0.237500X0.250000X-0.237500X-0.250000X0.237500X-0.250000X0.237500X0.250000X0*%
%ADD18RoundRect,0.237500X-0.250000X-0.237500X0.250000X-0.237500X0.250000X0.237500X-0.250000X0.237500X0*%
%ADD19RoundRect,0.150000X0.150000X-0.587500X0.150000X0.587500X-0.150000X0.587500X-0.150000X-0.587500X0*%
%ADD20RoundRect,0.250000X1.500000X0.650000X-1.500000X0.650000X-1.500000X-0.650000X1.500000X-0.650000X0*%
%ADD21RoundRect,0.237500X-0.300000X-0.237500X0.300000X-0.237500X0.300000X0.237500X-0.300000X0.237500X0*%
%ADD22RoundRect,0.250001X-0.462499X-0.624999X0.462499X-0.624999X0.462499X0.624999X-0.462499X0.624999X0*%
%ADD23RoundRect,0.237500X0.344715X-0.008839X-0.008839X0.344715X-0.344715X0.008839X0.008839X-0.344715X0*%
G04 APERTURE END LIST*
D10*
%TO.C,C3*%
X180857500Y-50250000D03*
X179132500Y-50250000D03*
%TD*%
D11*
%TO.C,C22*%
X168360000Y-102202500D03*
X168360000Y-100477500D03*
%TD*%
%TO.C,C17*%
X188160000Y-124765001D03*
X188160000Y-123039999D03*
%TD*%
D12*
%TO.C,R25*%
X153350000Y-100252500D03*
X153350000Y-98427500D03*
%TD*%
D10*
%TO.C,C11*%
X181062500Y-52770000D03*
X179337500Y-52770000D03*
%TD*%
D13*
%TO.C,R10*%
X188967500Y-76020000D03*
X187142500Y-76020000D03*
%TD*%
D14*
%TO.C,Q12*%
X114580000Y-71272500D03*
X116480000Y-71272500D03*
X115530000Y-73147500D03*
%TD*%
D15*
%TO.C,R11*%
X141144765Y-35685235D03*
X142435235Y-34394765D03*
%TD*%
D16*
%TO.C,C8*%
X151720000Y-124712500D03*
X151720000Y-126437500D03*
%TD*%
D17*
%TO.C,R38*%
X118800000Y-70082500D03*
X118800000Y-71907500D03*
%TD*%
D18*
%TO.C,R3*%
X173667500Y-124610000D03*
X175492500Y-124610000D03*
%TD*%
D19*
%TO.C,Q9*%
X177700000Y-45487500D03*
X175800000Y-45487500D03*
X176750000Y-43612500D03*
%TD*%
D18*
%TO.C,R34*%
X132312500Y-48480000D03*
X134137500Y-48480000D03*
%TD*%
D14*
%TO.C,Q2*%
X194110000Y-70902500D03*
X196010000Y-70902500D03*
X195060000Y-72777500D03*
%TD*%
D13*
%TO.C,R9*%
X188592497Y-73770000D03*
X186767497Y-73770000D03*
%TD*%
D16*
%TO.C,C16*%
X180840000Y-125265000D03*
X180840000Y-126990000D03*
%TD*%
D20*
%TO.C,D2*%
X149040000Y-121650000D03*
X144040000Y-121650000D03*
%TD*%
D13*
%TO.C,R36*%
X179717500Y-64950000D03*
X177892500Y-64950000D03*
%TD*%
D18*
%TO.C,R31*%
X118097500Y-75640000D03*
X119922500Y-75640000D03*
%TD*%
D12*
%TO.C,R2*%
X186080000Y-124832500D03*
X186080000Y-123007500D03*
%TD*%
D18*
%TO.C,R37*%
X127707501Y-66090000D03*
X129532501Y-66090000D03*
%TD*%
%TO.C,R13*%
X174117500Y-66950000D03*
X175942500Y-66950000D03*
%TD*%
D17*
%TO.C,R4*%
X170540000Y-121857500D03*
X170540000Y-123682500D03*
%TD*%
D11*
%TO.C,C21*%
X138120000Y-101202500D03*
X138120000Y-99477500D03*
%TD*%
D18*
%TO.C,R21*%
X127682500Y-68260000D03*
X129507500Y-68260000D03*
%TD*%
D12*
%TO.C,R24*%
X142040000Y-78507500D03*
X142040000Y-76682500D03*
%TD*%
D17*
%TO.C,R33*%
X183030000Y-125187654D03*
X183030000Y-127012654D03*
%TD*%
%TO.C,R26*%
X150930000Y-100227500D03*
X150930000Y-102052500D03*
%TD*%
D18*
%TO.C,R32*%
X186767500Y-71100000D03*
X188592500Y-71100000D03*
%TD*%
%TO.C,R15*%
X132347500Y-50770000D03*
X134172500Y-50770000D03*
%TD*%
D12*
%TO.C,R23*%
X144550000Y-78507500D03*
X144550000Y-76682500D03*
%TD*%
%TO.C,R5*%
X147200000Y-78527500D03*
X147200000Y-76702500D03*
%TD*%
D13*
%TO.C,R14*%
X134272500Y-68070000D03*
X132447500Y-68070000D03*
%TD*%
D16*
%TO.C,C4*%
X124279999Y-82997500D03*
X124279999Y-84722500D03*
%TD*%
D13*
%TO.C,R17*%
X174732500Y-50360000D03*
X172907500Y-50360000D03*
%TD*%
%TO.C,R18*%
X180922500Y-47832581D03*
X179097500Y-47832581D03*
%TD*%
%TO.C,R29*%
X111552500Y-73470000D03*
X109727500Y-73470000D03*
%TD*%
D16*
%TO.C,C5*%
X126190000Y-83007500D03*
X126190000Y-84732500D03*
%TD*%
D11*
%TO.C,C9*%
X166250000Y-123715777D03*
X166250000Y-121990777D03*
%TD*%
D18*
%TO.C,R22*%
X126602500Y-55820000D03*
X128427500Y-55820000D03*
%TD*%
D10*
%TO.C,C12*%
X126767500Y-53870000D03*
X125042500Y-53870000D03*
%TD*%
D16*
%TO.C,C6*%
X126270000Y-78395000D03*
X126270000Y-80120000D03*
%TD*%
D21*
%TO.C,C1*%
X190557500Y-68560000D03*
X192282500Y-68560000D03*
%TD*%
D17*
%TO.C,R28*%
X120950000Y-70087500D03*
X120950000Y-71912500D03*
%TD*%
D10*
%TO.C,C10*%
X148682500Y-118640000D03*
X146957500Y-118640000D03*
%TD*%
D18*
%TO.C,R16*%
X126802499Y-48390000D03*
X128627499Y-48390000D03*
%TD*%
D22*
%TO.C,F1*%
X136322500Y-114530000D03*
X139297500Y-114530000D03*
%TD*%
D12*
%TO.C,R6*%
X149609181Y-126492500D03*
X149609181Y-124667500D03*
%TD*%
%TO.C,R30*%
X149730000Y-78527500D03*
X149730000Y-76702500D03*
%TD*%
D19*
%TO.C,Q10*%
X180680000Y-61577500D03*
X178780000Y-61577500D03*
X179730000Y-59702500D03*
%TD*%
D16*
%TO.C,C7*%
X124150000Y-78385000D03*
X124150000Y-80110000D03*
%TD*%
D10*
%TO.C,C13*%
X111587500Y-71210000D03*
X109862500Y-71210000D03*
%TD*%
D19*
%TO.C,Q8*%
X131490000Y-45867500D03*
X129590000Y-45867500D03*
X130540000Y-43992500D03*
%TD*%
D12*
%TO.C,R7*%
X153690000Y-126492498D03*
X153690000Y-124667498D03*
%TD*%
D19*
%TO.C,Q11*%
X128542499Y-61025001D03*
X126642499Y-61025001D03*
X127592499Y-59150001D03*
%TD*%
D21*
%TO.C,C2*%
X126817499Y-50790000D03*
X128542499Y-50790000D03*
%TD*%
D13*
%TO.C,R19*%
X179702500Y-67440000D03*
X177877500Y-67440000D03*
%TD*%
%TO.C,R35*%
X174762500Y-48090000D03*
X172937500Y-48090000D03*
%TD*%
D18*
%TO.C,R8*%
X190467500Y-72640000D03*
X192292500Y-72640000D03*
%TD*%
D13*
%TO.C,R20*%
X181047500Y-54720000D03*
X179222500Y-54720000D03*
%TD*%
D23*
%TO.C,R12*%
X166451872Y-35731872D03*
X165161402Y-34441402D03*
%TD*%
M02*
