%TF.GenerationSoftware,KiCad,Pcbnew,10.0.1*%
%TF.CreationDate,2026-06-01T12:05:55+05:30*%
%TF.ProjectId,HSM_Project,48534d5f-5072-46f6-9a65-63742e6b6963,rev?*%
%TF.SameCoordinates,Original*%
%TF.FileFunction,Legend,Bot*%
%TF.FilePolarity,Positive*%
%FSLAX46Y46*%
G04 Gerber Fmt 4.6, Leading zero omitted, Abs format (unit mm)*
G04 Created by KiCad (PCBNEW 10.0.1) date 2026-06-01 12:05:55*
%MOMM*%
%LPD*%
G01*
G04 APERTURE LIST*
%ADD10C,0.150000*%
%ADD11C,0.120000*%
G04 APERTURE END LIST*
D10*
X176360000Y-105100000D02*
X191185000Y-105100000D01*
X191185000Y-116220000D01*
X176360000Y-116220000D01*
X176360000Y-105100000D01*
X142398458Y-77038771D02*
X142398458Y-76438771D01*
X142398458Y-76438771D02*
X142255601Y-76438771D01*
X142255601Y-76438771D02*
X142169887Y-76467342D01*
X142169887Y-76467342D02*
X142112744Y-76524485D01*
X142112744Y-76524485D02*
X142084173Y-76581628D01*
X142084173Y-76581628D02*
X142055601Y-76695914D01*
X142055601Y-76695914D02*
X142055601Y-76781628D01*
X142055601Y-76781628D02*
X142084173Y-76895914D01*
X142084173Y-76895914D02*
X142112744Y-76953057D01*
X142112744Y-76953057D02*
X142169887Y-77010200D01*
X142169887Y-77010200D02*
X142255601Y-77038771D01*
X142255601Y-77038771D02*
X142398458Y-77038771D01*
X141798458Y-77038771D02*
X141798458Y-76438771D01*
X141798458Y-76438771D02*
X141455601Y-77038771D01*
X141455601Y-77038771D02*
X141455601Y-76438771D01*
X141169887Y-77038771D02*
X141169887Y-76438771D01*
X141169887Y-76438771D02*
X140941316Y-76438771D01*
X140941316Y-76438771D02*
X140884173Y-76467342D01*
X140884173Y-76467342D02*
X140855602Y-76495914D01*
X140855602Y-76495914D02*
X140827030Y-76553057D01*
X140827030Y-76553057D02*
X140827030Y-76638771D01*
X140827030Y-76638771D02*
X140855602Y-76695914D01*
X140855602Y-76695914D02*
X140884173Y-76724485D01*
X140884173Y-76724485D02*
X140941316Y-76753057D01*
X140941316Y-76753057D02*
X141169887Y-76753057D01*
X145188458Y-77048771D02*
X145188458Y-76448771D01*
X145188458Y-76448771D02*
X145045601Y-76448771D01*
X145045601Y-76448771D02*
X144959887Y-76477342D01*
X144959887Y-76477342D02*
X144902744Y-76534485D01*
X144902744Y-76534485D02*
X144874173Y-76591628D01*
X144874173Y-76591628D02*
X144845601Y-76705914D01*
X144845601Y-76705914D02*
X144845601Y-76791628D01*
X144845601Y-76791628D02*
X144874173Y-76905914D01*
X144874173Y-76905914D02*
X144902744Y-76963057D01*
X144902744Y-76963057D02*
X144959887Y-77020200D01*
X144959887Y-77020200D02*
X145045601Y-77048771D01*
X145045601Y-77048771D02*
X145188458Y-77048771D01*
X144588458Y-77048771D02*
X144588458Y-76448771D01*
X144588458Y-76448771D02*
X144245601Y-77048771D01*
X144245601Y-77048771D02*
X144245601Y-76448771D01*
X143959887Y-77048771D02*
X143959887Y-76448771D01*
X143959887Y-76448771D02*
X143731316Y-76448771D01*
X143731316Y-76448771D02*
X143674173Y-76477342D01*
X143674173Y-76477342D02*
X143645602Y-76505914D01*
X143645602Y-76505914D02*
X143617030Y-76563057D01*
X143617030Y-76563057D02*
X143617030Y-76648771D01*
X143617030Y-76648771D02*
X143645602Y-76705914D01*
X143645602Y-76705914D02*
X143674173Y-76734485D01*
X143674173Y-76734485D02*
X143731316Y-76763057D01*
X143731316Y-76763057D02*
X143959887Y-76763057D01*
X147838458Y-77068771D02*
X147838458Y-76468771D01*
X147838458Y-76468771D02*
X147695601Y-76468771D01*
X147695601Y-76468771D02*
X147609887Y-76497342D01*
X147609887Y-76497342D02*
X147552744Y-76554485D01*
X147552744Y-76554485D02*
X147524173Y-76611628D01*
X147524173Y-76611628D02*
X147495601Y-76725914D01*
X147495601Y-76725914D02*
X147495601Y-76811628D01*
X147495601Y-76811628D02*
X147524173Y-76925914D01*
X147524173Y-76925914D02*
X147552744Y-76983057D01*
X147552744Y-76983057D02*
X147609887Y-77040200D01*
X147609887Y-77040200D02*
X147695601Y-77068771D01*
X147695601Y-77068771D02*
X147838458Y-77068771D01*
X147238458Y-77068771D02*
X147238458Y-76468771D01*
X147238458Y-76468771D02*
X146895601Y-77068771D01*
X146895601Y-77068771D02*
X146895601Y-76468771D01*
X146609887Y-77068771D02*
X146609887Y-76468771D01*
X146609887Y-76468771D02*
X146381316Y-76468771D01*
X146381316Y-76468771D02*
X146324173Y-76497342D01*
X146324173Y-76497342D02*
X146295602Y-76525914D01*
X146295602Y-76525914D02*
X146267030Y-76583057D01*
X146267030Y-76583057D02*
X146267030Y-76668771D01*
X146267030Y-76668771D02*
X146295602Y-76725914D01*
X146295602Y-76725914D02*
X146324173Y-76754485D01*
X146324173Y-76754485D02*
X146381316Y-76783057D01*
X146381316Y-76783057D02*
X146609887Y-76783057D01*
X150348458Y-77048771D02*
X150348458Y-76448771D01*
X150348458Y-76448771D02*
X150205601Y-76448771D01*
X150205601Y-76448771D02*
X150119887Y-76477342D01*
X150119887Y-76477342D02*
X150062744Y-76534485D01*
X150062744Y-76534485D02*
X150034173Y-76591628D01*
X150034173Y-76591628D02*
X150005601Y-76705914D01*
X150005601Y-76705914D02*
X150005601Y-76791628D01*
X150005601Y-76791628D02*
X150034173Y-76905914D01*
X150034173Y-76905914D02*
X150062744Y-76963057D01*
X150062744Y-76963057D02*
X150119887Y-77020200D01*
X150119887Y-77020200D02*
X150205601Y-77048771D01*
X150205601Y-77048771D02*
X150348458Y-77048771D01*
X149748458Y-77048771D02*
X149748458Y-76448771D01*
X149748458Y-76448771D02*
X149405601Y-77048771D01*
X149405601Y-77048771D02*
X149405601Y-76448771D01*
X149119887Y-77048771D02*
X149119887Y-76448771D01*
X149119887Y-76448771D02*
X148891316Y-76448771D01*
X148891316Y-76448771D02*
X148834173Y-76477342D01*
X148834173Y-76477342D02*
X148805602Y-76505914D01*
X148805602Y-76505914D02*
X148777030Y-76563057D01*
X148777030Y-76563057D02*
X148777030Y-76648771D01*
X148777030Y-76648771D02*
X148805602Y-76705914D01*
X148805602Y-76705914D02*
X148834173Y-76734485D01*
X148834173Y-76734485D02*
X148891316Y-76763057D01*
X148891316Y-76763057D02*
X149119887Y-76763057D01*
X190161792Y-106554748D02*
X190209411Y-106602368D01*
X190209411Y-106602368D02*
X190352268Y-106649987D01*
X190352268Y-106649987D02*
X190447506Y-106649987D01*
X190447506Y-106649987D02*
X190590363Y-106602368D01*
X190590363Y-106602368D02*
X190685601Y-106507129D01*
X190685601Y-106507129D02*
X190733220Y-106411891D01*
X190733220Y-106411891D02*
X190780839Y-106221415D01*
X190780839Y-106221415D02*
X190780839Y-106078558D01*
X190780839Y-106078558D02*
X190733220Y-105888082D01*
X190733220Y-105888082D02*
X190685601Y-105792844D01*
X190685601Y-105792844D02*
X190590363Y-105697606D01*
X190590363Y-105697606D02*
X190447506Y-105649987D01*
X190447506Y-105649987D02*
X190352268Y-105649987D01*
X190352268Y-105649987D02*
X190209411Y-105697606D01*
X190209411Y-105697606D02*
X190161792Y-105745225D01*
X189542744Y-105649987D02*
X189352268Y-105649987D01*
X189352268Y-105649987D02*
X189257030Y-105697606D01*
X189257030Y-105697606D02*
X189161792Y-105792844D01*
X189161792Y-105792844D02*
X189114173Y-105983320D01*
X189114173Y-105983320D02*
X189114173Y-106316653D01*
X189114173Y-106316653D02*
X189161792Y-106507129D01*
X189161792Y-106507129D02*
X189257030Y-106602368D01*
X189257030Y-106602368D02*
X189352268Y-106649987D01*
X189352268Y-106649987D02*
X189542744Y-106649987D01*
X189542744Y-106649987D02*
X189637982Y-106602368D01*
X189637982Y-106602368D02*
X189733220Y-106507129D01*
X189733220Y-106507129D02*
X189780839Y-106316653D01*
X189780839Y-106316653D02*
X189780839Y-105983320D01*
X189780839Y-105983320D02*
X189733220Y-105792844D01*
X189733220Y-105792844D02*
X189637982Y-105697606D01*
X189637982Y-105697606D02*
X189542744Y-105649987D01*
X188685601Y-106649987D02*
X188685601Y-105649987D01*
X188685601Y-105649987D02*
X188114173Y-106649987D01*
X188114173Y-106649987D02*
X188114173Y-105649987D01*
X187780839Y-105649987D02*
X187209411Y-105649987D01*
X187495125Y-106649987D02*
X187495125Y-105649987D01*
X186304649Y-106649987D02*
X186637982Y-106173796D01*
X186876077Y-106649987D02*
X186876077Y-105649987D01*
X186876077Y-105649987D02*
X186495125Y-105649987D01*
X186495125Y-105649987D02*
X186399887Y-105697606D01*
X186399887Y-105697606D02*
X186352268Y-105745225D01*
X186352268Y-105745225D02*
X186304649Y-105840463D01*
X186304649Y-105840463D02*
X186304649Y-105983320D01*
X186304649Y-105983320D02*
X186352268Y-106078558D01*
X186352268Y-106078558D02*
X186399887Y-106126177D01*
X186399887Y-106126177D02*
X186495125Y-106173796D01*
X186495125Y-106173796D02*
X186876077Y-106173796D01*
X185876077Y-106649987D02*
X185876077Y-105649987D01*
X185066554Y-106126177D02*
X184923697Y-106173796D01*
X184923697Y-106173796D02*
X184876078Y-106221415D01*
X184876078Y-106221415D02*
X184828459Y-106316653D01*
X184828459Y-106316653D02*
X184828459Y-106459510D01*
X184828459Y-106459510D02*
X184876078Y-106554748D01*
X184876078Y-106554748D02*
X184923697Y-106602368D01*
X184923697Y-106602368D02*
X185018935Y-106649987D01*
X185018935Y-106649987D02*
X185399887Y-106649987D01*
X185399887Y-106649987D02*
X185399887Y-105649987D01*
X185399887Y-105649987D02*
X185066554Y-105649987D01*
X185066554Y-105649987D02*
X184971316Y-105697606D01*
X184971316Y-105697606D02*
X184923697Y-105745225D01*
X184923697Y-105745225D02*
X184876078Y-105840463D01*
X184876078Y-105840463D02*
X184876078Y-105935701D01*
X184876078Y-105935701D02*
X184923697Y-106030939D01*
X184923697Y-106030939D02*
X184971316Y-106078558D01*
X184971316Y-106078558D02*
X185066554Y-106126177D01*
X185066554Y-106126177D02*
X185399887Y-106126177D01*
X184399887Y-105649987D02*
X184399887Y-106459510D01*
X184399887Y-106459510D02*
X184352268Y-106554748D01*
X184352268Y-106554748D02*
X184304649Y-106602368D01*
X184304649Y-106602368D02*
X184209411Y-106649987D01*
X184209411Y-106649987D02*
X184018935Y-106649987D01*
X184018935Y-106649987D02*
X183923697Y-106602368D01*
X183923697Y-106602368D02*
X183876078Y-106554748D01*
X183876078Y-106554748D02*
X183828459Y-106459510D01*
X183828459Y-106459510D02*
X183828459Y-105649987D01*
X183495125Y-105649987D02*
X182923697Y-105649987D01*
X183209411Y-106649987D02*
X183209411Y-105649987D01*
X182399887Y-105649987D02*
X182209411Y-105649987D01*
X182209411Y-105649987D02*
X182114173Y-105697606D01*
X182114173Y-105697606D02*
X182018935Y-105792844D01*
X182018935Y-105792844D02*
X181971316Y-105983320D01*
X181971316Y-105983320D02*
X181971316Y-106316653D01*
X181971316Y-106316653D02*
X182018935Y-106507129D01*
X182018935Y-106507129D02*
X182114173Y-106602368D01*
X182114173Y-106602368D02*
X182209411Y-106649987D01*
X182209411Y-106649987D02*
X182399887Y-106649987D01*
X182399887Y-106649987D02*
X182495125Y-106602368D01*
X182495125Y-106602368D02*
X182590363Y-106507129D01*
X182590363Y-106507129D02*
X182637982Y-106316653D01*
X182637982Y-106316653D02*
X182637982Y-105983320D01*
X182637982Y-105983320D02*
X182590363Y-105792844D01*
X182590363Y-105792844D02*
X182495125Y-105697606D01*
X182495125Y-105697606D02*
X182399887Y-105649987D01*
X180971316Y-106649987D02*
X181304649Y-106173796D01*
X181542744Y-106649987D02*
X181542744Y-105649987D01*
X181542744Y-105649987D02*
X181161792Y-105649987D01*
X181161792Y-105649987D02*
X181066554Y-105697606D01*
X181066554Y-105697606D02*
X181018935Y-105745225D01*
X181018935Y-105745225D02*
X180971316Y-105840463D01*
X180971316Y-105840463D02*
X180971316Y-105983320D01*
X180971316Y-105983320D02*
X181018935Y-106078558D01*
X181018935Y-106078558D02*
X181066554Y-106126177D01*
X181066554Y-106126177D02*
X181161792Y-106173796D01*
X181161792Y-106173796D02*
X181542744Y-106173796D01*
X180590363Y-106602368D02*
X180447506Y-106649987D01*
X180447506Y-106649987D02*
X180209411Y-106649987D01*
X180209411Y-106649987D02*
X180114173Y-106602368D01*
X180114173Y-106602368D02*
X180066554Y-106554748D01*
X180066554Y-106554748D02*
X180018935Y-106459510D01*
X180018935Y-106459510D02*
X180018935Y-106364272D01*
X180018935Y-106364272D02*
X180066554Y-106269034D01*
X180066554Y-106269034D02*
X180114173Y-106221415D01*
X180114173Y-106221415D02*
X180209411Y-106173796D01*
X180209411Y-106173796D02*
X180399887Y-106126177D01*
X180399887Y-106126177D02*
X180495125Y-106078558D01*
X180495125Y-106078558D02*
X180542744Y-106030939D01*
X180542744Y-106030939D02*
X180590363Y-105935701D01*
X180590363Y-105935701D02*
X180590363Y-105840463D01*
X180590363Y-105840463D02*
X180542744Y-105745225D01*
X180542744Y-105745225D02*
X180495125Y-105697606D01*
X180495125Y-105697606D02*
X180399887Y-105649987D01*
X180399887Y-105649987D02*
X180161792Y-105649987D01*
X180161792Y-105649987D02*
X180018935Y-105697606D01*
X179590363Y-106554748D02*
X179542744Y-106602368D01*
X179542744Y-106602368D02*
X179590363Y-106649987D01*
X179590363Y-106649987D02*
X179637982Y-106602368D01*
X179637982Y-106602368D02*
X179590363Y-106554748D01*
X179590363Y-106554748D02*
X179590363Y-106649987D01*
X179590363Y-106030939D02*
X179542744Y-106078558D01*
X179542744Y-106078558D02*
X179590363Y-106126177D01*
X179590363Y-106126177D02*
X179637982Y-106078558D01*
X179637982Y-106078558D02*
X179590363Y-106030939D01*
X179590363Y-106030939D02*
X179590363Y-106126177D01*
X190733220Y-108259931D02*
X190733220Y-107259931D01*
X190733220Y-107259931D02*
X190495125Y-107259931D01*
X190495125Y-107259931D02*
X190352268Y-107307550D01*
X190352268Y-107307550D02*
X190257030Y-107402788D01*
X190257030Y-107402788D02*
X190209411Y-107498026D01*
X190209411Y-107498026D02*
X190161792Y-107688502D01*
X190161792Y-107688502D02*
X190161792Y-107831359D01*
X190161792Y-107831359D02*
X190209411Y-108021835D01*
X190209411Y-108021835D02*
X190257030Y-108117073D01*
X190257030Y-108117073D02*
X190352268Y-108212312D01*
X190352268Y-108212312D02*
X190495125Y-108259931D01*
X190495125Y-108259931D02*
X190733220Y-108259931D01*
X189780839Y-107974216D02*
X189304649Y-107974216D01*
X189876077Y-108259931D02*
X189542744Y-107259931D01*
X189542744Y-107259931D02*
X189209411Y-108259931D01*
X188876077Y-108259931D02*
X188876077Y-107259931D01*
X188542744Y-107259931D02*
X188209411Y-108259931D01*
X188209411Y-108259931D02*
X187876078Y-107259931D01*
X187542744Y-108259931D02*
X187542744Y-107259931D01*
X187066554Y-108259931D02*
X187066554Y-107259931D01*
X186495126Y-108259931D02*
X186923697Y-107688502D01*
X186495126Y-107259931D02*
X187066554Y-107831359D01*
X185304649Y-108259931D02*
X185304649Y-107259931D01*
X185304649Y-107259931D02*
X184733221Y-108259931D01*
X184733221Y-108259931D02*
X184733221Y-107259931D01*
X184257030Y-107736121D02*
X183923697Y-107736121D01*
X183780840Y-108259931D02*
X184257030Y-108259931D01*
X184257030Y-108259931D02*
X184257030Y-107259931D01*
X184257030Y-107259931D02*
X183780840Y-107259931D01*
X183161792Y-107259931D02*
X182971316Y-107259931D01*
X182971316Y-107259931D02*
X182876078Y-107307550D01*
X182876078Y-107307550D02*
X182780840Y-107402788D01*
X182780840Y-107402788D02*
X182733221Y-107593264D01*
X182733221Y-107593264D02*
X182733221Y-107926597D01*
X182733221Y-107926597D02*
X182780840Y-108117073D01*
X182780840Y-108117073D02*
X182876078Y-108212312D01*
X182876078Y-108212312D02*
X182971316Y-108259931D01*
X182971316Y-108259931D02*
X183161792Y-108259931D01*
X183161792Y-108259931D02*
X183257030Y-108212312D01*
X183257030Y-108212312D02*
X183352268Y-108117073D01*
X183352268Y-108117073D02*
X183399887Y-107926597D01*
X183399887Y-107926597D02*
X183399887Y-107593264D01*
X183399887Y-107593264D02*
X183352268Y-107402788D01*
X183352268Y-107402788D02*
X183257030Y-107307550D01*
X183257030Y-107307550D02*
X183161792Y-107259931D01*
X181780840Y-107307550D02*
X181876078Y-107259931D01*
X181876078Y-107259931D02*
X182018935Y-107259931D01*
X182018935Y-107259931D02*
X182161792Y-107307550D01*
X182161792Y-107307550D02*
X182257030Y-107402788D01*
X182257030Y-107402788D02*
X182304649Y-107498026D01*
X182304649Y-107498026D02*
X182352268Y-107688502D01*
X182352268Y-107688502D02*
X182352268Y-107831359D01*
X182352268Y-107831359D02*
X182304649Y-108021835D01*
X182304649Y-108021835D02*
X182257030Y-108117073D01*
X182257030Y-108117073D02*
X182161792Y-108212312D01*
X182161792Y-108212312D02*
X182018935Y-108259931D01*
X182018935Y-108259931D02*
X181923697Y-108259931D01*
X181923697Y-108259931D02*
X181780840Y-108212312D01*
X181780840Y-108212312D02*
X181733221Y-108164692D01*
X181733221Y-108164692D02*
X181733221Y-107831359D01*
X181733221Y-107831359D02*
X181923697Y-107831359D01*
X181304649Y-108259931D02*
X181304649Y-107259931D01*
X190780839Y-109822256D02*
X190637982Y-109869875D01*
X190637982Y-109869875D02*
X190399887Y-109869875D01*
X190399887Y-109869875D02*
X190304649Y-109822256D01*
X190304649Y-109822256D02*
X190257030Y-109774636D01*
X190257030Y-109774636D02*
X190209411Y-109679398D01*
X190209411Y-109679398D02*
X190209411Y-109584160D01*
X190209411Y-109584160D02*
X190257030Y-109488922D01*
X190257030Y-109488922D02*
X190304649Y-109441303D01*
X190304649Y-109441303D02*
X190399887Y-109393684D01*
X190399887Y-109393684D02*
X190590363Y-109346065D01*
X190590363Y-109346065D02*
X190685601Y-109298446D01*
X190685601Y-109298446D02*
X190733220Y-109250827D01*
X190733220Y-109250827D02*
X190780839Y-109155589D01*
X190780839Y-109155589D02*
X190780839Y-109060351D01*
X190780839Y-109060351D02*
X190733220Y-108965113D01*
X190733220Y-108965113D02*
X190685601Y-108917494D01*
X190685601Y-108917494D02*
X190590363Y-108869875D01*
X190590363Y-108869875D02*
X190352268Y-108869875D01*
X190352268Y-108869875D02*
X190209411Y-108917494D01*
X189780839Y-108869875D02*
X189780839Y-109679398D01*
X189780839Y-109679398D02*
X189733220Y-109774636D01*
X189733220Y-109774636D02*
X189685601Y-109822256D01*
X189685601Y-109822256D02*
X189590363Y-109869875D01*
X189590363Y-109869875D02*
X189399887Y-109869875D01*
X189399887Y-109869875D02*
X189304649Y-109822256D01*
X189304649Y-109822256D02*
X189257030Y-109774636D01*
X189257030Y-109774636D02*
X189209411Y-109679398D01*
X189209411Y-109679398D02*
X189209411Y-108869875D01*
X188876077Y-108869875D02*
X188304649Y-108869875D01*
X188590363Y-109869875D02*
X188590363Y-108869875D01*
X187971315Y-109346065D02*
X187637982Y-109346065D01*
X187495125Y-109869875D02*
X187971315Y-109869875D01*
X187971315Y-109869875D02*
X187971315Y-108869875D01*
X187971315Y-108869875D02*
X187495125Y-108869875D01*
X186780839Y-108869875D02*
X186780839Y-109584160D01*
X186780839Y-109584160D02*
X186828458Y-109727017D01*
X186828458Y-109727017D02*
X186923696Y-109822256D01*
X186923696Y-109822256D02*
X187066553Y-109869875D01*
X187066553Y-109869875D02*
X187161791Y-109869875D01*
X185590362Y-109822256D02*
X185447505Y-109869875D01*
X185447505Y-109869875D02*
X185209410Y-109869875D01*
X185209410Y-109869875D02*
X185114172Y-109822256D01*
X185114172Y-109822256D02*
X185066553Y-109774636D01*
X185066553Y-109774636D02*
X185018934Y-109679398D01*
X185018934Y-109679398D02*
X185018934Y-109584160D01*
X185018934Y-109584160D02*
X185066553Y-109488922D01*
X185066553Y-109488922D02*
X185114172Y-109441303D01*
X185114172Y-109441303D02*
X185209410Y-109393684D01*
X185209410Y-109393684D02*
X185399886Y-109346065D01*
X185399886Y-109346065D02*
X185495124Y-109298446D01*
X185495124Y-109298446D02*
X185542743Y-109250827D01*
X185542743Y-109250827D02*
X185590362Y-109155589D01*
X185590362Y-109155589D02*
X185590362Y-109060351D01*
X185590362Y-109060351D02*
X185542743Y-108965113D01*
X185542743Y-108965113D02*
X185495124Y-108917494D01*
X185495124Y-108917494D02*
X185399886Y-108869875D01*
X185399886Y-108869875D02*
X185161791Y-108869875D01*
X185161791Y-108869875D02*
X185018934Y-108917494D01*
X184590362Y-109869875D02*
X184590362Y-108869875D01*
X184590362Y-109346065D02*
X184018934Y-109346065D01*
X184018934Y-109869875D02*
X184018934Y-108869875D01*
X183542743Y-109346065D02*
X183209410Y-109346065D01*
X183066553Y-109869875D02*
X183542743Y-109869875D01*
X183542743Y-109869875D02*
X183542743Y-108869875D01*
X183542743Y-108869875D02*
X183066553Y-108869875D01*
X182780838Y-108869875D02*
X182209410Y-108869875D01*
X182495124Y-109869875D02*
X182495124Y-108869875D01*
X182018933Y-108869875D02*
X181447505Y-108869875D01*
X181733219Y-109869875D02*
X181733219Y-108869875D01*
X180923695Y-109393684D02*
X180923695Y-109869875D01*
X181257028Y-108869875D02*
X180923695Y-109393684D01*
X180923695Y-109393684D02*
X180590362Y-108869875D01*
X190733220Y-111479819D02*
X190733220Y-110479819D01*
X190161792Y-111479819D02*
X190590363Y-110908390D01*
X190161792Y-110479819D02*
X190733220Y-111051247D01*
X189780839Y-111194104D02*
X189304649Y-111194104D01*
X189876077Y-111479819D02*
X189542744Y-110479819D01*
X189542744Y-110479819D02*
X189209411Y-111479819D01*
X188876077Y-111479819D02*
X188876077Y-110479819D01*
X188876077Y-110479819D02*
X188495125Y-110479819D01*
X188495125Y-110479819D02*
X188399887Y-110527438D01*
X188399887Y-110527438D02*
X188352268Y-110575057D01*
X188352268Y-110575057D02*
X188304649Y-110670295D01*
X188304649Y-110670295D02*
X188304649Y-110813152D01*
X188304649Y-110813152D02*
X188352268Y-110908390D01*
X188352268Y-110908390D02*
X188399887Y-110956009D01*
X188399887Y-110956009D02*
X188495125Y-111003628D01*
X188495125Y-111003628D02*
X188876077Y-111003628D01*
X187876077Y-111479819D02*
X187876077Y-110479819D01*
X186923697Y-111479819D02*
X187399887Y-111479819D01*
X187399887Y-111479819D02*
X187399887Y-110479819D01*
X186590363Y-111479819D02*
X186590363Y-110479819D01*
X186590363Y-110479819D02*
X186257030Y-111194104D01*
X186257030Y-111194104D02*
X185923697Y-110479819D01*
X185923697Y-110479819D02*
X185923697Y-111479819D01*
X185447506Y-110956009D02*
X185114173Y-110956009D01*
X184971316Y-111479819D02*
X185447506Y-111479819D01*
X185447506Y-111479819D02*
X185447506Y-110479819D01*
X185447506Y-110479819D02*
X184971316Y-110479819D01*
X184542744Y-110956009D02*
X184209411Y-110956009D01*
X184066554Y-111479819D02*
X184542744Y-111479819D01*
X184542744Y-111479819D02*
X184542744Y-110479819D01*
X184542744Y-110479819D02*
X184066554Y-110479819D01*
X183780839Y-110479819D02*
X183209411Y-110479819D01*
X183495125Y-111479819D02*
X183495125Y-110479819D01*
X182161791Y-111432200D02*
X182018934Y-111479819D01*
X182018934Y-111479819D02*
X181780839Y-111479819D01*
X181780839Y-111479819D02*
X181685601Y-111432200D01*
X181685601Y-111432200D02*
X181637982Y-111384580D01*
X181637982Y-111384580D02*
X181590363Y-111289342D01*
X181590363Y-111289342D02*
X181590363Y-111194104D01*
X181590363Y-111194104D02*
X181637982Y-111098866D01*
X181637982Y-111098866D02*
X181685601Y-111051247D01*
X181685601Y-111051247D02*
X181780839Y-111003628D01*
X181780839Y-111003628D02*
X181971315Y-110956009D01*
X181971315Y-110956009D02*
X182066553Y-110908390D01*
X182066553Y-110908390D02*
X182114172Y-110860771D01*
X182114172Y-110860771D02*
X182161791Y-110765533D01*
X182161791Y-110765533D02*
X182161791Y-110670295D01*
X182161791Y-110670295D02*
X182114172Y-110575057D01*
X182114172Y-110575057D02*
X182066553Y-110527438D01*
X182066553Y-110527438D02*
X181971315Y-110479819D01*
X181971315Y-110479819D02*
X181733220Y-110479819D01*
X181733220Y-110479819D02*
X181590363Y-110527438D01*
X181161791Y-111479819D02*
X181161791Y-110479819D01*
X180685601Y-111479819D02*
X180685601Y-110479819D01*
X180685601Y-110479819D02*
X180114173Y-111479819D01*
X180114173Y-111479819D02*
X180114173Y-110479819D01*
X179114173Y-110527438D02*
X179209411Y-110479819D01*
X179209411Y-110479819D02*
X179352268Y-110479819D01*
X179352268Y-110479819D02*
X179495125Y-110527438D01*
X179495125Y-110527438D02*
X179590363Y-110622676D01*
X179590363Y-110622676D02*
X179637982Y-110717914D01*
X179637982Y-110717914D02*
X179685601Y-110908390D01*
X179685601Y-110908390D02*
X179685601Y-111051247D01*
X179685601Y-111051247D02*
X179637982Y-111241723D01*
X179637982Y-111241723D02*
X179590363Y-111336961D01*
X179590363Y-111336961D02*
X179495125Y-111432200D01*
X179495125Y-111432200D02*
X179352268Y-111479819D01*
X179352268Y-111479819D02*
X179257030Y-111479819D01*
X179257030Y-111479819D02*
X179114173Y-111432200D01*
X179114173Y-111432200D02*
X179066554Y-111384580D01*
X179066554Y-111384580D02*
X179066554Y-111051247D01*
X179066554Y-111051247D02*
X179257030Y-111051247D01*
X178637982Y-111479819D02*
X178637982Y-110479819D01*
X178637982Y-110956009D02*
X178066554Y-110956009D01*
X178066554Y-111479819D02*
X178066554Y-110479819D01*
X190833220Y-114439875D02*
X190833220Y-113439875D01*
X190833220Y-113439875D02*
X190595125Y-113439875D01*
X190595125Y-113439875D02*
X190452268Y-113487494D01*
X190452268Y-113487494D02*
X190357030Y-113582732D01*
X190357030Y-113582732D02*
X190309411Y-113677970D01*
X190309411Y-113677970D02*
X190261792Y-113868446D01*
X190261792Y-113868446D02*
X190261792Y-114011303D01*
X190261792Y-114011303D02*
X190309411Y-114201779D01*
X190309411Y-114201779D02*
X190357030Y-114297017D01*
X190357030Y-114297017D02*
X190452268Y-114392256D01*
X190452268Y-114392256D02*
X190595125Y-114439875D01*
X190595125Y-114439875D02*
X190833220Y-114439875D01*
X189833220Y-113916065D02*
X189499887Y-113916065D01*
X189357030Y-114439875D02*
X189833220Y-114439875D01*
X189833220Y-114439875D02*
X189833220Y-113439875D01*
X189833220Y-113439875D02*
X189357030Y-113439875D01*
X188976077Y-114392256D02*
X188833220Y-114439875D01*
X188833220Y-114439875D02*
X188595125Y-114439875D01*
X188595125Y-114439875D02*
X188499887Y-114392256D01*
X188499887Y-114392256D02*
X188452268Y-114344636D01*
X188452268Y-114344636D02*
X188404649Y-114249398D01*
X188404649Y-114249398D02*
X188404649Y-114154160D01*
X188404649Y-114154160D02*
X188452268Y-114058922D01*
X188452268Y-114058922D02*
X188499887Y-114011303D01*
X188499887Y-114011303D02*
X188595125Y-113963684D01*
X188595125Y-113963684D02*
X188785601Y-113916065D01*
X188785601Y-113916065D02*
X188880839Y-113868446D01*
X188880839Y-113868446D02*
X188928458Y-113820827D01*
X188928458Y-113820827D02*
X188976077Y-113725589D01*
X188976077Y-113725589D02*
X188976077Y-113630351D01*
X188976077Y-113630351D02*
X188928458Y-113535113D01*
X188928458Y-113535113D02*
X188880839Y-113487494D01*
X188880839Y-113487494D02*
X188785601Y-113439875D01*
X188785601Y-113439875D02*
X188547506Y-113439875D01*
X188547506Y-113439875D02*
X188404649Y-113487494D01*
X187976077Y-114439875D02*
X187976077Y-113439875D01*
X186976078Y-113487494D02*
X187071316Y-113439875D01*
X187071316Y-113439875D02*
X187214173Y-113439875D01*
X187214173Y-113439875D02*
X187357030Y-113487494D01*
X187357030Y-113487494D02*
X187452268Y-113582732D01*
X187452268Y-113582732D02*
X187499887Y-113677970D01*
X187499887Y-113677970D02*
X187547506Y-113868446D01*
X187547506Y-113868446D02*
X187547506Y-114011303D01*
X187547506Y-114011303D02*
X187499887Y-114201779D01*
X187499887Y-114201779D02*
X187452268Y-114297017D01*
X187452268Y-114297017D02*
X187357030Y-114392256D01*
X187357030Y-114392256D02*
X187214173Y-114439875D01*
X187214173Y-114439875D02*
X187118935Y-114439875D01*
X187118935Y-114439875D02*
X186976078Y-114392256D01*
X186976078Y-114392256D02*
X186928459Y-114344636D01*
X186928459Y-114344636D02*
X186928459Y-114011303D01*
X186928459Y-114011303D02*
X187118935Y-114011303D01*
X186499887Y-114439875D02*
X186499887Y-113439875D01*
X186499887Y-113439875D02*
X185928459Y-114439875D01*
X185928459Y-114439875D02*
X185928459Y-113439875D01*
X185452268Y-113916065D02*
X185118935Y-113916065D01*
X184976078Y-114439875D02*
X185452268Y-114439875D01*
X185452268Y-114439875D02*
X185452268Y-113439875D01*
X185452268Y-113439875D02*
X184976078Y-113439875D01*
X184547506Y-114439875D02*
X184547506Y-113439875D01*
X184547506Y-113439875D02*
X184309411Y-113439875D01*
X184309411Y-113439875D02*
X184166554Y-113487494D01*
X184166554Y-113487494D02*
X184071316Y-113582732D01*
X184071316Y-113582732D02*
X184023697Y-113677970D01*
X184023697Y-113677970D02*
X183976078Y-113868446D01*
X183976078Y-113868446D02*
X183976078Y-114011303D01*
X183976078Y-114011303D02*
X184023697Y-114201779D01*
X184023697Y-114201779D02*
X184071316Y-114297017D01*
X184071316Y-114297017D02*
X184166554Y-114392256D01*
X184166554Y-114392256D02*
X184309411Y-114439875D01*
X184309411Y-114439875D02*
X184547506Y-114439875D01*
X190976077Y-115049819D02*
X190404649Y-115049819D01*
X190690363Y-116049819D02*
X190690363Y-115049819D01*
X190071315Y-116049819D02*
X190071315Y-115049819D01*
X189595125Y-116049819D02*
X189595125Y-115049819D01*
X189595125Y-115049819D02*
X189261792Y-115764104D01*
X189261792Y-115764104D02*
X188928459Y-115049819D01*
X188928459Y-115049819D02*
X188928459Y-116049819D01*
X188452268Y-115526009D02*
X188118935Y-115526009D01*
X187976078Y-116049819D02*
X188452268Y-116049819D01*
X188452268Y-116049819D02*
X188452268Y-115049819D01*
X188452268Y-115049819D02*
X187976078Y-115049819D01*
X187071316Y-116049819D02*
X187547506Y-116049819D01*
X187547506Y-116049819D02*
X187547506Y-115049819D01*
X186737982Y-116049819D02*
X186737982Y-115049819D01*
X186261792Y-116049819D02*
X186261792Y-115049819D01*
X186261792Y-115049819D02*
X185690364Y-116049819D01*
X185690364Y-116049819D02*
X185690364Y-115049819D01*
X185214173Y-115526009D02*
X184880840Y-115526009D01*
X184737983Y-116049819D02*
X185214173Y-116049819D01*
X185214173Y-116049819D02*
X185214173Y-115049819D01*
X185214173Y-115049819D02*
X184737983Y-115049819D01*
X184309411Y-115954580D02*
X184261792Y-116002200D01*
X184261792Y-116002200D02*
X184309411Y-116049819D01*
X184309411Y-116049819D02*
X184357030Y-116002200D01*
X184357030Y-116002200D02*
X184309411Y-115954580D01*
X184309411Y-115954580D02*
X184309411Y-116049819D01*
X184309411Y-115430771D02*
X184261792Y-115478390D01*
X184261792Y-115478390D02*
X184309411Y-115526009D01*
X184309411Y-115526009D02*
X184357030Y-115478390D01*
X184357030Y-115478390D02*
X184309411Y-115430771D01*
X184309411Y-115430771D02*
X184309411Y-115526009D01*
X183833221Y-116049819D02*
X183833221Y-115049819D01*
X183833221Y-115049819D02*
X183499888Y-115764104D01*
X183499888Y-115764104D02*
X183166555Y-115049819D01*
X183166555Y-115049819D02*
X183166555Y-116049819D01*
X182737983Y-115764104D02*
X182261793Y-115764104D01*
X182833221Y-116049819D02*
X182499888Y-115049819D01*
X182499888Y-115049819D02*
X182166555Y-116049819D01*
X181642745Y-115573628D02*
X181642745Y-116049819D01*
X181976078Y-115049819D02*
X181642745Y-115573628D01*
X181642745Y-115573628D02*
X181309412Y-115049819D01*
X180261792Y-115145057D02*
X180214173Y-115097438D01*
X180214173Y-115097438D02*
X180118935Y-115049819D01*
X180118935Y-115049819D02*
X179880840Y-115049819D01*
X179880840Y-115049819D02*
X179785602Y-115097438D01*
X179785602Y-115097438D02*
X179737983Y-115145057D01*
X179737983Y-115145057D02*
X179690364Y-115240295D01*
X179690364Y-115240295D02*
X179690364Y-115335533D01*
X179690364Y-115335533D02*
X179737983Y-115478390D01*
X179737983Y-115478390D02*
X180309411Y-116049819D01*
X180309411Y-116049819D02*
X179690364Y-116049819D01*
X179071316Y-115049819D02*
X178976078Y-115049819D01*
X178976078Y-115049819D02*
X178880840Y-115097438D01*
X178880840Y-115097438D02*
X178833221Y-115145057D01*
X178833221Y-115145057D02*
X178785602Y-115240295D01*
X178785602Y-115240295D02*
X178737983Y-115430771D01*
X178737983Y-115430771D02*
X178737983Y-115668866D01*
X178737983Y-115668866D02*
X178785602Y-115859342D01*
X178785602Y-115859342D02*
X178833221Y-115954580D01*
X178833221Y-115954580D02*
X178880840Y-116002200D01*
X178880840Y-116002200D02*
X178976078Y-116049819D01*
X178976078Y-116049819D02*
X179071316Y-116049819D01*
X179071316Y-116049819D02*
X179166554Y-116002200D01*
X179166554Y-116002200D02*
X179214173Y-115954580D01*
X179214173Y-115954580D02*
X179261792Y-115859342D01*
X179261792Y-115859342D02*
X179309411Y-115668866D01*
X179309411Y-115668866D02*
X179309411Y-115430771D01*
X179309411Y-115430771D02*
X179261792Y-115240295D01*
X179261792Y-115240295D02*
X179214173Y-115145057D01*
X179214173Y-115145057D02*
X179166554Y-115097438D01*
X179166554Y-115097438D02*
X179071316Y-115049819D01*
X178357030Y-115145057D02*
X178309411Y-115097438D01*
X178309411Y-115097438D02*
X178214173Y-115049819D01*
X178214173Y-115049819D02*
X177976078Y-115049819D01*
X177976078Y-115049819D02*
X177880840Y-115097438D01*
X177880840Y-115097438D02*
X177833221Y-115145057D01*
X177833221Y-115145057D02*
X177785602Y-115240295D01*
X177785602Y-115240295D02*
X177785602Y-115335533D01*
X177785602Y-115335533D02*
X177833221Y-115478390D01*
X177833221Y-115478390D02*
X178404649Y-116049819D01*
X178404649Y-116049819D02*
X177785602Y-116049819D01*
X176928459Y-115049819D02*
X177118935Y-115049819D01*
X177118935Y-115049819D02*
X177214173Y-115097438D01*
X177214173Y-115097438D02*
X177261792Y-115145057D01*
X177261792Y-115145057D02*
X177357030Y-115287914D01*
X177357030Y-115287914D02*
X177404649Y-115478390D01*
X177404649Y-115478390D02*
X177404649Y-115859342D01*
X177404649Y-115859342D02*
X177357030Y-115954580D01*
X177357030Y-115954580D02*
X177309411Y-116002200D01*
X177309411Y-116002200D02*
X177214173Y-116049819D01*
X177214173Y-116049819D02*
X177023697Y-116049819D01*
X177023697Y-116049819D02*
X176928459Y-116002200D01*
X176928459Y-116002200D02*
X176880840Y-115954580D01*
X176880840Y-115954580D02*
X176833221Y-115859342D01*
X176833221Y-115859342D02*
X176833221Y-115621247D01*
X176833221Y-115621247D02*
X176880840Y-115526009D01*
X176880840Y-115526009D02*
X176928459Y-115478390D01*
X176928459Y-115478390D02*
X177023697Y-115430771D01*
X177023697Y-115430771D02*
X177214173Y-115430771D01*
X177214173Y-115430771D02*
X177309411Y-115478390D01*
X177309411Y-115478390D02*
X177357030Y-115526009D01*
X177357030Y-115526009D02*
X177404649Y-115621247D01*
X120408929Y-60552556D02*
X120504167Y-60504937D01*
X120504167Y-60504937D02*
X120599405Y-60409699D01*
X120599405Y-60409699D02*
X120742262Y-60266841D01*
X120742262Y-60266841D02*
X120837500Y-60219222D01*
X120837500Y-60219222D02*
X120932738Y-60219222D01*
X120885119Y-60457318D02*
X120980357Y-60409699D01*
X120980357Y-60409699D02*
X121075595Y-60314460D01*
X121075595Y-60314460D02*
X121123214Y-60123984D01*
X121123214Y-60123984D02*
X121123214Y-59790651D01*
X121123214Y-59790651D02*
X121075595Y-59600175D01*
X121075595Y-59600175D02*
X120980357Y-59504937D01*
X120980357Y-59504937D02*
X120885119Y-59457318D01*
X120885119Y-59457318D02*
X120694643Y-59457318D01*
X120694643Y-59457318D02*
X120599405Y-59504937D01*
X120599405Y-59504937D02*
X120504167Y-59600175D01*
X120504167Y-59600175D02*
X120456548Y-59790651D01*
X120456548Y-59790651D02*
X120456548Y-60123984D01*
X120456548Y-60123984D02*
X120504167Y-60314460D01*
X120504167Y-60314460D02*
X120599405Y-60409699D01*
X120599405Y-60409699D02*
X120694643Y-60457318D01*
X120694643Y-60457318D02*
X120885119Y-60457318D01*
X119504167Y-60457318D02*
X120075595Y-60457318D01*
X119789881Y-60457318D02*
X119789881Y-59457318D01*
X119789881Y-59457318D02*
X119885119Y-59600175D01*
X119885119Y-59600175D02*
X119980357Y-59695413D01*
X119980357Y-59695413D02*
X120075595Y-59743032D01*
X118551786Y-60457318D02*
X119123214Y-60457318D01*
X118837500Y-60457318D02*
X118837500Y-59457318D01*
X118837500Y-59457318D02*
X118932738Y-59600175D01*
X118932738Y-59600175D02*
X119027976Y-59695413D01*
X119027976Y-59695413D02*
X119123214Y-59743032D01*
X188436666Y-51304819D02*
X189008094Y-51304819D01*
X188722380Y-51304819D02*
X188722380Y-50304819D01*
X188722380Y-50304819D02*
X188817618Y-50447676D01*
X188817618Y-50447676D02*
X188912856Y-50542914D01*
X188912856Y-50542914D02*
X189008094Y-50590533D01*
X187579523Y-50638152D02*
X187579523Y-51304819D01*
X188008094Y-50638152D02*
X188008094Y-51161961D01*
X188008094Y-51161961D02*
X187960475Y-51257200D01*
X187960475Y-51257200D02*
X187865237Y-51304819D01*
X187865237Y-51304819D02*
X187722380Y-51304819D01*
X187722380Y-51304819D02*
X187627142Y-51257200D01*
X187627142Y-51257200D02*
X187579523Y-51209580D01*
X167579047Y-101854819D02*
X168150475Y-101854819D01*
X167864761Y-101854819D02*
X167864761Y-100854819D01*
X167864761Y-100854819D02*
X167959999Y-100997676D01*
X167959999Y-100997676D02*
X168055237Y-101092914D01*
X168055237Y-101092914D02*
X168150475Y-101140533D01*
X166959999Y-100854819D02*
X166864761Y-100854819D01*
X166864761Y-100854819D02*
X166769523Y-100902438D01*
X166769523Y-100902438D02*
X166721904Y-100950057D01*
X166721904Y-100950057D02*
X166674285Y-101045295D01*
X166674285Y-101045295D02*
X166626666Y-101235771D01*
X166626666Y-101235771D02*
X166626666Y-101473866D01*
X166626666Y-101473866D02*
X166674285Y-101664342D01*
X166674285Y-101664342D02*
X166721904Y-101759580D01*
X166721904Y-101759580D02*
X166769523Y-101807200D01*
X166769523Y-101807200D02*
X166864761Y-101854819D01*
X166864761Y-101854819D02*
X166959999Y-101854819D01*
X166959999Y-101854819D02*
X167055237Y-101807200D01*
X167055237Y-101807200D02*
X167102856Y-101759580D01*
X167102856Y-101759580D02*
X167150475Y-101664342D01*
X167150475Y-101664342D02*
X167198094Y-101473866D01*
X167198094Y-101473866D02*
X167198094Y-101235771D01*
X167198094Y-101235771D02*
X167150475Y-101045295D01*
X167150475Y-101045295D02*
X167102856Y-100950057D01*
X167102856Y-100950057D02*
X167055237Y-100902438D01*
X167055237Y-100902438D02*
X166959999Y-100854819D01*
X166007618Y-100854819D02*
X165912380Y-100854819D01*
X165912380Y-100854819D02*
X165817142Y-100902438D01*
X165817142Y-100902438D02*
X165769523Y-100950057D01*
X165769523Y-100950057D02*
X165721904Y-101045295D01*
X165721904Y-101045295D02*
X165674285Y-101235771D01*
X165674285Y-101235771D02*
X165674285Y-101473866D01*
X165674285Y-101473866D02*
X165721904Y-101664342D01*
X165721904Y-101664342D02*
X165769523Y-101759580D01*
X165769523Y-101759580D02*
X165817142Y-101807200D01*
X165817142Y-101807200D02*
X165912380Y-101854819D01*
X165912380Y-101854819D02*
X166007618Y-101854819D01*
X166007618Y-101854819D02*
X166102856Y-101807200D01*
X166102856Y-101807200D02*
X166150475Y-101759580D01*
X166150475Y-101759580D02*
X166198094Y-101664342D01*
X166198094Y-101664342D02*
X166245713Y-101473866D01*
X166245713Y-101473866D02*
X166245713Y-101235771D01*
X166245713Y-101235771D02*
X166198094Y-101045295D01*
X166198094Y-101045295D02*
X166150475Y-100950057D01*
X166150475Y-100950057D02*
X166102856Y-100902438D01*
X166102856Y-100902438D02*
X166007618Y-100854819D01*
X165245713Y-101188152D02*
X165245713Y-101854819D01*
X165245713Y-101283390D02*
X165198094Y-101235771D01*
X165198094Y-101235771D02*
X165102856Y-101188152D01*
X165102856Y-101188152D02*
X164959999Y-101188152D01*
X164959999Y-101188152D02*
X164864761Y-101235771D01*
X164864761Y-101235771D02*
X164817142Y-101331009D01*
X164817142Y-101331009D02*
X164817142Y-101854819D01*
X190354819Y-122850952D02*
X190354819Y-122279524D01*
X190354819Y-122565238D02*
X189354819Y-122565238D01*
X189354819Y-122565238D02*
X189497676Y-122470000D01*
X189497676Y-122470000D02*
X189592914Y-122374762D01*
X189592914Y-122374762D02*
X189640533Y-122279524D01*
X189354819Y-123470000D02*
X189354819Y-123565238D01*
X189354819Y-123565238D02*
X189402438Y-123660476D01*
X189402438Y-123660476D02*
X189450057Y-123708095D01*
X189450057Y-123708095D02*
X189545295Y-123755714D01*
X189545295Y-123755714D02*
X189735771Y-123803333D01*
X189735771Y-123803333D02*
X189973866Y-123803333D01*
X189973866Y-123803333D02*
X190164342Y-123755714D01*
X190164342Y-123755714D02*
X190259580Y-123708095D01*
X190259580Y-123708095D02*
X190307200Y-123660476D01*
X190307200Y-123660476D02*
X190354819Y-123565238D01*
X190354819Y-123565238D02*
X190354819Y-123470000D01*
X190354819Y-123470000D02*
X190307200Y-123374762D01*
X190307200Y-123374762D02*
X190259580Y-123327143D01*
X190259580Y-123327143D02*
X190164342Y-123279524D01*
X190164342Y-123279524D02*
X189973866Y-123231905D01*
X189973866Y-123231905D02*
X189735771Y-123231905D01*
X189735771Y-123231905D02*
X189545295Y-123279524D01*
X189545295Y-123279524D02*
X189450057Y-123327143D01*
X189450057Y-123327143D02*
X189402438Y-123374762D01*
X189402438Y-123374762D02*
X189354819Y-123470000D01*
X189354819Y-124422381D02*
X189354819Y-124517619D01*
X189354819Y-124517619D02*
X189402438Y-124612857D01*
X189402438Y-124612857D02*
X189450057Y-124660476D01*
X189450057Y-124660476D02*
X189545295Y-124708095D01*
X189545295Y-124708095D02*
X189735771Y-124755714D01*
X189735771Y-124755714D02*
X189973866Y-124755714D01*
X189973866Y-124755714D02*
X190164342Y-124708095D01*
X190164342Y-124708095D02*
X190259580Y-124660476D01*
X190259580Y-124660476D02*
X190307200Y-124612857D01*
X190307200Y-124612857D02*
X190354819Y-124517619D01*
X190354819Y-124517619D02*
X190354819Y-124422381D01*
X190354819Y-124422381D02*
X190307200Y-124327143D01*
X190307200Y-124327143D02*
X190259580Y-124279524D01*
X190259580Y-124279524D02*
X190164342Y-124231905D01*
X190164342Y-124231905D02*
X189973866Y-124184286D01*
X189973866Y-124184286D02*
X189735771Y-124184286D01*
X189735771Y-124184286D02*
X189545295Y-124231905D01*
X189545295Y-124231905D02*
X189450057Y-124279524D01*
X189450057Y-124279524D02*
X189402438Y-124327143D01*
X189402438Y-124327143D02*
X189354819Y-124422381D01*
X189688152Y-125184286D02*
X190354819Y-125184286D01*
X189783390Y-125184286D02*
X189735771Y-125231905D01*
X189735771Y-125231905D02*
X189688152Y-125327143D01*
X189688152Y-125327143D02*
X189688152Y-125470000D01*
X189688152Y-125470000D02*
X189735771Y-125565238D01*
X189735771Y-125565238D02*
X189831009Y-125612857D01*
X189831009Y-125612857D02*
X190354819Y-125612857D01*
X188406666Y-53024819D02*
X188978094Y-53024819D01*
X188692380Y-53024819D02*
X188692380Y-52024819D01*
X188692380Y-52024819D02*
X188787618Y-52167676D01*
X188787618Y-52167676D02*
X188882856Y-52262914D01*
X188882856Y-52262914D02*
X188978094Y-52310533D01*
X187549523Y-52358152D02*
X187549523Y-53024819D01*
X187978094Y-52358152D02*
X187978094Y-52881961D01*
X187978094Y-52881961D02*
X187930475Y-52977200D01*
X187930475Y-52977200D02*
X187835237Y-53024819D01*
X187835237Y-53024819D02*
X187692380Y-53024819D01*
X187692380Y-53024819D02*
X187597142Y-52977200D01*
X187597142Y-52977200D02*
X187549523Y-52929580D01*
X114551428Y-74670057D02*
X114646666Y-74622438D01*
X114646666Y-74622438D02*
X114741904Y-74527200D01*
X114741904Y-74527200D02*
X114884761Y-74384342D01*
X114884761Y-74384342D02*
X114979999Y-74336723D01*
X114979999Y-74336723D02*
X115075237Y-74336723D01*
X115027618Y-74574819D02*
X115122856Y-74527200D01*
X115122856Y-74527200D02*
X115218094Y-74431961D01*
X115218094Y-74431961D02*
X115265713Y-74241485D01*
X115265713Y-74241485D02*
X115265713Y-73908152D01*
X115265713Y-73908152D02*
X115218094Y-73717676D01*
X115218094Y-73717676D02*
X115122856Y-73622438D01*
X115122856Y-73622438D02*
X115027618Y-73574819D01*
X115027618Y-73574819D02*
X114837142Y-73574819D01*
X114837142Y-73574819D02*
X114741904Y-73622438D01*
X114741904Y-73622438D02*
X114646666Y-73717676D01*
X114646666Y-73717676D02*
X114599047Y-73908152D01*
X114599047Y-73908152D02*
X114599047Y-74241485D01*
X114599047Y-74241485D02*
X114646666Y-74431961D01*
X114646666Y-74431961D02*
X114741904Y-74527200D01*
X114741904Y-74527200D02*
X114837142Y-74574819D01*
X114837142Y-74574819D02*
X115027618Y-74574819D01*
X113646666Y-74574819D02*
X114218094Y-74574819D01*
X113932380Y-74574819D02*
X113932380Y-73574819D01*
X113932380Y-73574819D02*
X114027618Y-73717676D01*
X114027618Y-73717676D02*
X114122856Y-73812914D01*
X114122856Y-73812914D02*
X114218094Y-73860533D01*
X113265713Y-73670057D02*
X113218094Y-73622438D01*
X113218094Y-73622438D02*
X113122856Y-73574819D01*
X113122856Y-73574819D02*
X112884761Y-73574819D01*
X112884761Y-73574819D02*
X112789523Y-73622438D01*
X112789523Y-73622438D02*
X112741904Y-73670057D01*
X112741904Y-73670057D02*
X112694285Y-73765295D01*
X112694285Y-73765295D02*
X112694285Y-73860533D01*
X112694285Y-73860533D02*
X112741904Y-74003390D01*
X112741904Y-74003390D02*
X113313332Y-74574819D01*
X113313332Y-74574819D02*
X112694285Y-74574819D01*
X151994819Y-127320952D02*
X151994819Y-126749524D01*
X151994819Y-127035238D02*
X150994819Y-127035238D01*
X150994819Y-127035238D02*
X151137676Y-126940000D01*
X151137676Y-126940000D02*
X151232914Y-126844762D01*
X151232914Y-126844762D02*
X151280533Y-126749524D01*
X150994819Y-127940000D02*
X150994819Y-128035238D01*
X150994819Y-128035238D02*
X151042438Y-128130476D01*
X151042438Y-128130476D02*
X151090057Y-128178095D01*
X151090057Y-128178095D02*
X151185295Y-128225714D01*
X151185295Y-128225714D02*
X151375771Y-128273333D01*
X151375771Y-128273333D02*
X151613866Y-128273333D01*
X151613866Y-128273333D02*
X151804342Y-128225714D01*
X151804342Y-128225714D02*
X151899580Y-128178095D01*
X151899580Y-128178095D02*
X151947200Y-128130476D01*
X151947200Y-128130476D02*
X151994819Y-128035238D01*
X151994819Y-128035238D02*
X151994819Y-127940000D01*
X151994819Y-127940000D02*
X151947200Y-127844762D01*
X151947200Y-127844762D02*
X151899580Y-127797143D01*
X151899580Y-127797143D02*
X151804342Y-127749524D01*
X151804342Y-127749524D02*
X151613866Y-127701905D01*
X151613866Y-127701905D02*
X151375771Y-127701905D01*
X151375771Y-127701905D02*
X151185295Y-127749524D01*
X151185295Y-127749524D02*
X151090057Y-127797143D01*
X151090057Y-127797143D02*
X151042438Y-127844762D01*
X151042438Y-127844762D02*
X150994819Y-127940000D01*
X150994819Y-128892381D02*
X150994819Y-128987619D01*
X150994819Y-128987619D02*
X151042438Y-129082857D01*
X151042438Y-129082857D02*
X151090057Y-129130476D01*
X151090057Y-129130476D02*
X151185295Y-129178095D01*
X151185295Y-129178095D02*
X151375771Y-129225714D01*
X151375771Y-129225714D02*
X151613866Y-129225714D01*
X151613866Y-129225714D02*
X151804342Y-129178095D01*
X151804342Y-129178095D02*
X151899580Y-129130476D01*
X151899580Y-129130476D02*
X151947200Y-129082857D01*
X151947200Y-129082857D02*
X151994819Y-128987619D01*
X151994819Y-128987619D02*
X151994819Y-128892381D01*
X151994819Y-128892381D02*
X151947200Y-128797143D01*
X151947200Y-128797143D02*
X151899580Y-128749524D01*
X151899580Y-128749524D02*
X151804342Y-128701905D01*
X151804342Y-128701905D02*
X151613866Y-128654286D01*
X151613866Y-128654286D02*
X151375771Y-128654286D01*
X151375771Y-128654286D02*
X151185295Y-128701905D01*
X151185295Y-128701905D02*
X151090057Y-128749524D01*
X151090057Y-128749524D02*
X151042438Y-128797143D01*
X151042438Y-128797143D02*
X150994819Y-128892381D01*
X151328152Y-129654286D02*
X151994819Y-129654286D01*
X151423390Y-129654286D02*
X151375771Y-129701905D01*
X151375771Y-129701905D02*
X151328152Y-129797143D01*
X151328152Y-129797143D02*
X151328152Y-129940000D01*
X151328152Y-129940000D02*
X151375771Y-130035238D01*
X151375771Y-130035238D02*
X151471009Y-130082857D01*
X151471009Y-130082857D02*
X151994819Y-130082857D01*
X119525238Y-68424819D02*
X120096666Y-68424819D01*
X119810952Y-68424819D02*
X119810952Y-67424819D01*
X119810952Y-67424819D02*
X119906190Y-67567676D01*
X119906190Y-67567676D02*
X120001428Y-67662914D01*
X120001428Y-67662914D02*
X120096666Y-67710533D01*
X118906190Y-67424819D02*
X118810952Y-67424819D01*
X118810952Y-67424819D02*
X118715714Y-67472438D01*
X118715714Y-67472438D02*
X118668095Y-67520057D01*
X118668095Y-67520057D02*
X118620476Y-67615295D01*
X118620476Y-67615295D02*
X118572857Y-67805771D01*
X118572857Y-67805771D02*
X118572857Y-68043866D01*
X118572857Y-68043866D02*
X118620476Y-68234342D01*
X118620476Y-68234342D02*
X118668095Y-68329580D01*
X118668095Y-68329580D02*
X118715714Y-68377200D01*
X118715714Y-68377200D02*
X118810952Y-68424819D01*
X118810952Y-68424819D02*
X118906190Y-68424819D01*
X118906190Y-68424819D02*
X119001428Y-68377200D01*
X119001428Y-68377200D02*
X119049047Y-68329580D01*
X119049047Y-68329580D02*
X119096666Y-68234342D01*
X119096666Y-68234342D02*
X119144285Y-68043866D01*
X119144285Y-68043866D02*
X119144285Y-67805771D01*
X119144285Y-67805771D02*
X119096666Y-67615295D01*
X119096666Y-67615295D02*
X119049047Y-67520057D01*
X119049047Y-67520057D02*
X119001428Y-67472438D01*
X119001428Y-67472438D02*
X118906190Y-67424819D01*
X118144285Y-68424819D02*
X118144285Y-67424819D01*
X118049047Y-68043866D02*
X117763333Y-68424819D01*
X117763333Y-67758152D02*
X118144285Y-68139104D01*
X172689047Y-122544819D02*
X173260475Y-122544819D01*
X172974761Y-122544819D02*
X172974761Y-121544819D01*
X172974761Y-121544819D02*
X173069999Y-121687676D01*
X173069999Y-121687676D02*
X173165237Y-121782914D01*
X173165237Y-121782914D02*
X173260475Y-121830533D01*
X172260475Y-122544819D02*
X172260475Y-121544819D01*
X172165237Y-122163866D02*
X171879523Y-122544819D01*
X171879523Y-121878152D02*
X172260475Y-122259104D01*
X175265238Y-40230057D02*
X175360476Y-40182438D01*
X175360476Y-40182438D02*
X175455714Y-40087200D01*
X175455714Y-40087200D02*
X175598571Y-39944342D01*
X175598571Y-39944342D02*
X175693809Y-39896723D01*
X175693809Y-39896723D02*
X175789047Y-39896723D01*
X175741428Y-40134819D02*
X175836666Y-40087200D01*
X175836666Y-40087200D02*
X175931904Y-39991961D01*
X175931904Y-39991961D02*
X175979523Y-39801485D01*
X175979523Y-39801485D02*
X175979523Y-39468152D01*
X175979523Y-39468152D02*
X175931904Y-39277676D01*
X175931904Y-39277676D02*
X175836666Y-39182438D01*
X175836666Y-39182438D02*
X175741428Y-39134819D01*
X175741428Y-39134819D02*
X175550952Y-39134819D01*
X175550952Y-39134819D02*
X175455714Y-39182438D01*
X175455714Y-39182438D02*
X175360476Y-39277676D01*
X175360476Y-39277676D02*
X175312857Y-39468152D01*
X175312857Y-39468152D02*
X175312857Y-39801485D01*
X175312857Y-39801485D02*
X175360476Y-39991961D01*
X175360476Y-39991961D02*
X175455714Y-40087200D01*
X175455714Y-40087200D02*
X175550952Y-40134819D01*
X175550952Y-40134819D02*
X175741428Y-40134819D01*
X174836666Y-40134819D02*
X174646190Y-40134819D01*
X174646190Y-40134819D02*
X174550952Y-40087200D01*
X174550952Y-40087200D02*
X174503333Y-40039580D01*
X174503333Y-40039580D02*
X174408095Y-39896723D01*
X174408095Y-39896723D02*
X174360476Y-39706247D01*
X174360476Y-39706247D02*
X174360476Y-39325295D01*
X174360476Y-39325295D02*
X174408095Y-39230057D01*
X174408095Y-39230057D02*
X174455714Y-39182438D01*
X174455714Y-39182438D02*
X174550952Y-39134819D01*
X174550952Y-39134819D02*
X174741428Y-39134819D01*
X174741428Y-39134819D02*
X174836666Y-39182438D01*
X174836666Y-39182438D02*
X174884285Y-39230057D01*
X174884285Y-39230057D02*
X174931904Y-39325295D01*
X174931904Y-39325295D02*
X174931904Y-39563390D01*
X174931904Y-39563390D02*
X174884285Y-39658628D01*
X174884285Y-39658628D02*
X174836666Y-39706247D01*
X174836666Y-39706247D02*
X174741428Y-39753866D01*
X174741428Y-39753866D02*
X174550952Y-39753866D01*
X174550952Y-39753866D02*
X174455714Y-39706247D01*
X174455714Y-39706247D02*
X174408095Y-39658628D01*
X174408095Y-39658628D02*
X174360476Y-39563390D01*
X132635238Y-46044819D02*
X133206666Y-46044819D01*
X132920952Y-46044819D02*
X132920952Y-45044819D01*
X132920952Y-45044819D02*
X133016190Y-45187676D01*
X133016190Y-45187676D02*
X133111428Y-45282914D01*
X133111428Y-45282914D02*
X133206666Y-45330533D01*
X132016190Y-45044819D02*
X131920952Y-45044819D01*
X131920952Y-45044819D02*
X131825714Y-45092438D01*
X131825714Y-45092438D02*
X131778095Y-45140057D01*
X131778095Y-45140057D02*
X131730476Y-45235295D01*
X131730476Y-45235295D02*
X131682857Y-45425771D01*
X131682857Y-45425771D02*
X131682857Y-45663866D01*
X131682857Y-45663866D02*
X131730476Y-45854342D01*
X131730476Y-45854342D02*
X131778095Y-45949580D01*
X131778095Y-45949580D02*
X131825714Y-45997200D01*
X131825714Y-45997200D02*
X131920952Y-46044819D01*
X131920952Y-46044819D02*
X132016190Y-46044819D01*
X132016190Y-46044819D02*
X132111428Y-45997200D01*
X132111428Y-45997200D02*
X132159047Y-45949580D01*
X132159047Y-45949580D02*
X132206666Y-45854342D01*
X132206666Y-45854342D02*
X132254285Y-45663866D01*
X132254285Y-45663866D02*
X132254285Y-45425771D01*
X132254285Y-45425771D02*
X132206666Y-45235295D01*
X132206666Y-45235295D02*
X132159047Y-45140057D01*
X132159047Y-45140057D02*
X132111428Y-45092438D01*
X132111428Y-45092438D02*
X132016190Y-45044819D01*
X131254285Y-46044819D02*
X131254285Y-45044819D01*
X131159047Y-45663866D02*
X130873333Y-46044819D01*
X130873333Y-45378152D02*
X131254285Y-45759104D01*
X198365238Y-69210057D02*
X198460476Y-69162438D01*
X198460476Y-69162438D02*
X198555714Y-69067200D01*
X198555714Y-69067200D02*
X198698571Y-68924342D01*
X198698571Y-68924342D02*
X198793809Y-68876723D01*
X198793809Y-68876723D02*
X198889047Y-68876723D01*
X198841428Y-69114819D02*
X198936666Y-69067200D01*
X198936666Y-69067200D02*
X199031904Y-68971961D01*
X199031904Y-68971961D02*
X199079523Y-68781485D01*
X199079523Y-68781485D02*
X199079523Y-68448152D01*
X199079523Y-68448152D02*
X199031904Y-68257676D01*
X199031904Y-68257676D02*
X198936666Y-68162438D01*
X198936666Y-68162438D02*
X198841428Y-68114819D01*
X198841428Y-68114819D02*
X198650952Y-68114819D01*
X198650952Y-68114819D02*
X198555714Y-68162438D01*
X198555714Y-68162438D02*
X198460476Y-68257676D01*
X198460476Y-68257676D02*
X198412857Y-68448152D01*
X198412857Y-68448152D02*
X198412857Y-68781485D01*
X198412857Y-68781485D02*
X198460476Y-68971961D01*
X198460476Y-68971961D02*
X198555714Y-69067200D01*
X198555714Y-69067200D02*
X198650952Y-69114819D01*
X198650952Y-69114819D02*
X198841428Y-69114819D01*
X198031904Y-68210057D02*
X197984285Y-68162438D01*
X197984285Y-68162438D02*
X197889047Y-68114819D01*
X197889047Y-68114819D02*
X197650952Y-68114819D01*
X197650952Y-68114819D02*
X197555714Y-68162438D01*
X197555714Y-68162438D02*
X197508095Y-68210057D01*
X197508095Y-68210057D02*
X197460476Y-68305295D01*
X197460476Y-68305295D02*
X197460476Y-68400533D01*
X197460476Y-68400533D02*
X197508095Y-68543390D01*
X197508095Y-68543390D02*
X198079523Y-69114819D01*
X198079523Y-69114819D02*
X197460476Y-69114819D01*
X194239047Y-69494819D02*
X194810475Y-69494819D01*
X194524761Y-69494819D02*
X194524761Y-68494819D01*
X194524761Y-68494819D02*
X194619999Y-68637676D01*
X194619999Y-68637676D02*
X194715237Y-68732914D01*
X194715237Y-68732914D02*
X194810475Y-68780533D01*
X193810475Y-69494819D02*
X193810475Y-68494819D01*
X193715237Y-69113866D02*
X193429523Y-69494819D01*
X193429523Y-68828152D02*
X193810475Y-69209104D01*
X116853333Y-61611009D02*
X117186666Y-61611009D01*
X117186666Y-62134819D02*
X117186666Y-61134819D01*
X117186666Y-61134819D02*
X116710476Y-61134819D01*
X116424761Y-61134819D02*
X115805714Y-61134819D01*
X115805714Y-61134819D02*
X116139047Y-61515771D01*
X116139047Y-61515771D02*
X115996190Y-61515771D01*
X115996190Y-61515771D02*
X115900952Y-61563390D01*
X115900952Y-61563390D02*
X115853333Y-61611009D01*
X115853333Y-61611009D02*
X115805714Y-61706247D01*
X115805714Y-61706247D02*
X115805714Y-61944342D01*
X115805714Y-61944342D02*
X115853333Y-62039580D01*
X115853333Y-62039580D02*
X115900952Y-62087200D01*
X115900952Y-62087200D02*
X115996190Y-62134819D01*
X115996190Y-62134819D02*
X116281904Y-62134819D01*
X116281904Y-62134819D02*
X116377142Y-62087200D01*
X116377142Y-62087200D02*
X116424761Y-62039580D01*
X190484819Y-127310952D02*
X190484819Y-126739524D01*
X190484819Y-127025238D02*
X189484819Y-127025238D01*
X189484819Y-127025238D02*
X189627676Y-126930000D01*
X189627676Y-126930000D02*
X189722914Y-126834762D01*
X189722914Y-126834762D02*
X189770533Y-126739524D01*
X189484819Y-127930000D02*
X189484819Y-128025238D01*
X189484819Y-128025238D02*
X189532438Y-128120476D01*
X189532438Y-128120476D02*
X189580057Y-128168095D01*
X189580057Y-128168095D02*
X189675295Y-128215714D01*
X189675295Y-128215714D02*
X189865771Y-128263333D01*
X189865771Y-128263333D02*
X190103866Y-128263333D01*
X190103866Y-128263333D02*
X190294342Y-128215714D01*
X190294342Y-128215714D02*
X190389580Y-128168095D01*
X190389580Y-128168095D02*
X190437200Y-128120476D01*
X190437200Y-128120476D02*
X190484819Y-128025238D01*
X190484819Y-128025238D02*
X190484819Y-127930000D01*
X190484819Y-127930000D02*
X190437200Y-127834762D01*
X190437200Y-127834762D02*
X190389580Y-127787143D01*
X190389580Y-127787143D02*
X190294342Y-127739524D01*
X190294342Y-127739524D02*
X190103866Y-127691905D01*
X190103866Y-127691905D02*
X189865771Y-127691905D01*
X189865771Y-127691905D02*
X189675295Y-127739524D01*
X189675295Y-127739524D02*
X189580057Y-127787143D01*
X189580057Y-127787143D02*
X189532438Y-127834762D01*
X189532438Y-127834762D02*
X189484819Y-127930000D01*
X189484819Y-128882381D02*
X189484819Y-128977619D01*
X189484819Y-128977619D02*
X189532438Y-129072857D01*
X189532438Y-129072857D02*
X189580057Y-129120476D01*
X189580057Y-129120476D02*
X189675295Y-129168095D01*
X189675295Y-129168095D02*
X189865771Y-129215714D01*
X189865771Y-129215714D02*
X190103866Y-129215714D01*
X190103866Y-129215714D02*
X190294342Y-129168095D01*
X190294342Y-129168095D02*
X190389580Y-129120476D01*
X190389580Y-129120476D02*
X190437200Y-129072857D01*
X190437200Y-129072857D02*
X190484819Y-128977619D01*
X190484819Y-128977619D02*
X190484819Y-128882381D01*
X190484819Y-128882381D02*
X190437200Y-128787143D01*
X190437200Y-128787143D02*
X190389580Y-128739524D01*
X190389580Y-128739524D02*
X190294342Y-128691905D01*
X190294342Y-128691905D02*
X190103866Y-128644286D01*
X190103866Y-128644286D02*
X189865771Y-128644286D01*
X189865771Y-128644286D02*
X189675295Y-128691905D01*
X189675295Y-128691905D02*
X189580057Y-128739524D01*
X189580057Y-128739524D02*
X189532438Y-128787143D01*
X189532438Y-128787143D02*
X189484819Y-128882381D01*
X189818152Y-129644286D02*
X190484819Y-129644286D01*
X189913390Y-129644286D02*
X189865771Y-129691905D01*
X189865771Y-129691905D02*
X189818152Y-129787143D01*
X189818152Y-129787143D02*
X189818152Y-129930000D01*
X189818152Y-129930000D02*
X189865771Y-130025238D01*
X189865771Y-130025238D02*
X189961009Y-130072857D01*
X189961009Y-130072857D02*
X190484819Y-130072857D01*
X152544285Y-114597200D02*
X152401428Y-114644819D01*
X152401428Y-114644819D02*
X152163333Y-114644819D01*
X152163333Y-114644819D02*
X152068095Y-114597200D01*
X152068095Y-114597200D02*
X152020476Y-114549580D01*
X152020476Y-114549580D02*
X151972857Y-114454342D01*
X151972857Y-114454342D02*
X151972857Y-114359104D01*
X151972857Y-114359104D02*
X152020476Y-114263866D01*
X152020476Y-114263866D02*
X152068095Y-114216247D01*
X152068095Y-114216247D02*
X152163333Y-114168628D01*
X152163333Y-114168628D02*
X152353809Y-114121009D01*
X152353809Y-114121009D02*
X152449047Y-114073390D01*
X152449047Y-114073390D02*
X152496666Y-114025771D01*
X152496666Y-114025771D02*
X152544285Y-113930533D01*
X152544285Y-113930533D02*
X152544285Y-113835295D01*
X152544285Y-113835295D02*
X152496666Y-113740057D01*
X152496666Y-113740057D02*
X152449047Y-113692438D01*
X152449047Y-113692438D02*
X152353809Y-113644819D01*
X152353809Y-113644819D02*
X152115714Y-113644819D01*
X152115714Y-113644819D02*
X151972857Y-113692438D01*
X151591904Y-114597200D02*
X151449047Y-114644819D01*
X151449047Y-114644819D02*
X151210952Y-114644819D01*
X151210952Y-114644819D02*
X151115714Y-114597200D01*
X151115714Y-114597200D02*
X151068095Y-114549580D01*
X151068095Y-114549580D02*
X151020476Y-114454342D01*
X151020476Y-114454342D02*
X151020476Y-114359104D01*
X151020476Y-114359104D02*
X151068095Y-114263866D01*
X151068095Y-114263866D02*
X151115714Y-114216247D01*
X151115714Y-114216247D02*
X151210952Y-114168628D01*
X151210952Y-114168628D02*
X151401428Y-114121009D01*
X151401428Y-114121009D02*
X151496666Y-114073390D01*
X151496666Y-114073390D02*
X151544285Y-114025771D01*
X151544285Y-114025771D02*
X151591904Y-113930533D01*
X151591904Y-113930533D02*
X151591904Y-113835295D01*
X151591904Y-113835295D02*
X151544285Y-113740057D01*
X151544285Y-113740057D02*
X151496666Y-113692438D01*
X151496666Y-113692438D02*
X151401428Y-113644819D01*
X151401428Y-113644819D02*
X151163333Y-113644819D01*
X151163333Y-113644819D02*
X151020476Y-113692438D01*
X150687142Y-113644819D02*
X150068095Y-113644819D01*
X150068095Y-113644819D02*
X150401428Y-114025771D01*
X150401428Y-114025771D02*
X150258571Y-114025771D01*
X150258571Y-114025771D02*
X150163333Y-114073390D01*
X150163333Y-114073390D02*
X150115714Y-114121009D01*
X150115714Y-114121009D02*
X150068095Y-114216247D01*
X150068095Y-114216247D02*
X150068095Y-114454342D01*
X150068095Y-114454342D02*
X150115714Y-114549580D01*
X150115714Y-114549580D02*
X150163333Y-114597200D01*
X150163333Y-114597200D02*
X150258571Y-114644819D01*
X150258571Y-114644819D02*
X150544285Y-114644819D01*
X150544285Y-114644819D02*
X150639523Y-114597200D01*
X150639523Y-114597200D02*
X150687142Y-114549580D01*
X149210952Y-113978152D02*
X149210952Y-114644819D01*
X149449047Y-113597200D02*
X149687142Y-114311485D01*
X149687142Y-114311485D02*
X149068095Y-114311485D01*
X187577738Y-62334819D02*
X188149166Y-62334819D01*
X187863452Y-62334819D02*
X187863452Y-61334819D01*
X187863452Y-61334819D02*
X187958690Y-61477676D01*
X187958690Y-61477676D02*
X188053928Y-61572914D01*
X188053928Y-61572914D02*
X188149166Y-61620533D01*
X186958690Y-61334819D02*
X186863452Y-61334819D01*
X186863452Y-61334819D02*
X186768214Y-61382438D01*
X186768214Y-61382438D02*
X186720595Y-61430057D01*
X186720595Y-61430057D02*
X186672976Y-61525295D01*
X186672976Y-61525295D02*
X186625357Y-61715771D01*
X186625357Y-61715771D02*
X186625357Y-61953866D01*
X186625357Y-61953866D02*
X186672976Y-62144342D01*
X186672976Y-62144342D02*
X186720595Y-62239580D01*
X186720595Y-62239580D02*
X186768214Y-62287200D01*
X186768214Y-62287200D02*
X186863452Y-62334819D01*
X186863452Y-62334819D02*
X186958690Y-62334819D01*
X186958690Y-62334819D02*
X187053928Y-62287200D01*
X187053928Y-62287200D02*
X187101547Y-62239580D01*
X187101547Y-62239580D02*
X187149166Y-62144342D01*
X187149166Y-62144342D02*
X187196785Y-61953866D01*
X187196785Y-61953866D02*
X187196785Y-61715771D01*
X187196785Y-61715771D02*
X187149166Y-61525295D01*
X187149166Y-61525295D02*
X187101547Y-61430057D01*
X187101547Y-61430057D02*
X187053928Y-61382438D01*
X187053928Y-61382438D02*
X186958690Y-61334819D01*
X186196785Y-62334819D02*
X186196785Y-61334819D01*
X186101547Y-61953866D02*
X185815833Y-62334819D01*
X185815833Y-61668152D02*
X186196785Y-62049104D01*
X186584819Y-120054761D02*
X186584819Y-119483333D01*
X186584819Y-119769047D02*
X185584819Y-119769047D01*
X185584819Y-119769047D02*
X185727676Y-119673809D01*
X185727676Y-119673809D02*
X185822914Y-119578571D01*
X185822914Y-119578571D02*
X185870533Y-119483333D01*
X185584819Y-120673809D02*
X185584819Y-120769047D01*
X185584819Y-120769047D02*
X185632438Y-120864285D01*
X185632438Y-120864285D02*
X185680057Y-120911904D01*
X185680057Y-120911904D02*
X185775295Y-120959523D01*
X185775295Y-120959523D02*
X185965771Y-121007142D01*
X185965771Y-121007142D02*
X186203866Y-121007142D01*
X186203866Y-121007142D02*
X186394342Y-120959523D01*
X186394342Y-120959523D02*
X186489580Y-120911904D01*
X186489580Y-120911904D02*
X186537200Y-120864285D01*
X186537200Y-120864285D02*
X186584819Y-120769047D01*
X186584819Y-120769047D02*
X186584819Y-120673809D01*
X186584819Y-120673809D02*
X186537200Y-120578571D01*
X186537200Y-120578571D02*
X186489580Y-120530952D01*
X186489580Y-120530952D02*
X186394342Y-120483333D01*
X186394342Y-120483333D02*
X186203866Y-120435714D01*
X186203866Y-120435714D02*
X185965771Y-120435714D01*
X185965771Y-120435714D02*
X185775295Y-120483333D01*
X185775295Y-120483333D02*
X185680057Y-120530952D01*
X185680057Y-120530952D02*
X185632438Y-120578571D01*
X185632438Y-120578571D02*
X185584819Y-120673809D01*
X186584819Y-121435714D02*
X185584819Y-121435714D01*
X186203866Y-121530952D02*
X186584819Y-121816666D01*
X185918152Y-121816666D02*
X186299104Y-121435714D01*
X121565238Y-63714819D02*
X122136666Y-63714819D01*
X121850952Y-63714819D02*
X121850952Y-62714819D01*
X121850952Y-62714819D02*
X121946190Y-62857676D01*
X121946190Y-62857676D02*
X122041428Y-62952914D01*
X122041428Y-62952914D02*
X122136666Y-63000533D01*
X120946190Y-62714819D02*
X120850952Y-62714819D01*
X120850952Y-62714819D02*
X120755714Y-62762438D01*
X120755714Y-62762438D02*
X120708095Y-62810057D01*
X120708095Y-62810057D02*
X120660476Y-62905295D01*
X120660476Y-62905295D02*
X120612857Y-63095771D01*
X120612857Y-63095771D02*
X120612857Y-63333866D01*
X120612857Y-63333866D02*
X120660476Y-63524342D01*
X120660476Y-63524342D02*
X120708095Y-63619580D01*
X120708095Y-63619580D02*
X120755714Y-63667200D01*
X120755714Y-63667200D02*
X120850952Y-63714819D01*
X120850952Y-63714819D02*
X120946190Y-63714819D01*
X120946190Y-63714819D02*
X121041428Y-63667200D01*
X121041428Y-63667200D02*
X121089047Y-63619580D01*
X121089047Y-63619580D02*
X121136666Y-63524342D01*
X121136666Y-63524342D02*
X121184285Y-63333866D01*
X121184285Y-63333866D02*
X121184285Y-63095771D01*
X121184285Y-63095771D02*
X121136666Y-62905295D01*
X121136666Y-62905295D02*
X121089047Y-62810057D01*
X121089047Y-62810057D02*
X121041428Y-62762438D01*
X121041428Y-62762438D02*
X120946190Y-62714819D01*
X120184285Y-63714819D02*
X120184285Y-62714819D01*
X120089047Y-63333866D02*
X119803333Y-63714819D01*
X119803333Y-63048152D02*
X120184285Y-63429104D01*
X191684819Y-93184286D02*
X191684819Y-93803333D01*
X191684819Y-93803333D02*
X192065771Y-93470000D01*
X192065771Y-93470000D02*
X192065771Y-93612857D01*
X192065771Y-93612857D02*
X192113390Y-93708095D01*
X192113390Y-93708095D02*
X192161009Y-93755714D01*
X192161009Y-93755714D02*
X192256247Y-93803333D01*
X192256247Y-93803333D02*
X192494342Y-93803333D01*
X192494342Y-93803333D02*
X192589580Y-93755714D01*
X192589580Y-93755714D02*
X192637200Y-93708095D01*
X192637200Y-93708095D02*
X192684819Y-93612857D01*
X192684819Y-93612857D02*
X192684819Y-93327143D01*
X192684819Y-93327143D02*
X192637200Y-93231905D01*
X192637200Y-93231905D02*
X192589580Y-93184286D01*
X191684819Y-94136667D02*
X191684819Y-94755714D01*
X191684819Y-94755714D02*
X192065771Y-94422381D01*
X192065771Y-94422381D02*
X192065771Y-94565238D01*
X192065771Y-94565238D02*
X192113390Y-94660476D01*
X192113390Y-94660476D02*
X192161009Y-94708095D01*
X192161009Y-94708095D02*
X192256247Y-94755714D01*
X192256247Y-94755714D02*
X192494342Y-94755714D01*
X192494342Y-94755714D02*
X192589580Y-94708095D01*
X192589580Y-94708095D02*
X192637200Y-94660476D01*
X192637200Y-94660476D02*
X192684819Y-94565238D01*
X192684819Y-94565238D02*
X192684819Y-94279524D01*
X192684819Y-94279524D02*
X192637200Y-94184286D01*
X192637200Y-94184286D02*
X192589580Y-94136667D01*
X191684819Y-95374762D02*
X191684819Y-95470000D01*
X191684819Y-95470000D02*
X191732438Y-95565238D01*
X191732438Y-95565238D02*
X191780057Y-95612857D01*
X191780057Y-95612857D02*
X191875295Y-95660476D01*
X191875295Y-95660476D02*
X192065771Y-95708095D01*
X192065771Y-95708095D02*
X192303866Y-95708095D01*
X192303866Y-95708095D02*
X192494342Y-95660476D01*
X192494342Y-95660476D02*
X192589580Y-95612857D01*
X192589580Y-95612857D02*
X192637200Y-95565238D01*
X192637200Y-95565238D02*
X192684819Y-95470000D01*
X192684819Y-95470000D02*
X192684819Y-95374762D01*
X192684819Y-95374762D02*
X192637200Y-95279524D01*
X192637200Y-95279524D02*
X192589580Y-95231905D01*
X192589580Y-95231905D02*
X192494342Y-95184286D01*
X192494342Y-95184286D02*
X192303866Y-95136667D01*
X192303866Y-95136667D02*
X192065771Y-95136667D01*
X192065771Y-95136667D02*
X191875295Y-95184286D01*
X191875295Y-95184286D02*
X191780057Y-95231905D01*
X191780057Y-95231905D02*
X191732438Y-95279524D01*
X191732438Y-95279524D02*
X191684819Y-95374762D01*
X141089047Y-103434819D02*
X141660475Y-103434819D01*
X141374761Y-103434819D02*
X141374761Y-102434819D01*
X141374761Y-102434819D02*
X141469999Y-102577676D01*
X141469999Y-102577676D02*
X141565237Y-102672914D01*
X141565237Y-102672914D02*
X141660475Y-102720533D01*
X140469999Y-102434819D02*
X140374761Y-102434819D01*
X140374761Y-102434819D02*
X140279523Y-102482438D01*
X140279523Y-102482438D02*
X140231904Y-102530057D01*
X140231904Y-102530057D02*
X140184285Y-102625295D01*
X140184285Y-102625295D02*
X140136666Y-102815771D01*
X140136666Y-102815771D02*
X140136666Y-103053866D01*
X140136666Y-103053866D02*
X140184285Y-103244342D01*
X140184285Y-103244342D02*
X140231904Y-103339580D01*
X140231904Y-103339580D02*
X140279523Y-103387200D01*
X140279523Y-103387200D02*
X140374761Y-103434819D01*
X140374761Y-103434819D02*
X140469999Y-103434819D01*
X140469999Y-103434819D02*
X140565237Y-103387200D01*
X140565237Y-103387200D02*
X140612856Y-103339580D01*
X140612856Y-103339580D02*
X140660475Y-103244342D01*
X140660475Y-103244342D02*
X140708094Y-103053866D01*
X140708094Y-103053866D02*
X140708094Y-102815771D01*
X140708094Y-102815771D02*
X140660475Y-102625295D01*
X140660475Y-102625295D02*
X140612856Y-102530057D01*
X140612856Y-102530057D02*
X140565237Y-102482438D01*
X140565237Y-102482438D02*
X140469999Y-102434819D01*
X139517618Y-102434819D02*
X139422380Y-102434819D01*
X139422380Y-102434819D02*
X139327142Y-102482438D01*
X139327142Y-102482438D02*
X139279523Y-102530057D01*
X139279523Y-102530057D02*
X139231904Y-102625295D01*
X139231904Y-102625295D02*
X139184285Y-102815771D01*
X139184285Y-102815771D02*
X139184285Y-103053866D01*
X139184285Y-103053866D02*
X139231904Y-103244342D01*
X139231904Y-103244342D02*
X139279523Y-103339580D01*
X139279523Y-103339580D02*
X139327142Y-103387200D01*
X139327142Y-103387200D02*
X139422380Y-103434819D01*
X139422380Y-103434819D02*
X139517618Y-103434819D01*
X139517618Y-103434819D02*
X139612856Y-103387200D01*
X139612856Y-103387200D02*
X139660475Y-103339580D01*
X139660475Y-103339580D02*
X139708094Y-103244342D01*
X139708094Y-103244342D02*
X139755713Y-103053866D01*
X139755713Y-103053866D02*
X139755713Y-102815771D01*
X139755713Y-102815771D02*
X139708094Y-102625295D01*
X139708094Y-102625295D02*
X139660475Y-102530057D01*
X139660475Y-102530057D02*
X139612856Y-102482438D01*
X139612856Y-102482438D02*
X139517618Y-102434819D01*
X138755713Y-102768152D02*
X138755713Y-103434819D01*
X138755713Y-102863390D02*
X138708094Y-102815771D01*
X138708094Y-102815771D02*
X138612856Y-102768152D01*
X138612856Y-102768152D02*
X138469999Y-102768152D01*
X138469999Y-102768152D02*
X138374761Y-102815771D01*
X138374761Y-102815771D02*
X138327142Y-102911009D01*
X138327142Y-102911009D02*
X138327142Y-103434819D01*
X121399047Y-65164819D02*
X121970475Y-65164819D01*
X121684761Y-65164819D02*
X121684761Y-64164819D01*
X121684761Y-64164819D02*
X121779999Y-64307676D01*
X121779999Y-64307676D02*
X121875237Y-64402914D01*
X121875237Y-64402914D02*
X121970475Y-64450533D01*
X120970475Y-65164819D02*
X120970475Y-64164819D01*
X120875237Y-64783866D02*
X120589523Y-65164819D01*
X120589523Y-64498152D02*
X120970475Y-64879104D01*
X139718152Y-77221428D02*
X140384819Y-77221428D01*
X139337200Y-76983333D02*
X140051485Y-76745238D01*
X140051485Y-76745238D02*
X140051485Y-77364285D01*
X140289580Y-77745238D02*
X140337200Y-77792857D01*
X140337200Y-77792857D02*
X140384819Y-77745238D01*
X140384819Y-77745238D02*
X140337200Y-77697619D01*
X140337200Y-77697619D02*
X140289580Y-77745238D01*
X140289580Y-77745238D02*
X140384819Y-77745238D01*
X139384819Y-78126190D02*
X139384819Y-78792856D01*
X139384819Y-78792856D02*
X140384819Y-78364285D01*
X140384819Y-79173809D02*
X139384819Y-79173809D01*
X140003866Y-79269047D02*
X140384819Y-79554761D01*
X139718152Y-79554761D02*
X140099104Y-79173809D01*
X184734819Y-127884761D02*
X184734819Y-127313333D01*
X184734819Y-127599047D02*
X183734819Y-127599047D01*
X183734819Y-127599047D02*
X183877676Y-127503809D01*
X183877676Y-127503809D02*
X183972914Y-127408571D01*
X183972914Y-127408571D02*
X184020533Y-127313333D01*
X183734819Y-128503809D02*
X183734819Y-128599047D01*
X183734819Y-128599047D02*
X183782438Y-128694285D01*
X183782438Y-128694285D02*
X183830057Y-128741904D01*
X183830057Y-128741904D02*
X183925295Y-128789523D01*
X183925295Y-128789523D02*
X184115771Y-128837142D01*
X184115771Y-128837142D02*
X184353866Y-128837142D01*
X184353866Y-128837142D02*
X184544342Y-128789523D01*
X184544342Y-128789523D02*
X184639580Y-128741904D01*
X184639580Y-128741904D02*
X184687200Y-128694285D01*
X184687200Y-128694285D02*
X184734819Y-128599047D01*
X184734819Y-128599047D02*
X184734819Y-128503809D01*
X184734819Y-128503809D02*
X184687200Y-128408571D01*
X184687200Y-128408571D02*
X184639580Y-128360952D01*
X184639580Y-128360952D02*
X184544342Y-128313333D01*
X184544342Y-128313333D02*
X184353866Y-128265714D01*
X184353866Y-128265714D02*
X184115771Y-128265714D01*
X184115771Y-128265714D02*
X183925295Y-128313333D01*
X183925295Y-128313333D02*
X183830057Y-128360952D01*
X183830057Y-128360952D02*
X183782438Y-128408571D01*
X183782438Y-128408571D02*
X183734819Y-128503809D01*
X184734819Y-129265714D02*
X183734819Y-129265714D01*
X184353866Y-129360952D02*
X184734819Y-129646666D01*
X184068152Y-129646666D02*
X184449104Y-129265714D01*
X194925238Y-67424819D02*
X195496666Y-67424819D01*
X195210952Y-67424819D02*
X195210952Y-66424819D01*
X195210952Y-66424819D02*
X195306190Y-66567676D01*
X195306190Y-66567676D02*
X195401428Y-66662914D01*
X195401428Y-66662914D02*
X195496666Y-66710533D01*
X194306190Y-66424819D02*
X194210952Y-66424819D01*
X194210952Y-66424819D02*
X194115714Y-66472438D01*
X194115714Y-66472438D02*
X194068095Y-66520057D01*
X194068095Y-66520057D02*
X194020476Y-66615295D01*
X194020476Y-66615295D02*
X193972857Y-66805771D01*
X193972857Y-66805771D02*
X193972857Y-67043866D01*
X193972857Y-67043866D02*
X194020476Y-67234342D01*
X194020476Y-67234342D02*
X194068095Y-67329580D01*
X194068095Y-67329580D02*
X194115714Y-67377200D01*
X194115714Y-67377200D02*
X194210952Y-67424819D01*
X194210952Y-67424819D02*
X194306190Y-67424819D01*
X194306190Y-67424819D02*
X194401428Y-67377200D01*
X194401428Y-67377200D02*
X194449047Y-67329580D01*
X194449047Y-67329580D02*
X194496666Y-67234342D01*
X194496666Y-67234342D02*
X194544285Y-67043866D01*
X194544285Y-67043866D02*
X194544285Y-66805771D01*
X194544285Y-66805771D02*
X194496666Y-66615295D01*
X194496666Y-66615295D02*
X194449047Y-66520057D01*
X194449047Y-66520057D02*
X194401428Y-66472438D01*
X194401428Y-66472438D02*
X194306190Y-66424819D01*
X193544285Y-67424819D02*
X193544285Y-66424819D01*
X193449047Y-67043866D02*
X193163333Y-67424819D01*
X193163333Y-66758152D02*
X193544285Y-67139104D01*
X131679047Y-47784819D02*
X132250475Y-47784819D01*
X131964761Y-47784819D02*
X131964761Y-46784819D01*
X131964761Y-46784819D02*
X132059999Y-46927676D01*
X132059999Y-46927676D02*
X132155237Y-47022914D01*
X132155237Y-47022914D02*
X132250475Y-47070533D01*
X131250475Y-47784819D02*
X131250475Y-46784819D01*
X131155237Y-47403866D02*
X130869523Y-47784819D01*
X130869523Y-47118152D02*
X131250475Y-47499104D01*
X144428152Y-81911428D02*
X145094819Y-81911428D01*
X144047200Y-81673333D02*
X144761485Y-81435238D01*
X144761485Y-81435238D02*
X144761485Y-82054285D01*
X144999580Y-82435238D02*
X145047200Y-82482857D01*
X145047200Y-82482857D02*
X145094819Y-82435238D01*
X145094819Y-82435238D02*
X145047200Y-82387619D01*
X145047200Y-82387619D02*
X144999580Y-82435238D01*
X144999580Y-82435238D02*
X145094819Y-82435238D01*
X144094819Y-82816190D02*
X144094819Y-83482856D01*
X144094819Y-83482856D02*
X145094819Y-83054285D01*
X145094819Y-83863809D02*
X144094819Y-83863809D01*
X144713866Y-83959047D02*
X145094819Y-84244761D01*
X144428152Y-84244761D02*
X144809104Y-83863809D01*
X146978152Y-81931428D02*
X147644819Y-81931428D01*
X146597200Y-81693333D02*
X147311485Y-81455238D01*
X147311485Y-81455238D02*
X147311485Y-82074285D01*
X147549580Y-82455238D02*
X147597200Y-82502857D01*
X147597200Y-82502857D02*
X147644819Y-82455238D01*
X147644819Y-82455238D02*
X147597200Y-82407619D01*
X147597200Y-82407619D02*
X147549580Y-82455238D01*
X147549580Y-82455238D02*
X147644819Y-82455238D01*
X146644819Y-82836190D02*
X146644819Y-83502856D01*
X146644819Y-83502856D02*
X147644819Y-83074285D01*
X147644819Y-83883809D02*
X146644819Y-83883809D01*
X147263866Y-83979047D02*
X147644819Y-84264761D01*
X146978152Y-84264761D02*
X147359104Y-83883809D01*
X125164285Y-86004819D02*
X125069047Y-86004819D01*
X125069047Y-86004819D02*
X124973809Y-86052438D01*
X124973809Y-86052438D02*
X124926190Y-86100057D01*
X124926190Y-86100057D02*
X124878571Y-86195295D01*
X124878571Y-86195295D02*
X124830952Y-86385771D01*
X124830952Y-86385771D02*
X124830952Y-86623866D01*
X124830952Y-86623866D02*
X124878571Y-86814342D01*
X124878571Y-86814342D02*
X124926190Y-86909580D01*
X124926190Y-86909580D02*
X124973809Y-86957200D01*
X124973809Y-86957200D02*
X125069047Y-87004819D01*
X125069047Y-87004819D02*
X125164285Y-87004819D01*
X125164285Y-87004819D02*
X125259523Y-86957200D01*
X125259523Y-86957200D02*
X125307142Y-86909580D01*
X125307142Y-86909580D02*
X125354761Y-86814342D01*
X125354761Y-86814342D02*
X125402380Y-86623866D01*
X125402380Y-86623866D02*
X125402380Y-86385771D01*
X125402380Y-86385771D02*
X125354761Y-86195295D01*
X125354761Y-86195295D02*
X125307142Y-86100057D01*
X125307142Y-86100057D02*
X125259523Y-86052438D01*
X125259523Y-86052438D02*
X125164285Y-86004819D01*
X124402380Y-86909580D02*
X124354761Y-86957200D01*
X124354761Y-86957200D02*
X124402380Y-87004819D01*
X124402380Y-87004819D02*
X124449999Y-86957200D01*
X124449999Y-86957200D02*
X124402380Y-86909580D01*
X124402380Y-86909580D02*
X124402380Y-87004819D01*
X123402381Y-87004819D02*
X123973809Y-87004819D01*
X123688095Y-87004819D02*
X123688095Y-86004819D01*
X123688095Y-86004819D02*
X123783333Y-86147676D01*
X123783333Y-86147676D02*
X123878571Y-86242914D01*
X123878571Y-86242914D02*
X123973809Y-86290533D01*
X122545238Y-86338152D02*
X122545238Y-87004819D01*
X122973809Y-86338152D02*
X122973809Y-86861961D01*
X122973809Y-86861961D02*
X122926190Y-86957200D01*
X122926190Y-86957200D02*
X122830952Y-87004819D01*
X122830952Y-87004819D02*
X122688095Y-87004819D01*
X122688095Y-87004819D02*
X122592857Y-86957200D01*
X122592857Y-86957200D02*
X122545238Y-86909580D01*
X175569047Y-48284819D02*
X176140475Y-48284819D01*
X175854761Y-48284819D02*
X175854761Y-47284819D01*
X175854761Y-47284819D02*
X175949999Y-47427676D01*
X175949999Y-47427676D02*
X176045237Y-47522914D01*
X176045237Y-47522914D02*
X176140475Y-47570533D01*
X175140475Y-48284819D02*
X175140475Y-47284819D01*
X175045237Y-47903866D02*
X174759523Y-48284819D01*
X174759523Y-47618152D02*
X175140475Y-47999104D01*
X185113808Y-43304819D02*
X184494761Y-43304819D01*
X184494761Y-43304819D02*
X184828094Y-43685771D01*
X184828094Y-43685771D02*
X184685237Y-43685771D01*
X184685237Y-43685771D02*
X184589999Y-43733390D01*
X184589999Y-43733390D02*
X184542380Y-43781009D01*
X184542380Y-43781009D02*
X184494761Y-43876247D01*
X184494761Y-43876247D02*
X184494761Y-44114342D01*
X184494761Y-44114342D02*
X184542380Y-44209580D01*
X184542380Y-44209580D02*
X184589999Y-44257200D01*
X184589999Y-44257200D02*
X184685237Y-44304819D01*
X184685237Y-44304819D02*
X184970951Y-44304819D01*
X184970951Y-44304819D02*
X185066189Y-44257200D01*
X185066189Y-44257200D02*
X185113808Y-44209580D01*
X183637618Y-43304819D02*
X183828094Y-43304819D01*
X183828094Y-43304819D02*
X183923332Y-43352438D01*
X183923332Y-43352438D02*
X183970951Y-43400057D01*
X183970951Y-43400057D02*
X184066189Y-43542914D01*
X184066189Y-43542914D02*
X184113808Y-43733390D01*
X184113808Y-43733390D02*
X184113808Y-44114342D01*
X184113808Y-44114342D02*
X184066189Y-44209580D01*
X184066189Y-44209580D02*
X184018570Y-44257200D01*
X184018570Y-44257200D02*
X183923332Y-44304819D01*
X183923332Y-44304819D02*
X183732856Y-44304819D01*
X183732856Y-44304819D02*
X183637618Y-44257200D01*
X183637618Y-44257200D02*
X183589999Y-44209580D01*
X183589999Y-44209580D02*
X183542380Y-44114342D01*
X183542380Y-44114342D02*
X183542380Y-43876247D01*
X183542380Y-43876247D02*
X183589999Y-43781009D01*
X183589999Y-43781009D02*
X183637618Y-43733390D01*
X183637618Y-43733390D02*
X183732856Y-43685771D01*
X183732856Y-43685771D02*
X183923332Y-43685771D01*
X183923332Y-43685771D02*
X184018570Y-43733390D01*
X184018570Y-43733390D02*
X184066189Y-43781009D01*
X184066189Y-43781009D02*
X184113808Y-43876247D01*
X183113808Y-44209580D02*
X183066189Y-44257200D01*
X183066189Y-44257200D02*
X183113808Y-44304819D01*
X183113808Y-44304819D02*
X183161427Y-44257200D01*
X183161427Y-44257200D02*
X183113808Y-44209580D01*
X183113808Y-44209580D02*
X183113808Y-44304819D01*
X182161428Y-43304819D02*
X182637618Y-43304819D01*
X182637618Y-43304819D02*
X182685237Y-43781009D01*
X182685237Y-43781009D02*
X182637618Y-43733390D01*
X182637618Y-43733390D02*
X182542380Y-43685771D01*
X182542380Y-43685771D02*
X182304285Y-43685771D01*
X182304285Y-43685771D02*
X182209047Y-43733390D01*
X182209047Y-43733390D02*
X182161428Y-43781009D01*
X182161428Y-43781009D02*
X182113809Y-43876247D01*
X182113809Y-43876247D02*
X182113809Y-44114342D01*
X182113809Y-44114342D02*
X182161428Y-44209580D01*
X182161428Y-44209580D02*
X182209047Y-44257200D01*
X182209047Y-44257200D02*
X182304285Y-44304819D01*
X182304285Y-44304819D02*
X182542380Y-44304819D01*
X182542380Y-44304819D02*
X182637618Y-44257200D01*
X182637618Y-44257200D02*
X182685237Y-44209580D01*
X107863808Y-69184819D02*
X107244761Y-69184819D01*
X107244761Y-69184819D02*
X107578094Y-69565771D01*
X107578094Y-69565771D02*
X107435237Y-69565771D01*
X107435237Y-69565771D02*
X107339999Y-69613390D01*
X107339999Y-69613390D02*
X107292380Y-69661009D01*
X107292380Y-69661009D02*
X107244761Y-69756247D01*
X107244761Y-69756247D02*
X107244761Y-69994342D01*
X107244761Y-69994342D02*
X107292380Y-70089580D01*
X107292380Y-70089580D02*
X107339999Y-70137200D01*
X107339999Y-70137200D02*
X107435237Y-70184819D01*
X107435237Y-70184819D02*
X107720951Y-70184819D01*
X107720951Y-70184819D02*
X107816189Y-70137200D01*
X107816189Y-70137200D02*
X107863808Y-70089580D01*
X106387618Y-69184819D02*
X106578094Y-69184819D01*
X106578094Y-69184819D02*
X106673332Y-69232438D01*
X106673332Y-69232438D02*
X106720951Y-69280057D01*
X106720951Y-69280057D02*
X106816189Y-69422914D01*
X106816189Y-69422914D02*
X106863808Y-69613390D01*
X106863808Y-69613390D02*
X106863808Y-69994342D01*
X106863808Y-69994342D02*
X106816189Y-70089580D01*
X106816189Y-70089580D02*
X106768570Y-70137200D01*
X106768570Y-70137200D02*
X106673332Y-70184819D01*
X106673332Y-70184819D02*
X106482856Y-70184819D01*
X106482856Y-70184819D02*
X106387618Y-70137200D01*
X106387618Y-70137200D02*
X106339999Y-70089580D01*
X106339999Y-70089580D02*
X106292380Y-69994342D01*
X106292380Y-69994342D02*
X106292380Y-69756247D01*
X106292380Y-69756247D02*
X106339999Y-69661009D01*
X106339999Y-69661009D02*
X106387618Y-69613390D01*
X106387618Y-69613390D02*
X106482856Y-69565771D01*
X106482856Y-69565771D02*
X106673332Y-69565771D01*
X106673332Y-69565771D02*
X106768570Y-69613390D01*
X106768570Y-69613390D02*
X106816189Y-69661009D01*
X106816189Y-69661009D02*
X106863808Y-69756247D01*
X105863808Y-70089580D02*
X105816189Y-70137200D01*
X105816189Y-70137200D02*
X105863808Y-70184819D01*
X105863808Y-70184819D02*
X105911427Y-70137200D01*
X105911427Y-70137200D02*
X105863808Y-70089580D01*
X105863808Y-70089580D02*
X105863808Y-70184819D01*
X104911428Y-69184819D02*
X105387618Y-69184819D01*
X105387618Y-69184819D02*
X105435237Y-69661009D01*
X105435237Y-69661009D02*
X105387618Y-69613390D01*
X105387618Y-69613390D02*
X105292380Y-69565771D01*
X105292380Y-69565771D02*
X105054285Y-69565771D01*
X105054285Y-69565771D02*
X104959047Y-69613390D01*
X104959047Y-69613390D02*
X104911428Y-69661009D01*
X104911428Y-69661009D02*
X104863809Y-69756247D01*
X104863809Y-69756247D02*
X104863809Y-69994342D01*
X104863809Y-69994342D02*
X104911428Y-70089580D01*
X104911428Y-70089580D02*
X104959047Y-70137200D01*
X104959047Y-70137200D02*
X105054285Y-70184819D01*
X105054285Y-70184819D02*
X105292380Y-70184819D01*
X105292380Y-70184819D02*
X105387618Y-70137200D01*
X105387618Y-70137200D02*
X105435237Y-70089580D01*
X128472857Y-86874819D02*
X129044285Y-86874819D01*
X128758571Y-86874819D02*
X128758571Y-85874819D01*
X128758571Y-85874819D02*
X128853809Y-86017676D01*
X128853809Y-86017676D02*
X128949047Y-86112914D01*
X128949047Y-86112914D02*
X129044285Y-86160533D01*
X127853809Y-85874819D02*
X127758571Y-85874819D01*
X127758571Y-85874819D02*
X127663333Y-85922438D01*
X127663333Y-85922438D02*
X127615714Y-85970057D01*
X127615714Y-85970057D02*
X127568095Y-86065295D01*
X127568095Y-86065295D02*
X127520476Y-86255771D01*
X127520476Y-86255771D02*
X127520476Y-86493866D01*
X127520476Y-86493866D02*
X127568095Y-86684342D01*
X127568095Y-86684342D02*
X127615714Y-86779580D01*
X127615714Y-86779580D02*
X127663333Y-86827200D01*
X127663333Y-86827200D02*
X127758571Y-86874819D01*
X127758571Y-86874819D02*
X127853809Y-86874819D01*
X127853809Y-86874819D02*
X127949047Y-86827200D01*
X127949047Y-86827200D02*
X127996666Y-86779580D01*
X127996666Y-86779580D02*
X128044285Y-86684342D01*
X128044285Y-86684342D02*
X128091904Y-86493866D01*
X128091904Y-86493866D02*
X128091904Y-86255771D01*
X128091904Y-86255771D02*
X128044285Y-86065295D01*
X128044285Y-86065295D02*
X127996666Y-85970057D01*
X127996666Y-85970057D02*
X127949047Y-85922438D01*
X127949047Y-85922438D02*
X127853809Y-85874819D01*
X126663333Y-86208152D02*
X126663333Y-86874819D01*
X127091904Y-86208152D02*
X127091904Y-86731961D01*
X127091904Y-86731961D02*
X127044285Y-86827200D01*
X127044285Y-86827200D02*
X126949047Y-86874819D01*
X126949047Y-86874819D02*
X126806190Y-86874819D01*
X126806190Y-86874819D02*
X126710952Y-86827200D01*
X126710952Y-86827200D02*
X126663333Y-86779580D01*
X145263333Y-63371009D02*
X145596666Y-63371009D01*
X145596666Y-63894819D02*
X145596666Y-62894819D01*
X145596666Y-62894819D02*
X145120476Y-62894819D01*
X144215714Y-63894819D02*
X144787142Y-63894819D01*
X144501428Y-63894819D02*
X144501428Y-62894819D01*
X144501428Y-62894819D02*
X144596666Y-63037676D01*
X144596666Y-63037676D02*
X144691904Y-63132914D01*
X144691904Y-63132914D02*
X144787142Y-63180533D01*
X166704819Y-117940952D02*
X166704819Y-117369524D01*
X166704819Y-117655238D02*
X165704819Y-117655238D01*
X165704819Y-117655238D02*
X165847676Y-117560000D01*
X165847676Y-117560000D02*
X165942914Y-117464762D01*
X165942914Y-117464762D02*
X165990533Y-117369524D01*
X165704819Y-118560000D02*
X165704819Y-118655238D01*
X165704819Y-118655238D02*
X165752438Y-118750476D01*
X165752438Y-118750476D02*
X165800057Y-118798095D01*
X165800057Y-118798095D02*
X165895295Y-118845714D01*
X165895295Y-118845714D02*
X166085771Y-118893333D01*
X166085771Y-118893333D02*
X166323866Y-118893333D01*
X166323866Y-118893333D02*
X166514342Y-118845714D01*
X166514342Y-118845714D02*
X166609580Y-118798095D01*
X166609580Y-118798095D02*
X166657200Y-118750476D01*
X166657200Y-118750476D02*
X166704819Y-118655238D01*
X166704819Y-118655238D02*
X166704819Y-118560000D01*
X166704819Y-118560000D02*
X166657200Y-118464762D01*
X166657200Y-118464762D02*
X166609580Y-118417143D01*
X166609580Y-118417143D02*
X166514342Y-118369524D01*
X166514342Y-118369524D02*
X166323866Y-118321905D01*
X166323866Y-118321905D02*
X166085771Y-118321905D01*
X166085771Y-118321905D02*
X165895295Y-118369524D01*
X165895295Y-118369524D02*
X165800057Y-118417143D01*
X165800057Y-118417143D02*
X165752438Y-118464762D01*
X165752438Y-118464762D02*
X165704819Y-118560000D01*
X165704819Y-119512381D02*
X165704819Y-119607619D01*
X165704819Y-119607619D02*
X165752438Y-119702857D01*
X165752438Y-119702857D02*
X165800057Y-119750476D01*
X165800057Y-119750476D02*
X165895295Y-119798095D01*
X165895295Y-119798095D02*
X166085771Y-119845714D01*
X166085771Y-119845714D02*
X166323866Y-119845714D01*
X166323866Y-119845714D02*
X166514342Y-119798095D01*
X166514342Y-119798095D02*
X166609580Y-119750476D01*
X166609580Y-119750476D02*
X166657200Y-119702857D01*
X166657200Y-119702857D02*
X166704819Y-119607619D01*
X166704819Y-119607619D02*
X166704819Y-119512381D01*
X166704819Y-119512381D02*
X166657200Y-119417143D01*
X166657200Y-119417143D02*
X166609580Y-119369524D01*
X166609580Y-119369524D02*
X166514342Y-119321905D01*
X166514342Y-119321905D02*
X166323866Y-119274286D01*
X166323866Y-119274286D02*
X166085771Y-119274286D01*
X166085771Y-119274286D02*
X165895295Y-119321905D01*
X165895295Y-119321905D02*
X165800057Y-119369524D01*
X165800057Y-119369524D02*
X165752438Y-119417143D01*
X165752438Y-119417143D02*
X165704819Y-119512381D01*
X166038152Y-120274286D02*
X166704819Y-120274286D01*
X166133390Y-120274286D02*
X166085771Y-120321905D01*
X166085771Y-120321905D02*
X166038152Y-120417143D01*
X166038152Y-120417143D02*
X166038152Y-120560000D01*
X166038152Y-120560000D02*
X166085771Y-120655238D01*
X166085771Y-120655238D02*
X166181009Y-120702857D01*
X166181009Y-120702857D02*
X166704819Y-120702857D01*
X119483808Y-55444819D02*
X118864761Y-55444819D01*
X118864761Y-55444819D02*
X119198094Y-55825771D01*
X119198094Y-55825771D02*
X119055237Y-55825771D01*
X119055237Y-55825771D02*
X118959999Y-55873390D01*
X118959999Y-55873390D02*
X118912380Y-55921009D01*
X118912380Y-55921009D02*
X118864761Y-56016247D01*
X118864761Y-56016247D02*
X118864761Y-56254342D01*
X118864761Y-56254342D02*
X118912380Y-56349580D01*
X118912380Y-56349580D02*
X118959999Y-56397200D01*
X118959999Y-56397200D02*
X119055237Y-56444819D01*
X119055237Y-56444819D02*
X119340951Y-56444819D01*
X119340951Y-56444819D02*
X119436189Y-56397200D01*
X119436189Y-56397200D02*
X119483808Y-56349580D01*
X118007618Y-55444819D02*
X118198094Y-55444819D01*
X118198094Y-55444819D02*
X118293332Y-55492438D01*
X118293332Y-55492438D02*
X118340951Y-55540057D01*
X118340951Y-55540057D02*
X118436189Y-55682914D01*
X118436189Y-55682914D02*
X118483808Y-55873390D01*
X118483808Y-55873390D02*
X118483808Y-56254342D01*
X118483808Y-56254342D02*
X118436189Y-56349580D01*
X118436189Y-56349580D02*
X118388570Y-56397200D01*
X118388570Y-56397200D02*
X118293332Y-56444819D01*
X118293332Y-56444819D02*
X118102856Y-56444819D01*
X118102856Y-56444819D02*
X118007618Y-56397200D01*
X118007618Y-56397200D02*
X117959999Y-56349580D01*
X117959999Y-56349580D02*
X117912380Y-56254342D01*
X117912380Y-56254342D02*
X117912380Y-56016247D01*
X117912380Y-56016247D02*
X117959999Y-55921009D01*
X117959999Y-55921009D02*
X118007618Y-55873390D01*
X118007618Y-55873390D02*
X118102856Y-55825771D01*
X118102856Y-55825771D02*
X118293332Y-55825771D01*
X118293332Y-55825771D02*
X118388570Y-55873390D01*
X118388570Y-55873390D02*
X118436189Y-55921009D01*
X118436189Y-55921009D02*
X118483808Y-56016247D01*
X117483808Y-56349580D02*
X117436189Y-56397200D01*
X117436189Y-56397200D02*
X117483808Y-56444819D01*
X117483808Y-56444819D02*
X117531427Y-56397200D01*
X117531427Y-56397200D02*
X117483808Y-56349580D01*
X117483808Y-56349580D02*
X117483808Y-56444819D01*
X116531428Y-55444819D02*
X117007618Y-55444819D01*
X117007618Y-55444819D02*
X117055237Y-55921009D01*
X117055237Y-55921009D02*
X117007618Y-55873390D01*
X117007618Y-55873390D02*
X116912380Y-55825771D01*
X116912380Y-55825771D02*
X116674285Y-55825771D01*
X116674285Y-55825771D02*
X116579047Y-55873390D01*
X116579047Y-55873390D02*
X116531428Y-55921009D01*
X116531428Y-55921009D02*
X116483809Y-56016247D01*
X116483809Y-56016247D02*
X116483809Y-56254342D01*
X116483809Y-56254342D02*
X116531428Y-56349580D01*
X116531428Y-56349580D02*
X116579047Y-56397200D01*
X116579047Y-56397200D02*
X116674285Y-56444819D01*
X116674285Y-56444819D02*
X116912380Y-56444819D01*
X116912380Y-56444819D02*
X117007618Y-56397200D01*
X117007618Y-56397200D02*
X117055237Y-56349580D01*
X125596666Y-53554819D02*
X126168094Y-53554819D01*
X125882380Y-53554819D02*
X125882380Y-52554819D01*
X125882380Y-52554819D02*
X125977618Y-52697676D01*
X125977618Y-52697676D02*
X126072856Y-52792914D01*
X126072856Y-52792914D02*
X126168094Y-52840533D01*
X124739523Y-52888152D02*
X124739523Y-53554819D01*
X125168094Y-52888152D02*
X125168094Y-53411961D01*
X125168094Y-53411961D02*
X125120475Y-53507200D01*
X125120475Y-53507200D02*
X125025237Y-53554819D01*
X125025237Y-53554819D02*
X124882380Y-53554819D01*
X124882380Y-53554819D02*
X124787142Y-53507200D01*
X124787142Y-53507200D02*
X124739523Y-53459580D01*
X135504285Y-77744819D02*
X135409047Y-77744819D01*
X135409047Y-77744819D02*
X135313809Y-77792438D01*
X135313809Y-77792438D02*
X135266190Y-77840057D01*
X135266190Y-77840057D02*
X135218571Y-77935295D01*
X135218571Y-77935295D02*
X135170952Y-78125771D01*
X135170952Y-78125771D02*
X135170952Y-78363866D01*
X135170952Y-78363866D02*
X135218571Y-78554342D01*
X135218571Y-78554342D02*
X135266190Y-78649580D01*
X135266190Y-78649580D02*
X135313809Y-78697200D01*
X135313809Y-78697200D02*
X135409047Y-78744819D01*
X135409047Y-78744819D02*
X135504285Y-78744819D01*
X135504285Y-78744819D02*
X135599523Y-78697200D01*
X135599523Y-78697200D02*
X135647142Y-78649580D01*
X135647142Y-78649580D02*
X135694761Y-78554342D01*
X135694761Y-78554342D02*
X135742380Y-78363866D01*
X135742380Y-78363866D02*
X135742380Y-78125771D01*
X135742380Y-78125771D02*
X135694761Y-77935295D01*
X135694761Y-77935295D02*
X135647142Y-77840057D01*
X135647142Y-77840057D02*
X135599523Y-77792438D01*
X135599523Y-77792438D02*
X135504285Y-77744819D01*
X134742380Y-78649580D02*
X134694761Y-78697200D01*
X134694761Y-78697200D02*
X134742380Y-78744819D01*
X134742380Y-78744819D02*
X134789999Y-78697200D01*
X134789999Y-78697200D02*
X134742380Y-78649580D01*
X134742380Y-78649580D02*
X134742380Y-78744819D01*
X133742381Y-78744819D02*
X134313809Y-78744819D01*
X134028095Y-78744819D02*
X134028095Y-77744819D01*
X134028095Y-77744819D02*
X134123333Y-77887676D01*
X134123333Y-77887676D02*
X134218571Y-77982914D01*
X134218571Y-77982914D02*
X134313809Y-78030533D01*
X132885238Y-78078152D02*
X132885238Y-78744819D01*
X133313809Y-78078152D02*
X133313809Y-78601961D01*
X133313809Y-78601961D02*
X133266190Y-78697200D01*
X133266190Y-78697200D02*
X133170952Y-78744819D01*
X133170952Y-78744819D02*
X133028095Y-78744819D01*
X133028095Y-78744819D02*
X132932857Y-78697200D01*
X132932857Y-78697200D02*
X132885238Y-78649580D01*
X187026666Y-67234819D02*
X187598094Y-67234819D01*
X187312380Y-67234819D02*
X187312380Y-66234819D01*
X187312380Y-66234819D02*
X187407618Y-66377676D01*
X187407618Y-66377676D02*
X187502856Y-66472914D01*
X187502856Y-66472914D02*
X187598094Y-66520533D01*
X186169523Y-66568152D02*
X186169523Y-67234819D01*
X186598094Y-66568152D02*
X186598094Y-67091961D01*
X186598094Y-67091961D02*
X186550475Y-67187200D01*
X186550475Y-67187200D02*
X186455237Y-67234819D01*
X186455237Y-67234819D02*
X186312380Y-67234819D01*
X186312380Y-67234819D02*
X186217142Y-67187200D01*
X186217142Y-67187200D02*
X186169523Y-67139580D01*
X120969047Y-73484819D02*
X121540475Y-73484819D01*
X121254761Y-73484819D02*
X121254761Y-72484819D01*
X121254761Y-72484819D02*
X121349999Y-72627676D01*
X121349999Y-72627676D02*
X121445237Y-72722914D01*
X121445237Y-72722914D02*
X121540475Y-72770533D01*
X120540475Y-73484819D02*
X120540475Y-72484819D01*
X120445237Y-73103866D02*
X120159523Y-73484819D01*
X120159523Y-72818152D02*
X120540475Y-73199104D01*
X140550475Y-118980057D02*
X140502856Y-118932438D01*
X140502856Y-118932438D02*
X140407618Y-118884819D01*
X140407618Y-118884819D02*
X140169523Y-118884819D01*
X140169523Y-118884819D02*
X140074285Y-118932438D01*
X140074285Y-118932438D02*
X140026666Y-118980057D01*
X140026666Y-118980057D02*
X139979047Y-119075295D01*
X139979047Y-119075295D02*
X139979047Y-119170533D01*
X139979047Y-119170533D02*
X140026666Y-119313390D01*
X140026666Y-119313390D02*
X140598094Y-119884819D01*
X140598094Y-119884819D02*
X139979047Y-119884819D01*
X139598094Y-118980057D02*
X139550475Y-118932438D01*
X139550475Y-118932438D02*
X139455237Y-118884819D01*
X139455237Y-118884819D02*
X139217142Y-118884819D01*
X139217142Y-118884819D02*
X139121904Y-118932438D01*
X139121904Y-118932438D02*
X139074285Y-118980057D01*
X139074285Y-118980057D02*
X139026666Y-119075295D01*
X139026666Y-119075295D02*
X139026666Y-119170533D01*
X139026666Y-119170533D02*
X139074285Y-119313390D01*
X139074285Y-119313390D02*
X139645713Y-119884819D01*
X139645713Y-119884819D02*
X139026666Y-119884819D01*
X138407618Y-118884819D02*
X138312380Y-118884819D01*
X138312380Y-118884819D02*
X138217142Y-118932438D01*
X138217142Y-118932438D02*
X138169523Y-118980057D01*
X138169523Y-118980057D02*
X138121904Y-119075295D01*
X138121904Y-119075295D02*
X138074285Y-119265771D01*
X138074285Y-119265771D02*
X138074285Y-119503866D01*
X138074285Y-119503866D02*
X138121904Y-119694342D01*
X138121904Y-119694342D02*
X138169523Y-119789580D01*
X138169523Y-119789580D02*
X138217142Y-119837200D01*
X138217142Y-119837200D02*
X138312380Y-119884819D01*
X138312380Y-119884819D02*
X138407618Y-119884819D01*
X138407618Y-119884819D02*
X138502856Y-119837200D01*
X138502856Y-119837200D02*
X138550475Y-119789580D01*
X138550475Y-119789580D02*
X138598094Y-119694342D01*
X138598094Y-119694342D02*
X138645713Y-119503866D01*
X138645713Y-119503866D02*
X138645713Y-119265771D01*
X138645713Y-119265771D02*
X138598094Y-119075295D01*
X138598094Y-119075295D02*
X138550475Y-118980057D01*
X138550475Y-118980057D02*
X138502856Y-118932438D01*
X138502856Y-118932438D02*
X138407618Y-118884819D01*
X137217142Y-119218152D02*
X137217142Y-119884819D01*
X137645713Y-119218152D02*
X137645713Y-119741961D01*
X137645713Y-119741961D02*
X137598094Y-119837200D01*
X137598094Y-119837200D02*
X137502856Y-119884819D01*
X137502856Y-119884819D02*
X137359999Y-119884819D01*
X137359999Y-119884819D02*
X137264761Y-119837200D01*
X137264761Y-119837200D02*
X137217142Y-119789580D01*
X125343808Y-47939818D02*
X124724761Y-47939818D01*
X124724761Y-47939818D02*
X125058094Y-48320770D01*
X125058094Y-48320770D02*
X124915237Y-48320770D01*
X124915237Y-48320770D02*
X124819999Y-48368389D01*
X124819999Y-48368389D02*
X124772380Y-48416008D01*
X124772380Y-48416008D02*
X124724761Y-48511246D01*
X124724761Y-48511246D02*
X124724761Y-48749341D01*
X124724761Y-48749341D02*
X124772380Y-48844579D01*
X124772380Y-48844579D02*
X124819999Y-48892199D01*
X124819999Y-48892199D02*
X124915237Y-48939818D01*
X124915237Y-48939818D02*
X125200951Y-48939818D01*
X125200951Y-48939818D02*
X125296189Y-48892199D01*
X125296189Y-48892199D02*
X125343808Y-48844579D01*
X123867618Y-47939818D02*
X124058094Y-47939818D01*
X124058094Y-47939818D02*
X124153332Y-47987437D01*
X124153332Y-47987437D02*
X124200951Y-48035056D01*
X124200951Y-48035056D02*
X124296189Y-48177913D01*
X124296189Y-48177913D02*
X124343808Y-48368389D01*
X124343808Y-48368389D02*
X124343808Y-48749341D01*
X124343808Y-48749341D02*
X124296189Y-48844579D01*
X124296189Y-48844579D02*
X124248570Y-48892199D01*
X124248570Y-48892199D02*
X124153332Y-48939818D01*
X124153332Y-48939818D02*
X123962856Y-48939818D01*
X123962856Y-48939818D02*
X123867618Y-48892199D01*
X123867618Y-48892199D02*
X123819999Y-48844579D01*
X123819999Y-48844579D02*
X123772380Y-48749341D01*
X123772380Y-48749341D02*
X123772380Y-48511246D01*
X123772380Y-48511246D02*
X123819999Y-48416008D01*
X123819999Y-48416008D02*
X123867618Y-48368389D01*
X123867618Y-48368389D02*
X123962856Y-48320770D01*
X123962856Y-48320770D02*
X124153332Y-48320770D01*
X124153332Y-48320770D02*
X124248570Y-48368389D01*
X124248570Y-48368389D02*
X124296189Y-48416008D01*
X124296189Y-48416008D02*
X124343808Y-48511246D01*
X123343808Y-48844579D02*
X123296189Y-48892199D01*
X123296189Y-48892199D02*
X123343808Y-48939818D01*
X123343808Y-48939818D02*
X123391427Y-48892199D01*
X123391427Y-48892199D02*
X123343808Y-48844579D01*
X123343808Y-48844579D02*
X123343808Y-48939818D01*
X122391428Y-47939818D02*
X122867618Y-47939818D01*
X122867618Y-47939818D02*
X122915237Y-48416008D01*
X122915237Y-48416008D02*
X122867618Y-48368389D01*
X122867618Y-48368389D02*
X122772380Y-48320770D01*
X122772380Y-48320770D02*
X122534285Y-48320770D01*
X122534285Y-48320770D02*
X122439047Y-48368389D01*
X122439047Y-48368389D02*
X122391428Y-48416008D01*
X122391428Y-48416008D02*
X122343809Y-48511246D01*
X122343809Y-48511246D02*
X122343809Y-48749341D01*
X122343809Y-48749341D02*
X122391428Y-48844579D01*
X122391428Y-48844579D02*
X122439047Y-48892199D01*
X122439047Y-48892199D02*
X122534285Y-48939818D01*
X122534285Y-48939818D02*
X122772380Y-48939818D01*
X122772380Y-48939818D02*
X122867618Y-48892199D01*
X122867618Y-48892199D02*
X122915237Y-48844579D01*
X124273333Y-110501009D02*
X124606666Y-110501009D01*
X124606666Y-111024819D02*
X124606666Y-110024819D01*
X124606666Y-110024819D02*
X124130476Y-110024819D01*
X123797142Y-110120057D02*
X123749523Y-110072438D01*
X123749523Y-110072438D02*
X123654285Y-110024819D01*
X123654285Y-110024819D02*
X123416190Y-110024819D01*
X123416190Y-110024819D02*
X123320952Y-110072438D01*
X123320952Y-110072438D02*
X123273333Y-110120057D01*
X123273333Y-110120057D02*
X123225714Y-110215295D01*
X123225714Y-110215295D02*
X123225714Y-110310533D01*
X123225714Y-110310533D02*
X123273333Y-110453390D01*
X123273333Y-110453390D02*
X123844761Y-111024819D01*
X123844761Y-111024819D02*
X123225714Y-111024819D01*
X149718152Y-81841428D02*
X150384819Y-81841428D01*
X149337200Y-81603333D02*
X150051485Y-81365238D01*
X150051485Y-81365238D02*
X150051485Y-81984285D01*
X150289580Y-82365238D02*
X150337200Y-82412857D01*
X150337200Y-82412857D02*
X150384819Y-82365238D01*
X150384819Y-82365238D02*
X150337200Y-82317619D01*
X150337200Y-82317619D02*
X150289580Y-82365238D01*
X150289580Y-82365238D02*
X150384819Y-82365238D01*
X149384819Y-82746190D02*
X149384819Y-83412856D01*
X149384819Y-83412856D02*
X150384819Y-82984285D01*
X150384819Y-83793809D02*
X149384819Y-83793809D01*
X150003866Y-83889047D02*
X150384819Y-84174761D01*
X149718152Y-84174761D02*
X150099104Y-83793809D01*
X194101428Y-59610057D02*
X194196666Y-59562438D01*
X194196666Y-59562438D02*
X194291904Y-59467200D01*
X194291904Y-59467200D02*
X194434761Y-59324342D01*
X194434761Y-59324342D02*
X194529999Y-59276723D01*
X194529999Y-59276723D02*
X194625237Y-59276723D01*
X194577618Y-59514819D02*
X194672856Y-59467200D01*
X194672856Y-59467200D02*
X194768094Y-59371961D01*
X194768094Y-59371961D02*
X194815713Y-59181485D01*
X194815713Y-59181485D02*
X194815713Y-58848152D01*
X194815713Y-58848152D02*
X194768094Y-58657676D01*
X194768094Y-58657676D02*
X194672856Y-58562438D01*
X194672856Y-58562438D02*
X194577618Y-58514819D01*
X194577618Y-58514819D02*
X194387142Y-58514819D01*
X194387142Y-58514819D02*
X194291904Y-58562438D01*
X194291904Y-58562438D02*
X194196666Y-58657676D01*
X194196666Y-58657676D02*
X194149047Y-58848152D01*
X194149047Y-58848152D02*
X194149047Y-59181485D01*
X194149047Y-59181485D02*
X194196666Y-59371961D01*
X194196666Y-59371961D02*
X194291904Y-59467200D01*
X194291904Y-59467200D02*
X194387142Y-59514819D01*
X194387142Y-59514819D02*
X194577618Y-59514819D01*
X193196666Y-59514819D02*
X193768094Y-59514819D01*
X193482380Y-59514819D02*
X193482380Y-58514819D01*
X193482380Y-58514819D02*
X193577618Y-58657676D01*
X193577618Y-58657676D02*
X193672856Y-58752914D01*
X193672856Y-58752914D02*
X193768094Y-58800533D01*
X192577618Y-58514819D02*
X192482380Y-58514819D01*
X192482380Y-58514819D02*
X192387142Y-58562438D01*
X192387142Y-58562438D02*
X192339523Y-58610057D01*
X192339523Y-58610057D02*
X192291904Y-58705295D01*
X192291904Y-58705295D02*
X192244285Y-58895771D01*
X192244285Y-58895771D02*
X192244285Y-59133866D01*
X192244285Y-59133866D02*
X192291904Y-59324342D01*
X192291904Y-59324342D02*
X192339523Y-59419580D01*
X192339523Y-59419580D02*
X192387142Y-59467200D01*
X192387142Y-59467200D02*
X192482380Y-59514819D01*
X192482380Y-59514819D02*
X192577618Y-59514819D01*
X192577618Y-59514819D02*
X192672856Y-59467200D01*
X192672856Y-59467200D02*
X192720475Y-59419580D01*
X192720475Y-59419580D02*
X192768094Y-59324342D01*
X192768094Y-59324342D02*
X192815713Y-59133866D01*
X192815713Y-59133866D02*
X192815713Y-58895771D01*
X192815713Y-58895771D02*
X192768094Y-58705295D01*
X192768094Y-58705295D02*
X192720475Y-58610057D01*
X192720475Y-58610057D02*
X192672856Y-58562438D01*
X192672856Y-58562438D02*
X192577618Y-58514819D01*
X124344819Y-78467143D02*
X124344819Y-77895715D01*
X124344819Y-78181429D02*
X123344819Y-78181429D01*
X123344819Y-78181429D02*
X123487676Y-78086191D01*
X123487676Y-78086191D02*
X123582914Y-77990953D01*
X123582914Y-77990953D02*
X123630533Y-77895715D01*
X123344819Y-79086191D02*
X123344819Y-79181429D01*
X123344819Y-79181429D02*
X123392438Y-79276667D01*
X123392438Y-79276667D02*
X123440057Y-79324286D01*
X123440057Y-79324286D02*
X123535295Y-79371905D01*
X123535295Y-79371905D02*
X123725771Y-79419524D01*
X123725771Y-79419524D02*
X123963866Y-79419524D01*
X123963866Y-79419524D02*
X124154342Y-79371905D01*
X124154342Y-79371905D02*
X124249580Y-79324286D01*
X124249580Y-79324286D02*
X124297200Y-79276667D01*
X124297200Y-79276667D02*
X124344819Y-79181429D01*
X124344819Y-79181429D02*
X124344819Y-79086191D01*
X124344819Y-79086191D02*
X124297200Y-78990953D01*
X124297200Y-78990953D02*
X124249580Y-78943334D01*
X124249580Y-78943334D02*
X124154342Y-78895715D01*
X124154342Y-78895715D02*
X123963866Y-78848096D01*
X123963866Y-78848096D02*
X123725771Y-78848096D01*
X123725771Y-78848096D02*
X123535295Y-78895715D01*
X123535295Y-78895715D02*
X123440057Y-78943334D01*
X123440057Y-78943334D02*
X123392438Y-78990953D01*
X123392438Y-78990953D02*
X123344819Y-79086191D01*
X123678152Y-80276667D02*
X124344819Y-80276667D01*
X123678152Y-79848096D02*
X124201961Y-79848096D01*
X124201961Y-79848096D02*
X124297200Y-79895715D01*
X124297200Y-79895715D02*
X124344819Y-79990953D01*
X124344819Y-79990953D02*
X124344819Y-80133810D01*
X124344819Y-80133810D02*
X124297200Y-80229048D01*
X124297200Y-80229048D02*
X124249580Y-80276667D01*
X111316666Y-64864819D02*
X111888094Y-64864819D01*
X111602380Y-64864819D02*
X111602380Y-63864819D01*
X111602380Y-63864819D02*
X111697618Y-64007676D01*
X111697618Y-64007676D02*
X111792856Y-64102914D01*
X111792856Y-64102914D02*
X111888094Y-64150533D01*
X110459523Y-64198152D02*
X110459523Y-64864819D01*
X110888094Y-64198152D02*
X110888094Y-64721961D01*
X110888094Y-64721961D02*
X110840475Y-64817200D01*
X110840475Y-64817200D02*
X110745237Y-64864819D01*
X110745237Y-64864819D02*
X110602380Y-64864819D01*
X110602380Y-64864819D02*
X110507142Y-64817200D01*
X110507142Y-64817200D02*
X110459523Y-64769580D01*
X129025238Y-39540057D02*
X129120476Y-39492438D01*
X129120476Y-39492438D02*
X129215714Y-39397200D01*
X129215714Y-39397200D02*
X129358571Y-39254342D01*
X129358571Y-39254342D02*
X129453809Y-39206723D01*
X129453809Y-39206723D02*
X129549047Y-39206723D01*
X129501428Y-39444819D02*
X129596666Y-39397200D01*
X129596666Y-39397200D02*
X129691904Y-39301961D01*
X129691904Y-39301961D02*
X129739523Y-39111485D01*
X129739523Y-39111485D02*
X129739523Y-38778152D01*
X129739523Y-38778152D02*
X129691904Y-38587676D01*
X129691904Y-38587676D02*
X129596666Y-38492438D01*
X129596666Y-38492438D02*
X129501428Y-38444819D01*
X129501428Y-38444819D02*
X129310952Y-38444819D01*
X129310952Y-38444819D02*
X129215714Y-38492438D01*
X129215714Y-38492438D02*
X129120476Y-38587676D01*
X129120476Y-38587676D02*
X129072857Y-38778152D01*
X129072857Y-38778152D02*
X129072857Y-39111485D01*
X129072857Y-39111485D02*
X129120476Y-39301961D01*
X129120476Y-39301961D02*
X129215714Y-39397200D01*
X129215714Y-39397200D02*
X129310952Y-39444819D01*
X129310952Y-39444819D02*
X129501428Y-39444819D01*
X128501428Y-38873390D02*
X128596666Y-38825771D01*
X128596666Y-38825771D02*
X128644285Y-38778152D01*
X128644285Y-38778152D02*
X128691904Y-38682914D01*
X128691904Y-38682914D02*
X128691904Y-38635295D01*
X128691904Y-38635295D02*
X128644285Y-38540057D01*
X128644285Y-38540057D02*
X128596666Y-38492438D01*
X128596666Y-38492438D02*
X128501428Y-38444819D01*
X128501428Y-38444819D02*
X128310952Y-38444819D01*
X128310952Y-38444819D02*
X128215714Y-38492438D01*
X128215714Y-38492438D02*
X128168095Y-38540057D01*
X128168095Y-38540057D02*
X128120476Y-38635295D01*
X128120476Y-38635295D02*
X128120476Y-38682914D01*
X128120476Y-38682914D02*
X128168095Y-38778152D01*
X128168095Y-38778152D02*
X128215714Y-38825771D01*
X128215714Y-38825771D02*
X128310952Y-38873390D01*
X128310952Y-38873390D02*
X128501428Y-38873390D01*
X128501428Y-38873390D02*
X128596666Y-38921009D01*
X128596666Y-38921009D02*
X128644285Y-38968628D01*
X128644285Y-38968628D02*
X128691904Y-39063866D01*
X128691904Y-39063866D02*
X128691904Y-39254342D01*
X128691904Y-39254342D02*
X128644285Y-39349580D01*
X128644285Y-39349580D02*
X128596666Y-39397200D01*
X128596666Y-39397200D02*
X128501428Y-39444819D01*
X128501428Y-39444819D02*
X128310952Y-39444819D01*
X128310952Y-39444819D02*
X128215714Y-39397200D01*
X128215714Y-39397200D02*
X128168095Y-39349580D01*
X128168095Y-39349580D02*
X128120476Y-39254342D01*
X128120476Y-39254342D02*
X128120476Y-39063866D01*
X128120476Y-39063866D02*
X128168095Y-38968628D01*
X128168095Y-38968628D02*
X128215714Y-38921009D01*
X128215714Y-38921009D02*
X128310952Y-38873390D01*
X154344819Y-127374761D02*
X154344819Y-126803333D01*
X154344819Y-127089047D02*
X153344819Y-127089047D01*
X153344819Y-127089047D02*
X153487676Y-126993809D01*
X153487676Y-126993809D02*
X153582914Y-126898571D01*
X153582914Y-126898571D02*
X153630533Y-126803333D01*
X153344819Y-127993809D02*
X153344819Y-128089047D01*
X153344819Y-128089047D02*
X153392438Y-128184285D01*
X153392438Y-128184285D02*
X153440057Y-128231904D01*
X153440057Y-128231904D02*
X153535295Y-128279523D01*
X153535295Y-128279523D02*
X153725771Y-128327142D01*
X153725771Y-128327142D02*
X153963866Y-128327142D01*
X153963866Y-128327142D02*
X154154342Y-128279523D01*
X154154342Y-128279523D02*
X154249580Y-128231904D01*
X154249580Y-128231904D02*
X154297200Y-128184285D01*
X154297200Y-128184285D02*
X154344819Y-128089047D01*
X154344819Y-128089047D02*
X154344819Y-127993809D01*
X154344819Y-127993809D02*
X154297200Y-127898571D01*
X154297200Y-127898571D02*
X154249580Y-127850952D01*
X154249580Y-127850952D02*
X154154342Y-127803333D01*
X154154342Y-127803333D02*
X153963866Y-127755714D01*
X153963866Y-127755714D02*
X153725771Y-127755714D01*
X153725771Y-127755714D02*
X153535295Y-127803333D01*
X153535295Y-127803333D02*
X153440057Y-127850952D01*
X153440057Y-127850952D02*
X153392438Y-127898571D01*
X153392438Y-127898571D02*
X153344819Y-127993809D01*
X154344819Y-128755714D02*
X153344819Y-128755714D01*
X153963866Y-128850952D02*
X154344819Y-129136666D01*
X153678152Y-129136666D02*
X154059104Y-128755714D01*
X118954166Y-51284819D02*
X119525594Y-51284819D01*
X119239880Y-51284819D02*
X119239880Y-50284819D01*
X119239880Y-50284819D02*
X119335118Y-50427676D01*
X119335118Y-50427676D02*
X119430356Y-50522914D01*
X119430356Y-50522914D02*
X119525594Y-50570533D01*
X118097023Y-50618152D02*
X118097023Y-51284819D01*
X118525594Y-50618152D02*
X118525594Y-51141961D01*
X118525594Y-51141961D02*
X118477975Y-51237200D01*
X118477975Y-51237200D02*
X118382737Y-51284819D01*
X118382737Y-51284819D02*
X118239880Y-51284819D01*
X118239880Y-51284819D02*
X118144642Y-51237200D01*
X118144642Y-51237200D02*
X118097023Y-51189580D01*
X187431547Y-64304819D02*
X188002975Y-64304819D01*
X187717261Y-64304819D02*
X187717261Y-63304819D01*
X187717261Y-63304819D02*
X187812499Y-63447676D01*
X187812499Y-63447676D02*
X187907737Y-63542914D01*
X187907737Y-63542914D02*
X188002975Y-63590533D01*
X187002975Y-64304819D02*
X187002975Y-63304819D01*
X186907737Y-63923866D02*
X186622023Y-64304819D01*
X186622023Y-63638152D02*
X187002975Y-64019104D01*
X175635238Y-46294819D02*
X176206666Y-46294819D01*
X175920952Y-46294819D02*
X175920952Y-45294819D01*
X175920952Y-45294819D02*
X176016190Y-45437676D01*
X176016190Y-45437676D02*
X176111428Y-45532914D01*
X176111428Y-45532914D02*
X176206666Y-45580533D01*
X175016190Y-45294819D02*
X174920952Y-45294819D01*
X174920952Y-45294819D02*
X174825714Y-45342438D01*
X174825714Y-45342438D02*
X174778095Y-45390057D01*
X174778095Y-45390057D02*
X174730476Y-45485295D01*
X174730476Y-45485295D02*
X174682857Y-45675771D01*
X174682857Y-45675771D02*
X174682857Y-45913866D01*
X174682857Y-45913866D02*
X174730476Y-46104342D01*
X174730476Y-46104342D02*
X174778095Y-46199580D01*
X174778095Y-46199580D02*
X174825714Y-46247200D01*
X174825714Y-46247200D02*
X174920952Y-46294819D01*
X174920952Y-46294819D02*
X175016190Y-46294819D01*
X175016190Y-46294819D02*
X175111428Y-46247200D01*
X175111428Y-46247200D02*
X175159047Y-46199580D01*
X175159047Y-46199580D02*
X175206666Y-46104342D01*
X175206666Y-46104342D02*
X175254285Y-45913866D01*
X175254285Y-45913866D02*
X175254285Y-45675771D01*
X175254285Y-45675771D02*
X175206666Y-45485295D01*
X175206666Y-45485295D02*
X175159047Y-45390057D01*
X175159047Y-45390057D02*
X175111428Y-45342438D01*
X175111428Y-45342438D02*
X175016190Y-45294819D01*
X174254285Y-46294819D02*
X174254285Y-45294819D01*
X174159047Y-45913866D02*
X173873333Y-46294819D01*
X173873333Y-45628152D02*
X174254285Y-46009104D01*
X194953808Y-73794819D02*
X194334761Y-73794819D01*
X194334761Y-73794819D02*
X194668094Y-74175771D01*
X194668094Y-74175771D02*
X194525237Y-74175771D01*
X194525237Y-74175771D02*
X194429999Y-74223390D01*
X194429999Y-74223390D02*
X194382380Y-74271009D01*
X194382380Y-74271009D02*
X194334761Y-74366247D01*
X194334761Y-74366247D02*
X194334761Y-74604342D01*
X194334761Y-74604342D02*
X194382380Y-74699580D01*
X194382380Y-74699580D02*
X194429999Y-74747200D01*
X194429999Y-74747200D02*
X194525237Y-74794819D01*
X194525237Y-74794819D02*
X194810951Y-74794819D01*
X194810951Y-74794819D02*
X194906189Y-74747200D01*
X194906189Y-74747200D02*
X194953808Y-74699580D01*
X193477618Y-73794819D02*
X193668094Y-73794819D01*
X193668094Y-73794819D02*
X193763332Y-73842438D01*
X193763332Y-73842438D02*
X193810951Y-73890057D01*
X193810951Y-73890057D02*
X193906189Y-74032914D01*
X193906189Y-74032914D02*
X193953808Y-74223390D01*
X193953808Y-74223390D02*
X193953808Y-74604342D01*
X193953808Y-74604342D02*
X193906189Y-74699580D01*
X193906189Y-74699580D02*
X193858570Y-74747200D01*
X193858570Y-74747200D02*
X193763332Y-74794819D01*
X193763332Y-74794819D02*
X193572856Y-74794819D01*
X193572856Y-74794819D02*
X193477618Y-74747200D01*
X193477618Y-74747200D02*
X193429999Y-74699580D01*
X193429999Y-74699580D02*
X193382380Y-74604342D01*
X193382380Y-74604342D02*
X193382380Y-74366247D01*
X193382380Y-74366247D02*
X193429999Y-74271009D01*
X193429999Y-74271009D02*
X193477618Y-74223390D01*
X193477618Y-74223390D02*
X193572856Y-74175771D01*
X193572856Y-74175771D02*
X193763332Y-74175771D01*
X193763332Y-74175771D02*
X193858570Y-74223390D01*
X193858570Y-74223390D02*
X193906189Y-74271009D01*
X193906189Y-74271009D02*
X193953808Y-74366247D01*
X192953808Y-74699580D02*
X192906189Y-74747200D01*
X192906189Y-74747200D02*
X192953808Y-74794819D01*
X192953808Y-74794819D02*
X193001427Y-74747200D01*
X193001427Y-74747200D02*
X192953808Y-74699580D01*
X192953808Y-74699580D02*
X192953808Y-74794819D01*
X192001428Y-73794819D02*
X192477618Y-73794819D01*
X192477618Y-73794819D02*
X192525237Y-74271009D01*
X192525237Y-74271009D02*
X192477618Y-74223390D01*
X192477618Y-74223390D02*
X192382380Y-74175771D01*
X192382380Y-74175771D02*
X192144285Y-74175771D01*
X192144285Y-74175771D02*
X192049047Y-74223390D01*
X192049047Y-74223390D02*
X192001428Y-74271009D01*
X192001428Y-74271009D02*
X191953809Y-74366247D01*
X191953809Y-74366247D02*
X191953809Y-74604342D01*
X191953809Y-74604342D02*
X192001428Y-74699580D01*
X192001428Y-74699580D02*
X192049047Y-74747200D01*
X192049047Y-74747200D02*
X192144285Y-74794819D01*
X192144285Y-74794819D02*
X192382380Y-74794819D01*
X192382380Y-74794819D02*
X192477618Y-74747200D01*
X192477618Y-74747200D02*
X192525237Y-74699580D01*
X190543808Y-55414819D02*
X189924761Y-55414819D01*
X189924761Y-55414819D02*
X190258094Y-55795771D01*
X190258094Y-55795771D02*
X190115237Y-55795771D01*
X190115237Y-55795771D02*
X190019999Y-55843390D01*
X190019999Y-55843390D02*
X189972380Y-55891009D01*
X189972380Y-55891009D02*
X189924761Y-55986247D01*
X189924761Y-55986247D02*
X189924761Y-56224342D01*
X189924761Y-56224342D02*
X189972380Y-56319580D01*
X189972380Y-56319580D02*
X190019999Y-56367200D01*
X190019999Y-56367200D02*
X190115237Y-56414819D01*
X190115237Y-56414819D02*
X190400951Y-56414819D01*
X190400951Y-56414819D02*
X190496189Y-56367200D01*
X190496189Y-56367200D02*
X190543808Y-56319580D01*
X189067618Y-55414819D02*
X189258094Y-55414819D01*
X189258094Y-55414819D02*
X189353332Y-55462438D01*
X189353332Y-55462438D02*
X189400951Y-55510057D01*
X189400951Y-55510057D02*
X189496189Y-55652914D01*
X189496189Y-55652914D02*
X189543808Y-55843390D01*
X189543808Y-55843390D02*
X189543808Y-56224342D01*
X189543808Y-56224342D02*
X189496189Y-56319580D01*
X189496189Y-56319580D02*
X189448570Y-56367200D01*
X189448570Y-56367200D02*
X189353332Y-56414819D01*
X189353332Y-56414819D02*
X189162856Y-56414819D01*
X189162856Y-56414819D02*
X189067618Y-56367200D01*
X189067618Y-56367200D02*
X189019999Y-56319580D01*
X189019999Y-56319580D02*
X188972380Y-56224342D01*
X188972380Y-56224342D02*
X188972380Y-55986247D01*
X188972380Y-55986247D02*
X189019999Y-55891009D01*
X189019999Y-55891009D02*
X189067618Y-55843390D01*
X189067618Y-55843390D02*
X189162856Y-55795771D01*
X189162856Y-55795771D02*
X189353332Y-55795771D01*
X189353332Y-55795771D02*
X189448570Y-55843390D01*
X189448570Y-55843390D02*
X189496189Y-55891009D01*
X189496189Y-55891009D02*
X189543808Y-55986247D01*
X188543808Y-56319580D02*
X188496189Y-56367200D01*
X188496189Y-56367200D02*
X188543808Y-56414819D01*
X188543808Y-56414819D02*
X188591427Y-56367200D01*
X188591427Y-56367200D02*
X188543808Y-56319580D01*
X188543808Y-56319580D02*
X188543808Y-56414819D01*
X187591428Y-55414819D02*
X188067618Y-55414819D01*
X188067618Y-55414819D02*
X188115237Y-55891009D01*
X188115237Y-55891009D02*
X188067618Y-55843390D01*
X188067618Y-55843390D02*
X187972380Y-55795771D01*
X187972380Y-55795771D02*
X187734285Y-55795771D01*
X187734285Y-55795771D02*
X187639047Y-55843390D01*
X187639047Y-55843390D02*
X187591428Y-55891009D01*
X187591428Y-55891009D02*
X187543809Y-55986247D01*
X187543809Y-55986247D02*
X187543809Y-56224342D01*
X187543809Y-56224342D02*
X187591428Y-56319580D01*
X187591428Y-56319580D02*
X187639047Y-56367200D01*
X187639047Y-56367200D02*
X187734285Y-56414819D01*
X187734285Y-56414819D02*
X187972380Y-56414819D01*
X187972380Y-56414819D02*
X188067618Y-56367200D01*
X188067618Y-56367200D02*
X188115237Y-56319580D01*
D11*
%TO.C,Q11*%
X123510000Y-61290000D02*
X123180000Y-61530000D01*
X123180000Y-61050000D01*
X123510000Y-61290000D01*
G36*
X123510000Y-61290000D02*
G01*
X123180000Y-61530000D01*
X123180000Y-61050000D01*
X123510000Y-61290000D01*
G37*
X124690000Y-60750000D02*
X124690000Y-59230000D01*
X124690000Y-59230000D02*
X123690000Y-59230000D01*
X124640000Y-60750000D02*
X124690000Y-60750000D01*
X122740000Y-60750000D02*
X123520000Y-60750000D01*
X122570000Y-59230000D02*
X121570000Y-59230000D01*
X121570000Y-60750000D02*
X121620000Y-60750000D01*
X121570000Y-59230000D02*
X121570000Y-60750000D01*
%TO.C,C3*%
X185163733Y-50290000D02*
X185456267Y-50290000D01*
X185163733Y-51310000D02*
X185456267Y-51310000D01*
%TO.C,C22*%
X166546267Y-99020000D02*
X166253733Y-99020000D01*
X166546267Y-100040000D02*
X166253733Y-100040000D01*
%TO.C,C17*%
X187650000Y-124048767D02*
X187650000Y-123756233D01*
X188670000Y-124048767D02*
X188670000Y-123756233D01*
%TO.C,C11*%
X185103733Y-52160000D02*
X185396267Y-52160000D01*
X185103733Y-53180000D02*
X185396267Y-53180000D01*
%TO.C,Q12*%
X113890000Y-70410000D02*
X113890000Y-71930000D01*
X113890000Y-71930000D02*
X114890000Y-71930000D01*
X113940000Y-70410000D02*
X113890000Y-70410000D01*
X115840000Y-70410000D02*
X115060000Y-70410000D01*
X116010000Y-71930000D02*
X117010000Y-71930000D01*
X117010000Y-70410000D02*
X116960000Y-70410000D01*
X117010000Y-71930000D02*
X117010000Y-70410000D01*
X115400000Y-70110000D02*
X115070000Y-69870000D01*
X115400000Y-69630000D01*
X115400000Y-70110000D01*
G36*
X115400000Y-70110000D02*
G01*
X115070000Y-69870000D01*
X115400000Y-69630000D01*
X115400000Y-70110000D01*
G37*
%TO.C,C8*%
X151000000Y-124763733D02*
X151000000Y-125056267D01*
X152020000Y-124763733D02*
X152020000Y-125056267D01*
%TO.C,R38*%
X118337500Y-70664724D02*
X118337500Y-70155276D01*
X119382500Y-70664724D02*
X119382500Y-70155276D01*
%TO.C,R3*%
X173315276Y-123217500D02*
X173824724Y-123217500D01*
X173315276Y-124262500D02*
X173824724Y-124262500D01*
%TO.C,Q9*%
X175430000Y-40620000D02*
X175430000Y-42140000D01*
X175430000Y-42140000D02*
X175480000Y-42140000D01*
X176430000Y-40620000D02*
X175430000Y-40620000D01*
X176600000Y-42140000D02*
X177380000Y-42140000D01*
X178500000Y-42140000D02*
X178550000Y-42140000D01*
X178550000Y-40620000D02*
X177550000Y-40620000D01*
X178550000Y-42140000D02*
X178550000Y-40620000D01*
X177370000Y-42680000D02*
X177040000Y-42920000D01*
X177040000Y-42440000D01*
X177370000Y-42680000D01*
G36*
X177370000Y-42680000D02*
G01*
X177040000Y-42920000D01*
X177040000Y-42440000D01*
X177370000Y-42680000D01*
G37*
%TO.C,R34*%
X128725276Y-44977500D02*
X129234724Y-44977500D01*
X128725276Y-46022500D02*
X129234724Y-46022500D01*
%TO.C,Q2*%
X196670000Y-70810000D02*
X196670000Y-72330000D01*
X196670000Y-72330000D02*
X197670000Y-72330000D01*
X196720000Y-70810000D02*
X196670000Y-70810000D01*
X198620000Y-70810000D02*
X197840000Y-70810000D01*
X198790000Y-72330000D02*
X199790000Y-72330000D01*
X199790000Y-70810000D02*
X199740000Y-70810000D01*
X199790000Y-72330000D02*
X199790000Y-70810000D01*
X198180000Y-70510000D02*
X197850000Y-70270000D01*
X198180000Y-70030000D01*
X198180000Y-70510000D01*
G36*
X198180000Y-70510000D02*
G01*
X197850000Y-70270000D01*
X198180000Y-70030000D01*
X198180000Y-70510000D01*
G37*
%TO.C,R9*%
X191342224Y-68627500D02*
X190832776Y-68627500D01*
X191342224Y-69672500D02*
X190832776Y-69672500D01*
%TO.C,F3*%
X117710000Y-63218748D02*
X117710000Y-63741252D01*
X119130000Y-63218748D02*
X119130000Y-63741252D01*
%TO.C,C16*%
X187700000Y-128293733D02*
X187700000Y-128586267D01*
X188720000Y-128293733D02*
X188720000Y-128586267D01*
%TO.C,D2*%
X146280000Y-115400000D02*
X153290000Y-115400000D01*
X146280000Y-118700000D02*
X146280000Y-115400000D01*
X146280000Y-118700000D02*
X153290000Y-118700000D01*
%TO.C,R36*%
X190454724Y-61487500D02*
X189945276Y-61487500D01*
X190454724Y-62532500D02*
X189945276Y-62532500D01*
%TO.C,R2*%
X185557500Y-124174724D02*
X185557500Y-123665276D01*
X186602500Y-124174724D02*
X186602500Y-123665276D01*
%TO.C,R37*%
X123775276Y-62817500D02*
X124284724Y-62817500D01*
X123775276Y-63862500D02*
X124284724Y-63862500D01*
%TO.C,R4*%
X188860000Y-88290000D02*
X188860000Y-88400000D01*
X188860000Y-100650000D02*
X188860000Y-100540000D01*
X186490000Y-88400000D02*
X191230000Y-88400000D01*
X191230000Y-100540000D01*
X186490000Y-100540000D01*
X186490000Y-88400000D01*
%TO.C,C21*%
X140156267Y-100560000D02*
X139863733Y-100560000D01*
X140156267Y-101580000D02*
X139863733Y-101580000D01*
%TO.C,R21*%
X123765276Y-64277500D02*
X124274724Y-64277500D01*
X123765276Y-65322500D02*
X124274724Y-65322500D01*
%TO.C,R24*%
X141267500Y-79364724D02*
X141267500Y-78855276D01*
X142312500Y-79364724D02*
X142312500Y-78855276D01*
%TO.C,R33*%
X185587500Y-128165276D02*
X185587500Y-128674724D01*
X186632500Y-128165276D02*
X186632500Y-128674724D01*
%TO.C,R32*%
X190772776Y-66507500D02*
X191282224Y-66507500D01*
X190772776Y-67552500D02*
X191282224Y-67552500D01*
%TO.C,R15*%
X128725276Y-46847500D02*
X129234724Y-46847500D01*
X128725276Y-47892500D02*
X129234724Y-47892500D01*
%TO.C,R23*%
X144087500Y-79314724D02*
X144087500Y-78805276D01*
X145132500Y-79314724D02*
X145132500Y-78805276D01*
%TO.C,R5*%
X146717500Y-79334724D02*
X146717500Y-78825276D01*
X147762500Y-79334724D02*
X147762500Y-78825276D01*
%TO.C,C4*%
X123750000Y-83823733D02*
X123750000Y-84116267D01*
X124770000Y-83823733D02*
X124770000Y-84116267D01*
%TO.C,R17*%
X178354724Y-47237500D02*
X177845276Y-47237500D01*
X178354724Y-48282500D02*
X177845276Y-48282500D01*
%TO.C,R18*%
X185293737Y-44885000D02*
X183846263Y-44885000D01*
X185293737Y-47595000D02*
X183846263Y-47595000D01*
%TO.C,R29*%
X111423737Y-68385000D02*
X109976263Y-68385000D01*
X111423737Y-71095000D02*
X109976263Y-71095000D01*
%TO.C,C5*%
X127138748Y-82540000D02*
X128561252Y-82540000D01*
X127138748Y-85260000D02*
X128561252Y-85260000D01*
%TO.C,F1*%
X145191252Y-64380000D02*
X144668748Y-64380000D01*
X145191252Y-65800000D02*
X144668748Y-65800000D01*
%TO.C,C9*%
X165740000Y-122999544D02*
X165740000Y-122707010D01*
X166760000Y-122999544D02*
X166760000Y-122707010D01*
%TO.C,R22*%
X121976263Y-54625000D02*
X123423737Y-54625000D01*
X121976263Y-57335000D02*
X123423737Y-57335000D01*
%TO.C,C12*%
X121853733Y-52520000D02*
X122146267Y-52520000D01*
X121853733Y-53540000D02*
X122146267Y-53540000D01*
%TO.C,C6*%
X131180000Y-78963733D02*
X131180000Y-79256267D01*
X132200000Y-78963733D02*
X132200000Y-79256267D01*
%TO.C,C1*%
X186753733Y-67880000D02*
X187046267Y-67880000D01*
X186753733Y-68900000D02*
X187046267Y-68900000D01*
%TO.C,R28*%
X120357500Y-70674724D02*
X120357500Y-70165276D01*
X121402500Y-70674724D02*
X121402500Y-70165276D01*
%TO.C,C10*%
X134440000Y-123228000D02*
X134440000Y-124032000D01*
X134480000Y-122997000D02*
X134480000Y-124263000D01*
X134520000Y-122829000D02*
X134520000Y-124431000D01*
X134560000Y-122691000D02*
X134560000Y-124569000D01*
X134600000Y-122572000D02*
X134600000Y-124688000D01*
X134640000Y-122465000D02*
X134640000Y-124795000D01*
X134680000Y-122369000D02*
X134680000Y-124891000D01*
X134720000Y-122280000D02*
X134720000Y-124980000D01*
X134760000Y-122198000D02*
X134760000Y-125062000D01*
X134800000Y-122121000D02*
X134800000Y-125139000D01*
X134840000Y-122049000D02*
X134840000Y-125211000D01*
X134880000Y-121981000D02*
X134880000Y-125279000D01*
X134920000Y-121916000D02*
X134920000Y-125344000D01*
X134960000Y-121855000D02*
X134960000Y-125405000D01*
X135000000Y-121796000D02*
X135000000Y-125464000D01*
X135040000Y-121740000D02*
X135040000Y-125520000D01*
X135080000Y-121687000D02*
X135080000Y-125573000D01*
X135120000Y-121635000D02*
X135120000Y-125625000D01*
X135160000Y-121586000D02*
X135160000Y-125674000D01*
X135200000Y-121539000D02*
X135200000Y-125721000D01*
X135240000Y-121493000D02*
X135240000Y-125767000D01*
X135280000Y-121449000D02*
X135280000Y-125811000D01*
X135320000Y-121407000D02*
X135320000Y-125853000D01*
X135360000Y-121366000D02*
X135360000Y-125894000D01*
X135400000Y-121326000D02*
X135400000Y-122590000D01*
X135400000Y-124670000D02*
X135400000Y-125934000D01*
X135440000Y-121288000D02*
X135440000Y-122590000D01*
X135440000Y-124670000D02*
X135440000Y-125972000D01*
X135480000Y-121251000D02*
X135480000Y-122590000D01*
X135480000Y-124670000D02*
X135480000Y-126009000D01*
X135520000Y-121215000D02*
X135520000Y-122590000D01*
X135520000Y-124670000D02*
X135520000Y-126045000D01*
X135560000Y-121180000D02*
X135560000Y-122590000D01*
X135560000Y-124670000D02*
X135560000Y-126080000D01*
X135600000Y-121147000D02*
X135600000Y-122590000D01*
X135600000Y-124670000D02*
X135600000Y-126113000D01*
X135640000Y-121114000D02*
X135640000Y-122590000D01*
X135640000Y-124670000D02*
X135640000Y-126146000D01*
X135680000Y-121083000D02*
X135680000Y-122590000D01*
X135680000Y-124670000D02*
X135680000Y-126177000D01*
X135720000Y-121053000D02*
X135720000Y-122590000D01*
X135720000Y-124670000D02*
X135720000Y-126207000D01*
X135760000Y-121023000D02*
X135760000Y-122590000D01*
X135760000Y-124670000D02*
X135760000Y-126237000D01*
X135800000Y-120994000D02*
X135800000Y-122590000D01*
X135800000Y-124670000D02*
X135800000Y-126266000D01*
X135840000Y-120967000D02*
X135840000Y-122590000D01*
X135840000Y-124670000D02*
X135840000Y-126293000D01*
X135880000Y-120940000D02*
X135880000Y-122590000D01*
X135880000Y-124670000D02*
X135880000Y-126320000D01*
X135920000Y-120914000D02*
X135920000Y-122590000D01*
X135920000Y-124670000D02*
X135920000Y-126346000D01*
X135960000Y-120889000D02*
X135960000Y-122590000D01*
X135960000Y-124670000D02*
X135960000Y-126371000D01*
X136000000Y-120865000D02*
X136000000Y-122590000D01*
X136000000Y-124670000D02*
X136000000Y-126395000D01*
X136040000Y-120841000D02*
X136040000Y-122590000D01*
X136040000Y-124670000D02*
X136040000Y-126419000D01*
X136080000Y-120818000D02*
X136080000Y-122590000D01*
X136080000Y-124670000D02*
X136080000Y-126442000D01*
X136120000Y-120796000D02*
X136120000Y-122590000D01*
X136120000Y-124670000D02*
X136120000Y-126464000D01*
X136160000Y-120775000D02*
X136160000Y-122590000D01*
X136160000Y-124670000D02*
X136160000Y-126485000D01*
X136200000Y-120754000D02*
X136200000Y-122590000D01*
X136200000Y-124670000D02*
X136200000Y-126506000D01*
X136240000Y-120734000D02*
X136240000Y-122590000D01*
X136240000Y-124670000D02*
X136240000Y-126526000D01*
X136280000Y-120715000D02*
X136280000Y-122590000D01*
X136280000Y-124670000D02*
X136280000Y-126545000D01*
X136320000Y-120696000D02*
X136320000Y-122590000D01*
X136320000Y-124670000D02*
X136320000Y-126564000D01*
X136360000Y-120678000D02*
X136360000Y-122590000D01*
X136360000Y-124670000D02*
X136360000Y-126582000D01*
X136400000Y-120661000D02*
X136400000Y-122590000D01*
X136400000Y-124670000D02*
X136400000Y-126599000D01*
X136440000Y-120644000D02*
X136440000Y-122590000D01*
X136440000Y-124670000D02*
X136440000Y-126616000D01*
X136480000Y-120628000D02*
X136480000Y-122590000D01*
X136480000Y-124670000D02*
X136480000Y-126632000D01*
X136520000Y-120613000D02*
X136520000Y-122590000D01*
X136520000Y-124670000D02*
X136520000Y-126647000D01*
X136560000Y-120598000D02*
X136560000Y-122590000D01*
X136560000Y-124670000D02*
X136560000Y-126662000D01*
X136600000Y-120583000D02*
X136600000Y-122590000D01*
X136600000Y-124670000D02*
X136600000Y-126677000D01*
X136640000Y-120570000D02*
X136640000Y-122590000D01*
X136640000Y-124670000D02*
X136640000Y-126690000D01*
X136680000Y-120557000D02*
X136680000Y-122590000D01*
X136680000Y-124670000D02*
X136680000Y-126703000D01*
X136720000Y-120544000D02*
X136720000Y-122590000D01*
X136720000Y-124670000D02*
X136720000Y-126716000D01*
X136760000Y-120532000D02*
X136760000Y-122590000D01*
X136760000Y-124670000D02*
X136760000Y-126728000D01*
X136800000Y-120521000D02*
X136800000Y-122590000D01*
X136800000Y-124670000D02*
X136800000Y-126739000D01*
X136840000Y-120510000D02*
X136840000Y-122590000D01*
X136840000Y-124670000D02*
X136840000Y-126750000D01*
X136880000Y-120499000D02*
X136880000Y-122590000D01*
X136880000Y-124670000D02*
X136880000Y-126761000D01*
X136920000Y-120490000D02*
X136920000Y-122590000D01*
X136920000Y-124670000D02*
X136920000Y-126770000D01*
X136960000Y-120480000D02*
X136960000Y-122590000D01*
X136960000Y-124670000D02*
X136960000Y-126780000D01*
X137000000Y-120471000D02*
X137000000Y-122590000D01*
X137000000Y-124670000D02*
X137000000Y-126789000D01*
X137040000Y-120463000D02*
X137040000Y-122590000D01*
X137040000Y-124670000D02*
X137040000Y-126797000D01*
X137080000Y-120456000D02*
X137080000Y-122590000D01*
X137080000Y-124670000D02*
X137080000Y-126804000D01*
X137120000Y-120448000D02*
X137120000Y-122590000D01*
X137120000Y-124670000D02*
X137120000Y-126812000D01*
X137160000Y-120442000D02*
X137160000Y-122590000D01*
X137160000Y-124670000D02*
X137160000Y-126818000D01*
X137200000Y-120435000D02*
X137200000Y-122590000D01*
X137200000Y-124670000D02*
X137200000Y-126825000D01*
X137240000Y-120430000D02*
X137240000Y-122590000D01*
X137240000Y-124670000D02*
X137240000Y-126830000D01*
X137280000Y-120425000D02*
X137280000Y-122590000D01*
X137280000Y-124670000D02*
X137280000Y-126835000D01*
X137320000Y-120420000D02*
X137320000Y-122590000D01*
X137320000Y-124670000D02*
X137320000Y-126840000D01*
X137360000Y-120416000D02*
X137360000Y-122590000D01*
X137360000Y-124670000D02*
X137360000Y-126844000D01*
X137400000Y-120412000D02*
X137400000Y-122590000D01*
X137400000Y-124670000D02*
X137400000Y-126848000D01*
X137440000Y-120409000D02*
X137440000Y-122590000D01*
X137440000Y-124670000D02*
X137440000Y-126851000D01*
X137480000Y-120406000D02*
X137480000Y-126854000D01*
X137520000Y-120404000D02*
X137520000Y-126856000D01*
X137560000Y-120402000D02*
X137560000Y-126858000D01*
X137600000Y-120401000D02*
X137600000Y-126859000D01*
X137640000Y-120400000D02*
X137640000Y-126860000D01*
X137680000Y-120400000D02*
X137680000Y-126860000D01*
X140865241Y-121476000D02*
X140865241Y-122106000D01*
X141180241Y-121791000D02*
X140550241Y-121791000D01*
X140950000Y-123630000D02*
G75*
G02*
X134410000Y-123630000I-3270000J0D01*
G01*
X134410000Y-123630000D02*
G75*
G02*
X140950000Y-123630000I3270000J0D01*
G01*
%TO.C,R16*%
X122415000Y-45763737D02*
X122415000Y-44316263D01*
X125125000Y-45763737D02*
X125125000Y-44316263D01*
%TO.C,R6*%
X147915000Y-125297064D02*
X147915000Y-124842936D01*
X149385000Y-125297064D02*
X149385000Y-124842936D01*
%TO.C,F2*%
X115325000Y-115400000D02*
X115325000Y-105680000D01*
X115940000Y-105680000D02*
X115325000Y-105680000D01*
X115940000Y-115400000D02*
X115325000Y-115400000D01*
X121640000Y-105680000D02*
X122255000Y-105680000D01*
X121640000Y-115400000D02*
X122255000Y-115400000D01*
X122255000Y-115400000D02*
X122255000Y-105680000D01*
%TO.C,R30*%
X149397500Y-79384724D02*
X149397500Y-78875276D01*
X150442500Y-79384724D02*
X150442500Y-78875276D01*
%TO.C,Q10*%
X188610000Y-58280000D02*
X188610000Y-59800000D01*
X188610000Y-59800000D02*
X188660000Y-59800000D01*
X189610000Y-58280000D02*
X188610000Y-58280000D01*
X189780000Y-59800000D02*
X190560000Y-59800000D01*
X191680000Y-59800000D02*
X191730000Y-59800000D01*
X191730000Y-58280000D02*
X190730000Y-58280000D01*
X191730000Y-59800000D02*
X191730000Y-58280000D01*
X190550000Y-60340000D02*
X190220000Y-60580000D01*
X190220000Y-60100000D01*
X190550000Y-60340000D01*
G36*
X190550000Y-60340000D02*
G01*
X190220000Y-60580000D01*
X190220000Y-60100000D01*
X190550000Y-60340000D01*
G37*
%TO.C,C7*%
X127921252Y-77740000D02*
X126498748Y-77740000D01*
X127921252Y-80460000D02*
X126498748Y-80460000D01*
%TO.C,C13*%
X111266267Y-65590000D02*
X110973733Y-65590000D01*
X111266267Y-66610000D02*
X110973733Y-66610000D01*
%TO.C,Q8*%
X127320000Y-41490000D02*
X127320000Y-43010000D01*
X127320000Y-43010000D02*
X127370000Y-43010000D01*
X128320000Y-41490000D02*
X127320000Y-41490000D01*
X128490000Y-43010000D02*
X129270000Y-43010000D01*
X130390000Y-43010000D02*
X130440000Y-43010000D01*
X130440000Y-41490000D02*
X129440000Y-41490000D01*
X130440000Y-43010000D02*
X130440000Y-41490000D01*
X129260000Y-43550000D02*
X128930000Y-43790000D01*
X128930000Y-43310000D01*
X129260000Y-43550000D01*
G36*
X129260000Y-43550000D02*
G01*
X128930000Y-43790000D01*
X128930000Y-43310000D01*
X129260000Y-43550000D01*
G37*
%TO.C,R7*%
X153307500Y-125184724D02*
X153307500Y-124675276D01*
X154352500Y-125184724D02*
X154352500Y-124675276D01*
%TO.C,C2*%
X121871233Y-50370000D02*
X122163767Y-50370000D01*
X121871233Y-51390000D02*
X122163767Y-51390000D01*
%TO.C,R19*%
X190454724Y-63377500D02*
X189945276Y-63377500D01*
X190454724Y-64422500D02*
X189945276Y-64422500D01*
%TO.C,R35*%
X178404724Y-45287500D02*
X177895276Y-45287500D01*
X178404724Y-46332500D02*
X177895276Y-46332500D01*
%TO.C,R8*%
X192556263Y-70535000D02*
X194003737Y-70535000D01*
X192556263Y-73245000D02*
X194003737Y-73245000D01*
%TO.C,R20*%
X185173737Y-54555000D02*
X183726263Y-54555000D01*
X185173737Y-57265000D02*
X183726263Y-57265000D01*
%TD*%
M02*
