M48
; DRILL file KiCad 10.0.1 date 2026-06-01T12:06:05
; FORMAT={-:-/ absolute / metric / decimal}
; #@! TF.CreationDate,2026-06-01T12:06:05+05:30
; #@! TF.GenerationSoftware,Kicad,Pcbnew,10.0.1
; #@! TF.FileFunction,Plated,1,2,PTH
FMAT,2
METRIC
; #@! TA.AperFunction,Plated,PTH,ViaDrill
T1C0.400
; #@! TA.AperFunction,Plated,PTH,ComponentDrill
T2C0.750
; #@! TA.AperFunction,Plated,PTH,ComponentDrill
T3C0.800
; #@! TA.AperFunction,Plated,PTH,ComponentDrill
T4C0.900
; #@! TA.AperFunction,Plated,PTH,ComponentDrill
T5C1.000
; #@! TA.AperFunction,Plated,PTH,ComponentDrill
T6C1.016
; #@! TA.AperFunction,Plated,PTH,ComponentDrill
T7C1.200
; #@! TA.AperFunction,Plated,PTH,ComponentDrill
T8C1.500
; #@! TA.AperFunction,Plated,PTH,ComponentDrill
T9C1.800
%
G90
G05
T1
X103.919Y-91.118
X108.66Y-60.36
X109.31Y-72.36
X109.69Y-76.55
X114.12Y-130.25
X114.14Y-103.38
X114.21Y-117.6
X115.08Y-51.97
X115.08Y-66.74
X116.08Y-63.21
X116.33Y-47.41
X116.505Y-68.755
X116.66Y-74.03
X117.0Y-65.46
X118.164Y-72.576
X120.4Y-81.2
X120.41Y-46.67
X120.615Y-89.865
X121.6Y-89.05
X121.682Y-85.362
X122.9Y-92.85
X124.13Y-77.34
X124.26Y-84.832
X124.38Y-70.76
X125.52Y-91.81
X127.07Y-91.79
X127.16Y-67.86
X127.96Y-48.67
X128.16Y-76.15
X129.86Y-65.37
X130.58Y-67.89
X130.8Y-55.63
X131.06Y-83.78
X131.352Y-42.692
X131.71Y-48.75
X131.95Y-82.23
X133.59Y-76.35
X133.67Y-79.79
X133.82Y-36.89
X133.91Y-85.74
X134.0Y-48.12
X135.6Y-79.77
X135.61Y-76.38
X136.36Y-85.71
X137.63Y-79.81
X137.64Y-78.61
X137.66Y-76.3
X138.56Y-85.74
X139.64Y-36.95
X140.58Y-81.27
X140.69Y-53.63
X140.99Y-83.58
X140.99Y-85.74
X141.04Y-65.0
X141.29Y-110.76
X142.69Y-59.71
X142.76Y-85.71
X142.78Y-68.81
X143.15Y-80.05
X143.82Y-27.39
X145.142Y-86.343
X145.23Y-129.43
X145.54Y-55.04
X145.79Y-59.7
X146.57Y-53.82
X147.49Y-86.39
X148.585Y-79.475
X148.62Y-54.42
X148.62Y-56.67
X149.39Y-35.25
X149.53Y-86.41
X149.8Y-64.18
X152.19Y-40.58
X152.25Y-72.18
X152.43Y-77.0
X152.69Y-80.69
X154.47Y-76.98
X156.66Y-77.01
X158.16Y-87.11
X158.17Y-35.27
X158.358Y-83.05
X159.65Y-43.218
X159.95Y-78.89
X160.2Y-129.44
X160.25Y-65.28
X160.555Y-98.855
X160.9Y-62.75
X161.01Y-87.14
X161.52Y-44.14
X161.64Y-38.34
X161.88Y-106.36
X162.11Y-46.01
X162.39Y-78.88
X162.58Y-66.2
X163.16Y-27.43
X163.77Y-62.82
X164.35Y-59.1
X164.44Y-110.57
X164.78Y-47.75
X165.53Y-70.65
X166.739Y-70.639
X166.93Y-57.06
X166.93Y-59.85
X166.94Y-64.62
X166.96Y-77.94
X167.0Y-67.26
X167.36Y-37.0
X167.755Y-109.945
X169.67Y-98.88
X169.83Y-85.85
X170.01Y-79.88
X170.466Y-70.79
X170.54Y-123.682
X171.08Y-76.29
X171.75Y-113.93
X171.84Y-46.76
X171.975Y-70.555
X172.22Y-71.88
X172.47Y-68.62
X172.56Y-47.81
X172.68Y-79.89
X172.8Y-91.37
X173.175Y-77.215
X173.65Y-85.89
X175.64Y-79.89
X176.44Y-55.7
X177.1Y-85.87
X177.13Y-44.26
X177.42Y-66.28
X177.96Y-77.23
X179.51Y-78.13
X179.51Y-80.08
X179.98Y-91.92
X180.16Y-85.91
X180.21Y-83.21
X180.36Y-112.39
X180.59Y-124.54
X180.71Y-49.53
X181.498Y-76.252
X181.52Y-44.3
X181.63Y-46.28
X181.74Y-130.39
X181.75Y-126.81
X181.84Y-67.81
X182.61Y-80.86
X183.62Y-118.98
X183.62Y-122.8
X184.11Y-42.3
X184.55Y-76.21
X184.64Y-61.12
X185.14Y-90.48
X185.18Y-88.31
X185.87Y-87.06
X186.38Y-58.02
X186.43Y-59.92
X187.3Y-70.73
X189.57Y-72.07
X190.78Y-74.27
X191.615Y-123.215
X192.61Y-118.32
X192.68Y-103.21
X192.87Y-91.64
X193.0Y-130.35
X196.81Y-76.38
X197.89Y-59.05
X201.16Y-74.26
T2
X128.45Y-94.92
X130.45Y-94.92
X132.45Y-94.92
X134.45Y-94.92
X136.45Y-94.92
X138.45Y-94.92
X168.66Y-94.99
X170.66Y-94.99
X172.66Y-94.99
X174.66Y-94.99
X176.66Y-94.99
X178.66Y-94.99
T3
X128.01Y-69.71
X130.55Y-69.71
X133.09Y-69.71
X136.43Y-123.63
X138.93Y-123.63
X149.99Y-25.37
X149.99Y-27.91
X149.99Y-30.45
X151.27Y-43.66
X153.81Y-43.66
X156.35Y-43.66
X157.09Y-25.38
X157.09Y-27.92
X157.09Y-30.46
X175.54Y-69.635
X178.08Y-69.635
X180.62Y-69.635
X194.81Y-88.385
X197.35Y-88.385
X199.89Y-88.385
T4
X119.28Y-123.41
X119.28Y-125.41
X119.28Y-127.41
X119.36Y-94.97
X119.36Y-96.97
X119.36Y-98.97
X176.37Y-128.09
X178.91Y-128.09
T5
X104.985Y-77.77
X105.22Y-83.65
X105.31Y-88.73
X107.525Y-77.77
X107.76Y-83.65
X107.85Y-88.73
X110.3Y-83.65
X110.39Y-88.73
X110.6Y-79.77
X112.84Y-83.65
X112.93Y-88.73
X113.14Y-79.77
X115.38Y-83.65
X115.47Y-88.73
X117.92Y-83.65
X118.01Y-88.73
X131.91Y-51.045
X131.91Y-53.585
X133.88Y-56.695
X133.88Y-59.235
X137.354Y-41.216
X137.65Y-53.75
X137.65Y-56.29
X137.65Y-58.83
X137.65Y-61.37
X137.65Y-63.91
X137.65Y-66.45
X138.03Y-48.66
X139.15Y-39.42
X139.826Y-46.864
X141.622Y-45.068
X142.784Y-38.666
X143.08Y-113.65
X143.08Y-116.19
X143.08Y-126.35
X143.08Y-128.89
X143.418Y-43.272
X144.13Y-93.53
X144.13Y-108.77
X144.58Y-36.87
X144.75Y-48.54
X144.78Y-52.09
X144.78Y-69.87
X145.214Y-41.476
X146.67Y-93.53
X146.67Y-108.77
X147.01Y-39.68
X147.29Y-48.54
X147.32Y-52.09
X147.32Y-69.87
X149.21Y-93.53
X149.21Y-108.77
X149.83Y-48.54
X149.86Y-52.09
X149.86Y-69.87
X151.75Y-93.53
X151.75Y-108.77
X152.37Y-48.54
X152.4Y-52.09
X152.4Y-69.87
X154.29Y-93.53
X154.29Y-108.77
X154.91Y-48.54
X154.94Y-52.09
X154.94Y-69.87
X156.83Y-93.53
X156.83Y-108.77
X157.45Y-48.54
X157.48Y-52.09
X157.48Y-69.87
X159.37Y-108.77
X159.37Y-93.53
X159.99Y-48.54
X160.02Y-52.09
X160.02Y-69.87
X160.106Y-39.626
X161.902Y-41.422
X161.91Y-93.53
X161.91Y-108.77
X162.53Y-48.54
X162.56Y-52.09
X162.56Y-69.87
X162.57Y-36.78
X163.4Y-113.65
X163.4Y-116.19
X163.4Y-126.35
X163.4Y-128.89
X163.698Y-43.218
X164.366Y-38.576
X165.494Y-45.014
X167.29Y-46.81
X167.94Y-39.37
X169.086Y-48.606
X169.736Y-41.166
X169.83Y-53.77
X169.83Y-56.31
X169.83Y-58.85
X169.83Y-61.39
X169.83Y-63.93
X169.83Y-66.47
X173.56Y-56.825
X173.56Y-59.365
X175.56Y-51.185
X175.56Y-53.725
X188.5Y-83.6
X191.04Y-83.6
X193.24Y-79.8
X193.58Y-83.6
X195.78Y-79.8
X196.12Y-83.6
X198.66Y-83.6
X198.875Y-77.79
X201.2Y-83.6
X201.415Y-77.79
T6
X124.34Y-74.1
X124.34Y-89.34
X126.88Y-74.1
X126.88Y-89.34
X129.42Y-74.1
X129.42Y-89.34
X131.96Y-74.1
X131.96Y-89.34
X134.5Y-74.1
X134.5Y-89.34
X137.04Y-74.1
X137.04Y-89.34
X139.58Y-74.1
X139.58Y-89.34
X142.12Y-74.1
X142.12Y-89.34
X144.66Y-74.1
X144.66Y-89.34
X147.2Y-74.1
X147.2Y-89.34
X149.74Y-74.1
X149.74Y-89.34
X152.28Y-74.1
X152.28Y-89.34
X154.82Y-74.1
X154.82Y-89.34
X157.36Y-74.1
X157.36Y-89.34
X159.9Y-74.1
X159.9Y-89.34
X162.44Y-74.1
X162.44Y-89.34
X164.98Y-74.1
X164.98Y-89.34
X167.52Y-74.1
X167.52Y-89.34
X170.06Y-74.1
X170.06Y-89.34
X172.6Y-74.1
X172.6Y-89.34
X175.14Y-74.1
X175.14Y-89.34
X177.68Y-74.1
X177.68Y-89.34
X180.22Y-74.1
X180.22Y-89.34
X182.76Y-74.1
X182.76Y-89.34
T7
X188.86Y-86.85
X188.86Y-102.09
T8
X119.28Y-121.31
X119.28Y-129.51
X119.36Y-92.87
X119.36Y-101.07
T9
X126.72Y-126.58
X131.72Y-126.58
M30
