%TF.GenerationSoftware,KiCad,Pcbnew,10.0.1*%
%TF.CreationDate,2026-05-28T22:41:40+05:30*%
%TF.ProjectId,HSM_Project,48534d5f-5072-46f6-9a65-63742e6b6963,rev?*%
%TF.SameCoordinates,Original*%
%TF.FileFunction,Soldermask,Top*%
%TF.FilePolarity,Negative*%
%FSLAX46Y46*%
G04 Gerber Fmt 4.6, Leading zero omitted, Abs format (unit mm)*
G04 Created by KiCad (PCBNEW 10.0.1) date 2026-05-28 22:41:40*
%MOMM*%
%LPD*%
G01*
G04 APERTURE LIST*
G04 Aperture macros list*
%AMRoundRect*
0 Rectangle with rounded corners*
0 $1 Rounding radius*
0 $2 $3 $4 $5 $6 $7 $8 $9 X,Y pos of 4 corners*
0 Add a 4 corners polygon primitive as box body*
4,1,4,$2,$3,$4,$5,$6,$7,$8,$9,$2,$3,0*
0 Add four circle primitives for the rounded corners*
1,1,$1+$1,$2,$3*
1,1,$1+$1,$4,$5*
1,1,$1+$1,$6,$7*
1,1,$1+$1,$8,$9*
0 Add four rect primitives between the rounded corners*
20,1,$1+$1,$2,$3,$4,$5,0*
20,1,$1+$1,$4,$5,$6,$7,0*
20,1,$1+$1,$6,$7,$8,$9,0*
20,1,$1+$1,$8,$9,$2,$3,0*%
%AMRotRect*
0 Rectangle, with rotation*
0 The origin of the aperture is its center*
0 $1 length*
0 $2 width*
0 $3 Rotation angle, in degrees counterclockwise*
0 Add horizontal line*
21,1,$1,$2,0,0,$3*%
G04 Aperture macros list end*
%ADD10C,1.000000*%
%ADD11C,2.100000*%
%ADD12R,1.800000X1.800000*%
%ADD13C,1.800000*%
%ADD14R,2.500000X1.500000*%
%ADD15R,1.700000X1.700000*%
%ADD16C,1.700000*%
%ADD17RoundRect,0.250000X-0.350000X-0.625000X0.350000X-0.625000X0.350000X0.625000X-0.350000X0.625000X0*%
%ADD18O,1.200000X1.750000*%
%ADD19C,1.440000*%
%ADD20O,3.500000X2.200000*%
%ADD21O,2.500000X1.500000*%
%ADD22RotRect,1.700000X1.700000X225.000000*%
%ADD23RotRect,1.700000X1.700000X135.000000*%
%ADD24C,1.728000*%
%ADD25RoundRect,0.090000X-0.660000X-0.360000X0.660000X-0.360000X0.660000X0.360000X-0.660000X0.360000X0*%
%ADD26RoundRect,0.750000X0.750000X0.750000X-0.750000X0.750000X-0.750000X-0.750000X0.750000X-0.750000X0*%
%ADD27C,3.000000*%
%ADD28C,2.400000*%
%ADD29RoundRect,0.250000X0.550000X0.550000X-0.550000X0.550000X-0.550000X-0.550000X0.550000X-0.550000X0*%
%ADD30C,1.600000*%
G04 APERTURE END LIST*
%TO.C,D1*%
D10*
X137103949Y-42406052D02*
G75*
G02*
X136103947Y-42406052I-500001J0D01*
G01*
X136103947Y-42406052D02*
G75*
G02*
X137103949Y-42406052I500001J0D01*
G01*
X138899999Y-40610000D02*
G75*
G02*
X137900001Y-40610000I-499999J0D01*
G01*
X137900001Y-40610000D02*
G75*
G02*
X138899999Y-40610000I499999J0D01*
G01*
%TO.C,Q4*%
X143871973Y-36028026D02*
G75*
G02*
X142871975Y-36028026I-499999J0D01*
G01*
X142871975Y-36028026D02*
G75*
G02*
X143871973Y-36028026I499999J0D01*
G01*
X145668027Y-34231974D02*
G75*
G02*
X144668025Y-34231974I-500001J0D01*
G01*
X144668025Y-34231974D02*
G75*
G02*
X145668027Y-34231974I500001J0D01*
G01*
%TO.C,Q13*%
X116479997Y-78340000D02*
G75*
G02*
X115479999Y-78340000I-499999J0D01*
G01*
X115479999Y-78340000D02*
G75*
G02*
X116479997Y-78340000I499999J0D01*
G01*
X119020001Y-78340000D02*
G75*
G02*
X118019999Y-78340000I-500001J0D01*
G01*
X118019999Y-78340000D02*
G75*
G02*
X119020001Y-78340000I500001J0D01*
G01*
%TO.C,D7*%
X175800000Y-52672500D02*
G75*
G02*
X174800000Y-52672500I-500000J0D01*
G01*
X174800000Y-52672500D02*
G75*
G02*
X175800000Y-52672500I500000J0D01*
G01*
X175800000Y-55212500D02*
G75*
G02*
X174800000Y-55212500I-500000J0D01*
G01*
X174800000Y-55212500D02*
G75*
G02*
X175800000Y-55212500I500000J0D01*
G01*
%TO.C,Q5*%
X162373949Y-34073948D02*
G75*
G02*
X161373947Y-34073948I-500001J0D01*
G01*
X161373947Y-34073948D02*
G75*
G02*
X162373949Y-34073948I500001J0D01*
G01*
X164169999Y-35870000D02*
G75*
G02*
X163170001Y-35870000I-499999J0D01*
G01*
X163170001Y-35870000D02*
G75*
G02*
X164169999Y-35870000I499999J0D01*
G01*
%TO.C,D6*%
X169189999Y-40420000D02*
G75*
G02*
X168190001Y-40420000I-499999J0D01*
G01*
X168190001Y-40420000D02*
G75*
G02*
X169189999Y-40420000I499999J0D01*
G01*
X170986053Y-42216052D02*
G75*
G02*
X169986051Y-42216052I-500001J0D01*
G01*
X169986051Y-42216052D02*
G75*
G02*
X170986053Y-42216052I500001J0D01*
G01*
%TO.C,Q7*%
X133090000Y-61920000D02*
G75*
G02*
X132090000Y-61920000I-500000J0D01*
G01*
X132090000Y-61920000D02*
G75*
G02*
X133090000Y-61920000I500000J0D01*
G01*
X133090000Y-64460000D02*
G75*
G02*
X132090000Y-64460000I-500000J0D01*
G01*
X132090000Y-64460000D02*
G75*
G02*
X133090000Y-64460000I500000J0D01*
G01*
%TO.C,D9*%
X107307500Y-78057500D02*
G75*
G02*
X106307498Y-78057500I-500001J0D01*
G01*
X106307498Y-78057500D02*
G75*
G02*
X107307500Y-78057500I500001J0D01*
G01*
X109847500Y-78057500D02*
G75*
G02*
X108847502Y-78057500I-499999J0D01*
G01*
X108847502Y-78057500D02*
G75*
G02*
X109847500Y-78057500I499999J0D01*
G01*
%TO.C,Q6*%
X175620000Y-61840000D02*
G75*
G02*
X174620000Y-61840000I-500000J0D01*
G01*
X174620000Y-61840000D02*
G75*
G02*
X175620000Y-61840000I500000J0D01*
G01*
X175620000Y-64380000D02*
G75*
G02*
X174620000Y-64380000I-500000J0D01*
G01*
X174620000Y-64380000D02*
G75*
G02*
X175620000Y-64380000I500000J0D01*
G01*
%TO.C,D4*%
X197690000Y-78230000D02*
G75*
G02*
X196690000Y-78230000I-500000J0D01*
G01*
X196690000Y-78230000D02*
G75*
G02*
X197690000Y-78230000I500000J0D01*
G01*
X200230000Y-78230000D02*
G75*
G02*
X199230000Y-78230000I-500000J0D01*
G01*
X199230000Y-78230000D02*
G75*
G02*
X200230000Y-78230000I500000J0D01*
G01*
%TO.C,Q3*%
X188530000Y-78470000D02*
G75*
G02*
X187529998Y-78470000I-500001J0D01*
G01*
X187529998Y-78470000D02*
G75*
G02*
X188530000Y-78470000I500001J0D01*
G01*
X191070000Y-78470000D02*
G75*
G02*
X190070002Y-78470000I-499999J0D01*
G01*
X190070002Y-78470000D02*
G75*
G02*
X191070000Y-78470000I499999J0D01*
G01*
%TO.C,D8*%
X132830000Y-52750000D02*
G75*
G02*
X131830000Y-52750000I-500000J0D01*
G01*
X131830000Y-52750000D02*
G75*
G02*
X132830000Y-52750000I500000J0D01*
G01*
X132830000Y-55290000D02*
G75*
G02*
X131830000Y-55290000I-500000J0D01*
G01*
X131830000Y-55290000D02*
G75*
G02*
X132830000Y-55290000I500000J0D01*
G01*
%TD*%
D11*
%TO.C,H8*%
X173470000Y-119500000D03*
%TD*%
D12*
%TO.C,D3*%
X176370000Y-128090000D03*
D13*
X178910000Y-128090000D03*
%TD*%
D14*
%TO.C,SW3*%
X191840000Y-124590000D03*
X183340000Y-124590000D03*
%TD*%
D15*
%TO.C,J8*%
X188500000Y-83600000D03*
D16*
X191040000Y-83600000D03*
X193580000Y-83600000D03*
X196120000Y-83600000D03*
X198660000Y-83600000D03*
X201200000Y-83600000D03*
%TD*%
D11*
%TO.C,H5*%
X133175000Y-101585000D03*
%TD*%
D17*
%TO.C,J7*%
X168660000Y-94990000D03*
D18*
X170660000Y-94990000D03*
X172660000Y-94990000D03*
X174660000Y-94990000D03*
X176660000Y-94990000D03*
X178660000Y-94990000D03*
%TD*%
D11*
%TO.C,H6*%
X133175000Y-119495000D03*
%TD*%
D19*
%TO.C,RV4*%
X180620000Y-69635000D03*
X178080000Y-69635000D03*
X175540000Y-69635000D03*
%TD*%
D16*
%TO.C,TB1*%
X161900000Y-93522000D03*
X159360000Y-93522000D03*
X156820000Y-93522000D03*
X154280000Y-93522000D03*
X151740000Y-93522000D03*
X149200000Y-93522000D03*
X146660000Y-93522000D03*
X144120000Y-93522000D03*
X161900000Y-108762000D03*
X159360000Y-108762000D03*
X156820000Y-108762000D03*
X154280000Y-108762000D03*
X151740000Y-108762000D03*
X149200000Y-108762000D03*
X146660000Y-108762000D03*
X144120000Y-108762000D03*
%TD*%
D17*
%TO.C,J6*%
X128450000Y-94920000D03*
D18*
X130450000Y-94920000D03*
X132450000Y-94920000D03*
X134450000Y-94920000D03*
X136450000Y-94920000D03*
X138450000Y-94920000D03*
%TD*%
D15*
%TO.C,J13*%
X117920000Y-83650000D03*
D16*
X115380000Y-83650000D03*
X112840000Y-83650000D03*
X110300000Y-83650000D03*
X107760000Y-83650000D03*
X105220000Y-83650000D03*
%TD*%
D11*
%TO.C,H3*%
X179470000Y-101640000D03*
%TD*%
D20*
%TO.C,SW2*%
X119280000Y-121310000D03*
X119280000Y-129510000D03*
D14*
X119280000Y-123410000D03*
D21*
X119280000Y-125410000D03*
X119280000Y-127410000D03*
%TD*%
D19*
%TO.C,RV1*%
X194810000Y-88385000D03*
X197350000Y-88385000D03*
X199890000Y-88385000D03*
%TD*%
D22*
%TO.C,J10*%
X169086051Y-48606051D03*
D16*
X167290000Y-46810000D03*
X165493949Y-45013949D03*
X163697897Y-43217897D03*
X161901846Y-41421846D03*
X160105795Y-39625795D03*
%TD*%
D19*
%TO.C,RV6*%
X133090000Y-69710000D03*
X130550000Y-69710000D03*
X128010000Y-69710000D03*
%TD*%
D23*
%TO.C,J9*%
X138029744Y-48660256D03*
D16*
X139825795Y-46864205D03*
X141621846Y-45068154D03*
X143417898Y-43272102D03*
X145213949Y-41476051D03*
X147010000Y-39680000D03*
%TD*%
D19*
%TO.C,RV2*%
X149990000Y-30450000D03*
X149990000Y-27910000D03*
X149990000Y-25370000D03*
%TD*%
D11*
%TO.C,H7*%
X173470000Y-101620000D03*
%TD*%
%TO.C,H2*%
X127175000Y-119505000D03*
%TD*%
D24*
%TO.C,J4*%
X129420000Y-74100000D03*
X159900000Y-89340000D03*
X126880000Y-74100000D03*
X126880000Y-89340000D03*
X129420000Y-89340000D03*
X131960000Y-89340000D03*
X134500000Y-89340000D03*
X137040000Y-89340000D03*
X139580000Y-89340000D03*
X142120000Y-89340000D03*
X144660000Y-89340000D03*
X147200000Y-89340000D03*
X149740000Y-89340000D03*
X152280000Y-89340000D03*
X154820000Y-89340000D03*
X157360000Y-89340000D03*
X157360000Y-74100000D03*
X154820000Y-74100000D03*
X152280000Y-74100000D03*
X149740000Y-74100000D03*
X147200000Y-74100000D03*
X144660000Y-74100000D03*
X142120000Y-74100000D03*
X139580000Y-74100000D03*
X137040000Y-74100000D03*
X134500000Y-74100000D03*
X131960000Y-74100000D03*
X162440000Y-89340000D03*
X164980000Y-89340000D03*
X167520000Y-89340000D03*
X170060000Y-89340000D03*
X172600000Y-89340000D03*
X175140000Y-89340000D03*
X177680000Y-89340000D03*
X180220000Y-89340000D03*
X182760000Y-89340000D03*
X182760000Y-74100000D03*
X180220000Y-74100000D03*
X177680000Y-74100000D03*
X175140000Y-74100000D03*
X172600000Y-74100000D03*
X170060000Y-74100000D03*
X167520000Y-74100000D03*
X164980000Y-74100000D03*
X162440000Y-74100000D03*
X124340000Y-89340000D03*
X159900000Y-74100000D03*
X124340000Y-74100000D03*
%TD*%
D15*
%TO.C,J11*%
X169970000Y-66430000D03*
D16*
X169970000Y-63890000D03*
X169970000Y-61350000D03*
X169970000Y-58810000D03*
X169970000Y-56270000D03*
X169970000Y-53730000D03*
%TD*%
D15*
%TO.C,J16*%
X118010000Y-88730000D03*
D16*
X115470000Y-88730000D03*
X112930000Y-88730000D03*
X110390000Y-88730000D03*
X107850000Y-88730000D03*
X105310000Y-88730000D03*
%TD*%
%TO.C,J14*%
X144780000Y-52090000D03*
X147320000Y-52090000D03*
X149860000Y-52090000D03*
X152400000Y-52090000D03*
X154940000Y-52090000D03*
X157480000Y-52090000D03*
X160020000Y-52090000D03*
X162560000Y-52090000D03*
X162560000Y-69870000D03*
X160020000Y-69870000D03*
X157480000Y-69870000D03*
X154940000Y-69870000D03*
X152400000Y-69870000D03*
X149860000Y-69870000D03*
X147320000Y-69870000D03*
X144780000Y-69870000D03*
%TD*%
D11*
%TO.C,H1*%
X127175000Y-101585000D03*
%TD*%
%TO.C,H9*%
X153750000Y-35560000D03*
%TD*%
D15*
%TO.C,J12*%
X137650000Y-54100000D03*
D16*
X137650000Y-56640000D03*
X137650000Y-59180000D03*
X137650000Y-61720000D03*
X137650000Y-64260000D03*
X137650000Y-66800000D03*
%TD*%
D25*
%TO.C,D5*%
X167350000Y-126020000D03*
X167350000Y-129320000D03*
X172250000Y-129320000D03*
X172250000Y-126020000D03*
%TD*%
D16*
%TO.C,J2*%
X143080000Y-128890000D03*
X143080000Y-126350000D03*
X143080000Y-116190000D03*
X143080000Y-113650000D03*
X163400000Y-113650000D03*
X163400000Y-116190000D03*
X163400000Y-126350000D03*
X163400000Y-128890000D03*
%TD*%
D19*
%TO.C,RV5*%
X156350000Y-43660000D03*
X153810000Y-43660000D03*
X151270000Y-43660000D03*
%TD*%
D26*
%TO.C,J1*%
X131720000Y-126580000D03*
D27*
X126720000Y-126580000D03*
%TD*%
D19*
%TO.C,RV3*%
X157090000Y-30460000D03*
X157090000Y-27920000D03*
X157090000Y-25380000D03*
%TD*%
D20*
%TO.C,SW5*%
X119360000Y-92870001D03*
X119360000Y-101070000D03*
D14*
X119360000Y-94970001D03*
D21*
X119360000Y-96970002D03*
X119360000Y-98970001D03*
%TD*%
D15*
%TO.C,J5*%
X144750000Y-48540000D03*
D16*
X147290000Y-48540000D03*
X149830000Y-48540000D03*
X152370000Y-48540000D03*
X154910000Y-48540000D03*
X157450000Y-48540000D03*
X159990000Y-48540000D03*
X162530000Y-48540000D03*
%TD*%
D11*
%TO.C,H10*%
X153750000Y-20560000D03*
%TD*%
D14*
%TO.C,SW4*%
X183340000Y-128650000D03*
X191840000Y-128650000D03*
%TD*%
D11*
%TO.C,H4*%
X179470000Y-119530000D03*
%TD*%
D28*
%TO.C,R4*%
X188860000Y-86850000D03*
X188860000Y-102090000D03*
%TD*%
D29*
%TO.C,C10*%
X138930000Y-123630000D03*
D30*
X136430000Y-123630000D03*
%TD*%
M02*
